M48
; DRILL file {KiCad (5.1.2)-1} date 2019/05/30 15:54:00
; FORMAT={-:-/ absolute / metric / decimal}
; #@! TF.CreationDate,2019-05-30T15:54:00+09:00
; #@! TF.GenerationSoftware,Kicad,Pcbnew,(5.1.2)-1
FMAT,2
METRIC
T1C0.400
T2C0.700
T3C0.800
T4C0.950
T5C1.000
T6C1.200
T7C1.500
T8C1.600
T9C1.800
T10C2.000
%
G90
G05
T1
X2.0Y-2.0
X2.0Y-20.0
X2.0Y-38.0
X8.0Y-40.0
X10.0Y-32.0
X14.0Y-33.0
X14.0Y-36.0
X17.0Y-10.0
X20.0Y-31.0
X20.0Y-34.0
X21.0Y-21.0
X22.0Y-24.0
X22.512Y-31.91
X22.512Y-33.434
X25.0Y-30.0
X25.0Y-34.0
X27.0Y-22.0
X28.1Y-33.434
X30.0Y-24.0
X30.0Y-30.0
X31.0Y-15.0
X31.0Y-34.0
X32.0Y-11.0
X33.0Y-16.0
X33.18Y-31.148
X33.18Y-33.434
X35.0Y-18.0
X36.0Y-34.0
X39.0Y-15.0
X39.0Y-27.0
X40.0Y-23.0
X43.0Y-16.0
X44.0Y-27.0
X44.61Y-33.18
X45.0Y-18.0
X47.0Y-33.0
X48.0Y-16.0
X49.69Y-33.18
X50.0Y-2.0
X50.0Y-26.0
X52.0Y-31.0
X54.0Y-31.0
X55.0Y-10.0
X56.0Y-23.0
X58.0Y-34.0
X59.0Y-24.0
X61.12Y-33.18
X62.0Y-16.0
X64.168Y-24.544
X66.0Y-20.0
X66.2Y-33.18
X68.0Y-10.0
X70.0Y-16.0
X70.0Y-24.0
X71.788Y-33.18
X73.0Y-28.0
X74.0Y-19.0
X74.0Y-24.0
X75.0Y-16.0
X77.0Y-18.0
X77.0Y-28.0
X77.63Y-33.18
X78.0Y-24.0
X80.0Y-33.0
X82.0Y-12.0
X82.0Y-16.0
X82.0Y-29.0
X82.71Y-33.18
X84.0Y-25.0
X85.0Y-13.0
X85.0Y-32.0
X87.0Y-21.0
X87.0Y-28.0
X87.028Y-33.688
X97.0Y-2.0
X97.0Y-18.0
X97.0Y-32.0
T2
X15.4Y-64.93
X19.21Y-64.93
X31.91Y-64.93
X36.355Y-64.93
X48.42Y-64.93
X53.5Y-64.93
X64.93Y-64.93
X70.01Y-64.93
X81.44Y-64.93
X83.472Y-30.132
X86.52Y-64.93
X91.6Y-27.338
T3
X63.66Y-38.26
X63.66Y-45.88
X66.2Y-38.26
X66.2Y-45.88
X25.473Y-46.896
X27.973Y-46.896
X80.17Y-38.26
X80.17Y-45.88
X82.71Y-38.26
X82.71Y-45.88
X32.545Y-13.495
X32.545Y-28.735
X35.085Y-13.495
X35.085Y-28.735
X37.625Y-13.495
X37.625Y-28.735
X40.165Y-13.495
X40.165Y-28.735
X42.705Y-13.495
X42.705Y-28.735
X45.245Y-13.495
X45.245Y-28.735
X47.785Y-13.495
X47.785Y-28.735
X50.325Y-13.495
X50.325Y-28.735
X52.865Y-13.495
X52.865Y-28.735
X55.405Y-13.495
X55.405Y-28.735
X57.945Y-13.495
X57.945Y-28.735
X60.485Y-13.495
X60.485Y-28.735
X63.025Y-13.495
X63.025Y-28.735
X65.565Y-13.495
X65.565Y-28.735
X68.105Y-13.495
X68.105Y-28.735
X30.64Y-38.26
X30.64Y-45.88
X33.18Y-38.26
X33.18Y-45.88
X36.355Y-38.26
X36.355Y-45.88
X38.895Y-38.26
X38.895Y-45.88
X8.963Y-46.896
X11.463Y-46.896
X19.845Y-38.26
X19.845Y-45.88
X22.385Y-38.26
X22.385Y-45.88
X52.865Y-38.26
X52.865Y-45.88
X55.405Y-38.26
X55.405Y-45.88
X85.885Y-38.26
X85.885Y-45.88
X88.425Y-38.26
X88.425Y-45.88
X58.493Y-46.896
X60.993Y-46.896
X75.003Y-46.896
X77.503Y-46.896
X41.983Y-46.896
X44.483Y-46.896
X14.13Y-38.26
X14.13Y-45.88
X16.67Y-38.26
X16.67Y-45.88
X47.15Y-38.26
X47.15Y-45.88
X49.69Y-38.26
X49.69Y-45.88
X69.375Y-38.26
X69.375Y-45.88
X71.915Y-38.26
X71.915Y-45.88
T4
X88.545Y-23.655
X91.045Y-23.655
X93.545Y-23.655
X96.045Y-23.655
T5
X2.7Y-40.8
X2.7Y-43.34
X2.7Y-45.88
X2.7Y-48.42
X2.7Y-50.96
X2.7Y-53.5
X2.7Y-56.04
X2.7Y-58.58
X2.7Y-61.12
X2.7Y-63.66
X2.7Y-66.2
X2.7Y-68.74
X2.7Y-71.28
X2.7Y-73.82
X2.7Y-76.36
X2.7Y-78.9
X2.7Y-81.44
X2.7Y-83.98
X2.7Y-86.52
X2.7Y-89.06
X2.7Y-91.6
X2.7Y-94.14
X2.7Y-96.68
X5.24Y-40.8
X5.24Y-43.34
X5.24Y-45.88
X5.24Y-48.42
X5.24Y-50.96
X5.24Y-53.5
X5.24Y-56.04
X5.24Y-58.58
X5.24Y-61.12
X5.24Y-63.66
X5.24Y-66.2
X5.24Y-68.74
X5.24Y-71.28
X5.24Y-73.82
X5.24Y-76.36
X5.24Y-78.9
X5.24Y-81.44
X5.24Y-83.98
X5.24Y-86.52
X5.24Y-89.06
X5.24Y-91.6
X5.24Y-94.14
X5.24Y-96.68
X94.14Y-40.8
X94.14Y-43.34
X94.14Y-45.88
X94.14Y-48.42
X94.14Y-50.96
X94.14Y-53.5
X94.14Y-56.04
X94.14Y-58.58
X94.14Y-61.12
X94.14Y-63.66
X94.14Y-66.2
X94.14Y-68.74
X94.14Y-71.28
X94.14Y-73.82
X94.14Y-76.36
X94.14Y-78.9
X94.14Y-81.44
X94.14Y-83.98
X94.14Y-86.52
X94.14Y-89.06
X94.14Y-91.6
X94.14Y-94.14
X94.14Y-96.68
X96.68Y-40.8
X96.68Y-43.34
X96.68Y-45.88
X96.68Y-48.42
X96.68Y-50.96
X96.68Y-53.5
X96.68Y-56.04
X96.68Y-58.58
X96.68Y-61.12
X96.68Y-63.66
X96.68Y-66.2
X96.68Y-68.74
X96.68Y-71.28
X96.68Y-73.82
X96.68Y-76.36
X96.68Y-78.9
X96.68Y-81.44
X96.68Y-83.98
X96.68Y-86.52
X96.68Y-89.06
X96.68Y-91.6
X96.68Y-94.14
X96.68Y-96.68
T6
X60.43Y-60.405
X60.43Y-64.905
X71.33Y-71.905
X71.33Y-76.405
X10.93Y-60.405
X10.93Y-64.905
X21.83Y-71.905
X21.83Y-76.405
X43.93Y-60.405
X43.93Y-64.905
X54.83Y-71.905
X54.83Y-76.405
X76.93Y-60.405
X76.93Y-64.905
X87.83Y-71.905
X87.83Y-76.405
X27.43Y-60.405
X27.43Y-64.905
X38.33Y-71.905
X38.33Y-76.405
T7
X76.93Y-52.905
X82.38Y-52.905
X87.83Y-52.905
X27.43Y-52.905
X32.88Y-52.905
X38.33Y-52.905
X43.93Y-52.905
X49.38Y-52.905
X54.83Y-52.905
X10.93Y-52.905
X16.38Y-52.905
X21.83Y-52.905
X60.43Y-52.905
X65.88Y-52.905
X71.33Y-52.905
T8
X62.78Y-68.405
X72.28Y-68.405
X13.28Y-68.405
X22.78Y-68.405
X46.28Y-68.405
X55.78Y-68.405
X79.28Y-68.405
X88.78Y-68.405
X29.78Y-68.405
X39.28Y-68.405
T9
X42.68Y-97.15
X56.08Y-97.15
X9.68Y-97.15
X23.08Y-97.15
X75.78Y-97.15
X89.18Y-97.15
X59.18Y-97.15
X72.58Y-97.15
X26.18Y-97.15
X39.58Y-97.15
T10
X47.18Y-58.305
X30.68Y-58.305
X35.08Y-78.505
X63.68Y-58.305
X68.08Y-78.505
X14.18Y-58.305
X18.58Y-78.505
X51.58Y-78.505
X80.18Y-58.305
X84.58Y-78.505
T0
M30
