G04 #@! TF.GenerationSoftware,KiCad,Pcbnew,(5.1.2)-1*
G04 #@! TF.CreationDate,2019-05-30T15:53:57+09:00*
G04 #@! TF.ProjectId,MD_2016_remake,4d445f32-3031-4365-9f72-656d616b652e,rev?*
G04 #@! TF.SameCoordinates,PXaba9500PY3473bc0*
G04 #@! TF.FileFunction,Legend,Top*
G04 #@! TF.FilePolarity,Positive*
%FSLAX46Y46*%
G04 Gerber Fmt 4.6, Leading zero omitted, Abs format (unit mm)*
G04 Created by KiCad (PCBNEW (5.1.2)-1) date 2019-05-30 15:53:57*
%MOMM*%
%LPD*%
G04 APERTURE LIST*
%ADD10C,0.120000*%
%ADD11C,0.150000*%
%ADD12C,0.200000*%
%ADD13C,0.254000*%
%ADD14C,1.702000*%
%ADD15C,0.100000*%
%ADD16C,0.977000*%
%ADD17O,1.802000X2.052000*%
%ADD18C,1.802000*%
%ADD19R,1.702000X1.702000*%
%ADD20O,1.702000X1.702000*%
%ADD21R,1.802000X1.802000*%
%ADD22O,1.802000X1.802000*%
%ADD23C,0.500000*%
%ADD24C,3.102000*%
%ADD25C,1.902000*%
%ADD26C,2.502000*%
%ADD27R,5.102000X5.102000*%
%ADD28C,2.602000*%
%ADD29R,2.602000X4.602000*%
%ADD30O,2.602000X4.602000*%
%ADD31C,1.052000*%
G04 APERTURE END LIST*
D10*
X99500000Y-5000000D02*
X99500000Y-5500000D01*
X99000000Y-5000000D02*
X99500000Y-5000000D01*
X99500000Y-5000000D02*
X99000000Y-5500000D01*
D11*
X9999980Y-3000000D02*
X9999980Y-4998980D01*
X0Y-3000000D02*
X9999980Y-3000000D01*
X0Y-3000000D02*
X0Y-4998980D01*
X5001260Y-3000000D02*
X5001260Y-4998980D01*
X1000760Y-3000000D02*
X1000760Y-4000760D01*
X1998980Y-3000000D02*
X1998980Y-4000760D01*
X2999740Y-3000000D02*
X2999740Y-4000760D01*
X4000500Y-3000000D02*
X4000500Y-4000760D01*
X5999480Y-3000000D02*
X5999480Y-4000760D01*
X7000240Y-3000000D02*
X7000240Y-4000760D01*
X8001000Y-3000000D02*
X8001000Y-4000760D01*
X8999220Y-3000000D02*
X8999220Y-4000760D01*
X99999800Y-3000000D02*
X99999800Y-4998980D01*
X9999980Y-3000000D02*
X99999800Y-3000000D01*
X15001240Y-3000000D02*
X15001240Y-4000760D01*
X19999960Y-3000000D02*
X19999960Y-4998980D01*
X25001220Y-3000000D02*
X25001220Y-4000760D01*
X29999940Y-3000000D02*
X29999940Y-4998980D01*
X35001200Y-3000000D02*
X35001200Y-4000760D01*
X39999920Y-3000000D02*
X39999920Y-4998980D01*
X45001180Y-3000000D02*
X45001180Y-4000760D01*
X49999900Y-3000000D02*
X49999900Y-4998980D01*
X55001160Y-3000000D02*
X55001160Y-4000760D01*
X59999880Y-3000000D02*
X59999880Y-4998980D01*
X65001140Y-3000000D02*
X65001140Y-4000760D01*
X69999860Y-3000000D02*
X69999860Y-4998980D01*
X75001120Y-3000000D02*
X75001120Y-4000760D01*
X79999840Y-3000000D02*
X79999840Y-4998980D01*
X85001100Y-3000000D02*
X85001100Y-4000760D01*
X89999820Y-3000000D02*
X89999820Y-4998980D01*
X95001080Y-3000000D02*
X95001080Y-4000760D01*
D10*
X10842000Y-45976000D02*
X9584000Y-45976000D01*
X10842000Y-47816000D02*
X9584000Y-47816000D01*
X27352000Y-45976000D02*
X26094000Y-45976000D01*
X27352000Y-47816000D02*
X26094000Y-47816000D01*
X43862000Y-45976000D02*
X42604000Y-45976000D01*
X43862000Y-47816000D02*
X42604000Y-47816000D01*
X60372000Y-45976000D02*
X59114000Y-45976000D01*
X60372000Y-47816000D02*
X59114000Y-47816000D01*
X76882000Y-45976000D02*
X75624000Y-45976000D01*
X76882000Y-47816000D02*
X75624000Y-47816000D01*
X12100000Y-35247779D02*
X12100000Y-34922221D01*
X11080000Y-35247779D02*
X11080000Y-34922221D01*
X22895000Y-35400279D02*
X22895000Y-35074721D01*
X21875000Y-35400279D02*
X21875000Y-35074721D01*
X17180000Y-35247779D02*
X17180000Y-34922221D01*
X16160000Y-35247779D02*
X16160000Y-34922221D01*
X28610000Y-35400279D02*
X28610000Y-35074721D01*
X27590000Y-35400279D02*
X27590000Y-35074721D01*
X39405000Y-35400279D02*
X39405000Y-35074721D01*
X38385000Y-35400279D02*
X38385000Y-35074721D01*
X33690000Y-35400279D02*
X33690000Y-35074721D01*
X32670000Y-35400279D02*
X32670000Y-35074721D01*
X45120000Y-35400279D02*
X45120000Y-35074721D01*
X44100000Y-35400279D02*
X44100000Y-35074721D01*
X55915000Y-35400279D02*
X55915000Y-35074721D01*
X54895000Y-35400279D02*
X54895000Y-35074721D01*
X50200000Y-35400279D02*
X50200000Y-35074721D01*
X49180000Y-35400279D02*
X49180000Y-35074721D01*
X61630000Y-35400279D02*
X61630000Y-35074721D01*
X60610000Y-35400279D02*
X60610000Y-35074721D01*
X72425000Y-35400279D02*
X72425000Y-35074721D01*
X71405000Y-35400279D02*
X71405000Y-35074721D01*
X66710000Y-35400279D02*
X66710000Y-35074721D01*
X65690000Y-35400279D02*
X65690000Y-35074721D01*
X78140000Y-35400279D02*
X78140000Y-35074721D01*
X77120000Y-35400279D02*
X77120000Y-35074721D01*
X88935000Y-35400279D02*
X88935000Y-35074721D01*
X87915000Y-35400279D02*
X87915000Y-35074721D01*
X83220000Y-35400279D02*
X83220000Y-35074721D01*
X82200000Y-35400279D02*
X82200000Y-35074721D01*
X95745000Y-25755000D02*
X96045000Y-25155000D01*
X96345000Y-25755000D02*
X95745000Y-25755000D01*
X96045000Y-25155000D02*
X96345000Y-25755000D01*
X88295000Y-22055000D02*
X88795000Y-22055000D01*
X88295000Y-16555000D02*
X88295000Y-22055000D01*
X88795000Y-16555000D02*
X88295000Y-16555000D01*
X88795000Y-22055000D02*
X88795000Y-16555000D01*
X90795000Y-22055000D02*
X91295000Y-22055000D01*
X90795000Y-16555000D02*
X90795000Y-22055000D01*
X91295000Y-16555000D02*
X90795000Y-16555000D01*
X91295000Y-22055000D02*
X91295000Y-16555000D01*
X93295000Y-22055000D02*
X93795000Y-22055000D01*
X93295000Y-16555000D02*
X93295000Y-22055000D01*
X93795000Y-16555000D02*
X93295000Y-16555000D01*
X93795000Y-22055000D02*
X93795000Y-16555000D01*
X95795000Y-22055000D02*
X96295000Y-22055000D01*
X95795000Y-16555000D02*
X95795000Y-22055000D01*
X96295000Y-16555000D02*
X95795000Y-16555000D01*
X96295000Y-22055000D02*
X96295000Y-16555000D01*
X87405000Y-27665000D02*
X87405000Y-23165000D01*
X85985000Y-27665000D02*
X87405000Y-27665000D01*
X85985000Y-15945000D02*
X85985000Y-27665000D01*
X92295000Y-15945000D02*
X85985000Y-15945000D01*
X97185000Y-27665000D02*
X97185000Y-23165000D01*
X98605000Y-27665000D02*
X97185000Y-27665000D01*
X98605000Y-15945000D02*
X98605000Y-27665000D01*
X92295000Y-15945000D02*
X98605000Y-15945000D01*
X66835000Y-14765000D02*
X69375000Y-14765000D01*
X69375000Y-14765000D02*
X69375000Y-12095000D01*
X66835000Y-12095000D02*
X28605000Y-12095000D01*
X72045000Y-12095000D02*
X69375000Y-12095000D01*
X69375000Y-27465000D02*
X69375000Y-30135000D01*
X69375000Y-27465000D02*
X31275000Y-27465000D01*
X31275000Y-27465000D02*
X31275000Y-30135000D01*
X66835000Y-14765000D02*
X66835000Y-12095000D01*
X66835000Y-14765000D02*
X31275000Y-14765000D01*
X31275000Y-14765000D02*
X31275000Y-12095000D01*
X28605000Y-12095000D02*
X28605000Y-30135000D01*
X28605000Y-30135000D02*
X72045000Y-30135000D01*
X72045000Y-30135000D02*
X72045000Y-12095000D01*
D12*
X78330000Y-37435000D02*
X78330000Y-39085000D01*
X74485000Y-39435000D02*
X78235000Y-39435000D01*
X74485000Y-43585000D02*
X74485000Y-39435000D01*
X78235000Y-43585000D02*
X74485000Y-43585000D01*
X78235000Y-39435000D02*
X78235000Y-43585000D01*
X61725000Y-39435000D02*
X61725000Y-43585000D01*
X61725000Y-43585000D02*
X57975000Y-43585000D01*
X57975000Y-43585000D02*
X57975000Y-39435000D01*
X57975000Y-39435000D02*
X61725000Y-39435000D01*
X61820000Y-37435000D02*
X61820000Y-39085000D01*
X45215000Y-39435000D02*
X45215000Y-43585000D01*
X45215000Y-43585000D02*
X41465000Y-43585000D01*
X41465000Y-43585000D02*
X41465000Y-39435000D01*
X41465000Y-39435000D02*
X45215000Y-39435000D01*
X45310000Y-37435000D02*
X45310000Y-39085000D01*
X28705000Y-39435000D02*
X28705000Y-43585000D01*
X28705000Y-43585000D02*
X24955000Y-43585000D01*
X24955000Y-43585000D02*
X24955000Y-39435000D01*
X24955000Y-39435000D02*
X28705000Y-39435000D01*
X28800000Y-37435000D02*
X28800000Y-39085000D01*
X12290000Y-37435000D02*
X12290000Y-39085000D01*
X8445000Y-39435000D02*
X12195000Y-39435000D01*
X8445000Y-43585000D02*
X8445000Y-39435000D01*
X12195000Y-43585000D02*
X8445000Y-43585000D01*
X12195000Y-39435000D02*
X12195000Y-43585000D01*
D10*
X92810000Y-39470000D02*
X95410000Y-39470000D01*
X92810000Y-39470000D02*
X92810000Y-98010000D01*
X92810000Y-98010000D02*
X98010000Y-98010000D01*
X98010000Y-42070000D02*
X98010000Y-98010000D01*
X95410000Y-42070000D02*
X98010000Y-42070000D01*
X95410000Y-39470000D02*
X95410000Y-42070000D01*
X98010000Y-39470000D02*
X98010000Y-40800000D01*
X96680000Y-39470000D02*
X98010000Y-39470000D01*
X5240000Y-39470000D02*
X6570000Y-39470000D01*
X6570000Y-39470000D02*
X6570000Y-40800000D01*
X3970000Y-39470000D02*
X3970000Y-42070000D01*
X3970000Y-42070000D02*
X6570000Y-42070000D01*
X6570000Y-42070000D02*
X6570000Y-98010000D01*
X1370000Y-98010000D02*
X6570000Y-98010000D01*
X1370000Y-39470000D02*
X1370000Y-98010000D01*
X1370000Y-39470000D02*
X3970000Y-39470000D01*
X90600000Y-29320000D02*
G75*
G02X91300000Y-28620000I700000J0D01*
G01*
X91900000Y-28620000D02*
G75*
G02X92600000Y-29320000I0J-700000D01*
G01*
X92600000Y-30720000D02*
G75*
G02X91900000Y-31420000I-700000J0D01*
G01*
X91300000Y-31420000D02*
G75*
G02X90600000Y-30720000I0J700000D01*
G01*
X91900000Y-31420000D02*
X91300000Y-31420000D01*
X92600000Y-29320000D02*
X92600000Y-30720000D01*
X91300000Y-28620000D02*
X91900000Y-28620000D01*
X90600000Y-30720000D02*
X90600000Y-29320000D01*
X88060000Y-30720000D02*
X88060000Y-29320000D01*
X88760000Y-28620000D02*
X89360000Y-28620000D01*
X90060000Y-29320000D02*
X90060000Y-30720000D01*
X89360000Y-31420000D02*
X88760000Y-31420000D01*
X88760000Y-31420000D02*
G75*
G02X88060000Y-30720000I0J700000D01*
G01*
X90060000Y-30720000D02*
G75*
G02X89360000Y-31420000I-700000J0D01*
G01*
X89360000Y-28620000D02*
G75*
G02X90060000Y-29320000I0J-700000D01*
G01*
X88060000Y-29320000D02*
G75*
G02X88760000Y-28620000I700000J0D01*
G01*
D12*
X80343000Y-55624000D02*
G75*
G03X80343000Y-55624000I-62000J0D01*
G01*
X74280000Y-80305000D02*
X74280000Y-56505000D01*
X90480000Y-80305000D02*
X74280000Y-80305000D01*
X90480000Y-56505000D02*
X90480000Y-80305000D01*
X74280000Y-56505000D02*
X90480000Y-56505000D01*
X57780000Y-56505000D02*
X73980000Y-56505000D01*
X73980000Y-56505000D02*
X73980000Y-80305000D01*
X73980000Y-80305000D02*
X57780000Y-80305000D01*
X57780000Y-80305000D02*
X57780000Y-56505000D01*
X63843000Y-55624000D02*
G75*
G03X63843000Y-55624000I-62000J0D01*
G01*
X47343000Y-55624000D02*
G75*
G03X47343000Y-55624000I-62000J0D01*
G01*
X41280000Y-80305000D02*
X41280000Y-56505000D01*
X57480000Y-80305000D02*
X41280000Y-80305000D01*
X57480000Y-56505000D02*
X57480000Y-80305000D01*
X41280000Y-56505000D02*
X57480000Y-56505000D01*
X24780000Y-56505000D02*
X40980000Y-56505000D01*
X40980000Y-56505000D02*
X40980000Y-80305000D01*
X40980000Y-80305000D02*
X24780000Y-80305000D01*
X24780000Y-80305000D02*
X24780000Y-56505000D01*
X30843000Y-55624000D02*
G75*
G03X30843000Y-55624000I-62000J0D01*
G01*
X14343000Y-55624000D02*
G75*
G03X14343000Y-55624000I-62000J0D01*
G01*
X8280000Y-80305000D02*
X8280000Y-56505000D01*
X24480000Y-80305000D02*
X8280000Y-80305000D01*
X24480000Y-56505000D02*
X24480000Y-80305000D01*
X8280000Y-56505000D02*
X24480000Y-56505000D01*
D11*
X82480000Y-98800000D02*
X82480000Y-106500000D01*
X79430000Y-106500000D02*
G75*
G02X79430000Y-98800000I0J3850000D01*
G01*
X75580000Y-98800000D02*
X74730000Y-98800000D01*
X90230000Y-98800000D02*
X89380000Y-98800000D01*
X77480000Y-100500000D02*
X77480000Y-102500000D01*
X88480000Y-101500000D02*
X86480000Y-101500000D01*
X87480000Y-100500000D02*
X87480000Y-102500000D01*
X74730000Y-84800000D02*
X74730000Y-98800000D01*
X90230000Y-84800000D02*
X90230000Y-98800000D01*
X74730000Y-84800000D02*
X90230000Y-84800000D01*
X89380000Y-98800000D02*
X75580000Y-98800000D01*
X75580000Y-106500000D02*
X75580000Y-98800000D01*
X89380000Y-106500000D02*
X89380000Y-98800000D01*
X89380000Y-106500000D02*
X75580000Y-106500000D01*
X72780000Y-106500000D02*
X58980000Y-106500000D01*
X72780000Y-106500000D02*
X72780000Y-98800000D01*
X58980000Y-106500000D02*
X58980000Y-98800000D01*
X72780000Y-98800000D02*
X58980000Y-98800000D01*
X58130000Y-84800000D02*
X73630000Y-84800000D01*
X73630000Y-84800000D02*
X73630000Y-98800000D01*
X58130000Y-84800000D02*
X58130000Y-98800000D01*
X70880000Y-100500000D02*
X70880000Y-102500000D01*
X71880000Y-101500000D02*
X69880000Y-101500000D01*
X60880000Y-100500000D02*
X60880000Y-102500000D01*
X73630000Y-98800000D02*
X72780000Y-98800000D01*
X58980000Y-98800000D02*
X58130000Y-98800000D01*
X62830000Y-106500000D02*
G75*
G02X62830000Y-98800000I0J3850000D01*
G01*
X65880000Y-98800000D02*
X65880000Y-106500000D01*
X49380000Y-98800000D02*
X49380000Y-106500000D01*
X46330000Y-106500000D02*
G75*
G02X46330000Y-98800000I0J3850000D01*
G01*
X42480000Y-98800000D02*
X41630000Y-98800000D01*
X57130000Y-98800000D02*
X56280000Y-98800000D01*
X44380000Y-100500000D02*
X44380000Y-102500000D01*
X55380000Y-101500000D02*
X53380000Y-101500000D01*
X54380000Y-100500000D02*
X54380000Y-102500000D01*
X41630000Y-84800000D02*
X41630000Y-98800000D01*
X57130000Y-84800000D02*
X57130000Y-98800000D01*
X41630000Y-84800000D02*
X57130000Y-84800000D01*
X56280000Y-98800000D02*
X42480000Y-98800000D01*
X42480000Y-106500000D02*
X42480000Y-98800000D01*
X56280000Y-106500000D02*
X56280000Y-98800000D01*
X56280000Y-106500000D02*
X42480000Y-106500000D01*
X32880000Y-98800000D02*
X32880000Y-106500000D01*
X29830000Y-106500000D02*
G75*
G02X29830000Y-98800000I0J3850000D01*
G01*
X25980000Y-98800000D02*
X25130000Y-98800000D01*
X40630000Y-98800000D02*
X39780000Y-98800000D01*
X27880000Y-100500000D02*
X27880000Y-102500000D01*
X38880000Y-101500000D02*
X36880000Y-101500000D01*
X37880000Y-100500000D02*
X37880000Y-102500000D01*
X25130000Y-84800000D02*
X25130000Y-98800000D01*
X40630000Y-84800000D02*
X40630000Y-98800000D01*
X25130000Y-84800000D02*
X40630000Y-84800000D01*
X39780000Y-98800000D02*
X25980000Y-98800000D01*
X25980000Y-106500000D02*
X25980000Y-98800000D01*
X39780000Y-106500000D02*
X39780000Y-98800000D01*
X39780000Y-106500000D02*
X25980000Y-106500000D01*
X23280000Y-106500000D02*
X9480000Y-106500000D01*
X23280000Y-106500000D02*
X23280000Y-98800000D01*
X9480000Y-106500000D02*
X9480000Y-98800000D01*
X23280000Y-98800000D02*
X9480000Y-98800000D01*
X8630000Y-84800000D02*
X24130000Y-84800000D01*
X24130000Y-84800000D02*
X24130000Y-98800000D01*
X8630000Y-84800000D02*
X8630000Y-98800000D01*
X21380000Y-100500000D02*
X21380000Y-102500000D01*
X22380000Y-101500000D02*
X20380000Y-101500000D01*
X11380000Y-100500000D02*
X11380000Y-102500000D01*
X24130000Y-98800000D02*
X23280000Y-98800000D01*
X9480000Y-98800000D02*
X8630000Y-98800000D01*
X13330000Y-106500000D02*
G75*
G02X13330000Y-98800000I0J3850000D01*
G01*
X16380000Y-98800000D02*
X16380000Y-106500000D01*
D10*
X74310000Y-50454000D02*
X90450000Y-50454000D01*
X74310000Y-55725000D02*
X90450000Y-55725000D01*
X74310000Y-50454000D02*
X74310000Y-55725000D01*
X90450000Y-50454000D02*
X90450000Y-55725000D01*
X80576000Y-50454000D02*
X80576000Y-55725000D01*
X84185000Y-50454000D02*
X84185000Y-55725000D01*
X57810000Y-50454000D02*
X73950000Y-50454000D01*
X57810000Y-55725000D02*
X73950000Y-55725000D01*
X57810000Y-50454000D02*
X57810000Y-55725000D01*
X73950000Y-50454000D02*
X73950000Y-55725000D01*
X64076000Y-50454000D02*
X64076000Y-55725000D01*
X67685000Y-50454000D02*
X67685000Y-55725000D01*
X51185000Y-50454000D02*
X51185000Y-55725000D01*
X47576000Y-50454000D02*
X47576000Y-55725000D01*
X57450000Y-50454000D02*
X57450000Y-55725000D01*
X41310000Y-50454000D02*
X41310000Y-55725000D01*
X41310000Y-55725000D02*
X57450000Y-55725000D01*
X41310000Y-50454000D02*
X57450000Y-50454000D01*
X34685000Y-50454000D02*
X34685000Y-55725000D01*
X31076000Y-50454000D02*
X31076000Y-55725000D01*
X40950000Y-50454000D02*
X40950000Y-55725000D01*
X24810000Y-50454000D02*
X24810000Y-55725000D01*
X24810000Y-55725000D02*
X40950000Y-55725000D01*
X24810000Y-50454000D02*
X40950000Y-50454000D01*
X18185000Y-50454000D02*
X18185000Y-55725000D01*
X14576000Y-50454000D02*
X14576000Y-55725000D01*
X24450000Y-50454000D02*
X24450000Y-55725000D01*
X8310000Y-50454000D02*
X8310000Y-55725000D01*
X8310000Y-55725000D02*
X24450000Y-55725000D01*
X8310000Y-50454000D02*
X24450000Y-50454000D01*
X77063733Y-48418000D02*
X77406267Y-48418000D01*
X77063733Y-49438000D02*
X77406267Y-49438000D01*
X80901733Y-49438000D02*
X81244267Y-49438000D01*
X80901733Y-48418000D02*
X81244267Y-48418000D01*
X60708733Y-48418000D02*
X61051267Y-48418000D01*
X60708733Y-49438000D02*
X61051267Y-49438000D01*
X64363733Y-49438000D02*
X64706267Y-49438000D01*
X64363733Y-48418000D02*
X64706267Y-48418000D01*
X44043733Y-49438000D02*
X44386267Y-49438000D01*
X44043733Y-48418000D02*
X44386267Y-48418000D01*
X47599733Y-48418000D02*
X47942267Y-48418000D01*
X47599733Y-49438000D02*
X47942267Y-49438000D01*
X27561733Y-48418000D02*
X27904267Y-48418000D01*
X27561733Y-49438000D02*
X27904267Y-49438000D01*
X31343733Y-49438000D02*
X31686267Y-49438000D01*
X31343733Y-48418000D02*
X31686267Y-48418000D01*
X11023733Y-48418000D02*
X11366267Y-48418000D01*
X11023733Y-49438000D02*
X11366267Y-49438000D01*
X14579733Y-48418000D02*
X14922267Y-48418000D01*
X14579733Y-49438000D02*
X14922267Y-49438000D01*
X84040000Y-43070000D02*
G75*
G02X84040000Y-41070000I0J1000000D01*
G01*
X84040000Y-41070000D02*
X84040000Y-39420000D01*
X84040000Y-39420000D02*
X78840000Y-39420000D01*
X78840000Y-39420000D02*
X78840000Y-44720000D01*
X78840000Y-44720000D02*
X84040000Y-44720000D01*
X84040000Y-44720000D02*
X84040000Y-43070000D01*
X89755000Y-44720000D02*
X89755000Y-43070000D01*
X84555000Y-44720000D02*
X89755000Y-44720000D01*
X84555000Y-39420000D02*
X84555000Y-44720000D01*
X89755000Y-39420000D02*
X84555000Y-39420000D01*
X89755000Y-41070000D02*
X89755000Y-39420000D01*
X89755000Y-43070000D02*
G75*
G02X89755000Y-41070000I0J1000000D01*
G01*
X67530000Y-43070000D02*
G75*
G02X67530000Y-41070000I0J1000000D01*
G01*
X67530000Y-41070000D02*
X67530000Y-39420000D01*
X67530000Y-39420000D02*
X62330000Y-39420000D01*
X62330000Y-39420000D02*
X62330000Y-44720000D01*
X62330000Y-44720000D02*
X67530000Y-44720000D01*
X67530000Y-44720000D02*
X67530000Y-43070000D01*
X73245000Y-44720000D02*
X73245000Y-43070000D01*
X68045000Y-44720000D02*
X73245000Y-44720000D01*
X68045000Y-39420000D02*
X68045000Y-44720000D01*
X73245000Y-39420000D02*
X68045000Y-39420000D01*
X73245000Y-41070000D02*
X73245000Y-39420000D01*
X73245000Y-43070000D02*
G75*
G02X73245000Y-41070000I0J1000000D01*
G01*
X51020000Y-43070000D02*
G75*
G02X51020000Y-41070000I0J1000000D01*
G01*
X51020000Y-41070000D02*
X51020000Y-39420000D01*
X51020000Y-39420000D02*
X45820000Y-39420000D01*
X45820000Y-39420000D02*
X45820000Y-44720000D01*
X45820000Y-44720000D02*
X51020000Y-44720000D01*
X51020000Y-44720000D02*
X51020000Y-43070000D01*
X56735000Y-44720000D02*
X56735000Y-43070000D01*
X51535000Y-44720000D02*
X56735000Y-44720000D01*
X51535000Y-39420000D02*
X51535000Y-44720000D01*
X56735000Y-39420000D02*
X51535000Y-39420000D01*
X56735000Y-41070000D02*
X56735000Y-39420000D01*
X56735000Y-43070000D02*
G75*
G02X56735000Y-41070000I0J1000000D01*
G01*
X34510000Y-43070000D02*
G75*
G02X34510000Y-41070000I0J1000000D01*
G01*
X34510000Y-41070000D02*
X34510000Y-39420000D01*
X34510000Y-39420000D02*
X29310000Y-39420000D01*
X29310000Y-39420000D02*
X29310000Y-44720000D01*
X29310000Y-44720000D02*
X34510000Y-44720000D01*
X34510000Y-44720000D02*
X34510000Y-43070000D01*
X40225000Y-44720000D02*
X40225000Y-43070000D01*
X35025000Y-44720000D02*
X40225000Y-44720000D01*
X35025000Y-39420000D02*
X35025000Y-44720000D01*
X40225000Y-39420000D02*
X35025000Y-39420000D01*
X40225000Y-41070000D02*
X40225000Y-39420000D01*
X40225000Y-43070000D02*
G75*
G02X40225000Y-41070000I0J1000000D01*
G01*
X18000000Y-44720000D02*
X18000000Y-43070000D01*
X12800000Y-44720000D02*
X18000000Y-44720000D01*
X12800000Y-39420000D02*
X12800000Y-44720000D01*
X18000000Y-39420000D02*
X12800000Y-39420000D01*
X18000000Y-41070000D02*
X18000000Y-39420000D01*
X18000000Y-43070000D02*
G75*
G02X18000000Y-41070000I0J1000000D01*
G01*
X23715000Y-43070000D02*
G75*
G02X23715000Y-41070000I0J1000000D01*
G01*
X23715000Y-41070000D02*
X23715000Y-39420000D01*
X23715000Y-39420000D02*
X18515000Y-39420000D01*
X18515000Y-39420000D02*
X18515000Y-44720000D01*
X18515000Y-44720000D02*
X23715000Y-44720000D01*
X23715000Y-44720000D02*
X23715000Y-43070000D01*
D11*
X-1333334Y-452640D02*
X-1666667Y23550D01*
X-1904762Y-452640D02*
X-1904762Y547360D01*
X-1523810Y547360D01*
X-1428572Y499740D01*
X-1380953Y452121D01*
X-1333334Y356883D01*
X-1333334Y214026D01*
X-1380953Y118788D01*
X-1428572Y71169D01*
X-1523810Y23550D01*
X-1904762Y23550D01*
X-904762Y71169D02*
X-571429Y71169D01*
X-428572Y-452640D02*
X-904762Y-452640D01*
X-904762Y547360D01*
X-428572Y547360D01*
X333333Y71169D02*
X0Y71169D01*
X0Y-452640D02*
X0Y547360D01*
X476190Y547360D01*
X1000000Y547360D02*
X1000000Y309264D01*
X761904Y404502D02*
X1000000Y309264D01*
X1238095Y404502D01*
X857142Y118788D02*
X1000000Y309264D01*
X1142857Y118788D01*
X1761904Y547360D02*
X1761904Y309264D01*
X1523809Y404502D02*
X1761904Y309264D01*
X2000000Y404502D01*
X1619047Y118788D02*
X1761904Y309264D01*
X1904761Y118788D01*
X8476170Y-6152400D02*
X7904741Y-6152400D01*
X8190456Y-6152400D02*
X8190456Y-5152400D01*
X8095218Y-5295258D01*
X7999980Y-5390496D01*
X7904741Y-5438115D01*
X9095218Y-5152400D02*
X9190456Y-5152400D01*
X9285694Y-5200020D01*
X9333313Y-5247639D01*
X9380932Y-5342877D01*
X9428551Y-5533353D01*
X9428551Y-5771448D01*
X9380932Y-5961924D01*
X9333313Y-6057162D01*
X9285694Y-6104781D01*
X9190456Y-6152400D01*
X9095218Y-6152400D01*
X8999980Y-6104781D01*
X8952360Y-6057162D01*
X8904741Y-5961924D01*
X8857122Y-5771448D01*
X8857122Y-5533353D01*
X8904741Y-5342877D01*
X8952360Y-5247639D01*
X8999980Y-5200020D01*
X9095218Y-5152400D01*
X9857122Y-6152400D02*
X9857122Y-5485734D01*
X9857122Y-5580972D02*
X9904741Y-5533353D01*
X9999980Y-5485734D01*
X10142837Y-5485734D01*
X10238075Y-5533353D01*
X10285694Y-5628591D01*
X10285694Y-6152400D01*
X10285694Y-5628591D02*
X10333313Y-5533353D01*
X10428551Y-5485734D01*
X10571408Y-5485734D01*
X10666646Y-5533353D01*
X10714265Y-5628591D01*
X10714265Y-6152400D01*
X11190456Y-6152400D02*
X11190456Y-5485734D01*
X11190456Y-5580972D02*
X11238075Y-5533353D01*
X11333313Y-5485734D01*
X11476170Y-5485734D01*
X11571408Y-5533353D01*
X11619027Y-5628591D01*
X11619027Y-6152400D01*
X11619027Y-5628591D02*
X11666646Y-5533353D01*
X11761884Y-5485734D01*
X11904741Y-5485734D01*
X11999980Y-5533353D01*
X12047599Y-5628591D01*
X12047599Y-6152400D01*
X952380Y-5452380D02*
X1047619Y-5452380D01*
X1142857Y-5500000D01*
X1190476Y-5547619D01*
X1238095Y-5642857D01*
X1285714Y-5833333D01*
X1285714Y-6071428D01*
X1238095Y-6261904D01*
X1190476Y-6357142D01*
X1142857Y-6404761D01*
X1047619Y-6452380D01*
X952380Y-6452380D01*
X857142Y-6404761D01*
X809523Y-6357142D01*
X761904Y-6261904D01*
X714285Y-6071428D01*
X714285Y-5833333D01*
X761904Y-5642857D01*
X809523Y-5547619D01*
X857142Y-5500000D01*
X952380Y-5452380D01*
X5236815Y-5353060D02*
X4760624Y-5353060D01*
X4713005Y-5829251D01*
X4760624Y-5781632D01*
X4855862Y-5734013D01*
X5093958Y-5734013D01*
X5189196Y-5781632D01*
X5236815Y-5829251D01*
X5284434Y-5924489D01*
X5284434Y-6162584D01*
X5236815Y-6257822D01*
X5189196Y-6305441D01*
X5093958Y-6353060D01*
X4855862Y-6353060D01*
X4760624Y-6305441D01*
X4713005Y-6257822D01*
X19337115Y-5448299D02*
X19384734Y-5400680D01*
X19479972Y-5353060D01*
X19718067Y-5353060D01*
X19813305Y-5400680D01*
X19860924Y-5448299D01*
X19908543Y-5543537D01*
X19908543Y-5638775D01*
X19860924Y-5781632D01*
X19289496Y-6353060D01*
X19908543Y-6353060D01*
X20527591Y-5353060D02*
X20622829Y-5353060D01*
X20718067Y-5400680D01*
X20765686Y-5448299D01*
X20813305Y-5543537D01*
X20860924Y-5734013D01*
X20860924Y-5972108D01*
X20813305Y-6162584D01*
X20765686Y-6257822D01*
X20718067Y-6305441D01*
X20622829Y-6353060D01*
X20527591Y-6353060D01*
X20432353Y-6305441D01*
X20384734Y-6257822D01*
X20337115Y-6162584D01*
X20289496Y-5972108D01*
X20289496Y-5734013D01*
X20337115Y-5543537D01*
X20384734Y-5448299D01*
X20432353Y-5400680D01*
X20527591Y-5353060D01*
X29190416Y-5452120D02*
X29809463Y-5452120D01*
X29476130Y-5833073D01*
X29618987Y-5833073D01*
X29714225Y-5880692D01*
X29761844Y-5928311D01*
X29809463Y-6023549D01*
X29809463Y-6261644D01*
X29761844Y-6356882D01*
X29714225Y-6404501D01*
X29618987Y-6452120D01*
X29333273Y-6452120D01*
X29238035Y-6404501D01*
X29190416Y-6356882D01*
X30428511Y-5452120D02*
X30523749Y-5452120D01*
X30618987Y-5499740D01*
X30666606Y-5547359D01*
X30714225Y-5642597D01*
X30761844Y-5833073D01*
X30761844Y-6071168D01*
X30714225Y-6261644D01*
X30666606Y-6356882D01*
X30618987Y-6404501D01*
X30523749Y-6452120D01*
X30428511Y-6452120D01*
X30333273Y-6404501D01*
X30285654Y-6356882D01*
X30238035Y-6261644D01*
X30190416Y-6071168D01*
X30190416Y-5833073D01*
X30238035Y-5642597D01*
X30285654Y-5547359D01*
X30333273Y-5499740D01*
X30428511Y-5452120D01*
X39714205Y-5887054D02*
X39714205Y-6553720D01*
X39476110Y-5506101D02*
X39238015Y-6220387D01*
X39857062Y-6220387D01*
X40428491Y-5553720D02*
X40523729Y-5553720D01*
X40618967Y-5601340D01*
X40666586Y-5648959D01*
X40714205Y-5744197D01*
X40761824Y-5934673D01*
X40761824Y-6172768D01*
X40714205Y-6363244D01*
X40666586Y-6458482D01*
X40618967Y-6506101D01*
X40523729Y-6553720D01*
X40428491Y-6553720D01*
X40333253Y-6506101D01*
X40285634Y-6458482D01*
X40238015Y-6363244D01*
X40190396Y-6172768D01*
X40190396Y-5934673D01*
X40238015Y-5744197D01*
X40285634Y-5648959D01*
X40333253Y-5601340D01*
X40428491Y-5553720D01*
X49761804Y-5553720D02*
X49285614Y-5553720D01*
X49237995Y-6029911D01*
X49285614Y-5982292D01*
X49380852Y-5934673D01*
X49618947Y-5934673D01*
X49714185Y-5982292D01*
X49761804Y-6029911D01*
X49809423Y-6125149D01*
X49809423Y-6363244D01*
X49761804Y-6458482D01*
X49714185Y-6506101D01*
X49618947Y-6553720D01*
X49380852Y-6553720D01*
X49285614Y-6506101D01*
X49237995Y-6458482D01*
X50428471Y-5553720D02*
X50523709Y-5553720D01*
X50618947Y-5601340D01*
X50666566Y-5648959D01*
X50714185Y-5744197D01*
X50761804Y-5934673D01*
X50761804Y-6172768D01*
X50714185Y-6363244D01*
X50666566Y-6458482D01*
X50618947Y-6506101D01*
X50523709Y-6553720D01*
X50428471Y-6553720D01*
X50333233Y-6506101D01*
X50285614Y-6458482D01*
X50237995Y-6363244D01*
X50190376Y-6172768D01*
X50190376Y-5934673D01*
X50237995Y-5744197D01*
X50285614Y-5648959D01*
X50333233Y-5601340D01*
X50428471Y-5553720D01*
X59714165Y-5553720D02*
X59523689Y-5553720D01*
X59428451Y-5601340D01*
X59380832Y-5648959D01*
X59285594Y-5791816D01*
X59237975Y-5982292D01*
X59237975Y-6363244D01*
X59285594Y-6458482D01*
X59333213Y-6506101D01*
X59428451Y-6553720D01*
X59618927Y-6553720D01*
X59714165Y-6506101D01*
X59761784Y-6458482D01*
X59809403Y-6363244D01*
X59809403Y-6125149D01*
X59761784Y-6029911D01*
X59714165Y-5982292D01*
X59618927Y-5934673D01*
X59428451Y-5934673D01*
X59333213Y-5982292D01*
X59285594Y-6029911D01*
X59237975Y-6125149D01*
X60428451Y-5553720D02*
X60523689Y-5553720D01*
X60618927Y-5601340D01*
X60666546Y-5648959D01*
X60714165Y-5744197D01*
X60761784Y-5934673D01*
X60761784Y-6172768D01*
X60714165Y-6363244D01*
X60666546Y-6458482D01*
X60618927Y-6506101D01*
X60523689Y-6553720D01*
X60428451Y-6553720D01*
X60333213Y-6506101D01*
X60285594Y-6458482D01*
X60237975Y-6363244D01*
X60190356Y-6172768D01*
X60190356Y-5934673D01*
X60237975Y-5744197D01*
X60285594Y-5648959D01*
X60333213Y-5601340D01*
X60428451Y-5553720D01*
X69190336Y-5754380D02*
X69857002Y-5754380D01*
X69428431Y-6754380D01*
X70428431Y-5754380D02*
X70523669Y-5754380D01*
X70618907Y-5802000D01*
X70666526Y-5849619D01*
X70714145Y-5944857D01*
X70761764Y-6135333D01*
X70761764Y-6373428D01*
X70714145Y-6563904D01*
X70666526Y-6659142D01*
X70618907Y-6706761D01*
X70523669Y-6754380D01*
X70428431Y-6754380D01*
X70333193Y-6706761D01*
X70285574Y-6659142D01*
X70237955Y-6563904D01*
X70190336Y-6373428D01*
X70190336Y-6135333D01*
X70237955Y-5944857D01*
X70285574Y-5849619D01*
X70333193Y-5802000D01*
X70428431Y-5754380D01*
X79428411Y-6282012D02*
X79333173Y-6234393D01*
X79285554Y-6186774D01*
X79237935Y-6091536D01*
X79237935Y-6043917D01*
X79285554Y-5948679D01*
X79333173Y-5901060D01*
X79428411Y-5853440D01*
X79618887Y-5853440D01*
X79714125Y-5901060D01*
X79761744Y-5948679D01*
X79809363Y-6043917D01*
X79809363Y-6091536D01*
X79761744Y-6186774D01*
X79714125Y-6234393D01*
X79618887Y-6282012D01*
X79428411Y-6282012D01*
X79333173Y-6329631D01*
X79285554Y-6377250D01*
X79237935Y-6472488D01*
X79237935Y-6662964D01*
X79285554Y-6758202D01*
X79333173Y-6805821D01*
X79428411Y-6853440D01*
X79618887Y-6853440D01*
X79714125Y-6805821D01*
X79761744Y-6758202D01*
X79809363Y-6662964D01*
X79809363Y-6472488D01*
X79761744Y-6377250D01*
X79714125Y-6329631D01*
X79618887Y-6282012D01*
X80428411Y-5853440D02*
X80523649Y-5853440D01*
X80618887Y-5901060D01*
X80666506Y-5948679D01*
X80714125Y-6043917D01*
X80761744Y-6234393D01*
X80761744Y-6472488D01*
X80714125Y-6662964D01*
X80666506Y-6758202D01*
X80618887Y-6805821D01*
X80523649Y-6853440D01*
X80428411Y-6853440D01*
X80333173Y-6805821D01*
X80285554Y-6758202D01*
X80237935Y-6662964D01*
X80190316Y-6472488D01*
X80190316Y-6234393D01*
X80237935Y-6043917D01*
X80285554Y-5948679D01*
X80333173Y-5901060D01*
X80428411Y-5853440D01*
X89434753Y-6655320D02*
X89625229Y-6655320D01*
X89720467Y-6607701D01*
X89768086Y-6560082D01*
X89863324Y-6417225D01*
X89910943Y-6226749D01*
X89910943Y-5845797D01*
X89863324Y-5750559D01*
X89815705Y-5702940D01*
X89720467Y-5655320D01*
X89529991Y-5655320D01*
X89434753Y-5702940D01*
X89387134Y-5750559D01*
X89339515Y-5845797D01*
X89339515Y-6083892D01*
X89387134Y-6179130D01*
X89434753Y-6226749D01*
X89529991Y-6274368D01*
X89720467Y-6274368D01*
X89815705Y-6226749D01*
X89863324Y-6179130D01*
X89910943Y-6083892D01*
X90529991Y-5655320D02*
X90625229Y-5655320D01*
X90720467Y-5702940D01*
X90768086Y-5750559D01*
X90815705Y-5845797D01*
X90863324Y-6036273D01*
X90863324Y-6274368D01*
X90815705Y-6464844D01*
X90768086Y-6560082D01*
X90720467Y-6607701D01*
X90625229Y-6655320D01*
X90529991Y-6655320D01*
X90434753Y-6607701D01*
X90387134Y-6560082D01*
X90339515Y-6464844D01*
X90291896Y-6274368D01*
X90291896Y-6036273D01*
X90339515Y-5845797D01*
X90387134Y-5750559D01*
X90434753Y-5702940D01*
X90529991Y-5655320D01*
X95000000Y-6452380D02*
X94428571Y-6452380D01*
X94714285Y-6452380D02*
X94714285Y-5452380D01*
X94619047Y-5595238D01*
X94523809Y-5690476D01*
X94428571Y-5738095D01*
X95619047Y-5452380D02*
X95714285Y-5452380D01*
X95809523Y-5500000D01*
X95857142Y-5547619D01*
X95904761Y-5642857D01*
X95952380Y-5833333D01*
X95952380Y-6071428D01*
X95904761Y-6261904D01*
X95857142Y-6357142D01*
X95809523Y-6404761D01*
X95714285Y-6452380D01*
X95619047Y-6452380D01*
X95523809Y-6404761D01*
X95476190Y-6357142D01*
X95428571Y-6261904D01*
X95380952Y-6071428D01*
X95380952Y-5833333D01*
X95428571Y-5642857D01*
X95476190Y-5547619D01*
X95523809Y-5500000D01*
X95619047Y-5452380D01*
X96571428Y-5452380D02*
X96666666Y-5452380D01*
X96761904Y-5500000D01*
X96809523Y-5547619D01*
X96857142Y-5642857D01*
X96904761Y-5833333D01*
X96904761Y-6071428D01*
X96857142Y-6261904D01*
X96809523Y-6357142D01*
X96761904Y-6404761D01*
X96666666Y-6452380D01*
X96571428Y-6452380D01*
X96476190Y-6404761D01*
X96428571Y-6357142D01*
X96380952Y-6261904D01*
X96333333Y-6071428D01*
X96333333Y-5833333D01*
X96380952Y-5642857D01*
X96428571Y-5547619D01*
X96476190Y-5500000D01*
X96571428Y-5452380D01*
X97333333Y-6452380D02*
X97333333Y-5785714D01*
X97333333Y-5880952D02*
X97380952Y-5833333D01*
X97476190Y-5785714D01*
X97619047Y-5785714D01*
X97714285Y-5833333D01*
X97761904Y-5928571D01*
X97761904Y-6452380D01*
X97761904Y-5928571D02*
X97809523Y-5833333D01*
X97904761Y-5785714D01*
X98047619Y-5785714D01*
X98142857Y-5833333D01*
X98190476Y-5928571D01*
X98190476Y-6452380D01*
X98666666Y-6452380D02*
X98666666Y-5785714D01*
X98666666Y-5880952D02*
X98714285Y-5833333D01*
X98809523Y-5785714D01*
X98952380Y-5785714D01*
X99047619Y-5833333D01*
X99095238Y-5928571D01*
X99095238Y-6452380D01*
X99095238Y-5928571D02*
X99142857Y-5833333D01*
X99238095Y-5785714D01*
X99380952Y-5785714D01*
X99476190Y-5833333D01*
X99523809Y-5928571D01*
X99523809Y-6452380D01*
X7957142Y-45566666D02*
X8004761Y-45614285D01*
X8052380Y-45757142D01*
X8052380Y-45852380D01*
X8004761Y-45995238D01*
X7909523Y-46090476D01*
X7814285Y-46138095D01*
X7623809Y-46185714D01*
X7480952Y-46185714D01*
X7290476Y-46138095D01*
X7195238Y-46090476D01*
X7100000Y-45995238D01*
X7052380Y-45852380D01*
X7052380Y-45757142D01*
X7100000Y-45614285D01*
X7147619Y-45566666D01*
X7052380Y-44661904D02*
X7052380Y-45138095D01*
X7528571Y-45185714D01*
X7480952Y-45138095D01*
X7433333Y-45042857D01*
X7433333Y-44804761D01*
X7480952Y-44709523D01*
X7528571Y-44661904D01*
X7623809Y-44614285D01*
X7861904Y-44614285D01*
X7957142Y-44661904D01*
X8004761Y-44709523D01*
X8052380Y-44804761D01*
X8052380Y-45042857D01*
X8004761Y-45138095D01*
X7957142Y-45185714D01*
X22833333Y-48357142D02*
X22785714Y-48404761D01*
X22642857Y-48452380D01*
X22547619Y-48452380D01*
X22404761Y-48404761D01*
X22309523Y-48309523D01*
X22261904Y-48214285D01*
X22214285Y-48023809D01*
X22214285Y-47880952D01*
X22261904Y-47690476D01*
X22309523Y-47595238D01*
X22404761Y-47500000D01*
X22547619Y-47452380D01*
X22642857Y-47452380D01*
X22785714Y-47500000D01*
X22833333Y-47547619D01*
X23690476Y-47785714D02*
X23690476Y-48452380D01*
X23452380Y-47404761D02*
X23214285Y-48119047D01*
X23833333Y-48119047D01*
X39333333Y-48357142D02*
X39285714Y-48404761D01*
X39142857Y-48452380D01*
X39047619Y-48452380D01*
X38904761Y-48404761D01*
X38809523Y-48309523D01*
X38761904Y-48214285D01*
X38714285Y-48023809D01*
X38714285Y-47880952D01*
X38761904Y-47690476D01*
X38809523Y-47595238D01*
X38904761Y-47500000D01*
X39047619Y-47452380D01*
X39142857Y-47452380D01*
X39285714Y-47500000D01*
X39333333Y-47547619D01*
X39666666Y-47452380D02*
X40285714Y-47452380D01*
X39952380Y-47833333D01*
X40095238Y-47833333D01*
X40190476Y-47880952D01*
X40238095Y-47928571D01*
X40285714Y-48023809D01*
X40285714Y-48261904D01*
X40238095Y-48357142D01*
X40190476Y-48404761D01*
X40095238Y-48452380D01*
X39809523Y-48452380D01*
X39714285Y-48404761D01*
X39666666Y-48357142D01*
X56033333Y-48357142D02*
X55985714Y-48404761D01*
X55842857Y-48452380D01*
X55747619Y-48452380D01*
X55604761Y-48404761D01*
X55509523Y-48309523D01*
X55461904Y-48214285D01*
X55414285Y-48023809D01*
X55414285Y-47880952D01*
X55461904Y-47690476D01*
X55509523Y-47595238D01*
X55604761Y-47500000D01*
X55747619Y-47452380D01*
X55842857Y-47452380D01*
X55985714Y-47500000D01*
X56033333Y-47547619D01*
X56414285Y-47547619D02*
X56461904Y-47500000D01*
X56557142Y-47452380D01*
X56795238Y-47452380D01*
X56890476Y-47500000D01*
X56938095Y-47547619D01*
X56985714Y-47642857D01*
X56985714Y-47738095D01*
X56938095Y-47880952D01*
X56366666Y-48452380D01*
X56985714Y-48452380D01*
X72433333Y-48157142D02*
X72385714Y-48204761D01*
X72242857Y-48252380D01*
X72147619Y-48252380D01*
X72004761Y-48204761D01*
X71909523Y-48109523D01*
X71861904Y-48014285D01*
X71814285Y-47823809D01*
X71814285Y-47680952D01*
X71861904Y-47490476D01*
X71909523Y-47395238D01*
X72004761Y-47300000D01*
X72147619Y-47252380D01*
X72242857Y-47252380D01*
X72385714Y-47300000D01*
X72433333Y-47347619D01*
X73385714Y-48252380D02*
X72814285Y-48252380D01*
X73100000Y-48252380D02*
X73100000Y-47252380D01*
X73004761Y-47395238D01*
X72909523Y-47490476D01*
X72814285Y-47538095D01*
X10612380Y-35727857D02*
X10136190Y-36061190D01*
X10612380Y-36299285D02*
X9612380Y-36299285D01*
X9612380Y-35918333D01*
X9660000Y-35823095D01*
X9707619Y-35775476D01*
X9802857Y-35727857D01*
X9945714Y-35727857D01*
X10040952Y-35775476D01*
X10088571Y-35823095D01*
X10136190Y-35918333D01*
X10136190Y-36299285D01*
X10612380Y-34775476D02*
X10612380Y-35346904D01*
X10612380Y-35061190D02*
X9612380Y-35061190D01*
X9755238Y-35156428D01*
X9850476Y-35251666D01*
X9898095Y-35346904D01*
X9612380Y-33870714D02*
X9612380Y-34346904D01*
X10088571Y-34394523D01*
X10040952Y-34346904D01*
X9993333Y-34251666D01*
X9993333Y-34013571D01*
X10040952Y-33918333D01*
X10088571Y-33870714D01*
X10183809Y-33823095D01*
X10421904Y-33823095D01*
X10517142Y-33870714D01*
X10564761Y-33918333D01*
X10612380Y-34013571D01*
X10612380Y-34251666D01*
X10564761Y-34346904D01*
X10517142Y-34394523D01*
X21407380Y-35880357D02*
X20931190Y-36213690D01*
X21407380Y-36451785D02*
X20407380Y-36451785D01*
X20407380Y-36070833D01*
X20455000Y-35975595D01*
X20502619Y-35927976D01*
X20597857Y-35880357D01*
X20740714Y-35880357D01*
X20835952Y-35927976D01*
X20883571Y-35975595D01*
X20931190Y-36070833D01*
X20931190Y-36451785D01*
X21407380Y-34927976D02*
X21407380Y-35499404D01*
X21407380Y-35213690D02*
X20407380Y-35213690D01*
X20550238Y-35308928D01*
X20645476Y-35404166D01*
X20693095Y-35499404D01*
X20740714Y-34070833D02*
X21407380Y-34070833D01*
X20359761Y-34308928D02*
X21074047Y-34547023D01*
X21074047Y-33927976D01*
X15692380Y-35727857D02*
X15216190Y-36061190D01*
X15692380Y-36299285D02*
X14692380Y-36299285D01*
X14692380Y-35918333D01*
X14740000Y-35823095D01*
X14787619Y-35775476D01*
X14882857Y-35727857D01*
X15025714Y-35727857D01*
X15120952Y-35775476D01*
X15168571Y-35823095D01*
X15216190Y-35918333D01*
X15216190Y-36299285D01*
X15692380Y-34775476D02*
X15692380Y-35346904D01*
X15692380Y-35061190D02*
X14692380Y-35061190D01*
X14835238Y-35156428D01*
X14930476Y-35251666D01*
X14978095Y-35346904D01*
X14692380Y-34442142D02*
X14692380Y-33823095D01*
X15073333Y-34156428D01*
X15073333Y-34013571D01*
X15120952Y-33918333D01*
X15168571Y-33870714D01*
X15263809Y-33823095D01*
X15501904Y-33823095D01*
X15597142Y-33870714D01*
X15644761Y-33918333D01*
X15692380Y-34013571D01*
X15692380Y-34299285D01*
X15644761Y-34394523D01*
X15597142Y-34442142D01*
X27122380Y-35880357D02*
X26646190Y-36213690D01*
X27122380Y-36451785D02*
X26122380Y-36451785D01*
X26122380Y-36070833D01*
X26170000Y-35975595D01*
X26217619Y-35927976D01*
X26312857Y-35880357D01*
X26455714Y-35880357D01*
X26550952Y-35927976D01*
X26598571Y-35975595D01*
X26646190Y-36070833D01*
X26646190Y-36451785D01*
X27122380Y-34927976D02*
X27122380Y-35499404D01*
X27122380Y-35213690D02*
X26122380Y-35213690D01*
X26265238Y-35308928D01*
X26360476Y-35404166D01*
X26408095Y-35499404D01*
X26217619Y-34547023D02*
X26170000Y-34499404D01*
X26122380Y-34404166D01*
X26122380Y-34166071D01*
X26170000Y-34070833D01*
X26217619Y-34023214D01*
X26312857Y-33975595D01*
X26408095Y-33975595D01*
X26550952Y-34023214D01*
X27122380Y-34594642D01*
X27122380Y-33975595D01*
X37917380Y-35880357D02*
X37441190Y-36213690D01*
X37917380Y-36451785D02*
X36917380Y-36451785D01*
X36917380Y-36070833D01*
X36965000Y-35975595D01*
X37012619Y-35927976D01*
X37107857Y-35880357D01*
X37250714Y-35880357D01*
X37345952Y-35927976D01*
X37393571Y-35975595D01*
X37441190Y-36070833D01*
X37441190Y-36451785D01*
X37917380Y-34927976D02*
X37917380Y-35499404D01*
X37917380Y-35213690D02*
X36917380Y-35213690D01*
X37060238Y-35308928D01*
X37155476Y-35404166D01*
X37203095Y-35499404D01*
X37917380Y-33975595D02*
X37917380Y-34547023D01*
X37917380Y-34261309D02*
X36917380Y-34261309D01*
X37060238Y-34356547D01*
X37155476Y-34451785D01*
X37203095Y-34547023D01*
X32202380Y-35880357D02*
X31726190Y-36213690D01*
X32202380Y-36451785D02*
X31202380Y-36451785D01*
X31202380Y-36070833D01*
X31250000Y-35975595D01*
X31297619Y-35927976D01*
X31392857Y-35880357D01*
X31535714Y-35880357D01*
X31630952Y-35927976D01*
X31678571Y-35975595D01*
X31726190Y-36070833D01*
X31726190Y-36451785D01*
X32202380Y-34927976D02*
X32202380Y-35499404D01*
X32202380Y-35213690D02*
X31202380Y-35213690D01*
X31345238Y-35308928D01*
X31440476Y-35404166D01*
X31488095Y-35499404D01*
X31202380Y-34308928D02*
X31202380Y-34213690D01*
X31250000Y-34118452D01*
X31297619Y-34070833D01*
X31392857Y-34023214D01*
X31583333Y-33975595D01*
X31821428Y-33975595D01*
X32011904Y-34023214D01*
X32107142Y-34070833D01*
X32154761Y-34118452D01*
X32202380Y-34213690D01*
X32202380Y-34308928D01*
X32154761Y-34404166D01*
X32107142Y-34451785D01*
X32011904Y-34499404D01*
X31821428Y-34547023D01*
X31583333Y-34547023D01*
X31392857Y-34499404D01*
X31297619Y-34451785D01*
X31250000Y-34404166D01*
X31202380Y-34308928D01*
X43632380Y-35404166D02*
X43156190Y-35737500D01*
X43632380Y-35975595D02*
X42632380Y-35975595D01*
X42632380Y-35594642D01*
X42680000Y-35499404D01*
X42727619Y-35451785D01*
X42822857Y-35404166D01*
X42965714Y-35404166D01*
X43060952Y-35451785D01*
X43108571Y-35499404D01*
X43156190Y-35594642D01*
X43156190Y-35975595D01*
X43632380Y-34927976D02*
X43632380Y-34737500D01*
X43584761Y-34642261D01*
X43537142Y-34594642D01*
X43394285Y-34499404D01*
X43203809Y-34451785D01*
X42822857Y-34451785D01*
X42727619Y-34499404D01*
X42680000Y-34547023D01*
X42632380Y-34642261D01*
X42632380Y-34832738D01*
X42680000Y-34927976D01*
X42727619Y-34975595D01*
X42822857Y-35023214D01*
X43060952Y-35023214D01*
X43156190Y-34975595D01*
X43203809Y-34927976D01*
X43251428Y-34832738D01*
X43251428Y-34642261D01*
X43203809Y-34547023D01*
X43156190Y-34499404D01*
X43060952Y-34451785D01*
X54427380Y-35404166D02*
X53951190Y-35737500D01*
X54427380Y-35975595D02*
X53427380Y-35975595D01*
X53427380Y-35594642D01*
X53475000Y-35499404D01*
X53522619Y-35451785D01*
X53617857Y-35404166D01*
X53760714Y-35404166D01*
X53855952Y-35451785D01*
X53903571Y-35499404D01*
X53951190Y-35594642D01*
X53951190Y-35975595D01*
X53855952Y-34832738D02*
X53808333Y-34927976D01*
X53760714Y-34975595D01*
X53665476Y-35023214D01*
X53617857Y-35023214D01*
X53522619Y-34975595D01*
X53475000Y-34927976D01*
X53427380Y-34832738D01*
X53427380Y-34642261D01*
X53475000Y-34547023D01*
X53522619Y-34499404D01*
X53617857Y-34451785D01*
X53665476Y-34451785D01*
X53760714Y-34499404D01*
X53808333Y-34547023D01*
X53855952Y-34642261D01*
X53855952Y-34832738D01*
X53903571Y-34927976D01*
X53951190Y-34975595D01*
X54046428Y-35023214D01*
X54236904Y-35023214D01*
X54332142Y-34975595D01*
X54379761Y-34927976D01*
X54427380Y-34832738D01*
X54427380Y-34642261D01*
X54379761Y-34547023D01*
X54332142Y-34499404D01*
X54236904Y-34451785D01*
X54046428Y-34451785D01*
X53951190Y-34499404D01*
X53903571Y-34547023D01*
X53855952Y-34642261D01*
X48712380Y-35404166D02*
X48236190Y-35737500D01*
X48712380Y-35975595D02*
X47712380Y-35975595D01*
X47712380Y-35594642D01*
X47760000Y-35499404D01*
X47807619Y-35451785D01*
X47902857Y-35404166D01*
X48045714Y-35404166D01*
X48140952Y-35451785D01*
X48188571Y-35499404D01*
X48236190Y-35594642D01*
X48236190Y-35975595D01*
X47712380Y-35070833D02*
X47712380Y-34404166D01*
X48712380Y-34832738D01*
X60142380Y-35404166D02*
X59666190Y-35737500D01*
X60142380Y-35975595D02*
X59142380Y-35975595D01*
X59142380Y-35594642D01*
X59190000Y-35499404D01*
X59237619Y-35451785D01*
X59332857Y-35404166D01*
X59475714Y-35404166D01*
X59570952Y-35451785D01*
X59618571Y-35499404D01*
X59666190Y-35594642D01*
X59666190Y-35975595D01*
X59142380Y-34547023D02*
X59142380Y-34737500D01*
X59190000Y-34832738D01*
X59237619Y-34880357D01*
X59380476Y-34975595D01*
X59570952Y-35023214D01*
X59951904Y-35023214D01*
X60047142Y-34975595D01*
X60094761Y-34927976D01*
X60142380Y-34832738D01*
X60142380Y-34642261D01*
X60094761Y-34547023D01*
X60047142Y-34499404D01*
X59951904Y-34451785D01*
X59713809Y-34451785D01*
X59618571Y-34499404D01*
X59570952Y-34547023D01*
X59523333Y-34642261D01*
X59523333Y-34832738D01*
X59570952Y-34927976D01*
X59618571Y-34975595D01*
X59713809Y-35023214D01*
X70937380Y-35404166D02*
X70461190Y-35737500D01*
X70937380Y-35975595D02*
X69937380Y-35975595D01*
X69937380Y-35594642D01*
X69985000Y-35499404D01*
X70032619Y-35451785D01*
X70127857Y-35404166D01*
X70270714Y-35404166D01*
X70365952Y-35451785D01*
X70413571Y-35499404D01*
X70461190Y-35594642D01*
X70461190Y-35975595D01*
X69937380Y-34499404D02*
X69937380Y-34975595D01*
X70413571Y-35023214D01*
X70365952Y-34975595D01*
X70318333Y-34880357D01*
X70318333Y-34642261D01*
X70365952Y-34547023D01*
X70413571Y-34499404D01*
X70508809Y-34451785D01*
X70746904Y-34451785D01*
X70842142Y-34499404D01*
X70889761Y-34547023D01*
X70937380Y-34642261D01*
X70937380Y-34880357D01*
X70889761Y-34975595D01*
X70842142Y-35023214D01*
X65222380Y-35404166D02*
X64746190Y-35737500D01*
X65222380Y-35975595D02*
X64222380Y-35975595D01*
X64222380Y-35594642D01*
X64270000Y-35499404D01*
X64317619Y-35451785D01*
X64412857Y-35404166D01*
X64555714Y-35404166D01*
X64650952Y-35451785D01*
X64698571Y-35499404D01*
X64746190Y-35594642D01*
X64746190Y-35975595D01*
X64555714Y-34547023D02*
X65222380Y-34547023D01*
X64174761Y-34785119D02*
X64889047Y-35023214D01*
X64889047Y-34404166D01*
X76652380Y-35404166D02*
X76176190Y-35737500D01*
X76652380Y-35975595D02*
X75652380Y-35975595D01*
X75652380Y-35594642D01*
X75700000Y-35499404D01*
X75747619Y-35451785D01*
X75842857Y-35404166D01*
X75985714Y-35404166D01*
X76080952Y-35451785D01*
X76128571Y-35499404D01*
X76176190Y-35594642D01*
X76176190Y-35975595D01*
X75652380Y-35070833D02*
X75652380Y-34451785D01*
X76033333Y-34785119D01*
X76033333Y-34642261D01*
X76080952Y-34547023D01*
X76128571Y-34499404D01*
X76223809Y-34451785D01*
X76461904Y-34451785D01*
X76557142Y-34499404D01*
X76604761Y-34547023D01*
X76652380Y-34642261D01*
X76652380Y-34927976D01*
X76604761Y-35023214D01*
X76557142Y-35070833D01*
X87447380Y-35404166D02*
X86971190Y-35737500D01*
X87447380Y-35975595D02*
X86447380Y-35975595D01*
X86447380Y-35594642D01*
X86495000Y-35499404D01*
X86542619Y-35451785D01*
X86637857Y-35404166D01*
X86780714Y-35404166D01*
X86875952Y-35451785D01*
X86923571Y-35499404D01*
X86971190Y-35594642D01*
X86971190Y-35975595D01*
X86542619Y-35023214D02*
X86495000Y-34975595D01*
X86447380Y-34880357D01*
X86447380Y-34642261D01*
X86495000Y-34547023D01*
X86542619Y-34499404D01*
X86637857Y-34451785D01*
X86733095Y-34451785D01*
X86875952Y-34499404D01*
X87447380Y-35070833D01*
X87447380Y-34451785D01*
X81732380Y-35404166D02*
X81256190Y-35737500D01*
X81732380Y-35975595D02*
X80732380Y-35975595D01*
X80732380Y-35594642D01*
X80780000Y-35499404D01*
X80827619Y-35451785D01*
X80922857Y-35404166D01*
X81065714Y-35404166D01*
X81160952Y-35451785D01*
X81208571Y-35499404D01*
X81256190Y-35594642D01*
X81256190Y-35975595D01*
X81732380Y-34451785D02*
X81732380Y-35023214D01*
X81732380Y-34737500D02*
X80732380Y-34737500D01*
X80875238Y-34832738D01*
X80970476Y-34927976D01*
X81018095Y-35023214D01*
X95466666Y-26652380D02*
X95466666Y-27366666D01*
X95419047Y-27509523D01*
X95323809Y-27604761D01*
X95180952Y-27652380D01*
X95085714Y-27652380D01*
X95847619Y-26652380D02*
X96466666Y-26652380D01*
X96133333Y-27033333D01*
X96276190Y-27033333D01*
X96371428Y-27080952D01*
X96419047Y-27128571D01*
X96466666Y-27223809D01*
X96466666Y-27461904D01*
X96419047Y-27557142D01*
X96371428Y-27604761D01*
X96276190Y-27652380D01*
X95990476Y-27652380D01*
X95895238Y-27604761D01*
X95847619Y-27557142D01*
X73351666Y-21829285D02*
X73351666Y-21353095D01*
X73637380Y-21924523D02*
X72637380Y-21591190D01*
X73637380Y-21257857D01*
X73637380Y-20400714D02*
X73637380Y-20972142D01*
X73637380Y-20686428D02*
X72637380Y-20686428D01*
X72780238Y-20781666D01*
X72875476Y-20876904D01*
X72923095Y-20972142D01*
D13*
X76934523Y-42749761D02*
X75664523Y-42749761D01*
X76813571Y-41419285D02*
X76874047Y-41479761D01*
X76934523Y-41661190D01*
X76934523Y-41782142D01*
X76874047Y-41963571D01*
X76753095Y-42084523D01*
X76632142Y-42145000D01*
X76390238Y-42205476D01*
X76208809Y-42205476D01*
X75966904Y-42145000D01*
X75845952Y-42084523D01*
X75725000Y-41963571D01*
X75664523Y-41782142D01*
X75664523Y-41661190D01*
X75725000Y-41479761D01*
X75785476Y-41419285D01*
X76934523Y-40209761D02*
X76934523Y-40935476D01*
X76934523Y-40572619D02*
X75664523Y-40572619D01*
X75845952Y-40693571D01*
X75966904Y-40814523D01*
X76027380Y-40935476D01*
X60424523Y-42749761D02*
X59154523Y-42749761D01*
X60303571Y-41419285D02*
X60364047Y-41479761D01*
X60424523Y-41661190D01*
X60424523Y-41782142D01*
X60364047Y-41963571D01*
X60243095Y-42084523D01*
X60122142Y-42145000D01*
X59880238Y-42205476D01*
X59698809Y-42205476D01*
X59456904Y-42145000D01*
X59335952Y-42084523D01*
X59215000Y-41963571D01*
X59154523Y-41782142D01*
X59154523Y-41661190D01*
X59215000Y-41479761D01*
X59275476Y-41419285D01*
X59275476Y-40935476D02*
X59215000Y-40875000D01*
X59154523Y-40754047D01*
X59154523Y-40451666D01*
X59215000Y-40330714D01*
X59275476Y-40270238D01*
X59396428Y-40209761D01*
X59517380Y-40209761D01*
X59698809Y-40270238D01*
X60424523Y-40995952D01*
X60424523Y-40209761D01*
X43914523Y-42749761D02*
X42644523Y-42749761D01*
X43793571Y-41419285D02*
X43854047Y-41479761D01*
X43914523Y-41661190D01*
X43914523Y-41782142D01*
X43854047Y-41963571D01*
X43733095Y-42084523D01*
X43612142Y-42145000D01*
X43370238Y-42205476D01*
X43188809Y-42205476D01*
X42946904Y-42145000D01*
X42825952Y-42084523D01*
X42705000Y-41963571D01*
X42644523Y-41782142D01*
X42644523Y-41661190D01*
X42705000Y-41479761D01*
X42765476Y-41419285D01*
X42644523Y-40995952D02*
X42644523Y-40209761D01*
X43128333Y-40633095D01*
X43128333Y-40451666D01*
X43188809Y-40330714D01*
X43249285Y-40270238D01*
X43370238Y-40209761D01*
X43672619Y-40209761D01*
X43793571Y-40270238D01*
X43854047Y-40330714D01*
X43914523Y-40451666D01*
X43914523Y-40814523D01*
X43854047Y-40935476D01*
X43793571Y-40995952D01*
X27404523Y-42749761D02*
X26134523Y-42749761D01*
X27283571Y-41419285D02*
X27344047Y-41479761D01*
X27404523Y-41661190D01*
X27404523Y-41782142D01*
X27344047Y-41963571D01*
X27223095Y-42084523D01*
X27102142Y-42145000D01*
X26860238Y-42205476D01*
X26678809Y-42205476D01*
X26436904Y-42145000D01*
X26315952Y-42084523D01*
X26195000Y-41963571D01*
X26134523Y-41782142D01*
X26134523Y-41661190D01*
X26195000Y-41479761D01*
X26255476Y-41419285D01*
X26557857Y-40330714D02*
X27404523Y-40330714D01*
X26074047Y-40633095D02*
X26981190Y-40935476D01*
X26981190Y-40149285D01*
X10894523Y-42749761D02*
X9624523Y-42749761D01*
X10773571Y-41419285D02*
X10834047Y-41479761D01*
X10894523Y-41661190D01*
X10894523Y-41782142D01*
X10834047Y-41963571D01*
X10713095Y-42084523D01*
X10592142Y-42145000D01*
X10350238Y-42205476D01*
X10168809Y-42205476D01*
X9926904Y-42145000D01*
X9805952Y-42084523D01*
X9685000Y-41963571D01*
X9624523Y-41782142D01*
X9624523Y-41661190D01*
X9685000Y-41479761D01*
X9745476Y-41419285D01*
X9624523Y-40270238D02*
X9624523Y-40875000D01*
X10229285Y-40935476D01*
X10168809Y-40875000D01*
X10108333Y-40754047D01*
X10108333Y-40451666D01*
X10168809Y-40330714D01*
X10229285Y-40270238D01*
X10350238Y-40209761D01*
X10652619Y-40209761D01*
X10773571Y-40270238D01*
X10834047Y-40330714D01*
X10894523Y-40451666D01*
X10894523Y-40754047D01*
X10834047Y-40875000D01*
X10773571Y-40935476D01*
D11*
X95076666Y-37482380D02*
X95076666Y-38196666D01*
X95029047Y-38339523D01*
X94933809Y-38434761D01*
X94790952Y-38482380D01*
X94695714Y-38482380D01*
X96076666Y-38482380D02*
X95505238Y-38482380D01*
X95790952Y-38482380D02*
X95790952Y-37482380D01*
X95695714Y-37625238D01*
X95600476Y-37720476D01*
X95505238Y-37768095D01*
X3636666Y-37482380D02*
X3636666Y-38196666D01*
X3589047Y-38339523D01*
X3493809Y-38434761D01*
X3350952Y-38482380D01*
X3255714Y-38482380D01*
X4065238Y-37577619D02*
X4112857Y-37530000D01*
X4208095Y-37482380D01*
X4446190Y-37482380D01*
X4541428Y-37530000D01*
X4589047Y-37577619D01*
X4636666Y-37672857D01*
X4636666Y-37768095D01*
X4589047Y-37910952D01*
X4017619Y-38482380D01*
X4636666Y-38482380D01*
X93252380Y-31033333D02*
X93966666Y-31033333D01*
X94109523Y-31080952D01*
X94204761Y-31176190D01*
X94252380Y-31319047D01*
X94252380Y-31414285D01*
X94252380Y-30557142D02*
X93252380Y-30557142D01*
X93252380Y-30176190D01*
X93300000Y-30080952D01*
X93347619Y-30033333D01*
X93442857Y-29985714D01*
X93585714Y-29985714D01*
X93680952Y-30033333D01*
X93728571Y-30080952D01*
X93776190Y-30176190D01*
X93776190Y-30557142D01*
X94252380Y-29033333D02*
X94252380Y-29604761D01*
X94252380Y-29319047D02*
X93252380Y-29319047D01*
X93395238Y-29414285D01*
X93490476Y-29509523D01*
X93538095Y-29604761D01*
X86712380Y-30853333D02*
X87426666Y-30853333D01*
X87569523Y-30900952D01*
X87664761Y-30996190D01*
X87712380Y-31139047D01*
X87712380Y-31234285D01*
X87712380Y-30377142D02*
X86712380Y-30377142D01*
X86712380Y-29996190D01*
X86760000Y-29900952D01*
X86807619Y-29853333D01*
X86902857Y-29805714D01*
X87045714Y-29805714D01*
X87140952Y-29853333D01*
X87188571Y-29900952D01*
X87236190Y-29996190D01*
X87236190Y-30377142D01*
X86807619Y-29424761D02*
X86760000Y-29377142D01*
X86712380Y-29281904D01*
X86712380Y-29043809D01*
X86760000Y-28948571D01*
X86807619Y-28900952D01*
X86902857Y-28853333D01*
X86998095Y-28853333D01*
X87140952Y-28900952D01*
X87712380Y-29472380D01*
X87712380Y-28853333D01*
D13*
X82926523Y-69110380D02*
X81656523Y-69110380D01*
X82926523Y-68384666D02*
X82200809Y-68928952D01*
X81656523Y-68384666D02*
X82382238Y-69110380D01*
X82926523Y-67175142D02*
X82926523Y-67900857D01*
X82926523Y-67538000D02*
X81656523Y-67538000D01*
X81837952Y-67658952D01*
X81958904Y-67779904D01*
X82019380Y-67900857D01*
X66426523Y-69110380D02*
X65156523Y-69110380D01*
X66426523Y-68384666D02*
X65700809Y-68928952D01*
X65156523Y-68384666D02*
X65882238Y-69110380D01*
X65277476Y-67900857D02*
X65217000Y-67840380D01*
X65156523Y-67719428D01*
X65156523Y-67417047D01*
X65217000Y-67296095D01*
X65277476Y-67235619D01*
X65398428Y-67175142D01*
X65519380Y-67175142D01*
X65700809Y-67235619D01*
X66426523Y-67961333D01*
X66426523Y-67175142D01*
X49926523Y-69110380D02*
X48656523Y-69110380D01*
X49926523Y-68384666D02*
X49200809Y-68928952D01*
X48656523Y-68384666D02*
X49382238Y-69110380D01*
X48656523Y-67961333D02*
X48656523Y-67175142D01*
X49140333Y-67598476D01*
X49140333Y-67417047D01*
X49200809Y-67296095D01*
X49261285Y-67235619D01*
X49382238Y-67175142D01*
X49684619Y-67175142D01*
X49805571Y-67235619D01*
X49866047Y-67296095D01*
X49926523Y-67417047D01*
X49926523Y-67779904D01*
X49866047Y-67900857D01*
X49805571Y-67961333D01*
X33426523Y-69110380D02*
X32156523Y-69110380D01*
X33426523Y-68384666D02*
X32700809Y-68928952D01*
X32156523Y-68384666D02*
X32882238Y-69110380D01*
X32579857Y-67296095D02*
X33426523Y-67296095D01*
X32096047Y-67598476D02*
X33003190Y-67900857D01*
X33003190Y-67114666D01*
X16926523Y-69110380D02*
X15656523Y-69110380D01*
X16926523Y-68384666D02*
X16200809Y-68928952D01*
X15656523Y-68384666D02*
X16382238Y-69110380D01*
X15656523Y-67235619D02*
X15656523Y-67840380D01*
X16261285Y-67900857D01*
X16200809Y-67840380D01*
X16140333Y-67719428D01*
X16140333Y-67417047D01*
X16200809Y-67296095D01*
X16261285Y-67235619D01*
X16382238Y-67175142D01*
X16684619Y-67175142D01*
X16805571Y-67235619D01*
X16866047Y-67296095D01*
X16926523Y-67417047D01*
X16926523Y-67719428D01*
X16866047Y-67840380D01*
X16805571Y-67900857D01*
D11*
X81670476Y-97952380D02*
X81670476Y-96952380D01*
X82003809Y-97666666D01*
X82337142Y-96952380D01*
X82337142Y-97952380D01*
X83337142Y-97952380D02*
X82765714Y-97952380D01*
X83051428Y-97952380D02*
X83051428Y-96952380D01*
X82956190Y-97095238D01*
X82860952Y-97190476D01*
X82765714Y-97238095D01*
X65070476Y-97952380D02*
X65070476Y-96952380D01*
X65403809Y-97666666D01*
X65737142Y-96952380D01*
X65737142Y-97952380D01*
X66165714Y-97047619D02*
X66213333Y-97000000D01*
X66308571Y-96952380D01*
X66546666Y-96952380D01*
X66641904Y-97000000D01*
X66689523Y-97047619D01*
X66737142Y-97142857D01*
X66737142Y-97238095D01*
X66689523Y-97380952D01*
X66118095Y-97952380D01*
X66737142Y-97952380D01*
X48570476Y-97952380D02*
X48570476Y-96952380D01*
X48903809Y-97666666D01*
X49237142Y-96952380D01*
X49237142Y-97952380D01*
X49618095Y-96952380D02*
X50237142Y-96952380D01*
X49903809Y-97333333D01*
X50046666Y-97333333D01*
X50141904Y-97380952D01*
X50189523Y-97428571D01*
X50237142Y-97523809D01*
X50237142Y-97761904D01*
X50189523Y-97857142D01*
X50141904Y-97904761D01*
X50046666Y-97952380D01*
X49760952Y-97952380D01*
X49665714Y-97904761D01*
X49618095Y-97857142D01*
X32070476Y-97952380D02*
X32070476Y-96952380D01*
X32403809Y-97666666D01*
X32737142Y-96952380D01*
X32737142Y-97952380D01*
X33641904Y-97285714D02*
X33641904Y-97952380D01*
X33403809Y-96904761D02*
X33165714Y-97619047D01*
X33784761Y-97619047D01*
X15570476Y-97952380D02*
X15570476Y-96952380D01*
X15903809Y-97666666D01*
X16237142Y-96952380D01*
X16237142Y-97952380D01*
X17189523Y-96952380D02*
X16713333Y-96952380D01*
X16665714Y-97428571D01*
X16713333Y-97380952D01*
X16808571Y-97333333D01*
X17046666Y-97333333D01*
X17141904Y-97380952D01*
X17189523Y-97428571D01*
X17237142Y-97523809D01*
X17237142Y-97761904D01*
X17189523Y-97857142D01*
X17141904Y-97904761D01*
X17046666Y-97952380D01*
X16808571Y-97952380D01*
X16713333Y-97904761D01*
X16665714Y-97857142D01*
X88504761Y-50147619D02*
X88409523Y-50100000D01*
X88314285Y-50004761D01*
X88171428Y-49861904D01*
X88076190Y-49814285D01*
X87980952Y-49814285D01*
X88028571Y-50052380D02*
X87933333Y-50004761D01*
X87838095Y-49909523D01*
X87790476Y-49719047D01*
X87790476Y-49385714D01*
X87838095Y-49195238D01*
X87933333Y-49100000D01*
X88028571Y-49052380D01*
X88219047Y-49052380D01*
X88314285Y-49100000D01*
X88409523Y-49195238D01*
X88457142Y-49385714D01*
X88457142Y-49719047D01*
X88409523Y-49909523D01*
X88314285Y-50004761D01*
X88219047Y-50052380D01*
X88028571Y-50052380D01*
X89409523Y-50052380D02*
X88838095Y-50052380D01*
X89123809Y-50052380D02*
X89123809Y-49052380D01*
X89028571Y-49195238D01*
X88933333Y-49290476D01*
X88838095Y-49338095D01*
X68904761Y-50147619D02*
X68809523Y-50100000D01*
X68714285Y-50004761D01*
X68571428Y-49861904D01*
X68476190Y-49814285D01*
X68380952Y-49814285D01*
X68428571Y-50052380D02*
X68333333Y-50004761D01*
X68238095Y-49909523D01*
X68190476Y-49719047D01*
X68190476Y-49385714D01*
X68238095Y-49195238D01*
X68333333Y-49100000D01*
X68428571Y-49052380D01*
X68619047Y-49052380D01*
X68714285Y-49100000D01*
X68809523Y-49195238D01*
X68857142Y-49385714D01*
X68857142Y-49719047D01*
X68809523Y-49909523D01*
X68714285Y-50004761D01*
X68619047Y-50052380D01*
X68428571Y-50052380D01*
X69238095Y-49147619D02*
X69285714Y-49100000D01*
X69380952Y-49052380D01*
X69619047Y-49052380D01*
X69714285Y-49100000D01*
X69761904Y-49147619D01*
X69809523Y-49242857D01*
X69809523Y-49338095D01*
X69761904Y-49480952D01*
X69190476Y-50052380D01*
X69809523Y-50052380D01*
X53904761Y-50047619D02*
X53809523Y-50000000D01*
X53714285Y-49904761D01*
X53571428Y-49761904D01*
X53476190Y-49714285D01*
X53380952Y-49714285D01*
X53428571Y-49952380D02*
X53333333Y-49904761D01*
X53238095Y-49809523D01*
X53190476Y-49619047D01*
X53190476Y-49285714D01*
X53238095Y-49095238D01*
X53333333Y-49000000D01*
X53428571Y-48952380D01*
X53619047Y-48952380D01*
X53714285Y-49000000D01*
X53809523Y-49095238D01*
X53857142Y-49285714D01*
X53857142Y-49619047D01*
X53809523Y-49809523D01*
X53714285Y-49904761D01*
X53619047Y-49952380D01*
X53428571Y-49952380D01*
X54190476Y-48952380D02*
X54809523Y-48952380D01*
X54476190Y-49333333D01*
X54619047Y-49333333D01*
X54714285Y-49380952D01*
X54761904Y-49428571D01*
X54809523Y-49523809D01*
X54809523Y-49761904D01*
X54761904Y-49857142D01*
X54714285Y-49904761D01*
X54619047Y-49952380D01*
X54333333Y-49952380D01*
X54238095Y-49904761D01*
X54190476Y-49857142D01*
X37904761Y-50047619D02*
X37809523Y-50000000D01*
X37714285Y-49904761D01*
X37571428Y-49761904D01*
X37476190Y-49714285D01*
X37380952Y-49714285D01*
X37428571Y-49952380D02*
X37333333Y-49904761D01*
X37238095Y-49809523D01*
X37190476Y-49619047D01*
X37190476Y-49285714D01*
X37238095Y-49095238D01*
X37333333Y-49000000D01*
X37428571Y-48952380D01*
X37619047Y-48952380D01*
X37714285Y-49000000D01*
X37809523Y-49095238D01*
X37857142Y-49285714D01*
X37857142Y-49619047D01*
X37809523Y-49809523D01*
X37714285Y-49904761D01*
X37619047Y-49952380D01*
X37428571Y-49952380D01*
X38714285Y-49285714D02*
X38714285Y-49952380D01*
X38476190Y-48904761D02*
X38238095Y-49619047D01*
X38857142Y-49619047D01*
X21404761Y-50147619D02*
X21309523Y-50100000D01*
X21214285Y-50004761D01*
X21071428Y-49861904D01*
X20976190Y-49814285D01*
X20880952Y-49814285D01*
X20928571Y-50052380D02*
X20833333Y-50004761D01*
X20738095Y-49909523D01*
X20690476Y-49719047D01*
X20690476Y-49385714D01*
X20738095Y-49195238D01*
X20833333Y-49100000D01*
X20928571Y-49052380D01*
X21119047Y-49052380D01*
X21214285Y-49100000D01*
X21309523Y-49195238D01*
X21357142Y-49385714D01*
X21357142Y-49719047D01*
X21309523Y-49909523D01*
X21214285Y-50004761D01*
X21119047Y-50052380D01*
X20928571Y-50052380D01*
X22261904Y-49052380D02*
X21785714Y-49052380D01*
X21738095Y-49528571D01*
X21785714Y-49480952D01*
X21880952Y-49433333D01*
X22119047Y-49433333D01*
X22214285Y-49480952D01*
X22261904Y-49528571D01*
X22309523Y-49623809D01*
X22309523Y-49861904D01*
X22261904Y-49957142D01*
X22214285Y-50004761D01*
X22119047Y-50052380D01*
X21880952Y-50052380D01*
X21785714Y-50004761D01*
X21738095Y-49957142D01*
X73157142Y-49652380D02*
X72823809Y-49176190D01*
X72585714Y-49652380D02*
X72585714Y-48652380D01*
X72966666Y-48652380D01*
X73061904Y-48700000D01*
X73109523Y-48747619D01*
X73157142Y-48842857D01*
X73157142Y-48985714D01*
X73109523Y-49080952D01*
X73061904Y-49128571D01*
X72966666Y-49176190D01*
X72585714Y-49176190D01*
X74109523Y-49652380D02*
X73538095Y-49652380D01*
X73823809Y-49652380D02*
X73823809Y-48652380D01*
X73728571Y-48795238D01*
X73633333Y-48890476D01*
X73538095Y-48938095D01*
X74966666Y-48652380D02*
X74776190Y-48652380D01*
X74680952Y-48700000D01*
X74633333Y-48747619D01*
X74538095Y-48890476D01*
X74490476Y-49080952D01*
X74490476Y-49461904D01*
X74538095Y-49557142D01*
X74585714Y-49604761D01*
X74680952Y-49652380D01*
X74871428Y-49652380D01*
X74966666Y-49604761D01*
X75014285Y-49557142D01*
X75061904Y-49461904D01*
X75061904Y-49223809D01*
X75014285Y-49128571D01*
X74966666Y-49080952D01*
X74871428Y-49033333D01*
X74680952Y-49033333D01*
X74585714Y-49080952D01*
X74538095Y-49128571D01*
X74490476Y-49223809D01*
X83957142Y-49452380D02*
X83623809Y-48976190D01*
X83385714Y-49452380D02*
X83385714Y-48452380D01*
X83766666Y-48452380D01*
X83861904Y-48500000D01*
X83909523Y-48547619D01*
X83957142Y-48642857D01*
X83957142Y-48785714D01*
X83909523Y-48880952D01*
X83861904Y-48928571D01*
X83766666Y-48976190D01*
X83385714Y-48976190D01*
X84909523Y-49452380D02*
X84338095Y-49452380D01*
X84623809Y-49452380D02*
X84623809Y-48452380D01*
X84528571Y-48595238D01*
X84433333Y-48690476D01*
X84338095Y-48738095D01*
X85242857Y-48452380D02*
X85909523Y-48452380D01*
X85480952Y-49452380D01*
X56757142Y-49852380D02*
X56423809Y-49376190D01*
X56185714Y-49852380D02*
X56185714Y-48852380D01*
X56566666Y-48852380D01*
X56661904Y-48900000D01*
X56709523Y-48947619D01*
X56757142Y-49042857D01*
X56757142Y-49185714D01*
X56709523Y-49280952D01*
X56661904Y-49328571D01*
X56566666Y-49376190D01*
X56185714Y-49376190D01*
X57709523Y-49852380D02*
X57138095Y-49852380D01*
X57423809Y-49852380D02*
X57423809Y-48852380D01*
X57328571Y-48995238D01*
X57233333Y-49090476D01*
X57138095Y-49138095D01*
X58280952Y-49280952D02*
X58185714Y-49233333D01*
X58138095Y-49185714D01*
X58090476Y-49090476D01*
X58090476Y-49042857D01*
X58138095Y-48947619D01*
X58185714Y-48900000D01*
X58280952Y-48852380D01*
X58471428Y-48852380D01*
X58566666Y-48900000D01*
X58614285Y-48947619D01*
X58661904Y-49042857D01*
X58661904Y-49090476D01*
X58614285Y-49185714D01*
X58566666Y-49233333D01*
X58471428Y-49280952D01*
X58280952Y-49280952D01*
X58185714Y-49328571D01*
X58138095Y-49376190D01*
X58090476Y-49471428D01*
X58090476Y-49661904D01*
X58138095Y-49757142D01*
X58185714Y-49804761D01*
X58280952Y-49852380D01*
X58471428Y-49852380D01*
X58566666Y-49804761D01*
X58614285Y-49757142D01*
X58661904Y-49661904D01*
X58661904Y-49471428D01*
X58614285Y-49376190D01*
X58566666Y-49328571D01*
X58471428Y-49280952D01*
X66957142Y-48652380D02*
X66623809Y-48176190D01*
X66385714Y-48652380D02*
X66385714Y-47652380D01*
X66766666Y-47652380D01*
X66861904Y-47700000D01*
X66909523Y-47747619D01*
X66957142Y-47842857D01*
X66957142Y-47985714D01*
X66909523Y-48080952D01*
X66861904Y-48128571D01*
X66766666Y-48176190D01*
X66385714Y-48176190D01*
X67909523Y-48652380D02*
X67338095Y-48652380D01*
X67623809Y-48652380D02*
X67623809Y-47652380D01*
X67528571Y-47795238D01*
X67433333Y-47890476D01*
X67338095Y-47938095D01*
X68385714Y-48652380D02*
X68576190Y-48652380D01*
X68671428Y-48604761D01*
X68719047Y-48557142D01*
X68814285Y-48414285D01*
X68861904Y-48223809D01*
X68861904Y-47842857D01*
X68814285Y-47747619D01*
X68766666Y-47700000D01*
X68671428Y-47652380D01*
X68480952Y-47652380D01*
X68385714Y-47700000D01*
X68338095Y-47747619D01*
X68290476Y-47842857D01*
X68290476Y-48080952D01*
X68338095Y-48176190D01*
X68385714Y-48223809D01*
X68480952Y-48271428D01*
X68671428Y-48271428D01*
X68766666Y-48223809D01*
X68814285Y-48176190D01*
X68861904Y-48080952D01*
X40357142Y-49952380D02*
X40023809Y-49476190D01*
X39785714Y-49952380D02*
X39785714Y-48952380D01*
X40166666Y-48952380D01*
X40261904Y-49000000D01*
X40309523Y-49047619D01*
X40357142Y-49142857D01*
X40357142Y-49285714D01*
X40309523Y-49380952D01*
X40261904Y-49428571D01*
X40166666Y-49476190D01*
X39785714Y-49476190D01*
X40738095Y-49047619D02*
X40785714Y-49000000D01*
X40880952Y-48952380D01*
X41119047Y-48952380D01*
X41214285Y-49000000D01*
X41261904Y-49047619D01*
X41309523Y-49142857D01*
X41309523Y-49238095D01*
X41261904Y-49380952D01*
X40690476Y-49952380D01*
X41309523Y-49952380D01*
X41928571Y-48952380D02*
X42023809Y-48952380D01*
X42119047Y-49000000D01*
X42166666Y-49047619D01*
X42214285Y-49142857D01*
X42261904Y-49333333D01*
X42261904Y-49571428D01*
X42214285Y-49761904D01*
X42166666Y-49857142D01*
X42119047Y-49904761D01*
X42023809Y-49952380D01*
X41928571Y-49952380D01*
X41833333Y-49904761D01*
X41785714Y-49857142D01*
X41738095Y-49761904D01*
X41690476Y-49571428D01*
X41690476Y-49333333D01*
X41738095Y-49142857D01*
X41785714Y-49047619D01*
X41833333Y-49000000D01*
X41928571Y-48952380D01*
X50357142Y-49452380D02*
X50023809Y-48976190D01*
X49785714Y-49452380D02*
X49785714Y-48452380D01*
X50166666Y-48452380D01*
X50261904Y-48500000D01*
X50309523Y-48547619D01*
X50357142Y-48642857D01*
X50357142Y-48785714D01*
X50309523Y-48880952D01*
X50261904Y-48928571D01*
X50166666Y-48976190D01*
X49785714Y-48976190D01*
X50738095Y-48547619D02*
X50785714Y-48500000D01*
X50880952Y-48452380D01*
X51119047Y-48452380D01*
X51214285Y-48500000D01*
X51261904Y-48547619D01*
X51309523Y-48642857D01*
X51309523Y-48738095D01*
X51261904Y-48880952D01*
X50690476Y-49452380D01*
X51309523Y-49452380D01*
X52261904Y-49452380D02*
X51690476Y-49452380D01*
X51976190Y-49452380D02*
X51976190Y-48452380D01*
X51880952Y-48595238D01*
X51785714Y-48690476D01*
X51690476Y-48738095D01*
X23857142Y-49452380D02*
X23523809Y-48976190D01*
X23285714Y-49452380D02*
X23285714Y-48452380D01*
X23666666Y-48452380D01*
X23761904Y-48500000D01*
X23809523Y-48547619D01*
X23857142Y-48642857D01*
X23857142Y-48785714D01*
X23809523Y-48880952D01*
X23761904Y-48928571D01*
X23666666Y-48976190D01*
X23285714Y-48976190D01*
X24238095Y-48547619D02*
X24285714Y-48500000D01*
X24380952Y-48452380D01*
X24619047Y-48452380D01*
X24714285Y-48500000D01*
X24761904Y-48547619D01*
X24809523Y-48642857D01*
X24809523Y-48738095D01*
X24761904Y-48880952D01*
X24190476Y-49452380D01*
X24809523Y-49452380D01*
X25190476Y-48547619D02*
X25238095Y-48500000D01*
X25333333Y-48452380D01*
X25571428Y-48452380D01*
X25666666Y-48500000D01*
X25714285Y-48547619D01*
X25761904Y-48642857D01*
X25761904Y-48738095D01*
X25714285Y-48880952D01*
X25142857Y-49452380D01*
X25761904Y-49452380D01*
X34357142Y-49452380D02*
X34023809Y-48976190D01*
X33785714Y-49452380D02*
X33785714Y-48452380D01*
X34166666Y-48452380D01*
X34261904Y-48500000D01*
X34309523Y-48547619D01*
X34357142Y-48642857D01*
X34357142Y-48785714D01*
X34309523Y-48880952D01*
X34261904Y-48928571D01*
X34166666Y-48976190D01*
X33785714Y-48976190D01*
X34738095Y-48547619D02*
X34785714Y-48500000D01*
X34880952Y-48452380D01*
X35119047Y-48452380D01*
X35214285Y-48500000D01*
X35261904Y-48547619D01*
X35309523Y-48642857D01*
X35309523Y-48738095D01*
X35261904Y-48880952D01*
X34690476Y-49452380D01*
X35309523Y-49452380D01*
X35642857Y-48452380D02*
X36261904Y-48452380D01*
X35928571Y-48833333D01*
X36071428Y-48833333D01*
X36166666Y-48880952D01*
X36214285Y-48928571D01*
X36261904Y-49023809D01*
X36261904Y-49261904D01*
X36214285Y-49357142D01*
X36166666Y-49404761D01*
X36071428Y-49452380D01*
X35785714Y-49452380D01*
X35690476Y-49404761D01*
X35642857Y-49357142D01*
X7357142Y-49452380D02*
X7023809Y-48976190D01*
X6785714Y-49452380D02*
X6785714Y-48452380D01*
X7166666Y-48452380D01*
X7261904Y-48500000D01*
X7309523Y-48547619D01*
X7357142Y-48642857D01*
X7357142Y-48785714D01*
X7309523Y-48880952D01*
X7261904Y-48928571D01*
X7166666Y-48976190D01*
X6785714Y-48976190D01*
X7738095Y-48547619D02*
X7785714Y-48500000D01*
X7880952Y-48452380D01*
X8119047Y-48452380D01*
X8214285Y-48500000D01*
X8261904Y-48547619D01*
X8309523Y-48642857D01*
X8309523Y-48738095D01*
X8261904Y-48880952D01*
X7690476Y-49452380D01*
X8309523Y-49452380D01*
X9166666Y-48785714D02*
X9166666Y-49452380D01*
X8928571Y-48404761D02*
X8690476Y-49119047D01*
X9309523Y-49119047D01*
X17357142Y-49452380D02*
X17023809Y-48976190D01*
X16785714Y-49452380D02*
X16785714Y-48452380D01*
X17166666Y-48452380D01*
X17261904Y-48500000D01*
X17309523Y-48547619D01*
X17357142Y-48642857D01*
X17357142Y-48785714D01*
X17309523Y-48880952D01*
X17261904Y-48928571D01*
X17166666Y-48976190D01*
X16785714Y-48976190D01*
X17738095Y-48547619D02*
X17785714Y-48500000D01*
X17880952Y-48452380D01*
X18119047Y-48452380D01*
X18214285Y-48500000D01*
X18261904Y-48547619D01*
X18309523Y-48642857D01*
X18309523Y-48738095D01*
X18261904Y-48880952D01*
X17690476Y-49452380D01*
X18309523Y-49452380D01*
X19214285Y-48452380D02*
X18738095Y-48452380D01*
X18690476Y-48928571D01*
X18738095Y-48880952D01*
X18833333Y-48833333D01*
X19071428Y-48833333D01*
X19166666Y-48880952D01*
X19214285Y-48928571D01*
X19261904Y-49023809D01*
X19261904Y-49261904D01*
X19214285Y-49357142D01*
X19166666Y-49404761D01*
X19071428Y-49452380D01*
X18833333Y-49452380D01*
X18738095Y-49404761D01*
X18690476Y-49357142D01*
X80852380Y-42761904D02*
X81661904Y-42761904D01*
X81757142Y-42714285D01*
X81804761Y-42666666D01*
X81852380Y-42571428D01*
X81852380Y-42380952D01*
X81804761Y-42285714D01*
X81757142Y-42238095D01*
X81661904Y-42190476D01*
X80852380Y-42190476D01*
X81852380Y-41190476D02*
X81852380Y-41761904D01*
X81852380Y-41476190D02*
X80852380Y-41476190D01*
X80995238Y-41571428D01*
X81090476Y-41666666D01*
X81138095Y-41761904D01*
X86652380Y-42831904D02*
X87461904Y-42831904D01*
X87557142Y-42784285D01*
X87604761Y-42736666D01*
X87652380Y-42641428D01*
X87652380Y-42450952D01*
X87604761Y-42355714D01*
X87557142Y-42308095D01*
X87461904Y-42260476D01*
X86652380Y-42260476D01*
X86747619Y-41831904D02*
X86700000Y-41784285D01*
X86652380Y-41689047D01*
X86652380Y-41450952D01*
X86700000Y-41355714D01*
X86747619Y-41308095D01*
X86842857Y-41260476D01*
X86938095Y-41260476D01*
X87080952Y-41308095D01*
X87652380Y-41879523D01*
X87652380Y-41260476D01*
X64452380Y-42831904D02*
X65261904Y-42831904D01*
X65357142Y-42784285D01*
X65404761Y-42736666D01*
X65452380Y-42641428D01*
X65452380Y-42450952D01*
X65404761Y-42355714D01*
X65357142Y-42308095D01*
X65261904Y-42260476D01*
X64452380Y-42260476D01*
X64452380Y-41879523D02*
X64452380Y-41260476D01*
X64833333Y-41593809D01*
X64833333Y-41450952D01*
X64880952Y-41355714D01*
X64928571Y-41308095D01*
X65023809Y-41260476D01*
X65261904Y-41260476D01*
X65357142Y-41308095D01*
X65404761Y-41355714D01*
X65452380Y-41450952D01*
X65452380Y-41736666D01*
X65404761Y-41831904D01*
X65357142Y-41879523D01*
X70052380Y-42761904D02*
X70861904Y-42761904D01*
X70957142Y-42714285D01*
X71004761Y-42666666D01*
X71052380Y-42571428D01*
X71052380Y-42380952D01*
X71004761Y-42285714D01*
X70957142Y-42238095D01*
X70861904Y-42190476D01*
X70052380Y-42190476D01*
X70385714Y-41285714D02*
X71052380Y-41285714D01*
X70004761Y-41523809D02*
X70719047Y-41761904D01*
X70719047Y-41142857D01*
X47852380Y-42831904D02*
X48661904Y-42831904D01*
X48757142Y-42784285D01*
X48804761Y-42736666D01*
X48852380Y-42641428D01*
X48852380Y-42450952D01*
X48804761Y-42355714D01*
X48757142Y-42308095D01*
X48661904Y-42260476D01*
X47852380Y-42260476D01*
X47852380Y-41308095D02*
X47852380Y-41784285D01*
X48328571Y-41831904D01*
X48280952Y-41784285D01*
X48233333Y-41689047D01*
X48233333Y-41450952D01*
X48280952Y-41355714D01*
X48328571Y-41308095D01*
X48423809Y-41260476D01*
X48661904Y-41260476D01*
X48757142Y-41308095D01*
X48804761Y-41355714D01*
X48852380Y-41450952D01*
X48852380Y-41689047D01*
X48804761Y-41784285D01*
X48757142Y-41831904D01*
X53452380Y-42831904D02*
X54261904Y-42831904D01*
X54357142Y-42784285D01*
X54404761Y-42736666D01*
X54452380Y-42641428D01*
X54452380Y-42450952D01*
X54404761Y-42355714D01*
X54357142Y-42308095D01*
X54261904Y-42260476D01*
X53452380Y-42260476D01*
X53452380Y-41355714D02*
X53452380Y-41546190D01*
X53500000Y-41641428D01*
X53547619Y-41689047D01*
X53690476Y-41784285D01*
X53880952Y-41831904D01*
X54261904Y-41831904D01*
X54357142Y-41784285D01*
X54404761Y-41736666D01*
X54452380Y-41641428D01*
X54452380Y-41450952D01*
X54404761Y-41355714D01*
X54357142Y-41308095D01*
X54261904Y-41260476D01*
X54023809Y-41260476D01*
X53928571Y-41308095D01*
X53880952Y-41355714D01*
X53833333Y-41450952D01*
X53833333Y-41641428D01*
X53880952Y-41736666D01*
X53928571Y-41784285D01*
X54023809Y-41831904D01*
X31252380Y-42961904D02*
X32061904Y-42961904D01*
X32157142Y-42914285D01*
X32204761Y-42866666D01*
X32252380Y-42771428D01*
X32252380Y-42580952D01*
X32204761Y-42485714D01*
X32157142Y-42438095D01*
X32061904Y-42390476D01*
X31252380Y-42390476D01*
X31252380Y-42009523D02*
X31252380Y-41342857D01*
X32252380Y-41771428D01*
X37052380Y-42831904D02*
X37861904Y-42831904D01*
X37957142Y-42784285D01*
X38004761Y-42736666D01*
X38052380Y-42641428D01*
X38052380Y-42450952D01*
X38004761Y-42355714D01*
X37957142Y-42308095D01*
X37861904Y-42260476D01*
X37052380Y-42260476D01*
X37480952Y-41641428D02*
X37433333Y-41736666D01*
X37385714Y-41784285D01*
X37290476Y-41831904D01*
X37242857Y-41831904D01*
X37147619Y-41784285D01*
X37100000Y-41736666D01*
X37052380Y-41641428D01*
X37052380Y-41450952D01*
X37100000Y-41355714D01*
X37147619Y-41308095D01*
X37242857Y-41260476D01*
X37290476Y-41260476D01*
X37385714Y-41308095D01*
X37433333Y-41355714D01*
X37480952Y-41450952D01*
X37480952Y-41641428D01*
X37528571Y-41736666D01*
X37576190Y-41784285D01*
X37671428Y-41831904D01*
X37861904Y-41831904D01*
X37957142Y-41784285D01*
X38004761Y-41736666D01*
X38052380Y-41641428D01*
X38052380Y-41450952D01*
X38004761Y-41355714D01*
X37957142Y-41308095D01*
X37861904Y-41260476D01*
X37671428Y-41260476D01*
X37576190Y-41308095D01*
X37528571Y-41355714D01*
X37480952Y-41450952D01*
X14952380Y-42831904D02*
X15761904Y-42831904D01*
X15857142Y-42784285D01*
X15904761Y-42736666D01*
X15952380Y-42641428D01*
X15952380Y-42450952D01*
X15904761Y-42355714D01*
X15857142Y-42308095D01*
X15761904Y-42260476D01*
X14952380Y-42260476D01*
X15952380Y-41736666D02*
X15952380Y-41546190D01*
X15904761Y-41450952D01*
X15857142Y-41403333D01*
X15714285Y-41308095D01*
X15523809Y-41260476D01*
X15142857Y-41260476D01*
X15047619Y-41308095D01*
X15000000Y-41355714D01*
X14952380Y-41450952D01*
X14952380Y-41641428D01*
X15000000Y-41736666D01*
X15047619Y-41784285D01*
X15142857Y-41831904D01*
X15380952Y-41831904D01*
X15476190Y-41784285D01*
X15523809Y-41736666D01*
X15571428Y-41641428D01*
X15571428Y-41450952D01*
X15523809Y-41355714D01*
X15476190Y-41308095D01*
X15380952Y-41260476D01*
X20452380Y-43308095D02*
X21261904Y-43308095D01*
X21357142Y-43260476D01*
X21404761Y-43212857D01*
X21452380Y-43117619D01*
X21452380Y-42927142D01*
X21404761Y-42831904D01*
X21357142Y-42784285D01*
X21261904Y-42736666D01*
X20452380Y-42736666D01*
X21452380Y-41736666D02*
X21452380Y-42308095D01*
X21452380Y-42022380D02*
X20452380Y-42022380D01*
X20595238Y-42117619D01*
X20690476Y-42212857D01*
X20738095Y-42308095D01*
X20452380Y-41117619D02*
X20452380Y-41022380D01*
X20500000Y-40927142D01*
X20547619Y-40879523D01*
X20642857Y-40831904D01*
X20833333Y-40784285D01*
X21071428Y-40784285D01*
X21261904Y-40831904D01*
X21357142Y-40879523D01*
X21404761Y-40927142D01*
X21452380Y-41022380D01*
X21452380Y-41117619D01*
X21404761Y-41212857D01*
X21357142Y-41260476D01*
X21261904Y-41308095D01*
X21071428Y-41355714D01*
X20833333Y-41355714D01*
X20642857Y-41308095D01*
X20547619Y-41260476D01*
X20500000Y-41212857D01*
X20452380Y-41117619D01*
%LPC*%
D14*
X8963000Y-46896000D03*
X11463000Y-46896000D03*
X25473000Y-46896000D03*
X27973000Y-46896000D03*
X41983000Y-46896000D03*
X44483000Y-46896000D03*
X58493000Y-46896000D03*
X60993000Y-46896000D03*
X75003000Y-46896000D03*
X77503000Y-46896000D03*
D15*
G36*
X11895691Y-33810176D02*
G01*
X11919401Y-33813693D01*
X11942652Y-33819517D01*
X11965220Y-33827592D01*
X11986889Y-33837841D01*
X12007448Y-33850164D01*
X12026701Y-33864442D01*
X12044461Y-33880539D01*
X12060558Y-33898299D01*
X12074836Y-33917552D01*
X12087159Y-33938111D01*
X12097408Y-33959780D01*
X12105483Y-33982348D01*
X12111307Y-34005599D01*
X12114824Y-34029309D01*
X12116000Y-34053250D01*
X12116000Y-34541750D01*
X12114824Y-34565691D01*
X12111307Y-34589401D01*
X12105483Y-34612652D01*
X12097408Y-34635220D01*
X12087159Y-34656889D01*
X12074836Y-34677448D01*
X12060558Y-34696701D01*
X12044461Y-34714461D01*
X12026701Y-34730558D01*
X12007448Y-34744836D01*
X11986889Y-34757159D01*
X11965220Y-34767408D01*
X11942652Y-34775483D01*
X11919401Y-34781307D01*
X11895691Y-34784824D01*
X11871750Y-34786000D01*
X11308250Y-34786000D01*
X11284309Y-34784824D01*
X11260599Y-34781307D01*
X11237348Y-34775483D01*
X11214780Y-34767408D01*
X11193111Y-34757159D01*
X11172552Y-34744836D01*
X11153299Y-34730558D01*
X11135539Y-34714461D01*
X11119442Y-34696701D01*
X11105164Y-34677448D01*
X11092841Y-34656889D01*
X11082592Y-34635220D01*
X11074517Y-34612652D01*
X11068693Y-34589401D01*
X11065176Y-34565691D01*
X11064000Y-34541750D01*
X11064000Y-34053250D01*
X11065176Y-34029309D01*
X11068693Y-34005599D01*
X11074517Y-33982348D01*
X11082592Y-33959780D01*
X11092841Y-33938111D01*
X11105164Y-33917552D01*
X11119442Y-33898299D01*
X11135539Y-33880539D01*
X11153299Y-33864442D01*
X11172552Y-33850164D01*
X11193111Y-33837841D01*
X11214780Y-33827592D01*
X11237348Y-33819517D01*
X11260599Y-33813693D01*
X11284309Y-33810176D01*
X11308250Y-33809000D01*
X11871750Y-33809000D01*
X11895691Y-33810176D01*
X11895691Y-33810176D01*
G37*
D16*
X11590000Y-34297500D03*
D15*
G36*
X11895691Y-35385176D02*
G01*
X11919401Y-35388693D01*
X11942652Y-35394517D01*
X11965220Y-35402592D01*
X11986889Y-35412841D01*
X12007448Y-35425164D01*
X12026701Y-35439442D01*
X12044461Y-35455539D01*
X12060558Y-35473299D01*
X12074836Y-35492552D01*
X12087159Y-35513111D01*
X12097408Y-35534780D01*
X12105483Y-35557348D01*
X12111307Y-35580599D01*
X12114824Y-35604309D01*
X12116000Y-35628250D01*
X12116000Y-36116750D01*
X12114824Y-36140691D01*
X12111307Y-36164401D01*
X12105483Y-36187652D01*
X12097408Y-36210220D01*
X12087159Y-36231889D01*
X12074836Y-36252448D01*
X12060558Y-36271701D01*
X12044461Y-36289461D01*
X12026701Y-36305558D01*
X12007448Y-36319836D01*
X11986889Y-36332159D01*
X11965220Y-36342408D01*
X11942652Y-36350483D01*
X11919401Y-36356307D01*
X11895691Y-36359824D01*
X11871750Y-36361000D01*
X11308250Y-36361000D01*
X11284309Y-36359824D01*
X11260599Y-36356307D01*
X11237348Y-36350483D01*
X11214780Y-36342408D01*
X11193111Y-36332159D01*
X11172552Y-36319836D01*
X11153299Y-36305558D01*
X11135539Y-36289461D01*
X11119442Y-36271701D01*
X11105164Y-36252448D01*
X11092841Y-36231889D01*
X11082592Y-36210220D01*
X11074517Y-36187652D01*
X11068693Y-36164401D01*
X11065176Y-36140691D01*
X11064000Y-36116750D01*
X11064000Y-35628250D01*
X11065176Y-35604309D01*
X11068693Y-35580599D01*
X11074517Y-35557348D01*
X11082592Y-35534780D01*
X11092841Y-35513111D01*
X11105164Y-35492552D01*
X11119442Y-35473299D01*
X11135539Y-35455539D01*
X11153299Y-35439442D01*
X11172552Y-35425164D01*
X11193111Y-35412841D01*
X11214780Y-35402592D01*
X11237348Y-35394517D01*
X11260599Y-35388693D01*
X11284309Y-35385176D01*
X11308250Y-35384000D01*
X11871750Y-35384000D01*
X11895691Y-35385176D01*
X11895691Y-35385176D01*
G37*
D16*
X11590000Y-35872500D03*
D15*
G36*
X22690691Y-33962676D02*
G01*
X22714401Y-33966193D01*
X22737652Y-33972017D01*
X22760220Y-33980092D01*
X22781889Y-33990341D01*
X22802448Y-34002664D01*
X22821701Y-34016942D01*
X22839461Y-34033039D01*
X22855558Y-34050799D01*
X22869836Y-34070052D01*
X22882159Y-34090611D01*
X22892408Y-34112280D01*
X22900483Y-34134848D01*
X22906307Y-34158099D01*
X22909824Y-34181809D01*
X22911000Y-34205750D01*
X22911000Y-34694250D01*
X22909824Y-34718191D01*
X22906307Y-34741901D01*
X22900483Y-34765152D01*
X22892408Y-34787720D01*
X22882159Y-34809389D01*
X22869836Y-34829948D01*
X22855558Y-34849201D01*
X22839461Y-34866961D01*
X22821701Y-34883058D01*
X22802448Y-34897336D01*
X22781889Y-34909659D01*
X22760220Y-34919908D01*
X22737652Y-34927983D01*
X22714401Y-34933807D01*
X22690691Y-34937324D01*
X22666750Y-34938500D01*
X22103250Y-34938500D01*
X22079309Y-34937324D01*
X22055599Y-34933807D01*
X22032348Y-34927983D01*
X22009780Y-34919908D01*
X21988111Y-34909659D01*
X21967552Y-34897336D01*
X21948299Y-34883058D01*
X21930539Y-34866961D01*
X21914442Y-34849201D01*
X21900164Y-34829948D01*
X21887841Y-34809389D01*
X21877592Y-34787720D01*
X21869517Y-34765152D01*
X21863693Y-34741901D01*
X21860176Y-34718191D01*
X21859000Y-34694250D01*
X21859000Y-34205750D01*
X21860176Y-34181809D01*
X21863693Y-34158099D01*
X21869517Y-34134848D01*
X21877592Y-34112280D01*
X21887841Y-34090611D01*
X21900164Y-34070052D01*
X21914442Y-34050799D01*
X21930539Y-34033039D01*
X21948299Y-34016942D01*
X21967552Y-34002664D01*
X21988111Y-33990341D01*
X22009780Y-33980092D01*
X22032348Y-33972017D01*
X22055599Y-33966193D01*
X22079309Y-33962676D01*
X22103250Y-33961500D01*
X22666750Y-33961500D01*
X22690691Y-33962676D01*
X22690691Y-33962676D01*
G37*
D16*
X22385000Y-34450000D03*
D15*
G36*
X22690691Y-35537676D02*
G01*
X22714401Y-35541193D01*
X22737652Y-35547017D01*
X22760220Y-35555092D01*
X22781889Y-35565341D01*
X22802448Y-35577664D01*
X22821701Y-35591942D01*
X22839461Y-35608039D01*
X22855558Y-35625799D01*
X22869836Y-35645052D01*
X22882159Y-35665611D01*
X22892408Y-35687280D01*
X22900483Y-35709848D01*
X22906307Y-35733099D01*
X22909824Y-35756809D01*
X22911000Y-35780750D01*
X22911000Y-36269250D01*
X22909824Y-36293191D01*
X22906307Y-36316901D01*
X22900483Y-36340152D01*
X22892408Y-36362720D01*
X22882159Y-36384389D01*
X22869836Y-36404948D01*
X22855558Y-36424201D01*
X22839461Y-36441961D01*
X22821701Y-36458058D01*
X22802448Y-36472336D01*
X22781889Y-36484659D01*
X22760220Y-36494908D01*
X22737652Y-36502983D01*
X22714401Y-36508807D01*
X22690691Y-36512324D01*
X22666750Y-36513500D01*
X22103250Y-36513500D01*
X22079309Y-36512324D01*
X22055599Y-36508807D01*
X22032348Y-36502983D01*
X22009780Y-36494908D01*
X21988111Y-36484659D01*
X21967552Y-36472336D01*
X21948299Y-36458058D01*
X21930539Y-36441961D01*
X21914442Y-36424201D01*
X21900164Y-36404948D01*
X21887841Y-36384389D01*
X21877592Y-36362720D01*
X21869517Y-36340152D01*
X21863693Y-36316901D01*
X21860176Y-36293191D01*
X21859000Y-36269250D01*
X21859000Y-35780750D01*
X21860176Y-35756809D01*
X21863693Y-35733099D01*
X21869517Y-35709848D01*
X21877592Y-35687280D01*
X21887841Y-35665611D01*
X21900164Y-35645052D01*
X21914442Y-35625799D01*
X21930539Y-35608039D01*
X21948299Y-35591942D01*
X21967552Y-35577664D01*
X21988111Y-35565341D01*
X22009780Y-35555092D01*
X22032348Y-35547017D01*
X22055599Y-35541193D01*
X22079309Y-35537676D01*
X22103250Y-35536500D01*
X22666750Y-35536500D01*
X22690691Y-35537676D01*
X22690691Y-35537676D01*
G37*
D16*
X22385000Y-36025000D03*
D15*
G36*
X16975691Y-33810176D02*
G01*
X16999401Y-33813693D01*
X17022652Y-33819517D01*
X17045220Y-33827592D01*
X17066889Y-33837841D01*
X17087448Y-33850164D01*
X17106701Y-33864442D01*
X17124461Y-33880539D01*
X17140558Y-33898299D01*
X17154836Y-33917552D01*
X17167159Y-33938111D01*
X17177408Y-33959780D01*
X17185483Y-33982348D01*
X17191307Y-34005599D01*
X17194824Y-34029309D01*
X17196000Y-34053250D01*
X17196000Y-34541750D01*
X17194824Y-34565691D01*
X17191307Y-34589401D01*
X17185483Y-34612652D01*
X17177408Y-34635220D01*
X17167159Y-34656889D01*
X17154836Y-34677448D01*
X17140558Y-34696701D01*
X17124461Y-34714461D01*
X17106701Y-34730558D01*
X17087448Y-34744836D01*
X17066889Y-34757159D01*
X17045220Y-34767408D01*
X17022652Y-34775483D01*
X16999401Y-34781307D01*
X16975691Y-34784824D01*
X16951750Y-34786000D01*
X16388250Y-34786000D01*
X16364309Y-34784824D01*
X16340599Y-34781307D01*
X16317348Y-34775483D01*
X16294780Y-34767408D01*
X16273111Y-34757159D01*
X16252552Y-34744836D01*
X16233299Y-34730558D01*
X16215539Y-34714461D01*
X16199442Y-34696701D01*
X16185164Y-34677448D01*
X16172841Y-34656889D01*
X16162592Y-34635220D01*
X16154517Y-34612652D01*
X16148693Y-34589401D01*
X16145176Y-34565691D01*
X16144000Y-34541750D01*
X16144000Y-34053250D01*
X16145176Y-34029309D01*
X16148693Y-34005599D01*
X16154517Y-33982348D01*
X16162592Y-33959780D01*
X16172841Y-33938111D01*
X16185164Y-33917552D01*
X16199442Y-33898299D01*
X16215539Y-33880539D01*
X16233299Y-33864442D01*
X16252552Y-33850164D01*
X16273111Y-33837841D01*
X16294780Y-33827592D01*
X16317348Y-33819517D01*
X16340599Y-33813693D01*
X16364309Y-33810176D01*
X16388250Y-33809000D01*
X16951750Y-33809000D01*
X16975691Y-33810176D01*
X16975691Y-33810176D01*
G37*
D16*
X16670000Y-34297500D03*
D15*
G36*
X16975691Y-35385176D02*
G01*
X16999401Y-35388693D01*
X17022652Y-35394517D01*
X17045220Y-35402592D01*
X17066889Y-35412841D01*
X17087448Y-35425164D01*
X17106701Y-35439442D01*
X17124461Y-35455539D01*
X17140558Y-35473299D01*
X17154836Y-35492552D01*
X17167159Y-35513111D01*
X17177408Y-35534780D01*
X17185483Y-35557348D01*
X17191307Y-35580599D01*
X17194824Y-35604309D01*
X17196000Y-35628250D01*
X17196000Y-36116750D01*
X17194824Y-36140691D01*
X17191307Y-36164401D01*
X17185483Y-36187652D01*
X17177408Y-36210220D01*
X17167159Y-36231889D01*
X17154836Y-36252448D01*
X17140558Y-36271701D01*
X17124461Y-36289461D01*
X17106701Y-36305558D01*
X17087448Y-36319836D01*
X17066889Y-36332159D01*
X17045220Y-36342408D01*
X17022652Y-36350483D01*
X16999401Y-36356307D01*
X16975691Y-36359824D01*
X16951750Y-36361000D01*
X16388250Y-36361000D01*
X16364309Y-36359824D01*
X16340599Y-36356307D01*
X16317348Y-36350483D01*
X16294780Y-36342408D01*
X16273111Y-36332159D01*
X16252552Y-36319836D01*
X16233299Y-36305558D01*
X16215539Y-36289461D01*
X16199442Y-36271701D01*
X16185164Y-36252448D01*
X16172841Y-36231889D01*
X16162592Y-36210220D01*
X16154517Y-36187652D01*
X16148693Y-36164401D01*
X16145176Y-36140691D01*
X16144000Y-36116750D01*
X16144000Y-35628250D01*
X16145176Y-35604309D01*
X16148693Y-35580599D01*
X16154517Y-35557348D01*
X16162592Y-35534780D01*
X16172841Y-35513111D01*
X16185164Y-35492552D01*
X16199442Y-35473299D01*
X16215539Y-35455539D01*
X16233299Y-35439442D01*
X16252552Y-35425164D01*
X16273111Y-35412841D01*
X16294780Y-35402592D01*
X16317348Y-35394517D01*
X16340599Y-35388693D01*
X16364309Y-35385176D01*
X16388250Y-35384000D01*
X16951750Y-35384000D01*
X16975691Y-35385176D01*
X16975691Y-35385176D01*
G37*
D16*
X16670000Y-35872500D03*
D15*
G36*
X28405691Y-33962676D02*
G01*
X28429401Y-33966193D01*
X28452652Y-33972017D01*
X28475220Y-33980092D01*
X28496889Y-33990341D01*
X28517448Y-34002664D01*
X28536701Y-34016942D01*
X28554461Y-34033039D01*
X28570558Y-34050799D01*
X28584836Y-34070052D01*
X28597159Y-34090611D01*
X28607408Y-34112280D01*
X28615483Y-34134848D01*
X28621307Y-34158099D01*
X28624824Y-34181809D01*
X28626000Y-34205750D01*
X28626000Y-34694250D01*
X28624824Y-34718191D01*
X28621307Y-34741901D01*
X28615483Y-34765152D01*
X28607408Y-34787720D01*
X28597159Y-34809389D01*
X28584836Y-34829948D01*
X28570558Y-34849201D01*
X28554461Y-34866961D01*
X28536701Y-34883058D01*
X28517448Y-34897336D01*
X28496889Y-34909659D01*
X28475220Y-34919908D01*
X28452652Y-34927983D01*
X28429401Y-34933807D01*
X28405691Y-34937324D01*
X28381750Y-34938500D01*
X27818250Y-34938500D01*
X27794309Y-34937324D01*
X27770599Y-34933807D01*
X27747348Y-34927983D01*
X27724780Y-34919908D01*
X27703111Y-34909659D01*
X27682552Y-34897336D01*
X27663299Y-34883058D01*
X27645539Y-34866961D01*
X27629442Y-34849201D01*
X27615164Y-34829948D01*
X27602841Y-34809389D01*
X27592592Y-34787720D01*
X27584517Y-34765152D01*
X27578693Y-34741901D01*
X27575176Y-34718191D01*
X27574000Y-34694250D01*
X27574000Y-34205750D01*
X27575176Y-34181809D01*
X27578693Y-34158099D01*
X27584517Y-34134848D01*
X27592592Y-34112280D01*
X27602841Y-34090611D01*
X27615164Y-34070052D01*
X27629442Y-34050799D01*
X27645539Y-34033039D01*
X27663299Y-34016942D01*
X27682552Y-34002664D01*
X27703111Y-33990341D01*
X27724780Y-33980092D01*
X27747348Y-33972017D01*
X27770599Y-33966193D01*
X27794309Y-33962676D01*
X27818250Y-33961500D01*
X28381750Y-33961500D01*
X28405691Y-33962676D01*
X28405691Y-33962676D01*
G37*
D16*
X28100000Y-34450000D03*
D15*
G36*
X28405691Y-35537676D02*
G01*
X28429401Y-35541193D01*
X28452652Y-35547017D01*
X28475220Y-35555092D01*
X28496889Y-35565341D01*
X28517448Y-35577664D01*
X28536701Y-35591942D01*
X28554461Y-35608039D01*
X28570558Y-35625799D01*
X28584836Y-35645052D01*
X28597159Y-35665611D01*
X28607408Y-35687280D01*
X28615483Y-35709848D01*
X28621307Y-35733099D01*
X28624824Y-35756809D01*
X28626000Y-35780750D01*
X28626000Y-36269250D01*
X28624824Y-36293191D01*
X28621307Y-36316901D01*
X28615483Y-36340152D01*
X28607408Y-36362720D01*
X28597159Y-36384389D01*
X28584836Y-36404948D01*
X28570558Y-36424201D01*
X28554461Y-36441961D01*
X28536701Y-36458058D01*
X28517448Y-36472336D01*
X28496889Y-36484659D01*
X28475220Y-36494908D01*
X28452652Y-36502983D01*
X28429401Y-36508807D01*
X28405691Y-36512324D01*
X28381750Y-36513500D01*
X27818250Y-36513500D01*
X27794309Y-36512324D01*
X27770599Y-36508807D01*
X27747348Y-36502983D01*
X27724780Y-36494908D01*
X27703111Y-36484659D01*
X27682552Y-36472336D01*
X27663299Y-36458058D01*
X27645539Y-36441961D01*
X27629442Y-36424201D01*
X27615164Y-36404948D01*
X27602841Y-36384389D01*
X27592592Y-36362720D01*
X27584517Y-36340152D01*
X27578693Y-36316901D01*
X27575176Y-36293191D01*
X27574000Y-36269250D01*
X27574000Y-35780750D01*
X27575176Y-35756809D01*
X27578693Y-35733099D01*
X27584517Y-35709848D01*
X27592592Y-35687280D01*
X27602841Y-35665611D01*
X27615164Y-35645052D01*
X27629442Y-35625799D01*
X27645539Y-35608039D01*
X27663299Y-35591942D01*
X27682552Y-35577664D01*
X27703111Y-35565341D01*
X27724780Y-35555092D01*
X27747348Y-35547017D01*
X27770599Y-35541193D01*
X27794309Y-35537676D01*
X27818250Y-35536500D01*
X28381750Y-35536500D01*
X28405691Y-35537676D01*
X28405691Y-35537676D01*
G37*
D16*
X28100000Y-36025000D03*
D15*
G36*
X39200691Y-33962676D02*
G01*
X39224401Y-33966193D01*
X39247652Y-33972017D01*
X39270220Y-33980092D01*
X39291889Y-33990341D01*
X39312448Y-34002664D01*
X39331701Y-34016942D01*
X39349461Y-34033039D01*
X39365558Y-34050799D01*
X39379836Y-34070052D01*
X39392159Y-34090611D01*
X39402408Y-34112280D01*
X39410483Y-34134848D01*
X39416307Y-34158099D01*
X39419824Y-34181809D01*
X39421000Y-34205750D01*
X39421000Y-34694250D01*
X39419824Y-34718191D01*
X39416307Y-34741901D01*
X39410483Y-34765152D01*
X39402408Y-34787720D01*
X39392159Y-34809389D01*
X39379836Y-34829948D01*
X39365558Y-34849201D01*
X39349461Y-34866961D01*
X39331701Y-34883058D01*
X39312448Y-34897336D01*
X39291889Y-34909659D01*
X39270220Y-34919908D01*
X39247652Y-34927983D01*
X39224401Y-34933807D01*
X39200691Y-34937324D01*
X39176750Y-34938500D01*
X38613250Y-34938500D01*
X38589309Y-34937324D01*
X38565599Y-34933807D01*
X38542348Y-34927983D01*
X38519780Y-34919908D01*
X38498111Y-34909659D01*
X38477552Y-34897336D01*
X38458299Y-34883058D01*
X38440539Y-34866961D01*
X38424442Y-34849201D01*
X38410164Y-34829948D01*
X38397841Y-34809389D01*
X38387592Y-34787720D01*
X38379517Y-34765152D01*
X38373693Y-34741901D01*
X38370176Y-34718191D01*
X38369000Y-34694250D01*
X38369000Y-34205750D01*
X38370176Y-34181809D01*
X38373693Y-34158099D01*
X38379517Y-34134848D01*
X38387592Y-34112280D01*
X38397841Y-34090611D01*
X38410164Y-34070052D01*
X38424442Y-34050799D01*
X38440539Y-34033039D01*
X38458299Y-34016942D01*
X38477552Y-34002664D01*
X38498111Y-33990341D01*
X38519780Y-33980092D01*
X38542348Y-33972017D01*
X38565599Y-33966193D01*
X38589309Y-33962676D01*
X38613250Y-33961500D01*
X39176750Y-33961500D01*
X39200691Y-33962676D01*
X39200691Y-33962676D01*
G37*
D16*
X38895000Y-34450000D03*
D15*
G36*
X39200691Y-35537676D02*
G01*
X39224401Y-35541193D01*
X39247652Y-35547017D01*
X39270220Y-35555092D01*
X39291889Y-35565341D01*
X39312448Y-35577664D01*
X39331701Y-35591942D01*
X39349461Y-35608039D01*
X39365558Y-35625799D01*
X39379836Y-35645052D01*
X39392159Y-35665611D01*
X39402408Y-35687280D01*
X39410483Y-35709848D01*
X39416307Y-35733099D01*
X39419824Y-35756809D01*
X39421000Y-35780750D01*
X39421000Y-36269250D01*
X39419824Y-36293191D01*
X39416307Y-36316901D01*
X39410483Y-36340152D01*
X39402408Y-36362720D01*
X39392159Y-36384389D01*
X39379836Y-36404948D01*
X39365558Y-36424201D01*
X39349461Y-36441961D01*
X39331701Y-36458058D01*
X39312448Y-36472336D01*
X39291889Y-36484659D01*
X39270220Y-36494908D01*
X39247652Y-36502983D01*
X39224401Y-36508807D01*
X39200691Y-36512324D01*
X39176750Y-36513500D01*
X38613250Y-36513500D01*
X38589309Y-36512324D01*
X38565599Y-36508807D01*
X38542348Y-36502983D01*
X38519780Y-36494908D01*
X38498111Y-36484659D01*
X38477552Y-36472336D01*
X38458299Y-36458058D01*
X38440539Y-36441961D01*
X38424442Y-36424201D01*
X38410164Y-36404948D01*
X38397841Y-36384389D01*
X38387592Y-36362720D01*
X38379517Y-36340152D01*
X38373693Y-36316901D01*
X38370176Y-36293191D01*
X38369000Y-36269250D01*
X38369000Y-35780750D01*
X38370176Y-35756809D01*
X38373693Y-35733099D01*
X38379517Y-35709848D01*
X38387592Y-35687280D01*
X38397841Y-35665611D01*
X38410164Y-35645052D01*
X38424442Y-35625799D01*
X38440539Y-35608039D01*
X38458299Y-35591942D01*
X38477552Y-35577664D01*
X38498111Y-35565341D01*
X38519780Y-35555092D01*
X38542348Y-35547017D01*
X38565599Y-35541193D01*
X38589309Y-35537676D01*
X38613250Y-35536500D01*
X39176750Y-35536500D01*
X39200691Y-35537676D01*
X39200691Y-35537676D01*
G37*
D16*
X38895000Y-36025000D03*
D15*
G36*
X33485691Y-33962676D02*
G01*
X33509401Y-33966193D01*
X33532652Y-33972017D01*
X33555220Y-33980092D01*
X33576889Y-33990341D01*
X33597448Y-34002664D01*
X33616701Y-34016942D01*
X33634461Y-34033039D01*
X33650558Y-34050799D01*
X33664836Y-34070052D01*
X33677159Y-34090611D01*
X33687408Y-34112280D01*
X33695483Y-34134848D01*
X33701307Y-34158099D01*
X33704824Y-34181809D01*
X33706000Y-34205750D01*
X33706000Y-34694250D01*
X33704824Y-34718191D01*
X33701307Y-34741901D01*
X33695483Y-34765152D01*
X33687408Y-34787720D01*
X33677159Y-34809389D01*
X33664836Y-34829948D01*
X33650558Y-34849201D01*
X33634461Y-34866961D01*
X33616701Y-34883058D01*
X33597448Y-34897336D01*
X33576889Y-34909659D01*
X33555220Y-34919908D01*
X33532652Y-34927983D01*
X33509401Y-34933807D01*
X33485691Y-34937324D01*
X33461750Y-34938500D01*
X32898250Y-34938500D01*
X32874309Y-34937324D01*
X32850599Y-34933807D01*
X32827348Y-34927983D01*
X32804780Y-34919908D01*
X32783111Y-34909659D01*
X32762552Y-34897336D01*
X32743299Y-34883058D01*
X32725539Y-34866961D01*
X32709442Y-34849201D01*
X32695164Y-34829948D01*
X32682841Y-34809389D01*
X32672592Y-34787720D01*
X32664517Y-34765152D01*
X32658693Y-34741901D01*
X32655176Y-34718191D01*
X32654000Y-34694250D01*
X32654000Y-34205750D01*
X32655176Y-34181809D01*
X32658693Y-34158099D01*
X32664517Y-34134848D01*
X32672592Y-34112280D01*
X32682841Y-34090611D01*
X32695164Y-34070052D01*
X32709442Y-34050799D01*
X32725539Y-34033039D01*
X32743299Y-34016942D01*
X32762552Y-34002664D01*
X32783111Y-33990341D01*
X32804780Y-33980092D01*
X32827348Y-33972017D01*
X32850599Y-33966193D01*
X32874309Y-33962676D01*
X32898250Y-33961500D01*
X33461750Y-33961500D01*
X33485691Y-33962676D01*
X33485691Y-33962676D01*
G37*
D16*
X33180000Y-34450000D03*
D15*
G36*
X33485691Y-35537676D02*
G01*
X33509401Y-35541193D01*
X33532652Y-35547017D01*
X33555220Y-35555092D01*
X33576889Y-35565341D01*
X33597448Y-35577664D01*
X33616701Y-35591942D01*
X33634461Y-35608039D01*
X33650558Y-35625799D01*
X33664836Y-35645052D01*
X33677159Y-35665611D01*
X33687408Y-35687280D01*
X33695483Y-35709848D01*
X33701307Y-35733099D01*
X33704824Y-35756809D01*
X33706000Y-35780750D01*
X33706000Y-36269250D01*
X33704824Y-36293191D01*
X33701307Y-36316901D01*
X33695483Y-36340152D01*
X33687408Y-36362720D01*
X33677159Y-36384389D01*
X33664836Y-36404948D01*
X33650558Y-36424201D01*
X33634461Y-36441961D01*
X33616701Y-36458058D01*
X33597448Y-36472336D01*
X33576889Y-36484659D01*
X33555220Y-36494908D01*
X33532652Y-36502983D01*
X33509401Y-36508807D01*
X33485691Y-36512324D01*
X33461750Y-36513500D01*
X32898250Y-36513500D01*
X32874309Y-36512324D01*
X32850599Y-36508807D01*
X32827348Y-36502983D01*
X32804780Y-36494908D01*
X32783111Y-36484659D01*
X32762552Y-36472336D01*
X32743299Y-36458058D01*
X32725539Y-36441961D01*
X32709442Y-36424201D01*
X32695164Y-36404948D01*
X32682841Y-36384389D01*
X32672592Y-36362720D01*
X32664517Y-36340152D01*
X32658693Y-36316901D01*
X32655176Y-36293191D01*
X32654000Y-36269250D01*
X32654000Y-35780750D01*
X32655176Y-35756809D01*
X32658693Y-35733099D01*
X32664517Y-35709848D01*
X32672592Y-35687280D01*
X32682841Y-35665611D01*
X32695164Y-35645052D01*
X32709442Y-35625799D01*
X32725539Y-35608039D01*
X32743299Y-35591942D01*
X32762552Y-35577664D01*
X32783111Y-35565341D01*
X32804780Y-35555092D01*
X32827348Y-35547017D01*
X32850599Y-35541193D01*
X32874309Y-35537676D01*
X32898250Y-35536500D01*
X33461750Y-35536500D01*
X33485691Y-35537676D01*
X33485691Y-35537676D01*
G37*
D16*
X33180000Y-36025000D03*
D15*
G36*
X44915691Y-33962676D02*
G01*
X44939401Y-33966193D01*
X44962652Y-33972017D01*
X44985220Y-33980092D01*
X45006889Y-33990341D01*
X45027448Y-34002664D01*
X45046701Y-34016942D01*
X45064461Y-34033039D01*
X45080558Y-34050799D01*
X45094836Y-34070052D01*
X45107159Y-34090611D01*
X45117408Y-34112280D01*
X45125483Y-34134848D01*
X45131307Y-34158099D01*
X45134824Y-34181809D01*
X45136000Y-34205750D01*
X45136000Y-34694250D01*
X45134824Y-34718191D01*
X45131307Y-34741901D01*
X45125483Y-34765152D01*
X45117408Y-34787720D01*
X45107159Y-34809389D01*
X45094836Y-34829948D01*
X45080558Y-34849201D01*
X45064461Y-34866961D01*
X45046701Y-34883058D01*
X45027448Y-34897336D01*
X45006889Y-34909659D01*
X44985220Y-34919908D01*
X44962652Y-34927983D01*
X44939401Y-34933807D01*
X44915691Y-34937324D01*
X44891750Y-34938500D01*
X44328250Y-34938500D01*
X44304309Y-34937324D01*
X44280599Y-34933807D01*
X44257348Y-34927983D01*
X44234780Y-34919908D01*
X44213111Y-34909659D01*
X44192552Y-34897336D01*
X44173299Y-34883058D01*
X44155539Y-34866961D01*
X44139442Y-34849201D01*
X44125164Y-34829948D01*
X44112841Y-34809389D01*
X44102592Y-34787720D01*
X44094517Y-34765152D01*
X44088693Y-34741901D01*
X44085176Y-34718191D01*
X44084000Y-34694250D01*
X44084000Y-34205750D01*
X44085176Y-34181809D01*
X44088693Y-34158099D01*
X44094517Y-34134848D01*
X44102592Y-34112280D01*
X44112841Y-34090611D01*
X44125164Y-34070052D01*
X44139442Y-34050799D01*
X44155539Y-34033039D01*
X44173299Y-34016942D01*
X44192552Y-34002664D01*
X44213111Y-33990341D01*
X44234780Y-33980092D01*
X44257348Y-33972017D01*
X44280599Y-33966193D01*
X44304309Y-33962676D01*
X44328250Y-33961500D01*
X44891750Y-33961500D01*
X44915691Y-33962676D01*
X44915691Y-33962676D01*
G37*
D16*
X44610000Y-34450000D03*
D15*
G36*
X44915691Y-35537676D02*
G01*
X44939401Y-35541193D01*
X44962652Y-35547017D01*
X44985220Y-35555092D01*
X45006889Y-35565341D01*
X45027448Y-35577664D01*
X45046701Y-35591942D01*
X45064461Y-35608039D01*
X45080558Y-35625799D01*
X45094836Y-35645052D01*
X45107159Y-35665611D01*
X45117408Y-35687280D01*
X45125483Y-35709848D01*
X45131307Y-35733099D01*
X45134824Y-35756809D01*
X45136000Y-35780750D01*
X45136000Y-36269250D01*
X45134824Y-36293191D01*
X45131307Y-36316901D01*
X45125483Y-36340152D01*
X45117408Y-36362720D01*
X45107159Y-36384389D01*
X45094836Y-36404948D01*
X45080558Y-36424201D01*
X45064461Y-36441961D01*
X45046701Y-36458058D01*
X45027448Y-36472336D01*
X45006889Y-36484659D01*
X44985220Y-36494908D01*
X44962652Y-36502983D01*
X44939401Y-36508807D01*
X44915691Y-36512324D01*
X44891750Y-36513500D01*
X44328250Y-36513500D01*
X44304309Y-36512324D01*
X44280599Y-36508807D01*
X44257348Y-36502983D01*
X44234780Y-36494908D01*
X44213111Y-36484659D01*
X44192552Y-36472336D01*
X44173299Y-36458058D01*
X44155539Y-36441961D01*
X44139442Y-36424201D01*
X44125164Y-36404948D01*
X44112841Y-36384389D01*
X44102592Y-36362720D01*
X44094517Y-36340152D01*
X44088693Y-36316901D01*
X44085176Y-36293191D01*
X44084000Y-36269250D01*
X44084000Y-35780750D01*
X44085176Y-35756809D01*
X44088693Y-35733099D01*
X44094517Y-35709848D01*
X44102592Y-35687280D01*
X44112841Y-35665611D01*
X44125164Y-35645052D01*
X44139442Y-35625799D01*
X44155539Y-35608039D01*
X44173299Y-35591942D01*
X44192552Y-35577664D01*
X44213111Y-35565341D01*
X44234780Y-35555092D01*
X44257348Y-35547017D01*
X44280599Y-35541193D01*
X44304309Y-35537676D01*
X44328250Y-35536500D01*
X44891750Y-35536500D01*
X44915691Y-35537676D01*
X44915691Y-35537676D01*
G37*
D16*
X44610000Y-36025000D03*
D15*
G36*
X55710691Y-33962676D02*
G01*
X55734401Y-33966193D01*
X55757652Y-33972017D01*
X55780220Y-33980092D01*
X55801889Y-33990341D01*
X55822448Y-34002664D01*
X55841701Y-34016942D01*
X55859461Y-34033039D01*
X55875558Y-34050799D01*
X55889836Y-34070052D01*
X55902159Y-34090611D01*
X55912408Y-34112280D01*
X55920483Y-34134848D01*
X55926307Y-34158099D01*
X55929824Y-34181809D01*
X55931000Y-34205750D01*
X55931000Y-34694250D01*
X55929824Y-34718191D01*
X55926307Y-34741901D01*
X55920483Y-34765152D01*
X55912408Y-34787720D01*
X55902159Y-34809389D01*
X55889836Y-34829948D01*
X55875558Y-34849201D01*
X55859461Y-34866961D01*
X55841701Y-34883058D01*
X55822448Y-34897336D01*
X55801889Y-34909659D01*
X55780220Y-34919908D01*
X55757652Y-34927983D01*
X55734401Y-34933807D01*
X55710691Y-34937324D01*
X55686750Y-34938500D01*
X55123250Y-34938500D01*
X55099309Y-34937324D01*
X55075599Y-34933807D01*
X55052348Y-34927983D01*
X55029780Y-34919908D01*
X55008111Y-34909659D01*
X54987552Y-34897336D01*
X54968299Y-34883058D01*
X54950539Y-34866961D01*
X54934442Y-34849201D01*
X54920164Y-34829948D01*
X54907841Y-34809389D01*
X54897592Y-34787720D01*
X54889517Y-34765152D01*
X54883693Y-34741901D01*
X54880176Y-34718191D01*
X54879000Y-34694250D01*
X54879000Y-34205750D01*
X54880176Y-34181809D01*
X54883693Y-34158099D01*
X54889517Y-34134848D01*
X54897592Y-34112280D01*
X54907841Y-34090611D01*
X54920164Y-34070052D01*
X54934442Y-34050799D01*
X54950539Y-34033039D01*
X54968299Y-34016942D01*
X54987552Y-34002664D01*
X55008111Y-33990341D01*
X55029780Y-33980092D01*
X55052348Y-33972017D01*
X55075599Y-33966193D01*
X55099309Y-33962676D01*
X55123250Y-33961500D01*
X55686750Y-33961500D01*
X55710691Y-33962676D01*
X55710691Y-33962676D01*
G37*
D16*
X55405000Y-34450000D03*
D15*
G36*
X55710691Y-35537676D02*
G01*
X55734401Y-35541193D01*
X55757652Y-35547017D01*
X55780220Y-35555092D01*
X55801889Y-35565341D01*
X55822448Y-35577664D01*
X55841701Y-35591942D01*
X55859461Y-35608039D01*
X55875558Y-35625799D01*
X55889836Y-35645052D01*
X55902159Y-35665611D01*
X55912408Y-35687280D01*
X55920483Y-35709848D01*
X55926307Y-35733099D01*
X55929824Y-35756809D01*
X55931000Y-35780750D01*
X55931000Y-36269250D01*
X55929824Y-36293191D01*
X55926307Y-36316901D01*
X55920483Y-36340152D01*
X55912408Y-36362720D01*
X55902159Y-36384389D01*
X55889836Y-36404948D01*
X55875558Y-36424201D01*
X55859461Y-36441961D01*
X55841701Y-36458058D01*
X55822448Y-36472336D01*
X55801889Y-36484659D01*
X55780220Y-36494908D01*
X55757652Y-36502983D01*
X55734401Y-36508807D01*
X55710691Y-36512324D01*
X55686750Y-36513500D01*
X55123250Y-36513500D01*
X55099309Y-36512324D01*
X55075599Y-36508807D01*
X55052348Y-36502983D01*
X55029780Y-36494908D01*
X55008111Y-36484659D01*
X54987552Y-36472336D01*
X54968299Y-36458058D01*
X54950539Y-36441961D01*
X54934442Y-36424201D01*
X54920164Y-36404948D01*
X54907841Y-36384389D01*
X54897592Y-36362720D01*
X54889517Y-36340152D01*
X54883693Y-36316901D01*
X54880176Y-36293191D01*
X54879000Y-36269250D01*
X54879000Y-35780750D01*
X54880176Y-35756809D01*
X54883693Y-35733099D01*
X54889517Y-35709848D01*
X54897592Y-35687280D01*
X54907841Y-35665611D01*
X54920164Y-35645052D01*
X54934442Y-35625799D01*
X54950539Y-35608039D01*
X54968299Y-35591942D01*
X54987552Y-35577664D01*
X55008111Y-35565341D01*
X55029780Y-35555092D01*
X55052348Y-35547017D01*
X55075599Y-35541193D01*
X55099309Y-35537676D01*
X55123250Y-35536500D01*
X55686750Y-35536500D01*
X55710691Y-35537676D01*
X55710691Y-35537676D01*
G37*
D16*
X55405000Y-36025000D03*
D15*
G36*
X49995691Y-33962676D02*
G01*
X50019401Y-33966193D01*
X50042652Y-33972017D01*
X50065220Y-33980092D01*
X50086889Y-33990341D01*
X50107448Y-34002664D01*
X50126701Y-34016942D01*
X50144461Y-34033039D01*
X50160558Y-34050799D01*
X50174836Y-34070052D01*
X50187159Y-34090611D01*
X50197408Y-34112280D01*
X50205483Y-34134848D01*
X50211307Y-34158099D01*
X50214824Y-34181809D01*
X50216000Y-34205750D01*
X50216000Y-34694250D01*
X50214824Y-34718191D01*
X50211307Y-34741901D01*
X50205483Y-34765152D01*
X50197408Y-34787720D01*
X50187159Y-34809389D01*
X50174836Y-34829948D01*
X50160558Y-34849201D01*
X50144461Y-34866961D01*
X50126701Y-34883058D01*
X50107448Y-34897336D01*
X50086889Y-34909659D01*
X50065220Y-34919908D01*
X50042652Y-34927983D01*
X50019401Y-34933807D01*
X49995691Y-34937324D01*
X49971750Y-34938500D01*
X49408250Y-34938500D01*
X49384309Y-34937324D01*
X49360599Y-34933807D01*
X49337348Y-34927983D01*
X49314780Y-34919908D01*
X49293111Y-34909659D01*
X49272552Y-34897336D01*
X49253299Y-34883058D01*
X49235539Y-34866961D01*
X49219442Y-34849201D01*
X49205164Y-34829948D01*
X49192841Y-34809389D01*
X49182592Y-34787720D01*
X49174517Y-34765152D01*
X49168693Y-34741901D01*
X49165176Y-34718191D01*
X49164000Y-34694250D01*
X49164000Y-34205750D01*
X49165176Y-34181809D01*
X49168693Y-34158099D01*
X49174517Y-34134848D01*
X49182592Y-34112280D01*
X49192841Y-34090611D01*
X49205164Y-34070052D01*
X49219442Y-34050799D01*
X49235539Y-34033039D01*
X49253299Y-34016942D01*
X49272552Y-34002664D01*
X49293111Y-33990341D01*
X49314780Y-33980092D01*
X49337348Y-33972017D01*
X49360599Y-33966193D01*
X49384309Y-33962676D01*
X49408250Y-33961500D01*
X49971750Y-33961500D01*
X49995691Y-33962676D01*
X49995691Y-33962676D01*
G37*
D16*
X49690000Y-34450000D03*
D15*
G36*
X49995691Y-35537676D02*
G01*
X50019401Y-35541193D01*
X50042652Y-35547017D01*
X50065220Y-35555092D01*
X50086889Y-35565341D01*
X50107448Y-35577664D01*
X50126701Y-35591942D01*
X50144461Y-35608039D01*
X50160558Y-35625799D01*
X50174836Y-35645052D01*
X50187159Y-35665611D01*
X50197408Y-35687280D01*
X50205483Y-35709848D01*
X50211307Y-35733099D01*
X50214824Y-35756809D01*
X50216000Y-35780750D01*
X50216000Y-36269250D01*
X50214824Y-36293191D01*
X50211307Y-36316901D01*
X50205483Y-36340152D01*
X50197408Y-36362720D01*
X50187159Y-36384389D01*
X50174836Y-36404948D01*
X50160558Y-36424201D01*
X50144461Y-36441961D01*
X50126701Y-36458058D01*
X50107448Y-36472336D01*
X50086889Y-36484659D01*
X50065220Y-36494908D01*
X50042652Y-36502983D01*
X50019401Y-36508807D01*
X49995691Y-36512324D01*
X49971750Y-36513500D01*
X49408250Y-36513500D01*
X49384309Y-36512324D01*
X49360599Y-36508807D01*
X49337348Y-36502983D01*
X49314780Y-36494908D01*
X49293111Y-36484659D01*
X49272552Y-36472336D01*
X49253299Y-36458058D01*
X49235539Y-36441961D01*
X49219442Y-36424201D01*
X49205164Y-36404948D01*
X49192841Y-36384389D01*
X49182592Y-36362720D01*
X49174517Y-36340152D01*
X49168693Y-36316901D01*
X49165176Y-36293191D01*
X49164000Y-36269250D01*
X49164000Y-35780750D01*
X49165176Y-35756809D01*
X49168693Y-35733099D01*
X49174517Y-35709848D01*
X49182592Y-35687280D01*
X49192841Y-35665611D01*
X49205164Y-35645052D01*
X49219442Y-35625799D01*
X49235539Y-35608039D01*
X49253299Y-35591942D01*
X49272552Y-35577664D01*
X49293111Y-35565341D01*
X49314780Y-35555092D01*
X49337348Y-35547017D01*
X49360599Y-35541193D01*
X49384309Y-35537676D01*
X49408250Y-35536500D01*
X49971750Y-35536500D01*
X49995691Y-35537676D01*
X49995691Y-35537676D01*
G37*
D16*
X49690000Y-36025000D03*
D15*
G36*
X61425691Y-33962676D02*
G01*
X61449401Y-33966193D01*
X61472652Y-33972017D01*
X61495220Y-33980092D01*
X61516889Y-33990341D01*
X61537448Y-34002664D01*
X61556701Y-34016942D01*
X61574461Y-34033039D01*
X61590558Y-34050799D01*
X61604836Y-34070052D01*
X61617159Y-34090611D01*
X61627408Y-34112280D01*
X61635483Y-34134848D01*
X61641307Y-34158099D01*
X61644824Y-34181809D01*
X61646000Y-34205750D01*
X61646000Y-34694250D01*
X61644824Y-34718191D01*
X61641307Y-34741901D01*
X61635483Y-34765152D01*
X61627408Y-34787720D01*
X61617159Y-34809389D01*
X61604836Y-34829948D01*
X61590558Y-34849201D01*
X61574461Y-34866961D01*
X61556701Y-34883058D01*
X61537448Y-34897336D01*
X61516889Y-34909659D01*
X61495220Y-34919908D01*
X61472652Y-34927983D01*
X61449401Y-34933807D01*
X61425691Y-34937324D01*
X61401750Y-34938500D01*
X60838250Y-34938500D01*
X60814309Y-34937324D01*
X60790599Y-34933807D01*
X60767348Y-34927983D01*
X60744780Y-34919908D01*
X60723111Y-34909659D01*
X60702552Y-34897336D01*
X60683299Y-34883058D01*
X60665539Y-34866961D01*
X60649442Y-34849201D01*
X60635164Y-34829948D01*
X60622841Y-34809389D01*
X60612592Y-34787720D01*
X60604517Y-34765152D01*
X60598693Y-34741901D01*
X60595176Y-34718191D01*
X60594000Y-34694250D01*
X60594000Y-34205750D01*
X60595176Y-34181809D01*
X60598693Y-34158099D01*
X60604517Y-34134848D01*
X60612592Y-34112280D01*
X60622841Y-34090611D01*
X60635164Y-34070052D01*
X60649442Y-34050799D01*
X60665539Y-34033039D01*
X60683299Y-34016942D01*
X60702552Y-34002664D01*
X60723111Y-33990341D01*
X60744780Y-33980092D01*
X60767348Y-33972017D01*
X60790599Y-33966193D01*
X60814309Y-33962676D01*
X60838250Y-33961500D01*
X61401750Y-33961500D01*
X61425691Y-33962676D01*
X61425691Y-33962676D01*
G37*
D16*
X61120000Y-34450000D03*
D15*
G36*
X61425691Y-35537676D02*
G01*
X61449401Y-35541193D01*
X61472652Y-35547017D01*
X61495220Y-35555092D01*
X61516889Y-35565341D01*
X61537448Y-35577664D01*
X61556701Y-35591942D01*
X61574461Y-35608039D01*
X61590558Y-35625799D01*
X61604836Y-35645052D01*
X61617159Y-35665611D01*
X61627408Y-35687280D01*
X61635483Y-35709848D01*
X61641307Y-35733099D01*
X61644824Y-35756809D01*
X61646000Y-35780750D01*
X61646000Y-36269250D01*
X61644824Y-36293191D01*
X61641307Y-36316901D01*
X61635483Y-36340152D01*
X61627408Y-36362720D01*
X61617159Y-36384389D01*
X61604836Y-36404948D01*
X61590558Y-36424201D01*
X61574461Y-36441961D01*
X61556701Y-36458058D01*
X61537448Y-36472336D01*
X61516889Y-36484659D01*
X61495220Y-36494908D01*
X61472652Y-36502983D01*
X61449401Y-36508807D01*
X61425691Y-36512324D01*
X61401750Y-36513500D01*
X60838250Y-36513500D01*
X60814309Y-36512324D01*
X60790599Y-36508807D01*
X60767348Y-36502983D01*
X60744780Y-36494908D01*
X60723111Y-36484659D01*
X60702552Y-36472336D01*
X60683299Y-36458058D01*
X60665539Y-36441961D01*
X60649442Y-36424201D01*
X60635164Y-36404948D01*
X60622841Y-36384389D01*
X60612592Y-36362720D01*
X60604517Y-36340152D01*
X60598693Y-36316901D01*
X60595176Y-36293191D01*
X60594000Y-36269250D01*
X60594000Y-35780750D01*
X60595176Y-35756809D01*
X60598693Y-35733099D01*
X60604517Y-35709848D01*
X60612592Y-35687280D01*
X60622841Y-35665611D01*
X60635164Y-35645052D01*
X60649442Y-35625799D01*
X60665539Y-35608039D01*
X60683299Y-35591942D01*
X60702552Y-35577664D01*
X60723111Y-35565341D01*
X60744780Y-35555092D01*
X60767348Y-35547017D01*
X60790599Y-35541193D01*
X60814309Y-35537676D01*
X60838250Y-35536500D01*
X61401750Y-35536500D01*
X61425691Y-35537676D01*
X61425691Y-35537676D01*
G37*
D16*
X61120000Y-36025000D03*
D15*
G36*
X72220691Y-33962676D02*
G01*
X72244401Y-33966193D01*
X72267652Y-33972017D01*
X72290220Y-33980092D01*
X72311889Y-33990341D01*
X72332448Y-34002664D01*
X72351701Y-34016942D01*
X72369461Y-34033039D01*
X72385558Y-34050799D01*
X72399836Y-34070052D01*
X72412159Y-34090611D01*
X72422408Y-34112280D01*
X72430483Y-34134848D01*
X72436307Y-34158099D01*
X72439824Y-34181809D01*
X72441000Y-34205750D01*
X72441000Y-34694250D01*
X72439824Y-34718191D01*
X72436307Y-34741901D01*
X72430483Y-34765152D01*
X72422408Y-34787720D01*
X72412159Y-34809389D01*
X72399836Y-34829948D01*
X72385558Y-34849201D01*
X72369461Y-34866961D01*
X72351701Y-34883058D01*
X72332448Y-34897336D01*
X72311889Y-34909659D01*
X72290220Y-34919908D01*
X72267652Y-34927983D01*
X72244401Y-34933807D01*
X72220691Y-34937324D01*
X72196750Y-34938500D01*
X71633250Y-34938500D01*
X71609309Y-34937324D01*
X71585599Y-34933807D01*
X71562348Y-34927983D01*
X71539780Y-34919908D01*
X71518111Y-34909659D01*
X71497552Y-34897336D01*
X71478299Y-34883058D01*
X71460539Y-34866961D01*
X71444442Y-34849201D01*
X71430164Y-34829948D01*
X71417841Y-34809389D01*
X71407592Y-34787720D01*
X71399517Y-34765152D01*
X71393693Y-34741901D01*
X71390176Y-34718191D01*
X71389000Y-34694250D01*
X71389000Y-34205750D01*
X71390176Y-34181809D01*
X71393693Y-34158099D01*
X71399517Y-34134848D01*
X71407592Y-34112280D01*
X71417841Y-34090611D01*
X71430164Y-34070052D01*
X71444442Y-34050799D01*
X71460539Y-34033039D01*
X71478299Y-34016942D01*
X71497552Y-34002664D01*
X71518111Y-33990341D01*
X71539780Y-33980092D01*
X71562348Y-33972017D01*
X71585599Y-33966193D01*
X71609309Y-33962676D01*
X71633250Y-33961500D01*
X72196750Y-33961500D01*
X72220691Y-33962676D01*
X72220691Y-33962676D01*
G37*
D16*
X71915000Y-34450000D03*
D15*
G36*
X72220691Y-35537676D02*
G01*
X72244401Y-35541193D01*
X72267652Y-35547017D01*
X72290220Y-35555092D01*
X72311889Y-35565341D01*
X72332448Y-35577664D01*
X72351701Y-35591942D01*
X72369461Y-35608039D01*
X72385558Y-35625799D01*
X72399836Y-35645052D01*
X72412159Y-35665611D01*
X72422408Y-35687280D01*
X72430483Y-35709848D01*
X72436307Y-35733099D01*
X72439824Y-35756809D01*
X72441000Y-35780750D01*
X72441000Y-36269250D01*
X72439824Y-36293191D01*
X72436307Y-36316901D01*
X72430483Y-36340152D01*
X72422408Y-36362720D01*
X72412159Y-36384389D01*
X72399836Y-36404948D01*
X72385558Y-36424201D01*
X72369461Y-36441961D01*
X72351701Y-36458058D01*
X72332448Y-36472336D01*
X72311889Y-36484659D01*
X72290220Y-36494908D01*
X72267652Y-36502983D01*
X72244401Y-36508807D01*
X72220691Y-36512324D01*
X72196750Y-36513500D01*
X71633250Y-36513500D01*
X71609309Y-36512324D01*
X71585599Y-36508807D01*
X71562348Y-36502983D01*
X71539780Y-36494908D01*
X71518111Y-36484659D01*
X71497552Y-36472336D01*
X71478299Y-36458058D01*
X71460539Y-36441961D01*
X71444442Y-36424201D01*
X71430164Y-36404948D01*
X71417841Y-36384389D01*
X71407592Y-36362720D01*
X71399517Y-36340152D01*
X71393693Y-36316901D01*
X71390176Y-36293191D01*
X71389000Y-36269250D01*
X71389000Y-35780750D01*
X71390176Y-35756809D01*
X71393693Y-35733099D01*
X71399517Y-35709848D01*
X71407592Y-35687280D01*
X71417841Y-35665611D01*
X71430164Y-35645052D01*
X71444442Y-35625799D01*
X71460539Y-35608039D01*
X71478299Y-35591942D01*
X71497552Y-35577664D01*
X71518111Y-35565341D01*
X71539780Y-35555092D01*
X71562348Y-35547017D01*
X71585599Y-35541193D01*
X71609309Y-35537676D01*
X71633250Y-35536500D01*
X72196750Y-35536500D01*
X72220691Y-35537676D01*
X72220691Y-35537676D01*
G37*
D16*
X71915000Y-36025000D03*
D15*
G36*
X66505691Y-33962676D02*
G01*
X66529401Y-33966193D01*
X66552652Y-33972017D01*
X66575220Y-33980092D01*
X66596889Y-33990341D01*
X66617448Y-34002664D01*
X66636701Y-34016942D01*
X66654461Y-34033039D01*
X66670558Y-34050799D01*
X66684836Y-34070052D01*
X66697159Y-34090611D01*
X66707408Y-34112280D01*
X66715483Y-34134848D01*
X66721307Y-34158099D01*
X66724824Y-34181809D01*
X66726000Y-34205750D01*
X66726000Y-34694250D01*
X66724824Y-34718191D01*
X66721307Y-34741901D01*
X66715483Y-34765152D01*
X66707408Y-34787720D01*
X66697159Y-34809389D01*
X66684836Y-34829948D01*
X66670558Y-34849201D01*
X66654461Y-34866961D01*
X66636701Y-34883058D01*
X66617448Y-34897336D01*
X66596889Y-34909659D01*
X66575220Y-34919908D01*
X66552652Y-34927983D01*
X66529401Y-34933807D01*
X66505691Y-34937324D01*
X66481750Y-34938500D01*
X65918250Y-34938500D01*
X65894309Y-34937324D01*
X65870599Y-34933807D01*
X65847348Y-34927983D01*
X65824780Y-34919908D01*
X65803111Y-34909659D01*
X65782552Y-34897336D01*
X65763299Y-34883058D01*
X65745539Y-34866961D01*
X65729442Y-34849201D01*
X65715164Y-34829948D01*
X65702841Y-34809389D01*
X65692592Y-34787720D01*
X65684517Y-34765152D01*
X65678693Y-34741901D01*
X65675176Y-34718191D01*
X65674000Y-34694250D01*
X65674000Y-34205750D01*
X65675176Y-34181809D01*
X65678693Y-34158099D01*
X65684517Y-34134848D01*
X65692592Y-34112280D01*
X65702841Y-34090611D01*
X65715164Y-34070052D01*
X65729442Y-34050799D01*
X65745539Y-34033039D01*
X65763299Y-34016942D01*
X65782552Y-34002664D01*
X65803111Y-33990341D01*
X65824780Y-33980092D01*
X65847348Y-33972017D01*
X65870599Y-33966193D01*
X65894309Y-33962676D01*
X65918250Y-33961500D01*
X66481750Y-33961500D01*
X66505691Y-33962676D01*
X66505691Y-33962676D01*
G37*
D16*
X66200000Y-34450000D03*
D15*
G36*
X66505691Y-35537676D02*
G01*
X66529401Y-35541193D01*
X66552652Y-35547017D01*
X66575220Y-35555092D01*
X66596889Y-35565341D01*
X66617448Y-35577664D01*
X66636701Y-35591942D01*
X66654461Y-35608039D01*
X66670558Y-35625799D01*
X66684836Y-35645052D01*
X66697159Y-35665611D01*
X66707408Y-35687280D01*
X66715483Y-35709848D01*
X66721307Y-35733099D01*
X66724824Y-35756809D01*
X66726000Y-35780750D01*
X66726000Y-36269250D01*
X66724824Y-36293191D01*
X66721307Y-36316901D01*
X66715483Y-36340152D01*
X66707408Y-36362720D01*
X66697159Y-36384389D01*
X66684836Y-36404948D01*
X66670558Y-36424201D01*
X66654461Y-36441961D01*
X66636701Y-36458058D01*
X66617448Y-36472336D01*
X66596889Y-36484659D01*
X66575220Y-36494908D01*
X66552652Y-36502983D01*
X66529401Y-36508807D01*
X66505691Y-36512324D01*
X66481750Y-36513500D01*
X65918250Y-36513500D01*
X65894309Y-36512324D01*
X65870599Y-36508807D01*
X65847348Y-36502983D01*
X65824780Y-36494908D01*
X65803111Y-36484659D01*
X65782552Y-36472336D01*
X65763299Y-36458058D01*
X65745539Y-36441961D01*
X65729442Y-36424201D01*
X65715164Y-36404948D01*
X65702841Y-36384389D01*
X65692592Y-36362720D01*
X65684517Y-36340152D01*
X65678693Y-36316901D01*
X65675176Y-36293191D01*
X65674000Y-36269250D01*
X65674000Y-35780750D01*
X65675176Y-35756809D01*
X65678693Y-35733099D01*
X65684517Y-35709848D01*
X65692592Y-35687280D01*
X65702841Y-35665611D01*
X65715164Y-35645052D01*
X65729442Y-35625799D01*
X65745539Y-35608039D01*
X65763299Y-35591942D01*
X65782552Y-35577664D01*
X65803111Y-35565341D01*
X65824780Y-35555092D01*
X65847348Y-35547017D01*
X65870599Y-35541193D01*
X65894309Y-35537676D01*
X65918250Y-35536500D01*
X66481750Y-35536500D01*
X66505691Y-35537676D01*
X66505691Y-35537676D01*
G37*
D16*
X66200000Y-36025000D03*
D15*
G36*
X77935691Y-33962676D02*
G01*
X77959401Y-33966193D01*
X77982652Y-33972017D01*
X78005220Y-33980092D01*
X78026889Y-33990341D01*
X78047448Y-34002664D01*
X78066701Y-34016942D01*
X78084461Y-34033039D01*
X78100558Y-34050799D01*
X78114836Y-34070052D01*
X78127159Y-34090611D01*
X78137408Y-34112280D01*
X78145483Y-34134848D01*
X78151307Y-34158099D01*
X78154824Y-34181809D01*
X78156000Y-34205750D01*
X78156000Y-34694250D01*
X78154824Y-34718191D01*
X78151307Y-34741901D01*
X78145483Y-34765152D01*
X78137408Y-34787720D01*
X78127159Y-34809389D01*
X78114836Y-34829948D01*
X78100558Y-34849201D01*
X78084461Y-34866961D01*
X78066701Y-34883058D01*
X78047448Y-34897336D01*
X78026889Y-34909659D01*
X78005220Y-34919908D01*
X77982652Y-34927983D01*
X77959401Y-34933807D01*
X77935691Y-34937324D01*
X77911750Y-34938500D01*
X77348250Y-34938500D01*
X77324309Y-34937324D01*
X77300599Y-34933807D01*
X77277348Y-34927983D01*
X77254780Y-34919908D01*
X77233111Y-34909659D01*
X77212552Y-34897336D01*
X77193299Y-34883058D01*
X77175539Y-34866961D01*
X77159442Y-34849201D01*
X77145164Y-34829948D01*
X77132841Y-34809389D01*
X77122592Y-34787720D01*
X77114517Y-34765152D01*
X77108693Y-34741901D01*
X77105176Y-34718191D01*
X77104000Y-34694250D01*
X77104000Y-34205750D01*
X77105176Y-34181809D01*
X77108693Y-34158099D01*
X77114517Y-34134848D01*
X77122592Y-34112280D01*
X77132841Y-34090611D01*
X77145164Y-34070052D01*
X77159442Y-34050799D01*
X77175539Y-34033039D01*
X77193299Y-34016942D01*
X77212552Y-34002664D01*
X77233111Y-33990341D01*
X77254780Y-33980092D01*
X77277348Y-33972017D01*
X77300599Y-33966193D01*
X77324309Y-33962676D01*
X77348250Y-33961500D01*
X77911750Y-33961500D01*
X77935691Y-33962676D01*
X77935691Y-33962676D01*
G37*
D16*
X77630000Y-34450000D03*
D15*
G36*
X77935691Y-35537676D02*
G01*
X77959401Y-35541193D01*
X77982652Y-35547017D01*
X78005220Y-35555092D01*
X78026889Y-35565341D01*
X78047448Y-35577664D01*
X78066701Y-35591942D01*
X78084461Y-35608039D01*
X78100558Y-35625799D01*
X78114836Y-35645052D01*
X78127159Y-35665611D01*
X78137408Y-35687280D01*
X78145483Y-35709848D01*
X78151307Y-35733099D01*
X78154824Y-35756809D01*
X78156000Y-35780750D01*
X78156000Y-36269250D01*
X78154824Y-36293191D01*
X78151307Y-36316901D01*
X78145483Y-36340152D01*
X78137408Y-36362720D01*
X78127159Y-36384389D01*
X78114836Y-36404948D01*
X78100558Y-36424201D01*
X78084461Y-36441961D01*
X78066701Y-36458058D01*
X78047448Y-36472336D01*
X78026889Y-36484659D01*
X78005220Y-36494908D01*
X77982652Y-36502983D01*
X77959401Y-36508807D01*
X77935691Y-36512324D01*
X77911750Y-36513500D01*
X77348250Y-36513500D01*
X77324309Y-36512324D01*
X77300599Y-36508807D01*
X77277348Y-36502983D01*
X77254780Y-36494908D01*
X77233111Y-36484659D01*
X77212552Y-36472336D01*
X77193299Y-36458058D01*
X77175539Y-36441961D01*
X77159442Y-36424201D01*
X77145164Y-36404948D01*
X77132841Y-36384389D01*
X77122592Y-36362720D01*
X77114517Y-36340152D01*
X77108693Y-36316901D01*
X77105176Y-36293191D01*
X77104000Y-36269250D01*
X77104000Y-35780750D01*
X77105176Y-35756809D01*
X77108693Y-35733099D01*
X77114517Y-35709848D01*
X77122592Y-35687280D01*
X77132841Y-35665611D01*
X77145164Y-35645052D01*
X77159442Y-35625799D01*
X77175539Y-35608039D01*
X77193299Y-35591942D01*
X77212552Y-35577664D01*
X77233111Y-35565341D01*
X77254780Y-35555092D01*
X77277348Y-35547017D01*
X77300599Y-35541193D01*
X77324309Y-35537676D01*
X77348250Y-35536500D01*
X77911750Y-35536500D01*
X77935691Y-35537676D01*
X77935691Y-35537676D01*
G37*
D16*
X77630000Y-36025000D03*
D15*
G36*
X88730691Y-33962676D02*
G01*
X88754401Y-33966193D01*
X88777652Y-33972017D01*
X88800220Y-33980092D01*
X88821889Y-33990341D01*
X88842448Y-34002664D01*
X88861701Y-34016942D01*
X88879461Y-34033039D01*
X88895558Y-34050799D01*
X88909836Y-34070052D01*
X88922159Y-34090611D01*
X88932408Y-34112280D01*
X88940483Y-34134848D01*
X88946307Y-34158099D01*
X88949824Y-34181809D01*
X88951000Y-34205750D01*
X88951000Y-34694250D01*
X88949824Y-34718191D01*
X88946307Y-34741901D01*
X88940483Y-34765152D01*
X88932408Y-34787720D01*
X88922159Y-34809389D01*
X88909836Y-34829948D01*
X88895558Y-34849201D01*
X88879461Y-34866961D01*
X88861701Y-34883058D01*
X88842448Y-34897336D01*
X88821889Y-34909659D01*
X88800220Y-34919908D01*
X88777652Y-34927983D01*
X88754401Y-34933807D01*
X88730691Y-34937324D01*
X88706750Y-34938500D01*
X88143250Y-34938500D01*
X88119309Y-34937324D01*
X88095599Y-34933807D01*
X88072348Y-34927983D01*
X88049780Y-34919908D01*
X88028111Y-34909659D01*
X88007552Y-34897336D01*
X87988299Y-34883058D01*
X87970539Y-34866961D01*
X87954442Y-34849201D01*
X87940164Y-34829948D01*
X87927841Y-34809389D01*
X87917592Y-34787720D01*
X87909517Y-34765152D01*
X87903693Y-34741901D01*
X87900176Y-34718191D01*
X87899000Y-34694250D01*
X87899000Y-34205750D01*
X87900176Y-34181809D01*
X87903693Y-34158099D01*
X87909517Y-34134848D01*
X87917592Y-34112280D01*
X87927841Y-34090611D01*
X87940164Y-34070052D01*
X87954442Y-34050799D01*
X87970539Y-34033039D01*
X87988299Y-34016942D01*
X88007552Y-34002664D01*
X88028111Y-33990341D01*
X88049780Y-33980092D01*
X88072348Y-33972017D01*
X88095599Y-33966193D01*
X88119309Y-33962676D01*
X88143250Y-33961500D01*
X88706750Y-33961500D01*
X88730691Y-33962676D01*
X88730691Y-33962676D01*
G37*
D16*
X88425000Y-34450000D03*
D15*
G36*
X88730691Y-35537676D02*
G01*
X88754401Y-35541193D01*
X88777652Y-35547017D01*
X88800220Y-35555092D01*
X88821889Y-35565341D01*
X88842448Y-35577664D01*
X88861701Y-35591942D01*
X88879461Y-35608039D01*
X88895558Y-35625799D01*
X88909836Y-35645052D01*
X88922159Y-35665611D01*
X88932408Y-35687280D01*
X88940483Y-35709848D01*
X88946307Y-35733099D01*
X88949824Y-35756809D01*
X88951000Y-35780750D01*
X88951000Y-36269250D01*
X88949824Y-36293191D01*
X88946307Y-36316901D01*
X88940483Y-36340152D01*
X88932408Y-36362720D01*
X88922159Y-36384389D01*
X88909836Y-36404948D01*
X88895558Y-36424201D01*
X88879461Y-36441961D01*
X88861701Y-36458058D01*
X88842448Y-36472336D01*
X88821889Y-36484659D01*
X88800220Y-36494908D01*
X88777652Y-36502983D01*
X88754401Y-36508807D01*
X88730691Y-36512324D01*
X88706750Y-36513500D01*
X88143250Y-36513500D01*
X88119309Y-36512324D01*
X88095599Y-36508807D01*
X88072348Y-36502983D01*
X88049780Y-36494908D01*
X88028111Y-36484659D01*
X88007552Y-36472336D01*
X87988299Y-36458058D01*
X87970539Y-36441961D01*
X87954442Y-36424201D01*
X87940164Y-36404948D01*
X87927841Y-36384389D01*
X87917592Y-36362720D01*
X87909517Y-36340152D01*
X87903693Y-36316901D01*
X87900176Y-36293191D01*
X87899000Y-36269250D01*
X87899000Y-35780750D01*
X87900176Y-35756809D01*
X87903693Y-35733099D01*
X87909517Y-35709848D01*
X87917592Y-35687280D01*
X87927841Y-35665611D01*
X87940164Y-35645052D01*
X87954442Y-35625799D01*
X87970539Y-35608039D01*
X87988299Y-35591942D01*
X88007552Y-35577664D01*
X88028111Y-35565341D01*
X88049780Y-35555092D01*
X88072348Y-35547017D01*
X88095599Y-35541193D01*
X88119309Y-35537676D01*
X88143250Y-35536500D01*
X88706750Y-35536500D01*
X88730691Y-35537676D01*
X88730691Y-35537676D01*
G37*
D16*
X88425000Y-36025000D03*
D15*
G36*
X83015691Y-33962676D02*
G01*
X83039401Y-33966193D01*
X83062652Y-33972017D01*
X83085220Y-33980092D01*
X83106889Y-33990341D01*
X83127448Y-34002664D01*
X83146701Y-34016942D01*
X83164461Y-34033039D01*
X83180558Y-34050799D01*
X83194836Y-34070052D01*
X83207159Y-34090611D01*
X83217408Y-34112280D01*
X83225483Y-34134848D01*
X83231307Y-34158099D01*
X83234824Y-34181809D01*
X83236000Y-34205750D01*
X83236000Y-34694250D01*
X83234824Y-34718191D01*
X83231307Y-34741901D01*
X83225483Y-34765152D01*
X83217408Y-34787720D01*
X83207159Y-34809389D01*
X83194836Y-34829948D01*
X83180558Y-34849201D01*
X83164461Y-34866961D01*
X83146701Y-34883058D01*
X83127448Y-34897336D01*
X83106889Y-34909659D01*
X83085220Y-34919908D01*
X83062652Y-34927983D01*
X83039401Y-34933807D01*
X83015691Y-34937324D01*
X82991750Y-34938500D01*
X82428250Y-34938500D01*
X82404309Y-34937324D01*
X82380599Y-34933807D01*
X82357348Y-34927983D01*
X82334780Y-34919908D01*
X82313111Y-34909659D01*
X82292552Y-34897336D01*
X82273299Y-34883058D01*
X82255539Y-34866961D01*
X82239442Y-34849201D01*
X82225164Y-34829948D01*
X82212841Y-34809389D01*
X82202592Y-34787720D01*
X82194517Y-34765152D01*
X82188693Y-34741901D01*
X82185176Y-34718191D01*
X82184000Y-34694250D01*
X82184000Y-34205750D01*
X82185176Y-34181809D01*
X82188693Y-34158099D01*
X82194517Y-34134848D01*
X82202592Y-34112280D01*
X82212841Y-34090611D01*
X82225164Y-34070052D01*
X82239442Y-34050799D01*
X82255539Y-34033039D01*
X82273299Y-34016942D01*
X82292552Y-34002664D01*
X82313111Y-33990341D01*
X82334780Y-33980092D01*
X82357348Y-33972017D01*
X82380599Y-33966193D01*
X82404309Y-33962676D01*
X82428250Y-33961500D01*
X82991750Y-33961500D01*
X83015691Y-33962676D01*
X83015691Y-33962676D01*
G37*
D16*
X82710000Y-34450000D03*
D15*
G36*
X83015691Y-35537676D02*
G01*
X83039401Y-35541193D01*
X83062652Y-35547017D01*
X83085220Y-35555092D01*
X83106889Y-35565341D01*
X83127448Y-35577664D01*
X83146701Y-35591942D01*
X83164461Y-35608039D01*
X83180558Y-35625799D01*
X83194836Y-35645052D01*
X83207159Y-35665611D01*
X83217408Y-35687280D01*
X83225483Y-35709848D01*
X83231307Y-35733099D01*
X83234824Y-35756809D01*
X83236000Y-35780750D01*
X83236000Y-36269250D01*
X83234824Y-36293191D01*
X83231307Y-36316901D01*
X83225483Y-36340152D01*
X83217408Y-36362720D01*
X83207159Y-36384389D01*
X83194836Y-36404948D01*
X83180558Y-36424201D01*
X83164461Y-36441961D01*
X83146701Y-36458058D01*
X83127448Y-36472336D01*
X83106889Y-36484659D01*
X83085220Y-36494908D01*
X83062652Y-36502983D01*
X83039401Y-36508807D01*
X83015691Y-36512324D01*
X82991750Y-36513500D01*
X82428250Y-36513500D01*
X82404309Y-36512324D01*
X82380599Y-36508807D01*
X82357348Y-36502983D01*
X82334780Y-36494908D01*
X82313111Y-36484659D01*
X82292552Y-36472336D01*
X82273299Y-36458058D01*
X82255539Y-36441961D01*
X82239442Y-36424201D01*
X82225164Y-36404948D01*
X82212841Y-36384389D01*
X82202592Y-36362720D01*
X82194517Y-36340152D01*
X82188693Y-36316901D01*
X82185176Y-36293191D01*
X82184000Y-36269250D01*
X82184000Y-35780750D01*
X82185176Y-35756809D01*
X82188693Y-35733099D01*
X82194517Y-35709848D01*
X82202592Y-35687280D01*
X82212841Y-35665611D01*
X82225164Y-35645052D01*
X82239442Y-35625799D01*
X82255539Y-35608039D01*
X82273299Y-35591942D01*
X82292552Y-35577664D01*
X82313111Y-35565341D01*
X82334780Y-35555092D01*
X82357348Y-35547017D01*
X82380599Y-35541193D01*
X82404309Y-35537676D01*
X82428250Y-35536500D01*
X82991750Y-35536500D01*
X83015691Y-35537676D01*
X83015691Y-35537676D01*
G37*
D16*
X82710000Y-36025000D03*
D17*
X88545000Y-23655000D03*
X91045000Y-23655000D03*
X93545000Y-23655000D03*
D15*
G36*
X96706975Y-22630276D02*
G01*
X96732699Y-22634092D01*
X96757925Y-22640411D01*
X96782411Y-22649172D01*
X96805920Y-22660291D01*
X96828226Y-22673661D01*
X96849114Y-22689152D01*
X96868383Y-22706617D01*
X96885848Y-22725886D01*
X96901339Y-22746774D01*
X96914709Y-22769080D01*
X96925828Y-22792589D01*
X96934589Y-22817075D01*
X96940908Y-22842301D01*
X96944724Y-22868025D01*
X96946000Y-22894000D01*
X96946000Y-24416000D01*
X96944724Y-24441975D01*
X96940908Y-24467699D01*
X96934589Y-24492925D01*
X96925828Y-24517411D01*
X96914709Y-24540920D01*
X96901339Y-24563226D01*
X96885848Y-24584114D01*
X96868383Y-24603383D01*
X96849114Y-24620848D01*
X96828226Y-24636339D01*
X96805920Y-24649709D01*
X96782411Y-24660828D01*
X96757925Y-24669589D01*
X96732699Y-24675908D01*
X96706975Y-24679724D01*
X96681000Y-24681000D01*
X95409000Y-24681000D01*
X95383025Y-24679724D01*
X95357301Y-24675908D01*
X95332075Y-24669589D01*
X95307589Y-24660828D01*
X95284080Y-24649709D01*
X95261774Y-24636339D01*
X95240886Y-24620848D01*
X95221617Y-24603383D01*
X95204152Y-24584114D01*
X95188661Y-24563226D01*
X95175291Y-24540920D01*
X95164172Y-24517411D01*
X95155411Y-24492925D01*
X95149092Y-24467699D01*
X95145276Y-24441975D01*
X95144000Y-24416000D01*
X95144000Y-22894000D01*
X95145276Y-22868025D01*
X95149092Y-22842301D01*
X95155411Y-22817075D01*
X95164172Y-22792589D01*
X95175291Y-22769080D01*
X95188661Y-22746774D01*
X95204152Y-22725886D01*
X95221617Y-22706617D01*
X95240886Y-22689152D01*
X95261774Y-22673661D01*
X95284080Y-22660291D01*
X95307589Y-22649172D01*
X95332075Y-22640411D01*
X95357301Y-22634092D01*
X95383025Y-22630276D01*
X95409000Y-22629000D01*
X96681000Y-22629000D01*
X96706975Y-22630276D01*
X96706975Y-22630276D01*
G37*
D18*
X96045000Y-23655000D03*
D19*
X68105000Y-13495000D03*
D20*
X35085000Y-28735000D03*
X65565000Y-13495000D03*
X37625000Y-28735000D03*
X63025000Y-13495000D03*
X40165000Y-28735000D03*
X60485000Y-13495000D03*
X42705000Y-28735000D03*
X57945000Y-13495000D03*
X45245000Y-28735000D03*
X55405000Y-13495000D03*
X47785000Y-28735000D03*
X52865000Y-13495000D03*
X50325000Y-28735000D03*
X50325000Y-13495000D03*
X52865000Y-28735000D03*
X47785000Y-13495000D03*
X55405000Y-28735000D03*
X45245000Y-13495000D03*
X57945000Y-28735000D03*
X42705000Y-13495000D03*
X60485000Y-28735000D03*
X40165000Y-13495000D03*
X63025000Y-28735000D03*
X37625000Y-13495000D03*
X65565000Y-28735000D03*
X35085000Y-13495000D03*
X68105000Y-28735000D03*
X32545000Y-13495000D03*
X32545000Y-28735000D03*
D21*
X96680000Y-40800000D03*
D22*
X94140000Y-40800000D03*
X96680000Y-43340000D03*
X94140000Y-43340000D03*
X96680000Y-45880000D03*
X94140000Y-45880000D03*
X96680000Y-48420000D03*
X94140000Y-48420000D03*
X96680000Y-50960000D03*
X94140000Y-50960000D03*
X96680000Y-53500000D03*
X94140000Y-53500000D03*
X96680000Y-56040000D03*
X94140000Y-56040000D03*
X96680000Y-58580000D03*
X94140000Y-58580000D03*
X96680000Y-61120000D03*
X94140000Y-61120000D03*
X96680000Y-63660000D03*
X94140000Y-63660000D03*
X96680000Y-66200000D03*
X94140000Y-66200000D03*
X96680000Y-68740000D03*
X94140000Y-68740000D03*
X96680000Y-71280000D03*
X94140000Y-71280000D03*
X96680000Y-73820000D03*
X94140000Y-73820000D03*
X96680000Y-76360000D03*
X94140000Y-76360000D03*
X96680000Y-78900000D03*
X94140000Y-78900000D03*
X96680000Y-81440000D03*
X94140000Y-81440000D03*
X96680000Y-83980000D03*
X94140000Y-83980000D03*
X96680000Y-86520000D03*
X94140000Y-86520000D03*
X96680000Y-89060000D03*
X94140000Y-89060000D03*
X96680000Y-91600000D03*
X94140000Y-91600000D03*
X96680000Y-94140000D03*
X94140000Y-94140000D03*
X96680000Y-96680000D03*
X94140000Y-96680000D03*
X2700000Y-96680000D03*
X5240000Y-96680000D03*
X2700000Y-94140000D03*
X5240000Y-94140000D03*
X2700000Y-91600000D03*
X5240000Y-91600000D03*
X2700000Y-89060000D03*
X5240000Y-89060000D03*
X2700000Y-86520000D03*
X5240000Y-86520000D03*
X2700000Y-83980000D03*
X5240000Y-83980000D03*
X2700000Y-81440000D03*
X5240000Y-81440000D03*
X2700000Y-78900000D03*
X5240000Y-78900000D03*
X2700000Y-76360000D03*
X5240000Y-76360000D03*
X2700000Y-73820000D03*
X5240000Y-73820000D03*
X2700000Y-71280000D03*
X5240000Y-71280000D03*
X2700000Y-68740000D03*
X5240000Y-68740000D03*
X2700000Y-66200000D03*
X5240000Y-66200000D03*
X2700000Y-63660000D03*
X5240000Y-63660000D03*
X2700000Y-61120000D03*
X5240000Y-61120000D03*
X2700000Y-58580000D03*
X5240000Y-58580000D03*
X2700000Y-56040000D03*
X5240000Y-56040000D03*
X2700000Y-53500000D03*
X5240000Y-53500000D03*
X2700000Y-50960000D03*
X5240000Y-50960000D03*
X2700000Y-48420000D03*
X5240000Y-48420000D03*
X2700000Y-45880000D03*
X5240000Y-45880000D03*
X2700000Y-43340000D03*
X5240000Y-43340000D03*
X2700000Y-40800000D03*
D21*
X5240000Y-40800000D03*
D23*
X91600000Y-30670000D03*
D15*
G36*
X90799980Y-30160050D02*
G01*
X90802882Y-30150483D01*
X90807595Y-30141666D01*
X90813938Y-30133938D01*
X90821666Y-30127595D01*
X90830483Y-30122882D01*
X90840050Y-30119980D01*
X90850000Y-30119000D01*
X92350000Y-30119000D01*
X92359950Y-30119980D01*
X92369517Y-30122882D01*
X92378334Y-30127595D01*
X92386062Y-30133938D01*
X92392405Y-30141666D01*
X92397118Y-30150483D01*
X92400020Y-30160050D01*
X92401000Y-30170000D01*
X92401000Y-30670000D01*
X92400398Y-30676112D01*
X92400398Y-30694534D01*
X92400152Y-30699533D01*
X92395342Y-30748364D01*
X92394608Y-30753314D01*
X92385036Y-30801439D01*
X92383820Y-30806295D01*
X92369576Y-30853250D01*
X92367890Y-30857961D01*
X92349113Y-30903294D01*
X92346973Y-30907820D01*
X92323842Y-30951093D01*
X92321269Y-30955384D01*
X92294009Y-30996183D01*
X92291027Y-31000204D01*
X92259899Y-31038133D01*
X92256538Y-31041841D01*
X92221841Y-31076538D01*
X92218133Y-31079899D01*
X92180204Y-31111027D01*
X92176183Y-31114009D01*
X92135384Y-31141269D01*
X92131093Y-31143842D01*
X92087820Y-31166973D01*
X92083294Y-31169113D01*
X92037961Y-31187890D01*
X92033250Y-31189576D01*
X91986295Y-31203820D01*
X91981439Y-31205036D01*
X91933314Y-31214608D01*
X91928364Y-31215342D01*
X91879533Y-31220152D01*
X91874534Y-31220398D01*
X91856112Y-31220398D01*
X91850000Y-31221000D01*
X91350000Y-31221000D01*
X91343888Y-31220398D01*
X91325466Y-31220398D01*
X91320467Y-31220152D01*
X91271636Y-31215342D01*
X91266686Y-31214608D01*
X91218561Y-31205036D01*
X91213705Y-31203820D01*
X91166750Y-31189576D01*
X91162039Y-31187890D01*
X91116706Y-31169113D01*
X91112180Y-31166973D01*
X91068907Y-31143842D01*
X91064616Y-31141269D01*
X91023817Y-31114009D01*
X91019796Y-31111027D01*
X90981867Y-31079899D01*
X90978159Y-31076538D01*
X90943462Y-31041841D01*
X90940101Y-31038133D01*
X90908973Y-31000204D01*
X90905991Y-30996183D01*
X90878731Y-30955384D01*
X90876158Y-30951093D01*
X90853027Y-30907820D01*
X90850887Y-30903294D01*
X90832110Y-30857961D01*
X90830424Y-30853250D01*
X90816180Y-30806295D01*
X90814964Y-30801439D01*
X90805392Y-30753314D01*
X90804658Y-30748364D01*
X90799848Y-30699533D01*
X90799602Y-30694534D01*
X90799602Y-30676112D01*
X90799000Y-30670000D01*
X90799000Y-30170000D01*
X90799980Y-30160050D01*
X90799980Y-30160050D01*
G37*
D23*
X91600000Y-29370000D03*
D15*
G36*
X90799602Y-29363888D02*
G01*
X90799602Y-29345466D01*
X90799848Y-29340467D01*
X90804658Y-29291636D01*
X90805392Y-29286686D01*
X90814964Y-29238561D01*
X90816180Y-29233705D01*
X90830424Y-29186750D01*
X90832110Y-29182039D01*
X90850887Y-29136706D01*
X90853027Y-29132180D01*
X90876158Y-29088907D01*
X90878731Y-29084616D01*
X90905991Y-29043817D01*
X90908973Y-29039796D01*
X90940101Y-29001867D01*
X90943462Y-28998159D01*
X90978159Y-28963462D01*
X90981867Y-28960101D01*
X91019796Y-28928973D01*
X91023817Y-28925991D01*
X91064616Y-28898731D01*
X91068907Y-28896158D01*
X91112180Y-28873027D01*
X91116706Y-28870887D01*
X91162039Y-28852110D01*
X91166750Y-28850424D01*
X91213705Y-28836180D01*
X91218561Y-28834964D01*
X91266686Y-28825392D01*
X91271636Y-28824658D01*
X91320467Y-28819848D01*
X91325466Y-28819602D01*
X91343888Y-28819602D01*
X91350000Y-28819000D01*
X91850000Y-28819000D01*
X91856112Y-28819602D01*
X91874534Y-28819602D01*
X91879533Y-28819848D01*
X91928364Y-28824658D01*
X91933314Y-28825392D01*
X91981439Y-28834964D01*
X91986295Y-28836180D01*
X92033250Y-28850424D01*
X92037961Y-28852110D01*
X92083294Y-28870887D01*
X92087820Y-28873027D01*
X92131093Y-28896158D01*
X92135384Y-28898731D01*
X92176183Y-28925991D01*
X92180204Y-28928973D01*
X92218133Y-28960101D01*
X92221841Y-28963462D01*
X92256538Y-28998159D01*
X92259899Y-29001867D01*
X92291027Y-29039796D01*
X92294009Y-29043817D01*
X92321269Y-29084616D01*
X92323842Y-29088907D01*
X92346973Y-29132180D01*
X92349113Y-29136706D01*
X92367890Y-29182039D01*
X92369576Y-29186750D01*
X92383820Y-29233705D01*
X92385036Y-29238561D01*
X92394608Y-29286686D01*
X92395342Y-29291636D01*
X92400152Y-29340467D01*
X92400398Y-29345466D01*
X92400398Y-29363888D01*
X92401000Y-29370000D01*
X92401000Y-29870000D01*
X92400020Y-29879950D01*
X92397118Y-29889517D01*
X92392405Y-29898334D01*
X92386062Y-29906062D01*
X92378334Y-29912405D01*
X92369517Y-29917118D01*
X92359950Y-29920020D01*
X92350000Y-29921000D01*
X90850000Y-29921000D01*
X90840050Y-29920020D01*
X90830483Y-29917118D01*
X90821666Y-29912405D01*
X90813938Y-29906062D01*
X90807595Y-29898334D01*
X90802882Y-29889517D01*
X90799980Y-29879950D01*
X90799000Y-29870000D01*
X90799000Y-29370000D01*
X90799602Y-29363888D01*
X90799602Y-29363888D01*
G37*
D23*
X89060000Y-29370000D03*
D15*
G36*
X88259602Y-29363888D02*
G01*
X88259602Y-29345466D01*
X88259848Y-29340467D01*
X88264658Y-29291636D01*
X88265392Y-29286686D01*
X88274964Y-29238561D01*
X88276180Y-29233705D01*
X88290424Y-29186750D01*
X88292110Y-29182039D01*
X88310887Y-29136706D01*
X88313027Y-29132180D01*
X88336158Y-29088907D01*
X88338731Y-29084616D01*
X88365991Y-29043817D01*
X88368973Y-29039796D01*
X88400101Y-29001867D01*
X88403462Y-28998159D01*
X88438159Y-28963462D01*
X88441867Y-28960101D01*
X88479796Y-28928973D01*
X88483817Y-28925991D01*
X88524616Y-28898731D01*
X88528907Y-28896158D01*
X88572180Y-28873027D01*
X88576706Y-28870887D01*
X88622039Y-28852110D01*
X88626750Y-28850424D01*
X88673705Y-28836180D01*
X88678561Y-28834964D01*
X88726686Y-28825392D01*
X88731636Y-28824658D01*
X88780467Y-28819848D01*
X88785466Y-28819602D01*
X88803888Y-28819602D01*
X88810000Y-28819000D01*
X89310000Y-28819000D01*
X89316112Y-28819602D01*
X89334534Y-28819602D01*
X89339533Y-28819848D01*
X89388364Y-28824658D01*
X89393314Y-28825392D01*
X89441439Y-28834964D01*
X89446295Y-28836180D01*
X89493250Y-28850424D01*
X89497961Y-28852110D01*
X89543294Y-28870887D01*
X89547820Y-28873027D01*
X89591093Y-28896158D01*
X89595384Y-28898731D01*
X89636183Y-28925991D01*
X89640204Y-28928973D01*
X89678133Y-28960101D01*
X89681841Y-28963462D01*
X89716538Y-28998159D01*
X89719899Y-29001867D01*
X89751027Y-29039796D01*
X89754009Y-29043817D01*
X89781269Y-29084616D01*
X89783842Y-29088907D01*
X89806973Y-29132180D01*
X89809113Y-29136706D01*
X89827890Y-29182039D01*
X89829576Y-29186750D01*
X89843820Y-29233705D01*
X89845036Y-29238561D01*
X89854608Y-29286686D01*
X89855342Y-29291636D01*
X89860152Y-29340467D01*
X89860398Y-29345466D01*
X89860398Y-29363888D01*
X89861000Y-29370000D01*
X89861000Y-29870000D01*
X89860020Y-29879950D01*
X89857118Y-29889517D01*
X89852405Y-29898334D01*
X89846062Y-29906062D01*
X89838334Y-29912405D01*
X89829517Y-29917118D01*
X89819950Y-29920020D01*
X89810000Y-29921000D01*
X88310000Y-29921000D01*
X88300050Y-29920020D01*
X88290483Y-29917118D01*
X88281666Y-29912405D01*
X88273938Y-29906062D01*
X88267595Y-29898334D01*
X88262882Y-29889517D01*
X88259980Y-29879950D01*
X88259000Y-29870000D01*
X88259000Y-29370000D01*
X88259602Y-29363888D01*
X88259602Y-29363888D01*
G37*
D23*
X89060000Y-30670000D03*
D15*
G36*
X88259980Y-30160050D02*
G01*
X88262882Y-30150483D01*
X88267595Y-30141666D01*
X88273938Y-30133938D01*
X88281666Y-30127595D01*
X88290483Y-30122882D01*
X88300050Y-30119980D01*
X88310000Y-30119000D01*
X89810000Y-30119000D01*
X89819950Y-30119980D01*
X89829517Y-30122882D01*
X89838334Y-30127595D01*
X89846062Y-30133938D01*
X89852405Y-30141666D01*
X89857118Y-30150483D01*
X89860020Y-30160050D01*
X89861000Y-30170000D01*
X89861000Y-30670000D01*
X89860398Y-30676112D01*
X89860398Y-30694534D01*
X89860152Y-30699533D01*
X89855342Y-30748364D01*
X89854608Y-30753314D01*
X89845036Y-30801439D01*
X89843820Y-30806295D01*
X89829576Y-30853250D01*
X89827890Y-30857961D01*
X89809113Y-30903294D01*
X89806973Y-30907820D01*
X89783842Y-30951093D01*
X89781269Y-30955384D01*
X89754009Y-30996183D01*
X89751027Y-31000204D01*
X89719899Y-31038133D01*
X89716538Y-31041841D01*
X89681841Y-31076538D01*
X89678133Y-31079899D01*
X89640204Y-31111027D01*
X89636183Y-31114009D01*
X89595384Y-31141269D01*
X89591093Y-31143842D01*
X89547820Y-31166973D01*
X89543294Y-31169113D01*
X89497961Y-31187890D01*
X89493250Y-31189576D01*
X89446295Y-31203820D01*
X89441439Y-31205036D01*
X89393314Y-31214608D01*
X89388364Y-31215342D01*
X89339533Y-31220152D01*
X89334534Y-31220398D01*
X89316112Y-31220398D01*
X89310000Y-31221000D01*
X88810000Y-31221000D01*
X88803888Y-31220398D01*
X88785466Y-31220398D01*
X88780467Y-31220152D01*
X88731636Y-31215342D01*
X88726686Y-31214608D01*
X88678561Y-31205036D01*
X88673705Y-31203820D01*
X88626750Y-31189576D01*
X88622039Y-31187890D01*
X88576706Y-31169113D01*
X88572180Y-31166973D01*
X88528907Y-31143842D01*
X88524616Y-31141269D01*
X88483817Y-31114009D01*
X88479796Y-31111027D01*
X88441867Y-31079899D01*
X88438159Y-31076538D01*
X88403462Y-31041841D01*
X88400101Y-31038133D01*
X88368973Y-31000204D01*
X88365991Y-30996183D01*
X88338731Y-30955384D01*
X88336158Y-30951093D01*
X88313027Y-30907820D01*
X88310887Y-30903294D01*
X88292110Y-30857961D01*
X88290424Y-30853250D01*
X88276180Y-30806295D01*
X88274964Y-30801439D01*
X88265392Y-30753314D01*
X88264658Y-30748364D01*
X88259848Y-30699533D01*
X88259602Y-30694534D01*
X88259602Y-30676112D01*
X88259000Y-30670000D01*
X88259000Y-30170000D01*
X88259980Y-30160050D01*
X88259980Y-30160050D01*
G37*
D24*
X84580000Y-78505000D03*
D25*
X87830000Y-76405000D03*
X87830000Y-71905000D03*
D26*
X88780000Y-68405000D03*
X79280000Y-68405000D03*
D25*
X76930000Y-64905000D03*
X76930000Y-60405000D03*
D24*
X80180000Y-58305000D03*
X63680000Y-58305000D03*
D25*
X60430000Y-60405000D03*
X60430000Y-64905000D03*
D26*
X62780000Y-68405000D03*
X72280000Y-68405000D03*
D25*
X71330000Y-71905000D03*
X71330000Y-76405000D03*
D24*
X68080000Y-78505000D03*
X51580000Y-78505000D03*
D25*
X54830000Y-76405000D03*
X54830000Y-71905000D03*
D26*
X55780000Y-68405000D03*
X46280000Y-68405000D03*
D25*
X43930000Y-64905000D03*
X43930000Y-60405000D03*
D24*
X47180000Y-58305000D03*
X30680000Y-58305000D03*
D25*
X27430000Y-60405000D03*
X27430000Y-64905000D03*
D26*
X29780000Y-68405000D03*
X39280000Y-68405000D03*
D25*
X38330000Y-71905000D03*
X38330000Y-76405000D03*
D24*
X35080000Y-78505000D03*
X18580000Y-78505000D03*
D25*
X21830000Y-76405000D03*
X21830000Y-71905000D03*
D26*
X22780000Y-68405000D03*
X13280000Y-68405000D03*
D25*
X10930000Y-64905000D03*
X10930000Y-60405000D03*
D24*
X14180000Y-58305000D03*
D27*
X86080000Y-86700000D03*
X78880000Y-86700000D03*
D28*
X89180000Y-97150000D03*
X75780000Y-97150000D03*
X59180000Y-97150000D03*
X72580000Y-97150000D03*
D27*
X62280000Y-86700000D03*
X69480000Y-86700000D03*
X52980000Y-86700000D03*
X45780000Y-86700000D03*
D28*
X56080000Y-97150000D03*
X42680000Y-97150000D03*
D27*
X36480000Y-86700000D03*
X29280000Y-86700000D03*
D28*
X39580000Y-97150000D03*
X26180000Y-97150000D03*
X9680000Y-97150000D03*
X23080000Y-97150000D03*
D27*
X12780000Y-86700000D03*
X19980000Y-86700000D03*
D29*
X76930000Y-52905000D03*
D30*
X82380000Y-52905000D03*
X87830000Y-52905000D03*
D29*
X60430000Y-52905000D03*
D30*
X65880000Y-52905000D03*
X71330000Y-52905000D03*
X54830000Y-52905000D03*
X49380000Y-52905000D03*
D29*
X43930000Y-52905000D03*
D30*
X38330000Y-52905000D03*
X32880000Y-52905000D03*
D29*
X27430000Y-52905000D03*
D30*
X21830000Y-52905000D03*
X16380000Y-52905000D03*
D29*
X10930000Y-52905000D03*
D15*
G36*
X76698779Y-48403266D02*
G01*
X76724309Y-48407053D01*
X76749345Y-48413325D01*
X76773646Y-48422020D01*
X76796977Y-48433055D01*
X76819115Y-48446323D01*
X76839845Y-48461698D01*
X76858969Y-48479031D01*
X76876302Y-48498155D01*
X76891677Y-48518885D01*
X76904945Y-48541023D01*
X76915980Y-48564354D01*
X76924675Y-48588655D01*
X76930947Y-48613691D01*
X76934734Y-48639221D01*
X76936000Y-48665000D01*
X76936000Y-49191000D01*
X76934734Y-49216779D01*
X76930947Y-49242309D01*
X76924675Y-49267345D01*
X76915980Y-49291646D01*
X76904945Y-49314977D01*
X76891677Y-49337115D01*
X76876302Y-49357845D01*
X76858969Y-49376969D01*
X76839845Y-49394302D01*
X76819115Y-49409677D01*
X76796977Y-49422945D01*
X76773646Y-49433980D01*
X76749345Y-49442675D01*
X76724309Y-49448947D01*
X76698779Y-49452734D01*
X76673000Y-49454000D01*
X76047000Y-49454000D01*
X76021221Y-49452734D01*
X75995691Y-49448947D01*
X75970655Y-49442675D01*
X75946354Y-49433980D01*
X75923023Y-49422945D01*
X75900885Y-49409677D01*
X75880155Y-49394302D01*
X75861031Y-49376969D01*
X75843698Y-49357845D01*
X75828323Y-49337115D01*
X75815055Y-49314977D01*
X75804020Y-49291646D01*
X75795325Y-49267345D01*
X75789053Y-49242309D01*
X75785266Y-49216779D01*
X75784000Y-49191000D01*
X75784000Y-48665000D01*
X75785266Y-48639221D01*
X75789053Y-48613691D01*
X75795325Y-48588655D01*
X75804020Y-48564354D01*
X75815055Y-48541023D01*
X75828323Y-48518885D01*
X75843698Y-48498155D01*
X75861031Y-48479031D01*
X75880155Y-48461698D01*
X75900885Y-48446323D01*
X75923023Y-48433055D01*
X75946354Y-48422020D01*
X75970655Y-48413325D01*
X75995691Y-48407053D01*
X76021221Y-48403266D01*
X76047000Y-48402000D01*
X76673000Y-48402000D01*
X76698779Y-48403266D01*
X76698779Y-48403266D01*
G37*
D31*
X76360000Y-48928000D03*
D15*
G36*
X78448779Y-48403266D02*
G01*
X78474309Y-48407053D01*
X78499345Y-48413325D01*
X78523646Y-48422020D01*
X78546977Y-48433055D01*
X78569115Y-48446323D01*
X78589845Y-48461698D01*
X78608969Y-48479031D01*
X78626302Y-48498155D01*
X78641677Y-48518885D01*
X78654945Y-48541023D01*
X78665980Y-48564354D01*
X78674675Y-48588655D01*
X78680947Y-48613691D01*
X78684734Y-48639221D01*
X78686000Y-48665000D01*
X78686000Y-49191000D01*
X78684734Y-49216779D01*
X78680947Y-49242309D01*
X78674675Y-49267345D01*
X78665980Y-49291646D01*
X78654945Y-49314977D01*
X78641677Y-49337115D01*
X78626302Y-49357845D01*
X78608969Y-49376969D01*
X78589845Y-49394302D01*
X78569115Y-49409677D01*
X78546977Y-49422945D01*
X78523646Y-49433980D01*
X78499345Y-49442675D01*
X78474309Y-49448947D01*
X78448779Y-49452734D01*
X78423000Y-49454000D01*
X77797000Y-49454000D01*
X77771221Y-49452734D01*
X77745691Y-49448947D01*
X77720655Y-49442675D01*
X77696354Y-49433980D01*
X77673023Y-49422945D01*
X77650885Y-49409677D01*
X77630155Y-49394302D01*
X77611031Y-49376969D01*
X77593698Y-49357845D01*
X77578323Y-49337115D01*
X77565055Y-49314977D01*
X77554020Y-49291646D01*
X77545325Y-49267345D01*
X77539053Y-49242309D01*
X77535266Y-49216779D01*
X77534000Y-49191000D01*
X77534000Y-48665000D01*
X77535266Y-48639221D01*
X77539053Y-48613691D01*
X77545325Y-48588655D01*
X77554020Y-48564354D01*
X77565055Y-48541023D01*
X77578323Y-48518885D01*
X77593698Y-48498155D01*
X77611031Y-48479031D01*
X77630155Y-48461698D01*
X77650885Y-48446323D01*
X77673023Y-48433055D01*
X77696354Y-48422020D01*
X77720655Y-48413325D01*
X77745691Y-48407053D01*
X77771221Y-48403266D01*
X77797000Y-48402000D01*
X78423000Y-48402000D01*
X78448779Y-48403266D01*
X78448779Y-48403266D01*
G37*
D31*
X78110000Y-48928000D03*
D15*
G36*
X82286779Y-48403266D02*
G01*
X82312309Y-48407053D01*
X82337345Y-48413325D01*
X82361646Y-48422020D01*
X82384977Y-48433055D01*
X82407115Y-48446323D01*
X82427845Y-48461698D01*
X82446969Y-48479031D01*
X82464302Y-48498155D01*
X82479677Y-48518885D01*
X82492945Y-48541023D01*
X82503980Y-48564354D01*
X82512675Y-48588655D01*
X82518947Y-48613691D01*
X82522734Y-48639221D01*
X82524000Y-48665000D01*
X82524000Y-49191000D01*
X82522734Y-49216779D01*
X82518947Y-49242309D01*
X82512675Y-49267345D01*
X82503980Y-49291646D01*
X82492945Y-49314977D01*
X82479677Y-49337115D01*
X82464302Y-49357845D01*
X82446969Y-49376969D01*
X82427845Y-49394302D01*
X82407115Y-49409677D01*
X82384977Y-49422945D01*
X82361646Y-49433980D01*
X82337345Y-49442675D01*
X82312309Y-49448947D01*
X82286779Y-49452734D01*
X82261000Y-49454000D01*
X81635000Y-49454000D01*
X81609221Y-49452734D01*
X81583691Y-49448947D01*
X81558655Y-49442675D01*
X81534354Y-49433980D01*
X81511023Y-49422945D01*
X81488885Y-49409677D01*
X81468155Y-49394302D01*
X81449031Y-49376969D01*
X81431698Y-49357845D01*
X81416323Y-49337115D01*
X81403055Y-49314977D01*
X81392020Y-49291646D01*
X81383325Y-49267345D01*
X81377053Y-49242309D01*
X81373266Y-49216779D01*
X81372000Y-49191000D01*
X81372000Y-48665000D01*
X81373266Y-48639221D01*
X81377053Y-48613691D01*
X81383325Y-48588655D01*
X81392020Y-48564354D01*
X81403055Y-48541023D01*
X81416323Y-48518885D01*
X81431698Y-48498155D01*
X81449031Y-48479031D01*
X81468155Y-48461698D01*
X81488885Y-48446323D01*
X81511023Y-48433055D01*
X81534354Y-48422020D01*
X81558655Y-48413325D01*
X81583691Y-48407053D01*
X81609221Y-48403266D01*
X81635000Y-48402000D01*
X82261000Y-48402000D01*
X82286779Y-48403266D01*
X82286779Y-48403266D01*
G37*
D31*
X81948000Y-48928000D03*
D15*
G36*
X80536779Y-48403266D02*
G01*
X80562309Y-48407053D01*
X80587345Y-48413325D01*
X80611646Y-48422020D01*
X80634977Y-48433055D01*
X80657115Y-48446323D01*
X80677845Y-48461698D01*
X80696969Y-48479031D01*
X80714302Y-48498155D01*
X80729677Y-48518885D01*
X80742945Y-48541023D01*
X80753980Y-48564354D01*
X80762675Y-48588655D01*
X80768947Y-48613691D01*
X80772734Y-48639221D01*
X80774000Y-48665000D01*
X80774000Y-49191000D01*
X80772734Y-49216779D01*
X80768947Y-49242309D01*
X80762675Y-49267345D01*
X80753980Y-49291646D01*
X80742945Y-49314977D01*
X80729677Y-49337115D01*
X80714302Y-49357845D01*
X80696969Y-49376969D01*
X80677845Y-49394302D01*
X80657115Y-49409677D01*
X80634977Y-49422945D01*
X80611646Y-49433980D01*
X80587345Y-49442675D01*
X80562309Y-49448947D01*
X80536779Y-49452734D01*
X80511000Y-49454000D01*
X79885000Y-49454000D01*
X79859221Y-49452734D01*
X79833691Y-49448947D01*
X79808655Y-49442675D01*
X79784354Y-49433980D01*
X79761023Y-49422945D01*
X79738885Y-49409677D01*
X79718155Y-49394302D01*
X79699031Y-49376969D01*
X79681698Y-49357845D01*
X79666323Y-49337115D01*
X79653055Y-49314977D01*
X79642020Y-49291646D01*
X79633325Y-49267345D01*
X79627053Y-49242309D01*
X79623266Y-49216779D01*
X79622000Y-49191000D01*
X79622000Y-48665000D01*
X79623266Y-48639221D01*
X79627053Y-48613691D01*
X79633325Y-48588655D01*
X79642020Y-48564354D01*
X79653055Y-48541023D01*
X79666323Y-48518885D01*
X79681698Y-48498155D01*
X79699031Y-48479031D01*
X79718155Y-48461698D01*
X79738885Y-48446323D01*
X79761023Y-48433055D01*
X79784354Y-48422020D01*
X79808655Y-48413325D01*
X79833691Y-48407053D01*
X79859221Y-48403266D01*
X79885000Y-48402000D01*
X80511000Y-48402000D01*
X80536779Y-48403266D01*
X80536779Y-48403266D01*
G37*
D31*
X80198000Y-48928000D03*
D15*
G36*
X60343779Y-48403266D02*
G01*
X60369309Y-48407053D01*
X60394345Y-48413325D01*
X60418646Y-48422020D01*
X60441977Y-48433055D01*
X60464115Y-48446323D01*
X60484845Y-48461698D01*
X60503969Y-48479031D01*
X60521302Y-48498155D01*
X60536677Y-48518885D01*
X60549945Y-48541023D01*
X60560980Y-48564354D01*
X60569675Y-48588655D01*
X60575947Y-48613691D01*
X60579734Y-48639221D01*
X60581000Y-48665000D01*
X60581000Y-49191000D01*
X60579734Y-49216779D01*
X60575947Y-49242309D01*
X60569675Y-49267345D01*
X60560980Y-49291646D01*
X60549945Y-49314977D01*
X60536677Y-49337115D01*
X60521302Y-49357845D01*
X60503969Y-49376969D01*
X60484845Y-49394302D01*
X60464115Y-49409677D01*
X60441977Y-49422945D01*
X60418646Y-49433980D01*
X60394345Y-49442675D01*
X60369309Y-49448947D01*
X60343779Y-49452734D01*
X60318000Y-49454000D01*
X59692000Y-49454000D01*
X59666221Y-49452734D01*
X59640691Y-49448947D01*
X59615655Y-49442675D01*
X59591354Y-49433980D01*
X59568023Y-49422945D01*
X59545885Y-49409677D01*
X59525155Y-49394302D01*
X59506031Y-49376969D01*
X59488698Y-49357845D01*
X59473323Y-49337115D01*
X59460055Y-49314977D01*
X59449020Y-49291646D01*
X59440325Y-49267345D01*
X59434053Y-49242309D01*
X59430266Y-49216779D01*
X59429000Y-49191000D01*
X59429000Y-48665000D01*
X59430266Y-48639221D01*
X59434053Y-48613691D01*
X59440325Y-48588655D01*
X59449020Y-48564354D01*
X59460055Y-48541023D01*
X59473323Y-48518885D01*
X59488698Y-48498155D01*
X59506031Y-48479031D01*
X59525155Y-48461698D01*
X59545885Y-48446323D01*
X59568023Y-48433055D01*
X59591354Y-48422020D01*
X59615655Y-48413325D01*
X59640691Y-48407053D01*
X59666221Y-48403266D01*
X59692000Y-48402000D01*
X60318000Y-48402000D01*
X60343779Y-48403266D01*
X60343779Y-48403266D01*
G37*
D31*
X60005000Y-48928000D03*
D15*
G36*
X62093779Y-48403266D02*
G01*
X62119309Y-48407053D01*
X62144345Y-48413325D01*
X62168646Y-48422020D01*
X62191977Y-48433055D01*
X62214115Y-48446323D01*
X62234845Y-48461698D01*
X62253969Y-48479031D01*
X62271302Y-48498155D01*
X62286677Y-48518885D01*
X62299945Y-48541023D01*
X62310980Y-48564354D01*
X62319675Y-48588655D01*
X62325947Y-48613691D01*
X62329734Y-48639221D01*
X62331000Y-48665000D01*
X62331000Y-49191000D01*
X62329734Y-49216779D01*
X62325947Y-49242309D01*
X62319675Y-49267345D01*
X62310980Y-49291646D01*
X62299945Y-49314977D01*
X62286677Y-49337115D01*
X62271302Y-49357845D01*
X62253969Y-49376969D01*
X62234845Y-49394302D01*
X62214115Y-49409677D01*
X62191977Y-49422945D01*
X62168646Y-49433980D01*
X62144345Y-49442675D01*
X62119309Y-49448947D01*
X62093779Y-49452734D01*
X62068000Y-49454000D01*
X61442000Y-49454000D01*
X61416221Y-49452734D01*
X61390691Y-49448947D01*
X61365655Y-49442675D01*
X61341354Y-49433980D01*
X61318023Y-49422945D01*
X61295885Y-49409677D01*
X61275155Y-49394302D01*
X61256031Y-49376969D01*
X61238698Y-49357845D01*
X61223323Y-49337115D01*
X61210055Y-49314977D01*
X61199020Y-49291646D01*
X61190325Y-49267345D01*
X61184053Y-49242309D01*
X61180266Y-49216779D01*
X61179000Y-49191000D01*
X61179000Y-48665000D01*
X61180266Y-48639221D01*
X61184053Y-48613691D01*
X61190325Y-48588655D01*
X61199020Y-48564354D01*
X61210055Y-48541023D01*
X61223323Y-48518885D01*
X61238698Y-48498155D01*
X61256031Y-48479031D01*
X61275155Y-48461698D01*
X61295885Y-48446323D01*
X61318023Y-48433055D01*
X61341354Y-48422020D01*
X61365655Y-48413325D01*
X61390691Y-48407053D01*
X61416221Y-48403266D01*
X61442000Y-48402000D01*
X62068000Y-48402000D01*
X62093779Y-48403266D01*
X62093779Y-48403266D01*
G37*
D31*
X61755000Y-48928000D03*
D15*
G36*
X65748779Y-48403266D02*
G01*
X65774309Y-48407053D01*
X65799345Y-48413325D01*
X65823646Y-48422020D01*
X65846977Y-48433055D01*
X65869115Y-48446323D01*
X65889845Y-48461698D01*
X65908969Y-48479031D01*
X65926302Y-48498155D01*
X65941677Y-48518885D01*
X65954945Y-48541023D01*
X65965980Y-48564354D01*
X65974675Y-48588655D01*
X65980947Y-48613691D01*
X65984734Y-48639221D01*
X65986000Y-48665000D01*
X65986000Y-49191000D01*
X65984734Y-49216779D01*
X65980947Y-49242309D01*
X65974675Y-49267345D01*
X65965980Y-49291646D01*
X65954945Y-49314977D01*
X65941677Y-49337115D01*
X65926302Y-49357845D01*
X65908969Y-49376969D01*
X65889845Y-49394302D01*
X65869115Y-49409677D01*
X65846977Y-49422945D01*
X65823646Y-49433980D01*
X65799345Y-49442675D01*
X65774309Y-49448947D01*
X65748779Y-49452734D01*
X65723000Y-49454000D01*
X65097000Y-49454000D01*
X65071221Y-49452734D01*
X65045691Y-49448947D01*
X65020655Y-49442675D01*
X64996354Y-49433980D01*
X64973023Y-49422945D01*
X64950885Y-49409677D01*
X64930155Y-49394302D01*
X64911031Y-49376969D01*
X64893698Y-49357845D01*
X64878323Y-49337115D01*
X64865055Y-49314977D01*
X64854020Y-49291646D01*
X64845325Y-49267345D01*
X64839053Y-49242309D01*
X64835266Y-49216779D01*
X64834000Y-49191000D01*
X64834000Y-48665000D01*
X64835266Y-48639221D01*
X64839053Y-48613691D01*
X64845325Y-48588655D01*
X64854020Y-48564354D01*
X64865055Y-48541023D01*
X64878323Y-48518885D01*
X64893698Y-48498155D01*
X64911031Y-48479031D01*
X64930155Y-48461698D01*
X64950885Y-48446323D01*
X64973023Y-48433055D01*
X64996354Y-48422020D01*
X65020655Y-48413325D01*
X65045691Y-48407053D01*
X65071221Y-48403266D01*
X65097000Y-48402000D01*
X65723000Y-48402000D01*
X65748779Y-48403266D01*
X65748779Y-48403266D01*
G37*
D31*
X65410000Y-48928000D03*
D15*
G36*
X63998779Y-48403266D02*
G01*
X64024309Y-48407053D01*
X64049345Y-48413325D01*
X64073646Y-48422020D01*
X64096977Y-48433055D01*
X64119115Y-48446323D01*
X64139845Y-48461698D01*
X64158969Y-48479031D01*
X64176302Y-48498155D01*
X64191677Y-48518885D01*
X64204945Y-48541023D01*
X64215980Y-48564354D01*
X64224675Y-48588655D01*
X64230947Y-48613691D01*
X64234734Y-48639221D01*
X64236000Y-48665000D01*
X64236000Y-49191000D01*
X64234734Y-49216779D01*
X64230947Y-49242309D01*
X64224675Y-49267345D01*
X64215980Y-49291646D01*
X64204945Y-49314977D01*
X64191677Y-49337115D01*
X64176302Y-49357845D01*
X64158969Y-49376969D01*
X64139845Y-49394302D01*
X64119115Y-49409677D01*
X64096977Y-49422945D01*
X64073646Y-49433980D01*
X64049345Y-49442675D01*
X64024309Y-49448947D01*
X63998779Y-49452734D01*
X63973000Y-49454000D01*
X63347000Y-49454000D01*
X63321221Y-49452734D01*
X63295691Y-49448947D01*
X63270655Y-49442675D01*
X63246354Y-49433980D01*
X63223023Y-49422945D01*
X63200885Y-49409677D01*
X63180155Y-49394302D01*
X63161031Y-49376969D01*
X63143698Y-49357845D01*
X63128323Y-49337115D01*
X63115055Y-49314977D01*
X63104020Y-49291646D01*
X63095325Y-49267345D01*
X63089053Y-49242309D01*
X63085266Y-49216779D01*
X63084000Y-49191000D01*
X63084000Y-48665000D01*
X63085266Y-48639221D01*
X63089053Y-48613691D01*
X63095325Y-48588655D01*
X63104020Y-48564354D01*
X63115055Y-48541023D01*
X63128323Y-48518885D01*
X63143698Y-48498155D01*
X63161031Y-48479031D01*
X63180155Y-48461698D01*
X63200885Y-48446323D01*
X63223023Y-48433055D01*
X63246354Y-48422020D01*
X63270655Y-48413325D01*
X63295691Y-48407053D01*
X63321221Y-48403266D01*
X63347000Y-48402000D01*
X63973000Y-48402000D01*
X63998779Y-48403266D01*
X63998779Y-48403266D01*
G37*
D31*
X63660000Y-48928000D03*
D15*
G36*
X45428779Y-48403266D02*
G01*
X45454309Y-48407053D01*
X45479345Y-48413325D01*
X45503646Y-48422020D01*
X45526977Y-48433055D01*
X45549115Y-48446323D01*
X45569845Y-48461698D01*
X45588969Y-48479031D01*
X45606302Y-48498155D01*
X45621677Y-48518885D01*
X45634945Y-48541023D01*
X45645980Y-48564354D01*
X45654675Y-48588655D01*
X45660947Y-48613691D01*
X45664734Y-48639221D01*
X45666000Y-48665000D01*
X45666000Y-49191000D01*
X45664734Y-49216779D01*
X45660947Y-49242309D01*
X45654675Y-49267345D01*
X45645980Y-49291646D01*
X45634945Y-49314977D01*
X45621677Y-49337115D01*
X45606302Y-49357845D01*
X45588969Y-49376969D01*
X45569845Y-49394302D01*
X45549115Y-49409677D01*
X45526977Y-49422945D01*
X45503646Y-49433980D01*
X45479345Y-49442675D01*
X45454309Y-49448947D01*
X45428779Y-49452734D01*
X45403000Y-49454000D01*
X44777000Y-49454000D01*
X44751221Y-49452734D01*
X44725691Y-49448947D01*
X44700655Y-49442675D01*
X44676354Y-49433980D01*
X44653023Y-49422945D01*
X44630885Y-49409677D01*
X44610155Y-49394302D01*
X44591031Y-49376969D01*
X44573698Y-49357845D01*
X44558323Y-49337115D01*
X44545055Y-49314977D01*
X44534020Y-49291646D01*
X44525325Y-49267345D01*
X44519053Y-49242309D01*
X44515266Y-49216779D01*
X44514000Y-49191000D01*
X44514000Y-48665000D01*
X44515266Y-48639221D01*
X44519053Y-48613691D01*
X44525325Y-48588655D01*
X44534020Y-48564354D01*
X44545055Y-48541023D01*
X44558323Y-48518885D01*
X44573698Y-48498155D01*
X44591031Y-48479031D01*
X44610155Y-48461698D01*
X44630885Y-48446323D01*
X44653023Y-48433055D01*
X44676354Y-48422020D01*
X44700655Y-48413325D01*
X44725691Y-48407053D01*
X44751221Y-48403266D01*
X44777000Y-48402000D01*
X45403000Y-48402000D01*
X45428779Y-48403266D01*
X45428779Y-48403266D01*
G37*
D31*
X45090000Y-48928000D03*
D15*
G36*
X43678779Y-48403266D02*
G01*
X43704309Y-48407053D01*
X43729345Y-48413325D01*
X43753646Y-48422020D01*
X43776977Y-48433055D01*
X43799115Y-48446323D01*
X43819845Y-48461698D01*
X43838969Y-48479031D01*
X43856302Y-48498155D01*
X43871677Y-48518885D01*
X43884945Y-48541023D01*
X43895980Y-48564354D01*
X43904675Y-48588655D01*
X43910947Y-48613691D01*
X43914734Y-48639221D01*
X43916000Y-48665000D01*
X43916000Y-49191000D01*
X43914734Y-49216779D01*
X43910947Y-49242309D01*
X43904675Y-49267345D01*
X43895980Y-49291646D01*
X43884945Y-49314977D01*
X43871677Y-49337115D01*
X43856302Y-49357845D01*
X43838969Y-49376969D01*
X43819845Y-49394302D01*
X43799115Y-49409677D01*
X43776977Y-49422945D01*
X43753646Y-49433980D01*
X43729345Y-49442675D01*
X43704309Y-49448947D01*
X43678779Y-49452734D01*
X43653000Y-49454000D01*
X43027000Y-49454000D01*
X43001221Y-49452734D01*
X42975691Y-49448947D01*
X42950655Y-49442675D01*
X42926354Y-49433980D01*
X42903023Y-49422945D01*
X42880885Y-49409677D01*
X42860155Y-49394302D01*
X42841031Y-49376969D01*
X42823698Y-49357845D01*
X42808323Y-49337115D01*
X42795055Y-49314977D01*
X42784020Y-49291646D01*
X42775325Y-49267345D01*
X42769053Y-49242309D01*
X42765266Y-49216779D01*
X42764000Y-49191000D01*
X42764000Y-48665000D01*
X42765266Y-48639221D01*
X42769053Y-48613691D01*
X42775325Y-48588655D01*
X42784020Y-48564354D01*
X42795055Y-48541023D01*
X42808323Y-48518885D01*
X42823698Y-48498155D01*
X42841031Y-48479031D01*
X42860155Y-48461698D01*
X42880885Y-48446323D01*
X42903023Y-48433055D01*
X42926354Y-48422020D01*
X42950655Y-48413325D01*
X42975691Y-48407053D01*
X43001221Y-48403266D01*
X43027000Y-48402000D01*
X43653000Y-48402000D01*
X43678779Y-48403266D01*
X43678779Y-48403266D01*
G37*
D31*
X43340000Y-48928000D03*
D15*
G36*
X47234779Y-48403266D02*
G01*
X47260309Y-48407053D01*
X47285345Y-48413325D01*
X47309646Y-48422020D01*
X47332977Y-48433055D01*
X47355115Y-48446323D01*
X47375845Y-48461698D01*
X47394969Y-48479031D01*
X47412302Y-48498155D01*
X47427677Y-48518885D01*
X47440945Y-48541023D01*
X47451980Y-48564354D01*
X47460675Y-48588655D01*
X47466947Y-48613691D01*
X47470734Y-48639221D01*
X47472000Y-48665000D01*
X47472000Y-49191000D01*
X47470734Y-49216779D01*
X47466947Y-49242309D01*
X47460675Y-49267345D01*
X47451980Y-49291646D01*
X47440945Y-49314977D01*
X47427677Y-49337115D01*
X47412302Y-49357845D01*
X47394969Y-49376969D01*
X47375845Y-49394302D01*
X47355115Y-49409677D01*
X47332977Y-49422945D01*
X47309646Y-49433980D01*
X47285345Y-49442675D01*
X47260309Y-49448947D01*
X47234779Y-49452734D01*
X47209000Y-49454000D01*
X46583000Y-49454000D01*
X46557221Y-49452734D01*
X46531691Y-49448947D01*
X46506655Y-49442675D01*
X46482354Y-49433980D01*
X46459023Y-49422945D01*
X46436885Y-49409677D01*
X46416155Y-49394302D01*
X46397031Y-49376969D01*
X46379698Y-49357845D01*
X46364323Y-49337115D01*
X46351055Y-49314977D01*
X46340020Y-49291646D01*
X46331325Y-49267345D01*
X46325053Y-49242309D01*
X46321266Y-49216779D01*
X46320000Y-49191000D01*
X46320000Y-48665000D01*
X46321266Y-48639221D01*
X46325053Y-48613691D01*
X46331325Y-48588655D01*
X46340020Y-48564354D01*
X46351055Y-48541023D01*
X46364323Y-48518885D01*
X46379698Y-48498155D01*
X46397031Y-48479031D01*
X46416155Y-48461698D01*
X46436885Y-48446323D01*
X46459023Y-48433055D01*
X46482354Y-48422020D01*
X46506655Y-48413325D01*
X46531691Y-48407053D01*
X46557221Y-48403266D01*
X46583000Y-48402000D01*
X47209000Y-48402000D01*
X47234779Y-48403266D01*
X47234779Y-48403266D01*
G37*
D31*
X46896000Y-48928000D03*
D15*
G36*
X48984779Y-48403266D02*
G01*
X49010309Y-48407053D01*
X49035345Y-48413325D01*
X49059646Y-48422020D01*
X49082977Y-48433055D01*
X49105115Y-48446323D01*
X49125845Y-48461698D01*
X49144969Y-48479031D01*
X49162302Y-48498155D01*
X49177677Y-48518885D01*
X49190945Y-48541023D01*
X49201980Y-48564354D01*
X49210675Y-48588655D01*
X49216947Y-48613691D01*
X49220734Y-48639221D01*
X49222000Y-48665000D01*
X49222000Y-49191000D01*
X49220734Y-49216779D01*
X49216947Y-49242309D01*
X49210675Y-49267345D01*
X49201980Y-49291646D01*
X49190945Y-49314977D01*
X49177677Y-49337115D01*
X49162302Y-49357845D01*
X49144969Y-49376969D01*
X49125845Y-49394302D01*
X49105115Y-49409677D01*
X49082977Y-49422945D01*
X49059646Y-49433980D01*
X49035345Y-49442675D01*
X49010309Y-49448947D01*
X48984779Y-49452734D01*
X48959000Y-49454000D01*
X48333000Y-49454000D01*
X48307221Y-49452734D01*
X48281691Y-49448947D01*
X48256655Y-49442675D01*
X48232354Y-49433980D01*
X48209023Y-49422945D01*
X48186885Y-49409677D01*
X48166155Y-49394302D01*
X48147031Y-49376969D01*
X48129698Y-49357845D01*
X48114323Y-49337115D01*
X48101055Y-49314977D01*
X48090020Y-49291646D01*
X48081325Y-49267345D01*
X48075053Y-49242309D01*
X48071266Y-49216779D01*
X48070000Y-49191000D01*
X48070000Y-48665000D01*
X48071266Y-48639221D01*
X48075053Y-48613691D01*
X48081325Y-48588655D01*
X48090020Y-48564354D01*
X48101055Y-48541023D01*
X48114323Y-48518885D01*
X48129698Y-48498155D01*
X48147031Y-48479031D01*
X48166155Y-48461698D01*
X48186885Y-48446323D01*
X48209023Y-48433055D01*
X48232354Y-48422020D01*
X48256655Y-48413325D01*
X48281691Y-48407053D01*
X48307221Y-48403266D01*
X48333000Y-48402000D01*
X48959000Y-48402000D01*
X48984779Y-48403266D01*
X48984779Y-48403266D01*
G37*
D31*
X48646000Y-48928000D03*
D15*
G36*
X27196779Y-48403266D02*
G01*
X27222309Y-48407053D01*
X27247345Y-48413325D01*
X27271646Y-48422020D01*
X27294977Y-48433055D01*
X27317115Y-48446323D01*
X27337845Y-48461698D01*
X27356969Y-48479031D01*
X27374302Y-48498155D01*
X27389677Y-48518885D01*
X27402945Y-48541023D01*
X27413980Y-48564354D01*
X27422675Y-48588655D01*
X27428947Y-48613691D01*
X27432734Y-48639221D01*
X27434000Y-48665000D01*
X27434000Y-49191000D01*
X27432734Y-49216779D01*
X27428947Y-49242309D01*
X27422675Y-49267345D01*
X27413980Y-49291646D01*
X27402945Y-49314977D01*
X27389677Y-49337115D01*
X27374302Y-49357845D01*
X27356969Y-49376969D01*
X27337845Y-49394302D01*
X27317115Y-49409677D01*
X27294977Y-49422945D01*
X27271646Y-49433980D01*
X27247345Y-49442675D01*
X27222309Y-49448947D01*
X27196779Y-49452734D01*
X27171000Y-49454000D01*
X26545000Y-49454000D01*
X26519221Y-49452734D01*
X26493691Y-49448947D01*
X26468655Y-49442675D01*
X26444354Y-49433980D01*
X26421023Y-49422945D01*
X26398885Y-49409677D01*
X26378155Y-49394302D01*
X26359031Y-49376969D01*
X26341698Y-49357845D01*
X26326323Y-49337115D01*
X26313055Y-49314977D01*
X26302020Y-49291646D01*
X26293325Y-49267345D01*
X26287053Y-49242309D01*
X26283266Y-49216779D01*
X26282000Y-49191000D01*
X26282000Y-48665000D01*
X26283266Y-48639221D01*
X26287053Y-48613691D01*
X26293325Y-48588655D01*
X26302020Y-48564354D01*
X26313055Y-48541023D01*
X26326323Y-48518885D01*
X26341698Y-48498155D01*
X26359031Y-48479031D01*
X26378155Y-48461698D01*
X26398885Y-48446323D01*
X26421023Y-48433055D01*
X26444354Y-48422020D01*
X26468655Y-48413325D01*
X26493691Y-48407053D01*
X26519221Y-48403266D01*
X26545000Y-48402000D01*
X27171000Y-48402000D01*
X27196779Y-48403266D01*
X27196779Y-48403266D01*
G37*
D31*
X26858000Y-48928000D03*
D15*
G36*
X28946779Y-48403266D02*
G01*
X28972309Y-48407053D01*
X28997345Y-48413325D01*
X29021646Y-48422020D01*
X29044977Y-48433055D01*
X29067115Y-48446323D01*
X29087845Y-48461698D01*
X29106969Y-48479031D01*
X29124302Y-48498155D01*
X29139677Y-48518885D01*
X29152945Y-48541023D01*
X29163980Y-48564354D01*
X29172675Y-48588655D01*
X29178947Y-48613691D01*
X29182734Y-48639221D01*
X29184000Y-48665000D01*
X29184000Y-49191000D01*
X29182734Y-49216779D01*
X29178947Y-49242309D01*
X29172675Y-49267345D01*
X29163980Y-49291646D01*
X29152945Y-49314977D01*
X29139677Y-49337115D01*
X29124302Y-49357845D01*
X29106969Y-49376969D01*
X29087845Y-49394302D01*
X29067115Y-49409677D01*
X29044977Y-49422945D01*
X29021646Y-49433980D01*
X28997345Y-49442675D01*
X28972309Y-49448947D01*
X28946779Y-49452734D01*
X28921000Y-49454000D01*
X28295000Y-49454000D01*
X28269221Y-49452734D01*
X28243691Y-49448947D01*
X28218655Y-49442675D01*
X28194354Y-49433980D01*
X28171023Y-49422945D01*
X28148885Y-49409677D01*
X28128155Y-49394302D01*
X28109031Y-49376969D01*
X28091698Y-49357845D01*
X28076323Y-49337115D01*
X28063055Y-49314977D01*
X28052020Y-49291646D01*
X28043325Y-49267345D01*
X28037053Y-49242309D01*
X28033266Y-49216779D01*
X28032000Y-49191000D01*
X28032000Y-48665000D01*
X28033266Y-48639221D01*
X28037053Y-48613691D01*
X28043325Y-48588655D01*
X28052020Y-48564354D01*
X28063055Y-48541023D01*
X28076323Y-48518885D01*
X28091698Y-48498155D01*
X28109031Y-48479031D01*
X28128155Y-48461698D01*
X28148885Y-48446323D01*
X28171023Y-48433055D01*
X28194354Y-48422020D01*
X28218655Y-48413325D01*
X28243691Y-48407053D01*
X28269221Y-48403266D01*
X28295000Y-48402000D01*
X28921000Y-48402000D01*
X28946779Y-48403266D01*
X28946779Y-48403266D01*
G37*
D31*
X28608000Y-48928000D03*
D15*
G36*
X32728779Y-48403266D02*
G01*
X32754309Y-48407053D01*
X32779345Y-48413325D01*
X32803646Y-48422020D01*
X32826977Y-48433055D01*
X32849115Y-48446323D01*
X32869845Y-48461698D01*
X32888969Y-48479031D01*
X32906302Y-48498155D01*
X32921677Y-48518885D01*
X32934945Y-48541023D01*
X32945980Y-48564354D01*
X32954675Y-48588655D01*
X32960947Y-48613691D01*
X32964734Y-48639221D01*
X32966000Y-48665000D01*
X32966000Y-49191000D01*
X32964734Y-49216779D01*
X32960947Y-49242309D01*
X32954675Y-49267345D01*
X32945980Y-49291646D01*
X32934945Y-49314977D01*
X32921677Y-49337115D01*
X32906302Y-49357845D01*
X32888969Y-49376969D01*
X32869845Y-49394302D01*
X32849115Y-49409677D01*
X32826977Y-49422945D01*
X32803646Y-49433980D01*
X32779345Y-49442675D01*
X32754309Y-49448947D01*
X32728779Y-49452734D01*
X32703000Y-49454000D01*
X32077000Y-49454000D01*
X32051221Y-49452734D01*
X32025691Y-49448947D01*
X32000655Y-49442675D01*
X31976354Y-49433980D01*
X31953023Y-49422945D01*
X31930885Y-49409677D01*
X31910155Y-49394302D01*
X31891031Y-49376969D01*
X31873698Y-49357845D01*
X31858323Y-49337115D01*
X31845055Y-49314977D01*
X31834020Y-49291646D01*
X31825325Y-49267345D01*
X31819053Y-49242309D01*
X31815266Y-49216779D01*
X31814000Y-49191000D01*
X31814000Y-48665000D01*
X31815266Y-48639221D01*
X31819053Y-48613691D01*
X31825325Y-48588655D01*
X31834020Y-48564354D01*
X31845055Y-48541023D01*
X31858323Y-48518885D01*
X31873698Y-48498155D01*
X31891031Y-48479031D01*
X31910155Y-48461698D01*
X31930885Y-48446323D01*
X31953023Y-48433055D01*
X31976354Y-48422020D01*
X32000655Y-48413325D01*
X32025691Y-48407053D01*
X32051221Y-48403266D01*
X32077000Y-48402000D01*
X32703000Y-48402000D01*
X32728779Y-48403266D01*
X32728779Y-48403266D01*
G37*
D31*
X32390000Y-48928000D03*
D15*
G36*
X30978779Y-48403266D02*
G01*
X31004309Y-48407053D01*
X31029345Y-48413325D01*
X31053646Y-48422020D01*
X31076977Y-48433055D01*
X31099115Y-48446323D01*
X31119845Y-48461698D01*
X31138969Y-48479031D01*
X31156302Y-48498155D01*
X31171677Y-48518885D01*
X31184945Y-48541023D01*
X31195980Y-48564354D01*
X31204675Y-48588655D01*
X31210947Y-48613691D01*
X31214734Y-48639221D01*
X31216000Y-48665000D01*
X31216000Y-49191000D01*
X31214734Y-49216779D01*
X31210947Y-49242309D01*
X31204675Y-49267345D01*
X31195980Y-49291646D01*
X31184945Y-49314977D01*
X31171677Y-49337115D01*
X31156302Y-49357845D01*
X31138969Y-49376969D01*
X31119845Y-49394302D01*
X31099115Y-49409677D01*
X31076977Y-49422945D01*
X31053646Y-49433980D01*
X31029345Y-49442675D01*
X31004309Y-49448947D01*
X30978779Y-49452734D01*
X30953000Y-49454000D01*
X30327000Y-49454000D01*
X30301221Y-49452734D01*
X30275691Y-49448947D01*
X30250655Y-49442675D01*
X30226354Y-49433980D01*
X30203023Y-49422945D01*
X30180885Y-49409677D01*
X30160155Y-49394302D01*
X30141031Y-49376969D01*
X30123698Y-49357845D01*
X30108323Y-49337115D01*
X30095055Y-49314977D01*
X30084020Y-49291646D01*
X30075325Y-49267345D01*
X30069053Y-49242309D01*
X30065266Y-49216779D01*
X30064000Y-49191000D01*
X30064000Y-48665000D01*
X30065266Y-48639221D01*
X30069053Y-48613691D01*
X30075325Y-48588655D01*
X30084020Y-48564354D01*
X30095055Y-48541023D01*
X30108323Y-48518885D01*
X30123698Y-48498155D01*
X30141031Y-48479031D01*
X30160155Y-48461698D01*
X30180885Y-48446323D01*
X30203023Y-48433055D01*
X30226354Y-48422020D01*
X30250655Y-48413325D01*
X30275691Y-48407053D01*
X30301221Y-48403266D01*
X30327000Y-48402000D01*
X30953000Y-48402000D01*
X30978779Y-48403266D01*
X30978779Y-48403266D01*
G37*
D31*
X30640000Y-48928000D03*
D15*
G36*
X10658779Y-48403266D02*
G01*
X10684309Y-48407053D01*
X10709345Y-48413325D01*
X10733646Y-48422020D01*
X10756977Y-48433055D01*
X10779115Y-48446323D01*
X10799845Y-48461698D01*
X10818969Y-48479031D01*
X10836302Y-48498155D01*
X10851677Y-48518885D01*
X10864945Y-48541023D01*
X10875980Y-48564354D01*
X10884675Y-48588655D01*
X10890947Y-48613691D01*
X10894734Y-48639221D01*
X10896000Y-48665000D01*
X10896000Y-49191000D01*
X10894734Y-49216779D01*
X10890947Y-49242309D01*
X10884675Y-49267345D01*
X10875980Y-49291646D01*
X10864945Y-49314977D01*
X10851677Y-49337115D01*
X10836302Y-49357845D01*
X10818969Y-49376969D01*
X10799845Y-49394302D01*
X10779115Y-49409677D01*
X10756977Y-49422945D01*
X10733646Y-49433980D01*
X10709345Y-49442675D01*
X10684309Y-49448947D01*
X10658779Y-49452734D01*
X10633000Y-49454000D01*
X10007000Y-49454000D01*
X9981221Y-49452734D01*
X9955691Y-49448947D01*
X9930655Y-49442675D01*
X9906354Y-49433980D01*
X9883023Y-49422945D01*
X9860885Y-49409677D01*
X9840155Y-49394302D01*
X9821031Y-49376969D01*
X9803698Y-49357845D01*
X9788323Y-49337115D01*
X9775055Y-49314977D01*
X9764020Y-49291646D01*
X9755325Y-49267345D01*
X9749053Y-49242309D01*
X9745266Y-49216779D01*
X9744000Y-49191000D01*
X9744000Y-48665000D01*
X9745266Y-48639221D01*
X9749053Y-48613691D01*
X9755325Y-48588655D01*
X9764020Y-48564354D01*
X9775055Y-48541023D01*
X9788323Y-48518885D01*
X9803698Y-48498155D01*
X9821031Y-48479031D01*
X9840155Y-48461698D01*
X9860885Y-48446323D01*
X9883023Y-48433055D01*
X9906354Y-48422020D01*
X9930655Y-48413325D01*
X9955691Y-48407053D01*
X9981221Y-48403266D01*
X10007000Y-48402000D01*
X10633000Y-48402000D01*
X10658779Y-48403266D01*
X10658779Y-48403266D01*
G37*
D31*
X10320000Y-48928000D03*
D15*
G36*
X12408779Y-48403266D02*
G01*
X12434309Y-48407053D01*
X12459345Y-48413325D01*
X12483646Y-48422020D01*
X12506977Y-48433055D01*
X12529115Y-48446323D01*
X12549845Y-48461698D01*
X12568969Y-48479031D01*
X12586302Y-48498155D01*
X12601677Y-48518885D01*
X12614945Y-48541023D01*
X12625980Y-48564354D01*
X12634675Y-48588655D01*
X12640947Y-48613691D01*
X12644734Y-48639221D01*
X12646000Y-48665000D01*
X12646000Y-49191000D01*
X12644734Y-49216779D01*
X12640947Y-49242309D01*
X12634675Y-49267345D01*
X12625980Y-49291646D01*
X12614945Y-49314977D01*
X12601677Y-49337115D01*
X12586302Y-49357845D01*
X12568969Y-49376969D01*
X12549845Y-49394302D01*
X12529115Y-49409677D01*
X12506977Y-49422945D01*
X12483646Y-49433980D01*
X12459345Y-49442675D01*
X12434309Y-49448947D01*
X12408779Y-49452734D01*
X12383000Y-49454000D01*
X11757000Y-49454000D01*
X11731221Y-49452734D01*
X11705691Y-49448947D01*
X11680655Y-49442675D01*
X11656354Y-49433980D01*
X11633023Y-49422945D01*
X11610885Y-49409677D01*
X11590155Y-49394302D01*
X11571031Y-49376969D01*
X11553698Y-49357845D01*
X11538323Y-49337115D01*
X11525055Y-49314977D01*
X11514020Y-49291646D01*
X11505325Y-49267345D01*
X11499053Y-49242309D01*
X11495266Y-49216779D01*
X11494000Y-49191000D01*
X11494000Y-48665000D01*
X11495266Y-48639221D01*
X11499053Y-48613691D01*
X11505325Y-48588655D01*
X11514020Y-48564354D01*
X11525055Y-48541023D01*
X11538323Y-48518885D01*
X11553698Y-48498155D01*
X11571031Y-48479031D01*
X11590155Y-48461698D01*
X11610885Y-48446323D01*
X11633023Y-48433055D01*
X11656354Y-48422020D01*
X11680655Y-48413325D01*
X11705691Y-48407053D01*
X11731221Y-48403266D01*
X11757000Y-48402000D01*
X12383000Y-48402000D01*
X12408779Y-48403266D01*
X12408779Y-48403266D01*
G37*
D31*
X12070000Y-48928000D03*
D15*
G36*
X14214779Y-48403266D02*
G01*
X14240309Y-48407053D01*
X14265345Y-48413325D01*
X14289646Y-48422020D01*
X14312977Y-48433055D01*
X14335115Y-48446323D01*
X14355845Y-48461698D01*
X14374969Y-48479031D01*
X14392302Y-48498155D01*
X14407677Y-48518885D01*
X14420945Y-48541023D01*
X14431980Y-48564354D01*
X14440675Y-48588655D01*
X14446947Y-48613691D01*
X14450734Y-48639221D01*
X14452000Y-48665000D01*
X14452000Y-49191000D01*
X14450734Y-49216779D01*
X14446947Y-49242309D01*
X14440675Y-49267345D01*
X14431980Y-49291646D01*
X14420945Y-49314977D01*
X14407677Y-49337115D01*
X14392302Y-49357845D01*
X14374969Y-49376969D01*
X14355845Y-49394302D01*
X14335115Y-49409677D01*
X14312977Y-49422945D01*
X14289646Y-49433980D01*
X14265345Y-49442675D01*
X14240309Y-49448947D01*
X14214779Y-49452734D01*
X14189000Y-49454000D01*
X13563000Y-49454000D01*
X13537221Y-49452734D01*
X13511691Y-49448947D01*
X13486655Y-49442675D01*
X13462354Y-49433980D01*
X13439023Y-49422945D01*
X13416885Y-49409677D01*
X13396155Y-49394302D01*
X13377031Y-49376969D01*
X13359698Y-49357845D01*
X13344323Y-49337115D01*
X13331055Y-49314977D01*
X13320020Y-49291646D01*
X13311325Y-49267345D01*
X13305053Y-49242309D01*
X13301266Y-49216779D01*
X13300000Y-49191000D01*
X13300000Y-48665000D01*
X13301266Y-48639221D01*
X13305053Y-48613691D01*
X13311325Y-48588655D01*
X13320020Y-48564354D01*
X13331055Y-48541023D01*
X13344323Y-48518885D01*
X13359698Y-48498155D01*
X13377031Y-48479031D01*
X13396155Y-48461698D01*
X13416885Y-48446323D01*
X13439023Y-48433055D01*
X13462354Y-48422020D01*
X13486655Y-48413325D01*
X13511691Y-48407053D01*
X13537221Y-48403266D01*
X13563000Y-48402000D01*
X14189000Y-48402000D01*
X14214779Y-48403266D01*
X14214779Y-48403266D01*
G37*
D31*
X13876000Y-48928000D03*
D15*
G36*
X15964779Y-48403266D02*
G01*
X15990309Y-48407053D01*
X16015345Y-48413325D01*
X16039646Y-48422020D01*
X16062977Y-48433055D01*
X16085115Y-48446323D01*
X16105845Y-48461698D01*
X16124969Y-48479031D01*
X16142302Y-48498155D01*
X16157677Y-48518885D01*
X16170945Y-48541023D01*
X16181980Y-48564354D01*
X16190675Y-48588655D01*
X16196947Y-48613691D01*
X16200734Y-48639221D01*
X16202000Y-48665000D01*
X16202000Y-49191000D01*
X16200734Y-49216779D01*
X16196947Y-49242309D01*
X16190675Y-49267345D01*
X16181980Y-49291646D01*
X16170945Y-49314977D01*
X16157677Y-49337115D01*
X16142302Y-49357845D01*
X16124969Y-49376969D01*
X16105845Y-49394302D01*
X16085115Y-49409677D01*
X16062977Y-49422945D01*
X16039646Y-49433980D01*
X16015345Y-49442675D01*
X15990309Y-49448947D01*
X15964779Y-49452734D01*
X15939000Y-49454000D01*
X15313000Y-49454000D01*
X15287221Y-49452734D01*
X15261691Y-49448947D01*
X15236655Y-49442675D01*
X15212354Y-49433980D01*
X15189023Y-49422945D01*
X15166885Y-49409677D01*
X15146155Y-49394302D01*
X15127031Y-49376969D01*
X15109698Y-49357845D01*
X15094323Y-49337115D01*
X15081055Y-49314977D01*
X15070020Y-49291646D01*
X15061325Y-49267345D01*
X15055053Y-49242309D01*
X15051266Y-49216779D01*
X15050000Y-49191000D01*
X15050000Y-48665000D01*
X15051266Y-48639221D01*
X15055053Y-48613691D01*
X15061325Y-48588655D01*
X15070020Y-48564354D01*
X15081055Y-48541023D01*
X15094323Y-48518885D01*
X15109698Y-48498155D01*
X15127031Y-48479031D01*
X15146155Y-48461698D01*
X15166885Y-48446323D01*
X15189023Y-48433055D01*
X15212354Y-48422020D01*
X15236655Y-48413325D01*
X15261691Y-48407053D01*
X15287221Y-48403266D01*
X15313000Y-48402000D01*
X15939000Y-48402000D01*
X15964779Y-48403266D01*
X15964779Y-48403266D01*
G37*
D31*
X15626000Y-48928000D03*
D19*
X82710000Y-38260000D03*
D20*
X80170000Y-45880000D03*
X80170000Y-38260000D03*
X82710000Y-45880000D03*
X88425000Y-45880000D03*
X85885000Y-38260000D03*
X85885000Y-45880000D03*
D19*
X88425000Y-38260000D03*
X66200000Y-38260000D03*
D20*
X63660000Y-45880000D03*
X63660000Y-38260000D03*
X66200000Y-45880000D03*
X71915000Y-45880000D03*
X69375000Y-38260000D03*
X69375000Y-45880000D03*
D19*
X71915000Y-38260000D03*
X49690000Y-38260000D03*
D20*
X47150000Y-45880000D03*
X47150000Y-38260000D03*
X49690000Y-45880000D03*
X55405000Y-45880000D03*
X52865000Y-38260000D03*
X52865000Y-45880000D03*
D19*
X55405000Y-38260000D03*
X33180000Y-38260000D03*
D20*
X30640000Y-45880000D03*
X30640000Y-38260000D03*
X33180000Y-45880000D03*
X38895000Y-45880000D03*
X36355000Y-38260000D03*
X36355000Y-45880000D03*
D19*
X38895000Y-38260000D03*
D20*
X16670000Y-45880000D03*
X14130000Y-38260000D03*
X14130000Y-45880000D03*
D19*
X16670000Y-38260000D03*
X22385000Y-38260000D03*
D20*
X19845000Y-45880000D03*
X19845000Y-38260000D03*
X22385000Y-45880000D03*
M02*
