G04 #@! TF.GenerationSoftware,KiCad,Pcbnew,(5.1.2)-1*
G04 #@! TF.CreationDate,2019-09-05T15:18:28+09:00*
G04 #@! TF.ProjectId,MD_2016_remake,4d445f32-3031-4365-9f72-656d616b652e,2*
G04 #@! TF.SameCoordinates,PXaba9500PY3473bc0*
G04 #@! TF.FileFunction,Legend,Bot*
G04 #@! TF.FilePolarity,Positive*
%FSLAX46Y46*%
G04 Gerber Fmt 4.6, Leading zero omitted, Abs format (unit mm)*
G04 Created by KiCad (PCBNEW (5.1.2)-1) date 2019-09-05 15:18:28*
%MOMM*%
%LPD*%
G04 APERTURE LIST*
%ADD10C,0.120000*%
%ADD11C,0.150000*%
%ADD12C,3.302000*%
%ADD13R,4.602000X2.602000*%
%ADD14O,4.602000X2.602000*%
%ADD15O,1.852000X1.302000*%
%ADD16C,0.100000*%
%ADD17C,1.302000*%
%ADD18O,1.702000X1.702000*%
%ADD19R,1.702000X1.702000*%
%ADD20C,2.602000*%
%ADD21R,3.402000X2.602000*%
%ADD22R,2.102000X2.102000*%
%ADD23C,2.102000*%
%ADD24C,3.102000*%
%ADD25C,1.902000*%
%ADD26C,2.502000*%
%ADD27C,1.802000*%
G04 APERTURE END LIST*
D10*
X64250000Y-19700000D02*
X64250000Y-11300000D01*
X57750000Y-19700000D02*
X57750000Y-11300000D01*
X57750000Y-19700000D02*
X64250000Y-19700000D01*
X64250000Y-38700000D02*
X64250000Y-30300000D01*
X57750000Y-38700000D02*
X57750000Y-30300000D01*
X57750000Y-38700000D02*
X64250000Y-38700000D01*
X64250000Y-57700000D02*
X64250000Y-49300000D01*
X57750000Y-57700000D02*
X57750000Y-49300000D01*
X57750000Y-57700000D02*
X64250000Y-57700000D01*
D11*
X65552380Y-13685714D02*
X64552380Y-13685714D01*
X64552380Y-13923809D01*
X64600000Y-14066666D01*
X64695238Y-14161904D01*
X64790476Y-14209523D01*
X64980952Y-14257142D01*
X65123809Y-14257142D01*
X65314285Y-14209523D01*
X65409523Y-14161904D01*
X65504761Y-14066666D01*
X65552380Y-13923809D01*
X65552380Y-13685714D01*
X64647619Y-14638095D02*
X64600000Y-14685714D01*
X64552380Y-14780952D01*
X64552380Y-15019047D01*
X64600000Y-15114285D01*
X64647619Y-15161904D01*
X64742857Y-15209523D01*
X64838095Y-15209523D01*
X64980952Y-15161904D01*
X65552380Y-14590476D01*
X65552380Y-15209523D01*
X64552380Y-15828571D02*
X64552380Y-15923809D01*
X64600000Y-16019047D01*
X64647619Y-16066666D01*
X64742857Y-16114285D01*
X64933333Y-16161904D01*
X65171428Y-16161904D01*
X65361904Y-16114285D01*
X65457142Y-16066666D01*
X65504761Y-16019047D01*
X65552380Y-15923809D01*
X65552380Y-15828571D01*
X65504761Y-15733333D01*
X65457142Y-15685714D01*
X65361904Y-15638095D01*
X65171428Y-15590476D01*
X64933333Y-15590476D01*
X64742857Y-15638095D01*
X64647619Y-15685714D01*
X64600000Y-15733333D01*
X64552380Y-15828571D01*
X65552380Y-32685714D02*
X64552380Y-32685714D01*
X64552380Y-32923809D01*
X64600000Y-33066666D01*
X64695238Y-33161904D01*
X64790476Y-33209523D01*
X64980952Y-33257142D01*
X65123809Y-33257142D01*
X65314285Y-33209523D01*
X65409523Y-33161904D01*
X65504761Y-33066666D01*
X65552380Y-32923809D01*
X65552380Y-32685714D01*
X65552380Y-34209523D02*
X65552380Y-33638095D01*
X65552380Y-33923809D02*
X64552380Y-33923809D01*
X64695238Y-33828571D01*
X64790476Y-33733333D01*
X64838095Y-33638095D01*
X64552380Y-34542857D02*
X64552380Y-35209523D01*
X65552380Y-34780952D01*
X65552380Y-51685714D02*
X64552380Y-51685714D01*
X64552380Y-51923809D01*
X64600000Y-52066666D01*
X64695238Y-52161904D01*
X64790476Y-52209523D01*
X64980952Y-52257142D01*
X65123809Y-52257142D01*
X65314285Y-52209523D01*
X65409523Y-52161904D01*
X65504761Y-52066666D01*
X65552380Y-51923809D01*
X65552380Y-51685714D01*
X65552380Y-53209523D02*
X65552380Y-52638095D01*
X65552380Y-52923809D02*
X64552380Y-52923809D01*
X64695238Y-52828571D01*
X64790476Y-52733333D01*
X64838095Y-52638095D01*
X64885714Y-54066666D02*
X65552380Y-54066666D01*
X64504761Y-53828571D02*
X65219047Y-53590476D01*
X65219047Y-54209523D01*
%LPC*%
D12*
X5000000Y-5000000D03*
X5000000Y-95000000D03*
X95000000Y-95000000D03*
X95000000Y-5000000D03*
D13*
X50000000Y-60950000D03*
D14*
X50000000Y-55500000D03*
X50000000Y-50050000D03*
D15*
X4000000Y-40000000D03*
X4000000Y-38000000D03*
X4000000Y-36000000D03*
D16*
G36*
X4681338Y-33350306D02*
G01*
X4707669Y-33354212D01*
X4733490Y-33360680D01*
X4758553Y-33369648D01*
X4782617Y-33381029D01*
X4805449Y-33394714D01*
X4826830Y-33410571D01*
X4846553Y-33428447D01*
X4864429Y-33448170D01*
X4880286Y-33469551D01*
X4893971Y-33492383D01*
X4905352Y-33516447D01*
X4914320Y-33541510D01*
X4920788Y-33567331D01*
X4924694Y-33593662D01*
X4926000Y-33620249D01*
X4926000Y-34379751D01*
X4924694Y-34406338D01*
X4920788Y-34432669D01*
X4914320Y-34458490D01*
X4905352Y-34483553D01*
X4893971Y-34507617D01*
X4880286Y-34530449D01*
X4864429Y-34551830D01*
X4846553Y-34571553D01*
X4826830Y-34589429D01*
X4805449Y-34605286D01*
X4782617Y-34618971D01*
X4758553Y-34630352D01*
X4733490Y-34639320D01*
X4707669Y-34645788D01*
X4681338Y-34649694D01*
X4654751Y-34651000D01*
X3345249Y-34651000D01*
X3318662Y-34649694D01*
X3292331Y-34645788D01*
X3266510Y-34639320D01*
X3241447Y-34630352D01*
X3217383Y-34618971D01*
X3194551Y-34605286D01*
X3173170Y-34589429D01*
X3153447Y-34571553D01*
X3135571Y-34551830D01*
X3119714Y-34530449D01*
X3106029Y-34507617D01*
X3094648Y-34483553D01*
X3085680Y-34458490D01*
X3079212Y-34432669D01*
X3075306Y-34406338D01*
X3074000Y-34379751D01*
X3074000Y-33620249D01*
X3075306Y-33593662D01*
X3079212Y-33567331D01*
X3085680Y-33541510D01*
X3094648Y-33516447D01*
X3106029Y-33492383D01*
X3119714Y-33469551D01*
X3135571Y-33448170D01*
X3153447Y-33428447D01*
X3173170Y-33410571D01*
X3194551Y-33394714D01*
X3217383Y-33381029D01*
X3241447Y-33369648D01*
X3266510Y-33360680D01*
X3292331Y-33354212D01*
X3318662Y-33350306D01*
X3345249Y-33349000D01*
X4654751Y-33349000D01*
X4681338Y-33350306D01*
X4681338Y-33350306D01*
G37*
D17*
X4000000Y-34000000D03*
D15*
X4000000Y-54000000D03*
X4000000Y-52000000D03*
X4000000Y-50000000D03*
D16*
G36*
X4681338Y-47350306D02*
G01*
X4707669Y-47354212D01*
X4733490Y-47360680D01*
X4758553Y-47369648D01*
X4782617Y-47381029D01*
X4805449Y-47394714D01*
X4826830Y-47410571D01*
X4846553Y-47428447D01*
X4864429Y-47448170D01*
X4880286Y-47469551D01*
X4893971Y-47492383D01*
X4905352Y-47516447D01*
X4914320Y-47541510D01*
X4920788Y-47567331D01*
X4924694Y-47593662D01*
X4926000Y-47620249D01*
X4926000Y-48379751D01*
X4924694Y-48406338D01*
X4920788Y-48432669D01*
X4914320Y-48458490D01*
X4905352Y-48483553D01*
X4893971Y-48507617D01*
X4880286Y-48530449D01*
X4864429Y-48551830D01*
X4846553Y-48571553D01*
X4826830Y-48589429D01*
X4805449Y-48605286D01*
X4782617Y-48618971D01*
X4758553Y-48630352D01*
X4733490Y-48639320D01*
X4707669Y-48645788D01*
X4681338Y-48649694D01*
X4654751Y-48651000D01*
X3345249Y-48651000D01*
X3318662Y-48649694D01*
X3292331Y-48645788D01*
X3266510Y-48639320D01*
X3241447Y-48630352D01*
X3217383Y-48618971D01*
X3194551Y-48605286D01*
X3173170Y-48589429D01*
X3153447Y-48571553D01*
X3135571Y-48551830D01*
X3119714Y-48530449D01*
X3106029Y-48507617D01*
X3094648Y-48483553D01*
X3085680Y-48458490D01*
X3079212Y-48432669D01*
X3075306Y-48406338D01*
X3074000Y-48379751D01*
X3074000Y-47620249D01*
X3075306Y-47593662D01*
X3079212Y-47567331D01*
X3085680Y-47541510D01*
X3094648Y-47516447D01*
X3106029Y-47492383D01*
X3119714Y-47469551D01*
X3135571Y-47448170D01*
X3153447Y-47428447D01*
X3173170Y-47410571D01*
X3194551Y-47394714D01*
X3217383Y-47381029D01*
X3241447Y-47369648D01*
X3266510Y-47360680D01*
X3292331Y-47354212D01*
X3318662Y-47350306D01*
X3345249Y-47349000D01*
X4654751Y-47349000D01*
X4681338Y-47350306D01*
X4681338Y-47350306D01*
G37*
D17*
X4000000Y-48000000D03*
D18*
X20620000Y-61000000D03*
X13000000Y-81320000D03*
X20620000Y-63540000D03*
X13000000Y-78780000D03*
X20620000Y-66080000D03*
X13000000Y-76240000D03*
X20620000Y-68620000D03*
X13000000Y-73700000D03*
X20620000Y-71160000D03*
X13000000Y-71160000D03*
X20620000Y-73700000D03*
X13000000Y-68620000D03*
X20620000Y-76240000D03*
X13000000Y-66080000D03*
X20620000Y-78780000D03*
X13000000Y-63540000D03*
X20620000Y-81320000D03*
D19*
X13000000Y-61000000D03*
D20*
X95450000Y-74700000D03*
X95450000Y-88100000D03*
D21*
X61000000Y-11500000D03*
X61000000Y-18300000D03*
X61000000Y-30500000D03*
X61000000Y-37300000D03*
X61000000Y-49500000D03*
X61000000Y-56300000D03*
D19*
X24500000Y-54500000D03*
D18*
X9260000Y-21480000D03*
X24500000Y-51960000D03*
X9260000Y-24020000D03*
X24500000Y-49420000D03*
X9260000Y-26560000D03*
X24500000Y-46880000D03*
X9260000Y-29100000D03*
X24500000Y-44340000D03*
X9260000Y-31640000D03*
X24500000Y-41800000D03*
X9260000Y-34180000D03*
X24500000Y-39260000D03*
X9260000Y-36720000D03*
X24500000Y-36720000D03*
X9260000Y-39260000D03*
X24500000Y-34180000D03*
X9260000Y-41800000D03*
X24500000Y-31640000D03*
X9260000Y-44340000D03*
X24500000Y-29100000D03*
X9260000Y-46880000D03*
X24500000Y-26560000D03*
X9260000Y-49420000D03*
X24500000Y-24020000D03*
X9260000Y-51960000D03*
X24500000Y-21480000D03*
X9260000Y-54500000D03*
X24500000Y-18940000D03*
X9260000Y-18940000D03*
D22*
X75000000Y-84500000D03*
D23*
X75000000Y-79500000D03*
D15*
X4000000Y-67000000D03*
X4000000Y-65000000D03*
X4000000Y-63000000D03*
D16*
G36*
X4681338Y-60350306D02*
G01*
X4707669Y-60354212D01*
X4733490Y-60360680D01*
X4758553Y-60369648D01*
X4782617Y-60381029D01*
X4805449Y-60394714D01*
X4826830Y-60410571D01*
X4846553Y-60428447D01*
X4864429Y-60448170D01*
X4880286Y-60469551D01*
X4893971Y-60492383D01*
X4905352Y-60516447D01*
X4914320Y-60541510D01*
X4920788Y-60567331D01*
X4924694Y-60593662D01*
X4926000Y-60620249D01*
X4926000Y-61379751D01*
X4924694Y-61406338D01*
X4920788Y-61432669D01*
X4914320Y-61458490D01*
X4905352Y-61483553D01*
X4893971Y-61507617D01*
X4880286Y-61530449D01*
X4864429Y-61551830D01*
X4846553Y-61571553D01*
X4826830Y-61589429D01*
X4805449Y-61605286D01*
X4782617Y-61618971D01*
X4758553Y-61630352D01*
X4733490Y-61639320D01*
X4707669Y-61645788D01*
X4681338Y-61649694D01*
X4654751Y-61651000D01*
X3345249Y-61651000D01*
X3318662Y-61649694D01*
X3292331Y-61645788D01*
X3266510Y-61639320D01*
X3241447Y-61630352D01*
X3217383Y-61618971D01*
X3194551Y-61605286D01*
X3173170Y-61589429D01*
X3153447Y-61571553D01*
X3135571Y-61551830D01*
X3119714Y-61530449D01*
X3106029Y-61507617D01*
X3094648Y-61483553D01*
X3085680Y-61458490D01*
X3079212Y-61432669D01*
X3075306Y-61406338D01*
X3074000Y-61379751D01*
X3074000Y-60620249D01*
X3075306Y-60593662D01*
X3079212Y-60567331D01*
X3085680Y-60541510D01*
X3094648Y-60516447D01*
X3106029Y-60492383D01*
X3119714Y-60469551D01*
X3135571Y-60448170D01*
X3153447Y-60428447D01*
X3173170Y-60410571D01*
X3194551Y-60394714D01*
X3217383Y-60381029D01*
X3241447Y-60369648D01*
X3266510Y-60360680D01*
X3292331Y-60354212D01*
X3318662Y-60350306D01*
X3345249Y-60349000D01*
X4654751Y-60349000D01*
X4681338Y-60350306D01*
X4681338Y-60350306D01*
G37*
D17*
X4000000Y-61000000D03*
D16*
G36*
X4681338Y-76350306D02*
G01*
X4707669Y-76354212D01*
X4733490Y-76360680D01*
X4758553Y-76369648D01*
X4782617Y-76381029D01*
X4805449Y-76394714D01*
X4826830Y-76410571D01*
X4846553Y-76428447D01*
X4864429Y-76448170D01*
X4880286Y-76469551D01*
X4893971Y-76492383D01*
X4905352Y-76516447D01*
X4914320Y-76541510D01*
X4920788Y-76567331D01*
X4924694Y-76593662D01*
X4926000Y-76620249D01*
X4926000Y-77379751D01*
X4924694Y-77406338D01*
X4920788Y-77432669D01*
X4914320Y-77458490D01*
X4905352Y-77483553D01*
X4893971Y-77507617D01*
X4880286Y-77530449D01*
X4864429Y-77551830D01*
X4846553Y-77571553D01*
X4826830Y-77589429D01*
X4805449Y-77605286D01*
X4782617Y-77618971D01*
X4758553Y-77630352D01*
X4733490Y-77639320D01*
X4707669Y-77645788D01*
X4681338Y-77649694D01*
X4654751Y-77651000D01*
X3345249Y-77651000D01*
X3318662Y-77649694D01*
X3292331Y-77645788D01*
X3266510Y-77639320D01*
X3241447Y-77630352D01*
X3217383Y-77618971D01*
X3194551Y-77605286D01*
X3173170Y-77589429D01*
X3153447Y-77571553D01*
X3135571Y-77551830D01*
X3119714Y-77530449D01*
X3106029Y-77507617D01*
X3094648Y-77483553D01*
X3085680Y-77458490D01*
X3079212Y-77432669D01*
X3075306Y-77406338D01*
X3074000Y-77379751D01*
X3074000Y-76620249D01*
X3075306Y-76593662D01*
X3079212Y-76567331D01*
X3085680Y-76541510D01*
X3094648Y-76516447D01*
X3106029Y-76492383D01*
X3119714Y-76469551D01*
X3135571Y-76448170D01*
X3153447Y-76428447D01*
X3173170Y-76410571D01*
X3194551Y-76394714D01*
X3217383Y-76381029D01*
X3241447Y-76369648D01*
X3266510Y-76360680D01*
X3292331Y-76354212D01*
X3318662Y-76350306D01*
X3345249Y-76349000D01*
X4654751Y-76349000D01*
X4681338Y-76350306D01*
X4681338Y-76350306D01*
G37*
D17*
X4000000Y-77000000D03*
D15*
X4000000Y-79000000D03*
X4000000Y-81000000D03*
X4000000Y-83000000D03*
D24*
X55900000Y-57700000D03*
D25*
X58000000Y-60950000D03*
X62500000Y-60950000D03*
D26*
X66000000Y-58600000D03*
X66000000Y-49100000D03*
D25*
X69500000Y-50050000D03*
X74000000Y-50050000D03*
D24*
X76100000Y-53300000D03*
X76100000Y-34300000D03*
D25*
X74000000Y-31050000D03*
X69500000Y-31050000D03*
D26*
X66000000Y-30100000D03*
X66000000Y-39600000D03*
D25*
X62500000Y-41950000D03*
X58000000Y-41950000D03*
D24*
X55900000Y-38700000D03*
X55900000Y-19700000D03*
D25*
X58000000Y-22950000D03*
X62500000Y-22950000D03*
D26*
X66000000Y-20600000D03*
X66000000Y-11100000D03*
D25*
X69500000Y-12050000D03*
X74000000Y-12050000D03*
D24*
X76100000Y-15300000D03*
D15*
X61000000Y-81000000D03*
D16*
G36*
X61681338Y-78350306D02*
G01*
X61707669Y-78354212D01*
X61733490Y-78360680D01*
X61758553Y-78369648D01*
X61782617Y-78381029D01*
X61805449Y-78394714D01*
X61826830Y-78410571D01*
X61846553Y-78428447D01*
X61864429Y-78448170D01*
X61880286Y-78469551D01*
X61893971Y-78492383D01*
X61905352Y-78516447D01*
X61914320Y-78541510D01*
X61920788Y-78567331D01*
X61924694Y-78593662D01*
X61926000Y-78620249D01*
X61926000Y-79379751D01*
X61924694Y-79406338D01*
X61920788Y-79432669D01*
X61914320Y-79458490D01*
X61905352Y-79483553D01*
X61893971Y-79507617D01*
X61880286Y-79530449D01*
X61864429Y-79551830D01*
X61846553Y-79571553D01*
X61826830Y-79589429D01*
X61805449Y-79605286D01*
X61782617Y-79618971D01*
X61758553Y-79630352D01*
X61733490Y-79639320D01*
X61707669Y-79645788D01*
X61681338Y-79649694D01*
X61654751Y-79651000D01*
X60345249Y-79651000D01*
X60318662Y-79649694D01*
X60292331Y-79645788D01*
X60266510Y-79639320D01*
X60241447Y-79630352D01*
X60217383Y-79618971D01*
X60194551Y-79605286D01*
X60173170Y-79589429D01*
X60153447Y-79571553D01*
X60135571Y-79551830D01*
X60119714Y-79530449D01*
X60106029Y-79507617D01*
X60094648Y-79483553D01*
X60085680Y-79458490D01*
X60079212Y-79432669D01*
X60075306Y-79406338D01*
X60074000Y-79379751D01*
X60074000Y-78620249D01*
X60075306Y-78593662D01*
X60079212Y-78567331D01*
X60085680Y-78541510D01*
X60094648Y-78516447D01*
X60106029Y-78492383D01*
X60119714Y-78469551D01*
X60135571Y-78448170D01*
X60153447Y-78428447D01*
X60173170Y-78410571D01*
X60194551Y-78394714D01*
X60217383Y-78381029D01*
X60241447Y-78369648D01*
X60266510Y-78360680D01*
X60292331Y-78354212D01*
X60318662Y-78350306D01*
X60345249Y-78349000D01*
X61654751Y-78349000D01*
X61681338Y-78350306D01*
X61681338Y-78350306D01*
G37*
D17*
X61000000Y-79000000D03*
D16*
G36*
X53681338Y-78350306D02*
G01*
X53707669Y-78354212D01*
X53733490Y-78360680D01*
X53758553Y-78369648D01*
X53782617Y-78381029D01*
X53805449Y-78394714D01*
X53826830Y-78410571D01*
X53846553Y-78428447D01*
X53864429Y-78448170D01*
X53880286Y-78469551D01*
X53893971Y-78492383D01*
X53905352Y-78516447D01*
X53914320Y-78541510D01*
X53920788Y-78567331D01*
X53924694Y-78593662D01*
X53926000Y-78620249D01*
X53926000Y-79379751D01*
X53924694Y-79406338D01*
X53920788Y-79432669D01*
X53914320Y-79458490D01*
X53905352Y-79483553D01*
X53893971Y-79507617D01*
X53880286Y-79530449D01*
X53864429Y-79551830D01*
X53846553Y-79571553D01*
X53826830Y-79589429D01*
X53805449Y-79605286D01*
X53782617Y-79618971D01*
X53758553Y-79630352D01*
X53733490Y-79639320D01*
X53707669Y-79645788D01*
X53681338Y-79649694D01*
X53654751Y-79651000D01*
X52345249Y-79651000D01*
X52318662Y-79649694D01*
X52292331Y-79645788D01*
X52266510Y-79639320D01*
X52241447Y-79630352D01*
X52217383Y-79618971D01*
X52194551Y-79605286D01*
X52173170Y-79589429D01*
X52153447Y-79571553D01*
X52135571Y-79551830D01*
X52119714Y-79530449D01*
X52106029Y-79507617D01*
X52094648Y-79483553D01*
X52085680Y-79458490D01*
X52079212Y-79432669D01*
X52075306Y-79406338D01*
X52074000Y-79379751D01*
X52074000Y-78620249D01*
X52075306Y-78593662D01*
X52079212Y-78567331D01*
X52085680Y-78541510D01*
X52094648Y-78516447D01*
X52106029Y-78492383D01*
X52119714Y-78469551D01*
X52135571Y-78448170D01*
X52153447Y-78428447D01*
X52173170Y-78410571D01*
X52194551Y-78394714D01*
X52217383Y-78381029D01*
X52241447Y-78369648D01*
X52266510Y-78360680D01*
X52292331Y-78354212D01*
X52318662Y-78350306D01*
X52345249Y-78349000D01*
X53654751Y-78349000D01*
X53681338Y-78350306D01*
X53681338Y-78350306D01*
G37*
D17*
X53000000Y-79000000D03*
D15*
X53000000Y-81000000D03*
D16*
G36*
X45681338Y-78350306D02*
G01*
X45707669Y-78354212D01*
X45733490Y-78360680D01*
X45758553Y-78369648D01*
X45782617Y-78381029D01*
X45805449Y-78394714D01*
X45826830Y-78410571D01*
X45846553Y-78428447D01*
X45864429Y-78448170D01*
X45880286Y-78469551D01*
X45893971Y-78492383D01*
X45905352Y-78516447D01*
X45914320Y-78541510D01*
X45920788Y-78567331D01*
X45924694Y-78593662D01*
X45926000Y-78620249D01*
X45926000Y-79379751D01*
X45924694Y-79406338D01*
X45920788Y-79432669D01*
X45914320Y-79458490D01*
X45905352Y-79483553D01*
X45893971Y-79507617D01*
X45880286Y-79530449D01*
X45864429Y-79551830D01*
X45846553Y-79571553D01*
X45826830Y-79589429D01*
X45805449Y-79605286D01*
X45782617Y-79618971D01*
X45758553Y-79630352D01*
X45733490Y-79639320D01*
X45707669Y-79645788D01*
X45681338Y-79649694D01*
X45654751Y-79651000D01*
X44345249Y-79651000D01*
X44318662Y-79649694D01*
X44292331Y-79645788D01*
X44266510Y-79639320D01*
X44241447Y-79630352D01*
X44217383Y-79618971D01*
X44194551Y-79605286D01*
X44173170Y-79589429D01*
X44153447Y-79571553D01*
X44135571Y-79551830D01*
X44119714Y-79530449D01*
X44106029Y-79507617D01*
X44094648Y-79483553D01*
X44085680Y-79458490D01*
X44079212Y-79432669D01*
X44075306Y-79406338D01*
X44074000Y-79379751D01*
X44074000Y-78620249D01*
X44075306Y-78593662D01*
X44079212Y-78567331D01*
X44085680Y-78541510D01*
X44094648Y-78516447D01*
X44106029Y-78492383D01*
X44119714Y-78469551D01*
X44135571Y-78448170D01*
X44153447Y-78428447D01*
X44173170Y-78410571D01*
X44194551Y-78394714D01*
X44217383Y-78381029D01*
X44241447Y-78369648D01*
X44266510Y-78360680D01*
X44292331Y-78354212D01*
X44318662Y-78350306D01*
X44345249Y-78349000D01*
X45654751Y-78349000D01*
X45681338Y-78350306D01*
X45681338Y-78350306D01*
G37*
D17*
X45000000Y-79000000D03*
D15*
X45000000Y-81000000D03*
D20*
X95450000Y-49200000D03*
X95450000Y-62600000D03*
X95450000Y-43600000D03*
X95450000Y-30200000D03*
X95450000Y-24600000D03*
X95450000Y-11200000D03*
D13*
X50000000Y-41950000D03*
D14*
X50000000Y-36500000D03*
X50000000Y-31050000D03*
X50000000Y-12050000D03*
X50000000Y-17500000D03*
D13*
X50000000Y-22950000D03*
D19*
X20620000Y-94080000D03*
D18*
X13000000Y-86460000D03*
X20620000Y-91540000D03*
X13000000Y-89000000D03*
X20620000Y-89000000D03*
X13000000Y-91540000D03*
X20620000Y-86460000D03*
X13000000Y-94080000D03*
X38100000Y-68930000D03*
X30480000Y-71470000D03*
X38100000Y-71470000D03*
D19*
X30480000Y-68930000D03*
X30480000Y-74010000D03*
D18*
X38100000Y-76550000D03*
X30480000Y-76550000D03*
X38100000Y-74010000D03*
D19*
X30480000Y-79090000D03*
D18*
X38100000Y-81630000D03*
X30480000Y-81630000D03*
X38100000Y-79090000D03*
X38100000Y-58630000D03*
X30480000Y-61170000D03*
X38100000Y-61170000D03*
D19*
X30480000Y-58630000D03*
X30480000Y-53550000D03*
D18*
X38100000Y-56090000D03*
X30480000Y-56090000D03*
X38100000Y-53550000D03*
X38100000Y-39950000D03*
X30480000Y-42490000D03*
X38100000Y-42490000D03*
D19*
X30480000Y-39950000D03*
X30480000Y-34870000D03*
D18*
X38100000Y-37410000D03*
X30480000Y-37410000D03*
X38100000Y-34870000D03*
D19*
X30480000Y-21590000D03*
D18*
X38100000Y-24130000D03*
X30480000Y-24130000D03*
X38100000Y-21590000D03*
X38100000Y-16510000D03*
X30480000Y-19050000D03*
X38100000Y-19050000D03*
D19*
X30480000Y-16510000D03*
D27*
X9000000Y-75000000D03*
X9000000Y-77500000D03*
X9000000Y-80000000D03*
M02*
