G04 #@! TF.GenerationSoftware,KiCad,Pcbnew,(5.1.2)-1*
G04 #@! TF.CreationDate,2019-09-05T15:18:28+09:00*
G04 #@! TF.ProjectId,MD_2016_remake,4d445f32-3031-4365-9f72-656d616b652e,2*
G04 #@! TF.SameCoordinates,PXaba9500PY3473bc0*
G04 #@! TF.FileFunction,Soldermask,Bot*
G04 #@! TF.FilePolarity,Negative*
%FSLAX46Y46*%
G04 Gerber Fmt 4.6, Leading zero omitted, Abs format (unit mm)*
G04 Created by KiCad (PCBNEW (5.1.2)-1) date 2019-09-05 15:18:28*
%MOMM*%
%LPD*%
G04 APERTURE LIST*
%ADD10C,0.100000*%
G04 APERTURE END LIST*
D10*
G36*
X5375256Y-93391298D02*
G01*
X5481579Y-93412447D01*
X5782042Y-93536903D01*
X6052451Y-93717585D01*
X6282415Y-93947549D01*
X6463097Y-94217958D01*
X6587553Y-94518421D01*
X6608702Y-94624744D01*
X6641774Y-94791005D01*
X6651000Y-94837391D01*
X6651000Y-95162609D01*
X6587553Y-95481579D01*
X6463097Y-95782042D01*
X6282415Y-96052451D01*
X6052451Y-96282415D01*
X5782042Y-96463097D01*
X5481579Y-96587553D01*
X5375256Y-96608702D01*
X5162611Y-96651000D01*
X4837389Y-96651000D01*
X4624744Y-96608702D01*
X4518421Y-96587553D01*
X4217958Y-96463097D01*
X3947549Y-96282415D01*
X3717585Y-96052451D01*
X3536903Y-95782042D01*
X3412447Y-95481579D01*
X3349000Y-95162609D01*
X3349000Y-94837391D01*
X3358227Y-94791005D01*
X3391298Y-94624744D01*
X3412447Y-94518421D01*
X3536903Y-94217958D01*
X3717585Y-93947549D01*
X3947549Y-93717585D01*
X4217958Y-93536903D01*
X4518421Y-93412447D01*
X4624744Y-93391298D01*
X4837389Y-93349000D01*
X5162611Y-93349000D01*
X5375256Y-93391298D01*
X5375256Y-93391298D01*
G37*
G36*
X95375256Y-93391298D02*
G01*
X95481579Y-93412447D01*
X95782042Y-93536903D01*
X96052451Y-93717585D01*
X96282415Y-93947549D01*
X96463097Y-94217958D01*
X96587553Y-94518421D01*
X96608702Y-94624744D01*
X96641774Y-94791005D01*
X96651000Y-94837391D01*
X96651000Y-95162609D01*
X96587553Y-95481579D01*
X96463097Y-95782042D01*
X96282415Y-96052451D01*
X96052451Y-96282415D01*
X95782042Y-96463097D01*
X95481579Y-96587553D01*
X95375256Y-96608702D01*
X95162611Y-96651000D01*
X94837389Y-96651000D01*
X94624744Y-96608702D01*
X94518421Y-96587553D01*
X94217958Y-96463097D01*
X93947549Y-96282415D01*
X93717585Y-96052451D01*
X93536903Y-95782042D01*
X93412447Y-95481579D01*
X93349000Y-95162609D01*
X93349000Y-94837391D01*
X93358227Y-94791005D01*
X93391298Y-94624744D01*
X93412447Y-94518421D01*
X93536903Y-94217958D01*
X93717585Y-93947549D01*
X93947549Y-93717585D01*
X94217958Y-93536903D01*
X94518421Y-93412447D01*
X94624744Y-93391298D01*
X94837389Y-93349000D01*
X95162611Y-93349000D01*
X95375256Y-93391298D01*
X95375256Y-93391298D01*
G37*
G36*
X21471000Y-94931000D02*
G01*
X19769000Y-94931000D01*
X19769000Y-93229000D01*
X21471000Y-93229000D01*
X21471000Y-94931000D01*
X21471000Y-94931000D01*
G37*
G36*
X13166823Y-93241313D02*
G01*
X13327242Y-93289976D01*
X13437668Y-93349000D01*
X13475078Y-93368996D01*
X13604659Y-93475341D01*
X13711004Y-93604922D01*
X13711005Y-93604924D01*
X13790024Y-93752758D01*
X13838687Y-93913177D01*
X13855117Y-94080000D01*
X13838687Y-94246823D01*
X13790024Y-94407242D01*
X13730597Y-94518422D01*
X13711004Y-94555078D01*
X13604659Y-94684659D01*
X13475078Y-94791004D01*
X13475076Y-94791005D01*
X13327242Y-94870024D01*
X13166823Y-94918687D01*
X13041804Y-94931000D01*
X12958196Y-94931000D01*
X12833177Y-94918687D01*
X12672758Y-94870024D01*
X12524924Y-94791005D01*
X12524922Y-94791004D01*
X12395341Y-94684659D01*
X12288996Y-94555078D01*
X12269403Y-94518422D01*
X12209976Y-94407242D01*
X12161313Y-94246823D01*
X12144883Y-94080000D01*
X12161313Y-93913177D01*
X12209976Y-93752758D01*
X12288995Y-93604924D01*
X12288996Y-93604922D01*
X12395341Y-93475341D01*
X12524922Y-93368996D01*
X12562332Y-93349000D01*
X12672758Y-93289976D01*
X12833177Y-93241313D01*
X12958196Y-93229000D01*
X13041804Y-93229000D01*
X13166823Y-93241313D01*
X13166823Y-93241313D01*
G37*
G36*
X13166823Y-90701313D02*
G01*
X13327242Y-90749976D01*
X13459906Y-90820886D01*
X13475078Y-90828996D01*
X13604659Y-90935341D01*
X13711004Y-91064922D01*
X13711005Y-91064924D01*
X13790024Y-91212758D01*
X13838687Y-91373177D01*
X13855117Y-91540000D01*
X13838687Y-91706823D01*
X13790024Y-91867242D01*
X13719114Y-91999906D01*
X13711004Y-92015078D01*
X13604659Y-92144659D01*
X13475078Y-92251004D01*
X13475076Y-92251005D01*
X13327242Y-92330024D01*
X13166823Y-92378687D01*
X13041804Y-92391000D01*
X12958196Y-92391000D01*
X12833177Y-92378687D01*
X12672758Y-92330024D01*
X12524924Y-92251005D01*
X12524922Y-92251004D01*
X12395341Y-92144659D01*
X12288996Y-92015078D01*
X12280886Y-91999906D01*
X12209976Y-91867242D01*
X12161313Y-91706823D01*
X12144883Y-91540000D01*
X12161313Y-91373177D01*
X12209976Y-91212758D01*
X12288995Y-91064924D01*
X12288996Y-91064922D01*
X12395341Y-90935341D01*
X12524922Y-90828996D01*
X12540094Y-90820886D01*
X12672758Y-90749976D01*
X12833177Y-90701313D01*
X12958196Y-90689000D01*
X13041804Y-90689000D01*
X13166823Y-90701313D01*
X13166823Y-90701313D01*
G37*
G36*
X20786823Y-90701313D02*
G01*
X20947242Y-90749976D01*
X21079906Y-90820886D01*
X21095078Y-90828996D01*
X21224659Y-90935341D01*
X21331004Y-91064922D01*
X21331005Y-91064924D01*
X21410024Y-91212758D01*
X21458687Y-91373177D01*
X21475117Y-91540000D01*
X21458687Y-91706823D01*
X21410024Y-91867242D01*
X21339114Y-91999906D01*
X21331004Y-92015078D01*
X21224659Y-92144659D01*
X21095078Y-92251004D01*
X21095076Y-92251005D01*
X20947242Y-92330024D01*
X20786823Y-92378687D01*
X20661804Y-92391000D01*
X20578196Y-92391000D01*
X20453177Y-92378687D01*
X20292758Y-92330024D01*
X20144924Y-92251005D01*
X20144922Y-92251004D01*
X20015341Y-92144659D01*
X19908996Y-92015078D01*
X19900886Y-91999906D01*
X19829976Y-91867242D01*
X19781313Y-91706823D01*
X19764883Y-91540000D01*
X19781313Y-91373177D01*
X19829976Y-91212758D01*
X19908995Y-91064924D01*
X19908996Y-91064922D01*
X20015341Y-90935341D01*
X20144922Y-90828996D01*
X20160094Y-90820886D01*
X20292758Y-90749976D01*
X20453177Y-90701313D01*
X20578196Y-90689000D01*
X20661804Y-90689000D01*
X20786823Y-90701313D01*
X20786823Y-90701313D01*
G37*
G36*
X13166823Y-88161313D02*
G01*
X13327242Y-88209976D01*
X13459906Y-88280886D01*
X13475078Y-88288996D01*
X13604659Y-88395341D01*
X13711004Y-88524922D01*
X13711005Y-88524924D01*
X13790024Y-88672758D01*
X13838687Y-88833177D01*
X13855117Y-89000000D01*
X13838687Y-89166823D01*
X13790024Y-89327242D01*
X13750599Y-89401000D01*
X13711004Y-89475078D01*
X13604659Y-89604659D01*
X13475078Y-89711004D01*
X13475076Y-89711005D01*
X13327242Y-89790024D01*
X13166823Y-89838687D01*
X13041804Y-89851000D01*
X12958196Y-89851000D01*
X12833177Y-89838687D01*
X12672758Y-89790024D01*
X12524924Y-89711005D01*
X12524922Y-89711004D01*
X12395341Y-89604659D01*
X12288996Y-89475078D01*
X12249401Y-89401000D01*
X12209976Y-89327242D01*
X12161313Y-89166823D01*
X12144883Y-89000000D01*
X12161313Y-88833177D01*
X12209976Y-88672758D01*
X12288995Y-88524924D01*
X12288996Y-88524922D01*
X12395341Y-88395341D01*
X12524922Y-88288996D01*
X12540094Y-88280886D01*
X12672758Y-88209976D01*
X12833177Y-88161313D01*
X12958196Y-88149000D01*
X13041804Y-88149000D01*
X13166823Y-88161313D01*
X13166823Y-88161313D01*
G37*
G36*
X20786823Y-88161313D02*
G01*
X20947242Y-88209976D01*
X21079906Y-88280886D01*
X21095078Y-88288996D01*
X21224659Y-88395341D01*
X21331004Y-88524922D01*
X21331005Y-88524924D01*
X21410024Y-88672758D01*
X21458687Y-88833177D01*
X21475117Y-89000000D01*
X21458687Y-89166823D01*
X21410024Y-89327242D01*
X21370599Y-89401000D01*
X21331004Y-89475078D01*
X21224659Y-89604659D01*
X21095078Y-89711004D01*
X21095076Y-89711005D01*
X20947242Y-89790024D01*
X20786823Y-89838687D01*
X20661804Y-89851000D01*
X20578196Y-89851000D01*
X20453177Y-89838687D01*
X20292758Y-89790024D01*
X20144924Y-89711005D01*
X20144922Y-89711004D01*
X20015341Y-89604659D01*
X19908996Y-89475078D01*
X19869401Y-89401000D01*
X19829976Y-89327242D01*
X19781313Y-89166823D01*
X19764883Y-89000000D01*
X19781313Y-88833177D01*
X19829976Y-88672758D01*
X19908995Y-88524924D01*
X19908996Y-88524922D01*
X20015341Y-88395341D01*
X20144922Y-88288996D01*
X20160094Y-88280886D01*
X20292758Y-88209976D01*
X20453177Y-88161313D01*
X20578196Y-88149000D01*
X20661804Y-88149000D01*
X20786823Y-88161313D01*
X20786823Y-88161313D01*
G37*
G36*
X95829487Y-86848996D02*
G01*
X96066253Y-86947068D01*
X96066255Y-86947069D01*
X96242241Y-87064659D01*
X96279339Y-87089447D01*
X96460553Y-87270661D01*
X96602932Y-87483747D01*
X96701004Y-87720513D01*
X96751000Y-87971861D01*
X96751000Y-88228139D01*
X96701004Y-88479487D01*
X96682184Y-88524922D01*
X96602931Y-88716255D01*
X96460553Y-88929339D01*
X96279339Y-89110553D01*
X96066255Y-89252931D01*
X96066254Y-89252932D01*
X96066253Y-89252932D01*
X95829487Y-89351004D01*
X95578139Y-89401000D01*
X95321861Y-89401000D01*
X95070513Y-89351004D01*
X94833747Y-89252932D01*
X94833746Y-89252932D01*
X94833745Y-89252931D01*
X94620661Y-89110553D01*
X94439447Y-88929339D01*
X94297069Y-88716255D01*
X94217816Y-88524922D01*
X94198996Y-88479487D01*
X94149000Y-88228139D01*
X94149000Y-87971861D01*
X94198996Y-87720513D01*
X94297068Y-87483747D01*
X94439447Y-87270661D01*
X94620661Y-87089447D01*
X94657759Y-87064659D01*
X94833745Y-86947069D01*
X94833747Y-86947068D01*
X95070513Y-86848996D01*
X95321861Y-86799000D01*
X95578139Y-86799000D01*
X95829487Y-86848996D01*
X95829487Y-86848996D01*
G37*
G36*
X13166823Y-85621313D02*
G01*
X13327242Y-85669976D01*
X13459906Y-85740886D01*
X13475078Y-85748996D01*
X13604659Y-85855341D01*
X13711004Y-85984922D01*
X13711005Y-85984924D01*
X13790024Y-86132758D01*
X13838687Y-86293177D01*
X13855117Y-86460000D01*
X13838687Y-86626823D01*
X13790024Y-86787242D01*
X13757015Y-86848997D01*
X13711004Y-86935078D01*
X13604659Y-87064659D01*
X13475078Y-87171004D01*
X13475076Y-87171005D01*
X13327242Y-87250024D01*
X13166823Y-87298687D01*
X13041804Y-87311000D01*
X12958196Y-87311000D01*
X12833177Y-87298687D01*
X12672758Y-87250024D01*
X12524924Y-87171005D01*
X12524922Y-87171004D01*
X12395341Y-87064659D01*
X12288996Y-86935078D01*
X12242985Y-86848997D01*
X12209976Y-86787242D01*
X12161313Y-86626823D01*
X12144883Y-86460000D01*
X12161313Y-86293177D01*
X12209976Y-86132758D01*
X12288995Y-85984924D01*
X12288996Y-85984922D01*
X12395341Y-85855341D01*
X12524922Y-85748996D01*
X12540094Y-85740886D01*
X12672758Y-85669976D01*
X12833177Y-85621313D01*
X12958196Y-85609000D01*
X13041804Y-85609000D01*
X13166823Y-85621313D01*
X13166823Y-85621313D01*
G37*
G36*
X20786823Y-85621313D02*
G01*
X20947242Y-85669976D01*
X21079906Y-85740886D01*
X21095078Y-85748996D01*
X21224659Y-85855341D01*
X21331004Y-85984922D01*
X21331005Y-85984924D01*
X21410024Y-86132758D01*
X21458687Y-86293177D01*
X21475117Y-86460000D01*
X21458687Y-86626823D01*
X21410024Y-86787242D01*
X21377015Y-86848997D01*
X21331004Y-86935078D01*
X21224659Y-87064659D01*
X21095078Y-87171004D01*
X21095076Y-87171005D01*
X20947242Y-87250024D01*
X20786823Y-87298687D01*
X20661804Y-87311000D01*
X20578196Y-87311000D01*
X20453177Y-87298687D01*
X20292758Y-87250024D01*
X20144924Y-87171005D01*
X20144922Y-87171004D01*
X20015341Y-87064659D01*
X19908996Y-86935078D01*
X19862985Y-86848997D01*
X19829976Y-86787242D01*
X19781313Y-86626823D01*
X19764883Y-86460000D01*
X19781313Y-86293177D01*
X19829976Y-86132758D01*
X19908995Y-85984924D01*
X19908996Y-85984922D01*
X20015341Y-85855341D01*
X20144922Y-85748996D01*
X20160094Y-85740886D01*
X20292758Y-85669976D01*
X20453177Y-85621313D01*
X20578196Y-85609000D01*
X20661804Y-85609000D01*
X20786823Y-85621313D01*
X20786823Y-85621313D01*
G37*
G36*
X76051000Y-85551000D02*
G01*
X73949000Y-85551000D01*
X73949000Y-83449000D01*
X76051000Y-83449000D01*
X76051000Y-85551000D01*
X76051000Y-85551000D01*
G37*
G36*
X4338855Y-82352140D02*
G01*
X4402618Y-82358420D01*
X4493404Y-82385960D01*
X4525336Y-82395646D01*
X4638425Y-82456094D01*
X4737554Y-82537446D01*
X4818906Y-82636575D01*
X4879354Y-82749664D01*
X4879355Y-82749668D01*
X4916580Y-82872382D01*
X4929149Y-83000000D01*
X4916580Y-83127618D01*
X4889040Y-83218404D01*
X4879354Y-83250336D01*
X4818906Y-83363425D01*
X4737554Y-83462554D01*
X4638425Y-83543906D01*
X4525336Y-83604354D01*
X4493404Y-83614040D01*
X4402618Y-83641580D01*
X4338855Y-83647860D01*
X4306974Y-83651000D01*
X3693026Y-83651000D01*
X3661145Y-83647860D01*
X3597382Y-83641580D01*
X3506596Y-83614040D01*
X3474664Y-83604354D01*
X3361575Y-83543906D01*
X3262446Y-83462554D01*
X3181094Y-83363425D01*
X3120646Y-83250336D01*
X3110960Y-83218404D01*
X3083420Y-83127618D01*
X3070851Y-83000000D01*
X3083420Y-82872382D01*
X3120645Y-82749668D01*
X3120646Y-82749664D01*
X3181094Y-82636575D01*
X3262446Y-82537446D01*
X3361575Y-82456094D01*
X3474664Y-82395646D01*
X3506596Y-82385960D01*
X3597382Y-82358420D01*
X3661145Y-82352140D01*
X3693026Y-82349000D01*
X4306974Y-82349000D01*
X4338855Y-82352140D01*
X4338855Y-82352140D01*
G37*
G36*
X30646823Y-80791313D02*
G01*
X30807242Y-80839976D01*
X30921410Y-80901000D01*
X30955078Y-80918996D01*
X31084659Y-81025341D01*
X31191004Y-81154922D01*
X31191005Y-81154924D01*
X31270024Y-81302758D01*
X31318687Y-81463177D01*
X31335117Y-81630000D01*
X31318687Y-81796823D01*
X31270024Y-81957242D01*
X31230597Y-82031004D01*
X31191004Y-82105078D01*
X31084659Y-82234659D01*
X30955078Y-82341004D01*
X30955076Y-82341005D01*
X30807242Y-82420024D01*
X30646823Y-82468687D01*
X30521804Y-82481000D01*
X30438196Y-82481000D01*
X30313177Y-82468687D01*
X30152758Y-82420024D01*
X30004924Y-82341005D01*
X30004922Y-82341004D01*
X29875341Y-82234659D01*
X29768996Y-82105078D01*
X29729403Y-82031004D01*
X29689976Y-81957242D01*
X29641313Y-81796823D01*
X29624883Y-81630000D01*
X29641313Y-81463177D01*
X29689976Y-81302758D01*
X29768995Y-81154924D01*
X29768996Y-81154922D01*
X29875341Y-81025341D01*
X30004922Y-80918996D01*
X30038590Y-80901000D01*
X30152758Y-80839976D01*
X30313177Y-80791313D01*
X30438196Y-80779000D01*
X30521804Y-80779000D01*
X30646823Y-80791313D01*
X30646823Y-80791313D01*
G37*
G36*
X38266823Y-80791313D02*
G01*
X38427242Y-80839976D01*
X38541410Y-80901000D01*
X38575078Y-80918996D01*
X38704659Y-81025341D01*
X38811004Y-81154922D01*
X38811005Y-81154924D01*
X38890024Y-81302758D01*
X38938687Y-81463177D01*
X38955117Y-81630000D01*
X38938687Y-81796823D01*
X38890024Y-81957242D01*
X38850597Y-82031004D01*
X38811004Y-82105078D01*
X38704659Y-82234659D01*
X38575078Y-82341004D01*
X38575076Y-82341005D01*
X38427242Y-82420024D01*
X38266823Y-82468687D01*
X38141804Y-82481000D01*
X38058196Y-82481000D01*
X37933177Y-82468687D01*
X37772758Y-82420024D01*
X37624924Y-82341005D01*
X37624922Y-82341004D01*
X37495341Y-82234659D01*
X37388996Y-82105078D01*
X37349403Y-82031004D01*
X37309976Y-81957242D01*
X37261313Y-81796823D01*
X37244883Y-81630000D01*
X37261313Y-81463177D01*
X37309976Y-81302758D01*
X37388995Y-81154924D01*
X37388996Y-81154922D01*
X37495341Y-81025341D01*
X37624922Y-80918996D01*
X37658590Y-80901000D01*
X37772758Y-80839976D01*
X37933177Y-80791313D01*
X38058196Y-80779000D01*
X38141804Y-80779000D01*
X38266823Y-80791313D01*
X38266823Y-80791313D01*
G37*
G36*
X13166823Y-80481313D02*
G01*
X13327242Y-80529976D01*
X13410265Y-80574353D01*
X13475078Y-80608996D01*
X13604659Y-80715341D01*
X13711004Y-80844922D01*
X13711005Y-80844924D01*
X13790024Y-80992758D01*
X13838687Y-81153177D01*
X13855117Y-81320000D01*
X13838687Y-81486823D01*
X13790024Y-81647242D01*
X13788015Y-81651000D01*
X13711004Y-81795078D01*
X13604659Y-81924659D01*
X13475078Y-82031004D01*
X13475076Y-82031005D01*
X13327242Y-82110024D01*
X13166823Y-82158687D01*
X13041804Y-82171000D01*
X12958196Y-82171000D01*
X12833177Y-82158687D01*
X12672758Y-82110024D01*
X12524924Y-82031005D01*
X12524922Y-82031004D01*
X12395341Y-81924659D01*
X12288996Y-81795078D01*
X12211985Y-81651000D01*
X12209976Y-81647242D01*
X12161313Y-81486823D01*
X12144883Y-81320000D01*
X12161313Y-81153177D01*
X12209976Y-80992758D01*
X12288995Y-80844924D01*
X12288996Y-80844922D01*
X12395341Y-80715341D01*
X12524922Y-80608996D01*
X12589735Y-80574353D01*
X12672758Y-80529976D01*
X12833177Y-80481313D01*
X12958196Y-80469000D01*
X13041804Y-80469000D01*
X13166823Y-80481313D01*
X13166823Y-80481313D01*
G37*
G36*
X20786823Y-80481313D02*
G01*
X20947242Y-80529976D01*
X21030265Y-80574353D01*
X21095078Y-80608996D01*
X21224659Y-80715341D01*
X21331004Y-80844922D01*
X21331005Y-80844924D01*
X21410024Y-80992758D01*
X21458687Y-81153177D01*
X21475117Y-81320000D01*
X21458687Y-81486823D01*
X21410024Y-81647242D01*
X21408015Y-81651000D01*
X21331004Y-81795078D01*
X21224659Y-81924659D01*
X21095078Y-82031004D01*
X21095076Y-82031005D01*
X20947242Y-82110024D01*
X20786823Y-82158687D01*
X20661804Y-82171000D01*
X20578196Y-82171000D01*
X20453177Y-82158687D01*
X20292758Y-82110024D01*
X20144924Y-82031005D01*
X20144922Y-82031004D01*
X20015341Y-81924659D01*
X19908996Y-81795078D01*
X19831985Y-81651000D01*
X19829976Y-81647242D01*
X19781313Y-81486823D01*
X19764883Y-81320000D01*
X19781313Y-81153177D01*
X19829976Y-80992758D01*
X19908995Y-80844924D01*
X19908996Y-80844922D01*
X20015341Y-80715341D01*
X20144922Y-80608996D01*
X20209735Y-80574353D01*
X20292758Y-80529976D01*
X20453177Y-80481313D01*
X20578196Y-80469000D01*
X20661804Y-80469000D01*
X20786823Y-80481313D01*
X20786823Y-80481313D01*
G37*
G36*
X53338855Y-80352140D02*
G01*
X53402618Y-80358420D01*
X53493404Y-80385960D01*
X53525336Y-80395646D01*
X53638425Y-80456094D01*
X53737554Y-80537446D01*
X53818906Y-80636575D01*
X53879354Y-80749664D01*
X53879355Y-80749668D01*
X53916580Y-80872382D01*
X53929149Y-81000000D01*
X53916580Y-81127618D01*
X53889040Y-81218404D01*
X53879354Y-81250336D01*
X53818906Y-81363425D01*
X53737554Y-81462554D01*
X53638425Y-81543906D01*
X53525336Y-81604354D01*
X53493404Y-81614040D01*
X53402618Y-81641580D01*
X53345160Y-81647239D01*
X53306974Y-81651000D01*
X52693026Y-81651000D01*
X52654840Y-81647239D01*
X52597382Y-81641580D01*
X52506596Y-81614040D01*
X52474664Y-81604354D01*
X52361575Y-81543906D01*
X52262446Y-81462554D01*
X52181094Y-81363425D01*
X52120646Y-81250336D01*
X52110960Y-81218404D01*
X52083420Y-81127618D01*
X52070851Y-81000000D01*
X52083420Y-80872382D01*
X52120645Y-80749668D01*
X52120646Y-80749664D01*
X52181094Y-80636575D01*
X52262446Y-80537446D01*
X52361575Y-80456094D01*
X52474664Y-80395646D01*
X52506596Y-80385960D01*
X52597382Y-80358420D01*
X52661145Y-80352140D01*
X52693026Y-80349000D01*
X53306974Y-80349000D01*
X53338855Y-80352140D01*
X53338855Y-80352140D01*
G37*
G36*
X61338855Y-80352140D02*
G01*
X61402618Y-80358420D01*
X61493404Y-80385960D01*
X61525336Y-80395646D01*
X61638425Y-80456094D01*
X61737554Y-80537446D01*
X61818906Y-80636575D01*
X61879354Y-80749664D01*
X61879355Y-80749668D01*
X61916580Y-80872382D01*
X61929149Y-81000000D01*
X61916580Y-81127618D01*
X61889040Y-81218404D01*
X61879354Y-81250336D01*
X61818906Y-81363425D01*
X61737554Y-81462554D01*
X61638425Y-81543906D01*
X61525336Y-81604354D01*
X61493404Y-81614040D01*
X61402618Y-81641580D01*
X61345160Y-81647239D01*
X61306974Y-81651000D01*
X60693026Y-81651000D01*
X60654840Y-81647239D01*
X60597382Y-81641580D01*
X60506596Y-81614040D01*
X60474664Y-81604354D01*
X60361575Y-81543906D01*
X60262446Y-81462554D01*
X60181094Y-81363425D01*
X60120646Y-81250336D01*
X60110960Y-81218404D01*
X60083420Y-81127618D01*
X60070851Y-81000000D01*
X60083420Y-80872382D01*
X60120645Y-80749668D01*
X60120646Y-80749664D01*
X60181094Y-80636575D01*
X60262446Y-80537446D01*
X60361575Y-80456094D01*
X60474664Y-80395646D01*
X60506596Y-80385960D01*
X60597382Y-80358420D01*
X60661145Y-80352140D01*
X60693026Y-80349000D01*
X61306974Y-80349000D01*
X61338855Y-80352140D01*
X61338855Y-80352140D01*
G37*
G36*
X45338855Y-80352140D02*
G01*
X45402618Y-80358420D01*
X45493404Y-80385960D01*
X45525336Y-80395646D01*
X45638425Y-80456094D01*
X45737554Y-80537446D01*
X45818906Y-80636575D01*
X45879354Y-80749664D01*
X45879355Y-80749668D01*
X45916580Y-80872382D01*
X45929149Y-81000000D01*
X45916580Y-81127618D01*
X45889040Y-81218404D01*
X45879354Y-81250336D01*
X45818906Y-81363425D01*
X45737554Y-81462554D01*
X45638425Y-81543906D01*
X45525336Y-81604354D01*
X45493404Y-81614040D01*
X45402618Y-81641580D01*
X45345160Y-81647239D01*
X45306974Y-81651000D01*
X44693026Y-81651000D01*
X44654840Y-81647239D01*
X44597382Y-81641580D01*
X44506596Y-81614040D01*
X44474664Y-81604354D01*
X44361575Y-81543906D01*
X44262446Y-81462554D01*
X44181094Y-81363425D01*
X44120646Y-81250336D01*
X44110960Y-81218404D01*
X44083420Y-81127618D01*
X44070851Y-81000000D01*
X44083420Y-80872382D01*
X44120645Y-80749668D01*
X44120646Y-80749664D01*
X44181094Y-80636575D01*
X44262446Y-80537446D01*
X44361575Y-80456094D01*
X44474664Y-80395646D01*
X44506596Y-80385960D01*
X44597382Y-80358420D01*
X44661145Y-80352140D01*
X44693026Y-80349000D01*
X45306974Y-80349000D01*
X45338855Y-80352140D01*
X45338855Y-80352140D01*
G37*
G36*
X4338855Y-80352140D02*
G01*
X4402618Y-80358420D01*
X4493404Y-80385960D01*
X4525336Y-80395646D01*
X4638425Y-80456094D01*
X4737554Y-80537446D01*
X4818906Y-80636575D01*
X4879354Y-80749664D01*
X4879355Y-80749668D01*
X4916580Y-80872382D01*
X4929149Y-81000000D01*
X4916580Y-81127618D01*
X4889040Y-81218404D01*
X4879354Y-81250336D01*
X4818906Y-81363425D01*
X4737554Y-81462554D01*
X4638425Y-81543906D01*
X4525336Y-81604354D01*
X4493404Y-81614040D01*
X4402618Y-81641580D01*
X4345160Y-81647239D01*
X4306974Y-81651000D01*
X3693026Y-81651000D01*
X3654840Y-81647239D01*
X3597382Y-81641580D01*
X3506596Y-81614040D01*
X3474664Y-81604354D01*
X3361575Y-81543906D01*
X3262446Y-81462554D01*
X3181094Y-81363425D01*
X3120646Y-81250336D01*
X3110960Y-81218404D01*
X3083420Y-81127618D01*
X3070851Y-81000000D01*
X3083420Y-80872382D01*
X3120645Y-80749668D01*
X3120646Y-80749664D01*
X3181094Y-80636575D01*
X3262446Y-80537446D01*
X3361575Y-80456094D01*
X3474664Y-80395646D01*
X3506596Y-80385960D01*
X3597382Y-80358420D01*
X3661145Y-80352140D01*
X3693026Y-80349000D01*
X4306974Y-80349000D01*
X4338855Y-80352140D01*
X4338855Y-80352140D01*
G37*
G36*
X9113512Y-79103927D02*
G01*
X9262812Y-79133624D01*
X9426784Y-79201544D01*
X9574354Y-79300147D01*
X9699853Y-79425646D01*
X9798456Y-79573216D01*
X9866376Y-79737188D01*
X9901000Y-79911259D01*
X9901000Y-80088741D01*
X9866376Y-80262812D01*
X9798456Y-80426784D01*
X9699853Y-80574354D01*
X9574354Y-80699853D01*
X9426784Y-80798456D01*
X9262812Y-80866376D01*
X9113512Y-80896073D01*
X9088742Y-80901000D01*
X8911258Y-80901000D01*
X8886488Y-80896073D01*
X8737188Y-80866376D01*
X8573216Y-80798456D01*
X8425646Y-80699853D01*
X8300147Y-80574354D01*
X8201544Y-80426784D01*
X8133624Y-80262812D01*
X8099000Y-80088741D01*
X8099000Y-79911259D01*
X8133624Y-79737188D01*
X8201544Y-79573216D01*
X8300147Y-79425646D01*
X8425646Y-79300147D01*
X8573216Y-79201544D01*
X8737188Y-79133624D01*
X8886488Y-79103927D01*
X8911258Y-79099000D01*
X9088742Y-79099000D01*
X9113512Y-79103927D01*
X9113512Y-79103927D01*
G37*
G36*
X75306564Y-78489389D02*
G01*
X75461279Y-78553474D01*
X75497835Y-78568616D01*
X75669973Y-78683635D01*
X75816365Y-78830027D01*
X75894406Y-78946823D01*
X75931385Y-79002167D01*
X76010611Y-79193436D01*
X76051000Y-79396484D01*
X76051000Y-79603516D01*
X76010611Y-79806564D01*
X75960026Y-79928687D01*
X75931384Y-79997835D01*
X75816365Y-80169973D01*
X75669973Y-80316365D01*
X75497835Y-80431384D01*
X75497834Y-80431385D01*
X75497833Y-80431385D01*
X75306564Y-80510611D01*
X75103516Y-80551000D01*
X74896484Y-80551000D01*
X74693436Y-80510611D01*
X74502167Y-80431385D01*
X74502166Y-80431385D01*
X74502165Y-80431384D01*
X74330027Y-80316365D01*
X74183635Y-80169973D01*
X74068616Y-79997835D01*
X74039974Y-79928687D01*
X73989389Y-79806564D01*
X73949000Y-79603516D01*
X73949000Y-79396484D01*
X73989389Y-79193436D01*
X74068615Y-79002167D01*
X74105595Y-78946823D01*
X74183635Y-78830027D01*
X74330027Y-78683635D01*
X74502165Y-78568616D01*
X74538721Y-78553474D01*
X74693436Y-78489389D01*
X74896484Y-78449000D01*
X75103516Y-78449000D01*
X75306564Y-78489389D01*
X75306564Y-78489389D01*
G37*
G36*
X31331000Y-79941000D02*
G01*
X29629000Y-79941000D01*
X29629000Y-78239000D01*
X31331000Y-78239000D01*
X31331000Y-79941000D01*
X31331000Y-79941000D01*
G37*
G36*
X38266823Y-78251313D02*
G01*
X38397380Y-78290917D01*
X38422232Y-78298456D01*
X38427242Y-78299976D01*
X38557589Y-78369648D01*
X38575078Y-78378996D01*
X38704659Y-78485341D01*
X38811004Y-78614922D01*
X38811005Y-78614924D01*
X38890024Y-78762758D01*
X38938687Y-78923177D01*
X38955117Y-79090000D01*
X38938687Y-79256823D01*
X38890024Y-79417242D01*
X38822321Y-79543905D01*
X38811004Y-79565078D01*
X38704659Y-79694659D01*
X38575078Y-79801004D01*
X38575076Y-79801005D01*
X38427242Y-79880024D01*
X38266823Y-79928687D01*
X38141804Y-79941000D01*
X38058196Y-79941000D01*
X37933177Y-79928687D01*
X37772758Y-79880024D01*
X37624924Y-79801005D01*
X37624922Y-79801004D01*
X37495341Y-79694659D01*
X37388996Y-79565078D01*
X37377679Y-79543905D01*
X37309976Y-79417242D01*
X37261313Y-79256823D01*
X37244883Y-79090000D01*
X37261313Y-78923177D01*
X37309976Y-78762758D01*
X37388995Y-78614924D01*
X37388996Y-78614922D01*
X37495341Y-78485341D01*
X37624922Y-78378996D01*
X37642411Y-78369648D01*
X37772758Y-78299976D01*
X37777769Y-78298456D01*
X37802620Y-78290917D01*
X37933177Y-78251313D01*
X38058196Y-78239000D01*
X38141804Y-78239000D01*
X38266823Y-78251313D01*
X38266823Y-78251313D01*
G37*
G36*
X45766242Y-78353404D02*
G01*
X45803337Y-78364657D01*
X45837515Y-78382925D01*
X45867481Y-78407519D01*
X45892075Y-78437485D01*
X45910343Y-78471663D01*
X45921596Y-78508758D01*
X45926000Y-78553474D01*
X45926000Y-79446526D01*
X45921596Y-79491242D01*
X45910343Y-79528337D01*
X45892075Y-79562515D01*
X45867481Y-79592481D01*
X45837515Y-79617075D01*
X45803337Y-79635343D01*
X45766242Y-79646596D01*
X45721526Y-79651000D01*
X44278474Y-79651000D01*
X44233758Y-79646596D01*
X44196663Y-79635343D01*
X44162485Y-79617075D01*
X44132519Y-79592481D01*
X44107925Y-79562515D01*
X44089657Y-79528337D01*
X44078404Y-79491242D01*
X44074000Y-79446526D01*
X44074000Y-78553474D01*
X44078404Y-78508758D01*
X44089657Y-78471663D01*
X44107925Y-78437485D01*
X44132519Y-78407519D01*
X44162485Y-78382925D01*
X44196663Y-78364657D01*
X44233758Y-78353404D01*
X44278474Y-78349000D01*
X45721526Y-78349000D01*
X45766242Y-78353404D01*
X45766242Y-78353404D01*
G37*
G36*
X4338855Y-78352140D02*
G01*
X4402618Y-78358420D01*
X4483400Y-78382925D01*
X4525336Y-78395646D01*
X4638425Y-78456094D01*
X4737554Y-78537446D01*
X4818906Y-78636575D01*
X4879354Y-78749664D01*
X4879355Y-78749668D01*
X4916580Y-78872382D01*
X4929149Y-79000000D01*
X4916580Y-79127618D01*
X4896614Y-79193436D01*
X4879354Y-79250336D01*
X4818906Y-79363425D01*
X4737554Y-79462554D01*
X4638425Y-79543906D01*
X4525336Y-79604354D01*
X4493404Y-79614040D01*
X4402618Y-79641580D01*
X4338855Y-79647860D01*
X4306974Y-79651000D01*
X3693026Y-79651000D01*
X3661145Y-79647860D01*
X3597382Y-79641580D01*
X3506596Y-79614040D01*
X3474664Y-79604354D01*
X3361575Y-79543906D01*
X3262446Y-79462554D01*
X3181094Y-79363425D01*
X3120646Y-79250336D01*
X3103386Y-79193436D01*
X3083420Y-79127618D01*
X3070851Y-79000000D01*
X3083420Y-78872382D01*
X3120645Y-78749668D01*
X3120646Y-78749664D01*
X3181094Y-78636575D01*
X3262446Y-78537446D01*
X3361575Y-78456094D01*
X3474664Y-78395646D01*
X3516600Y-78382925D01*
X3597382Y-78358420D01*
X3661145Y-78352140D01*
X3693026Y-78349000D01*
X4306974Y-78349000D01*
X4338855Y-78352140D01*
X4338855Y-78352140D01*
G37*
G36*
X61766242Y-78353404D02*
G01*
X61803337Y-78364657D01*
X61837515Y-78382925D01*
X61867481Y-78407519D01*
X61892075Y-78437485D01*
X61910343Y-78471663D01*
X61921596Y-78508758D01*
X61926000Y-78553474D01*
X61926000Y-79446526D01*
X61921596Y-79491242D01*
X61910343Y-79528337D01*
X61892075Y-79562515D01*
X61867481Y-79592481D01*
X61837515Y-79617075D01*
X61803337Y-79635343D01*
X61766242Y-79646596D01*
X61721526Y-79651000D01*
X60278474Y-79651000D01*
X60233758Y-79646596D01*
X60196663Y-79635343D01*
X60162485Y-79617075D01*
X60132519Y-79592481D01*
X60107925Y-79562515D01*
X60089657Y-79528337D01*
X60078404Y-79491242D01*
X60074000Y-79446526D01*
X60074000Y-78553474D01*
X60078404Y-78508758D01*
X60089657Y-78471663D01*
X60107925Y-78437485D01*
X60132519Y-78407519D01*
X60162485Y-78382925D01*
X60196663Y-78364657D01*
X60233758Y-78353404D01*
X60278474Y-78349000D01*
X61721526Y-78349000D01*
X61766242Y-78353404D01*
X61766242Y-78353404D01*
G37*
G36*
X53766242Y-78353404D02*
G01*
X53803337Y-78364657D01*
X53837515Y-78382925D01*
X53867481Y-78407519D01*
X53892075Y-78437485D01*
X53910343Y-78471663D01*
X53921596Y-78508758D01*
X53926000Y-78553474D01*
X53926000Y-79446526D01*
X53921596Y-79491242D01*
X53910343Y-79528337D01*
X53892075Y-79562515D01*
X53867481Y-79592481D01*
X53837515Y-79617075D01*
X53803337Y-79635343D01*
X53766242Y-79646596D01*
X53721526Y-79651000D01*
X52278474Y-79651000D01*
X52233758Y-79646596D01*
X52196663Y-79635343D01*
X52162485Y-79617075D01*
X52132519Y-79592481D01*
X52107925Y-79562515D01*
X52089657Y-79528337D01*
X52078404Y-79491242D01*
X52074000Y-79446526D01*
X52074000Y-78553474D01*
X52078404Y-78508758D01*
X52089657Y-78471663D01*
X52107925Y-78437485D01*
X52132519Y-78407519D01*
X52162485Y-78382925D01*
X52196663Y-78364657D01*
X52233758Y-78353404D01*
X52278474Y-78349000D01*
X53721526Y-78349000D01*
X53766242Y-78353404D01*
X53766242Y-78353404D01*
G37*
G36*
X13166823Y-77941313D02*
G01*
X13327242Y-77989976D01*
X13459906Y-78060886D01*
X13475078Y-78068996D01*
X13604659Y-78175341D01*
X13711004Y-78304922D01*
X13711005Y-78304924D01*
X13790024Y-78452758D01*
X13838687Y-78613177D01*
X13855117Y-78780000D01*
X13838687Y-78946823D01*
X13790024Y-79107242D01*
X13743953Y-79193435D01*
X13711004Y-79255078D01*
X13604659Y-79384659D01*
X13475078Y-79491004D01*
X13475076Y-79491005D01*
X13327242Y-79570024D01*
X13327239Y-79570025D01*
X13316713Y-79573218D01*
X13166823Y-79618687D01*
X13041804Y-79631000D01*
X12958196Y-79631000D01*
X12833177Y-79618687D01*
X12683287Y-79573218D01*
X12672761Y-79570025D01*
X12672758Y-79570024D01*
X12524924Y-79491005D01*
X12524922Y-79491004D01*
X12395341Y-79384659D01*
X12288996Y-79255078D01*
X12256047Y-79193435D01*
X12209976Y-79107242D01*
X12161313Y-78946823D01*
X12144883Y-78780000D01*
X12161313Y-78613177D01*
X12209976Y-78452758D01*
X12288995Y-78304924D01*
X12288996Y-78304922D01*
X12395341Y-78175341D01*
X12524922Y-78068996D01*
X12540094Y-78060886D01*
X12672758Y-77989976D01*
X12833177Y-77941313D01*
X12958196Y-77929000D01*
X13041804Y-77929000D01*
X13166823Y-77941313D01*
X13166823Y-77941313D01*
G37*
G36*
X20786823Y-77941313D02*
G01*
X20947242Y-77989976D01*
X21079906Y-78060886D01*
X21095078Y-78068996D01*
X21224659Y-78175341D01*
X21331004Y-78304922D01*
X21331005Y-78304924D01*
X21410024Y-78452758D01*
X21458687Y-78613177D01*
X21475117Y-78780000D01*
X21458687Y-78946823D01*
X21410024Y-79107242D01*
X21363953Y-79193435D01*
X21331004Y-79255078D01*
X21224659Y-79384659D01*
X21095078Y-79491004D01*
X21095076Y-79491005D01*
X20947242Y-79570024D01*
X20947239Y-79570025D01*
X20936713Y-79573218D01*
X20786823Y-79618687D01*
X20661804Y-79631000D01*
X20578196Y-79631000D01*
X20453177Y-79618687D01*
X20303287Y-79573218D01*
X20292761Y-79570025D01*
X20292758Y-79570024D01*
X20144924Y-79491005D01*
X20144922Y-79491004D01*
X20015341Y-79384659D01*
X19908996Y-79255078D01*
X19876047Y-79193435D01*
X19829976Y-79107242D01*
X19781313Y-78946823D01*
X19764883Y-78780000D01*
X19781313Y-78613177D01*
X19829976Y-78452758D01*
X19908995Y-78304924D01*
X19908996Y-78304922D01*
X20015341Y-78175341D01*
X20144922Y-78068996D01*
X20160094Y-78060886D01*
X20292758Y-77989976D01*
X20453177Y-77941313D01*
X20578196Y-77929000D01*
X20661804Y-77929000D01*
X20786823Y-77941313D01*
X20786823Y-77941313D01*
G37*
G36*
X9113512Y-76603927D02*
G01*
X9262812Y-76633624D01*
X9426784Y-76701544D01*
X9574354Y-76800147D01*
X9699853Y-76925646D01*
X9798456Y-77073216D01*
X9866376Y-77237188D01*
X9886831Y-77340025D01*
X9898960Y-77401000D01*
X9901000Y-77411259D01*
X9901000Y-77588741D01*
X9866376Y-77762812D01*
X9798456Y-77926784D01*
X9699853Y-78074354D01*
X9574354Y-78199853D01*
X9426784Y-78298456D01*
X9262812Y-78366376D01*
X9115663Y-78395645D01*
X9088742Y-78401000D01*
X8911258Y-78401000D01*
X8884337Y-78395645D01*
X8737188Y-78366376D01*
X8573216Y-78298456D01*
X8425646Y-78199853D01*
X8300147Y-78074354D01*
X8201544Y-77926784D01*
X8133624Y-77762812D01*
X8099000Y-77588741D01*
X8099000Y-77411259D01*
X8101041Y-77401000D01*
X8113169Y-77340025D01*
X8133624Y-77237188D01*
X8201544Y-77073216D01*
X8300147Y-76925646D01*
X8425646Y-76800147D01*
X8573216Y-76701544D01*
X8737188Y-76633624D01*
X8886488Y-76603927D01*
X8911258Y-76599000D01*
X9088742Y-76599000D01*
X9113512Y-76603927D01*
X9113512Y-76603927D01*
G37*
G36*
X4766242Y-76353404D02*
G01*
X4803337Y-76364657D01*
X4837515Y-76382925D01*
X4867481Y-76407519D01*
X4892075Y-76437485D01*
X4910343Y-76471663D01*
X4921596Y-76508758D01*
X4926000Y-76553474D01*
X4926000Y-77446526D01*
X4921596Y-77491242D01*
X4910343Y-77528337D01*
X4892075Y-77562515D01*
X4867481Y-77592481D01*
X4837515Y-77617075D01*
X4803337Y-77635343D01*
X4766242Y-77646596D01*
X4721526Y-77651000D01*
X3278474Y-77651000D01*
X3233758Y-77646596D01*
X3196663Y-77635343D01*
X3162485Y-77617075D01*
X3132519Y-77592481D01*
X3107925Y-77562515D01*
X3089657Y-77528337D01*
X3078404Y-77491242D01*
X3074000Y-77446526D01*
X3074000Y-76553474D01*
X3078404Y-76508758D01*
X3089657Y-76471663D01*
X3107925Y-76437485D01*
X3132519Y-76407519D01*
X3162485Y-76382925D01*
X3196663Y-76364657D01*
X3233758Y-76353404D01*
X3278474Y-76349000D01*
X4721526Y-76349000D01*
X4766242Y-76353404D01*
X4766242Y-76353404D01*
G37*
G36*
X30646823Y-75711313D02*
G01*
X30807242Y-75759976D01*
X30939906Y-75830886D01*
X30955078Y-75838996D01*
X31084659Y-75945341D01*
X31191004Y-76074922D01*
X31191005Y-76074924D01*
X31270024Y-76222758D01*
X31318687Y-76383177D01*
X31335117Y-76550000D01*
X31318687Y-76716823D01*
X31270024Y-76877242D01*
X31244151Y-76925646D01*
X31191004Y-77025078D01*
X31084659Y-77154659D01*
X30955078Y-77261004D01*
X30955076Y-77261005D01*
X30807242Y-77340024D01*
X30646823Y-77388687D01*
X30521804Y-77401000D01*
X30438196Y-77401000D01*
X30313177Y-77388687D01*
X30152758Y-77340024D01*
X30004924Y-77261005D01*
X30004922Y-77261004D01*
X29875341Y-77154659D01*
X29768996Y-77025078D01*
X29715849Y-76925646D01*
X29689976Y-76877242D01*
X29641313Y-76716823D01*
X29624883Y-76550000D01*
X29641313Y-76383177D01*
X29689976Y-76222758D01*
X29768995Y-76074924D01*
X29768996Y-76074922D01*
X29875341Y-75945341D01*
X30004922Y-75838996D01*
X30020094Y-75830886D01*
X30152758Y-75759976D01*
X30313177Y-75711313D01*
X30438196Y-75699000D01*
X30521804Y-75699000D01*
X30646823Y-75711313D01*
X30646823Y-75711313D01*
G37*
G36*
X38266823Y-75711313D02*
G01*
X38427242Y-75759976D01*
X38559906Y-75830886D01*
X38575078Y-75838996D01*
X38704659Y-75945341D01*
X38811004Y-76074922D01*
X38811005Y-76074924D01*
X38890024Y-76222758D01*
X38938687Y-76383177D01*
X38955117Y-76550000D01*
X38938687Y-76716823D01*
X38890024Y-76877242D01*
X38864151Y-76925646D01*
X38811004Y-77025078D01*
X38704659Y-77154659D01*
X38575078Y-77261004D01*
X38575076Y-77261005D01*
X38427242Y-77340024D01*
X38266823Y-77388687D01*
X38141804Y-77401000D01*
X38058196Y-77401000D01*
X37933177Y-77388687D01*
X37772758Y-77340024D01*
X37624924Y-77261005D01*
X37624922Y-77261004D01*
X37495341Y-77154659D01*
X37388996Y-77025078D01*
X37335849Y-76925646D01*
X37309976Y-76877242D01*
X37261313Y-76716823D01*
X37244883Y-76550000D01*
X37261313Y-76383177D01*
X37309976Y-76222758D01*
X37388995Y-76074924D01*
X37388996Y-76074922D01*
X37495341Y-75945341D01*
X37624922Y-75838996D01*
X37640094Y-75830886D01*
X37772758Y-75759976D01*
X37933177Y-75711313D01*
X38058196Y-75699000D01*
X38141804Y-75699000D01*
X38266823Y-75711313D01*
X38266823Y-75711313D01*
G37*
G36*
X20786823Y-75401313D02*
G01*
X20947242Y-75449976D01*
X21079906Y-75520886D01*
X21095078Y-75528996D01*
X21224659Y-75635341D01*
X21331004Y-75764922D01*
X21331005Y-75764924D01*
X21410024Y-75912758D01*
X21458687Y-76073177D01*
X21475117Y-76240000D01*
X21458687Y-76406823D01*
X21410024Y-76567242D01*
X21339114Y-76699906D01*
X21331004Y-76715078D01*
X21224659Y-76844659D01*
X21095078Y-76951004D01*
X21095076Y-76951005D01*
X20947242Y-77030024D01*
X20786823Y-77078687D01*
X20661804Y-77091000D01*
X20578196Y-77091000D01*
X20453177Y-77078687D01*
X20292758Y-77030024D01*
X20144924Y-76951005D01*
X20144922Y-76951004D01*
X20015341Y-76844659D01*
X19908996Y-76715078D01*
X19900886Y-76699906D01*
X19829976Y-76567242D01*
X19781313Y-76406823D01*
X19764883Y-76240000D01*
X19781313Y-76073177D01*
X19829976Y-75912758D01*
X19908995Y-75764924D01*
X19908996Y-75764922D01*
X20015341Y-75635341D01*
X20144922Y-75528996D01*
X20160094Y-75520886D01*
X20292758Y-75449976D01*
X20453177Y-75401313D01*
X20578196Y-75389000D01*
X20661804Y-75389000D01*
X20786823Y-75401313D01*
X20786823Y-75401313D01*
G37*
G36*
X13166823Y-75401313D02*
G01*
X13327242Y-75449976D01*
X13459906Y-75520886D01*
X13475078Y-75528996D01*
X13604659Y-75635341D01*
X13711004Y-75764922D01*
X13711005Y-75764924D01*
X13790024Y-75912758D01*
X13838687Y-76073177D01*
X13855117Y-76240000D01*
X13838687Y-76406823D01*
X13790024Y-76567242D01*
X13719114Y-76699906D01*
X13711004Y-76715078D01*
X13604659Y-76844659D01*
X13475078Y-76951004D01*
X13475076Y-76951005D01*
X13327242Y-77030024D01*
X13166823Y-77078687D01*
X13041804Y-77091000D01*
X12958196Y-77091000D01*
X12833177Y-77078687D01*
X12672758Y-77030024D01*
X12524924Y-76951005D01*
X12524922Y-76951004D01*
X12395341Y-76844659D01*
X12288996Y-76715078D01*
X12280886Y-76699906D01*
X12209976Y-76567242D01*
X12161313Y-76406823D01*
X12144883Y-76240000D01*
X12161313Y-76073177D01*
X12209976Y-75912758D01*
X12288995Y-75764924D01*
X12288996Y-75764922D01*
X12395341Y-75635341D01*
X12524922Y-75528996D01*
X12540094Y-75520886D01*
X12672758Y-75449976D01*
X12833177Y-75401313D01*
X12958196Y-75389000D01*
X13041804Y-75389000D01*
X13166823Y-75401313D01*
X13166823Y-75401313D01*
G37*
G36*
X95829487Y-73448996D02*
G01*
X96066253Y-73547068D01*
X96066255Y-73547069D01*
X96269328Y-73682758D01*
X96279339Y-73689447D01*
X96460553Y-73870661D01*
X96602932Y-74083747D01*
X96701004Y-74320513D01*
X96751000Y-74571861D01*
X96751000Y-74828139D01*
X96701004Y-75079487D01*
X96697170Y-75088742D01*
X96602931Y-75316255D01*
X96460553Y-75529339D01*
X96279339Y-75710553D01*
X96066255Y-75852931D01*
X96066254Y-75852932D01*
X96066253Y-75852932D01*
X95829487Y-75951004D01*
X95578139Y-76001000D01*
X95321861Y-76001000D01*
X95070513Y-75951004D01*
X94833747Y-75852932D01*
X94833746Y-75852932D01*
X94833745Y-75852931D01*
X94620661Y-75710553D01*
X94439447Y-75529339D01*
X94297069Y-75316255D01*
X94202830Y-75088742D01*
X94198996Y-75079487D01*
X94149000Y-74828139D01*
X94149000Y-74571861D01*
X94198996Y-74320513D01*
X94297068Y-74083747D01*
X94439447Y-73870661D01*
X94620661Y-73689447D01*
X94630672Y-73682758D01*
X94833745Y-73547069D01*
X94833747Y-73547068D01*
X95070513Y-73448996D01*
X95321861Y-73399000D01*
X95578139Y-73399000D01*
X95829487Y-73448996D01*
X95829487Y-73448996D01*
G37*
G36*
X9113512Y-74103927D02*
G01*
X9262812Y-74133624D01*
X9426784Y-74201544D01*
X9574354Y-74300147D01*
X9699853Y-74425646D01*
X9798456Y-74573216D01*
X9866376Y-74737188D01*
X9901000Y-74911259D01*
X9901000Y-75088741D01*
X9866376Y-75262812D01*
X9798456Y-75426784D01*
X9699853Y-75574354D01*
X9574354Y-75699853D01*
X9426784Y-75798456D01*
X9262812Y-75866376D01*
X9113512Y-75896073D01*
X9088742Y-75901000D01*
X8911258Y-75901000D01*
X8886488Y-75896073D01*
X8737188Y-75866376D01*
X8573216Y-75798456D01*
X8425646Y-75699853D01*
X8300147Y-75574354D01*
X8201544Y-75426784D01*
X8133624Y-75262812D01*
X8099000Y-75088741D01*
X8099000Y-74911259D01*
X8133624Y-74737188D01*
X8201544Y-74573216D01*
X8300147Y-74425646D01*
X8425646Y-74300147D01*
X8573216Y-74201544D01*
X8737188Y-74133624D01*
X8886488Y-74103927D01*
X8911258Y-74099000D01*
X9088742Y-74099000D01*
X9113512Y-74103927D01*
X9113512Y-74103927D01*
G37*
G36*
X38266823Y-73171313D02*
G01*
X38427242Y-73219976D01*
X38559906Y-73290886D01*
X38575078Y-73298996D01*
X38704659Y-73405341D01*
X38811004Y-73534922D01*
X38811005Y-73534924D01*
X38890024Y-73682758D01*
X38938687Y-73843177D01*
X38955117Y-74010000D01*
X38938687Y-74176823D01*
X38890024Y-74337242D01*
X38850597Y-74411004D01*
X38811004Y-74485078D01*
X38704659Y-74614659D01*
X38575078Y-74721004D01*
X38575076Y-74721005D01*
X38427242Y-74800024D01*
X38266823Y-74848687D01*
X38141804Y-74861000D01*
X38058196Y-74861000D01*
X37933177Y-74848687D01*
X37772758Y-74800024D01*
X37624924Y-74721005D01*
X37624922Y-74721004D01*
X37495341Y-74614659D01*
X37388996Y-74485078D01*
X37349403Y-74411004D01*
X37309976Y-74337242D01*
X37261313Y-74176823D01*
X37244883Y-74010000D01*
X37261313Y-73843177D01*
X37309976Y-73682758D01*
X37388995Y-73534924D01*
X37388996Y-73534922D01*
X37495341Y-73405341D01*
X37624922Y-73298996D01*
X37640094Y-73290886D01*
X37772758Y-73219976D01*
X37933177Y-73171313D01*
X38058196Y-73159000D01*
X38141804Y-73159000D01*
X38266823Y-73171313D01*
X38266823Y-73171313D01*
G37*
G36*
X31331000Y-74861000D02*
G01*
X29629000Y-74861000D01*
X29629000Y-73159000D01*
X31331000Y-73159000D01*
X31331000Y-74861000D01*
X31331000Y-74861000D01*
G37*
G36*
X13166823Y-72861313D02*
G01*
X13327242Y-72909976D01*
X13459906Y-72980886D01*
X13475078Y-72988996D01*
X13604659Y-73095341D01*
X13711004Y-73224922D01*
X13711005Y-73224924D01*
X13790024Y-73372758D01*
X13790025Y-73372761D01*
X13799083Y-73402620D01*
X13838687Y-73533177D01*
X13855117Y-73700000D01*
X13838687Y-73866823D01*
X13790024Y-74027242D01*
X13733161Y-74133625D01*
X13711004Y-74175078D01*
X13604659Y-74304659D01*
X13475078Y-74411004D01*
X13475076Y-74411005D01*
X13327242Y-74490024D01*
X13166823Y-74538687D01*
X13041804Y-74551000D01*
X12958196Y-74551000D01*
X12833177Y-74538687D01*
X12672758Y-74490024D01*
X12524924Y-74411005D01*
X12524922Y-74411004D01*
X12395341Y-74304659D01*
X12288996Y-74175078D01*
X12266839Y-74133625D01*
X12209976Y-74027242D01*
X12161313Y-73866823D01*
X12144883Y-73700000D01*
X12161313Y-73533177D01*
X12200917Y-73402620D01*
X12209975Y-73372761D01*
X12209976Y-73372758D01*
X12288995Y-73224924D01*
X12288996Y-73224922D01*
X12395341Y-73095341D01*
X12524922Y-72988996D01*
X12540094Y-72980886D01*
X12672758Y-72909976D01*
X12833177Y-72861313D01*
X12958196Y-72849000D01*
X13041804Y-72849000D01*
X13166823Y-72861313D01*
X13166823Y-72861313D01*
G37*
G36*
X20786823Y-72861313D02*
G01*
X20947242Y-72909976D01*
X21079906Y-72980886D01*
X21095078Y-72988996D01*
X21224659Y-73095341D01*
X21331004Y-73224922D01*
X21331005Y-73224924D01*
X21410024Y-73372758D01*
X21410025Y-73372761D01*
X21419083Y-73402620D01*
X21458687Y-73533177D01*
X21475117Y-73700000D01*
X21458687Y-73866823D01*
X21410024Y-74027242D01*
X21353161Y-74133625D01*
X21331004Y-74175078D01*
X21224659Y-74304659D01*
X21095078Y-74411004D01*
X21095076Y-74411005D01*
X20947242Y-74490024D01*
X20786823Y-74538687D01*
X20661804Y-74551000D01*
X20578196Y-74551000D01*
X20453177Y-74538687D01*
X20292758Y-74490024D01*
X20144924Y-74411005D01*
X20144922Y-74411004D01*
X20015341Y-74304659D01*
X19908996Y-74175078D01*
X19886839Y-74133625D01*
X19829976Y-74027242D01*
X19781313Y-73866823D01*
X19764883Y-73700000D01*
X19781313Y-73533177D01*
X19820917Y-73402620D01*
X19829975Y-73372761D01*
X19829976Y-73372758D01*
X19908995Y-73224924D01*
X19908996Y-73224922D01*
X20015341Y-73095341D01*
X20144922Y-72988996D01*
X20160094Y-72980886D01*
X20292758Y-72909976D01*
X20453177Y-72861313D01*
X20578196Y-72849000D01*
X20661804Y-72849000D01*
X20786823Y-72861313D01*
X20786823Y-72861313D01*
G37*
G36*
X38266823Y-70631313D02*
G01*
X38427242Y-70679976D01*
X38559906Y-70750886D01*
X38575078Y-70758996D01*
X38704659Y-70865341D01*
X38811004Y-70994922D01*
X38811005Y-70994924D01*
X38890024Y-71142758D01*
X38938687Y-71303177D01*
X38955117Y-71470000D01*
X38938687Y-71636823D01*
X38890024Y-71797242D01*
X38850597Y-71871004D01*
X38811004Y-71945078D01*
X38704659Y-72074659D01*
X38575078Y-72181004D01*
X38575076Y-72181005D01*
X38427242Y-72260024D01*
X38266823Y-72308687D01*
X38141804Y-72321000D01*
X38058196Y-72321000D01*
X37933177Y-72308687D01*
X37772758Y-72260024D01*
X37624924Y-72181005D01*
X37624922Y-72181004D01*
X37495341Y-72074659D01*
X37388996Y-71945078D01*
X37349403Y-71871004D01*
X37309976Y-71797242D01*
X37261313Y-71636823D01*
X37244883Y-71470000D01*
X37261313Y-71303177D01*
X37309976Y-71142758D01*
X37388995Y-70994924D01*
X37388996Y-70994922D01*
X37495341Y-70865341D01*
X37624922Y-70758996D01*
X37640094Y-70750886D01*
X37772758Y-70679976D01*
X37933177Y-70631313D01*
X38058196Y-70619000D01*
X38141804Y-70619000D01*
X38266823Y-70631313D01*
X38266823Y-70631313D01*
G37*
G36*
X30646823Y-70631313D02*
G01*
X30807242Y-70679976D01*
X30939906Y-70750886D01*
X30955078Y-70758996D01*
X31084659Y-70865341D01*
X31191004Y-70994922D01*
X31191005Y-70994924D01*
X31270024Y-71142758D01*
X31318687Y-71303177D01*
X31335117Y-71470000D01*
X31318687Y-71636823D01*
X31270024Y-71797242D01*
X31230597Y-71871004D01*
X31191004Y-71945078D01*
X31084659Y-72074659D01*
X30955078Y-72181004D01*
X30955076Y-72181005D01*
X30807242Y-72260024D01*
X30646823Y-72308687D01*
X30521804Y-72321000D01*
X30438196Y-72321000D01*
X30313177Y-72308687D01*
X30152758Y-72260024D01*
X30004924Y-72181005D01*
X30004922Y-72181004D01*
X29875341Y-72074659D01*
X29768996Y-71945078D01*
X29729403Y-71871004D01*
X29689976Y-71797242D01*
X29641313Y-71636823D01*
X29624883Y-71470000D01*
X29641313Y-71303177D01*
X29689976Y-71142758D01*
X29768995Y-70994924D01*
X29768996Y-70994922D01*
X29875341Y-70865341D01*
X30004922Y-70758996D01*
X30020094Y-70750886D01*
X30152758Y-70679976D01*
X30313177Y-70631313D01*
X30438196Y-70619000D01*
X30521804Y-70619000D01*
X30646823Y-70631313D01*
X30646823Y-70631313D01*
G37*
G36*
X20786823Y-70321313D02*
G01*
X20947242Y-70369976D01*
X21079906Y-70440886D01*
X21095078Y-70448996D01*
X21224659Y-70555341D01*
X21331004Y-70684922D01*
X21331005Y-70684924D01*
X21410024Y-70832758D01*
X21458687Y-70993177D01*
X21475117Y-71160000D01*
X21458687Y-71326823D01*
X21410024Y-71487242D01*
X21339114Y-71619906D01*
X21331004Y-71635078D01*
X21224659Y-71764659D01*
X21095078Y-71871004D01*
X21095076Y-71871005D01*
X20947242Y-71950024D01*
X20786823Y-71998687D01*
X20661804Y-72011000D01*
X20578196Y-72011000D01*
X20453177Y-71998687D01*
X20292758Y-71950024D01*
X20144924Y-71871005D01*
X20144922Y-71871004D01*
X20015341Y-71764659D01*
X19908996Y-71635078D01*
X19900886Y-71619906D01*
X19829976Y-71487242D01*
X19781313Y-71326823D01*
X19764883Y-71160000D01*
X19781313Y-70993177D01*
X19829976Y-70832758D01*
X19908995Y-70684924D01*
X19908996Y-70684922D01*
X20015341Y-70555341D01*
X20144922Y-70448996D01*
X20160094Y-70440886D01*
X20292758Y-70369976D01*
X20453177Y-70321313D01*
X20578196Y-70309000D01*
X20661804Y-70309000D01*
X20786823Y-70321313D01*
X20786823Y-70321313D01*
G37*
G36*
X13166823Y-70321313D02*
G01*
X13327242Y-70369976D01*
X13459906Y-70440886D01*
X13475078Y-70448996D01*
X13604659Y-70555341D01*
X13711004Y-70684922D01*
X13711005Y-70684924D01*
X13790024Y-70832758D01*
X13838687Y-70993177D01*
X13855117Y-71160000D01*
X13838687Y-71326823D01*
X13790024Y-71487242D01*
X13719114Y-71619906D01*
X13711004Y-71635078D01*
X13604659Y-71764659D01*
X13475078Y-71871004D01*
X13475076Y-71871005D01*
X13327242Y-71950024D01*
X13166823Y-71998687D01*
X13041804Y-72011000D01*
X12958196Y-72011000D01*
X12833177Y-71998687D01*
X12672758Y-71950024D01*
X12524924Y-71871005D01*
X12524922Y-71871004D01*
X12395341Y-71764659D01*
X12288996Y-71635078D01*
X12280886Y-71619906D01*
X12209976Y-71487242D01*
X12161313Y-71326823D01*
X12144883Y-71160000D01*
X12161313Y-70993177D01*
X12209976Y-70832758D01*
X12288995Y-70684924D01*
X12288996Y-70684922D01*
X12395341Y-70555341D01*
X12524922Y-70448996D01*
X12540094Y-70440886D01*
X12672758Y-70369976D01*
X12833177Y-70321313D01*
X12958196Y-70309000D01*
X13041804Y-70309000D01*
X13166823Y-70321313D01*
X13166823Y-70321313D01*
G37*
G36*
X31331000Y-69781000D02*
G01*
X29629000Y-69781000D01*
X29629000Y-68079000D01*
X31331000Y-68079000D01*
X31331000Y-69781000D01*
X31331000Y-69781000D01*
G37*
G36*
X38266823Y-68091313D02*
G01*
X38427242Y-68139976D01*
X38559906Y-68210886D01*
X38575078Y-68218996D01*
X38704659Y-68325341D01*
X38811004Y-68454922D01*
X38811005Y-68454924D01*
X38890024Y-68602758D01*
X38938687Y-68763177D01*
X38955117Y-68930000D01*
X38938687Y-69096823D01*
X38890024Y-69257242D01*
X38850597Y-69331004D01*
X38811004Y-69405078D01*
X38704659Y-69534659D01*
X38575078Y-69641004D01*
X38575076Y-69641005D01*
X38427242Y-69720024D01*
X38266823Y-69768687D01*
X38141804Y-69781000D01*
X38058196Y-69781000D01*
X37933177Y-69768687D01*
X37772758Y-69720024D01*
X37624924Y-69641005D01*
X37624922Y-69641004D01*
X37495341Y-69534659D01*
X37388996Y-69405078D01*
X37349403Y-69331004D01*
X37309976Y-69257242D01*
X37261313Y-69096823D01*
X37244883Y-68930000D01*
X37261313Y-68763177D01*
X37309976Y-68602758D01*
X37388995Y-68454924D01*
X37388996Y-68454922D01*
X37495341Y-68325341D01*
X37624922Y-68218996D01*
X37640094Y-68210886D01*
X37772758Y-68139976D01*
X37933177Y-68091313D01*
X38058196Y-68079000D01*
X38141804Y-68079000D01*
X38266823Y-68091313D01*
X38266823Y-68091313D01*
G37*
G36*
X20786823Y-67781313D02*
G01*
X20947242Y-67829976D01*
X21079906Y-67900886D01*
X21095078Y-67908996D01*
X21224659Y-68015341D01*
X21331004Y-68144922D01*
X21331005Y-68144924D01*
X21410024Y-68292758D01*
X21458687Y-68453177D01*
X21475117Y-68620000D01*
X21458687Y-68786823D01*
X21410024Y-68947242D01*
X21339114Y-69079906D01*
X21331004Y-69095078D01*
X21224659Y-69224659D01*
X21095078Y-69331004D01*
X21095076Y-69331005D01*
X20947242Y-69410024D01*
X20786823Y-69458687D01*
X20661804Y-69471000D01*
X20578196Y-69471000D01*
X20453177Y-69458687D01*
X20292758Y-69410024D01*
X20144924Y-69331005D01*
X20144922Y-69331004D01*
X20015341Y-69224659D01*
X19908996Y-69095078D01*
X19900886Y-69079906D01*
X19829976Y-68947242D01*
X19781313Y-68786823D01*
X19764883Y-68620000D01*
X19781313Y-68453177D01*
X19829976Y-68292758D01*
X19908995Y-68144924D01*
X19908996Y-68144922D01*
X20015341Y-68015341D01*
X20144922Y-67908996D01*
X20160094Y-67900886D01*
X20292758Y-67829976D01*
X20453177Y-67781313D01*
X20578196Y-67769000D01*
X20661804Y-67769000D01*
X20786823Y-67781313D01*
X20786823Y-67781313D01*
G37*
G36*
X13166823Y-67781313D02*
G01*
X13327242Y-67829976D01*
X13459906Y-67900886D01*
X13475078Y-67908996D01*
X13604659Y-68015341D01*
X13711004Y-68144922D01*
X13711005Y-68144924D01*
X13790024Y-68292758D01*
X13838687Y-68453177D01*
X13855117Y-68620000D01*
X13838687Y-68786823D01*
X13790024Y-68947242D01*
X13719114Y-69079906D01*
X13711004Y-69095078D01*
X13604659Y-69224659D01*
X13475078Y-69331004D01*
X13475076Y-69331005D01*
X13327242Y-69410024D01*
X13166823Y-69458687D01*
X13041804Y-69471000D01*
X12958196Y-69471000D01*
X12833177Y-69458687D01*
X12672758Y-69410024D01*
X12524924Y-69331005D01*
X12524922Y-69331004D01*
X12395341Y-69224659D01*
X12288996Y-69095078D01*
X12280886Y-69079906D01*
X12209976Y-68947242D01*
X12161313Y-68786823D01*
X12144883Y-68620000D01*
X12161313Y-68453177D01*
X12209976Y-68292758D01*
X12288995Y-68144924D01*
X12288996Y-68144922D01*
X12395341Y-68015341D01*
X12524922Y-67908996D01*
X12540094Y-67900886D01*
X12672758Y-67829976D01*
X12833177Y-67781313D01*
X12958196Y-67769000D01*
X13041804Y-67769000D01*
X13166823Y-67781313D01*
X13166823Y-67781313D01*
G37*
G36*
X4338855Y-66352140D02*
G01*
X4402618Y-66358420D01*
X4493404Y-66385960D01*
X4525336Y-66395646D01*
X4638425Y-66456094D01*
X4737554Y-66537446D01*
X4818906Y-66636575D01*
X4879354Y-66749664D01*
X4879355Y-66749668D01*
X4916580Y-66872382D01*
X4929149Y-67000000D01*
X4916580Y-67127618D01*
X4889040Y-67218404D01*
X4879354Y-67250336D01*
X4818906Y-67363425D01*
X4737554Y-67462554D01*
X4638425Y-67543906D01*
X4525336Y-67604354D01*
X4493404Y-67614040D01*
X4402618Y-67641580D01*
X4338855Y-67647860D01*
X4306974Y-67651000D01*
X3693026Y-67651000D01*
X3661145Y-67647860D01*
X3597382Y-67641580D01*
X3506596Y-67614040D01*
X3474664Y-67604354D01*
X3361575Y-67543906D01*
X3262446Y-67462554D01*
X3181094Y-67363425D01*
X3120646Y-67250336D01*
X3110960Y-67218404D01*
X3083420Y-67127618D01*
X3070851Y-67000000D01*
X3083420Y-66872382D01*
X3120645Y-66749668D01*
X3120646Y-66749664D01*
X3181094Y-66636575D01*
X3262446Y-66537446D01*
X3361575Y-66456094D01*
X3474664Y-66395646D01*
X3506596Y-66385960D01*
X3597382Y-66358420D01*
X3661145Y-66352140D01*
X3693026Y-66349000D01*
X4306974Y-66349000D01*
X4338855Y-66352140D01*
X4338855Y-66352140D01*
G37*
G36*
X13166823Y-65241313D02*
G01*
X13327242Y-65289976D01*
X13459906Y-65360886D01*
X13475078Y-65368996D01*
X13604659Y-65475341D01*
X13711004Y-65604922D01*
X13711005Y-65604924D01*
X13790024Y-65752758D01*
X13838687Y-65913177D01*
X13855117Y-66080000D01*
X13838687Y-66246823D01*
X13790024Y-66407242D01*
X13720428Y-66537446D01*
X13711004Y-66555078D01*
X13604659Y-66684659D01*
X13475078Y-66791004D01*
X13475076Y-66791005D01*
X13327242Y-66870024D01*
X13166823Y-66918687D01*
X13041804Y-66931000D01*
X12958196Y-66931000D01*
X12833177Y-66918687D01*
X12672758Y-66870024D01*
X12524924Y-66791005D01*
X12524922Y-66791004D01*
X12395341Y-66684659D01*
X12288996Y-66555078D01*
X12279572Y-66537446D01*
X12209976Y-66407242D01*
X12161313Y-66246823D01*
X12144883Y-66080000D01*
X12161313Y-65913177D01*
X12209976Y-65752758D01*
X12288995Y-65604924D01*
X12288996Y-65604922D01*
X12395341Y-65475341D01*
X12524922Y-65368996D01*
X12540094Y-65360886D01*
X12672758Y-65289976D01*
X12833177Y-65241313D01*
X12958196Y-65229000D01*
X13041804Y-65229000D01*
X13166823Y-65241313D01*
X13166823Y-65241313D01*
G37*
G36*
X20786823Y-65241313D02*
G01*
X20947242Y-65289976D01*
X21079906Y-65360886D01*
X21095078Y-65368996D01*
X21224659Y-65475341D01*
X21331004Y-65604922D01*
X21331005Y-65604924D01*
X21410024Y-65752758D01*
X21458687Y-65913177D01*
X21475117Y-66080000D01*
X21458687Y-66246823D01*
X21410024Y-66407242D01*
X21340428Y-66537446D01*
X21331004Y-66555078D01*
X21224659Y-66684659D01*
X21095078Y-66791004D01*
X21095076Y-66791005D01*
X20947242Y-66870024D01*
X20786823Y-66918687D01*
X20661804Y-66931000D01*
X20578196Y-66931000D01*
X20453177Y-66918687D01*
X20292758Y-66870024D01*
X20144924Y-66791005D01*
X20144922Y-66791004D01*
X20015341Y-66684659D01*
X19908996Y-66555078D01*
X19899572Y-66537446D01*
X19829976Y-66407242D01*
X19781313Y-66246823D01*
X19764883Y-66080000D01*
X19781313Y-65913177D01*
X19829976Y-65752758D01*
X19908995Y-65604924D01*
X19908996Y-65604922D01*
X20015341Y-65475341D01*
X20144922Y-65368996D01*
X20160094Y-65360886D01*
X20292758Y-65289976D01*
X20453177Y-65241313D01*
X20578196Y-65229000D01*
X20661804Y-65229000D01*
X20786823Y-65241313D01*
X20786823Y-65241313D01*
G37*
G36*
X4338855Y-64352140D02*
G01*
X4402618Y-64358420D01*
X4469429Y-64378687D01*
X4525336Y-64395646D01*
X4638425Y-64456094D01*
X4737554Y-64537446D01*
X4818906Y-64636575D01*
X4879354Y-64749664D01*
X4879355Y-64749668D01*
X4916580Y-64872382D01*
X4929149Y-65000000D01*
X4916580Y-65127618D01*
X4889040Y-65218404D01*
X4879354Y-65250336D01*
X4818906Y-65363425D01*
X4737554Y-65462554D01*
X4638425Y-65543906D01*
X4525336Y-65604354D01*
X4493404Y-65614040D01*
X4402618Y-65641580D01*
X4338855Y-65647860D01*
X4306974Y-65651000D01*
X3693026Y-65651000D01*
X3661145Y-65647860D01*
X3597382Y-65641580D01*
X3506596Y-65614040D01*
X3474664Y-65604354D01*
X3361575Y-65543906D01*
X3262446Y-65462554D01*
X3181094Y-65363425D01*
X3120646Y-65250336D01*
X3110960Y-65218404D01*
X3083420Y-65127618D01*
X3070851Y-65000000D01*
X3083420Y-64872382D01*
X3120645Y-64749668D01*
X3120646Y-64749664D01*
X3181094Y-64636575D01*
X3262446Y-64537446D01*
X3361575Y-64456094D01*
X3474664Y-64395646D01*
X3530571Y-64378687D01*
X3597382Y-64358420D01*
X3661145Y-64352140D01*
X3693026Y-64349000D01*
X4306974Y-64349000D01*
X4338855Y-64352140D01*
X4338855Y-64352140D01*
G37*
G36*
X13166823Y-62701313D02*
G01*
X13297380Y-62740917D01*
X13326214Y-62749664D01*
X13327242Y-62749976D01*
X13459906Y-62820886D01*
X13475078Y-62828996D01*
X13604659Y-62935341D01*
X13711004Y-63064922D01*
X13711005Y-63064924D01*
X13790024Y-63212758D01*
X13838687Y-63373177D01*
X13855117Y-63540000D01*
X13838687Y-63706823D01*
X13790024Y-63867242D01*
X13771980Y-63901000D01*
X13711004Y-64015078D01*
X13604659Y-64144659D01*
X13475078Y-64251004D01*
X13475076Y-64251005D01*
X13327242Y-64330024D01*
X13166823Y-64378687D01*
X13041804Y-64391000D01*
X12958196Y-64391000D01*
X12833177Y-64378687D01*
X12672758Y-64330024D01*
X12524924Y-64251005D01*
X12524922Y-64251004D01*
X12395341Y-64144659D01*
X12288996Y-64015078D01*
X12228020Y-63901000D01*
X12209976Y-63867242D01*
X12161313Y-63706823D01*
X12144883Y-63540000D01*
X12161313Y-63373177D01*
X12209976Y-63212758D01*
X12288995Y-63064924D01*
X12288996Y-63064922D01*
X12395341Y-62935341D01*
X12524922Y-62828996D01*
X12540094Y-62820886D01*
X12672758Y-62749976D01*
X12673787Y-62749664D01*
X12702620Y-62740917D01*
X12833177Y-62701313D01*
X12958196Y-62689000D01*
X13041804Y-62689000D01*
X13166823Y-62701313D01*
X13166823Y-62701313D01*
G37*
G36*
X20786823Y-62701313D02*
G01*
X20917380Y-62740917D01*
X20946214Y-62749664D01*
X20947242Y-62749976D01*
X21079906Y-62820886D01*
X21095078Y-62828996D01*
X21224659Y-62935341D01*
X21331004Y-63064922D01*
X21331005Y-63064924D01*
X21410024Y-63212758D01*
X21458687Y-63373177D01*
X21475117Y-63540000D01*
X21458687Y-63706823D01*
X21410024Y-63867242D01*
X21391980Y-63901000D01*
X21331004Y-64015078D01*
X21224659Y-64144659D01*
X21095078Y-64251004D01*
X21095076Y-64251005D01*
X20947242Y-64330024D01*
X20786823Y-64378687D01*
X20661804Y-64391000D01*
X20578196Y-64391000D01*
X20453177Y-64378687D01*
X20292758Y-64330024D01*
X20144924Y-64251005D01*
X20144922Y-64251004D01*
X20015341Y-64144659D01*
X19908996Y-64015078D01*
X19848020Y-63901000D01*
X19829976Y-63867242D01*
X19781313Y-63706823D01*
X19764883Y-63540000D01*
X19781313Y-63373177D01*
X19829976Y-63212758D01*
X19908995Y-63064924D01*
X19908996Y-63064922D01*
X20015341Y-62935341D01*
X20144922Y-62828996D01*
X20160094Y-62820886D01*
X20292758Y-62749976D01*
X20293787Y-62749664D01*
X20322620Y-62740917D01*
X20453177Y-62701313D01*
X20578196Y-62689000D01*
X20661804Y-62689000D01*
X20786823Y-62701313D01*
X20786823Y-62701313D01*
G37*
G36*
X95829487Y-61348996D02*
G01*
X96066253Y-61447068D01*
X96066255Y-61447069D01*
X96279339Y-61589447D01*
X96460553Y-61770661D01*
X96547643Y-61901000D01*
X96602932Y-61983747D01*
X96701004Y-62220513D01*
X96751000Y-62471861D01*
X96751000Y-62728139D01*
X96701004Y-62979487D01*
X96639646Y-63127618D01*
X96602931Y-63216255D01*
X96460553Y-63429339D01*
X96279339Y-63610553D01*
X96066255Y-63752931D01*
X96066254Y-63752932D01*
X96066253Y-63752932D01*
X95829487Y-63851004D01*
X95578139Y-63901000D01*
X95321861Y-63901000D01*
X95070513Y-63851004D01*
X94833747Y-63752932D01*
X94833746Y-63752932D01*
X94833745Y-63752931D01*
X94620661Y-63610553D01*
X94439447Y-63429339D01*
X94297069Y-63216255D01*
X94260354Y-63127618D01*
X94198996Y-62979487D01*
X94149000Y-62728139D01*
X94149000Y-62471861D01*
X94198996Y-62220513D01*
X94297068Y-61983747D01*
X94352358Y-61901000D01*
X94439447Y-61770661D01*
X94620661Y-61589447D01*
X94833745Y-61447069D01*
X94833747Y-61447068D01*
X95070513Y-61348996D01*
X95321861Y-61299000D01*
X95578139Y-61299000D01*
X95829487Y-61348996D01*
X95829487Y-61348996D01*
G37*
G36*
X4338855Y-62352140D02*
G01*
X4402618Y-62358420D01*
X4493404Y-62385960D01*
X4525336Y-62395646D01*
X4638425Y-62456094D01*
X4737554Y-62537446D01*
X4818906Y-62636575D01*
X4879354Y-62749664D01*
X4889040Y-62781596D01*
X4916580Y-62872382D01*
X4929149Y-63000000D01*
X4916580Y-63127618D01*
X4890753Y-63212758D01*
X4879354Y-63250336D01*
X4818906Y-63363425D01*
X4737554Y-63462554D01*
X4638425Y-63543906D01*
X4525336Y-63604354D01*
X4504900Y-63610553D01*
X4402618Y-63641580D01*
X4338855Y-63647860D01*
X4306974Y-63651000D01*
X3693026Y-63651000D01*
X3661145Y-63647860D01*
X3597382Y-63641580D01*
X3495100Y-63610553D01*
X3474664Y-63604354D01*
X3361575Y-63543906D01*
X3262446Y-63462554D01*
X3181094Y-63363425D01*
X3120646Y-63250336D01*
X3109247Y-63212758D01*
X3083420Y-63127618D01*
X3070851Y-63000000D01*
X3083420Y-62872382D01*
X3110960Y-62781596D01*
X3120646Y-62749664D01*
X3181094Y-62636575D01*
X3262446Y-62537446D01*
X3361575Y-62456094D01*
X3474664Y-62395646D01*
X3506596Y-62385960D01*
X3597382Y-62358420D01*
X3661145Y-62352140D01*
X3693026Y-62349000D01*
X4306974Y-62349000D01*
X4338855Y-62352140D01*
X4338855Y-62352140D01*
G37*
G36*
X52301000Y-62251000D02*
G01*
X47699000Y-62251000D01*
X47699000Y-59649000D01*
X52301000Y-59649000D01*
X52301000Y-62251000D01*
X52301000Y-62251000D01*
G37*
G36*
X30646823Y-60331313D02*
G01*
X30807242Y-60379976D01*
X30939906Y-60450886D01*
X30955078Y-60458996D01*
X31084659Y-60565341D01*
X31191004Y-60694922D01*
X31191005Y-60694924D01*
X31270024Y-60842758D01*
X31318687Y-61003177D01*
X31335117Y-61170000D01*
X31318687Y-61336823D01*
X31270024Y-61497242D01*
X31212608Y-61604659D01*
X31191004Y-61645078D01*
X31084659Y-61774659D01*
X30955078Y-61881004D01*
X30955076Y-61881005D01*
X30807242Y-61960024D01*
X30646823Y-62008687D01*
X30521804Y-62021000D01*
X30438196Y-62021000D01*
X30313177Y-62008687D01*
X30152758Y-61960024D01*
X30004924Y-61881005D01*
X30004922Y-61881004D01*
X29875341Y-61774659D01*
X29768996Y-61645078D01*
X29747392Y-61604659D01*
X29689976Y-61497242D01*
X29641313Y-61336823D01*
X29624883Y-61170000D01*
X29641313Y-61003177D01*
X29689976Y-60842758D01*
X29768995Y-60694924D01*
X29768996Y-60694922D01*
X29875341Y-60565341D01*
X30004922Y-60458996D01*
X30020094Y-60450886D01*
X30152758Y-60379976D01*
X30313177Y-60331313D01*
X30438196Y-60319000D01*
X30521804Y-60319000D01*
X30646823Y-60331313D01*
X30646823Y-60331313D01*
G37*
G36*
X38266823Y-60331313D02*
G01*
X38427242Y-60379976D01*
X38559906Y-60450886D01*
X38575078Y-60458996D01*
X38704659Y-60565341D01*
X38811004Y-60694922D01*
X38811005Y-60694924D01*
X38890024Y-60842758D01*
X38938687Y-61003177D01*
X38955117Y-61170000D01*
X38938687Y-61336823D01*
X38890024Y-61497242D01*
X38832608Y-61604659D01*
X38811004Y-61645078D01*
X38704659Y-61774659D01*
X38575078Y-61881004D01*
X38575076Y-61881005D01*
X38427242Y-61960024D01*
X38266823Y-62008687D01*
X38141804Y-62021000D01*
X38058196Y-62021000D01*
X37933177Y-62008687D01*
X37772758Y-61960024D01*
X37624924Y-61881005D01*
X37624922Y-61881004D01*
X37495341Y-61774659D01*
X37388996Y-61645078D01*
X37367392Y-61604659D01*
X37309976Y-61497242D01*
X37261313Y-61336823D01*
X37244883Y-61170000D01*
X37261313Y-61003177D01*
X37309976Y-60842758D01*
X37388995Y-60694924D01*
X37388996Y-60694922D01*
X37495341Y-60565341D01*
X37624922Y-60458996D01*
X37640094Y-60450886D01*
X37772758Y-60379976D01*
X37933177Y-60331313D01*
X38058196Y-60319000D01*
X38141804Y-60319000D01*
X38266823Y-60331313D01*
X38266823Y-60331313D01*
G37*
G36*
X58277395Y-60035546D02*
G01*
X58450466Y-60107234D01*
X58450467Y-60107235D01*
X58606227Y-60211310D01*
X58738690Y-60343773D01*
X58791081Y-60422182D01*
X58842766Y-60499534D01*
X58914454Y-60672605D01*
X58951000Y-60856333D01*
X58951000Y-61043667D01*
X58914454Y-61227395D01*
X58842766Y-61400466D01*
X58811990Y-61446526D01*
X58738690Y-61556227D01*
X58606227Y-61688690D01*
X58572830Y-61711005D01*
X58450466Y-61792766D01*
X58277395Y-61864454D01*
X58093667Y-61901000D01*
X57906333Y-61901000D01*
X57722605Y-61864454D01*
X57549534Y-61792766D01*
X57427170Y-61711005D01*
X57393773Y-61688690D01*
X57261310Y-61556227D01*
X57188010Y-61446526D01*
X57157234Y-61400466D01*
X57085546Y-61227395D01*
X57049000Y-61043667D01*
X57049000Y-60856333D01*
X57085546Y-60672605D01*
X57157234Y-60499534D01*
X57208919Y-60422182D01*
X57261310Y-60343773D01*
X57393773Y-60211310D01*
X57549533Y-60107235D01*
X57549534Y-60107234D01*
X57722605Y-60035546D01*
X57906333Y-59999000D01*
X58093667Y-59999000D01*
X58277395Y-60035546D01*
X58277395Y-60035546D01*
G37*
G36*
X62777395Y-60035546D02*
G01*
X62950466Y-60107234D01*
X62950467Y-60107235D01*
X63106227Y-60211310D01*
X63238690Y-60343773D01*
X63291081Y-60422182D01*
X63342766Y-60499534D01*
X63414454Y-60672605D01*
X63451000Y-60856333D01*
X63451000Y-61043667D01*
X63414454Y-61227395D01*
X63342766Y-61400466D01*
X63311990Y-61446526D01*
X63238690Y-61556227D01*
X63106227Y-61688690D01*
X63072830Y-61711005D01*
X62950466Y-61792766D01*
X62777395Y-61864454D01*
X62593667Y-61901000D01*
X62406333Y-61901000D01*
X62222605Y-61864454D01*
X62049534Y-61792766D01*
X61927170Y-61711005D01*
X61893773Y-61688690D01*
X61761310Y-61556227D01*
X61688010Y-61446526D01*
X61657234Y-61400466D01*
X61585546Y-61227395D01*
X61549000Y-61043667D01*
X61549000Y-60856333D01*
X61585546Y-60672605D01*
X61657234Y-60499534D01*
X61708919Y-60422182D01*
X61761310Y-60343773D01*
X61893773Y-60211310D01*
X62049533Y-60107235D01*
X62049534Y-60107234D01*
X62222605Y-60035546D01*
X62406333Y-59999000D01*
X62593667Y-59999000D01*
X62777395Y-60035546D01*
X62777395Y-60035546D01*
G37*
G36*
X20786823Y-60161313D02*
G01*
X20947242Y-60209976D01*
X21079906Y-60280886D01*
X21095078Y-60288996D01*
X21224659Y-60395341D01*
X21331004Y-60524922D01*
X21331005Y-60524924D01*
X21410024Y-60672758D01*
X21458687Y-60833177D01*
X21475117Y-61000000D01*
X21458687Y-61166823D01*
X21410024Y-61327242D01*
X21381957Y-61379751D01*
X21331004Y-61475078D01*
X21224659Y-61604659D01*
X21095078Y-61711004D01*
X21095076Y-61711005D01*
X20947242Y-61790024D01*
X20786823Y-61838687D01*
X20661804Y-61851000D01*
X20578196Y-61851000D01*
X20453177Y-61838687D01*
X20292758Y-61790024D01*
X20144924Y-61711005D01*
X20144922Y-61711004D01*
X20015341Y-61604659D01*
X19908996Y-61475078D01*
X19858043Y-61379751D01*
X19829976Y-61327242D01*
X19781313Y-61166823D01*
X19764883Y-61000000D01*
X19781313Y-60833177D01*
X19829976Y-60672758D01*
X19908995Y-60524924D01*
X19908996Y-60524922D01*
X20015341Y-60395341D01*
X20144922Y-60288996D01*
X20160094Y-60280886D01*
X20292758Y-60209976D01*
X20453177Y-60161313D01*
X20578196Y-60149000D01*
X20661804Y-60149000D01*
X20786823Y-60161313D01*
X20786823Y-60161313D01*
G37*
G36*
X13851000Y-61851000D02*
G01*
X12149000Y-61851000D01*
X12149000Y-60149000D01*
X13851000Y-60149000D01*
X13851000Y-61851000D01*
X13851000Y-61851000D01*
G37*
G36*
X4766242Y-60353404D02*
G01*
X4803337Y-60364657D01*
X4837515Y-60382925D01*
X4867481Y-60407519D01*
X4892075Y-60437485D01*
X4910343Y-60471663D01*
X4921596Y-60508758D01*
X4926000Y-60553474D01*
X4926000Y-61446526D01*
X4921596Y-61491242D01*
X4910343Y-61528337D01*
X4892075Y-61562515D01*
X4867481Y-61592481D01*
X4837515Y-61617075D01*
X4803337Y-61635343D01*
X4766242Y-61646596D01*
X4721526Y-61651000D01*
X3278474Y-61651000D01*
X3233758Y-61646596D01*
X3196663Y-61635343D01*
X3162485Y-61617075D01*
X3132519Y-61592481D01*
X3107925Y-61562515D01*
X3089657Y-61528337D01*
X3078404Y-61491242D01*
X3074000Y-61446526D01*
X3074000Y-60553474D01*
X3078404Y-60508758D01*
X3089657Y-60471663D01*
X3107925Y-60437485D01*
X3132519Y-60407519D01*
X3162485Y-60382925D01*
X3196663Y-60364657D01*
X3233758Y-60353404D01*
X3278474Y-60349000D01*
X4721526Y-60349000D01*
X4766242Y-60353404D01*
X4766242Y-60353404D01*
G37*
G36*
X66364903Y-57397075D02*
G01*
X66592571Y-57491378D01*
X66797466Y-57628285D01*
X66971715Y-57802534D01*
X67108622Y-58007429D01*
X67108623Y-58007431D01*
X67202925Y-58235097D01*
X67248293Y-58463175D01*
X67251000Y-58476787D01*
X67251000Y-58723213D01*
X67202925Y-58964903D01*
X67108622Y-59192571D01*
X66971715Y-59397466D01*
X66797466Y-59571715D01*
X66592571Y-59708622D01*
X66592570Y-59708623D01*
X66592569Y-59708623D01*
X66364903Y-59802925D01*
X66123214Y-59851000D01*
X65876786Y-59851000D01*
X65635097Y-59802925D01*
X65407431Y-59708623D01*
X65407430Y-59708623D01*
X65407429Y-59708622D01*
X65202534Y-59571715D01*
X65028285Y-59397466D01*
X64891378Y-59192571D01*
X64797075Y-58964903D01*
X64749000Y-58723213D01*
X64749000Y-58476787D01*
X64751708Y-58463175D01*
X64797075Y-58235097D01*
X64891377Y-58007431D01*
X64891378Y-58007429D01*
X65028285Y-57802534D01*
X65202534Y-57628285D01*
X65407429Y-57491378D01*
X65635097Y-57397075D01*
X65876786Y-57349000D01*
X66123214Y-57349000D01*
X66364903Y-57397075D01*
X66364903Y-57397075D01*
G37*
G36*
X38266823Y-57791313D02*
G01*
X38427242Y-57839976D01*
X38559906Y-57910886D01*
X38575078Y-57918996D01*
X38704659Y-58025341D01*
X38811004Y-58154922D01*
X38811005Y-58154924D01*
X38890024Y-58302758D01*
X38938687Y-58463177D01*
X38955117Y-58630000D01*
X38938687Y-58796823D01*
X38890024Y-58957242D01*
X38885929Y-58964903D01*
X38811004Y-59105078D01*
X38704659Y-59234659D01*
X38575078Y-59341004D01*
X38575076Y-59341005D01*
X38427242Y-59420024D01*
X38266823Y-59468687D01*
X38141804Y-59481000D01*
X38058196Y-59481000D01*
X37933177Y-59468687D01*
X37772758Y-59420024D01*
X37624924Y-59341005D01*
X37624922Y-59341004D01*
X37495341Y-59234659D01*
X37388996Y-59105078D01*
X37314071Y-58964903D01*
X37309976Y-58957242D01*
X37261313Y-58796823D01*
X37244883Y-58630000D01*
X37261313Y-58463177D01*
X37309976Y-58302758D01*
X37388995Y-58154924D01*
X37388996Y-58154922D01*
X37495341Y-58025341D01*
X37624922Y-57918996D01*
X37640094Y-57910886D01*
X37772758Y-57839976D01*
X37933177Y-57791313D01*
X38058196Y-57779000D01*
X38141804Y-57779000D01*
X38266823Y-57791313D01*
X38266823Y-57791313D01*
G37*
G36*
X31331000Y-59481000D02*
G01*
X29629000Y-59481000D01*
X29629000Y-57779000D01*
X31331000Y-57779000D01*
X31331000Y-59481000D01*
X31331000Y-59481000D01*
G37*
G36*
X56202585Y-56178802D02*
G01*
X56352410Y-56208604D01*
X56634674Y-56325521D01*
X56888705Y-56495259D01*
X57104741Y-56711295D01*
X57274479Y-56965326D01*
X57391396Y-57247590D01*
X57451000Y-57547240D01*
X57451000Y-57852760D01*
X57391396Y-58152410D01*
X57274479Y-58434674D01*
X57104741Y-58688705D01*
X56888705Y-58904741D01*
X56634674Y-59074479D01*
X56352410Y-59191396D01*
X56202585Y-59221198D01*
X56052761Y-59251000D01*
X55747239Y-59251000D01*
X55597415Y-59221198D01*
X55447590Y-59191396D01*
X55165326Y-59074479D01*
X54911295Y-58904741D01*
X54695259Y-58688705D01*
X54525521Y-58434674D01*
X54408604Y-58152410D01*
X54349000Y-57852760D01*
X54349000Y-57547240D01*
X54408604Y-57247590D01*
X54525521Y-56965326D01*
X54695259Y-56711295D01*
X54911295Y-56495259D01*
X55165326Y-56325521D01*
X55447590Y-56208604D01*
X55597415Y-56178802D01*
X55747239Y-56149000D01*
X56052761Y-56149000D01*
X56202585Y-56178802D01*
X56202585Y-56178802D01*
G37*
G36*
X62701000Y-57601000D02*
G01*
X59299000Y-57601000D01*
X59299000Y-54999000D01*
X62701000Y-54999000D01*
X62701000Y-57601000D01*
X62701000Y-57601000D01*
G37*
G36*
X38266823Y-55251313D02*
G01*
X38427242Y-55299976D01*
X38499663Y-55338686D01*
X38575078Y-55378996D01*
X38704659Y-55485341D01*
X38811004Y-55614922D01*
X38811005Y-55614924D01*
X38890024Y-55762758D01*
X38938687Y-55923177D01*
X38955117Y-56090000D01*
X38938687Y-56256823D01*
X38890024Y-56417242D01*
X38848323Y-56495259D01*
X38811004Y-56565078D01*
X38704659Y-56694659D01*
X38575078Y-56801004D01*
X38575076Y-56801005D01*
X38427242Y-56880024D01*
X38266823Y-56928687D01*
X38141804Y-56941000D01*
X38058196Y-56941000D01*
X37933177Y-56928687D01*
X37772758Y-56880024D01*
X37624924Y-56801005D01*
X37624922Y-56801004D01*
X37495341Y-56694659D01*
X37388996Y-56565078D01*
X37351677Y-56495259D01*
X37309976Y-56417242D01*
X37261313Y-56256823D01*
X37244883Y-56090000D01*
X37261313Y-55923177D01*
X37309976Y-55762758D01*
X37388995Y-55614924D01*
X37388996Y-55614922D01*
X37495341Y-55485341D01*
X37624922Y-55378996D01*
X37700337Y-55338686D01*
X37772758Y-55299976D01*
X37933177Y-55251313D01*
X38058196Y-55239000D01*
X38141804Y-55239000D01*
X38266823Y-55251313D01*
X38266823Y-55251313D01*
G37*
G36*
X30646823Y-55251313D02*
G01*
X30807242Y-55299976D01*
X30879663Y-55338686D01*
X30955078Y-55378996D01*
X31084659Y-55485341D01*
X31191004Y-55614922D01*
X31191005Y-55614924D01*
X31270024Y-55762758D01*
X31318687Y-55923177D01*
X31335117Y-56090000D01*
X31318687Y-56256823D01*
X31270024Y-56417242D01*
X31228323Y-56495259D01*
X31191004Y-56565078D01*
X31084659Y-56694659D01*
X30955078Y-56801004D01*
X30955076Y-56801005D01*
X30807242Y-56880024D01*
X30646823Y-56928687D01*
X30521804Y-56941000D01*
X30438196Y-56941000D01*
X30313177Y-56928687D01*
X30152758Y-56880024D01*
X30004924Y-56801005D01*
X30004922Y-56801004D01*
X29875341Y-56694659D01*
X29768996Y-56565078D01*
X29731677Y-56495259D01*
X29689976Y-56417242D01*
X29641313Y-56256823D01*
X29624883Y-56090000D01*
X29641313Y-55923177D01*
X29689976Y-55762758D01*
X29768995Y-55614924D01*
X29768996Y-55614922D01*
X29875341Y-55485341D01*
X30004922Y-55378996D01*
X30080337Y-55338686D01*
X30152758Y-55299976D01*
X30313177Y-55251313D01*
X30438196Y-55239000D01*
X30521804Y-55239000D01*
X30646823Y-55251313D01*
X30646823Y-55251313D01*
G37*
G36*
X51159472Y-54208412D02*
G01*
X51255040Y-54217825D01*
X51500280Y-54292218D01*
X51726294Y-54413025D01*
X51777899Y-54455376D01*
X51924397Y-54575603D01*
X52044624Y-54722101D01*
X52086975Y-54773706D01*
X52207782Y-54999720D01*
X52282175Y-55244960D01*
X52307294Y-55500000D01*
X52282175Y-55755040D01*
X52207782Y-56000280D01*
X52086975Y-56226294D01*
X52044624Y-56277899D01*
X51924397Y-56424397D01*
X51777899Y-56544624D01*
X51726294Y-56586975D01*
X51726292Y-56586976D01*
X51524832Y-56694659D01*
X51500280Y-56707782D01*
X51255040Y-56782175D01*
X51159473Y-56791587D01*
X51063906Y-56801000D01*
X48936094Y-56801000D01*
X48840527Y-56791587D01*
X48744960Y-56782175D01*
X48499720Y-56707782D01*
X48475169Y-56694659D01*
X48273708Y-56586976D01*
X48273706Y-56586975D01*
X48222101Y-56544624D01*
X48075603Y-56424397D01*
X47955376Y-56277899D01*
X47913025Y-56226294D01*
X47792218Y-56000280D01*
X47717825Y-55755040D01*
X47692706Y-55500000D01*
X47717825Y-55244960D01*
X47792218Y-54999720D01*
X47913025Y-54773706D01*
X47955376Y-54722101D01*
X48075603Y-54575603D01*
X48222101Y-54455376D01*
X48273706Y-54413025D01*
X48499720Y-54292218D01*
X48744960Y-54217825D01*
X48840528Y-54208412D01*
X48936094Y-54199000D01*
X51063906Y-54199000D01*
X51159472Y-54208412D01*
X51159472Y-54208412D01*
G37*
G36*
X25351000Y-55351000D02*
G01*
X23649000Y-55351000D01*
X23649000Y-53649000D01*
X25351000Y-53649000D01*
X25351000Y-55351000D01*
X25351000Y-55351000D01*
G37*
G36*
X9426823Y-53661313D02*
G01*
X9587242Y-53709976D01*
X9661500Y-53749668D01*
X9735078Y-53788996D01*
X9864659Y-53895341D01*
X9971004Y-54024922D01*
X9979114Y-54040094D01*
X10050024Y-54172758D01*
X10050025Y-54172761D01*
X10059083Y-54202620D01*
X10098687Y-54333177D01*
X10115117Y-54500000D01*
X10098687Y-54666823D01*
X10050024Y-54827242D01*
X10037325Y-54851000D01*
X9971004Y-54975078D01*
X9864659Y-55104659D01*
X9735078Y-55211004D01*
X9735076Y-55211005D01*
X9587242Y-55290024D01*
X9426823Y-55338687D01*
X9301804Y-55351000D01*
X9218196Y-55351000D01*
X9093177Y-55338687D01*
X8932758Y-55290024D01*
X8784924Y-55211005D01*
X8784922Y-55211004D01*
X8655341Y-55104659D01*
X8548996Y-54975078D01*
X8482675Y-54851000D01*
X8469976Y-54827242D01*
X8421313Y-54666823D01*
X8404883Y-54500000D01*
X8421313Y-54333177D01*
X8460917Y-54202620D01*
X8469975Y-54172761D01*
X8469976Y-54172758D01*
X8540886Y-54040094D01*
X8548996Y-54024922D01*
X8655341Y-53895341D01*
X8784922Y-53788996D01*
X8858500Y-53749668D01*
X8932758Y-53709976D01*
X9093177Y-53661313D01*
X9218196Y-53649000D01*
X9301804Y-53649000D01*
X9426823Y-53661313D01*
X9426823Y-53661313D01*
G37*
G36*
X76402585Y-51778802D02*
G01*
X76552410Y-51808604D01*
X76834674Y-51925521D01*
X77088705Y-52095259D01*
X77304741Y-52311295D01*
X77474479Y-52565326D01*
X77587836Y-52838996D01*
X77591396Y-52847591D01*
X77636616Y-53074924D01*
X77651000Y-53147240D01*
X77651000Y-53452760D01*
X77591396Y-53752410D01*
X77474479Y-54034674D01*
X77304741Y-54288705D01*
X77088705Y-54504741D01*
X76834674Y-54674479D01*
X76552410Y-54791396D01*
X76402585Y-54821198D01*
X76252761Y-54851000D01*
X75947239Y-54851000D01*
X75797415Y-54821198D01*
X75647590Y-54791396D01*
X75365326Y-54674479D01*
X75111295Y-54504741D01*
X74895259Y-54288705D01*
X74725521Y-54034674D01*
X74608604Y-53752410D01*
X74549000Y-53452760D01*
X74549000Y-53147240D01*
X74563385Y-53074924D01*
X74608604Y-52847591D01*
X74612164Y-52838996D01*
X74725521Y-52565326D01*
X74895259Y-52311295D01*
X75111295Y-52095259D01*
X75365326Y-51925521D01*
X75647590Y-51808604D01*
X75797415Y-51778802D01*
X75947239Y-51749000D01*
X76252761Y-51749000D01*
X76402585Y-51778802D01*
X76402585Y-51778802D01*
G37*
G36*
X4338855Y-53352140D02*
G01*
X4402618Y-53358420D01*
X4493404Y-53385960D01*
X4525336Y-53395646D01*
X4638425Y-53456094D01*
X4737554Y-53537446D01*
X4818906Y-53636575D01*
X4879354Y-53749664D01*
X4880187Y-53752410D01*
X4916580Y-53872382D01*
X4929149Y-54000000D01*
X4916580Y-54127618D01*
X4908377Y-54154659D01*
X4879354Y-54250336D01*
X4818906Y-54363425D01*
X4737554Y-54462554D01*
X4638425Y-54543906D01*
X4525336Y-54604354D01*
X4493404Y-54614040D01*
X4402618Y-54641580D01*
X4338855Y-54647860D01*
X4306974Y-54651000D01*
X3693026Y-54651000D01*
X3661145Y-54647860D01*
X3597382Y-54641580D01*
X3506596Y-54614040D01*
X3474664Y-54604354D01*
X3361575Y-54543906D01*
X3262446Y-54462554D01*
X3181094Y-54363425D01*
X3120646Y-54250336D01*
X3091623Y-54154659D01*
X3083420Y-54127618D01*
X3070851Y-54000000D01*
X3083420Y-53872382D01*
X3119813Y-53752410D01*
X3120646Y-53749664D01*
X3181094Y-53636575D01*
X3262446Y-53537446D01*
X3361575Y-53456094D01*
X3474664Y-53395646D01*
X3506596Y-53385960D01*
X3597382Y-53358420D01*
X3661145Y-53352140D01*
X3693026Y-53349000D01*
X4306974Y-53349000D01*
X4338855Y-53352140D01*
X4338855Y-53352140D01*
G37*
G36*
X31331000Y-54401000D02*
G01*
X29629000Y-54401000D01*
X29629000Y-52699000D01*
X31331000Y-52699000D01*
X31331000Y-54401000D01*
X31331000Y-54401000D01*
G37*
G36*
X38266823Y-52711313D02*
G01*
X38427242Y-52759976D01*
X38499663Y-52798686D01*
X38575078Y-52838996D01*
X38704659Y-52945341D01*
X38811004Y-53074922D01*
X38811005Y-53074924D01*
X38890024Y-53222758D01*
X38938687Y-53383177D01*
X38955117Y-53550000D01*
X38938687Y-53716823D01*
X38890024Y-53877242D01*
X38824408Y-54000000D01*
X38811004Y-54025078D01*
X38704659Y-54154659D01*
X38575078Y-54261004D01*
X38575076Y-54261005D01*
X38427242Y-54340024D01*
X38266823Y-54388687D01*
X38141804Y-54401000D01*
X38058196Y-54401000D01*
X37933177Y-54388687D01*
X37772758Y-54340024D01*
X37624924Y-54261005D01*
X37624922Y-54261004D01*
X37495341Y-54154659D01*
X37388996Y-54025078D01*
X37375592Y-54000000D01*
X37309976Y-53877242D01*
X37261313Y-53716823D01*
X37244883Y-53550000D01*
X37261313Y-53383177D01*
X37309976Y-53222758D01*
X37388995Y-53074924D01*
X37388996Y-53074922D01*
X37495341Y-52945341D01*
X37624922Y-52838996D01*
X37700337Y-52798686D01*
X37772758Y-52759976D01*
X37933177Y-52711313D01*
X38058196Y-52699000D01*
X38141804Y-52699000D01*
X38266823Y-52711313D01*
X38266823Y-52711313D01*
G37*
G36*
X24666823Y-51121313D02*
G01*
X24827242Y-51169976D01*
X24959906Y-51240886D01*
X24975078Y-51248996D01*
X25104659Y-51355341D01*
X25211004Y-51484922D01*
X25211005Y-51484924D01*
X25290024Y-51632758D01*
X25338687Y-51793177D01*
X25355117Y-51960000D01*
X25338687Y-52126823D01*
X25290024Y-52287242D01*
X25249303Y-52363425D01*
X25211004Y-52435078D01*
X25104659Y-52564659D01*
X24975078Y-52671004D01*
X24975076Y-52671005D01*
X24827242Y-52750024D01*
X24666823Y-52798687D01*
X24541804Y-52811000D01*
X24458196Y-52811000D01*
X24333177Y-52798687D01*
X24172758Y-52750024D01*
X24024924Y-52671005D01*
X24024922Y-52671004D01*
X23895341Y-52564659D01*
X23788996Y-52435078D01*
X23750697Y-52363425D01*
X23709976Y-52287242D01*
X23661313Y-52126823D01*
X23644883Y-51960000D01*
X23661313Y-51793177D01*
X23709976Y-51632758D01*
X23788995Y-51484924D01*
X23788996Y-51484922D01*
X23895341Y-51355341D01*
X24024922Y-51248996D01*
X24040094Y-51240886D01*
X24172758Y-51169976D01*
X24333177Y-51121313D01*
X24458196Y-51109000D01*
X24541804Y-51109000D01*
X24666823Y-51121313D01*
X24666823Y-51121313D01*
G37*
G36*
X9426823Y-51121313D02*
G01*
X9587242Y-51169976D01*
X9719906Y-51240886D01*
X9735078Y-51248996D01*
X9864659Y-51355341D01*
X9971004Y-51484922D01*
X9971005Y-51484924D01*
X10050024Y-51632758D01*
X10098687Y-51793177D01*
X10115117Y-51960000D01*
X10098687Y-52126823D01*
X10050024Y-52287242D01*
X10009303Y-52363425D01*
X9971004Y-52435078D01*
X9864659Y-52564659D01*
X9735078Y-52671004D01*
X9735076Y-52671005D01*
X9587242Y-52750024D01*
X9426823Y-52798687D01*
X9301804Y-52811000D01*
X9218196Y-52811000D01*
X9093177Y-52798687D01*
X8932758Y-52750024D01*
X8784924Y-52671005D01*
X8784922Y-52671004D01*
X8655341Y-52564659D01*
X8548996Y-52435078D01*
X8510697Y-52363425D01*
X8469976Y-52287242D01*
X8421313Y-52126823D01*
X8404883Y-51960000D01*
X8421313Y-51793177D01*
X8469976Y-51632758D01*
X8548995Y-51484924D01*
X8548996Y-51484922D01*
X8655341Y-51355341D01*
X8784922Y-51248996D01*
X8800094Y-51240886D01*
X8932758Y-51169976D01*
X9093177Y-51121313D01*
X9218196Y-51109000D01*
X9301804Y-51109000D01*
X9426823Y-51121313D01*
X9426823Y-51121313D01*
G37*
G36*
X4327280Y-51351000D02*
G01*
X4402618Y-51358420D01*
X4493404Y-51385960D01*
X4525336Y-51395646D01*
X4638425Y-51456094D01*
X4737554Y-51537446D01*
X4818906Y-51636575D01*
X4879354Y-51749664D01*
X4879355Y-51749668D01*
X4916580Y-51872382D01*
X4929149Y-52000000D01*
X4916580Y-52127618D01*
X4889040Y-52218404D01*
X4879354Y-52250336D01*
X4818906Y-52363425D01*
X4737554Y-52462554D01*
X4638425Y-52543906D01*
X4525336Y-52604354D01*
X4493404Y-52614040D01*
X4402618Y-52641580D01*
X4338855Y-52647860D01*
X4306974Y-52651000D01*
X3693026Y-52651000D01*
X3661145Y-52647860D01*
X3597382Y-52641580D01*
X3506596Y-52614040D01*
X3474664Y-52604354D01*
X3361575Y-52543906D01*
X3262446Y-52462554D01*
X3181094Y-52363425D01*
X3120646Y-52250336D01*
X3110960Y-52218404D01*
X3083420Y-52127618D01*
X3070851Y-52000000D01*
X3083420Y-51872382D01*
X3120645Y-51749668D01*
X3120646Y-51749664D01*
X3181094Y-51636575D01*
X3262446Y-51537446D01*
X3361575Y-51456094D01*
X3474664Y-51395646D01*
X3506596Y-51385960D01*
X3597382Y-51358420D01*
X3672720Y-51351000D01*
X3693026Y-51349000D01*
X4306974Y-51349000D01*
X4327280Y-51351000D01*
X4327280Y-51351000D01*
G37*
G36*
X51159473Y-48758413D02*
G01*
X51255040Y-48767825D01*
X51500280Y-48842218D01*
X51726294Y-48963025D01*
X51777899Y-49005376D01*
X51924397Y-49125603D01*
X52029093Y-49253177D01*
X52086975Y-49323706D01*
X52207782Y-49549720D01*
X52282175Y-49794960D01*
X52307294Y-50050000D01*
X52282175Y-50305040D01*
X52207782Y-50550280D01*
X52086975Y-50776294D01*
X52076801Y-50788691D01*
X51924397Y-50974397D01*
X51777899Y-51094624D01*
X51726294Y-51136975D01*
X51726292Y-51136976D01*
X51516718Y-51248996D01*
X51500280Y-51257782D01*
X51255040Y-51332175D01*
X51159472Y-51341588D01*
X51063906Y-51351000D01*
X48936094Y-51351000D01*
X48840528Y-51341588D01*
X48744960Y-51332175D01*
X48499720Y-51257782D01*
X48483283Y-51248996D01*
X48273708Y-51136976D01*
X48273706Y-51136975D01*
X48222101Y-51094624D01*
X48075603Y-50974397D01*
X47923199Y-50788691D01*
X47913025Y-50776294D01*
X47792218Y-50550280D01*
X47717825Y-50305040D01*
X47692706Y-50050000D01*
X47717825Y-49794960D01*
X47792218Y-49549720D01*
X47913025Y-49323706D01*
X47970907Y-49253177D01*
X48075603Y-49125603D01*
X48222101Y-49005376D01*
X48273706Y-48963025D01*
X48499720Y-48842218D01*
X48744960Y-48767825D01*
X48840528Y-48758412D01*
X48936094Y-48749000D01*
X51063906Y-48749000D01*
X51159473Y-48758413D01*
X51159473Y-48758413D01*
G37*
G36*
X74277395Y-49135546D02*
G01*
X74450466Y-49207234D01*
X74519221Y-49253175D01*
X74606227Y-49311310D01*
X74738690Y-49443773D01*
X74791081Y-49522182D01*
X74842766Y-49599534D01*
X74914454Y-49772605D01*
X74951000Y-49956333D01*
X74951000Y-50143667D01*
X74914454Y-50327395D01*
X74842766Y-50500466D01*
X74842765Y-50500467D01*
X74738690Y-50656227D01*
X74606227Y-50788690D01*
X74527818Y-50841081D01*
X74450466Y-50892766D01*
X74277395Y-50964454D01*
X74093667Y-51001000D01*
X73906333Y-51001000D01*
X73722605Y-50964454D01*
X73549534Y-50892766D01*
X73472182Y-50841081D01*
X73393773Y-50788690D01*
X73261310Y-50656227D01*
X73157235Y-50500467D01*
X73157234Y-50500466D01*
X73085546Y-50327395D01*
X73049000Y-50143667D01*
X73049000Y-49956333D01*
X73085546Y-49772605D01*
X73157234Y-49599534D01*
X73208919Y-49522182D01*
X73261310Y-49443773D01*
X73393773Y-49311310D01*
X73480779Y-49253175D01*
X73549534Y-49207234D01*
X73722605Y-49135546D01*
X73906333Y-49099000D01*
X74093667Y-49099000D01*
X74277395Y-49135546D01*
X74277395Y-49135546D01*
G37*
G36*
X69777395Y-49135546D02*
G01*
X69950466Y-49207234D01*
X70019221Y-49253175D01*
X70106227Y-49311310D01*
X70238690Y-49443773D01*
X70291081Y-49522182D01*
X70342766Y-49599534D01*
X70414454Y-49772605D01*
X70451000Y-49956333D01*
X70451000Y-50143667D01*
X70414454Y-50327395D01*
X70342766Y-50500466D01*
X70342765Y-50500467D01*
X70238690Y-50656227D01*
X70106227Y-50788690D01*
X70027818Y-50841081D01*
X69950466Y-50892766D01*
X69777395Y-50964454D01*
X69593667Y-51001000D01*
X69406333Y-51001000D01*
X69222605Y-50964454D01*
X69049534Y-50892766D01*
X68972182Y-50841081D01*
X68893773Y-50788690D01*
X68761310Y-50656227D01*
X68657235Y-50500467D01*
X68657234Y-50500466D01*
X68585546Y-50327395D01*
X68549000Y-50143667D01*
X68549000Y-49956333D01*
X68585546Y-49772605D01*
X68657234Y-49599534D01*
X68708919Y-49522182D01*
X68761310Y-49443773D01*
X68893773Y-49311310D01*
X68980779Y-49253175D01*
X69049534Y-49207234D01*
X69222605Y-49135546D01*
X69406333Y-49099000D01*
X69593667Y-49099000D01*
X69777395Y-49135546D01*
X69777395Y-49135546D01*
G37*
G36*
X62701000Y-50801000D02*
G01*
X59299000Y-50801000D01*
X59299000Y-48199000D01*
X62701000Y-48199000D01*
X62701000Y-50801000D01*
X62701000Y-50801000D01*
G37*
G36*
X4338855Y-49352140D02*
G01*
X4402618Y-49358420D01*
X4493404Y-49385960D01*
X4525336Y-49395646D01*
X4638425Y-49456094D01*
X4737554Y-49537446D01*
X4818906Y-49636575D01*
X4879354Y-49749664D01*
X4879355Y-49749668D01*
X4916580Y-49872382D01*
X4929149Y-50000000D01*
X4916580Y-50127618D01*
X4892008Y-50208622D01*
X4879354Y-50250336D01*
X4818906Y-50363425D01*
X4737554Y-50462554D01*
X4638425Y-50543906D01*
X4525336Y-50604354D01*
X4493404Y-50614040D01*
X4402618Y-50641580D01*
X4338855Y-50647860D01*
X4306974Y-50651000D01*
X3693026Y-50651000D01*
X3661145Y-50647860D01*
X3597382Y-50641580D01*
X3506596Y-50614040D01*
X3474664Y-50604354D01*
X3361575Y-50543906D01*
X3262446Y-50462554D01*
X3181094Y-50363425D01*
X3120646Y-50250336D01*
X3107992Y-50208622D01*
X3083420Y-50127618D01*
X3070851Y-50000000D01*
X3083420Y-49872382D01*
X3120645Y-49749668D01*
X3120646Y-49749664D01*
X3181094Y-49636575D01*
X3262446Y-49537446D01*
X3361575Y-49456094D01*
X3474664Y-49395646D01*
X3506596Y-49385960D01*
X3597382Y-49358420D01*
X3661145Y-49352140D01*
X3693026Y-49349000D01*
X4306974Y-49349000D01*
X4338855Y-49352140D01*
X4338855Y-49352140D01*
G37*
G36*
X95829487Y-47948996D02*
G01*
X96066253Y-48047068D01*
X96066255Y-48047069D01*
X96279339Y-48189447D01*
X96460553Y-48370661D01*
X96601307Y-48581314D01*
X96602932Y-48583747D01*
X96701004Y-48820513D01*
X96751000Y-49071861D01*
X96751000Y-49328139D01*
X96701004Y-49579487D01*
X96611752Y-49794960D01*
X96602931Y-49816255D01*
X96460553Y-50029339D01*
X96279339Y-50210553D01*
X96066255Y-50352931D01*
X96066254Y-50352932D01*
X96066253Y-50352932D01*
X95829487Y-50451004D01*
X95578139Y-50501000D01*
X95321861Y-50501000D01*
X95070513Y-50451004D01*
X94833747Y-50352932D01*
X94833746Y-50352932D01*
X94833745Y-50352931D01*
X94620661Y-50210553D01*
X94439447Y-50029339D01*
X94297069Y-49816255D01*
X94288248Y-49794960D01*
X94198996Y-49579487D01*
X94149000Y-49328139D01*
X94149000Y-49071861D01*
X94198996Y-48820513D01*
X94297068Y-48583747D01*
X94298694Y-48581314D01*
X94439447Y-48370661D01*
X94620661Y-48189447D01*
X94833745Y-48047069D01*
X94833747Y-48047068D01*
X95070513Y-47948996D01*
X95321861Y-47899000D01*
X95578139Y-47899000D01*
X95829487Y-47948996D01*
X95829487Y-47948996D01*
G37*
G36*
X66364903Y-47897075D02*
G01*
X66592571Y-47991378D01*
X66797466Y-48128285D01*
X66971715Y-48302534D01*
X67097806Y-48491242D01*
X67108623Y-48507431D01*
X67202925Y-48735097D01*
X67251000Y-48976786D01*
X67251000Y-49223214D01*
X67202925Y-49464903D01*
X67155463Y-49579488D01*
X67108622Y-49692571D01*
X66971715Y-49897466D01*
X66797466Y-50071715D01*
X66592571Y-50208622D01*
X66592570Y-50208623D01*
X66592569Y-50208623D01*
X66364903Y-50302925D01*
X66123214Y-50351000D01*
X65876786Y-50351000D01*
X65635097Y-50302925D01*
X65407431Y-50208623D01*
X65407430Y-50208623D01*
X65407429Y-50208622D01*
X65202534Y-50071715D01*
X65028285Y-49897466D01*
X64891378Y-49692571D01*
X64844538Y-49579488D01*
X64797075Y-49464903D01*
X64749000Y-49223214D01*
X64749000Y-48976786D01*
X64797075Y-48735097D01*
X64891377Y-48507431D01*
X64902194Y-48491242D01*
X65028285Y-48302534D01*
X65202534Y-48128285D01*
X65407429Y-47991378D01*
X65635097Y-47897075D01*
X65876786Y-47849000D01*
X66123214Y-47849000D01*
X66364903Y-47897075D01*
X66364903Y-47897075D01*
G37*
G36*
X24666823Y-48581313D02*
G01*
X24827242Y-48629976D01*
X24959906Y-48700886D01*
X24975078Y-48708996D01*
X25104659Y-48815341D01*
X25211004Y-48944922D01*
X25211005Y-48944924D01*
X25290024Y-49092758D01*
X25338687Y-49253177D01*
X25355117Y-49420000D01*
X25338687Y-49586823D01*
X25290024Y-49747242D01*
X25223135Y-49872382D01*
X25211004Y-49895078D01*
X25104659Y-50024659D01*
X24975078Y-50131004D01*
X24975076Y-50131005D01*
X24827242Y-50210024D01*
X24666823Y-50258687D01*
X24541804Y-50271000D01*
X24458196Y-50271000D01*
X24333177Y-50258687D01*
X24172758Y-50210024D01*
X24024924Y-50131005D01*
X24024922Y-50131004D01*
X23895341Y-50024659D01*
X23788996Y-49895078D01*
X23776865Y-49872382D01*
X23709976Y-49747242D01*
X23661313Y-49586823D01*
X23644883Y-49420000D01*
X23661313Y-49253177D01*
X23709976Y-49092758D01*
X23788995Y-48944924D01*
X23788996Y-48944922D01*
X23895341Y-48815341D01*
X24024922Y-48708996D01*
X24040094Y-48700886D01*
X24172758Y-48629976D01*
X24333177Y-48581313D01*
X24458196Y-48569000D01*
X24541804Y-48569000D01*
X24666823Y-48581313D01*
X24666823Y-48581313D01*
G37*
G36*
X9426823Y-48581313D02*
G01*
X9587242Y-48629976D01*
X9719906Y-48700886D01*
X9735078Y-48708996D01*
X9864659Y-48815341D01*
X9971004Y-48944922D01*
X9971005Y-48944924D01*
X10050024Y-49092758D01*
X10098687Y-49253177D01*
X10115117Y-49420000D01*
X10098687Y-49586823D01*
X10050024Y-49747242D01*
X9983135Y-49872382D01*
X9971004Y-49895078D01*
X9864659Y-50024659D01*
X9735078Y-50131004D01*
X9735076Y-50131005D01*
X9587242Y-50210024D01*
X9426823Y-50258687D01*
X9301804Y-50271000D01*
X9218196Y-50271000D01*
X9093177Y-50258687D01*
X8932758Y-50210024D01*
X8784924Y-50131005D01*
X8784922Y-50131004D01*
X8655341Y-50024659D01*
X8548996Y-49895078D01*
X8536865Y-49872382D01*
X8469976Y-49747242D01*
X8421313Y-49586823D01*
X8404883Y-49420000D01*
X8421313Y-49253177D01*
X8469976Y-49092758D01*
X8548995Y-48944924D01*
X8548996Y-48944922D01*
X8655341Y-48815341D01*
X8784922Y-48708996D01*
X8800094Y-48700886D01*
X8932758Y-48629976D01*
X9093177Y-48581313D01*
X9218196Y-48569000D01*
X9301804Y-48569000D01*
X9426823Y-48581313D01*
X9426823Y-48581313D01*
G37*
G36*
X4766242Y-47353404D02*
G01*
X4803337Y-47364657D01*
X4837515Y-47382925D01*
X4867481Y-47407519D01*
X4892075Y-47437485D01*
X4910343Y-47471663D01*
X4921596Y-47508758D01*
X4926000Y-47553474D01*
X4926000Y-48446526D01*
X4921596Y-48491242D01*
X4910343Y-48528337D01*
X4892075Y-48562515D01*
X4867481Y-48592481D01*
X4837515Y-48617075D01*
X4803337Y-48635343D01*
X4766242Y-48646596D01*
X4721526Y-48651000D01*
X3278474Y-48651000D01*
X3233758Y-48646596D01*
X3196663Y-48635343D01*
X3162485Y-48617075D01*
X3132519Y-48592481D01*
X3107925Y-48562515D01*
X3089657Y-48528337D01*
X3078404Y-48491242D01*
X3074000Y-48446526D01*
X3074000Y-47553474D01*
X3078404Y-47508758D01*
X3089657Y-47471663D01*
X3107925Y-47437485D01*
X3132519Y-47407519D01*
X3162485Y-47382925D01*
X3196663Y-47364657D01*
X3233758Y-47353404D01*
X3278474Y-47349000D01*
X4721526Y-47349000D01*
X4766242Y-47353404D01*
X4766242Y-47353404D01*
G37*
G36*
X24666823Y-46041313D02*
G01*
X24827242Y-46089976D01*
X24959906Y-46160886D01*
X24975078Y-46168996D01*
X25104659Y-46275341D01*
X25211004Y-46404922D01*
X25211005Y-46404924D01*
X25290024Y-46552758D01*
X25338687Y-46713177D01*
X25355117Y-46880000D01*
X25338687Y-47046823D01*
X25290024Y-47207242D01*
X25219114Y-47339906D01*
X25211004Y-47355078D01*
X25104659Y-47484659D01*
X24975078Y-47591004D01*
X24975076Y-47591005D01*
X24827242Y-47670024D01*
X24666823Y-47718687D01*
X24541804Y-47731000D01*
X24458196Y-47731000D01*
X24333177Y-47718687D01*
X24172758Y-47670024D01*
X24024924Y-47591005D01*
X24024922Y-47591004D01*
X23895341Y-47484659D01*
X23788996Y-47355078D01*
X23780886Y-47339906D01*
X23709976Y-47207242D01*
X23661313Y-47046823D01*
X23644883Y-46880000D01*
X23661313Y-46713177D01*
X23709976Y-46552758D01*
X23788995Y-46404924D01*
X23788996Y-46404922D01*
X23895341Y-46275341D01*
X24024922Y-46168996D01*
X24040094Y-46160886D01*
X24172758Y-46089976D01*
X24333177Y-46041313D01*
X24458196Y-46029000D01*
X24541804Y-46029000D01*
X24666823Y-46041313D01*
X24666823Y-46041313D01*
G37*
G36*
X9426823Y-46041313D02*
G01*
X9587242Y-46089976D01*
X9719906Y-46160886D01*
X9735078Y-46168996D01*
X9864659Y-46275341D01*
X9971004Y-46404922D01*
X9971005Y-46404924D01*
X10050024Y-46552758D01*
X10098687Y-46713177D01*
X10115117Y-46880000D01*
X10098687Y-47046823D01*
X10050024Y-47207242D01*
X9979114Y-47339906D01*
X9971004Y-47355078D01*
X9864659Y-47484659D01*
X9735078Y-47591004D01*
X9735076Y-47591005D01*
X9587242Y-47670024D01*
X9426823Y-47718687D01*
X9301804Y-47731000D01*
X9218196Y-47731000D01*
X9093177Y-47718687D01*
X8932758Y-47670024D01*
X8784924Y-47591005D01*
X8784922Y-47591004D01*
X8655341Y-47484659D01*
X8548996Y-47355078D01*
X8540886Y-47339906D01*
X8469976Y-47207242D01*
X8421313Y-47046823D01*
X8404883Y-46880000D01*
X8421313Y-46713177D01*
X8469976Y-46552758D01*
X8548995Y-46404924D01*
X8548996Y-46404922D01*
X8655341Y-46275341D01*
X8784922Y-46168996D01*
X8800094Y-46160886D01*
X8932758Y-46089976D01*
X9093177Y-46041313D01*
X9218196Y-46029000D01*
X9301804Y-46029000D01*
X9426823Y-46041313D01*
X9426823Y-46041313D01*
G37*
G36*
X24666823Y-43501313D02*
G01*
X24827242Y-43549976D01*
X24959906Y-43620886D01*
X24975078Y-43628996D01*
X25104659Y-43735341D01*
X25211004Y-43864922D01*
X25211005Y-43864924D01*
X25290024Y-44012758D01*
X25338687Y-44173177D01*
X25355117Y-44340000D01*
X25338687Y-44506823D01*
X25290024Y-44667242D01*
X25219114Y-44799906D01*
X25211004Y-44815078D01*
X25104659Y-44944659D01*
X24975078Y-45051004D01*
X24975076Y-45051005D01*
X24827242Y-45130024D01*
X24666823Y-45178687D01*
X24541804Y-45191000D01*
X24458196Y-45191000D01*
X24333177Y-45178687D01*
X24172758Y-45130024D01*
X24024924Y-45051005D01*
X24024922Y-45051004D01*
X23895341Y-44944659D01*
X23788996Y-44815078D01*
X23780886Y-44799906D01*
X23709976Y-44667242D01*
X23661313Y-44506823D01*
X23644883Y-44340000D01*
X23661313Y-44173177D01*
X23709976Y-44012758D01*
X23788995Y-43864924D01*
X23788996Y-43864922D01*
X23895341Y-43735341D01*
X24024922Y-43628996D01*
X24040094Y-43620886D01*
X24172758Y-43549976D01*
X24333177Y-43501313D01*
X24458196Y-43489000D01*
X24541804Y-43489000D01*
X24666823Y-43501313D01*
X24666823Y-43501313D01*
G37*
G36*
X9426823Y-43501313D02*
G01*
X9587242Y-43549976D01*
X9719906Y-43620886D01*
X9735078Y-43628996D01*
X9864659Y-43735341D01*
X9971004Y-43864922D01*
X9971005Y-43864924D01*
X10050024Y-44012758D01*
X10098687Y-44173177D01*
X10115117Y-44340000D01*
X10098687Y-44506823D01*
X10050024Y-44667242D01*
X9979114Y-44799906D01*
X9971004Y-44815078D01*
X9864659Y-44944659D01*
X9735078Y-45051004D01*
X9735076Y-45051005D01*
X9587242Y-45130024D01*
X9426823Y-45178687D01*
X9301804Y-45191000D01*
X9218196Y-45191000D01*
X9093177Y-45178687D01*
X8932758Y-45130024D01*
X8784924Y-45051005D01*
X8784922Y-45051004D01*
X8655341Y-44944659D01*
X8548996Y-44815078D01*
X8540886Y-44799906D01*
X8469976Y-44667242D01*
X8421313Y-44506823D01*
X8404883Y-44340000D01*
X8421313Y-44173177D01*
X8469976Y-44012758D01*
X8548995Y-43864924D01*
X8548996Y-43864922D01*
X8655341Y-43735341D01*
X8784922Y-43628996D01*
X8800094Y-43620886D01*
X8932758Y-43549976D01*
X9093177Y-43501313D01*
X9218196Y-43489000D01*
X9301804Y-43489000D01*
X9426823Y-43501313D01*
X9426823Y-43501313D01*
G37*
G36*
X95829487Y-42348996D02*
G01*
X96066253Y-42447068D01*
X96066255Y-42447069D01*
X96279339Y-42589447D01*
X96460553Y-42770661D01*
X96590457Y-42965076D01*
X96602932Y-42983747D01*
X96701004Y-43220513D01*
X96751000Y-43471861D01*
X96751000Y-43728139D01*
X96701004Y-43979487D01*
X96602932Y-44216253D01*
X96602931Y-44216255D01*
X96460553Y-44429339D01*
X96279339Y-44610553D01*
X96066255Y-44752931D01*
X96066254Y-44752932D01*
X96066253Y-44752932D01*
X95829487Y-44851004D01*
X95578139Y-44901000D01*
X95321861Y-44901000D01*
X95070513Y-44851004D01*
X94833747Y-44752932D01*
X94833746Y-44752932D01*
X94833745Y-44752931D01*
X94620661Y-44610553D01*
X94439447Y-44429339D01*
X94297069Y-44216255D01*
X94297068Y-44216253D01*
X94198996Y-43979487D01*
X94149000Y-43728139D01*
X94149000Y-43471861D01*
X94198996Y-43220513D01*
X94297068Y-42983747D01*
X94309544Y-42965076D01*
X94439447Y-42770661D01*
X94620661Y-42589447D01*
X94833745Y-42447069D01*
X94833747Y-42447068D01*
X95070513Y-42348996D01*
X95321861Y-42299000D01*
X95578139Y-42299000D01*
X95829487Y-42348996D01*
X95829487Y-42348996D01*
G37*
G36*
X38266823Y-41651313D02*
G01*
X38427242Y-41699976D01*
X38559906Y-41770886D01*
X38575078Y-41778996D01*
X38704659Y-41885341D01*
X38811004Y-42014922D01*
X38811005Y-42014924D01*
X38890024Y-42162758D01*
X38938687Y-42323177D01*
X38955117Y-42490000D01*
X38938687Y-42656823D01*
X38890024Y-42817242D01*
X38845254Y-42901000D01*
X38811004Y-42965078D01*
X38704659Y-43094659D01*
X38575078Y-43201004D01*
X38575076Y-43201005D01*
X38427242Y-43280024D01*
X38266823Y-43328687D01*
X38141804Y-43341000D01*
X38058196Y-43341000D01*
X37933177Y-43328687D01*
X37772758Y-43280024D01*
X37624924Y-43201005D01*
X37624922Y-43201004D01*
X37495341Y-43094659D01*
X37388996Y-42965078D01*
X37354746Y-42901000D01*
X37309976Y-42817242D01*
X37261313Y-42656823D01*
X37244883Y-42490000D01*
X37261313Y-42323177D01*
X37309976Y-42162758D01*
X37388995Y-42014924D01*
X37388996Y-42014922D01*
X37495341Y-41885341D01*
X37624922Y-41778996D01*
X37640094Y-41770886D01*
X37772758Y-41699976D01*
X37933177Y-41651313D01*
X38058196Y-41639000D01*
X38141804Y-41639000D01*
X38266823Y-41651313D01*
X38266823Y-41651313D01*
G37*
G36*
X30646823Y-41651313D02*
G01*
X30807242Y-41699976D01*
X30939906Y-41770886D01*
X30955078Y-41778996D01*
X31084659Y-41885341D01*
X31191004Y-42014922D01*
X31191005Y-42014924D01*
X31270024Y-42162758D01*
X31318687Y-42323177D01*
X31335117Y-42490000D01*
X31318687Y-42656823D01*
X31270024Y-42817242D01*
X31225254Y-42901000D01*
X31191004Y-42965078D01*
X31084659Y-43094659D01*
X30955078Y-43201004D01*
X30955076Y-43201005D01*
X30807242Y-43280024D01*
X30646823Y-43328687D01*
X30521804Y-43341000D01*
X30438196Y-43341000D01*
X30313177Y-43328687D01*
X30152758Y-43280024D01*
X30004924Y-43201005D01*
X30004922Y-43201004D01*
X29875341Y-43094659D01*
X29768996Y-42965078D01*
X29734746Y-42901000D01*
X29689976Y-42817242D01*
X29641313Y-42656823D01*
X29624883Y-42490000D01*
X29641313Y-42323177D01*
X29689976Y-42162758D01*
X29768995Y-42014924D01*
X29768996Y-42014922D01*
X29875341Y-41885341D01*
X30004922Y-41778996D01*
X30020094Y-41770886D01*
X30152758Y-41699976D01*
X30313177Y-41651313D01*
X30438196Y-41639000D01*
X30521804Y-41639000D01*
X30646823Y-41651313D01*
X30646823Y-41651313D01*
G37*
G36*
X52301000Y-43251000D02*
G01*
X47699000Y-43251000D01*
X47699000Y-40649000D01*
X52301000Y-40649000D01*
X52301000Y-43251000D01*
X52301000Y-43251000D01*
G37*
G36*
X62777395Y-41035546D02*
G01*
X62950466Y-41107234D01*
X62950467Y-41107235D01*
X63106227Y-41211310D01*
X63238690Y-41343773D01*
X63238691Y-41343775D01*
X63342766Y-41499534D01*
X63414454Y-41672605D01*
X63451000Y-41856333D01*
X63451000Y-42043667D01*
X63414454Y-42227395D01*
X63342766Y-42400466D01*
X63342765Y-42400467D01*
X63238690Y-42556227D01*
X63106227Y-42688690D01*
X63027818Y-42741081D01*
X62950466Y-42792766D01*
X62777395Y-42864454D01*
X62593667Y-42901000D01*
X62406333Y-42901000D01*
X62222605Y-42864454D01*
X62049534Y-42792766D01*
X61972182Y-42741081D01*
X61893773Y-42688690D01*
X61761310Y-42556227D01*
X61657235Y-42400467D01*
X61657234Y-42400466D01*
X61585546Y-42227395D01*
X61549000Y-42043667D01*
X61549000Y-41856333D01*
X61585546Y-41672605D01*
X61657234Y-41499534D01*
X61761309Y-41343775D01*
X61761310Y-41343773D01*
X61893773Y-41211310D01*
X62049533Y-41107235D01*
X62049534Y-41107234D01*
X62222605Y-41035546D01*
X62406333Y-40999000D01*
X62593667Y-40999000D01*
X62777395Y-41035546D01*
X62777395Y-41035546D01*
G37*
G36*
X58277395Y-41035546D02*
G01*
X58450466Y-41107234D01*
X58450467Y-41107235D01*
X58606227Y-41211310D01*
X58738690Y-41343773D01*
X58738691Y-41343775D01*
X58842766Y-41499534D01*
X58914454Y-41672605D01*
X58951000Y-41856333D01*
X58951000Y-42043667D01*
X58914454Y-42227395D01*
X58842766Y-42400466D01*
X58842765Y-42400467D01*
X58738690Y-42556227D01*
X58606227Y-42688690D01*
X58527818Y-42741081D01*
X58450466Y-42792766D01*
X58277395Y-42864454D01*
X58093667Y-42901000D01*
X57906333Y-42901000D01*
X57722605Y-42864454D01*
X57549534Y-42792766D01*
X57472182Y-42741081D01*
X57393773Y-42688690D01*
X57261310Y-42556227D01*
X57157235Y-42400467D01*
X57157234Y-42400466D01*
X57085546Y-42227395D01*
X57049000Y-42043667D01*
X57049000Y-41856333D01*
X57085546Y-41672605D01*
X57157234Y-41499534D01*
X57261309Y-41343775D01*
X57261310Y-41343773D01*
X57393773Y-41211310D01*
X57549533Y-41107235D01*
X57549534Y-41107234D01*
X57722605Y-41035546D01*
X57906333Y-40999000D01*
X58093667Y-40999000D01*
X58277395Y-41035546D01*
X58277395Y-41035546D01*
G37*
G36*
X24666823Y-40961313D02*
G01*
X24827242Y-41009976D01*
X24959906Y-41080886D01*
X24975078Y-41088996D01*
X25104659Y-41195341D01*
X25211004Y-41324922D01*
X25211005Y-41324924D01*
X25290024Y-41472758D01*
X25338687Y-41633177D01*
X25355117Y-41800000D01*
X25338687Y-41966823D01*
X25290024Y-42127242D01*
X25219114Y-42259906D01*
X25211004Y-42275078D01*
X25104659Y-42404659D01*
X24975078Y-42511004D01*
X24975076Y-42511005D01*
X24827242Y-42590024D01*
X24666823Y-42638687D01*
X24541804Y-42651000D01*
X24458196Y-42651000D01*
X24333177Y-42638687D01*
X24172758Y-42590024D01*
X24024924Y-42511005D01*
X24024922Y-42511004D01*
X23895341Y-42404659D01*
X23788996Y-42275078D01*
X23780886Y-42259906D01*
X23709976Y-42127242D01*
X23661313Y-41966823D01*
X23644883Y-41800000D01*
X23661313Y-41633177D01*
X23709976Y-41472758D01*
X23788995Y-41324924D01*
X23788996Y-41324922D01*
X23895341Y-41195341D01*
X24024922Y-41088996D01*
X24040094Y-41080886D01*
X24172758Y-41009976D01*
X24333177Y-40961313D01*
X24458196Y-40949000D01*
X24541804Y-40949000D01*
X24666823Y-40961313D01*
X24666823Y-40961313D01*
G37*
G36*
X9426823Y-40961313D02*
G01*
X9587242Y-41009976D01*
X9719906Y-41080886D01*
X9735078Y-41088996D01*
X9864659Y-41195341D01*
X9971004Y-41324922D01*
X9971005Y-41324924D01*
X10050024Y-41472758D01*
X10098687Y-41633177D01*
X10115117Y-41800000D01*
X10098687Y-41966823D01*
X10050024Y-42127242D01*
X9979114Y-42259906D01*
X9971004Y-42275078D01*
X9864659Y-42404659D01*
X9735078Y-42511004D01*
X9735076Y-42511005D01*
X9587242Y-42590024D01*
X9426823Y-42638687D01*
X9301804Y-42651000D01*
X9218196Y-42651000D01*
X9093177Y-42638687D01*
X8932758Y-42590024D01*
X8784924Y-42511005D01*
X8784922Y-42511004D01*
X8655341Y-42404659D01*
X8548996Y-42275078D01*
X8540886Y-42259906D01*
X8469976Y-42127242D01*
X8421313Y-41966823D01*
X8404883Y-41800000D01*
X8421313Y-41633177D01*
X8469976Y-41472758D01*
X8548995Y-41324924D01*
X8548996Y-41324922D01*
X8655341Y-41195341D01*
X8784922Y-41088996D01*
X8800094Y-41080886D01*
X8932758Y-41009976D01*
X9093177Y-40961313D01*
X9218196Y-40949000D01*
X9301804Y-40949000D01*
X9426823Y-40961313D01*
X9426823Y-40961313D01*
G37*
G36*
X66364903Y-38397075D02*
G01*
X66540900Y-38469975D01*
X66592571Y-38491378D01*
X66797466Y-38628285D01*
X66971715Y-38802534D01*
X67058728Y-38932758D01*
X67108623Y-39007431D01*
X67202925Y-39235097D01*
X67251000Y-39476786D01*
X67251000Y-39723214D01*
X67222865Y-39864659D01*
X67202925Y-39964903D01*
X67108622Y-40192571D01*
X66971715Y-40397466D01*
X66797466Y-40571715D01*
X66592571Y-40708622D01*
X66592570Y-40708623D01*
X66592569Y-40708623D01*
X66364903Y-40802925D01*
X66123214Y-40851000D01*
X65876786Y-40851000D01*
X65635097Y-40802925D01*
X65407431Y-40708623D01*
X65407430Y-40708623D01*
X65407429Y-40708622D01*
X65202534Y-40571715D01*
X65028285Y-40397466D01*
X64891378Y-40192571D01*
X64797075Y-39964903D01*
X64777135Y-39864659D01*
X64749000Y-39723214D01*
X64749000Y-39476786D01*
X64797075Y-39235097D01*
X64891377Y-39007431D01*
X64941272Y-38932758D01*
X65028285Y-38802534D01*
X65202534Y-38628285D01*
X65407429Y-38491378D01*
X65459101Y-38469975D01*
X65635097Y-38397075D01*
X65876786Y-38349000D01*
X66123214Y-38349000D01*
X66364903Y-38397075D01*
X66364903Y-38397075D01*
G37*
G36*
X38266823Y-39111313D02*
G01*
X38397380Y-39150917D01*
X38402301Y-39152410D01*
X38427242Y-39159976D01*
X38559906Y-39230886D01*
X38575078Y-39238996D01*
X38704659Y-39345341D01*
X38811004Y-39474922D01*
X38811005Y-39474924D01*
X38890024Y-39622758D01*
X38938687Y-39783177D01*
X38955117Y-39950000D01*
X38938687Y-40116823D01*
X38938686Y-40116825D01*
X38897985Y-40251000D01*
X38890024Y-40277242D01*
X38825764Y-40397464D01*
X38811004Y-40425078D01*
X38704659Y-40554659D01*
X38575078Y-40661004D01*
X38575076Y-40661005D01*
X38427242Y-40740024D01*
X38266823Y-40788687D01*
X38141804Y-40801000D01*
X38058196Y-40801000D01*
X37933177Y-40788687D01*
X37772758Y-40740024D01*
X37624924Y-40661005D01*
X37624922Y-40661004D01*
X37495341Y-40554659D01*
X37388996Y-40425078D01*
X37374236Y-40397464D01*
X37309976Y-40277242D01*
X37302016Y-40251000D01*
X37261314Y-40116825D01*
X37261313Y-40116823D01*
X37244883Y-39950000D01*
X37261313Y-39783177D01*
X37309976Y-39622758D01*
X37388995Y-39474924D01*
X37388996Y-39474922D01*
X37495341Y-39345341D01*
X37624922Y-39238996D01*
X37640094Y-39230886D01*
X37772758Y-39159976D01*
X37797700Y-39152410D01*
X37802620Y-39150917D01*
X37933177Y-39111313D01*
X38058196Y-39099000D01*
X38141804Y-39099000D01*
X38266823Y-39111313D01*
X38266823Y-39111313D01*
G37*
G36*
X31331000Y-40801000D02*
G01*
X29629000Y-40801000D01*
X29629000Y-39099000D01*
X31331000Y-39099000D01*
X31331000Y-40801000D01*
X31331000Y-40801000D01*
G37*
G36*
X4338855Y-39352140D02*
G01*
X4402618Y-39358420D01*
X4493404Y-39385960D01*
X4525336Y-39395646D01*
X4638425Y-39456094D01*
X4737554Y-39537446D01*
X4818906Y-39636575D01*
X4879354Y-39749664D01*
X4879355Y-39749668D01*
X4916580Y-39872382D01*
X4929149Y-40000000D01*
X4916580Y-40127618D01*
X4889040Y-40218404D01*
X4879354Y-40250336D01*
X4818906Y-40363425D01*
X4737554Y-40462554D01*
X4638425Y-40543906D01*
X4525336Y-40604354D01*
X4493404Y-40614040D01*
X4402618Y-40641580D01*
X4338855Y-40647860D01*
X4306974Y-40651000D01*
X3693026Y-40651000D01*
X3661145Y-40647860D01*
X3597382Y-40641580D01*
X3506596Y-40614040D01*
X3474664Y-40604354D01*
X3361575Y-40543906D01*
X3262446Y-40462554D01*
X3181094Y-40363425D01*
X3120646Y-40250336D01*
X3110960Y-40218404D01*
X3083420Y-40127618D01*
X3070851Y-40000000D01*
X3083420Y-39872382D01*
X3120645Y-39749668D01*
X3120646Y-39749664D01*
X3181094Y-39636575D01*
X3262446Y-39537446D01*
X3361575Y-39456094D01*
X3474664Y-39395646D01*
X3506596Y-39385960D01*
X3597382Y-39358420D01*
X3661145Y-39352140D01*
X3693026Y-39349000D01*
X4306974Y-39349000D01*
X4338855Y-39352140D01*
X4338855Y-39352140D01*
G37*
G36*
X56202585Y-37178802D02*
G01*
X56352410Y-37208604D01*
X56634674Y-37325521D01*
X56888705Y-37495259D01*
X57104741Y-37711295D01*
X57274479Y-37965326D01*
X57371694Y-38200025D01*
X57391396Y-38247591D01*
X57451000Y-38547239D01*
X57451000Y-38852761D01*
X57435087Y-38932761D01*
X57391396Y-39152410D01*
X57274479Y-39434674D01*
X57104741Y-39688705D01*
X56888705Y-39904741D01*
X56634674Y-40074479D01*
X56352410Y-40191396D01*
X56202585Y-40221198D01*
X56052761Y-40251000D01*
X55747239Y-40251000D01*
X55597415Y-40221198D01*
X55447590Y-40191396D01*
X55165326Y-40074479D01*
X54911295Y-39904741D01*
X54695259Y-39688705D01*
X54525521Y-39434674D01*
X54408604Y-39152410D01*
X54364913Y-38932761D01*
X54349000Y-38852761D01*
X54349000Y-38547239D01*
X54408604Y-38247591D01*
X54428306Y-38200025D01*
X54525521Y-37965326D01*
X54695259Y-37711295D01*
X54911295Y-37495259D01*
X55165326Y-37325521D01*
X55447590Y-37208604D01*
X55597415Y-37178802D01*
X55747239Y-37149000D01*
X56052761Y-37149000D01*
X56202585Y-37178802D01*
X56202585Y-37178802D01*
G37*
G36*
X9426823Y-38421313D02*
G01*
X9587242Y-38469976D01*
X9719906Y-38540886D01*
X9735078Y-38548996D01*
X9864659Y-38655341D01*
X9971004Y-38784922D01*
X9971005Y-38784924D01*
X10050024Y-38932758D01*
X10098687Y-39093177D01*
X10115117Y-39260000D01*
X10098687Y-39426823D01*
X10050024Y-39587242D01*
X10023655Y-39636574D01*
X9971004Y-39735078D01*
X9864659Y-39864659D01*
X9735078Y-39971004D01*
X9735076Y-39971005D01*
X9587242Y-40050024D01*
X9426823Y-40098687D01*
X9301804Y-40111000D01*
X9218196Y-40111000D01*
X9093177Y-40098687D01*
X8932758Y-40050024D01*
X8784924Y-39971005D01*
X8784922Y-39971004D01*
X8655341Y-39864659D01*
X8548996Y-39735078D01*
X8496345Y-39636574D01*
X8469976Y-39587242D01*
X8421313Y-39426823D01*
X8404883Y-39260000D01*
X8421313Y-39093177D01*
X8469976Y-38932758D01*
X8548995Y-38784924D01*
X8548996Y-38784922D01*
X8655341Y-38655341D01*
X8784922Y-38548996D01*
X8800094Y-38540886D01*
X8932758Y-38469976D01*
X9093177Y-38421313D01*
X9218196Y-38409000D01*
X9301804Y-38409000D01*
X9426823Y-38421313D01*
X9426823Y-38421313D01*
G37*
G36*
X24666823Y-38421313D02*
G01*
X24827242Y-38469976D01*
X24959906Y-38540886D01*
X24975078Y-38548996D01*
X25104659Y-38655341D01*
X25211004Y-38784922D01*
X25211005Y-38784924D01*
X25290024Y-38932758D01*
X25338687Y-39093177D01*
X25355117Y-39260000D01*
X25338687Y-39426823D01*
X25290024Y-39587242D01*
X25263655Y-39636574D01*
X25211004Y-39735078D01*
X25104659Y-39864659D01*
X24975078Y-39971004D01*
X24975076Y-39971005D01*
X24827242Y-40050024D01*
X24666823Y-40098687D01*
X24541804Y-40111000D01*
X24458196Y-40111000D01*
X24333177Y-40098687D01*
X24172758Y-40050024D01*
X24024924Y-39971005D01*
X24024922Y-39971004D01*
X23895341Y-39864659D01*
X23788996Y-39735078D01*
X23736345Y-39636574D01*
X23709976Y-39587242D01*
X23661313Y-39426823D01*
X23644883Y-39260000D01*
X23661313Y-39093177D01*
X23709976Y-38932758D01*
X23788995Y-38784924D01*
X23788996Y-38784922D01*
X23895341Y-38655341D01*
X24024922Y-38548996D01*
X24040094Y-38540886D01*
X24172758Y-38469976D01*
X24333177Y-38421313D01*
X24458196Y-38409000D01*
X24541804Y-38409000D01*
X24666823Y-38421313D01*
X24666823Y-38421313D01*
G37*
G36*
X4338855Y-37352140D02*
G01*
X4402618Y-37358420D01*
X4493404Y-37385960D01*
X4525336Y-37395646D01*
X4638425Y-37456094D01*
X4737554Y-37537446D01*
X4818906Y-37636575D01*
X4879354Y-37749664D01*
X4879355Y-37749668D01*
X4916580Y-37872382D01*
X4929149Y-38000000D01*
X4916580Y-38127618D01*
X4889040Y-38218404D01*
X4879354Y-38250336D01*
X4818906Y-38363425D01*
X4737554Y-38462554D01*
X4638425Y-38543906D01*
X4525336Y-38604354D01*
X4493404Y-38614040D01*
X4402618Y-38641580D01*
X4338855Y-38647860D01*
X4306974Y-38651000D01*
X3693026Y-38651000D01*
X3661145Y-38647860D01*
X3597382Y-38641580D01*
X3506596Y-38614040D01*
X3474664Y-38604354D01*
X3361575Y-38543906D01*
X3262446Y-38462554D01*
X3181094Y-38363425D01*
X3120646Y-38250336D01*
X3110960Y-38218404D01*
X3083420Y-38127618D01*
X3070851Y-38000000D01*
X3083420Y-37872382D01*
X3120645Y-37749668D01*
X3120646Y-37749664D01*
X3181094Y-37636575D01*
X3262446Y-37537446D01*
X3361575Y-37456094D01*
X3474664Y-37395646D01*
X3506596Y-37385960D01*
X3597382Y-37358420D01*
X3661145Y-37352140D01*
X3693026Y-37349000D01*
X4306974Y-37349000D01*
X4338855Y-37352140D01*
X4338855Y-37352140D01*
G37*
G36*
X62701000Y-38601000D02*
G01*
X59299000Y-38601000D01*
X59299000Y-35999000D01*
X62701000Y-35999000D01*
X62701000Y-38601000D01*
X62701000Y-38601000D01*
G37*
G36*
X30646823Y-36571313D02*
G01*
X30807242Y-36619976D01*
X30939906Y-36690886D01*
X30955078Y-36698996D01*
X31084659Y-36805341D01*
X31191004Y-36934922D01*
X31191005Y-36934924D01*
X31270024Y-37082758D01*
X31318687Y-37243177D01*
X31335117Y-37410000D01*
X31318687Y-37576823D01*
X31270024Y-37737242D01*
X31199114Y-37869906D01*
X31191004Y-37885078D01*
X31084659Y-38014659D01*
X30955078Y-38121004D01*
X30955076Y-38121005D01*
X30807242Y-38200024D01*
X30646823Y-38248687D01*
X30521804Y-38261000D01*
X30438196Y-38261000D01*
X30313177Y-38248687D01*
X30152758Y-38200024D01*
X30004924Y-38121005D01*
X30004922Y-38121004D01*
X29875341Y-38014659D01*
X29768996Y-37885078D01*
X29760886Y-37869906D01*
X29689976Y-37737242D01*
X29641313Y-37576823D01*
X29624883Y-37410000D01*
X29641313Y-37243177D01*
X29689976Y-37082758D01*
X29768995Y-36934924D01*
X29768996Y-36934922D01*
X29875341Y-36805341D01*
X30004922Y-36698996D01*
X30020094Y-36690886D01*
X30152758Y-36619976D01*
X30313177Y-36571313D01*
X30438196Y-36559000D01*
X30521804Y-36559000D01*
X30646823Y-36571313D01*
X30646823Y-36571313D01*
G37*
G36*
X38266823Y-36571313D02*
G01*
X38427242Y-36619976D01*
X38559906Y-36690886D01*
X38575078Y-36698996D01*
X38704659Y-36805341D01*
X38811004Y-36934922D01*
X38811005Y-36934924D01*
X38890024Y-37082758D01*
X38938687Y-37243177D01*
X38955117Y-37410000D01*
X38938687Y-37576823D01*
X38890024Y-37737242D01*
X38819114Y-37869906D01*
X38811004Y-37885078D01*
X38704659Y-38014659D01*
X38575078Y-38121004D01*
X38575076Y-38121005D01*
X38427242Y-38200024D01*
X38266823Y-38248687D01*
X38141804Y-38261000D01*
X38058196Y-38261000D01*
X37933177Y-38248687D01*
X37772758Y-38200024D01*
X37624924Y-38121005D01*
X37624922Y-38121004D01*
X37495341Y-38014659D01*
X37388996Y-37885078D01*
X37380886Y-37869906D01*
X37309976Y-37737242D01*
X37261313Y-37576823D01*
X37244883Y-37410000D01*
X37261313Y-37243177D01*
X37309976Y-37082758D01*
X37388995Y-36934924D01*
X37388996Y-36934922D01*
X37495341Y-36805341D01*
X37624922Y-36698996D01*
X37640094Y-36690886D01*
X37772758Y-36619976D01*
X37933177Y-36571313D01*
X38058196Y-36559000D01*
X38141804Y-36559000D01*
X38266823Y-36571313D01*
X38266823Y-36571313D01*
G37*
G36*
X51159473Y-35208413D02*
G01*
X51255040Y-35217825D01*
X51500280Y-35292218D01*
X51726294Y-35413025D01*
X51777899Y-35455376D01*
X51924397Y-35575603D01*
X52033614Y-35708686D01*
X52086975Y-35773706D01*
X52207782Y-35999720D01*
X52282175Y-36244960D01*
X52307294Y-36500000D01*
X52282175Y-36755040D01*
X52207782Y-37000280D01*
X52086975Y-37226294D01*
X52073121Y-37243175D01*
X51924397Y-37424397D01*
X51786645Y-37537446D01*
X51726294Y-37586975D01*
X51500280Y-37707782D01*
X51255040Y-37782175D01*
X51159472Y-37791588D01*
X51063906Y-37801000D01*
X48936094Y-37801000D01*
X48840527Y-37791587D01*
X48744960Y-37782175D01*
X48499720Y-37707782D01*
X48273706Y-37586975D01*
X48213355Y-37537446D01*
X48075603Y-37424397D01*
X47926879Y-37243175D01*
X47913025Y-37226294D01*
X47792218Y-37000280D01*
X47717825Y-36755040D01*
X47692706Y-36500000D01*
X47717825Y-36244960D01*
X47792218Y-35999720D01*
X47913025Y-35773706D01*
X47966386Y-35708686D01*
X48075603Y-35575603D01*
X48222101Y-35455376D01*
X48273706Y-35413025D01*
X48499720Y-35292218D01*
X48744960Y-35217825D01*
X48840527Y-35208413D01*
X48936094Y-35199000D01*
X51063906Y-35199000D01*
X51159473Y-35208413D01*
X51159473Y-35208413D01*
G37*
G36*
X9426823Y-35881313D02*
G01*
X9587242Y-35929976D01*
X9716377Y-35999000D01*
X9735078Y-36008996D01*
X9864659Y-36115341D01*
X9971004Y-36244922D01*
X9971005Y-36244924D01*
X10050024Y-36392758D01*
X10098687Y-36553177D01*
X10115117Y-36720000D01*
X10098687Y-36886823D01*
X10050024Y-37047242D01*
X9995633Y-37149000D01*
X9971004Y-37195078D01*
X9864659Y-37324659D01*
X9735078Y-37431004D01*
X9735076Y-37431005D01*
X9587242Y-37510024D01*
X9426823Y-37558687D01*
X9301804Y-37571000D01*
X9218196Y-37571000D01*
X9093177Y-37558687D01*
X8932758Y-37510024D01*
X8784924Y-37431005D01*
X8784922Y-37431004D01*
X8655341Y-37324659D01*
X8548996Y-37195078D01*
X8524367Y-37149000D01*
X8469976Y-37047242D01*
X8421313Y-36886823D01*
X8404883Y-36720000D01*
X8421313Y-36553177D01*
X8469976Y-36392758D01*
X8548995Y-36244924D01*
X8548996Y-36244922D01*
X8655341Y-36115341D01*
X8784922Y-36008996D01*
X8803623Y-35999000D01*
X8932758Y-35929976D01*
X9093177Y-35881313D01*
X9218196Y-35869000D01*
X9301804Y-35869000D01*
X9426823Y-35881313D01*
X9426823Y-35881313D01*
G37*
G36*
X24666823Y-35881313D02*
G01*
X24827242Y-35929976D01*
X24956377Y-35999000D01*
X24975078Y-36008996D01*
X25104659Y-36115341D01*
X25211004Y-36244922D01*
X25211005Y-36244924D01*
X25290024Y-36392758D01*
X25338687Y-36553177D01*
X25355117Y-36720000D01*
X25338687Y-36886823D01*
X25290024Y-37047242D01*
X25235633Y-37149000D01*
X25211004Y-37195078D01*
X25104659Y-37324659D01*
X24975078Y-37431004D01*
X24975076Y-37431005D01*
X24827242Y-37510024D01*
X24666823Y-37558687D01*
X24541804Y-37571000D01*
X24458196Y-37571000D01*
X24333177Y-37558687D01*
X24172758Y-37510024D01*
X24024924Y-37431005D01*
X24024922Y-37431004D01*
X23895341Y-37324659D01*
X23788996Y-37195078D01*
X23764367Y-37149000D01*
X23709976Y-37047242D01*
X23661313Y-36886823D01*
X23644883Y-36720000D01*
X23661313Y-36553177D01*
X23709976Y-36392758D01*
X23788995Y-36244924D01*
X23788996Y-36244922D01*
X23895341Y-36115341D01*
X24024922Y-36008996D01*
X24043623Y-35999000D01*
X24172758Y-35929976D01*
X24333177Y-35881313D01*
X24458196Y-35869000D01*
X24541804Y-35869000D01*
X24666823Y-35881313D01*
X24666823Y-35881313D01*
G37*
G36*
X4338855Y-35352140D02*
G01*
X4402618Y-35358420D01*
X4493404Y-35385960D01*
X4525336Y-35395646D01*
X4638425Y-35456094D01*
X4737554Y-35537446D01*
X4818906Y-35636575D01*
X4879354Y-35749664D01*
X4889040Y-35781596D01*
X4916580Y-35872382D01*
X4929149Y-36000000D01*
X4916580Y-36127618D01*
X4889040Y-36218404D01*
X4879354Y-36250336D01*
X4818906Y-36363425D01*
X4737554Y-36462554D01*
X4638425Y-36543906D01*
X4525336Y-36604354D01*
X4493404Y-36614040D01*
X4402618Y-36641580D01*
X4338855Y-36647860D01*
X4306974Y-36651000D01*
X3693026Y-36651000D01*
X3661145Y-36647860D01*
X3597382Y-36641580D01*
X3506596Y-36614040D01*
X3474664Y-36604354D01*
X3361575Y-36543906D01*
X3262446Y-36462554D01*
X3181094Y-36363425D01*
X3120646Y-36250336D01*
X3110960Y-36218404D01*
X3083420Y-36127618D01*
X3070851Y-36000000D01*
X3083420Y-35872382D01*
X3110960Y-35781596D01*
X3120646Y-35749664D01*
X3181094Y-35636575D01*
X3262446Y-35537446D01*
X3361575Y-35456094D01*
X3474664Y-35395646D01*
X3506596Y-35385960D01*
X3597382Y-35358420D01*
X3661145Y-35352140D01*
X3693026Y-35349000D01*
X4306974Y-35349000D01*
X4338855Y-35352140D01*
X4338855Y-35352140D01*
G37*
G36*
X76402585Y-32778802D02*
G01*
X76552410Y-32808604D01*
X76834674Y-32925521D01*
X77088705Y-33095259D01*
X77304741Y-33311295D01*
X77474479Y-33565326D01*
X77591396Y-33847590D01*
X77621198Y-33997415D01*
X77651000Y-34147239D01*
X77651000Y-34452761D01*
X77640163Y-34507242D01*
X77591396Y-34752410D01*
X77474479Y-35034674D01*
X77304741Y-35288705D01*
X77088705Y-35504741D01*
X76834674Y-35674479D01*
X76552410Y-35791396D01*
X76402585Y-35821198D01*
X76252761Y-35851000D01*
X75947239Y-35851000D01*
X75797415Y-35821198D01*
X75647590Y-35791396D01*
X75365326Y-35674479D01*
X75111295Y-35504741D01*
X74895259Y-35288705D01*
X74725521Y-35034674D01*
X74608604Y-34752410D01*
X74559837Y-34507242D01*
X74549000Y-34452761D01*
X74549000Y-34147239D01*
X74578802Y-33997415D01*
X74608604Y-33847590D01*
X74725521Y-33565326D01*
X74895259Y-33311295D01*
X75111295Y-33095259D01*
X75365326Y-32925521D01*
X75647590Y-32808604D01*
X75797415Y-32778802D01*
X75947239Y-32749000D01*
X76252761Y-32749000D01*
X76402585Y-32778802D01*
X76402585Y-32778802D01*
G37*
G36*
X38266823Y-34031313D02*
G01*
X38427242Y-34079976D01*
X38553082Y-34147239D01*
X38575078Y-34158996D01*
X38704659Y-34265341D01*
X38811004Y-34394922D01*
X38811005Y-34394924D01*
X38890024Y-34542758D01*
X38938687Y-34703177D01*
X38955117Y-34870000D01*
X38938687Y-35036823D01*
X38890024Y-35197242D01*
X38889084Y-35199000D01*
X38811004Y-35345078D01*
X38704659Y-35474659D01*
X38575078Y-35581004D01*
X38575076Y-35581005D01*
X38427242Y-35660024D01*
X38266823Y-35708687D01*
X38141804Y-35721000D01*
X38058196Y-35721000D01*
X37933177Y-35708687D01*
X37772758Y-35660024D01*
X37624924Y-35581005D01*
X37624922Y-35581004D01*
X37495341Y-35474659D01*
X37388996Y-35345078D01*
X37310916Y-35199000D01*
X37309976Y-35197242D01*
X37261313Y-35036823D01*
X37244883Y-34870000D01*
X37261313Y-34703177D01*
X37309976Y-34542758D01*
X37388995Y-34394924D01*
X37388996Y-34394922D01*
X37495341Y-34265341D01*
X37624922Y-34158996D01*
X37646918Y-34147239D01*
X37772758Y-34079976D01*
X37933177Y-34031313D01*
X38058196Y-34019000D01*
X38141804Y-34019000D01*
X38266823Y-34031313D01*
X38266823Y-34031313D01*
G37*
G36*
X31331000Y-35721000D02*
G01*
X29629000Y-35721000D01*
X29629000Y-34019000D01*
X31331000Y-34019000D01*
X31331000Y-35721000D01*
X31331000Y-35721000D01*
G37*
G36*
X24666823Y-33341313D02*
G01*
X24827242Y-33389976D01*
X24899216Y-33428447D01*
X24975078Y-33468996D01*
X25104659Y-33575341D01*
X25211004Y-33704922D01*
X25211005Y-33704924D01*
X25290024Y-33852758D01*
X25338687Y-34013177D01*
X25355117Y-34180000D01*
X25338687Y-34346823D01*
X25290024Y-34507242D01*
X25219114Y-34639906D01*
X25211004Y-34655078D01*
X25104659Y-34784659D01*
X24975078Y-34891004D01*
X24975076Y-34891005D01*
X24827242Y-34970024D01*
X24666823Y-35018687D01*
X24541804Y-35031000D01*
X24458196Y-35031000D01*
X24333177Y-35018687D01*
X24172758Y-34970024D01*
X24024924Y-34891005D01*
X24024922Y-34891004D01*
X23895341Y-34784659D01*
X23788996Y-34655078D01*
X23780886Y-34639906D01*
X23709976Y-34507242D01*
X23661313Y-34346823D01*
X23644883Y-34180000D01*
X23661313Y-34013177D01*
X23709976Y-33852758D01*
X23788995Y-33704924D01*
X23788996Y-33704922D01*
X23895341Y-33575341D01*
X24024922Y-33468996D01*
X24100784Y-33428447D01*
X24172758Y-33389976D01*
X24333177Y-33341313D01*
X24458196Y-33329000D01*
X24541804Y-33329000D01*
X24666823Y-33341313D01*
X24666823Y-33341313D01*
G37*
G36*
X9426823Y-33341313D02*
G01*
X9587242Y-33389976D01*
X9659216Y-33428447D01*
X9735078Y-33468996D01*
X9864659Y-33575341D01*
X9971004Y-33704922D01*
X9971005Y-33704924D01*
X10050024Y-33852758D01*
X10098687Y-34013177D01*
X10115117Y-34180000D01*
X10098687Y-34346823D01*
X10050024Y-34507242D01*
X9979114Y-34639906D01*
X9971004Y-34655078D01*
X9864659Y-34784659D01*
X9735078Y-34891004D01*
X9735076Y-34891005D01*
X9587242Y-34970024D01*
X9426823Y-35018687D01*
X9301804Y-35031000D01*
X9218196Y-35031000D01*
X9093177Y-35018687D01*
X8932758Y-34970024D01*
X8784924Y-34891005D01*
X8784922Y-34891004D01*
X8655341Y-34784659D01*
X8548996Y-34655078D01*
X8540886Y-34639906D01*
X8469976Y-34507242D01*
X8421313Y-34346823D01*
X8404883Y-34180000D01*
X8421313Y-34013177D01*
X8469976Y-33852758D01*
X8548995Y-33704924D01*
X8548996Y-33704922D01*
X8655341Y-33575341D01*
X8784922Y-33468996D01*
X8860784Y-33428447D01*
X8932758Y-33389976D01*
X9093177Y-33341313D01*
X9218196Y-33329000D01*
X9301804Y-33329000D01*
X9426823Y-33341313D01*
X9426823Y-33341313D01*
G37*
G36*
X4766242Y-33353404D02*
G01*
X4803337Y-33364657D01*
X4837515Y-33382925D01*
X4867481Y-33407519D01*
X4892075Y-33437485D01*
X4910343Y-33471663D01*
X4921596Y-33508758D01*
X4926000Y-33553474D01*
X4926000Y-34446526D01*
X4921596Y-34491242D01*
X4910343Y-34528337D01*
X4892075Y-34562515D01*
X4867481Y-34592481D01*
X4837515Y-34617075D01*
X4803337Y-34635343D01*
X4766242Y-34646596D01*
X4721526Y-34651000D01*
X3278474Y-34651000D01*
X3233758Y-34646596D01*
X3196663Y-34635343D01*
X3162485Y-34617075D01*
X3132519Y-34592481D01*
X3107925Y-34562515D01*
X3089657Y-34528337D01*
X3078404Y-34491242D01*
X3074000Y-34446526D01*
X3074000Y-33553474D01*
X3078404Y-33508758D01*
X3089657Y-33471663D01*
X3107925Y-33437485D01*
X3132519Y-33407519D01*
X3162485Y-33382925D01*
X3196663Y-33364657D01*
X3233758Y-33353404D01*
X3278474Y-33349000D01*
X4721526Y-33349000D01*
X4766242Y-33353404D01*
X4766242Y-33353404D01*
G37*
G36*
X9426823Y-30801313D02*
G01*
X9587242Y-30849976D01*
X9676089Y-30897466D01*
X9735078Y-30928996D01*
X9864659Y-31035341D01*
X9971004Y-31164922D01*
X9971005Y-31164924D01*
X10050024Y-31312758D01*
X10098687Y-31473177D01*
X10115117Y-31640000D01*
X10098687Y-31806823D01*
X10050024Y-31967242D01*
X10031980Y-32001000D01*
X9971004Y-32115078D01*
X9864659Y-32244659D01*
X9735078Y-32351004D01*
X9735076Y-32351005D01*
X9587242Y-32430024D01*
X9426823Y-32478687D01*
X9301804Y-32491000D01*
X9218196Y-32491000D01*
X9093177Y-32478687D01*
X8932758Y-32430024D01*
X8784924Y-32351005D01*
X8784922Y-32351004D01*
X8655341Y-32244659D01*
X8548996Y-32115078D01*
X8488020Y-32001000D01*
X8469976Y-31967242D01*
X8421313Y-31806823D01*
X8404883Y-31640000D01*
X8421313Y-31473177D01*
X8469976Y-31312758D01*
X8548995Y-31164924D01*
X8548996Y-31164922D01*
X8655341Y-31035341D01*
X8784922Y-30928996D01*
X8843911Y-30897466D01*
X8932758Y-30849976D01*
X9093177Y-30801313D01*
X9218196Y-30789000D01*
X9301804Y-30789000D01*
X9426823Y-30801313D01*
X9426823Y-30801313D01*
G37*
G36*
X24666823Y-30801313D02*
G01*
X24827242Y-30849976D01*
X24916089Y-30897466D01*
X24975078Y-30928996D01*
X25104659Y-31035341D01*
X25211004Y-31164922D01*
X25211005Y-31164924D01*
X25290024Y-31312758D01*
X25338687Y-31473177D01*
X25355117Y-31640000D01*
X25338687Y-31806823D01*
X25290024Y-31967242D01*
X25271980Y-32001000D01*
X25211004Y-32115078D01*
X25104659Y-32244659D01*
X24975078Y-32351004D01*
X24975076Y-32351005D01*
X24827242Y-32430024D01*
X24666823Y-32478687D01*
X24541804Y-32491000D01*
X24458196Y-32491000D01*
X24333177Y-32478687D01*
X24172758Y-32430024D01*
X24024924Y-32351005D01*
X24024922Y-32351004D01*
X23895341Y-32244659D01*
X23788996Y-32115078D01*
X23728020Y-32001000D01*
X23709976Y-31967242D01*
X23661313Y-31806823D01*
X23644883Y-31640000D01*
X23661313Y-31473177D01*
X23709976Y-31312758D01*
X23788995Y-31164924D01*
X23788996Y-31164922D01*
X23895341Y-31035341D01*
X24024922Y-30928996D01*
X24083911Y-30897466D01*
X24172758Y-30849976D01*
X24333177Y-30801313D01*
X24458196Y-30789000D01*
X24541804Y-30789000D01*
X24666823Y-30801313D01*
X24666823Y-30801313D01*
G37*
G36*
X51159473Y-29758413D02*
G01*
X51255040Y-29767825D01*
X51500280Y-29842218D01*
X51726294Y-29963025D01*
X51777899Y-30005376D01*
X51924397Y-30125603D01*
X52044624Y-30272101D01*
X52086975Y-30323706D01*
X52207782Y-30549720D01*
X52282175Y-30794960D01*
X52307294Y-31050000D01*
X52282175Y-31305040D01*
X52207782Y-31550280D01*
X52086975Y-31776294D01*
X52044624Y-31827899D01*
X51924397Y-31974397D01*
X51777899Y-32094624D01*
X51726294Y-32136975D01*
X51726292Y-32136976D01*
X51524832Y-32244659D01*
X51500280Y-32257782D01*
X51255040Y-32332175D01*
X51159473Y-32341587D01*
X51063906Y-32351000D01*
X48936094Y-32351000D01*
X48840527Y-32341587D01*
X48744960Y-32332175D01*
X48499720Y-32257782D01*
X48475169Y-32244659D01*
X48273708Y-32136976D01*
X48273706Y-32136975D01*
X48222101Y-32094624D01*
X48075603Y-31974397D01*
X47955376Y-31827899D01*
X47913025Y-31776294D01*
X47792218Y-31550280D01*
X47717825Y-31305040D01*
X47692706Y-31050000D01*
X47717825Y-30794960D01*
X47792218Y-30549720D01*
X47913025Y-30323706D01*
X47955376Y-30272101D01*
X48075603Y-30125603D01*
X48222101Y-30005376D01*
X48273706Y-29963025D01*
X48499720Y-29842218D01*
X48744960Y-29767825D01*
X48840527Y-29758413D01*
X48936094Y-29749000D01*
X51063906Y-29749000D01*
X51159473Y-29758413D01*
X51159473Y-29758413D01*
G37*
G36*
X74277395Y-30135546D02*
G01*
X74450466Y-30207234D01*
X74527818Y-30258919D01*
X74606227Y-30311310D01*
X74738690Y-30443773D01*
X74791081Y-30522182D01*
X74842766Y-30599534D01*
X74914454Y-30772605D01*
X74951000Y-30956333D01*
X74951000Y-31143667D01*
X74914454Y-31327395D01*
X74842766Y-31500466D01*
X74842765Y-31500467D01*
X74738690Y-31656227D01*
X74606227Y-31788690D01*
X74579089Y-31806823D01*
X74450466Y-31892766D01*
X74277395Y-31964454D01*
X74093667Y-32001000D01*
X73906333Y-32001000D01*
X73722605Y-31964454D01*
X73549534Y-31892766D01*
X73420911Y-31806823D01*
X73393773Y-31788690D01*
X73261310Y-31656227D01*
X73157235Y-31500467D01*
X73157234Y-31500466D01*
X73085546Y-31327395D01*
X73049000Y-31143667D01*
X73049000Y-30956333D01*
X73085546Y-30772605D01*
X73157234Y-30599534D01*
X73208919Y-30522182D01*
X73261310Y-30443773D01*
X73393773Y-30311310D01*
X73472182Y-30258919D01*
X73549534Y-30207234D01*
X73722605Y-30135546D01*
X73906333Y-30099000D01*
X74093667Y-30099000D01*
X74277395Y-30135546D01*
X74277395Y-30135546D01*
G37*
G36*
X69777395Y-30135546D02*
G01*
X69950466Y-30207234D01*
X70027818Y-30258919D01*
X70106227Y-30311310D01*
X70238690Y-30443773D01*
X70291081Y-30522182D01*
X70342766Y-30599534D01*
X70414454Y-30772605D01*
X70451000Y-30956333D01*
X70451000Y-31143667D01*
X70414454Y-31327395D01*
X70342766Y-31500466D01*
X70342765Y-31500467D01*
X70238690Y-31656227D01*
X70106227Y-31788690D01*
X70079089Y-31806823D01*
X69950466Y-31892766D01*
X69777395Y-31964454D01*
X69593667Y-32001000D01*
X69406333Y-32001000D01*
X69222605Y-31964454D01*
X69049534Y-31892766D01*
X68920911Y-31806823D01*
X68893773Y-31788690D01*
X68761310Y-31656227D01*
X68657235Y-31500467D01*
X68657234Y-31500466D01*
X68585546Y-31327395D01*
X68549000Y-31143667D01*
X68549000Y-30956333D01*
X68585546Y-30772605D01*
X68657234Y-30599534D01*
X68708919Y-30522182D01*
X68761310Y-30443773D01*
X68893773Y-30311310D01*
X68972182Y-30258919D01*
X69049534Y-30207234D01*
X69222605Y-30135546D01*
X69406333Y-30099000D01*
X69593667Y-30099000D01*
X69777395Y-30135546D01*
X69777395Y-30135546D01*
G37*
G36*
X62701000Y-31801000D02*
G01*
X59299000Y-31801000D01*
X59299000Y-29199000D01*
X62701000Y-29199000D01*
X62701000Y-31801000D01*
X62701000Y-31801000D01*
G37*
G36*
X95829487Y-28948996D02*
G01*
X96066253Y-29047068D01*
X96066255Y-29047069D01*
X96279339Y-29189447D01*
X96460553Y-29370661D01*
X96597139Y-29575076D01*
X96602932Y-29583747D01*
X96701004Y-29820513D01*
X96751000Y-30071861D01*
X96751000Y-30328139D01*
X96701004Y-30579487D01*
X96611752Y-30794960D01*
X96602931Y-30816255D01*
X96460553Y-31029339D01*
X96279339Y-31210553D01*
X96066255Y-31352931D01*
X96066254Y-31352932D01*
X96066253Y-31352932D01*
X95829487Y-31451004D01*
X95578139Y-31501000D01*
X95321861Y-31501000D01*
X95070513Y-31451004D01*
X94833747Y-31352932D01*
X94833746Y-31352932D01*
X94833745Y-31352931D01*
X94620661Y-31210553D01*
X94439447Y-31029339D01*
X94297069Y-30816255D01*
X94288248Y-30794960D01*
X94198996Y-30579487D01*
X94149000Y-30328139D01*
X94149000Y-30071861D01*
X94198996Y-29820513D01*
X94297068Y-29583747D01*
X94302862Y-29575076D01*
X94439447Y-29370661D01*
X94620661Y-29189447D01*
X94833745Y-29047069D01*
X94833747Y-29047068D01*
X95070513Y-28948996D01*
X95321861Y-28899000D01*
X95578139Y-28899000D01*
X95829487Y-28948996D01*
X95829487Y-28948996D01*
G37*
G36*
X66364903Y-28897075D02*
G01*
X66592571Y-28991378D01*
X66797466Y-29128285D01*
X66971715Y-29302534D01*
X67108622Y-29507429D01*
X67108623Y-29507431D01*
X67202925Y-29735097D01*
X67251000Y-29976786D01*
X67251000Y-30223214D01*
X67202925Y-30464903D01*
X67155463Y-30579488D01*
X67108622Y-30692571D01*
X66971715Y-30897466D01*
X66797466Y-31071715D01*
X66592571Y-31208622D01*
X66592570Y-31208623D01*
X66592569Y-31208623D01*
X66364903Y-31302925D01*
X66123214Y-31351000D01*
X65876786Y-31351000D01*
X65635097Y-31302925D01*
X65407431Y-31208623D01*
X65407430Y-31208623D01*
X65407429Y-31208622D01*
X65202534Y-31071715D01*
X65028285Y-30897466D01*
X64891378Y-30692571D01*
X64844538Y-30579488D01*
X64797075Y-30464903D01*
X64749000Y-30223214D01*
X64749000Y-29976786D01*
X64797075Y-29735097D01*
X64891377Y-29507431D01*
X64891378Y-29507429D01*
X65028285Y-29302534D01*
X65202534Y-29128285D01*
X65407429Y-28991378D01*
X65635097Y-28897075D01*
X65876786Y-28849000D01*
X66123214Y-28849000D01*
X66364903Y-28897075D01*
X66364903Y-28897075D01*
G37*
G36*
X24666823Y-28261313D02*
G01*
X24827242Y-28309976D01*
X24959906Y-28380886D01*
X24975078Y-28388996D01*
X25104659Y-28495341D01*
X25211004Y-28624922D01*
X25211005Y-28624924D01*
X25290024Y-28772758D01*
X25338687Y-28933177D01*
X25355117Y-29100000D01*
X25338687Y-29266823D01*
X25290024Y-29427242D01*
X25247163Y-29507429D01*
X25211004Y-29575078D01*
X25104659Y-29704659D01*
X24975078Y-29811004D01*
X24975076Y-29811005D01*
X24827242Y-29890024D01*
X24666823Y-29938687D01*
X24541804Y-29951000D01*
X24458196Y-29951000D01*
X24333177Y-29938687D01*
X24172758Y-29890024D01*
X24024924Y-29811005D01*
X24024922Y-29811004D01*
X23895341Y-29704659D01*
X23788996Y-29575078D01*
X23752837Y-29507429D01*
X23709976Y-29427242D01*
X23661313Y-29266823D01*
X23644883Y-29100000D01*
X23661313Y-28933177D01*
X23709976Y-28772758D01*
X23788995Y-28624924D01*
X23788996Y-28624922D01*
X23895341Y-28495341D01*
X24024922Y-28388996D01*
X24040094Y-28380886D01*
X24172758Y-28309976D01*
X24333177Y-28261313D01*
X24458196Y-28249000D01*
X24541804Y-28249000D01*
X24666823Y-28261313D01*
X24666823Y-28261313D01*
G37*
G36*
X9426823Y-28261313D02*
G01*
X9587242Y-28309976D01*
X9719906Y-28380886D01*
X9735078Y-28388996D01*
X9864659Y-28495341D01*
X9971004Y-28624922D01*
X9971005Y-28624924D01*
X10050024Y-28772758D01*
X10098687Y-28933177D01*
X10115117Y-29100000D01*
X10098687Y-29266823D01*
X10050024Y-29427242D01*
X10007163Y-29507429D01*
X9971004Y-29575078D01*
X9864659Y-29704659D01*
X9735078Y-29811004D01*
X9735076Y-29811005D01*
X9587242Y-29890024D01*
X9426823Y-29938687D01*
X9301804Y-29951000D01*
X9218196Y-29951000D01*
X9093177Y-29938687D01*
X8932758Y-29890024D01*
X8784924Y-29811005D01*
X8784922Y-29811004D01*
X8655341Y-29704659D01*
X8548996Y-29575078D01*
X8512837Y-29507429D01*
X8469976Y-29427242D01*
X8421313Y-29266823D01*
X8404883Y-29100000D01*
X8421313Y-28933177D01*
X8469976Y-28772758D01*
X8548995Y-28624924D01*
X8548996Y-28624922D01*
X8655341Y-28495341D01*
X8784922Y-28388996D01*
X8800094Y-28380886D01*
X8932758Y-28309976D01*
X9093177Y-28261313D01*
X9218196Y-28249000D01*
X9301804Y-28249000D01*
X9426823Y-28261313D01*
X9426823Y-28261313D01*
G37*
G36*
X24666823Y-25721313D02*
G01*
X24827242Y-25769976D01*
X24959906Y-25840886D01*
X24975078Y-25848996D01*
X25104659Y-25955341D01*
X25211004Y-26084922D01*
X25211005Y-26084924D01*
X25290024Y-26232758D01*
X25338687Y-26393177D01*
X25355117Y-26560000D01*
X25338687Y-26726823D01*
X25290024Y-26887242D01*
X25219114Y-27019906D01*
X25211004Y-27035078D01*
X25104659Y-27164659D01*
X24975078Y-27271004D01*
X24975076Y-27271005D01*
X24827242Y-27350024D01*
X24666823Y-27398687D01*
X24541804Y-27411000D01*
X24458196Y-27411000D01*
X24333177Y-27398687D01*
X24172758Y-27350024D01*
X24024924Y-27271005D01*
X24024922Y-27271004D01*
X23895341Y-27164659D01*
X23788996Y-27035078D01*
X23780886Y-27019906D01*
X23709976Y-26887242D01*
X23661313Y-26726823D01*
X23644883Y-26560000D01*
X23661313Y-26393177D01*
X23709976Y-26232758D01*
X23788995Y-26084924D01*
X23788996Y-26084922D01*
X23895341Y-25955341D01*
X24024922Y-25848996D01*
X24040094Y-25840886D01*
X24172758Y-25769976D01*
X24333177Y-25721313D01*
X24458196Y-25709000D01*
X24541804Y-25709000D01*
X24666823Y-25721313D01*
X24666823Y-25721313D01*
G37*
G36*
X9426823Y-25721313D02*
G01*
X9587242Y-25769976D01*
X9719906Y-25840886D01*
X9735078Y-25848996D01*
X9864659Y-25955341D01*
X9971004Y-26084922D01*
X9971005Y-26084924D01*
X10050024Y-26232758D01*
X10098687Y-26393177D01*
X10115117Y-26560000D01*
X10098687Y-26726823D01*
X10050024Y-26887242D01*
X9979114Y-27019906D01*
X9971004Y-27035078D01*
X9864659Y-27164659D01*
X9735078Y-27271004D01*
X9735076Y-27271005D01*
X9587242Y-27350024D01*
X9426823Y-27398687D01*
X9301804Y-27411000D01*
X9218196Y-27411000D01*
X9093177Y-27398687D01*
X8932758Y-27350024D01*
X8784924Y-27271005D01*
X8784922Y-27271004D01*
X8655341Y-27164659D01*
X8548996Y-27035078D01*
X8540886Y-27019906D01*
X8469976Y-26887242D01*
X8421313Y-26726823D01*
X8404883Y-26560000D01*
X8421313Y-26393177D01*
X8469976Y-26232758D01*
X8548995Y-26084924D01*
X8548996Y-26084922D01*
X8655341Y-25955341D01*
X8784922Y-25848996D01*
X8800094Y-25840886D01*
X8932758Y-25769976D01*
X9093177Y-25721313D01*
X9218196Y-25709000D01*
X9301804Y-25709000D01*
X9426823Y-25721313D01*
X9426823Y-25721313D01*
G37*
G36*
X95829487Y-23348996D02*
G01*
X95998481Y-23418996D01*
X96066255Y-23447069D01*
X96279339Y-23589447D01*
X96460553Y-23770661D01*
X96589187Y-23963175D01*
X96602932Y-23983747D01*
X96701004Y-24220513D01*
X96751000Y-24471861D01*
X96751000Y-24728139D01*
X96701004Y-24979487D01*
X96700377Y-24981000D01*
X96602931Y-25216255D01*
X96460553Y-25429339D01*
X96279339Y-25610553D01*
X96066255Y-25752931D01*
X96066254Y-25752932D01*
X96066253Y-25752932D01*
X95829487Y-25851004D01*
X95578139Y-25901000D01*
X95321861Y-25901000D01*
X95070513Y-25851004D01*
X94833747Y-25752932D01*
X94833746Y-25752932D01*
X94833745Y-25752931D01*
X94620661Y-25610553D01*
X94439447Y-25429339D01*
X94297069Y-25216255D01*
X94199623Y-24981000D01*
X94198996Y-24979487D01*
X94149000Y-24728139D01*
X94149000Y-24471861D01*
X94198996Y-24220513D01*
X94297068Y-23983747D01*
X94310814Y-23963175D01*
X94439447Y-23770661D01*
X94620661Y-23589447D01*
X94833745Y-23447069D01*
X94901519Y-23418996D01*
X95070513Y-23348996D01*
X95321861Y-23299000D01*
X95578139Y-23299000D01*
X95829487Y-23348996D01*
X95829487Y-23348996D01*
G37*
G36*
X38266823Y-23291313D02*
G01*
X38427242Y-23339976D01*
X38559906Y-23410886D01*
X38575078Y-23418996D01*
X38704659Y-23525341D01*
X38811004Y-23654922D01*
X38811005Y-23654924D01*
X38890024Y-23802758D01*
X38938687Y-23963177D01*
X38955117Y-24130000D01*
X38938687Y-24296823D01*
X38890024Y-24457242D01*
X38869801Y-24495076D01*
X38811004Y-24605078D01*
X38704659Y-24734659D01*
X38575078Y-24841004D01*
X38575076Y-24841005D01*
X38427242Y-24920024D01*
X38266823Y-24968687D01*
X38141804Y-24981000D01*
X38058196Y-24981000D01*
X37933177Y-24968687D01*
X37772758Y-24920024D01*
X37624924Y-24841005D01*
X37624922Y-24841004D01*
X37495341Y-24734659D01*
X37388996Y-24605078D01*
X37330199Y-24495076D01*
X37309976Y-24457242D01*
X37261313Y-24296823D01*
X37244883Y-24130000D01*
X37261313Y-23963177D01*
X37309976Y-23802758D01*
X37388995Y-23654924D01*
X37388996Y-23654922D01*
X37495341Y-23525341D01*
X37624922Y-23418996D01*
X37640094Y-23410886D01*
X37772758Y-23339976D01*
X37933177Y-23291313D01*
X38058196Y-23279000D01*
X38141804Y-23279000D01*
X38266823Y-23291313D01*
X38266823Y-23291313D01*
G37*
G36*
X30646823Y-23291313D02*
G01*
X30807242Y-23339976D01*
X30939906Y-23410886D01*
X30955078Y-23418996D01*
X31084659Y-23525341D01*
X31191004Y-23654922D01*
X31191005Y-23654924D01*
X31270024Y-23802758D01*
X31318687Y-23963177D01*
X31335117Y-24130000D01*
X31318687Y-24296823D01*
X31270024Y-24457242D01*
X31249801Y-24495076D01*
X31191004Y-24605078D01*
X31084659Y-24734659D01*
X30955078Y-24841004D01*
X30955076Y-24841005D01*
X30807242Y-24920024D01*
X30646823Y-24968687D01*
X30521804Y-24981000D01*
X30438196Y-24981000D01*
X30313177Y-24968687D01*
X30152758Y-24920024D01*
X30004924Y-24841005D01*
X30004922Y-24841004D01*
X29875341Y-24734659D01*
X29768996Y-24605078D01*
X29710199Y-24495076D01*
X29689976Y-24457242D01*
X29641313Y-24296823D01*
X29624883Y-24130000D01*
X29641313Y-23963177D01*
X29689976Y-23802758D01*
X29768995Y-23654924D01*
X29768996Y-23654922D01*
X29875341Y-23525341D01*
X30004922Y-23418996D01*
X30020094Y-23410886D01*
X30152758Y-23339976D01*
X30313177Y-23291313D01*
X30438196Y-23279000D01*
X30521804Y-23279000D01*
X30646823Y-23291313D01*
X30646823Y-23291313D01*
G37*
G36*
X24666823Y-23181313D02*
G01*
X24827242Y-23229976D01*
X24918959Y-23279000D01*
X24975078Y-23308996D01*
X25104659Y-23415341D01*
X25211004Y-23544922D01*
X25211005Y-23544924D01*
X25290024Y-23692758D01*
X25338687Y-23853177D01*
X25355117Y-24020000D01*
X25338687Y-24186823D01*
X25290024Y-24347242D01*
X25231229Y-24457239D01*
X25211004Y-24495078D01*
X25104659Y-24624659D01*
X24975078Y-24731004D01*
X24975076Y-24731005D01*
X24827242Y-24810024D01*
X24666823Y-24858687D01*
X24541804Y-24871000D01*
X24458196Y-24871000D01*
X24333177Y-24858687D01*
X24172758Y-24810024D01*
X24024924Y-24731005D01*
X24024922Y-24731004D01*
X23895341Y-24624659D01*
X23788996Y-24495078D01*
X23768771Y-24457239D01*
X23709976Y-24347242D01*
X23661313Y-24186823D01*
X23644883Y-24020000D01*
X23661313Y-23853177D01*
X23709976Y-23692758D01*
X23788995Y-23544924D01*
X23788996Y-23544922D01*
X23895341Y-23415341D01*
X24024922Y-23308996D01*
X24081041Y-23279000D01*
X24172758Y-23229976D01*
X24333177Y-23181313D01*
X24458196Y-23169000D01*
X24541804Y-23169000D01*
X24666823Y-23181313D01*
X24666823Y-23181313D01*
G37*
G36*
X9426823Y-23181313D02*
G01*
X9587242Y-23229976D01*
X9678959Y-23279000D01*
X9735078Y-23308996D01*
X9864659Y-23415341D01*
X9971004Y-23544922D01*
X9971005Y-23544924D01*
X10050024Y-23692758D01*
X10098687Y-23853177D01*
X10115117Y-24020000D01*
X10098687Y-24186823D01*
X10050024Y-24347242D01*
X9991229Y-24457239D01*
X9971004Y-24495078D01*
X9864659Y-24624659D01*
X9735078Y-24731004D01*
X9735076Y-24731005D01*
X9587242Y-24810024D01*
X9426823Y-24858687D01*
X9301804Y-24871000D01*
X9218196Y-24871000D01*
X9093177Y-24858687D01*
X8932758Y-24810024D01*
X8784924Y-24731005D01*
X8784922Y-24731004D01*
X8655341Y-24624659D01*
X8548996Y-24495078D01*
X8528771Y-24457239D01*
X8469976Y-24347242D01*
X8421313Y-24186823D01*
X8404883Y-24020000D01*
X8421313Y-23853177D01*
X8469976Y-23692758D01*
X8548995Y-23544924D01*
X8548996Y-23544922D01*
X8655341Y-23415341D01*
X8784922Y-23308996D01*
X8841041Y-23279000D01*
X8932758Y-23229976D01*
X9093177Y-23181313D01*
X9218196Y-23169000D01*
X9301804Y-23169000D01*
X9426823Y-23181313D01*
X9426823Y-23181313D01*
G37*
G36*
X52301000Y-24251000D02*
G01*
X47699000Y-24251000D01*
X47699000Y-21649000D01*
X52301000Y-21649000D01*
X52301000Y-24251000D01*
X52301000Y-24251000D01*
G37*
G36*
X62777395Y-22035546D02*
G01*
X62950466Y-22107234D01*
X62950467Y-22107235D01*
X63106227Y-22211310D01*
X63238690Y-22343773D01*
X63238691Y-22343775D01*
X63342766Y-22499534D01*
X63414454Y-22672605D01*
X63451000Y-22856333D01*
X63451000Y-23043667D01*
X63414454Y-23227395D01*
X63342766Y-23400466D01*
X63311627Y-23447068D01*
X63238690Y-23556227D01*
X63106227Y-23688690D01*
X63100134Y-23692761D01*
X62950466Y-23792766D01*
X62777395Y-23864454D01*
X62593667Y-23901000D01*
X62406333Y-23901000D01*
X62222605Y-23864454D01*
X62049534Y-23792766D01*
X61899866Y-23692761D01*
X61893773Y-23688690D01*
X61761310Y-23556227D01*
X61688373Y-23447068D01*
X61657234Y-23400466D01*
X61585546Y-23227395D01*
X61549000Y-23043667D01*
X61549000Y-22856333D01*
X61585546Y-22672605D01*
X61657234Y-22499534D01*
X61761309Y-22343775D01*
X61761310Y-22343773D01*
X61893773Y-22211310D01*
X62049533Y-22107235D01*
X62049534Y-22107234D01*
X62222605Y-22035546D01*
X62406333Y-21999000D01*
X62593667Y-21999000D01*
X62777395Y-22035546D01*
X62777395Y-22035546D01*
G37*
G36*
X58277395Y-22035546D02*
G01*
X58450466Y-22107234D01*
X58450467Y-22107235D01*
X58606227Y-22211310D01*
X58738690Y-22343773D01*
X58738691Y-22343775D01*
X58842766Y-22499534D01*
X58914454Y-22672605D01*
X58951000Y-22856333D01*
X58951000Y-23043667D01*
X58914454Y-23227395D01*
X58842766Y-23400466D01*
X58811627Y-23447068D01*
X58738690Y-23556227D01*
X58606227Y-23688690D01*
X58600134Y-23692761D01*
X58450466Y-23792766D01*
X58277395Y-23864454D01*
X58093667Y-23901000D01*
X57906333Y-23901000D01*
X57722605Y-23864454D01*
X57549534Y-23792766D01*
X57399866Y-23692761D01*
X57393773Y-23688690D01*
X57261310Y-23556227D01*
X57188373Y-23447068D01*
X57157234Y-23400466D01*
X57085546Y-23227395D01*
X57049000Y-23043667D01*
X57049000Y-22856333D01*
X57085546Y-22672605D01*
X57157234Y-22499534D01*
X57261309Y-22343775D01*
X57261310Y-22343773D01*
X57393773Y-22211310D01*
X57549533Y-22107235D01*
X57549534Y-22107234D01*
X57722605Y-22035546D01*
X57906333Y-21999000D01*
X58093667Y-21999000D01*
X58277395Y-22035546D01*
X58277395Y-22035546D01*
G37*
G36*
X31331000Y-22441000D02*
G01*
X29629000Y-22441000D01*
X29629000Y-20739000D01*
X31331000Y-20739000D01*
X31331000Y-22441000D01*
X31331000Y-22441000D01*
G37*
G36*
X38266823Y-20751313D02*
G01*
X38427242Y-20799976D01*
X38559906Y-20870886D01*
X38575078Y-20878996D01*
X38704659Y-20985341D01*
X38811004Y-21114922D01*
X38811005Y-21114924D01*
X38890024Y-21262758D01*
X38938687Y-21423177D01*
X38955117Y-21590000D01*
X38938687Y-21756823D01*
X38890024Y-21917242D01*
X38869801Y-21955076D01*
X38811004Y-22065078D01*
X38704659Y-22194659D01*
X38575078Y-22301004D01*
X38575076Y-22301005D01*
X38427242Y-22380024D01*
X38266823Y-22428687D01*
X38141804Y-22441000D01*
X38058196Y-22441000D01*
X37933177Y-22428687D01*
X37772758Y-22380024D01*
X37624924Y-22301005D01*
X37624922Y-22301004D01*
X37495341Y-22194659D01*
X37388996Y-22065078D01*
X37330199Y-21955076D01*
X37309976Y-21917242D01*
X37261313Y-21756823D01*
X37244883Y-21590000D01*
X37261313Y-21423177D01*
X37309976Y-21262758D01*
X37388995Y-21114924D01*
X37388996Y-21114922D01*
X37495341Y-20985341D01*
X37624922Y-20878996D01*
X37640094Y-20870886D01*
X37772758Y-20799976D01*
X37933177Y-20751313D01*
X38058196Y-20739000D01*
X38141804Y-20739000D01*
X38266823Y-20751313D01*
X38266823Y-20751313D01*
G37*
G36*
X24666823Y-20641313D02*
G01*
X24827242Y-20689976D01*
X24918959Y-20739000D01*
X24975078Y-20768996D01*
X25104659Y-20875341D01*
X25211004Y-21004922D01*
X25211005Y-21004924D01*
X25290024Y-21152758D01*
X25338687Y-21313177D01*
X25355117Y-21480000D01*
X25338687Y-21646823D01*
X25290024Y-21807242D01*
X25231229Y-21917239D01*
X25211004Y-21955078D01*
X25104659Y-22084659D01*
X24975078Y-22191004D01*
X24975076Y-22191005D01*
X24827242Y-22270024D01*
X24666823Y-22318687D01*
X24541804Y-22331000D01*
X24458196Y-22331000D01*
X24333177Y-22318687D01*
X24172758Y-22270024D01*
X24024924Y-22191005D01*
X24024922Y-22191004D01*
X23895341Y-22084659D01*
X23788996Y-21955078D01*
X23768771Y-21917239D01*
X23709976Y-21807242D01*
X23661313Y-21646823D01*
X23644883Y-21480000D01*
X23661313Y-21313177D01*
X23709976Y-21152758D01*
X23788995Y-21004924D01*
X23788996Y-21004922D01*
X23895341Y-20875341D01*
X24024922Y-20768996D01*
X24081041Y-20739000D01*
X24172758Y-20689976D01*
X24333177Y-20641313D01*
X24458196Y-20629000D01*
X24541804Y-20629000D01*
X24666823Y-20641313D01*
X24666823Y-20641313D01*
G37*
G36*
X9426823Y-20641313D02*
G01*
X9587242Y-20689976D01*
X9678959Y-20739000D01*
X9735078Y-20768996D01*
X9864659Y-20875341D01*
X9971004Y-21004922D01*
X9971005Y-21004924D01*
X10050024Y-21152758D01*
X10098687Y-21313177D01*
X10115117Y-21480000D01*
X10098687Y-21646823D01*
X10050024Y-21807242D01*
X9991229Y-21917239D01*
X9971004Y-21955078D01*
X9864659Y-22084659D01*
X9735078Y-22191004D01*
X9735076Y-22191005D01*
X9587242Y-22270024D01*
X9426823Y-22318687D01*
X9301804Y-22331000D01*
X9218196Y-22331000D01*
X9093177Y-22318687D01*
X8932758Y-22270024D01*
X8784924Y-22191005D01*
X8784922Y-22191004D01*
X8655341Y-22084659D01*
X8548996Y-21955078D01*
X8528771Y-21917239D01*
X8469976Y-21807242D01*
X8421313Y-21646823D01*
X8404883Y-21480000D01*
X8421313Y-21313177D01*
X8469976Y-21152758D01*
X8548995Y-21004924D01*
X8548996Y-21004922D01*
X8655341Y-20875341D01*
X8784922Y-20768996D01*
X8841041Y-20739000D01*
X8932758Y-20689976D01*
X9093177Y-20641313D01*
X9218196Y-20629000D01*
X9301804Y-20629000D01*
X9426823Y-20641313D01*
X9426823Y-20641313D01*
G37*
G36*
X66265196Y-19377242D02*
G01*
X66364903Y-19397075D01*
X66592571Y-19491378D01*
X66797466Y-19628285D01*
X66971715Y-19802534D01*
X67037508Y-19901000D01*
X67108623Y-20007431D01*
X67202925Y-20235097D01*
X67251000Y-20476786D01*
X67251000Y-20723214D01*
X67241893Y-20768996D01*
X67202925Y-20964903D01*
X67108622Y-21192571D01*
X66971715Y-21397466D01*
X66797466Y-21571715D01*
X66592571Y-21708622D01*
X66592570Y-21708623D01*
X66592569Y-21708623D01*
X66364903Y-21802925D01*
X66123214Y-21851000D01*
X65876786Y-21851000D01*
X65635097Y-21802925D01*
X65407431Y-21708623D01*
X65407430Y-21708623D01*
X65407429Y-21708622D01*
X65202534Y-21571715D01*
X65028285Y-21397466D01*
X64891378Y-21192571D01*
X64797075Y-20964903D01*
X64758107Y-20768996D01*
X64749000Y-20723214D01*
X64749000Y-20476786D01*
X64797075Y-20235097D01*
X64891377Y-20007431D01*
X64962492Y-19901000D01*
X65028285Y-19802534D01*
X65202534Y-19628285D01*
X65407429Y-19491378D01*
X65635097Y-19397075D01*
X65734804Y-19377242D01*
X65876786Y-19349000D01*
X66123214Y-19349000D01*
X66265196Y-19377242D01*
X66265196Y-19377242D01*
G37*
G36*
X56202585Y-18178802D02*
G01*
X56352410Y-18208604D01*
X56634674Y-18325521D01*
X56888705Y-18495259D01*
X57104741Y-18711295D01*
X57274479Y-18965326D01*
X57391396Y-19247590D01*
X57391396Y-19247591D01*
X57451000Y-19547239D01*
X57451000Y-19852761D01*
X57421198Y-20002585D01*
X57391396Y-20152410D01*
X57274479Y-20434674D01*
X57104741Y-20688705D01*
X56888705Y-20904741D01*
X56634674Y-21074479D01*
X56352410Y-21191396D01*
X56202585Y-21221198D01*
X56052761Y-21251000D01*
X55747239Y-21251000D01*
X55597415Y-21221198D01*
X55447590Y-21191396D01*
X55165326Y-21074479D01*
X54911295Y-20904741D01*
X54695259Y-20688705D01*
X54525521Y-20434674D01*
X54408604Y-20152410D01*
X54378802Y-20002585D01*
X54349000Y-19852761D01*
X54349000Y-19547239D01*
X54408604Y-19247591D01*
X54408604Y-19247590D01*
X54525521Y-18965326D01*
X54695259Y-18711295D01*
X54911295Y-18495259D01*
X55165326Y-18325521D01*
X55447590Y-18208604D01*
X55597415Y-18178802D01*
X55747239Y-18149000D01*
X56052761Y-18149000D01*
X56202585Y-18178802D01*
X56202585Y-18178802D01*
G37*
G36*
X30646823Y-18211313D02*
G01*
X30807242Y-18259976D01*
X30929868Y-18325521D01*
X30955078Y-18338996D01*
X31084659Y-18445341D01*
X31191004Y-18574922D01*
X31191005Y-18574924D01*
X31270024Y-18722758D01*
X31318687Y-18883177D01*
X31335117Y-19050000D01*
X31318687Y-19216823D01*
X31270024Y-19377242D01*
X31209017Y-19491378D01*
X31191004Y-19525078D01*
X31084659Y-19654659D01*
X30955078Y-19761004D01*
X30955076Y-19761005D01*
X30807242Y-19840024D01*
X30646823Y-19888687D01*
X30521804Y-19901000D01*
X30438196Y-19901000D01*
X30313177Y-19888687D01*
X30152758Y-19840024D01*
X30004924Y-19761005D01*
X30004922Y-19761004D01*
X29875341Y-19654659D01*
X29768996Y-19525078D01*
X29750983Y-19491378D01*
X29689976Y-19377242D01*
X29641313Y-19216823D01*
X29624883Y-19050000D01*
X29641313Y-18883177D01*
X29689976Y-18722758D01*
X29768995Y-18574924D01*
X29768996Y-18574922D01*
X29875341Y-18445341D01*
X30004922Y-18338996D01*
X30030132Y-18325521D01*
X30152758Y-18259976D01*
X30313177Y-18211313D01*
X30438196Y-18199000D01*
X30521804Y-18199000D01*
X30646823Y-18211313D01*
X30646823Y-18211313D01*
G37*
G36*
X38266823Y-18211313D02*
G01*
X38427242Y-18259976D01*
X38549868Y-18325521D01*
X38575078Y-18338996D01*
X38704659Y-18445341D01*
X38811004Y-18574922D01*
X38811005Y-18574924D01*
X38890024Y-18722758D01*
X38938687Y-18883177D01*
X38955117Y-19050000D01*
X38938687Y-19216823D01*
X38890024Y-19377242D01*
X38829017Y-19491378D01*
X38811004Y-19525078D01*
X38704659Y-19654659D01*
X38575078Y-19761004D01*
X38575076Y-19761005D01*
X38427242Y-19840024D01*
X38266823Y-19888687D01*
X38141804Y-19901000D01*
X38058196Y-19901000D01*
X37933177Y-19888687D01*
X37772758Y-19840024D01*
X37624924Y-19761005D01*
X37624922Y-19761004D01*
X37495341Y-19654659D01*
X37388996Y-19525078D01*
X37370983Y-19491378D01*
X37309976Y-19377242D01*
X37261313Y-19216823D01*
X37244883Y-19050000D01*
X37261313Y-18883177D01*
X37309976Y-18722758D01*
X37388995Y-18574924D01*
X37388996Y-18574922D01*
X37495341Y-18445341D01*
X37624922Y-18338996D01*
X37650132Y-18325521D01*
X37772758Y-18259976D01*
X37933177Y-18211313D01*
X38058196Y-18199000D01*
X38141804Y-18199000D01*
X38266823Y-18211313D01*
X38266823Y-18211313D01*
G37*
G36*
X9426823Y-18101313D02*
G01*
X9587242Y-18149976D01*
X9678959Y-18199000D01*
X9735078Y-18228996D01*
X9864659Y-18335341D01*
X9971004Y-18464922D01*
X9971005Y-18464924D01*
X10050024Y-18612758D01*
X10098687Y-18773177D01*
X10115117Y-18940000D01*
X10098687Y-19106823D01*
X10050024Y-19267242D01*
X10006323Y-19349000D01*
X9971004Y-19415078D01*
X9864659Y-19544659D01*
X9735078Y-19651004D01*
X9735076Y-19651005D01*
X9587242Y-19730024D01*
X9426823Y-19778687D01*
X9301804Y-19791000D01*
X9218196Y-19791000D01*
X9093177Y-19778687D01*
X8932758Y-19730024D01*
X8784924Y-19651005D01*
X8784922Y-19651004D01*
X8655341Y-19544659D01*
X8548996Y-19415078D01*
X8513677Y-19349000D01*
X8469976Y-19267242D01*
X8421313Y-19106823D01*
X8404883Y-18940000D01*
X8421313Y-18773177D01*
X8469976Y-18612758D01*
X8548995Y-18464924D01*
X8548996Y-18464922D01*
X8655341Y-18335341D01*
X8784922Y-18228996D01*
X8841041Y-18199000D01*
X8932758Y-18149976D01*
X9093177Y-18101313D01*
X9218196Y-18089000D01*
X9301804Y-18089000D01*
X9426823Y-18101313D01*
X9426823Y-18101313D01*
G37*
G36*
X24666823Y-18101313D02*
G01*
X24827242Y-18149976D01*
X24918959Y-18199000D01*
X24975078Y-18228996D01*
X25104659Y-18335341D01*
X25211004Y-18464922D01*
X25211005Y-18464924D01*
X25290024Y-18612758D01*
X25338687Y-18773177D01*
X25355117Y-18940000D01*
X25338687Y-19106823D01*
X25290024Y-19267242D01*
X25246323Y-19349000D01*
X25211004Y-19415078D01*
X25104659Y-19544659D01*
X24975078Y-19651004D01*
X24975076Y-19651005D01*
X24827242Y-19730024D01*
X24666823Y-19778687D01*
X24541804Y-19791000D01*
X24458196Y-19791000D01*
X24333177Y-19778687D01*
X24172758Y-19730024D01*
X24024924Y-19651005D01*
X24024922Y-19651004D01*
X23895341Y-19544659D01*
X23788996Y-19415078D01*
X23753677Y-19349000D01*
X23709976Y-19267242D01*
X23661313Y-19106823D01*
X23644883Y-18940000D01*
X23661313Y-18773177D01*
X23709976Y-18612758D01*
X23788995Y-18464924D01*
X23788996Y-18464922D01*
X23895341Y-18335341D01*
X24024922Y-18228996D01*
X24081041Y-18199000D01*
X24172758Y-18149976D01*
X24333177Y-18101313D01*
X24458196Y-18089000D01*
X24541804Y-18089000D01*
X24666823Y-18101313D01*
X24666823Y-18101313D01*
G37*
G36*
X62701000Y-19601000D02*
G01*
X59299000Y-19601000D01*
X59299000Y-16999000D01*
X62701000Y-16999000D01*
X62701000Y-19601000D01*
X62701000Y-19601000D01*
G37*
G36*
X51159473Y-16208413D02*
G01*
X51255040Y-16217825D01*
X51500280Y-16292218D01*
X51726294Y-16413025D01*
X51777899Y-16455376D01*
X51924397Y-16575603D01*
X52044624Y-16722101D01*
X52086975Y-16773706D01*
X52207782Y-16999720D01*
X52282175Y-17244960D01*
X52307294Y-17500000D01*
X52282175Y-17755040D01*
X52207782Y-18000280D01*
X52086975Y-18226294D01*
X52059333Y-18259976D01*
X51924397Y-18424397D01*
X51777899Y-18544624D01*
X51726294Y-18586975D01*
X51500280Y-18707782D01*
X51255040Y-18782175D01*
X51159473Y-18791587D01*
X51063906Y-18801000D01*
X48936094Y-18801000D01*
X48840527Y-18791587D01*
X48744960Y-18782175D01*
X48499720Y-18707782D01*
X48273706Y-18586975D01*
X48222101Y-18544624D01*
X48075603Y-18424397D01*
X47940667Y-18259976D01*
X47913025Y-18226294D01*
X47792218Y-18000280D01*
X47717825Y-17755040D01*
X47692706Y-17500000D01*
X47717825Y-17244960D01*
X47792218Y-16999720D01*
X47913025Y-16773706D01*
X47955376Y-16722101D01*
X48075603Y-16575603D01*
X48222101Y-16455376D01*
X48273706Y-16413025D01*
X48499720Y-16292218D01*
X48744960Y-16217825D01*
X48840527Y-16208413D01*
X48936094Y-16199000D01*
X51063906Y-16199000D01*
X51159473Y-16208413D01*
X51159473Y-16208413D01*
G37*
G36*
X38266823Y-15671313D02*
G01*
X38427242Y-15719976D01*
X38559906Y-15790886D01*
X38575078Y-15798996D01*
X38704659Y-15905341D01*
X38811004Y-16034922D01*
X38811005Y-16034924D01*
X38890024Y-16182758D01*
X38938687Y-16343177D01*
X38955117Y-16510000D01*
X38938687Y-16676823D01*
X38890024Y-16837242D01*
X38882670Y-16851000D01*
X38811004Y-16985078D01*
X38704659Y-17114659D01*
X38575078Y-17221004D01*
X38575076Y-17221005D01*
X38427242Y-17300024D01*
X38266823Y-17348687D01*
X38141804Y-17361000D01*
X38058196Y-17361000D01*
X37933177Y-17348687D01*
X37772758Y-17300024D01*
X37624924Y-17221005D01*
X37624922Y-17221004D01*
X37495341Y-17114659D01*
X37388996Y-16985078D01*
X37317330Y-16851000D01*
X37309976Y-16837242D01*
X37261313Y-16676823D01*
X37244883Y-16510000D01*
X37261313Y-16343177D01*
X37309976Y-16182758D01*
X37388995Y-16034924D01*
X37388996Y-16034922D01*
X37495341Y-15905341D01*
X37624922Y-15798996D01*
X37640094Y-15790886D01*
X37772758Y-15719976D01*
X37933177Y-15671313D01*
X38058196Y-15659000D01*
X38141804Y-15659000D01*
X38266823Y-15671313D01*
X38266823Y-15671313D01*
G37*
G36*
X31331000Y-17361000D02*
G01*
X29629000Y-17361000D01*
X29629000Y-15659000D01*
X31331000Y-15659000D01*
X31331000Y-17361000D01*
X31331000Y-17361000D01*
G37*
G36*
X76402585Y-13778802D02*
G01*
X76552410Y-13808604D01*
X76834674Y-13925521D01*
X77088705Y-14095259D01*
X77304741Y-14311295D01*
X77474479Y-14565326D01*
X77591396Y-14847590D01*
X77651000Y-15147240D01*
X77651000Y-15452760D01*
X77591396Y-15752410D01*
X77474479Y-16034674D01*
X77304741Y-16288705D01*
X77088705Y-16504741D01*
X76834674Y-16674479D01*
X76552410Y-16791396D01*
X76402585Y-16821198D01*
X76252761Y-16851000D01*
X75947239Y-16851000D01*
X75797415Y-16821198D01*
X75647590Y-16791396D01*
X75365326Y-16674479D01*
X75111295Y-16504741D01*
X74895259Y-16288705D01*
X74725521Y-16034674D01*
X74608604Y-15752410D01*
X74549000Y-15452760D01*
X74549000Y-15147240D01*
X74608604Y-14847590D01*
X74725521Y-14565326D01*
X74895259Y-14311295D01*
X75111295Y-14095259D01*
X75365326Y-13925521D01*
X75647590Y-13808604D01*
X75797415Y-13778802D01*
X75947239Y-13749000D01*
X76252761Y-13749000D01*
X76402585Y-13778802D01*
X76402585Y-13778802D01*
G37*
G36*
X51159472Y-10758412D02*
G01*
X51255040Y-10767825D01*
X51500280Y-10842218D01*
X51726294Y-10963025D01*
X51777899Y-11005376D01*
X51924397Y-11125603D01*
X52044624Y-11272101D01*
X52086975Y-11323706D01*
X52207782Y-11549720D01*
X52282175Y-11794960D01*
X52307294Y-12050000D01*
X52282175Y-12305040D01*
X52207782Y-12550280D01*
X52086975Y-12776294D01*
X52076801Y-12788691D01*
X51924397Y-12974397D01*
X51777899Y-13094624D01*
X51726294Y-13136975D01*
X51500280Y-13257782D01*
X51255040Y-13332175D01*
X51159472Y-13341588D01*
X51063906Y-13351000D01*
X48936094Y-13351000D01*
X48840528Y-13341588D01*
X48744960Y-13332175D01*
X48499720Y-13257782D01*
X48273706Y-13136975D01*
X48222101Y-13094624D01*
X48075603Y-12974397D01*
X47923199Y-12788691D01*
X47913025Y-12776294D01*
X47792218Y-12550280D01*
X47717825Y-12305040D01*
X47692706Y-12050000D01*
X47717825Y-11794960D01*
X47792218Y-11549720D01*
X47913025Y-11323706D01*
X47955376Y-11272101D01*
X48075603Y-11125603D01*
X48222101Y-11005376D01*
X48273706Y-10963025D01*
X48499720Y-10842218D01*
X48744960Y-10767825D01*
X48840528Y-10758412D01*
X48936094Y-10749000D01*
X51063906Y-10749000D01*
X51159472Y-10758412D01*
X51159472Y-10758412D01*
G37*
G36*
X69777395Y-11135546D02*
G01*
X69950466Y-11207234D01*
X70027818Y-11258919D01*
X70106227Y-11311310D01*
X70238690Y-11443773D01*
X70291081Y-11522182D01*
X70342766Y-11599534D01*
X70414454Y-11772605D01*
X70451000Y-11956333D01*
X70451000Y-12143667D01*
X70414454Y-12327395D01*
X70342766Y-12500466D01*
X70342765Y-12500467D01*
X70238690Y-12656227D01*
X70106227Y-12788690D01*
X70027818Y-12841081D01*
X69950466Y-12892766D01*
X69777395Y-12964454D01*
X69593667Y-13001000D01*
X69406333Y-13001000D01*
X69222605Y-12964454D01*
X69049534Y-12892766D01*
X68972182Y-12841081D01*
X68893773Y-12788690D01*
X68761310Y-12656227D01*
X68657235Y-12500467D01*
X68657234Y-12500466D01*
X68585546Y-12327395D01*
X68549000Y-12143667D01*
X68549000Y-11956333D01*
X68585546Y-11772605D01*
X68657234Y-11599534D01*
X68708919Y-11522182D01*
X68761310Y-11443773D01*
X68893773Y-11311310D01*
X68972182Y-11258919D01*
X69049534Y-11207234D01*
X69222605Y-11135546D01*
X69406333Y-11099000D01*
X69593667Y-11099000D01*
X69777395Y-11135546D01*
X69777395Y-11135546D01*
G37*
G36*
X74277395Y-11135546D02*
G01*
X74450466Y-11207234D01*
X74527818Y-11258919D01*
X74606227Y-11311310D01*
X74738690Y-11443773D01*
X74791081Y-11522182D01*
X74842766Y-11599534D01*
X74914454Y-11772605D01*
X74951000Y-11956333D01*
X74951000Y-12143667D01*
X74914454Y-12327395D01*
X74842766Y-12500466D01*
X74842765Y-12500467D01*
X74738690Y-12656227D01*
X74606227Y-12788690D01*
X74527818Y-12841081D01*
X74450466Y-12892766D01*
X74277395Y-12964454D01*
X74093667Y-13001000D01*
X73906333Y-13001000D01*
X73722605Y-12964454D01*
X73549534Y-12892766D01*
X73472182Y-12841081D01*
X73393773Y-12788690D01*
X73261310Y-12656227D01*
X73157235Y-12500467D01*
X73157234Y-12500466D01*
X73085546Y-12327395D01*
X73049000Y-12143667D01*
X73049000Y-11956333D01*
X73085546Y-11772605D01*
X73157234Y-11599534D01*
X73208919Y-11522182D01*
X73261310Y-11443773D01*
X73393773Y-11311310D01*
X73472182Y-11258919D01*
X73549534Y-11207234D01*
X73722605Y-11135546D01*
X73906333Y-11099000D01*
X74093667Y-11099000D01*
X74277395Y-11135546D01*
X74277395Y-11135546D01*
G37*
G36*
X62701000Y-12801000D02*
G01*
X59299000Y-12801000D01*
X59299000Y-10199000D01*
X62701000Y-10199000D01*
X62701000Y-12801000D01*
X62701000Y-12801000D01*
G37*
G36*
X95829487Y-9948996D02*
G01*
X96066253Y-10047068D01*
X96066255Y-10047069D01*
X96279339Y-10189447D01*
X96460553Y-10370661D01*
X96551940Y-10507431D01*
X96602932Y-10583747D01*
X96701004Y-10820513D01*
X96751000Y-11071861D01*
X96751000Y-11328139D01*
X96701004Y-11579487D01*
X96611752Y-11794960D01*
X96602931Y-11816255D01*
X96460553Y-12029339D01*
X96279339Y-12210553D01*
X96066255Y-12352931D01*
X96066254Y-12352932D01*
X96066253Y-12352932D01*
X95829487Y-12451004D01*
X95578139Y-12501000D01*
X95321861Y-12501000D01*
X95070513Y-12451004D01*
X94833747Y-12352932D01*
X94833746Y-12352932D01*
X94833745Y-12352931D01*
X94620661Y-12210553D01*
X94439447Y-12029339D01*
X94297069Y-11816255D01*
X94288248Y-11794960D01*
X94198996Y-11579487D01*
X94149000Y-11328139D01*
X94149000Y-11071861D01*
X94198996Y-10820513D01*
X94297068Y-10583747D01*
X94348061Y-10507431D01*
X94439447Y-10370661D01*
X94620661Y-10189447D01*
X94833745Y-10047069D01*
X94833747Y-10047068D01*
X95070513Y-9948996D01*
X95321861Y-9899000D01*
X95578139Y-9899000D01*
X95829487Y-9948996D01*
X95829487Y-9948996D01*
G37*
G36*
X66364903Y-9897075D02*
G01*
X66592571Y-9991378D01*
X66797466Y-10128285D01*
X66971715Y-10302534D01*
X66971716Y-10302536D01*
X67108623Y-10507431D01*
X67202925Y-10735097D01*
X67251000Y-10976786D01*
X67251000Y-11223214D01*
X67202925Y-11464903D01*
X67155463Y-11579488D01*
X67108622Y-11692571D01*
X66971715Y-11897466D01*
X66797466Y-12071715D01*
X66592571Y-12208622D01*
X66592570Y-12208623D01*
X66592569Y-12208623D01*
X66364903Y-12302925D01*
X66123214Y-12351000D01*
X65876786Y-12351000D01*
X65635097Y-12302925D01*
X65407431Y-12208623D01*
X65407430Y-12208623D01*
X65407429Y-12208622D01*
X65202534Y-12071715D01*
X65028285Y-11897466D01*
X64891378Y-11692571D01*
X64844538Y-11579488D01*
X64797075Y-11464903D01*
X64749000Y-11223214D01*
X64749000Y-10976786D01*
X64797075Y-10735097D01*
X64891377Y-10507431D01*
X65028284Y-10302536D01*
X65028285Y-10302534D01*
X65202534Y-10128285D01*
X65407429Y-9991378D01*
X65635097Y-9897075D01*
X65876786Y-9849000D01*
X66123214Y-9849000D01*
X66364903Y-9897075D01*
X66364903Y-9897075D01*
G37*
G36*
X95375256Y-3391298D02*
G01*
X95481579Y-3412447D01*
X95782042Y-3536903D01*
X96052451Y-3717585D01*
X96282415Y-3947549D01*
X96463097Y-4217958D01*
X96587553Y-4518421D01*
X96651000Y-4837391D01*
X96651000Y-5162609D01*
X96587553Y-5481579D01*
X96463097Y-5782042D01*
X96282415Y-6052451D01*
X96052451Y-6282415D01*
X95782042Y-6463097D01*
X95481579Y-6587553D01*
X95375256Y-6608702D01*
X95162611Y-6651000D01*
X94837389Y-6651000D01*
X94624744Y-6608702D01*
X94518421Y-6587553D01*
X94217958Y-6463097D01*
X93947549Y-6282415D01*
X93717585Y-6052451D01*
X93536903Y-5782042D01*
X93412447Y-5481579D01*
X93349000Y-5162609D01*
X93349000Y-4837391D01*
X93412447Y-4518421D01*
X93536903Y-4217958D01*
X93717585Y-3947549D01*
X93947549Y-3717585D01*
X94217958Y-3536903D01*
X94518421Y-3412447D01*
X94624744Y-3391298D01*
X94837389Y-3349000D01*
X95162611Y-3349000D01*
X95375256Y-3391298D01*
X95375256Y-3391298D01*
G37*
G36*
X5375256Y-3391298D02*
G01*
X5481579Y-3412447D01*
X5782042Y-3536903D01*
X6052451Y-3717585D01*
X6282415Y-3947549D01*
X6463097Y-4217958D01*
X6587553Y-4518421D01*
X6651000Y-4837391D01*
X6651000Y-5162609D01*
X6587553Y-5481579D01*
X6463097Y-5782042D01*
X6282415Y-6052451D01*
X6052451Y-6282415D01*
X5782042Y-6463097D01*
X5481579Y-6587553D01*
X5375256Y-6608702D01*
X5162611Y-6651000D01*
X4837389Y-6651000D01*
X4624744Y-6608702D01*
X4518421Y-6587553D01*
X4217958Y-6463097D01*
X3947549Y-6282415D01*
X3717585Y-6052451D01*
X3536903Y-5782042D01*
X3412447Y-5481579D01*
X3349000Y-5162609D01*
X3349000Y-4837391D01*
X3412447Y-4518421D01*
X3536903Y-4217958D01*
X3717585Y-3947549D01*
X3947549Y-3717585D01*
X4217958Y-3536903D01*
X4518421Y-3412447D01*
X4624744Y-3391298D01*
X4837389Y-3349000D01*
X5162611Y-3349000D01*
X5375256Y-3391298D01*
X5375256Y-3391298D01*
G37*
M02*
