M48
; DRILL file {KiCad (5.1.2)-1} date 2019/09/05 15:18:30
; FORMAT={-:-/ absolute / metric / decimal}
; #@! TF.CreationDate,2019-09-05T15:18:30+09:00
; #@! TF.GenerationSoftware,Kicad,Pcbnew,(5.1.2)-1
FMAT,2
METRIC
T1C0.400
T2C0.700
T3C0.750
T4C0.800
T5C1.000
T6C1.200
T7C1.500
T8C1.600
T9C1.800
T10C2.000
T11C3.200
%
G90
G05
T1
X15.3Y-53.1
X16.2Y-52.4
X17.0Y-51.7
X18.5Y-39.2
X20.1Y-11.4
X20.3Y-31.7
X21.0Y-44.3
X21.0Y-34.1
X21.0Y-41.8
X21.1Y-36.7
X22.7Y-87.7
X23.0Y-78.3
X23.7Y-67.5
X25.6Y-12.9
X26.4Y-13.57
X26.53Y-41.0
X26.53Y-44.322
X26.53Y-46.2
X26.8Y-70.4
X27.0Y-16.9
X27.2Y-14.2
X27.2Y-65.3
X27.2Y-75.6
X27.225Y-28.075
X27.3Y-60.3
X27.43Y-55.3
X42.0Y-28.5
X42.0Y-47.5
X42.0Y-66.0
X42.5Y-25.0
X42.5Y-43.5
X42.5Y-62.5
T2
X7.0Y-56.8
X7.0Y-58.8
X11.5Y-47.9
X11.5Y-49.4
X11.5Y-51.9
X13.9Y-26.1
X13.9Y-31.6
X13.9Y-40.0
X13.9Y-44.7
X14.0Y-55.0
X16.35Y-57.35
X22.88Y-46.88
X25.2Y-77.5
X25.2Y-79.0
T3
X53.0Y-79.0
X53.0Y-81.0
X4.0Y-34.0
X4.0Y-36.0
X4.0Y-38.0
X4.0Y-40.0
X4.0Y-77.0
X4.0Y-79.0
X4.0Y-81.0
X4.0Y-83.0
X4.0Y-61.0
X4.0Y-63.0
X4.0Y-65.0
X4.0Y-67.0
X45.0Y-79.0
X45.0Y-81.0
X61.0Y-79.0
X61.0Y-81.0
X4.0Y-48.0
X4.0Y-50.0
X4.0Y-52.0
X4.0Y-54.0
T4
X30.48Y-21.59
X30.48Y-24.13
X38.1Y-21.59
X38.1Y-24.13
X30.48Y-58.63
X30.48Y-61.17
X38.1Y-58.63
X38.1Y-61.17
X30.48Y-68.93
X30.48Y-71.47
X38.1Y-68.93
X38.1Y-71.47
X30.48Y-53.55
X30.48Y-56.09
X38.1Y-53.55
X38.1Y-56.09
X13.0Y-61.0
X13.0Y-63.54
X13.0Y-66.08
X13.0Y-68.62
X13.0Y-71.16
X13.0Y-73.7
X13.0Y-76.24
X13.0Y-78.78
X13.0Y-81.32
X20.62Y-61.0
X20.62Y-63.54
X20.62Y-66.08
X20.62Y-68.62
X20.62Y-71.16
X20.62Y-73.7
X20.62Y-76.24
X20.62Y-78.78
X20.62Y-81.32
X30.48Y-39.95
X30.48Y-42.49
X38.1Y-39.95
X38.1Y-42.49
X9.26Y-18.94
X9.26Y-21.48
X9.26Y-24.02
X9.26Y-26.56
X9.26Y-29.1
X9.26Y-31.64
X9.26Y-34.18
X9.26Y-36.72
X9.26Y-39.26
X9.26Y-41.8
X9.26Y-44.34
X9.26Y-46.88
X9.26Y-49.42
X9.26Y-51.96
X9.26Y-54.5
X24.5Y-18.94
X24.5Y-21.48
X24.5Y-24.02
X24.5Y-26.56
X24.5Y-29.1
X24.5Y-31.64
X24.5Y-34.18
X24.5Y-36.72
X24.5Y-39.26
X24.5Y-41.8
X24.5Y-44.34
X24.5Y-46.88
X24.5Y-49.42
X24.5Y-51.96
X24.5Y-54.5
X30.48Y-74.01
X30.48Y-76.55
X38.1Y-74.01
X38.1Y-76.55
X30.48Y-34.87
X30.48Y-37.41
X38.1Y-34.87
X38.1Y-37.41
X13.0Y-86.46
X13.0Y-89.0
X13.0Y-91.54
X13.0Y-94.08
X20.62Y-86.46
X20.62Y-89.0
X20.62Y-91.54
X20.62Y-94.08
X30.48Y-79.09
X30.48Y-81.63
X38.1Y-79.09
X38.1Y-81.63
X30.48Y-16.51
X30.48Y-19.05
X38.1Y-16.51
X38.1Y-19.05
T5
X37.0Y-4.0
X37.0Y-7.5
X37.0Y-12.0
X38.0Y-50.0
X38.5Y-31.0
X41.0Y-56.0
X41.0Y-60.5
X41.0Y-74.0
X41.5Y-4.0
X41.5Y-7.5
X41.5Y-12.0
X41.5Y-17.5
X41.5Y-22.5
X41.5Y-31.0
X41.5Y-37.0
X41.5Y-41.5
X42.0Y-50.0
X42.5Y-69.0
X43.0Y-76.5
X44.5Y-31.0
X45.5Y-4.0
X45.5Y-7.5
X45.5Y-12.0
X45.5Y-17.5
X45.5Y-22.5
X45.5Y-37.0
X45.5Y-41.5
X46.0Y-50.0
X46.0Y-56.0
X46.0Y-60.5
X47.0Y-69.0
X47.0Y-73.5
X49.5Y-4.0
X49.5Y-7.5
X49.5Y-27.0
X49.5Y-46.0
X49.5Y-64.5
X52.0Y-69.0
X52.0Y-73.5
X54.5Y-4.0
X54.5Y-7.5
X54.5Y-63.0
X55.0Y-26.5
X55.0Y-44.5
X55.5Y-65.5
X57.0Y-69.0
X57.0Y-73.5
X58.0Y-4.0
X58.0Y-7.5
X62.0Y-4.0
X62.0Y-7.5
X62.0Y-69.0
X62.0Y-73.5
X64.5Y-64.0
X65.5Y-4.0
X65.5Y-7.5
X66.0Y-24.5
X66.0Y-43.5
X66.5Y-69.0
X66.5Y-73.5
X66.5Y-77.5
X67.0Y-66.0
X69.0Y-64.0
X69.5Y-4.0
X71.0Y-69.0
X71.0Y-73.5
X71.0Y-77.5
X71.5Y-66.0
X73.5Y-4.0
X73.5Y-64.0
X75.5Y-69.0
X75.5Y-73.5
X76.0Y-66.0
X76.0Y-88.0
X77.0Y-4.0
X77.0Y-7.5
X78.0Y-64.0
X79.2Y-77.8
X79.5Y-27.5
X79.5Y-46.5
X79.5Y-69.0
X79.5Y-73.5
X79.5Y-84.5
X80.0Y-88.0
X80.5Y-4.0
X80.5Y-7.5
X82.5Y-64.0
X82.5Y-68.0
X83.5Y-73.5
X84.0Y-4.0
X84.0Y-7.5
X85.5Y-27.5
X85.5Y-46.5
X86.5Y-64.0
X86.5Y-68.0
X86.5Y-72.0
X87.5Y-4.0
X87.5Y-7.5
X90.5Y-25.5
X90.5Y-30.5
X90.5Y-35.0
X90.5Y-39.5
X90.5Y-44.0
X90.5Y-48.0
X90.5Y-52.0
X90.5Y-56.0
X90.5Y-60.0
X90.5Y-64.0
X90.5Y-68.0
X90.5Y-72.0
X90.5Y-76.0
X90.5Y-80.0
X90.5Y-84.0
X90.5Y-88.0
X91.0Y-4.0
X91.0Y-7.5
X91.0Y-11.0
X91.0Y-15.0
X91.0Y-19.0
X94.5Y-52.0
X94.5Y-56.0
X94.5Y-60.0
X94.5Y-80.0
X94.5Y-84.0
X95.0Y-35.0
X95.0Y-39.5
X95.0Y-68.0
X95.5Y-15.0
X95.5Y-19.0
X9.0Y-75.0
X9.0Y-77.5
X9.0Y-80.0
X75.0Y-79.5
X75.0Y-84.5
T6
X58.0Y-22.95
X62.5Y-22.95
X69.5Y-12.05
X74.0Y-12.05
X58.0Y-41.95
X62.5Y-41.95
X69.5Y-31.05
X74.0Y-31.05
X58.0Y-60.95
X62.5Y-60.95
X69.5Y-50.05
X74.0Y-50.05
T7
X50.0Y-50.05
X50.0Y-55.5
X50.0Y-60.95
X50.0Y-31.05
X50.0Y-36.5
X50.0Y-41.95
X50.0Y-12.05
X50.0Y-17.5
X50.0Y-22.95
T8
X66.0Y-11.1
X66.0Y-20.6
X66.0Y-30.1
X66.0Y-39.6
X66.0Y-49.1
X66.0Y-58.6
T9
X95.45Y-49.2
X95.45Y-62.6
X95.45Y-30.2
X95.45Y-43.6
X95.45Y-74.7
X95.45Y-88.1
X95.45Y-11.2
X95.45Y-24.6
T10
X55.9Y-19.7
X76.1Y-15.3
X55.9Y-38.7
X76.1Y-34.3
X55.9Y-57.7
X76.1Y-53.3
T11
X95.0Y-95.0
X95.0Y-5.0
X5.0Y-95.0
X5.0Y-5.0
T0
M30
