G04 #@! TF.GenerationSoftware,KiCad,Pcbnew,(5.1.2)-1*
G04 #@! TF.CreationDate,2019-09-05T15:18:28+09:00*
G04 #@! TF.ProjectId,MD_2016_remake,4d445f32-3031-4365-9f72-656d616b652e,2*
G04 #@! TF.SameCoordinates,PXaba9500PY3473bc0*
G04 #@! TF.FileFunction,Copper,L2,Bot*
G04 #@! TF.FilePolarity,Positive*
%FSLAX46Y46*%
G04 Gerber Fmt 4.6, Leading zero omitted, Abs format (unit mm)*
G04 Created by KiCad (PCBNEW (5.1.2)-1) date 2019-09-05 15:18:28*
%MOMM*%
%LPD*%
G04 APERTURE LIST*
%ADD10R,4.500000X2.500000*%
%ADD11O,4.500000X2.500000*%
%ADD12O,1.750000X1.200000*%
%ADD13C,0.100000*%
%ADD14C,1.200000*%
%ADD15O,1.600000X1.600000*%
%ADD16R,1.600000X1.600000*%
%ADD17C,2.500000*%
%ADD18R,3.300000X2.500000*%
%ADD19R,2.000000X2.000000*%
%ADD20C,2.000000*%
%ADD21C,3.000000*%
%ADD22C,1.800000*%
%ADD23C,2.400000*%
%ADD24C,1.700000*%
%ADD25C,1.000000*%
%ADD26C,0.700000*%
%ADD27C,0.160000*%
%ADD28C,1.000000*%
%ADD29C,0.250000*%
%ADD30C,0.254000*%
G04 APERTURE END LIST*
D10*
X50000000Y-60950000D03*
D11*
X50000000Y-55500000D03*
X50000000Y-50050000D03*
D12*
X4000000Y-40000000D03*
X4000000Y-38000000D03*
X4000000Y-36000000D03*
D13*
G36*
X4649505Y-33401204D02*
G01*
X4673773Y-33404804D01*
X4697572Y-33410765D01*
X4720671Y-33419030D01*
X4742850Y-33429520D01*
X4763893Y-33442132D01*
X4783599Y-33456747D01*
X4801777Y-33473223D01*
X4818253Y-33491401D01*
X4832868Y-33511107D01*
X4845480Y-33532150D01*
X4855970Y-33554329D01*
X4864235Y-33577428D01*
X4870196Y-33601227D01*
X4873796Y-33625495D01*
X4875000Y-33649999D01*
X4875000Y-34350001D01*
X4873796Y-34374505D01*
X4870196Y-34398773D01*
X4864235Y-34422572D01*
X4855970Y-34445671D01*
X4845480Y-34467850D01*
X4832868Y-34488893D01*
X4818253Y-34508599D01*
X4801777Y-34526777D01*
X4783599Y-34543253D01*
X4763893Y-34557868D01*
X4742850Y-34570480D01*
X4720671Y-34580970D01*
X4697572Y-34589235D01*
X4673773Y-34595196D01*
X4649505Y-34598796D01*
X4625001Y-34600000D01*
X3374999Y-34600000D01*
X3350495Y-34598796D01*
X3326227Y-34595196D01*
X3302428Y-34589235D01*
X3279329Y-34580970D01*
X3257150Y-34570480D01*
X3236107Y-34557868D01*
X3216401Y-34543253D01*
X3198223Y-34526777D01*
X3181747Y-34508599D01*
X3167132Y-34488893D01*
X3154520Y-34467850D01*
X3144030Y-34445671D01*
X3135765Y-34422572D01*
X3129804Y-34398773D01*
X3126204Y-34374505D01*
X3125000Y-34350001D01*
X3125000Y-33649999D01*
X3126204Y-33625495D01*
X3129804Y-33601227D01*
X3135765Y-33577428D01*
X3144030Y-33554329D01*
X3154520Y-33532150D01*
X3167132Y-33511107D01*
X3181747Y-33491401D01*
X3198223Y-33473223D01*
X3216401Y-33456747D01*
X3236107Y-33442132D01*
X3257150Y-33429520D01*
X3279329Y-33419030D01*
X3302428Y-33410765D01*
X3326227Y-33404804D01*
X3350495Y-33401204D01*
X3374999Y-33400000D01*
X4625001Y-33400000D01*
X4649505Y-33401204D01*
X4649505Y-33401204D01*
G37*
D14*
X4000000Y-34000000D03*
D12*
X4000000Y-54000000D03*
X4000000Y-52000000D03*
X4000000Y-50000000D03*
D13*
G36*
X4649505Y-47401204D02*
G01*
X4673773Y-47404804D01*
X4697572Y-47410765D01*
X4720671Y-47419030D01*
X4742850Y-47429520D01*
X4763893Y-47442132D01*
X4783599Y-47456747D01*
X4801777Y-47473223D01*
X4818253Y-47491401D01*
X4832868Y-47511107D01*
X4845480Y-47532150D01*
X4855970Y-47554329D01*
X4864235Y-47577428D01*
X4870196Y-47601227D01*
X4873796Y-47625495D01*
X4875000Y-47649999D01*
X4875000Y-48350001D01*
X4873796Y-48374505D01*
X4870196Y-48398773D01*
X4864235Y-48422572D01*
X4855970Y-48445671D01*
X4845480Y-48467850D01*
X4832868Y-48488893D01*
X4818253Y-48508599D01*
X4801777Y-48526777D01*
X4783599Y-48543253D01*
X4763893Y-48557868D01*
X4742850Y-48570480D01*
X4720671Y-48580970D01*
X4697572Y-48589235D01*
X4673773Y-48595196D01*
X4649505Y-48598796D01*
X4625001Y-48600000D01*
X3374999Y-48600000D01*
X3350495Y-48598796D01*
X3326227Y-48595196D01*
X3302428Y-48589235D01*
X3279329Y-48580970D01*
X3257150Y-48570480D01*
X3236107Y-48557868D01*
X3216401Y-48543253D01*
X3198223Y-48526777D01*
X3181747Y-48508599D01*
X3167132Y-48488893D01*
X3154520Y-48467850D01*
X3144030Y-48445671D01*
X3135765Y-48422572D01*
X3129804Y-48398773D01*
X3126204Y-48374505D01*
X3125000Y-48350001D01*
X3125000Y-47649999D01*
X3126204Y-47625495D01*
X3129804Y-47601227D01*
X3135765Y-47577428D01*
X3144030Y-47554329D01*
X3154520Y-47532150D01*
X3167132Y-47511107D01*
X3181747Y-47491401D01*
X3198223Y-47473223D01*
X3216401Y-47456747D01*
X3236107Y-47442132D01*
X3257150Y-47429520D01*
X3279329Y-47419030D01*
X3302428Y-47410765D01*
X3326227Y-47404804D01*
X3350495Y-47401204D01*
X3374999Y-47400000D01*
X4625001Y-47400000D01*
X4649505Y-47401204D01*
X4649505Y-47401204D01*
G37*
D14*
X4000000Y-48000000D03*
D15*
X20620000Y-61000000D03*
X13000000Y-81320000D03*
X20620000Y-63540000D03*
X13000000Y-78780000D03*
X20620000Y-66080000D03*
X13000000Y-76240000D03*
X20620000Y-68620000D03*
X13000000Y-73700000D03*
X20620000Y-71160000D03*
X13000000Y-71160000D03*
X20620000Y-73700000D03*
X13000000Y-68620000D03*
X20620000Y-76240000D03*
X13000000Y-66080000D03*
X20620000Y-78780000D03*
X13000000Y-63540000D03*
X20620000Y-81320000D03*
D16*
X13000000Y-61000000D03*
D17*
X95450000Y-74700000D03*
X95450000Y-88100000D03*
D18*
X61000000Y-11500000D03*
X61000000Y-18300000D03*
X61000000Y-30500000D03*
X61000000Y-37300000D03*
X61000000Y-49500000D03*
X61000000Y-56300000D03*
D16*
X24500000Y-54500000D03*
D15*
X9260000Y-21480000D03*
X24500000Y-51960000D03*
X9260000Y-24020000D03*
X24500000Y-49420000D03*
X9260000Y-26560000D03*
X24500000Y-46880000D03*
X9260000Y-29100000D03*
X24500000Y-44340000D03*
X9260000Y-31640000D03*
X24500000Y-41800000D03*
X9260000Y-34180000D03*
X24500000Y-39260000D03*
X9260000Y-36720000D03*
X24500000Y-36720000D03*
X9260000Y-39260000D03*
X24500000Y-34180000D03*
X9260000Y-41800000D03*
X24500000Y-31640000D03*
X9260000Y-44340000D03*
X24500000Y-29100000D03*
X9260000Y-46880000D03*
X24500000Y-26560000D03*
X9260000Y-49420000D03*
X24500000Y-24020000D03*
X9260000Y-51960000D03*
X24500000Y-21480000D03*
X9260000Y-54500000D03*
X24500000Y-18940000D03*
X9260000Y-18940000D03*
D19*
X75000000Y-84500000D03*
D20*
X75000000Y-79500000D03*
D12*
X4000000Y-67000000D03*
X4000000Y-65000000D03*
X4000000Y-63000000D03*
D13*
G36*
X4649505Y-60401204D02*
G01*
X4673773Y-60404804D01*
X4697572Y-60410765D01*
X4720671Y-60419030D01*
X4742850Y-60429520D01*
X4763893Y-60442132D01*
X4783599Y-60456747D01*
X4801777Y-60473223D01*
X4818253Y-60491401D01*
X4832868Y-60511107D01*
X4845480Y-60532150D01*
X4855970Y-60554329D01*
X4864235Y-60577428D01*
X4870196Y-60601227D01*
X4873796Y-60625495D01*
X4875000Y-60649999D01*
X4875000Y-61350001D01*
X4873796Y-61374505D01*
X4870196Y-61398773D01*
X4864235Y-61422572D01*
X4855970Y-61445671D01*
X4845480Y-61467850D01*
X4832868Y-61488893D01*
X4818253Y-61508599D01*
X4801777Y-61526777D01*
X4783599Y-61543253D01*
X4763893Y-61557868D01*
X4742850Y-61570480D01*
X4720671Y-61580970D01*
X4697572Y-61589235D01*
X4673773Y-61595196D01*
X4649505Y-61598796D01*
X4625001Y-61600000D01*
X3374999Y-61600000D01*
X3350495Y-61598796D01*
X3326227Y-61595196D01*
X3302428Y-61589235D01*
X3279329Y-61580970D01*
X3257150Y-61570480D01*
X3236107Y-61557868D01*
X3216401Y-61543253D01*
X3198223Y-61526777D01*
X3181747Y-61508599D01*
X3167132Y-61488893D01*
X3154520Y-61467850D01*
X3144030Y-61445671D01*
X3135765Y-61422572D01*
X3129804Y-61398773D01*
X3126204Y-61374505D01*
X3125000Y-61350001D01*
X3125000Y-60649999D01*
X3126204Y-60625495D01*
X3129804Y-60601227D01*
X3135765Y-60577428D01*
X3144030Y-60554329D01*
X3154520Y-60532150D01*
X3167132Y-60511107D01*
X3181747Y-60491401D01*
X3198223Y-60473223D01*
X3216401Y-60456747D01*
X3236107Y-60442132D01*
X3257150Y-60429520D01*
X3279329Y-60419030D01*
X3302428Y-60410765D01*
X3326227Y-60404804D01*
X3350495Y-60401204D01*
X3374999Y-60400000D01*
X4625001Y-60400000D01*
X4649505Y-60401204D01*
X4649505Y-60401204D01*
G37*
D14*
X4000000Y-61000000D03*
D13*
G36*
X4649505Y-76401204D02*
G01*
X4673773Y-76404804D01*
X4697572Y-76410765D01*
X4720671Y-76419030D01*
X4742850Y-76429520D01*
X4763893Y-76442132D01*
X4783599Y-76456747D01*
X4801777Y-76473223D01*
X4818253Y-76491401D01*
X4832868Y-76511107D01*
X4845480Y-76532150D01*
X4855970Y-76554329D01*
X4864235Y-76577428D01*
X4870196Y-76601227D01*
X4873796Y-76625495D01*
X4875000Y-76649999D01*
X4875000Y-77350001D01*
X4873796Y-77374505D01*
X4870196Y-77398773D01*
X4864235Y-77422572D01*
X4855970Y-77445671D01*
X4845480Y-77467850D01*
X4832868Y-77488893D01*
X4818253Y-77508599D01*
X4801777Y-77526777D01*
X4783599Y-77543253D01*
X4763893Y-77557868D01*
X4742850Y-77570480D01*
X4720671Y-77580970D01*
X4697572Y-77589235D01*
X4673773Y-77595196D01*
X4649505Y-77598796D01*
X4625001Y-77600000D01*
X3374999Y-77600000D01*
X3350495Y-77598796D01*
X3326227Y-77595196D01*
X3302428Y-77589235D01*
X3279329Y-77580970D01*
X3257150Y-77570480D01*
X3236107Y-77557868D01*
X3216401Y-77543253D01*
X3198223Y-77526777D01*
X3181747Y-77508599D01*
X3167132Y-77488893D01*
X3154520Y-77467850D01*
X3144030Y-77445671D01*
X3135765Y-77422572D01*
X3129804Y-77398773D01*
X3126204Y-77374505D01*
X3125000Y-77350001D01*
X3125000Y-76649999D01*
X3126204Y-76625495D01*
X3129804Y-76601227D01*
X3135765Y-76577428D01*
X3144030Y-76554329D01*
X3154520Y-76532150D01*
X3167132Y-76511107D01*
X3181747Y-76491401D01*
X3198223Y-76473223D01*
X3216401Y-76456747D01*
X3236107Y-76442132D01*
X3257150Y-76429520D01*
X3279329Y-76419030D01*
X3302428Y-76410765D01*
X3326227Y-76404804D01*
X3350495Y-76401204D01*
X3374999Y-76400000D01*
X4625001Y-76400000D01*
X4649505Y-76401204D01*
X4649505Y-76401204D01*
G37*
D14*
X4000000Y-77000000D03*
D12*
X4000000Y-79000000D03*
X4000000Y-81000000D03*
X4000000Y-83000000D03*
D21*
X55900000Y-57700000D03*
D22*
X58000000Y-60950000D03*
X62500000Y-60950000D03*
D23*
X66000000Y-58600000D03*
X66000000Y-49100000D03*
D22*
X69500000Y-50050000D03*
X74000000Y-50050000D03*
D21*
X76100000Y-53300000D03*
X76100000Y-34300000D03*
D22*
X74000000Y-31050000D03*
X69500000Y-31050000D03*
D23*
X66000000Y-30100000D03*
X66000000Y-39600000D03*
D22*
X62500000Y-41950000D03*
X58000000Y-41950000D03*
D21*
X55900000Y-38700000D03*
X55900000Y-19700000D03*
D22*
X58000000Y-22950000D03*
X62500000Y-22950000D03*
D23*
X66000000Y-20600000D03*
X66000000Y-11100000D03*
D22*
X69500000Y-12050000D03*
X74000000Y-12050000D03*
D21*
X76100000Y-15300000D03*
D12*
X61000000Y-81000000D03*
D13*
G36*
X61649505Y-78401204D02*
G01*
X61673773Y-78404804D01*
X61697572Y-78410765D01*
X61720671Y-78419030D01*
X61742850Y-78429520D01*
X61763893Y-78442132D01*
X61783599Y-78456747D01*
X61801777Y-78473223D01*
X61818253Y-78491401D01*
X61832868Y-78511107D01*
X61845480Y-78532150D01*
X61855970Y-78554329D01*
X61864235Y-78577428D01*
X61870196Y-78601227D01*
X61873796Y-78625495D01*
X61875000Y-78649999D01*
X61875000Y-79350001D01*
X61873796Y-79374505D01*
X61870196Y-79398773D01*
X61864235Y-79422572D01*
X61855970Y-79445671D01*
X61845480Y-79467850D01*
X61832868Y-79488893D01*
X61818253Y-79508599D01*
X61801777Y-79526777D01*
X61783599Y-79543253D01*
X61763893Y-79557868D01*
X61742850Y-79570480D01*
X61720671Y-79580970D01*
X61697572Y-79589235D01*
X61673773Y-79595196D01*
X61649505Y-79598796D01*
X61625001Y-79600000D01*
X60374999Y-79600000D01*
X60350495Y-79598796D01*
X60326227Y-79595196D01*
X60302428Y-79589235D01*
X60279329Y-79580970D01*
X60257150Y-79570480D01*
X60236107Y-79557868D01*
X60216401Y-79543253D01*
X60198223Y-79526777D01*
X60181747Y-79508599D01*
X60167132Y-79488893D01*
X60154520Y-79467850D01*
X60144030Y-79445671D01*
X60135765Y-79422572D01*
X60129804Y-79398773D01*
X60126204Y-79374505D01*
X60125000Y-79350001D01*
X60125000Y-78649999D01*
X60126204Y-78625495D01*
X60129804Y-78601227D01*
X60135765Y-78577428D01*
X60144030Y-78554329D01*
X60154520Y-78532150D01*
X60167132Y-78511107D01*
X60181747Y-78491401D01*
X60198223Y-78473223D01*
X60216401Y-78456747D01*
X60236107Y-78442132D01*
X60257150Y-78429520D01*
X60279329Y-78419030D01*
X60302428Y-78410765D01*
X60326227Y-78404804D01*
X60350495Y-78401204D01*
X60374999Y-78400000D01*
X61625001Y-78400000D01*
X61649505Y-78401204D01*
X61649505Y-78401204D01*
G37*
D14*
X61000000Y-79000000D03*
D13*
G36*
X53649505Y-78401204D02*
G01*
X53673773Y-78404804D01*
X53697572Y-78410765D01*
X53720671Y-78419030D01*
X53742850Y-78429520D01*
X53763893Y-78442132D01*
X53783599Y-78456747D01*
X53801777Y-78473223D01*
X53818253Y-78491401D01*
X53832868Y-78511107D01*
X53845480Y-78532150D01*
X53855970Y-78554329D01*
X53864235Y-78577428D01*
X53870196Y-78601227D01*
X53873796Y-78625495D01*
X53875000Y-78649999D01*
X53875000Y-79350001D01*
X53873796Y-79374505D01*
X53870196Y-79398773D01*
X53864235Y-79422572D01*
X53855970Y-79445671D01*
X53845480Y-79467850D01*
X53832868Y-79488893D01*
X53818253Y-79508599D01*
X53801777Y-79526777D01*
X53783599Y-79543253D01*
X53763893Y-79557868D01*
X53742850Y-79570480D01*
X53720671Y-79580970D01*
X53697572Y-79589235D01*
X53673773Y-79595196D01*
X53649505Y-79598796D01*
X53625001Y-79600000D01*
X52374999Y-79600000D01*
X52350495Y-79598796D01*
X52326227Y-79595196D01*
X52302428Y-79589235D01*
X52279329Y-79580970D01*
X52257150Y-79570480D01*
X52236107Y-79557868D01*
X52216401Y-79543253D01*
X52198223Y-79526777D01*
X52181747Y-79508599D01*
X52167132Y-79488893D01*
X52154520Y-79467850D01*
X52144030Y-79445671D01*
X52135765Y-79422572D01*
X52129804Y-79398773D01*
X52126204Y-79374505D01*
X52125000Y-79350001D01*
X52125000Y-78649999D01*
X52126204Y-78625495D01*
X52129804Y-78601227D01*
X52135765Y-78577428D01*
X52144030Y-78554329D01*
X52154520Y-78532150D01*
X52167132Y-78511107D01*
X52181747Y-78491401D01*
X52198223Y-78473223D01*
X52216401Y-78456747D01*
X52236107Y-78442132D01*
X52257150Y-78429520D01*
X52279329Y-78419030D01*
X52302428Y-78410765D01*
X52326227Y-78404804D01*
X52350495Y-78401204D01*
X52374999Y-78400000D01*
X53625001Y-78400000D01*
X53649505Y-78401204D01*
X53649505Y-78401204D01*
G37*
D14*
X53000000Y-79000000D03*
D12*
X53000000Y-81000000D03*
D13*
G36*
X45649505Y-78401204D02*
G01*
X45673773Y-78404804D01*
X45697572Y-78410765D01*
X45720671Y-78419030D01*
X45742850Y-78429520D01*
X45763893Y-78442132D01*
X45783599Y-78456747D01*
X45801777Y-78473223D01*
X45818253Y-78491401D01*
X45832868Y-78511107D01*
X45845480Y-78532150D01*
X45855970Y-78554329D01*
X45864235Y-78577428D01*
X45870196Y-78601227D01*
X45873796Y-78625495D01*
X45875000Y-78649999D01*
X45875000Y-79350001D01*
X45873796Y-79374505D01*
X45870196Y-79398773D01*
X45864235Y-79422572D01*
X45855970Y-79445671D01*
X45845480Y-79467850D01*
X45832868Y-79488893D01*
X45818253Y-79508599D01*
X45801777Y-79526777D01*
X45783599Y-79543253D01*
X45763893Y-79557868D01*
X45742850Y-79570480D01*
X45720671Y-79580970D01*
X45697572Y-79589235D01*
X45673773Y-79595196D01*
X45649505Y-79598796D01*
X45625001Y-79600000D01*
X44374999Y-79600000D01*
X44350495Y-79598796D01*
X44326227Y-79595196D01*
X44302428Y-79589235D01*
X44279329Y-79580970D01*
X44257150Y-79570480D01*
X44236107Y-79557868D01*
X44216401Y-79543253D01*
X44198223Y-79526777D01*
X44181747Y-79508599D01*
X44167132Y-79488893D01*
X44154520Y-79467850D01*
X44144030Y-79445671D01*
X44135765Y-79422572D01*
X44129804Y-79398773D01*
X44126204Y-79374505D01*
X44125000Y-79350001D01*
X44125000Y-78649999D01*
X44126204Y-78625495D01*
X44129804Y-78601227D01*
X44135765Y-78577428D01*
X44144030Y-78554329D01*
X44154520Y-78532150D01*
X44167132Y-78511107D01*
X44181747Y-78491401D01*
X44198223Y-78473223D01*
X44216401Y-78456747D01*
X44236107Y-78442132D01*
X44257150Y-78429520D01*
X44279329Y-78419030D01*
X44302428Y-78410765D01*
X44326227Y-78404804D01*
X44350495Y-78401204D01*
X44374999Y-78400000D01*
X45625001Y-78400000D01*
X45649505Y-78401204D01*
X45649505Y-78401204D01*
G37*
D14*
X45000000Y-79000000D03*
D12*
X45000000Y-81000000D03*
D17*
X95450000Y-49200000D03*
X95450000Y-62600000D03*
X95450000Y-43600000D03*
X95450000Y-30200000D03*
X95450000Y-24600000D03*
X95450000Y-11200000D03*
D10*
X50000000Y-41950000D03*
D11*
X50000000Y-36500000D03*
X50000000Y-31050000D03*
X50000000Y-12050000D03*
X50000000Y-17500000D03*
D10*
X50000000Y-22950000D03*
D16*
X20620000Y-94080000D03*
D15*
X13000000Y-86460000D03*
X20620000Y-91540000D03*
X13000000Y-89000000D03*
X20620000Y-89000000D03*
X13000000Y-91540000D03*
X20620000Y-86460000D03*
X13000000Y-94080000D03*
X38100000Y-68930000D03*
X30480000Y-71470000D03*
X38100000Y-71470000D03*
D16*
X30480000Y-68930000D03*
X30480000Y-74010000D03*
D15*
X38100000Y-76550000D03*
X30480000Y-76550000D03*
X38100000Y-74010000D03*
D16*
X30480000Y-79090000D03*
D15*
X38100000Y-81630000D03*
X30480000Y-81630000D03*
X38100000Y-79090000D03*
X38100000Y-58630000D03*
X30480000Y-61170000D03*
X38100000Y-61170000D03*
D16*
X30480000Y-58630000D03*
X30480000Y-53550000D03*
D15*
X38100000Y-56090000D03*
X30480000Y-56090000D03*
X38100000Y-53550000D03*
X38100000Y-39950000D03*
X30480000Y-42490000D03*
X38100000Y-42490000D03*
D16*
X30480000Y-39950000D03*
X30480000Y-34870000D03*
D15*
X38100000Y-37410000D03*
X30480000Y-37410000D03*
X38100000Y-34870000D03*
D16*
X30480000Y-21590000D03*
D15*
X38100000Y-24130000D03*
X30480000Y-24130000D03*
X38100000Y-21590000D03*
X38100000Y-16510000D03*
X30480000Y-19050000D03*
X38100000Y-19050000D03*
D16*
X30480000Y-16510000D03*
D24*
X9000000Y-75000000D03*
X9000000Y-77500000D03*
X9000000Y-80000000D03*
D25*
X14000000Y-55000000D03*
X13900000Y-40000000D03*
X13900000Y-26100000D03*
X13900000Y-31600000D03*
X16350000Y-57350000D03*
X13900000Y-44700000D03*
X25200000Y-79000000D03*
X25200000Y-77500000D03*
D26*
X20100000Y-11400000D03*
D25*
X7000000Y-56800000D03*
X7000000Y-58800000D03*
X11500000Y-49400000D03*
X11500000Y-51900000D03*
X11500000Y-47900000D03*
X22880000Y-46880000D03*
D26*
X25600000Y-12900000D03*
X26800000Y-70400000D03*
X17000000Y-51700000D03*
X20999998Y-44300000D03*
X27300000Y-60300000D03*
X26530010Y-44322351D03*
X16200000Y-52400000D03*
X27200000Y-75600000D03*
X26400000Y-13569990D03*
X21000000Y-41800000D03*
X27200000Y-65300000D03*
X26530010Y-46200000D03*
X15300000Y-53100000D03*
X23000000Y-78300000D03*
X27200000Y-14200000D03*
X18500000Y-39199994D03*
X27430010Y-55300000D03*
X26530010Y-41000000D03*
X21100004Y-36700000D03*
X21000000Y-34100000D03*
X20300000Y-31700000D03*
X27225000Y-28075000D03*
X27000000Y-16900008D03*
X23700000Y-67500000D03*
D20*
X90500000Y-88000000D03*
X90500000Y-84000000D03*
X90500000Y-80000000D03*
X94500000Y-84000000D03*
X94500000Y-80000000D03*
X90500000Y-76000000D03*
X90500000Y-72000000D03*
X90500000Y-68000000D03*
X95000000Y-68000000D03*
X86500000Y-68000000D03*
X86500000Y-72000000D03*
X86500000Y-64000000D03*
X90500000Y-64000000D03*
X90500000Y-60000000D03*
X90500000Y-56000000D03*
X94500000Y-56000000D03*
X94500000Y-60000000D03*
X94500000Y-52000000D03*
X90500000Y-52000000D03*
X82500000Y-64000000D03*
X82500000Y-68000000D03*
X78000000Y-64000000D03*
X73500000Y-64000000D03*
X69000000Y-64000000D03*
X64500000Y-64000000D03*
X67000000Y-66000000D03*
X71500000Y-66000000D03*
X76000000Y-66000000D03*
X55500000Y-65500000D03*
X54500000Y-63000000D03*
X90500000Y-48000000D03*
X90500000Y-44000000D03*
X85500000Y-46500000D03*
X79500000Y-46500000D03*
X66000000Y-43500000D03*
X55000000Y-44500000D03*
X79500000Y-27500000D03*
X85500000Y-27500000D03*
X90500000Y-39500000D03*
X90500000Y-35000000D03*
X90500000Y-30500000D03*
X90500000Y-25500000D03*
X95000000Y-35000000D03*
X95000000Y-39500000D03*
X66000000Y-24500000D03*
X55000000Y-26500000D03*
X54500000Y-7500000D03*
X54500000Y-4000000D03*
X58000000Y-4000000D03*
X58000000Y-7500000D03*
X62000000Y-7500000D03*
X62000000Y-4000000D03*
X65500000Y-4000000D03*
X65500000Y-7500000D03*
X69500000Y-4000000D03*
X73500000Y-4000000D03*
X77000000Y-4000000D03*
X77000000Y-7500000D03*
X80500000Y-7500000D03*
X80500000Y-4000000D03*
X84000000Y-4000000D03*
X84000000Y-7500000D03*
X87500000Y-4000000D03*
X87500000Y-7500000D03*
X91000000Y-4000000D03*
X91000000Y-7500000D03*
X91000000Y-11000000D03*
X91000000Y-15000000D03*
X91000000Y-19000000D03*
X95500000Y-15000000D03*
X95500000Y-19000000D03*
X80000000Y-88000000D03*
X79500000Y-84500000D03*
X76000000Y-88000000D03*
D26*
X42500000Y-25000000D03*
X42500000Y-43500000D03*
X42500000Y-62500000D03*
X42000000Y-66000000D03*
X42000000Y-47500000D03*
X42000000Y-28500000D03*
D20*
X79500000Y-69000000D03*
X83500000Y-73500000D03*
X79500000Y-73500000D03*
X75500000Y-73500000D03*
X75500000Y-69000000D03*
X71000000Y-69000000D03*
X71000000Y-73500000D03*
X66500000Y-73500000D03*
X66500000Y-69000000D03*
X62000000Y-69000000D03*
X62000000Y-73500000D03*
X57000000Y-73500000D03*
X57000000Y-69000000D03*
X52000000Y-69000000D03*
X52000000Y-73500000D03*
X47000000Y-73500000D03*
X47000000Y-69000000D03*
X49500000Y-64500000D03*
X42500000Y-69000000D03*
X43000000Y-76500000D03*
X41000000Y-74000000D03*
X41000000Y-60500000D03*
X46000000Y-60500000D03*
X41000000Y-56000000D03*
X46000000Y-56000000D03*
X46000000Y-50000000D03*
X38000000Y-50000000D03*
X42000000Y-50000000D03*
X49500000Y-46000000D03*
X49500000Y-27000000D03*
X44500000Y-31000000D03*
X38500000Y-31000000D03*
X41500000Y-31000000D03*
X45500000Y-17500000D03*
X41500000Y-17500000D03*
X45500000Y-22500000D03*
X41500000Y-22500000D03*
X45500000Y-12000000D03*
X41500000Y-12000000D03*
X37000000Y-12000000D03*
X37000000Y-7500000D03*
X41500000Y-7500000D03*
X45500000Y-7500000D03*
X49500000Y-7500000D03*
X49500000Y-4000000D03*
X45500000Y-4000000D03*
X41500000Y-4000000D03*
X37000000Y-4000000D03*
X66500000Y-77500000D03*
X71000000Y-77500000D03*
X79200000Y-77800000D03*
X45500000Y-37000000D03*
X41500000Y-37000000D03*
X41500000Y-41500000D03*
X45500000Y-41500000D03*
D26*
X22700000Y-87700000D03*
D27*
X5035000Y-50000000D02*
X4000000Y-50000000D01*
X24500000Y-54500000D02*
X24500000Y-53540000D01*
X24638403Y-50500001D02*
X5535001Y-50500001D01*
X25589965Y-52450035D02*
X25589965Y-51451563D01*
X5535001Y-50500001D02*
X5035000Y-50000000D01*
X25589965Y-51451563D02*
X24638403Y-50500001D01*
X24500000Y-53540000D02*
X25589965Y-52450035D01*
D28*
X20620000Y-61000000D02*
X20000000Y-61000000D01*
X20000000Y-61000000D02*
X14000000Y-55000000D01*
X13900000Y-40000000D02*
X13900000Y-44700000D01*
X13900000Y-40000000D02*
X13900000Y-26100000D01*
X25160002Y-79000000D02*
X25200000Y-79000000D01*
X13000000Y-86460000D02*
X17700002Y-86460000D01*
X17700002Y-86460000D02*
X25160002Y-79000000D01*
X25200000Y-79000000D02*
X25200000Y-77500000D01*
D27*
X5035000Y-52000000D02*
X4000000Y-52000000D01*
X6155001Y-50879999D02*
X5035000Y-52000000D01*
X23419999Y-50879999D02*
X6155001Y-50879999D01*
X24500000Y-51960000D02*
X23419999Y-50879999D01*
X10340001Y-24538401D02*
X10340001Y-21359999D01*
X9260000Y-25618402D02*
X10340001Y-24538401D01*
X9260000Y-26560000D02*
X9260000Y-25618402D01*
X10340001Y-21359999D02*
X20100000Y-11600000D01*
X20100000Y-11600000D02*
X20100000Y-11400000D01*
D28*
X20620000Y-91540000D02*
X18260000Y-91540000D01*
X15720000Y-94080000D02*
X13000000Y-94080000D01*
X18260000Y-91540000D02*
X15720000Y-94080000D01*
X13000000Y-94080000D02*
X6500000Y-87580000D01*
X4975000Y-61000000D02*
X4000000Y-61000000D01*
X6500000Y-62525000D02*
X4975000Y-61000000D01*
X6475000Y-75500000D02*
X6500000Y-75500000D01*
X4975000Y-77000000D02*
X6475000Y-75500000D01*
X4000000Y-77000000D02*
X4975000Y-77000000D01*
X6500000Y-75000000D02*
X6500000Y-71800000D01*
X9000000Y-77500000D02*
X6500000Y-75000000D01*
X6500000Y-75500000D02*
X6500000Y-71800000D01*
X6500000Y-71800000D02*
X6500000Y-62525000D01*
X6550001Y-81550001D02*
X6500000Y-81500000D01*
X11638629Y-81550001D02*
X6550001Y-81550001D01*
X11868630Y-81320000D02*
X11638629Y-81550001D01*
X13000000Y-81320000D02*
X11868630Y-81320000D01*
X6500000Y-87580000D02*
X6500000Y-81500000D01*
X6500000Y-81500000D02*
X6500000Y-75500000D01*
X9260000Y-51960000D02*
X7000000Y-54220000D01*
X7000000Y-54220000D02*
X7000000Y-56800000D01*
X4000000Y-61000000D02*
X5200000Y-61000000D01*
X7000000Y-59200000D02*
X7000000Y-56800000D01*
X5200000Y-61000000D02*
X7000000Y-59200000D01*
X3025000Y-48000000D02*
X4000000Y-48000000D01*
X2424990Y-48600010D02*
X3025000Y-48000000D01*
X2424990Y-59424990D02*
X2424990Y-48600010D01*
X4000000Y-61000000D02*
X2424990Y-59424990D01*
X3025000Y-34000000D02*
X4000000Y-34000000D01*
X2424990Y-34600010D02*
X3025000Y-34000000D01*
X4000000Y-48000000D02*
X2424990Y-46424990D01*
X2424990Y-46424990D02*
X2424990Y-34600010D01*
X11500000Y-47900000D02*
X12520000Y-46880000D01*
X12520000Y-46880000D02*
X22880000Y-46880000D01*
D27*
X19309132Y-12900000D02*
X25600000Y-12900000D01*
X10700012Y-27659988D02*
X10700012Y-21509120D01*
X10700012Y-21509120D02*
X19309132Y-12900000D01*
X9260000Y-29100000D02*
X10700012Y-27659988D01*
X23000000Y-57700000D02*
X17000000Y-51700000D01*
X23000000Y-67732404D02*
X23000000Y-57700000D01*
X26800000Y-70400000D02*
X25667596Y-70400000D01*
X25667596Y-70400000D02*
X23000000Y-67732404D01*
X24500000Y-44340000D02*
X21039998Y-44340000D01*
X21039998Y-44340000D02*
X20999998Y-44300000D01*
X27160012Y-46502402D02*
X27160012Y-45897598D01*
X26530010Y-44817325D02*
X26530010Y-44322351D01*
X26800000Y-46862414D02*
X27160012Y-46502402D01*
X27160012Y-45897598D02*
X26530010Y-45267596D01*
X26800000Y-59800000D02*
X26800000Y-46862414D01*
X27300000Y-60300000D02*
X26800000Y-59800000D01*
X26530010Y-45267596D02*
X26530010Y-44817325D01*
X22639989Y-71039989D02*
X27200000Y-75600000D01*
X22639989Y-58839989D02*
X22639989Y-71039989D01*
X16200000Y-52400000D02*
X22639989Y-58839989D01*
X19148274Y-13569990D02*
X26400000Y-13569990D01*
X11060023Y-27809109D02*
X11060023Y-21658241D01*
X9260000Y-31640000D02*
X11060022Y-29839978D01*
X11060022Y-29839978D02*
X11060023Y-27809109D01*
X11060023Y-21658241D02*
X19148274Y-13569990D01*
X24500000Y-41800000D02*
X21000000Y-41800000D01*
X26430010Y-46300000D02*
X26530010Y-46200000D01*
X27200000Y-65300000D02*
X26430010Y-64530010D01*
X26430010Y-64530010D02*
X26430010Y-46300000D01*
X15300000Y-53100000D02*
X22279978Y-60079978D01*
X22279978Y-77579978D02*
X23000000Y-78300000D01*
X22279978Y-60079978D02*
X22279978Y-77579978D01*
X19027396Y-14200000D02*
X27200000Y-14200000D01*
X11420034Y-21807362D02*
X19027396Y-14200000D01*
X11420033Y-32019967D02*
X11420034Y-21807362D01*
X9260000Y-34180000D02*
X11420033Y-32019967D01*
X24500000Y-39260000D02*
X18560006Y-39260000D01*
X18560006Y-39260000D02*
X18500000Y-39199994D01*
X27780009Y-42249999D02*
X26880009Y-41349999D01*
X27430010Y-55300000D02*
X27780009Y-54950001D01*
X26880009Y-41349999D02*
X26530010Y-41000000D01*
X27780009Y-54950001D02*
X27780009Y-42249999D01*
X7980000Y-38000000D02*
X4000000Y-38000000D01*
X9260000Y-36720000D02*
X7980000Y-38000000D01*
X24500000Y-36720000D02*
X21120004Y-36720000D01*
X21120004Y-36720000D02*
X21100004Y-36700000D01*
X8520000Y-40000000D02*
X9260000Y-39260000D01*
X4000000Y-40000000D02*
X8520000Y-40000000D01*
X24500000Y-34180000D02*
X21080000Y-34180000D01*
X21080000Y-34180000D02*
X21000000Y-34100000D01*
X20360000Y-31640000D02*
X20300000Y-31700000D01*
X24500000Y-31640000D02*
X20360000Y-31640000D01*
X27225000Y-28075000D02*
X27225000Y-17125008D01*
X27225000Y-17125008D02*
X27000000Y-16900008D01*
X25900000Y-48232404D02*
X25949976Y-48282380D01*
X25900000Y-25420000D02*
X25900000Y-48232404D01*
X25949976Y-48282380D02*
X25949976Y-65250024D01*
X24049999Y-67150001D02*
X23700000Y-67500000D01*
X24500000Y-24020000D02*
X25900000Y-25420000D01*
X25949976Y-65250024D02*
X24049999Y-67150001D01*
D29*
X3725000Y-67000000D02*
X4000000Y-67000000D01*
X2799990Y-67925010D02*
X3725000Y-67000000D01*
X2799990Y-82074990D02*
X2799990Y-67925010D01*
X3725000Y-83000000D02*
X2799990Y-82074990D01*
X4000000Y-83000000D02*
X3725000Y-83000000D01*
D27*
X20620000Y-93120000D02*
X22700000Y-91040000D01*
X22700000Y-91040000D02*
X22700000Y-87700000D01*
X20620000Y-94080000D02*
X20620000Y-93120000D01*
X61000000Y-48090000D02*
X60900000Y-47990000D01*
X61000000Y-49500000D02*
X61000000Y-48090000D01*
X60900000Y-47990000D02*
X60900000Y-47500000D01*
X60900000Y-47500000D02*
X56700000Y-47500000D01*
X56700000Y-47500000D02*
X51300000Y-52900000D01*
X49100000Y-52900000D02*
X47700000Y-54300000D01*
X47700000Y-54300000D02*
X47700000Y-56500000D01*
X47700000Y-56500000D02*
X49300000Y-58100000D01*
X49300000Y-58100000D02*
X52300000Y-58100000D01*
X52300000Y-58100000D02*
X56500000Y-53900000D01*
X56500000Y-53900000D02*
X63700000Y-53900000D01*
X63700000Y-53900000D02*
X67200000Y-50400000D01*
X67200000Y-50400000D02*
X67200000Y-48400000D01*
X67200000Y-48400000D02*
X66300000Y-47500000D01*
X66000000Y-47600000D02*
X65900000Y-47500000D01*
X66000000Y-49100000D02*
X66000000Y-47600000D01*
X66300000Y-47500000D02*
X65900000Y-47500000D01*
X50000000Y-55500000D02*
X50000000Y-52900000D01*
X51300000Y-52900000D02*
X50000000Y-52900000D01*
X50000000Y-52900000D02*
X49100000Y-52900000D01*
X61000000Y-29090000D02*
X60900000Y-28990000D01*
X61000000Y-30500000D02*
X61000000Y-29090000D01*
X60900000Y-28990000D02*
X60900000Y-28500000D01*
X60900000Y-28500000D02*
X56400000Y-28500000D01*
X56400000Y-28500000D02*
X51100000Y-33800000D01*
X48600000Y-33800000D02*
X47300000Y-35100000D01*
X47300000Y-35100000D02*
X47300000Y-38000000D01*
X47300000Y-38000000D02*
X48400000Y-39100000D01*
X48400000Y-39100000D02*
X51700000Y-39100000D01*
X51700000Y-39100000D02*
X56100000Y-34700000D01*
X56100000Y-34700000D02*
X63800000Y-34700000D01*
X63800000Y-34700000D02*
X67400000Y-31100000D01*
X67400000Y-31100000D02*
X67400000Y-29500000D01*
X67400000Y-29500000D02*
X66400000Y-28500000D01*
X66000000Y-30100000D02*
X66000000Y-28500000D01*
X66400000Y-28500000D02*
X66000000Y-28500000D01*
X50000000Y-36500000D02*
X50000000Y-33800000D01*
X51100000Y-33800000D02*
X50000000Y-33800000D01*
X50000000Y-33800000D02*
X48600000Y-33800000D01*
D29*
X50000000Y-15000000D02*
X48500000Y-15000000D01*
X48500000Y-15000000D02*
X47500000Y-16000000D01*
X47500000Y-16000000D02*
X47500000Y-19000000D01*
X47500000Y-19000000D02*
X48500000Y-20000000D01*
X48500000Y-20000000D02*
X52500000Y-20000000D01*
X52500000Y-20000000D02*
X56500000Y-16000000D01*
X56500000Y-16000000D02*
X64000000Y-16000000D01*
X64000000Y-16000000D02*
X67500000Y-12500000D01*
X67500000Y-12500000D02*
X67500000Y-10500000D01*
X67500000Y-10500000D02*
X66500000Y-9500000D01*
X66500000Y-9500000D02*
X56500000Y-9500000D01*
X56500000Y-9500000D02*
X51000000Y-15000000D01*
X51000000Y-15000000D02*
X50000000Y-15000000D01*
X50000000Y-15000000D02*
X50000000Y-17500000D01*
X61000000Y-11500000D02*
X61000000Y-9500000D01*
D30*
G36*
X67273000Y-29552606D02*
G01*
X67273000Y-31047394D01*
X63747394Y-34573000D01*
X56100000Y-34573000D01*
X56075224Y-34575440D01*
X56051399Y-34582667D01*
X56029443Y-34594403D01*
X56010197Y-34610197D01*
X51647394Y-38973000D01*
X48452606Y-38973000D01*
X47427000Y-37947394D01*
X47427000Y-35152606D01*
X48652606Y-33927000D01*
X51100000Y-33927000D01*
X51124776Y-33924560D01*
X51148601Y-33917333D01*
X51170557Y-33905597D01*
X51189803Y-33889803D01*
X56452606Y-28627000D01*
X66347394Y-28627000D01*
X67273000Y-29552606D01*
X67273000Y-29552606D01*
G37*
X67273000Y-29552606D02*
X67273000Y-31047394D01*
X63747394Y-34573000D01*
X56100000Y-34573000D01*
X56075224Y-34575440D01*
X56051399Y-34582667D01*
X56029443Y-34594403D01*
X56010197Y-34610197D01*
X51647394Y-38973000D01*
X48452606Y-38973000D01*
X47427000Y-37947394D01*
X47427000Y-35152606D01*
X48652606Y-33927000D01*
X51100000Y-33927000D01*
X51124776Y-33924560D01*
X51148601Y-33917333D01*
X51170557Y-33905597D01*
X51189803Y-33889803D01*
X56452606Y-28627000D01*
X66347394Y-28627000D01*
X67273000Y-29552606D01*
G36*
X67464917Y-10452824D02*
G01*
X67472781Y-12347613D01*
X63948106Y-15872288D01*
X56601716Y-15773012D01*
X56576909Y-15775117D01*
X56552989Y-15782021D01*
X56530876Y-15793460D01*
X56510197Y-15810197D01*
X52546088Y-19774306D01*
X48642986Y-19871681D01*
X47618699Y-18847394D01*
X47618699Y-16052606D01*
X48844305Y-14827000D01*
X51291699Y-14827000D01*
X51316475Y-14824560D01*
X51340300Y-14817333D01*
X51362256Y-14805597D01*
X51381502Y-14789803D01*
X56644305Y-9527000D01*
X66539093Y-9527000D01*
X67464917Y-10452824D01*
X67464917Y-10452824D01*
G37*
X67464917Y-10452824D02*
X67472781Y-12347613D01*
X63948106Y-15872288D01*
X56601716Y-15773012D01*
X56576909Y-15775117D01*
X56552989Y-15782021D01*
X56530876Y-15793460D01*
X56510197Y-15810197D01*
X52546088Y-19774306D01*
X48642986Y-19871681D01*
X47618699Y-18847394D01*
X47618699Y-16052606D01*
X48844305Y-14827000D01*
X51291699Y-14827000D01*
X51316475Y-14824560D01*
X51340300Y-14817333D01*
X51362256Y-14805597D01*
X51381502Y-14789803D01*
X56644305Y-9527000D01*
X66539093Y-9527000D01*
X67464917Y-10452824D01*
G36*
X67573218Y-48552824D02*
G01*
X67581082Y-50447613D01*
X64056407Y-53972288D01*
X56710017Y-53873012D01*
X56685210Y-53875117D01*
X56661290Y-53882021D01*
X56639177Y-53893460D01*
X56618498Y-53910197D01*
X52654389Y-57874306D01*
X48751287Y-57971681D01*
X47727000Y-56947394D01*
X47727000Y-54152606D01*
X48952606Y-52927000D01*
X51400000Y-52927000D01*
X51424776Y-52924560D01*
X51448601Y-52917333D01*
X51470557Y-52905597D01*
X51489803Y-52889803D01*
X56752606Y-47627000D01*
X66647394Y-47627000D01*
X67573218Y-48552824D01*
X67573218Y-48552824D01*
G37*
X67573218Y-48552824D02*
X67581082Y-50447613D01*
X64056407Y-53972288D01*
X56710017Y-53873012D01*
X56685210Y-53875117D01*
X56661290Y-53882021D01*
X56639177Y-53893460D01*
X56618498Y-53910197D01*
X52654389Y-57874306D01*
X48751287Y-57971681D01*
X47727000Y-56947394D01*
X47727000Y-54152606D01*
X48952606Y-52927000D01*
X51400000Y-52927000D01*
X51424776Y-52924560D01*
X51448601Y-52917333D01*
X51470557Y-52905597D01*
X51489803Y-52889803D01*
X56752606Y-47627000D01*
X66647394Y-47627000D01*
X67573218Y-48552824D01*
G36*
X51670189Y-2644376D02*
G01*
X51833850Y-2694022D01*
X51984672Y-2774638D01*
X52028925Y-2810956D01*
X52023155Y-2821751D01*
X51976118Y-2935311D01*
X51919213Y-3122904D01*
X51895234Y-3243452D01*
X51876019Y-3438542D01*
X51873000Y-3500000D01*
X51873000Y-13346356D01*
X50946356Y-14273000D01*
X48791699Y-14273000D01*
X48708395Y-14281205D01*
X48628293Y-14305503D01*
X48554471Y-14344962D01*
X48489764Y-14398065D01*
X48436217Y-14451612D01*
X48391789Y-14455988D01*
X48287737Y-14487552D01*
X48191842Y-14538809D01*
X48107789Y-14607789D01*
X48090508Y-14628846D01*
X47128856Y-15590500D01*
X47107789Y-15607789D01*
X47038809Y-15691842D01*
X46987552Y-15787738D01*
X46955988Y-15891790D01*
X46950929Y-15943158D01*
X46945330Y-16000000D01*
X46948000Y-16027106D01*
X46948001Y-18972884D01*
X46945330Y-19000000D01*
X46955989Y-19108210D01*
X46987552Y-19212262D01*
X46987553Y-19212263D01*
X47038810Y-19308158D01*
X47107790Y-19392211D01*
X47128852Y-19409496D01*
X48090508Y-20371154D01*
X48107789Y-20392211D01*
X48128845Y-20409491D01*
X48128846Y-20409492D01*
X48191842Y-20461191D01*
X48287737Y-20512448D01*
X48391789Y-20544012D01*
X48500000Y-20554670D01*
X48527108Y-20552000D01*
X51873000Y-20552000D01*
X51873000Y-21270934D01*
X47750000Y-21270934D01*
X47666293Y-21279178D01*
X47585804Y-21303595D01*
X47511624Y-21343245D01*
X47446605Y-21396605D01*
X47393245Y-21461624D01*
X47353595Y-21535804D01*
X47329178Y-21616293D01*
X47320934Y-21700000D01*
X47320934Y-24200000D01*
X47329178Y-24283707D01*
X47353595Y-24364196D01*
X47393245Y-24438376D01*
X47446605Y-24503395D01*
X47511624Y-24556755D01*
X47585804Y-24596405D01*
X47666293Y-24620822D01*
X47750000Y-24629066D01*
X51873000Y-24629066D01*
X51873000Y-32309995D01*
X50889995Y-33293000D01*
X50024906Y-33293000D01*
X50000000Y-33290547D01*
X49975095Y-33293000D01*
X48624906Y-33293000D01*
X48600000Y-33290547D01*
X48500610Y-33300336D01*
X48405041Y-33329327D01*
X48316963Y-33376405D01*
X48239762Y-33439762D01*
X48223881Y-33459113D01*
X46959118Y-34723877D01*
X46939762Y-34739762D01*
X46876405Y-34816963D01*
X46829327Y-34905042D01*
X46819756Y-34936594D01*
X46800336Y-35000611D01*
X46790547Y-35100000D01*
X46793000Y-35124906D01*
X46793001Y-37975084D01*
X46790547Y-38000000D01*
X46800336Y-38099389D01*
X46823880Y-38177000D01*
X46829328Y-38194959D01*
X46876406Y-38283037D01*
X46939763Y-38360238D01*
X46959113Y-38376118D01*
X48023881Y-39440887D01*
X48039762Y-39460238D01*
X48116963Y-39523595D01*
X48205041Y-39570673D01*
X48271619Y-39590869D01*
X48300610Y-39599664D01*
X48400000Y-39609453D01*
X48424906Y-39607000D01*
X51675094Y-39607000D01*
X51700000Y-39609453D01*
X51799389Y-39599664D01*
X51873000Y-39577334D01*
X51873000Y-40270934D01*
X47750000Y-40270934D01*
X47666293Y-40279178D01*
X47585804Y-40303595D01*
X47511624Y-40343245D01*
X47446605Y-40396605D01*
X47393245Y-40461624D01*
X47353595Y-40535804D01*
X47329178Y-40616293D01*
X47320934Y-40700000D01*
X47320934Y-43200000D01*
X47329178Y-43283707D01*
X47353595Y-43364196D01*
X47393245Y-43438376D01*
X47446605Y-43503395D01*
X47511624Y-43556755D01*
X47585804Y-43596405D01*
X47666293Y-43620822D01*
X47750000Y-43629066D01*
X51873000Y-43629066D01*
X51873000Y-51609995D01*
X51109995Y-52373000D01*
X48900000Y-52373000D01*
X48816696Y-52381205D01*
X48736594Y-52405503D01*
X48662772Y-52444962D01*
X48598065Y-52498065D01*
X47298065Y-53798065D01*
X47244962Y-53862772D01*
X47205503Y-53936594D01*
X47181205Y-54016696D01*
X47173000Y-54100000D01*
X47173000Y-57000000D01*
X47181205Y-57083304D01*
X47205503Y-57163406D01*
X47244962Y-57237228D01*
X47298065Y-57301935D01*
X48398065Y-58401935D01*
X48471700Y-58460844D01*
X48546484Y-58498449D01*
X48627167Y-58520743D01*
X48710650Y-58526867D01*
X49011795Y-58519354D01*
X49016963Y-58523595D01*
X49074361Y-58554274D01*
X49105040Y-58570673D01*
X49200610Y-58599664D01*
X49300000Y-58609453D01*
X49324906Y-58607000D01*
X51873000Y-58607000D01*
X51873000Y-59270934D01*
X47750000Y-59270934D01*
X47666293Y-59279178D01*
X47585804Y-59303595D01*
X47511624Y-59343245D01*
X47446605Y-59396605D01*
X47393245Y-59461624D01*
X47353595Y-59535804D01*
X47329178Y-59616293D01*
X47320934Y-59700000D01*
X47320934Y-62200000D01*
X47329178Y-62283707D01*
X47353595Y-62364196D01*
X47393245Y-62438376D01*
X47446605Y-62503395D01*
X47511624Y-62556755D01*
X47585804Y-62596405D01*
X47666293Y-62620822D01*
X47750000Y-62629066D01*
X51873000Y-62629066D01*
X51873000Y-66500000D01*
X51876019Y-66561458D01*
X51895234Y-66756548D01*
X51919213Y-66877096D01*
X51976118Y-67064689D01*
X52023155Y-67178249D01*
X52115565Y-67351136D01*
X52183852Y-67453334D01*
X52308215Y-67604871D01*
X52395129Y-67691785D01*
X52546666Y-67816148D01*
X52648864Y-67884435D01*
X52821751Y-67976845D01*
X52935311Y-68023882D01*
X53122904Y-68080787D01*
X53243452Y-68104766D01*
X53438542Y-68123981D01*
X53500000Y-68127000D01*
X79554981Y-68127000D01*
X79657967Y-68137143D01*
X79727364Y-68158194D01*
X79791328Y-68192384D01*
X79871320Y-68258032D01*
X86741968Y-75128680D01*
X86807616Y-75208672D01*
X86841806Y-75272636D01*
X86862857Y-75342033D01*
X86873000Y-75445019D01*
X86873000Y-79969194D01*
X86862857Y-80072180D01*
X86841806Y-80141577D01*
X86807614Y-80205544D01*
X86761606Y-80261606D01*
X86705544Y-80307614D01*
X86641577Y-80341806D01*
X86572180Y-80362857D01*
X86469194Y-80373000D01*
X78399275Y-80373000D01*
X78339816Y-80375826D01*
X78151016Y-80393811D01*
X78034246Y-80416261D01*
X77852236Y-80469567D01*
X77741796Y-80513662D01*
X77573124Y-80600374D01*
X77472998Y-80664527D01*
X77323731Y-80781525D01*
X77278681Y-80820426D01*
X76884856Y-81194559D01*
X76804662Y-81257214D01*
X76741065Y-81289533D01*
X76672448Y-81309048D01*
X76571048Y-81317589D01*
X74020336Y-81285705D01*
X73958357Y-81287998D01*
X73761506Y-81305060D01*
X73639742Y-81327899D01*
X73450088Y-81383333D01*
X73335191Y-81429668D01*
X73160139Y-81521310D01*
X73056595Y-81589331D01*
X72902979Y-81713603D01*
X72814830Y-81800658D01*
X72688648Y-81952709D01*
X72619338Y-82055393D01*
X72525515Y-82229286D01*
X72477748Y-82343596D01*
X72419948Y-82532542D01*
X72395588Y-82654011D01*
X72376067Y-82850633D01*
X72373000Y-82912578D01*
X72373000Y-89000000D01*
X72376019Y-89061458D01*
X72395234Y-89256548D01*
X72419213Y-89377096D01*
X72476118Y-89564689D01*
X72523155Y-89678249D01*
X72615565Y-89851136D01*
X72630174Y-89873000D01*
X34006234Y-89873000D01*
X33829811Y-89855624D01*
X33666150Y-89805978D01*
X33515328Y-89725362D01*
X33383130Y-89616870D01*
X33274638Y-89484672D01*
X33194022Y-89333850D01*
X33144376Y-89170189D01*
X33127000Y-88993766D01*
X33127000Y-82215175D01*
X36789735Y-82215175D01*
X36885490Y-82394351D01*
X37057944Y-82616603D01*
X37270444Y-82800941D01*
X37514823Y-82940280D01*
X37727000Y-82856940D01*
X37727000Y-82003000D01*
X38473000Y-82003000D01*
X38473000Y-82856940D01*
X38685177Y-82940280D01*
X38929556Y-82800941D01*
X39142056Y-82616603D01*
X39314510Y-82394351D01*
X39410265Y-82215175D01*
X39320527Y-82003000D01*
X38473000Y-82003000D01*
X37727000Y-82003000D01*
X36879473Y-82003000D01*
X36789735Y-82215175D01*
X33127000Y-82215175D01*
X33127000Y-77135175D01*
X36789735Y-77135175D01*
X36885490Y-77314351D01*
X37057944Y-77536603D01*
X37270444Y-77720941D01*
X37514823Y-77860280D01*
X37726998Y-77776941D01*
X37726998Y-77920939D01*
X37628176Y-77950916D01*
X37415017Y-78064851D01*
X37228183Y-78218183D01*
X37074851Y-78405017D01*
X36960916Y-78618176D01*
X36890755Y-78849466D01*
X36867064Y-79090000D01*
X36890755Y-79330534D01*
X36960916Y-79561824D01*
X37074851Y-79774983D01*
X37228183Y-79961817D01*
X37415017Y-80115149D01*
X37628176Y-80229084D01*
X37726998Y-80259061D01*
X37726998Y-80403059D01*
X37514823Y-80319720D01*
X37270444Y-80459059D01*
X37057944Y-80643397D01*
X36885490Y-80865649D01*
X36789735Y-81044825D01*
X36879473Y-81257000D01*
X37727000Y-81257000D01*
X37727000Y-81237000D01*
X38473000Y-81237000D01*
X38473000Y-81257000D01*
X39320527Y-81257000D01*
X39410265Y-81044825D01*
X39386310Y-81000000D01*
X43693031Y-81000000D01*
X43712860Y-81201327D01*
X43771585Y-81394917D01*
X43866949Y-81573331D01*
X43995288Y-81729712D01*
X44151669Y-81858051D01*
X44330083Y-81953415D01*
X44523673Y-82012140D01*
X44674549Y-82027000D01*
X45325451Y-82027000D01*
X45476327Y-82012140D01*
X45669917Y-81953415D01*
X45848331Y-81858051D01*
X46004712Y-81729712D01*
X46133051Y-81573331D01*
X46228415Y-81394917D01*
X46287140Y-81201327D01*
X46306969Y-81000000D01*
X51693031Y-81000000D01*
X51712860Y-81201327D01*
X51771585Y-81394917D01*
X51866949Y-81573331D01*
X51995288Y-81729712D01*
X52151669Y-81858051D01*
X52330083Y-81953415D01*
X52523673Y-82012140D01*
X52674549Y-82027000D01*
X53325451Y-82027000D01*
X53476327Y-82012140D01*
X53669917Y-81953415D01*
X53848331Y-81858051D01*
X54004712Y-81729712D01*
X54133051Y-81573331D01*
X54228415Y-81394917D01*
X54287140Y-81201327D01*
X54306969Y-81000000D01*
X59693031Y-81000000D01*
X59712860Y-81201327D01*
X59771585Y-81394917D01*
X59866949Y-81573331D01*
X59995288Y-81729712D01*
X60151669Y-81858051D01*
X60330083Y-81953415D01*
X60523673Y-82012140D01*
X60674549Y-82027000D01*
X61325451Y-82027000D01*
X61476327Y-82012140D01*
X61669917Y-81953415D01*
X61848331Y-81858051D01*
X62004712Y-81729712D01*
X62133051Y-81573331D01*
X62228415Y-81394917D01*
X62287140Y-81201327D01*
X62306969Y-81000000D01*
X62287140Y-80798673D01*
X62281333Y-80779527D01*
X74247974Y-80779527D01*
X74361302Y-81013678D01*
X74668877Y-81109197D01*
X74989178Y-81142875D01*
X75309895Y-81113418D01*
X75618703Y-81021960D01*
X75638698Y-81013678D01*
X75752026Y-80779527D01*
X75000000Y-80027502D01*
X74247974Y-80779527D01*
X62281333Y-80779527D01*
X62228415Y-80605083D01*
X62133051Y-80426669D01*
X62004712Y-80270288D01*
X61848331Y-80141949D01*
X61669917Y-80046585D01*
X61612165Y-80029066D01*
X61625001Y-80029066D01*
X61757480Y-80016018D01*
X61884868Y-79977375D01*
X62002269Y-79914623D01*
X62105172Y-79830172D01*
X62189623Y-79727269D01*
X62252375Y-79609868D01*
X62288986Y-79489178D01*
X73357125Y-79489178D01*
X73386582Y-79809895D01*
X73478040Y-80118703D01*
X73486322Y-80138698D01*
X73720473Y-80252026D01*
X74472498Y-79500000D01*
X75527502Y-79500000D01*
X76279527Y-80252026D01*
X76513678Y-80138698D01*
X76609197Y-79831123D01*
X76642875Y-79510822D01*
X76613418Y-79190105D01*
X76521960Y-78881297D01*
X76513678Y-78861302D01*
X76279527Y-78747974D01*
X75527502Y-79500000D01*
X74472498Y-79500000D01*
X73720473Y-78747974D01*
X73486322Y-78861302D01*
X73390803Y-79168877D01*
X73357125Y-79489178D01*
X62288986Y-79489178D01*
X62291018Y-79482480D01*
X62304066Y-79350001D01*
X62304066Y-78649999D01*
X62291018Y-78517520D01*
X62252375Y-78390132D01*
X62189623Y-78272731D01*
X62146736Y-78220473D01*
X74247974Y-78220473D01*
X75000000Y-78972498D01*
X75752026Y-78220473D01*
X75638698Y-77986322D01*
X75331123Y-77890803D01*
X75010822Y-77857125D01*
X74690105Y-77886582D01*
X74381297Y-77978040D01*
X74361302Y-77986322D01*
X74247974Y-78220473D01*
X62146736Y-78220473D01*
X62105172Y-78169828D01*
X62002269Y-78085377D01*
X61884868Y-78022625D01*
X61757480Y-77983982D01*
X61625001Y-77970934D01*
X60374999Y-77970934D01*
X60242520Y-77983982D01*
X60115132Y-78022625D01*
X59997731Y-78085377D01*
X59894828Y-78169828D01*
X59810377Y-78272731D01*
X59747625Y-78390132D01*
X59708982Y-78517520D01*
X59695934Y-78649999D01*
X59695934Y-79350001D01*
X59708982Y-79482480D01*
X59747625Y-79609868D01*
X59810377Y-79727269D01*
X59894828Y-79830172D01*
X59997731Y-79914623D01*
X60115132Y-79977375D01*
X60242520Y-80016018D01*
X60374999Y-80029066D01*
X60387835Y-80029066D01*
X60330083Y-80046585D01*
X60151669Y-80141949D01*
X59995288Y-80270288D01*
X59866949Y-80426669D01*
X59771585Y-80605083D01*
X59712860Y-80798673D01*
X59693031Y-81000000D01*
X54306969Y-81000000D01*
X54287140Y-80798673D01*
X54228415Y-80605083D01*
X54133051Y-80426669D01*
X54004712Y-80270288D01*
X53848331Y-80141949D01*
X53669917Y-80046585D01*
X53612165Y-80029066D01*
X53625001Y-80029066D01*
X53757480Y-80016018D01*
X53884868Y-79977375D01*
X54002269Y-79914623D01*
X54105172Y-79830172D01*
X54189623Y-79727269D01*
X54252375Y-79609868D01*
X54291018Y-79482480D01*
X54304066Y-79350001D01*
X54304066Y-78649999D01*
X54291018Y-78517520D01*
X54252375Y-78390132D01*
X54189623Y-78272731D01*
X54105172Y-78169828D01*
X54002269Y-78085377D01*
X53884868Y-78022625D01*
X53757480Y-77983982D01*
X53625001Y-77970934D01*
X52374999Y-77970934D01*
X52242520Y-77983982D01*
X52115132Y-78022625D01*
X51997731Y-78085377D01*
X51894828Y-78169828D01*
X51810377Y-78272731D01*
X51747625Y-78390132D01*
X51708982Y-78517520D01*
X51695934Y-78649999D01*
X51695934Y-79350001D01*
X51708982Y-79482480D01*
X51747625Y-79609868D01*
X51810377Y-79727269D01*
X51894828Y-79830172D01*
X51997731Y-79914623D01*
X52115132Y-79977375D01*
X52242520Y-80016018D01*
X52374999Y-80029066D01*
X52387835Y-80029066D01*
X52330083Y-80046585D01*
X52151669Y-80141949D01*
X51995288Y-80270288D01*
X51866949Y-80426669D01*
X51771585Y-80605083D01*
X51712860Y-80798673D01*
X51693031Y-81000000D01*
X46306969Y-81000000D01*
X46287140Y-80798673D01*
X46228415Y-80605083D01*
X46133051Y-80426669D01*
X46004712Y-80270288D01*
X45848331Y-80141949D01*
X45669917Y-80046585D01*
X45612165Y-80029066D01*
X45625001Y-80029066D01*
X45757480Y-80016018D01*
X45884868Y-79977375D01*
X46002269Y-79914623D01*
X46105172Y-79830172D01*
X46189623Y-79727269D01*
X46252375Y-79609868D01*
X46291018Y-79482480D01*
X46304066Y-79350001D01*
X46304066Y-78649999D01*
X46291018Y-78517520D01*
X46252375Y-78390132D01*
X46189623Y-78272731D01*
X46105172Y-78169828D01*
X46002269Y-78085377D01*
X45884868Y-78022625D01*
X45757480Y-77983982D01*
X45625001Y-77970934D01*
X44374999Y-77970934D01*
X44242520Y-77983982D01*
X44115132Y-78022625D01*
X43997731Y-78085377D01*
X43894828Y-78169828D01*
X43810377Y-78272731D01*
X43747625Y-78390132D01*
X43708982Y-78517520D01*
X43695934Y-78649999D01*
X43695934Y-79350001D01*
X43708982Y-79482480D01*
X43747625Y-79609868D01*
X43810377Y-79727269D01*
X43894828Y-79830172D01*
X43997731Y-79914623D01*
X44115132Y-79977375D01*
X44242520Y-80016018D01*
X44374999Y-80029066D01*
X44387835Y-80029066D01*
X44330083Y-80046585D01*
X44151669Y-80141949D01*
X43995288Y-80270288D01*
X43866949Y-80426669D01*
X43771585Y-80605083D01*
X43712860Y-80798673D01*
X43693031Y-81000000D01*
X39386310Y-81000000D01*
X39314510Y-80865649D01*
X39142056Y-80643397D01*
X38929556Y-80459059D01*
X38685177Y-80319720D01*
X38473002Y-80403059D01*
X38473002Y-80259061D01*
X38571824Y-80229084D01*
X38784983Y-80115149D01*
X38971817Y-79961817D01*
X39125149Y-79774983D01*
X39239084Y-79561824D01*
X39309245Y-79330534D01*
X39332936Y-79090000D01*
X39309245Y-78849466D01*
X39239084Y-78618176D01*
X39125149Y-78405017D01*
X38971817Y-78218183D01*
X38784983Y-78064851D01*
X38571824Y-77950916D01*
X38473002Y-77920939D01*
X38473002Y-77776941D01*
X38685177Y-77860280D01*
X38929556Y-77720941D01*
X39142056Y-77536603D01*
X39314510Y-77314351D01*
X39410265Y-77135175D01*
X39320527Y-76923000D01*
X38473000Y-76923000D01*
X38473000Y-76943000D01*
X37727000Y-76943000D01*
X37727000Y-76923000D01*
X36879473Y-76923000D01*
X36789735Y-77135175D01*
X33127000Y-77135175D01*
X33127000Y-72055175D01*
X36789735Y-72055175D01*
X36885490Y-72234351D01*
X37057944Y-72456603D01*
X37270444Y-72640941D01*
X37514823Y-72780280D01*
X37726998Y-72696941D01*
X37726998Y-72840939D01*
X37628176Y-72870916D01*
X37415017Y-72984851D01*
X37228183Y-73138183D01*
X37074851Y-73325017D01*
X36960916Y-73538176D01*
X36890755Y-73769466D01*
X36867064Y-74010000D01*
X36890755Y-74250534D01*
X36960916Y-74481824D01*
X37074851Y-74694983D01*
X37228183Y-74881817D01*
X37415017Y-75035149D01*
X37628176Y-75149084D01*
X37726998Y-75179061D01*
X37726998Y-75323059D01*
X37514823Y-75239720D01*
X37270444Y-75379059D01*
X37057944Y-75563397D01*
X36885490Y-75785649D01*
X36789735Y-75964825D01*
X36879473Y-76177000D01*
X37727000Y-76177000D01*
X37727000Y-76157000D01*
X38473000Y-76157000D01*
X38473000Y-76177000D01*
X39320527Y-76177000D01*
X39410265Y-75964825D01*
X39314510Y-75785649D01*
X39142056Y-75563397D01*
X38929556Y-75379059D01*
X38685177Y-75239720D01*
X38473002Y-75323059D01*
X38473002Y-75179061D01*
X38571824Y-75149084D01*
X38784983Y-75035149D01*
X38971817Y-74881817D01*
X39125149Y-74694983D01*
X39239084Y-74481824D01*
X39309245Y-74250534D01*
X39332936Y-74010000D01*
X39309245Y-73769466D01*
X39239084Y-73538176D01*
X39125149Y-73325017D01*
X38971817Y-73138183D01*
X38784983Y-72984851D01*
X38571824Y-72870916D01*
X38473002Y-72840939D01*
X38473002Y-72696941D01*
X38685177Y-72780280D01*
X38929556Y-72640941D01*
X39142056Y-72456603D01*
X39314510Y-72234351D01*
X39410265Y-72055175D01*
X39320527Y-71843000D01*
X38473000Y-71843000D01*
X38473000Y-71863000D01*
X37727000Y-71863000D01*
X37727000Y-71843000D01*
X36879473Y-71843000D01*
X36789735Y-72055175D01*
X33127000Y-72055175D01*
X33127000Y-70884825D01*
X36789735Y-70884825D01*
X36879473Y-71097000D01*
X37727000Y-71097000D01*
X37727000Y-71077000D01*
X38473000Y-71077000D01*
X38473000Y-71097000D01*
X39320527Y-71097000D01*
X39410265Y-70884825D01*
X39314510Y-70705649D01*
X39142056Y-70483397D01*
X38929556Y-70299059D01*
X38685177Y-70159720D01*
X38473002Y-70243059D01*
X38473002Y-70099061D01*
X38571824Y-70069084D01*
X38784983Y-69955149D01*
X38971817Y-69801817D01*
X39125149Y-69614983D01*
X39239084Y-69401824D01*
X39309245Y-69170534D01*
X39332936Y-68930000D01*
X39309245Y-68689466D01*
X39239084Y-68458176D01*
X39125149Y-68245017D01*
X38971817Y-68058183D01*
X38784983Y-67904851D01*
X38571824Y-67790916D01*
X38340534Y-67720755D01*
X38160268Y-67703000D01*
X38039732Y-67703000D01*
X37859466Y-67720755D01*
X37628176Y-67790916D01*
X37415017Y-67904851D01*
X37228183Y-68058183D01*
X37074851Y-68245017D01*
X36960916Y-68458176D01*
X36890755Y-68689466D01*
X36867064Y-68930000D01*
X36890755Y-69170534D01*
X36960916Y-69401824D01*
X37074851Y-69614983D01*
X37228183Y-69801817D01*
X37415017Y-69955149D01*
X37628176Y-70069084D01*
X37726998Y-70099061D01*
X37726998Y-70243059D01*
X37514823Y-70159720D01*
X37270444Y-70299059D01*
X37057944Y-70483397D01*
X36885490Y-70705649D01*
X36789735Y-70884825D01*
X33127000Y-70884825D01*
X33127000Y-61755175D01*
X36789735Y-61755175D01*
X36885490Y-61934351D01*
X37057944Y-62156603D01*
X37270444Y-62340941D01*
X37514823Y-62480280D01*
X37727000Y-62396940D01*
X37727000Y-61543000D01*
X38473000Y-61543000D01*
X38473000Y-62396940D01*
X38685177Y-62480280D01*
X38929556Y-62340941D01*
X39142056Y-62156603D01*
X39314510Y-61934351D01*
X39410265Y-61755175D01*
X39320527Y-61543000D01*
X38473000Y-61543000D01*
X37727000Y-61543000D01*
X36879473Y-61543000D01*
X36789735Y-61755175D01*
X33127000Y-61755175D01*
X33127000Y-56675175D01*
X36789735Y-56675175D01*
X36885490Y-56854351D01*
X37057944Y-57076603D01*
X37270444Y-57260941D01*
X37514823Y-57400280D01*
X37726998Y-57316941D01*
X37726998Y-57460939D01*
X37628176Y-57490916D01*
X37415017Y-57604851D01*
X37228183Y-57758183D01*
X37074851Y-57945017D01*
X36960916Y-58158176D01*
X36890755Y-58389466D01*
X36867064Y-58630000D01*
X36890755Y-58870534D01*
X36960916Y-59101824D01*
X37074851Y-59314983D01*
X37228183Y-59501817D01*
X37415017Y-59655149D01*
X37628176Y-59769084D01*
X37726998Y-59799061D01*
X37726998Y-59943059D01*
X37514823Y-59859720D01*
X37270444Y-59999059D01*
X37057944Y-60183397D01*
X36885490Y-60405649D01*
X36789735Y-60584825D01*
X36879473Y-60797000D01*
X37727000Y-60797000D01*
X37727000Y-60777000D01*
X38473000Y-60777000D01*
X38473000Y-60797000D01*
X39320527Y-60797000D01*
X39410265Y-60584825D01*
X39314510Y-60405649D01*
X39142056Y-60183397D01*
X38929556Y-59999059D01*
X38685177Y-59859720D01*
X38473002Y-59943059D01*
X38473002Y-59799061D01*
X38571824Y-59769084D01*
X38784983Y-59655149D01*
X38971817Y-59501817D01*
X39125149Y-59314983D01*
X39239084Y-59101824D01*
X39309245Y-58870534D01*
X39332936Y-58630000D01*
X39309245Y-58389466D01*
X39239084Y-58158176D01*
X39125149Y-57945017D01*
X38971817Y-57758183D01*
X38784983Y-57604851D01*
X38571824Y-57490916D01*
X38473002Y-57460939D01*
X38473002Y-57316941D01*
X38685177Y-57400280D01*
X38929556Y-57260941D01*
X39142056Y-57076603D01*
X39314510Y-56854351D01*
X39410265Y-56675175D01*
X39320527Y-56463000D01*
X38473000Y-56463000D01*
X38473000Y-56483000D01*
X37727000Y-56483000D01*
X37727000Y-56463000D01*
X36879473Y-56463000D01*
X36789735Y-56675175D01*
X33127000Y-56675175D01*
X33127000Y-55504825D01*
X36789735Y-55504825D01*
X36879473Y-55717000D01*
X37727000Y-55717000D01*
X37727000Y-55697000D01*
X38473000Y-55697000D01*
X38473000Y-55717000D01*
X39320527Y-55717000D01*
X39410265Y-55504825D01*
X39314510Y-55325649D01*
X39142056Y-55103397D01*
X38929556Y-54919059D01*
X38685177Y-54779720D01*
X38473002Y-54863059D01*
X38473002Y-54719061D01*
X38571824Y-54689084D01*
X38784983Y-54575149D01*
X38971817Y-54421817D01*
X39125149Y-54234983D01*
X39239084Y-54021824D01*
X39309245Y-53790534D01*
X39332936Y-53550000D01*
X39309245Y-53309466D01*
X39239084Y-53078176D01*
X39125149Y-52865017D01*
X38971817Y-52678183D01*
X38784983Y-52524851D01*
X38571824Y-52410916D01*
X38340534Y-52340755D01*
X38160268Y-52323000D01*
X38039732Y-52323000D01*
X37859466Y-52340755D01*
X37628176Y-52410916D01*
X37415017Y-52524851D01*
X37228183Y-52678183D01*
X37074851Y-52865017D01*
X36960916Y-53078176D01*
X36890755Y-53309466D01*
X36867064Y-53550000D01*
X36890755Y-53790534D01*
X36960916Y-54021824D01*
X37074851Y-54234983D01*
X37228183Y-54421817D01*
X37415017Y-54575149D01*
X37628176Y-54689084D01*
X37726998Y-54719061D01*
X37726998Y-54863059D01*
X37514823Y-54779720D01*
X37270444Y-54919059D01*
X37057944Y-55103397D01*
X36885490Y-55325649D01*
X36789735Y-55504825D01*
X33127000Y-55504825D01*
X33127000Y-43075175D01*
X36789735Y-43075175D01*
X36885490Y-43254351D01*
X37057944Y-43476603D01*
X37270444Y-43660941D01*
X37514823Y-43800280D01*
X37727000Y-43716940D01*
X37727000Y-42863000D01*
X38473000Y-42863000D01*
X38473000Y-43716940D01*
X38685177Y-43800280D01*
X38929556Y-43660941D01*
X39142056Y-43476603D01*
X39314510Y-43254351D01*
X39410265Y-43075175D01*
X39320527Y-42863000D01*
X38473000Y-42863000D01*
X37727000Y-42863000D01*
X36879473Y-42863000D01*
X36789735Y-43075175D01*
X33127000Y-43075175D01*
X33127000Y-37995175D01*
X36789735Y-37995175D01*
X36885490Y-38174351D01*
X37057944Y-38396603D01*
X37270444Y-38580941D01*
X37514823Y-38720280D01*
X37726998Y-38636941D01*
X37726998Y-38780939D01*
X37628176Y-38810916D01*
X37415017Y-38924851D01*
X37228183Y-39078183D01*
X37074851Y-39265017D01*
X36960916Y-39478176D01*
X36890755Y-39709466D01*
X36867064Y-39950000D01*
X36890755Y-40190534D01*
X36960916Y-40421824D01*
X37074851Y-40634983D01*
X37228183Y-40821817D01*
X37415017Y-40975149D01*
X37628176Y-41089084D01*
X37726998Y-41119061D01*
X37726998Y-41263059D01*
X37514823Y-41179720D01*
X37270444Y-41319059D01*
X37057944Y-41503397D01*
X36885490Y-41725649D01*
X36789735Y-41904825D01*
X36879473Y-42117000D01*
X37727000Y-42117000D01*
X37727000Y-42097000D01*
X38473000Y-42097000D01*
X38473000Y-42117000D01*
X39320527Y-42117000D01*
X39410265Y-41904825D01*
X39314510Y-41725649D01*
X39142056Y-41503397D01*
X38929556Y-41319059D01*
X38685177Y-41179720D01*
X38473002Y-41263059D01*
X38473002Y-41119061D01*
X38571824Y-41089084D01*
X38784983Y-40975149D01*
X38971817Y-40821817D01*
X39125149Y-40634983D01*
X39239084Y-40421824D01*
X39309245Y-40190534D01*
X39332936Y-39950000D01*
X39309245Y-39709466D01*
X39239084Y-39478176D01*
X39125149Y-39265017D01*
X38971817Y-39078183D01*
X38784983Y-38924851D01*
X38571824Y-38810916D01*
X38473002Y-38780939D01*
X38473002Y-38636941D01*
X38685177Y-38720280D01*
X38929556Y-38580941D01*
X39142056Y-38396603D01*
X39314510Y-38174351D01*
X39410265Y-37995175D01*
X39320527Y-37783000D01*
X38473000Y-37783000D01*
X38473000Y-37803000D01*
X37727000Y-37803000D01*
X37727000Y-37783000D01*
X36879473Y-37783000D01*
X36789735Y-37995175D01*
X33127000Y-37995175D01*
X33127000Y-36824825D01*
X36789735Y-36824825D01*
X36879473Y-37037000D01*
X37727000Y-37037000D01*
X37727000Y-37017000D01*
X38473000Y-37017000D01*
X38473000Y-37037000D01*
X39320527Y-37037000D01*
X39410265Y-36824825D01*
X39314510Y-36645649D01*
X39142056Y-36423397D01*
X38929556Y-36239059D01*
X38685177Y-36099720D01*
X38473002Y-36183059D01*
X38473002Y-36039061D01*
X38571824Y-36009084D01*
X38784983Y-35895149D01*
X38971817Y-35741817D01*
X39125149Y-35554983D01*
X39239084Y-35341824D01*
X39309245Y-35110534D01*
X39332936Y-34870000D01*
X39309245Y-34629466D01*
X39239084Y-34398176D01*
X39125149Y-34185017D01*
X38971817Y-33998183D01*
X38784983Y-33844851D01*
X38571824Y-33730916D01*
X38340534Y-33660755D01*
X38160268Y-33643000D01*
X38039732Y-33643000D01*
X37859466Y-33660755D01*
X37628176Y-33730916D01*
X37415017Y-33844851D01*
X37228183Y-33998183D01*
X37074851Y-34185017D01*
X36960916Y-34398176D01*
X36890755Y-34629466D01*
X36867064Y-34870000D01*
X36890755Y-35110534D01*
X36960916Y-35341824D01*
X37074851Y-35554983D01*
X37228183Y-35741817D01*
X37415017Y-35895149D01*
X37628176Y-36009084D01*
X37726998Y-36039061D01*
X37726998Y-36183059D01*
X37514823Y-36099720D01*
X37270444Y-36239059D01*
X37057944Y-36423397D01*
X36885490Y-36645649D01*
X36789735Y-36824825D01*
X33127000Y-36824825D01*
X33127000Y-24715175D01*
X36789735Y-24715175D01*
X36885490Y-24894351D01*
X37057944Y-25116603D01*
X37270444Y-25300941D01*
X37514823Y-25440280D01*
X37727000Y-25356940D01*
X37727000Y-24503000D01*
X38473000Y-24503000D01*
X38473000Y-25356940D01*
X38685177Y-25440280D01*
X38929556Y-25300941D01*
X39142056Y-25116603D01*
X39314510Y-24894351D01*
X39410265Y-24715175D01*
X39320527Y-24503000D01*
X38473000Y-24503000D01*
X37727000Y-24503000D01*
X36879473Y-24503000D01*
X36789735Y-24715175D01*
X33127000Y-24715175D01*
X33127000Y-19635175D01*
X36789735Y-19635175D01*
X36885490Y-19814351D01*
X37057944Y-20036603D01*
X37270444Y-20220941D01*
X37514823Y-20360280D01*
X37726998Y-20276941D01*
X37726998Y-20420939D01*
X37628176Y-20450916D01*
X37415017Y-20564851D01*
X37228183Y-20718183D01*
X37074851Y-20905017D01*
X36960916Y-21118176D01*
X36890755Y-21349466D01*
X36867064Y-21590000D01*
X36890755Y-21830534D01*
X36960916Y-22061824D01*
X37074851Y-22274983D01*
X37228183Y-22461817D01*
X37415017Y-22615149D01*
X37628176Y-22729084D01*
X37726998Y-22759061D01*
X37726998Y-22903059D01*
X37514823Y-22819720D01*
X37270444Y-22959059D01*
X37057944Y-23143397D01*
X36885490Y-23365649D01*
X36789735Y-23544825D01*
X36879473Y-23757000D01*
X37727000Y-23757000D01*
X37727000Y-23737000D01*
X38473000Y-23737000D01*
X38473000Y-23757000D01*
X39320527Y-23757000D01*
X39410265Y-23544825D01*
X39314510Y-23365649D01*
X39142056Y-23143397D01*
X38929556Y-22959059D01*
X38685177Y-22819720D01*
X38473002Y-22903059D01*
X38473002Y-22759061D01*
X38571824Y-22729084D01*
X38784983Y-22615149D01*
X38971817Y-22461817D01*
X39125149Y-22274983D01*
X39239084Y-22061824D01*
X39309245Y-21830534D01*
X39332936Y-21590000D01*
X39309245Y-21349466D01*
X39239084Y-21118176D01*
X39125149Y-20905017D01*
X38971817Y-20718183D01*
X38784983Y-20564851D01*
X38571824Y-20450916D01*
X38473002Y-20420939D01*
X38473002Y-20276941D01*
X38685177Y-20360280D01*
X38929556Y-20220941D01*
X39142056Y-20036603D01*
X39314510Y-19814351D01*
X39410265Y-19635175D01*
X39320527Y-19423000D01*
X38473000Y-19423000D01*
X38473000Y-19443000D01*
X37727000Y-19443000D01*
X37727000Y-19423000D01*
X36879473Y-19423000D01*
X36789735Y-19635175D01*
X33127000Y-19635175D01*
X33127000Y-18464825D01*
X36789735Y-18464825D01*
X36879473Y-18677000D01*
X37727000Y-18677000D01*
X37727000Y-18657000D01*
X38473000Y-18657000D01*
X38473000Y-18677000D01*
X39320527Y-18677000D01*
X39410265Y-18464825D01*
X39314510Y-18285649D01*
X39142056Y-18063397D01*
X38929556Y-17879059D01*
X38685177Y-17739720D01*
X38473002Y-17823059D01*
X38473002Y-17679061D01*
X38571824Y-17649084D01*
X38784983Y-17535149D01*
X38971817Y-17381817D01*
X39125149Y-17194983D01*
X39239084Y-16981824D01*
X39309245Y-16750534D01*
X39332936Y-16510000D01*
X39309245Y-16269466D01*
X39239084Y-16038176D01*
X39125149Y-15825017D01*
X38971817Y-15638183D01*
X38784983Y-15484851D01*
X38571824Y-15370916D01*
X38340534Y-15300755D01*
X38160268Y-15283000D01*
X38039732Y-15283000D01*
X37859466Y-15300755D01*
X37628176Y-15370916D01*
X37415017Y-15484851D01*
X37228183Y-15638183D01*
X37074851Y-15825017D01*
X36960916Y-16038176D01*
X36890755Y-16269466D01*
X36867064Y-16510000D01*
X36890755Y-16750534D01*
X36960916Y-16981824D01*
X37074851Y-17194983D01*
X37228183Y-17381817D01*
X37415017Y-17535149D01*
X37628176Y-17649084D01*
X37726998Y-17679061D01*
X37726998Y-17823059D01*
X37514823Y-17739720D01*
X37270444Y-17879059D01*
X37057944Y-18063397D01*
X36885490Y-18285649D01*
X36789735Y-18464825D01*
X33127000Y-18464825D01*
X33127000Y-3506234D01*
X33144376Y-3329811D01*
X33194022Y-3166150D01*
X33274638Y-3015328D01*
X33383130Y-2883130D01*
X33515328Y-2774638D01*
X33666150Y-2694022D01*
X33829811Y-2644376D01*
X34006234Y-2627000D01*
X51493766Y-2627000D01*
X51670189Y-2644376D01*
X51670189Y-2644376D01*
G37*
X51670189Y-2644376D02*
X51833850Y-2694022D01*
X51984672Y-2774638D01*
X52028925Y-2810956D01*
X52023155Y-2821751D01*
X51976118Y-2935311D01*
X51919213Y-3122904D01*
X51895234Y-3243452D01*
X51876019Y-3438542D01*
X51873000Y-3500000D01*
X51873000Y-13346356D01*
X50946356Y-14273000D01*
X48791699Y-14273000D01*
X48708395Y-14281205D01*
X48628293Y-14305503D01*
X48554471Y-14344962D01*
X48489764Y-14398065D01*
X48436217Y-14451612D01*
X48391789Y-14455988D01*
X48287737Y-14487552D01*
X48191842Y-14538809D01*
X48107789Y-14607789D01*
X48090508Y-14628846D01*
X47128856Y-15590500D01*
X47107789Y-15607789D01*
X47038809Y-15691842D01*
X46987552Y-15787738D01*
X46955988Y-15891790D01*
X46950929Y-15943158D01*
X46945330Y-16000000D01*
X46948000Y-16027106D01*
X46948001Y-18972884D01*
X46945330Y-19000000D01*
X46955989Y-19108210D01*
X46987552Y-19212262D01*
X46987553Y-19212263D01*
X47038810Y-19308158D01*
X47107790Y-19392211D01*
X47128852Y-19409496D01*
X48090508Y-20371154D01*
X48107789Y-20392211D01*
X48128845Y-20409491D01*
X48128846Y-20409492D01*
X48191842Y-20461191D01*
X48287737Y-20512448D01*
X48391789Y-20544012D01*
X48500000Y-20554670D01*
X48527108Y-20552000D01*
X51873000Y-20552000D01*
X51873000Y-21270934D01*
X47750000Y-21270934D01*
X47666293Y-21279178D01*
X47585804Y-21303595D01*
X47511624Y-21343245D01*
X47446605Y-21396605D01*
X47393245Y-21461624D01*
X47353595Y-21535804D01*
X47329178Y-21616293D01*
X47320934Y-21700000D01*
X47320934Y-24200000D01*
X47329178Y-24283707D01*
X47353595Y-24364196D01*
X47393245Y-24438376D01*
X47446605Y-24503395D01*
X47511624Y-24556755D01*
X47585804Y-24596405D01*
X47666293Y-24620822D01*
X47750000Y-24629066D01*
X51873000Y-24629066D01*
X51873000Y-32309995D01*
X50889995Y-33293000D01*
X50024906Y-33293000D01*
X50000000Y-33290547D01*
X49975095Y-33293000D01*
X48624906Y-33293000D01*
X48600000Y-33290547D01*
X48500610Y-33300336D01*
X48405041Y-33329327D01*
X48316963Y-33376405D01*
X48239762Y-33439762D01*
X48223881Y-33459113D01*
X46959118Y-34723877D01*
X46939762Y-34739762D01*
X46876405Y-34816963D01*
X46829327Y-34905042D01*
X46819756Y-34936594D01*
X46800336Y-35000611D01*
X46790547Y-35100000D01*
X46793000Y-35124906D01*
X46793001Y-37975084D01*
X46790547Y-38000000D01*
X46800336Y-38099389D01*
X46823880Y-38177000D01*
X46829328Y-38194959D01*
X46876406Y-38283037D01*
X46939763Y-38360238D01*
X46959113Y-38376118D01*
X48023881Y-39440887D01*
X48039762Y-39460238D01*
X48116963Y-39523595D01*
X48205041Y-39570673D01*
X48271619Y-39590869D01*
X48300610Y-39599664D01*
X48400000Y-39609453D01*
X48424906Y-39607000D01*
X51675094Y-39607000D01*
X51700000Y-39609453D01*
X51799389Y-39599664D01*
X51873000Y-39577334D01*
X51873000Y-40270934D01*
X47750000Y-40270934D01*
X47666293Y-40279178D01*
X47585804Y-40303595D01*
X47511624Y-40343245D01*
X47446605Y-40396605D01*
X47393245Y-40461624D01*
X47353595Y-40535804D01*
X47329178Y-40616293D01*
X47320934Y-40700000D01*
X47320934Y-43200000D01*
X47329178Y-43283707D01*
X47353595Y-43364196D01*
X47393245Y-43438376D01*
X47446605Y-43503395D01*
X47511624Y-43556755D01*
X47585804Y-43596405D01*
X47666293Y-43620822D01*
X47750000Y-43629066D01*
X51873000Y-43629066D01*
X51873000Y-51609995D01*
X51109995Y-52373000D01*
X48900000Y-52373000D01*
X48816696Y-52381205D01*
X48736594Y-52405503D01*
X48662772Y-52444962D01*
X48598065Y-52498065D01*
X47298065Y-53798065D01*
X47244962Y-53862772D01*
X47205503Y-53936594D01*
X47181205Y-54016696D01*
X47173000Y-54100000D01*
X47173000Y-57000000D01*
X47181205Y-57083304D01*
X47205503Y-57163406D01*
X47244962Y-57237228D01*
X47298065Y-57301935D01*
X48398065Y-58401935D01*
X48471700Y-58460844D01*
X48546484Y-58498449D01*
X48627167Y-58520743D01*
X48710650Y-58526867D01*
X49011795Y-58519354D01*
X49016963Y-58523595D01*
X49074361Y-58554274D01*
X49105040Y-58570673D01*
X49200610Y-58599664D01*
X49300000Y-58609453D01*
X49324906Y-58607000D01*
X51873000Y-58607000D01*
X51873000Y-59270934D01*
X47750000Y-59270934D01*
X47666293Y-59279178D01*
X47585804Y-59303595D01*
X47511624Y-59343245D01*
X47446605Y-59396605D01*
X47393245Y-59461624D01*
X47353595Y-59535804D01*
X47329178Y-59616293D01*
X47320934Y-59700000D01*
X47320934Y-62200000D01*
X47329178Y-62283707D01*
X47353595Y-62364196D01*
X47393245Y-62438376D01*
X47446605Y-62503395D01*
X47511624Y-62556755D01*
X47585804Y-62596405D01*
X47666293Y-62620822D01*
X47750000Y-62629066D01*
X51873000Y-62629066D01*
X51873000Y-66500000D01*
X51876019Y-66561458D01*
X51895234Y-66756548D01*
X51919213Y-66877096D01*
X51976118Y-67064689D01*
X52023155Y-67178249D01*
X52115565Y-67351136D01*
X52183852Y-67453334D01*
X52308215Y-67604871D01*
X52395129Y-67691785D01*
X52546666Y-67816148D01*
X52648864Y-67884435D01*
X52821751Y-67976845D01*
X52935311Y-68023882D01*
X53122904Y-68080787D01*
X53243452Y-68104766D01*
X53438542Y-68123981D01*
X53500000Y-68127000D01*
X79554981Y-68127000D01*
X79657967Y-68137143D01*
X79727364Y-68158194D01*
X79791328Y-68192384D01*
X79871320Y-68258032D01*
X86741968Y-75128680D01*
X86807616Y-75208672D01*
X86841806Y-75272636D01*
X86862857Y-75342033D01*
X86873000Y-75445019D01*
X86873000Y-79969194D01*
X86862857Y-80072180D01*
X86841806Y-80141577D01*
X86807614Y-80205544D01*
X86761606Y-80261606D01*
X86705544Y-80307614D01*
X86641577Y-80341806D01*
X86572180Y-80362857D01*
X86469194Y-80373000D01*
X78399275Y-80373000D01*
X78339816Y-80375826D01*
X78151016Y-80393811D01*
X78034246Y-80416261D01*
X77852236Y-80469567D01*
X77741796Y-80513662D01*
X77573124Y-80600374D01*
X77472998Y-80664527D01*
X77323731Y-80781525D01*
X77278681Y-80820426D01*
X76884856Y-81194559D01*
X76804662Y-81257214D01*
X76741065Y-81289533D01*
X76672448Y-81309048D01*
X76571048Y-81317589D01*
X74020336Y-81285705D01*
X73958357Y-81287998D01*
X73761506Y-81305060D01*
X73639742Y-81327899D01*
X73450088Y-81383333D01*
X73335191Y-81429668D01*
X73160139Y-81521310D01*
X73056595Y-81589331D01*
X72902979Y-81713603D01*
X72814830Y-81800658D01*
X72688648Y-81952709D01*
X72619338Y-82055393D01*
X72525515Y-82229286D01*
X72477748Y-82343596D01*
X72419948Y-82532542D01*
X72395588Y-82654011D01*
X72376067Y-82850633D01*
X72373000Y-82912578D01*
X72373000Y-89000000D01*
X72376019Y-89061458D01*
X72395234Y-89256548D01*
X72419213Y-89377096D01*
X72476118Y-89564689D01*
X72523155Y-89678249D01*
X72615565Y-89851136D01*
X72630174Y-89873000D01*
X34006234Y-89873000D01*
X33829811Y-89855624D01*
X33666150Y-89805978D01*
X33515328Y-89725362D01*
X33383130Y-89616870D01*
X33274638Y-89484672D01*
X33194022Y-89333850D01*
X33144376Y-89170189D01*
X33127000Y-88993766D01*
X33127000Y-82215175D01*
X36789735Y-82215175D01*
X36885490Y-82394351D01*
X37057944Y-82616603D01*
X37270444Y-82800941D01*
X37514823Y-82940280D01*
X37727000Y-82856940D01*
X37727000Y-82003000D01*
X38473000Y-82003000D01*
X38473000Y-82856940D01*
X38685177Y-82940280D01*
X38929556Y-82800941D01*
X39142056Y-82616603D01*
X39314510Y-82394351D01*
X39410265Y-82215175D01*
X39320527Y-82003000D01*
X38473000Y-82003000D01*
X37727000Y-82003000D01*
X36879473Y-82003000D01*
X36789735Y-82215175D01*
X33127000Y-82215175D01*
X33127000Y-77135175D01*
X36789735Y-77135175D01*
X36885490Y-77314351D01*
X37057944Y-77536603D01*
X37270444Y-77720941D01*
X37514823Y-77860280D01*
X37726998Y-77776941D01*
X37726998Y-77920939D01*
X37628176Y-77950916D01*
X37415017Y-78064851D01*
X37228183Y-78218183D01*
X37074851Y-78405017D01*
X36960916Y-78618176D01*
X36890755Y-78849466D01*
X36867064Y-79090000D01*
X36890755Y-79330534D01*
X36960916Y-79561824D01*
X37074851Y-79774983D01*
X37228183Y-79961817D01*
X37415017Y-80115149D01*
X37628176Y-80229084D01*
X37726998Y-80259061D01*
X37726998Y-80403059D01*
X37514823Y-80319720D01*
X37270444Y-80459059D01*
X37057944Y-80643397D01*
X36885490Y-80865649D01*
X36789735Y-81044825D01*
X36879473Y-81257000D01*
X37727000Y-81257000D01*
X37727000Y-81237000D01*
X38473000Y-81237000D01*
X38473000Y-81257000D01*
X39320527Y-81257000D01*
X39410265Y-81044825D01*
X39386310Y-81000000D01*
X43693031Y-81000000D01*
X43712860Y-81201327D01*
X43771585Y-81394917D01*
X43866949Y-81573331D01*
X43995288Y-81729712D01*
X44151669Y-81858051D01*
X44330083Y-81953415D01*
X44523673Y-82012140D01*
X44674549Y-82027000D01*
X45325451Y-82027000D01*
X45476327Y-82012140D01*
X45669917Y-81953415D01*
X45848331Y-81858051D01*
X46004712Y-81729712D01*
X46133051Y-81573331D01*
X46228415Y-81394917D01*
X46287140Y-81201327D01*
X46306969Y-81000000D01*
X51693031Y-81000000D01*
X51712860Y-81201327D01*
X51771585Y-81394917D01*
X51866949Y-81573331D01*
X51995288Y-81729712D01*
X52151669Y-81858051D01*
X52330083Y-81953415D01*
X52523673Y-82012140D01*
X52674549Y-82027000D01*
X53325451Y-82027000D01*
X53476327Y-82012140D01*
X53669917Y-81953415D01*
X53848331Y-81858051D01*
X54004712Y-81729712D01*
X54133051Y-81573331D01*
X54228415Y-81394917D01*
X54287140Y-81201327D01*
X54306969Y-81000000D01*
X59693031Y-81000000D01*
X59712860Y-81201327D01*
X59771585Y-81394917D01*
X59866949Y-81573331D01*
X59995288Y-81729712D01*
X60151669Y-81858051D01*
X60330083Y-81953415D01*
X60523673Y-82012140D01*
X60674549Y-82027000D01*
X61325451Y-82027000D01*
X61476327Y-82012140D01*
X61669917Y-81953415D01*
X61848331Y-81858051D01*
X62004712Y-81729712D01*
X62133051Y-81573331D01*
X62228415Y-81394917D01*
X62287140Y-81201327D01*
X62306969Y-81000000D01*
X62287140Y-80798673D01*
X62281333Y-80779527D01*
X74247974Y-80779527D01*
X74361302Y-81013678D01*
X74668877Y-81109197D01*
X74989178Y-81142875D01*
X75309895Y-81113418D01*
X75618703Y-81021960D01*
X75638698Y-81013678D01*
X75752026Y-80779527D01*
X75000000Y-80027502D01*
X74247974Y-80779527D01*
X62281333Y-80779527D01*
X62228415Y-80605083D01*
X62133051Y-80426669D01*
X62004712Y-80270288D01*
X61848331Y-80141949D01*
X61669917Y-80046585D01*
X61612165Y-80029066D01*
X61625001Y-80029066D01*
X61757480Y-80016018D01*
X61884868Y-79977375D01*
X62002269Y-79914623D01*
X62105172Y-79830172D01*
X62189623Y-79727269D01*
X62252375Y-79609868D01*
X62288986Y-79489178D01*
X73357125Y-79489178D01*
X73386582Y-79809895D01*
X73478040Y-80118703D01*
X73486322Y-80138698D01*
X73720473Y-80252026D01*
X74472498Y-79500000D01*
X75527502Y-79500000D01*
X76279527Y-80252026D01*
X76513678Y-80138698D01*
X76609197Y-79831123D01*
X76642875Y-79510822D01*
X76613418Y-79190105D01*
X76521960Y-78881297D01*
X76513678Y-78861302D01*
X76279527Y-78747974D01*
X75527502Y-79500000D01*
X74472498Y-79500000D01*
X73720473Y-78747974D01*
X73486322Y-78861302D01*
X73390803Y-79168877D01*
X73357125Y-79489178D01*
X62288986Y-79489178D01*
X62291018Y-79482480D01*
X62304066Y-79350001D01*
X62304066Y-78649999D01*
X62291018Y-78517520D01*
X62252375Y-78390132D01*
X62189623Y-78272731D01*
X62146736Y-78220473D01*
X74247974Y-78220473D01*
X75000000Y-78972498D01*
X75752026Y-78220473D01*
X75638698Y-77986322D01*
X75331123Y-77890803D01*
X75010822Y-77857125D01*
X74690105Y-77886582D01*
X74381297Y-77978040D01*
X74361302Y-77986322D01*
X74247974Y-78220473D01*
X62146736Y-78220473D01*
X62105172Y-78169828D01*
X62002269Y-78085377D01*
X61884868Y-78022625D01*
X61757480Y-77983982D01*
X61625001Y-77970934D01*
X60374999Y-77970934D01*
X60242520Y-77983982D01*
X60115132Y-78022625D01*
X59997731Y-78085377D01*
X59894828Y-78169828D01*
X59810377Y-78272731D01*
X59747625Y-78390132D01*
X59708982Y-78517520D01*
X59695934Y-78649999D01*
X59695934Y-79350001D01*
X59708982Y-79482480D01*
X59747625Y-79609868D01*
X59810377Y-79727269D01*
X59894828Y-79830172D01*
X59997731Y-79914623D01*
X60115132Y-79977375D01*
X60242520Y-80016018D01*
X60374999Y-80029066D01*
X60387835Y-80029066D01*
X60330083Y-80046585D01*
X60151669Y-80141949D01*
X59995288Y-80270288D01*
X59866949Y-80426669D01*
X59771585Y-80605083D01*
X59712860Y-80798673D01*
X59693031Y-81000000D01*
X54306969Y-81000000D01*
X54287140Y-80798673D01*
X54228415Y-80605083D01*
X54133051Y-80426669D01*
X54004712Y-80270288D01*
X53848331Y-80141949D01*
X53669917Y-80046585D01*
X53612165Y-80029066D01*
X53625001Y-80029066D01*
X53757480Y-80016018D01*
X53884868Y-79977375D01*
X54002269Y-79914623D01*
X54105172Y-79830172D01*
X54189623Y-79727269D01*
X54252375Y-79609868D01*
X54291018Y-79482480D01*
X54304066Y-79350001D01*
X54304066Y-78649999D01*
X54291018Y-78517520D01*
X54252375Y-78390132D01*
X54189623Y-78272731D01*
X54105172Y-78169828D01*
X54002269Y-78085377D01*
X53884868Y-78022625D01*
X53757480Y-77983982D01*
X53625001Y-77970934D01*
X52374999Y-77970934D01*
X52242520Y-77983982D01*
X52115132Y-78022625D01*
X51997731Y-78085377D01*
X51894828Y-78169828D01*
X51810377Y-78272731D01*
X51747625Y-78390132D01*
X51708982Y-78517520D01*
X51695934Y-78649999D01*
X51695934Y-79350001D01*
X51708982Y-79482480D01*
X51747625Y-79609868D01*
X51810377Y-79727269D01*
X51894828Y-79830172D01*
X51997731Y-79914623D01*
X52115132Y-79977375D01*
X52242520Y-80016018D01*
X52374999Y-80029066D01*
X52387835Y-80029066D01*
X52330083Y-80046585D01*
X52151669Y-80141949D01*
X51995288Y-80270288D01*
X51866949Y-80426669D01*
X51771585Y-80605083D01*
X51712860Y-80798673D01*
X51693031Y-81000000D01*
X46306969Y-81000000D01*
X46287140Y-80798673D01*
X46228415Y-80605083D01*
X46133051Y-80426669D01*
X46004712Y-80270288D01*
X45848331Y-80141949D01*
X45669917Y-80046585D01*
X45612165Y-80029066D01*
X45625001Y-80029066D01*
X45757480Y-80016018D01*
X45884868Y-79977375D01*
X46002269Y-79914623D01*
X46105172Y-79830172D01*
X46189623Y-79727269D01*
X46252375Y-79609868D01*
X46291018Y-79482480D01*
X46304066Y-79350001D01*
X46304066Y-78649999D01*
X46291018Y-78517520D01*
X46252375Y-78390132D01*
X46189623Y-78272731D01*
X46105172Y-78169828D01*
X46002269Y-78085377D01*
X45884868Y-78022625D01*
X45757480Y-77983982D01*
X45625001Y-77970934D01*
X44374999Y-77970934D01*
X44242520Y-77983982D01*
X44115132Y-78022625D01*
X43997731Y-78085377D01*
X43894828Y-78169828D01*
X43810377Y-78272731D01*
X43747625Y-78390132D01*
X43708982Y-78517520D01*
X43695934Y-78649999D01*
X43695934Y-79350001D01*
X43708982Y-79482480D01*
X43747625Y-79609868D01*
X43810377Y-79727269D01*
X43894828Y-79830172D01*
X43997731Y-79914623D01*
X44115132Y-79977375D01*
X44242520Y-80016018D01*
X44374999Y-80029066D01*
X44387835Y-80029066D01*
X44330083Y-80046585D01*
X44151669Y-80141949D01*
X43995288Y-80270288D01*
X43866949Y-80426669D01*
X43771585Y-80605083D01*
X43712860Y-80798673D01*
X43693031Y-81000000D01*
X39386310Y-81000000D01*
X39314510Y-80865649D01*
X39142056Y-80643397D01*
X38929556Y-80459059D01*
X38685177Y-80319720D01*
X38473002Y-80403059D01*
X38473002Y-80259061D01*
X38571824Y-80229084D01*
X38784983Y-80115149D01*
X38971817Y-79961817D01*
X39125149Y-79774983D01*
X39239084Y-79561824D01*
X39309245Y-79330534D01*
X39332936Y-79090000D01*
X39309245Y-78849466D01*
X39239084Y-78618176D01*
X39125149Y-78405017D01*
X38971817Y-78218183D01*
X38784983Y-78064851D01*
X38571824Y-77950916D01*
X38473002Y-77920939D01*
X38473002Y-77776941D01*
X38685177Y-77860280D01*
X38929556Y-77720941D01*
X39142056Y-77536603D01*
X39314510Y-77314351D01*
X39410265Y-77135175D01*
X39320527Y-76923000D01*
X38473000Y-76923000D01*
X38473000Y-76943000D01*
X37727000Y-76943000D01*
X37727000Y-76923000D01*
X36879473Y-76923000D01*
X36789735Y-77135175D01*
X33127000Y-77135175D01*
X33127000Y-72055175D01*
X36789735Y-72055175D01*
X36885490Y-72234351D01*
X37057944Y-72456603D01*
X37270444Y-72640941D01*
X37514823Y-72780280D01*
X37726998Y-72696941D01*
X37726998Y-72840939D01*
X37628176Y-72870916D01*
X37415017Y-72984851D01*
X37228183Y-73138183D01*
X37074851Y-73325017D01*
X36960916Y-73538176D01*
X36890755Y-73769466D01*
X36867064Y-74010000D01*
X36890755Y-74250534D01*
X36960916Y-74481824D01*
X37074851Y-74694983D01*
X37228183Y-74881817D01*
X37415017Y-75035149D01*
X37628176Y-75149084D01*
X37726998Y-75179061D01*
X37726998Y-75323059D01*
X37514823Y-75239720D01*
X37270444Y-75379059D01*
X37057944Y-75563397D01*
X36885490Y-75785649D01*
X36789735Y-75964825D01*
X36879473Y-76177000D01*
X37727000Y-76177000D01*
X37727000Y-76157000D01*
X38473000Y-76157000D01*
X38473000Y-76177000D01*
X39320527Y-76177000D01*
X39410265Y-75964825D01*
X39314510Y-75785649D01*
X39142056Y-75563397D01*
X38929556Y-75379059D01*
X38685177Y-75239720D01*
X38473002Y-75323059D01*
X38473002Y-75179061D01*
X38571824Y-75149084D01*
X38784983Y-75035149D01*
X38971817Y-74881817D01*
X39125149Y-74694983D01*
X39239084Y-74481824D01*
X39309245Y-74250534D01*
X39332936Y-74010000D01*
X39309245Y-73769466D01*
X39239084Y-73538176D01*
X39125149Y-73325017D01*
X38971817Y-73138183D01*
X38784983Y-72984851D01*
X38571824Y-72870916D01*
X38473002Y-72840939D01*
X38473002Y-72696941D01*
X38685177Y-72780280D01*
X38929556Y-72640941D01*
X39142056Y-72456603D01*
X39314510Y-72234351D01*
X39410265Y-72055175D01*
X39320527Y-71843000D01*
X38473000Y-71843000D01*
X38473000Y-71863000D01*
X37727000Y-71863000D01*
X37727000Y-71843000D01*
X36879473Y-71843000D01*
X36789735Y-72055175D01*
X33127000Y-72055175D01*
X33127000Y-70884825D01*
X36789735Y-70884825D01*
X36879473Y-71097000D01*
X37727000Y-71097000D01*
X37727000Y-71077000D01*
X38473000Y-71077000D01*
X38473000Y-71097000D01*
X39320527Y-71097000D01*
X39410265Y-70884825D01*
X39314510Y-70705649D01*
X39142056Y-70483397D01*
X38929556Y-70299059D01*
X38685177Y-70159720D01*
X38473002Y-70243059D01*
X38473002Y-70099061D01*
X38571824Y-70069084D01*
X38784983Y-69955149D01*
X38971817Y-69801817D01*
X39125149Y-69614983D01*
X39239084Y-69401824D01*
X39309245Y-69170534D01*
X39332936Y-68930000D01*
X39309245Y-68689466D01*
X39239084Y-68458176D01*
X39125149Y-68245017D01*
X38971817Y-68058183D01*
X38784983Y-67904851D01*
X38571824Y-67790916D01*
X38340534Y-67720755D01*
X38160268Y-67703000D01*
X38039732Y-67703000D01*
X37859466Y-67720755D01*
X37628176Y-67790916D01*
X37415017Y-67904851D01*
X37228183Y-68058183D01*
X37074851Y-68245017D01*
X36960916Y-68458176D01*
X36890755Y-68689466D01*
X36867064Y-68930000D01*
X36890755Y-69170534D01*
X36960916Y-69401824D01*
X37074851Y-69614983D01*
X37228183Y-69801817D01*
X37415017Y-69955149D01*
X37628176Y-70069084D01*
X37726998Y-70099061D01*
X37726998Y-70243059D01*
X37514823Y-70159720D01*
X37270444Y-70299059D01*
X37057944Y-70483397D01*
X36885490Y-70705649D01*
X36789735Y-70884825D01*
X33127000Y-70884825D01*
X33127000Y-61755175D01*
X36789735Y-61755175D01*
X36885490Y-61934351D01*
X37057944Y-62156603D01*
X37270444Y-62340941D01*
X37514823Y-62480280D01*
X37727000Y-62396940D01*
X37727000Y-61543000D01*
X38473000Y-61543000D01*
X38473000Y-62396940D01*
X38685177Y-62480280D01*
X38929556Y-62340941D01*
X39142056Y-62156603D01*
X39314510Y-61934351D01*
X39410265Y-61755175D01*
X39320527Y-61543000D01*
X38473000Y-61543000D01*
X37727000Y-61543000D01*
X36879473Y-61543000D01*
X36789735Y-61755175D01*
X33127000Y-61755175D01*
X33127000Y-56675175D01*
X36789735Y-56675175D01*
X36885490Y-56854351D01*
X37057944Y-57076603D01*
X37270444Y-57260941D01*
X37514823Y-57400280D01*
X37726998Y-57316941D01*
X37726998Y-57460939D01*
X37628176Y-57490916D01*
X37415017Y-57604851D01*
X37228183Y-57758183D01*
X37074851Y-57945017D01*
X36960916Y-58158176D01*
X36890755Y-58389466D01*
X36867064Y-58630000D01*
X36890755Y-58870534D01*
X36960916Y-59101824D01*
X37074851Y-59314983D01*
X37228183Y-59501817D01*
X37415017Y-59655149D01*
X37628176Y-59769084D01*
X37726998Y-59799061D01*
X37726998Y-59943059D01*
X37514823Y-59859720D01*
X37270444Y-59999059D01*
X37057944Y-60183397D01*
X36885490Y-60405649D01*
X36789735Y-60584825D01*
X36879473Y-60797000D01*
X37727000Y-60797000D01*
X37727000Y-60777000D01*
X38473000Y-60777000D01*
X38473000Y-60797000D01*
X39320527Y-60797000D01*
X39410265Y-60584825D01*
X39314510Y-60405649D01*
X39142056Y-60183397D01*
X38929556Y-59999059D01*
X38685177Y-59859720D01*
X38473002Y-59943059D01*
X38473002Y-59799061D01*
X38571824Y-59769084D01*
X38784983Y-59655149D01*
X38971817Y-59501817D01*
X39125149Y-59314983D01*
X39239084Y-59101824D01*
X39309245Y-58870534D01*
X39332936Y-58630000D01*
X39309245Y-58389466D01*
X39239084Y-58158176D01*
X39125149Y-57945017D01*
X38971817Y-57758183D01*
X38784983Y-57604851D01*
X38571824Y-57490916D01*
X38473002Y-57460939D01*
X38473002Y-57316941D01*
X38685177Y-57400280D01*
X38929556Y-57260941D01*
X39142056Y-57076603D01*
X39314510Y-56854351D01*
X39410265Y-56675175D01*
X39320527Y-56463000D01*
X38473000Y-56463000D01*
X38473000Y-56483000D01*
X37727000Y-56483000D01*
X37727000Y-56463000D01*
X36879473Y-56463000D01*
X36789735Y-56675175D01*
X33127000Y-56675175D01*
X33127000Y-55504825D01*
X36789735Y-55504825D01*
X36879473Y-55717000D01*
X37727000Y-55717000D01*
X37727000Y-55697000D01*
X38473000Y-55697000D01*
X38473000Y-55717000D01*
X39320527Y-55717000D01*
X39410265Y-55504825D01*
X39314510Y-55325649D01*
X39142056Y-55103397D01*
X38929556Y-54919059D01*
X38685177Y-54779720D01*
X38473002Y-54863059D01*
X38473002Y-54719061D01*
X38571824Y-54689084D01*
X38784983Y-54575149D01*
X38971817Y-54421817D01*
X39125149Y-54234983D01*
X39239084Y-54021824D01*
X39309245Y-53790534D01*
X39332936Y-53550000D01*
X39309245Y-53309466D01*
X39239084Y-53078176D01*
X39125149Y-52865017D01*
X38971817Y-52678183D01*
X38784983Y-52524851D01*
X38571824Y-52410916D01*
X38340534Y-52340755D01*
X38160268Y-52323000D01*
X38039732Y-52323000D01*
X37859466Y-52340755D01*
X37628176Y-52410916D01*
X37415017Y-52524851D01*
X37228183Y-52678183D01*
X37074851Y-52865017D01*
X36960916Y-53078176D01*
X36890755Y-53309466D01*
X36867064Y-53550000D01*
X36890755Y-53790534D01*
X36960916Y-54021824D01*
X37074851Y-54234983D01*
X37228183Y-54421817D01*
X37415017Y-54575149D01*
X37628176Y-54689084D01*
X37726998Y-54719061D01*
X37726998Y-54863059D01*
X37514823Y-54779720D01*
X37270444Y-54919059D01*
X37057944Y-55103397D01*
X36885490Y-55325649D01*
X36789735Y-55504825D01*
X33127000Y-55504825D01*
X33127000Y-43075175D01*
X36789735Y-43075175D01*
X36885490Y-43254351D01*
X37057944Y-43476603D01*
X37270444Y-43660941D01*
X37514823Y-43800280D01*
X37727000Y-43716940D01*
X37727000Y-42863000D01*
X38473000Y-42863000D01*
X38473000Y-43716940D01*
X38685177Y-43800280D01*
X38929556Y-43660941D01*
X39142056Y-43476603D01*
X39314510Y-43254351D01*
X39410265Y-43075175D01*
X39320527Y-42863000D01*
X38473000Y-42863000D01*
X37727000Y-42863000D01*
X36879473Y-42863000D01*
X36789735Y-43075175D01*
X33127000Y-43075175D01*
X33127000Y-37995175D01*
X36789735Y-37995175D01*
X36885490Y-38174351D01*
X37057944Y-38396603D01*
X37270444Y-38580941D01*
X37514823Y-38720280D01*
X37726998Y-38636941D01*
X37726998Y-38780939D01*
X37628176Y-38810916D01*
X37415017Y-38924851D01*
X37228183Y-39078183D01*
X37074851Y-39265017D01*
X36960916Y-39478176D01*
X36890755Y-39709466D01*
X36867064Y-39950000D01*
X36890755Y-40190534D01*
X36960916Y-40421824D01*
X37074851Y-40634983D01*
X37228183Y-40821817D01*
X37415017Y-40975149D01*
X37628176Y-41089084D01*
X37726998Y-41119061D01*
X37726998Y-41263059D01*
X37514823Y-41179720D01*
X37270444Y-41319059D01*
X37057944Y-41503397D01*
X36885490Y-41725649D01*
X36789735Y-41904825D01*
X36879473Y-42117000D01*
X37727000Y-42117000D01*
X37727000Y-42097000D01*
X38473000Y-42097000D01*
X38473000Y-42117000D01*
X39320527Y-42117000D01*
X39410265Y-41904825D01*
X39314510Y-41725649D01*
X39142056Y-41503397D01*
X38929556Y-41319059D01*
X38685177Y-41179720D01*
X38473002Y-41263059D01*
X38473002Y-41119061D01*
X38571824Y-41089084D01*
X38784983Y-40975149D01*
X38971817Y-40821817D01*
X39125149Y-40634983D01*
X39239084Y-40421824D01*
X39309245Y-40190534D01*
X39332936Y-39950000D01*
X39309245Y-39709466D01*
X39239084Y-39478176D01*
X39125149Y-39265017D01*
X38971817Y-39078183D01*
X38784983Y-38924851D01*
X38571824Y-38810916D01*
X38473002Y-38780939D01*
X38473002Y-38636941D01*
X38685177Y-38720280D01*
X38929556Y-38580941D01*
X39142056Y-38396603D01*
X39314510Y-38174351D01*
X39410265Y-37995175D01*
X39320527Y-37783000D01*
X38473000Y-37783000D01*
X38473000Y-37803000D01*
X37727000Y-37803000D01*
X37727000Y-37783000D01*
X36879473Y-37783000D01*
X36789735Y-37995175D01*
X33127000Y-37995175D01*
X33127000Y-36824825D01*
X36789735Y-36824825D01*
X36879473Y-37037000D01*
X37727000Y-37037000D01*
X37727000Y-37017000D01*
X38473000Y-37017000D01*
X38473000Y-37037000D01*
X39320527Y-37037000D01*
X39410265Y-36824825D01*
X39314510Y-36645649D01*
X39142056Y-36423397D01*
X38929556Y-36239059D01*
X38685177Y-36099720D01*
X38473002Y-36183059D01*
X38473002Y-36039061D01*
X38571824Y-36009084D01*
X38784983Y-35895149D01*
X38971817Y-35741817D01*
X39125149Y-35554983D01*
X39239084Y-35341824D01*
X39309245Y-35110534D01*
X39332936Y-34870000D01*
X39309245Y-34629466D01*
X39239084Y-34398176D01*
X39125149Y-34185017D01*
X38971817Y-33998183D01*
X38784983Y-33844851D01*
X38571824Y-33730916D01*
X38340534Y-33660755D01*
X38160268Y-33643000D01*
X38039732Y-33643000D01*
X37859466Y-33660755D01*
X37628176Y-33730916D01*
X37415017Y-33844851D01*
X37228183Y-33998183D01*
X37074851Y-34185017D01*
X36960916Y-34398176D01*
X36890755Y-34629466D01*
X36867064Y-34870000D01*
X36890755Y-35110534D01*
X36960916Y-35341824D01*
X37074851Y-35554983D01*
X37228183Y-35741817D01*
X37415017Y-35895149D01*
X37628176Y-36009084D01*
X37726998Y-36039061D01*
X37726998Y-36183059D01*
X37514823Y-36099720D01*
X37270444Y-36239059D01*
X37057944Y-36423397D01*
X36885490Y-36645649D01*
X36789735Y-36824825D01*
X33127000Y-36824825D01*
X33127000Y-24715175D01*
X36789735Y-24715175D01*
X36885490Y-24894351D01*
X37057944Y-25116603D01*
X37270444Y-25300941D01*
X37514823Y-25440280D01*
X37727000Y-25356940D01*
X37727000Y-24503000D01*
X38473000Y-24503000D01*
X38473000Y-25356940D01*
X38685177Y-25440280D01*
X38929556Y-25300941D01*
X39142056Y-25116603D01*
X39314510Y-24894351D01*
X39410265Y-24715175D01*
X39320527Y-24503000D01*
X38473000Y-24503000D01*
X37727000Y-24503000D01*
X36879473Y-24503000D01*
X36789735Y-24715175D01*
X33127000Y-24715175D01*
X33127000Y-19635175D01*
X36789735Y-19635175D01*
X36885490Y-19814351D01*
X37057944Y-20036603D01*
X37270444Y-20220941D01*
X37514823Y-20360280D01*
X37726998Y-20276941D01*
X37726998Y-20420939D01*
X37628176Y-20450916D01*
X37415017Y-20564851D01*
X37228183Y-20718183D01*
X37074851Y-20905017D01*
X36960916Y-21118176D01*
X36890755Y-21349466D01*
X36867064Y-21590000D01*
X36890755Y-21830534D01*
X36960916Y-22061824D01*
X37074851Y-22274983D01*
X37228183Y-22461817D01*
X37415017Y-22615149D01*
X37628176Y-22729084D01*
X37726998Y-22759061D01*
X37726998Y-22903059D01*
X37514823Y-22819720D01*
X37270444Y-22959059D01*
X37057944Y-23143397D01*
X36885490Y-23365649D01*
X36789735Y-23544825D01*
X36879473Y-23757000D01*
X37727000Y-23757000D01*
X37727000Y-23737000D01*
X38473000Y-23737000D01*
X38473000Y-23757000D01*
X39320527Y-23757000D01*
X39410265Y-23544825D01*
X39314510Y-23365649D01*
X39142056Y-23143397D01*
X38929556Y-22959059D01*
X38685177Y-22819720D01*
X38473002Y-22903059D01*
X38473002Y-22759061D01*
X38571824Y-22729084D01*
X38784983Y-22615149D01*
X38971817Y-22461817D01*
X39125149Y-22274983D01*
X39239084Y-22061824D01*
X39309245Y-21830534D01*
X39332936Y-21590000D01*
X39309245Y-21349466D01*
X39239084Y-21118176D01*
X39125149Y-20905017D01*
X38971817Y-20718183D01*
X38784983Y-20564851D01*
X38571824Y-20450916D01*
X38473002Y-20420939D01*
X38473002Y-20276941D01*
X38685177Y-20360280D01*
X38929556Y-20220941D01*
X39142056Y-20036603D01*
X39314510Y-19814351D01*
X39410265Y-19635175D01*
X39320527Y-19423000D01*
X38473000Y-19423000D01*
X38473000Y-19443000D01*
X37727000Y-19443000D01*
X37727000Y-19423000D01*
X36879473Y-19423000D01*
X36789735Y-19635175D01*
X33127000Y-19635175D01*
X33127000Y-18464825D01*
X36789735Y-18464825D01*
X36879473Y-18677000D01*
X37727000Y-18677000D01*
X37727000Y-18657000D01*
X38473000Y-18657000D01*
X38473000Y-18677000D01*
X39320527Y-18677000D01*
X39410265Y-18464825D01*
X39314510Y-18285649D01*
X39142056Y-18063397D01*
X38929556Y-17879059D01*
X38685177Y-17739720D01*
X38473002Y-17823059D01*
X38473002Y-17679061D01*
X38571824Y-17649084D01*
X38784983Y-17535149D01*
X38971817Y-17381817D01*
X39125149Y-17194983D01*
X39239084Y-16981824D01*
X39309245Y-16750534D01*
X39332936Y-16510000D01*
X39309245Y-16269466D01*
X39239084Y-16038176D01*
X39125149Y-15825017D01*
X38971817Y-15638183D01*
X38784983Y-15484851D01*
X38571824Y-15370916D01*
X38340534Y-15300755D01*
X38160268Y-15283000D01*
X38039732Y-15283000D01*
X37859466Y-15300755D01*
X37628176Y-15370916D01*
X37415017Y-15484851D01*
X37228183Y-15638183D01*
X37074851Y-15825017D01*
X36960916Y-16038176D01*
X36890755Y-16269466D01*
X36867064Y-16510000D01*
X36890755Y-16750534D01*
X36960916Y-16981824D01*
X37074851Y-17194983D01*
X37228183Y-17381817D01*
X37415017Y-17535149D01*
X37628176Y-17649084D01*
X37726998Y-17679061D01*
X37726998Y-17823059D01*
X37514823Y-17739720D01*
X37270444Y-17879059D01*
X37057944Y-18063397D01*
X36885490Y-18285649D01*
X36789735Y-18464825D01*
X33127000Y-18464825D01*
X33127000Y-3506234D01*
X33144376Y-3329811D01*
X33194022Y-3166150D01*
X33274638Y-3015328D01*
X33383130Y-2883130D01*
X33515328Y-2774638D01*
X33666150Y-2694022D01*
X33829811Y-2644376D01*
X34006234Y-2627000D01*
X51493766Y-2627000D01*
X51670189Y-2644376D01*
G36*
X96670189Y-2644376D02*
G01*
X96833850Y-2694022D01*
X96984672Y-2774638D01*
X97116870Y-2883130D01*
X97225362Y-3015328D01*
X97305978Y-3166150D01*
X97355624Y-3329811D01*
X97373000Y-3506234D01*
X97373000Y-88993766D01*
X97355624Y-89170189D01*
X97305978Y-89333850D01*
X97225362Y-89484672D01*
X97116870Y-89616870D01*
X96984672Y-89725362D01*
X96833850Y-89805978D01*
X96670189Y-89855624D01*
X96493766Y-89873000D01*
X96074437Y-89873000D01*
X96339093Y-89763376D01*
X96646518Y-89557961D01*
X96907961Y-89296518D01*
X97113376Y-88989093D01*
X97254868Y-88647501D01*
X97327000Y-88284868D01*
X97327000Y-87915132D01*
X97254868Y-87552499D01*
X97113376Y-87210907D01*
X96907961Y-86903482D01*
X96646518Y-86642039D01*
X96339093Y-86436624D01*
X95997501Y-86295132D01*
X95634868Y-86223000D01*
X95265132Y-86223000D01*
X94902499Y-86295132D01*
X94560907Y-86436624D01*
X94253482Y-86642039D01*
X93992039Y-86903482D01*
X93786624Y-87210907D01*
X93645132Y-87552499D01*
X93573000Y-87915132D01*
X93573000Y-88284868D01*
X93645132Y-88647501D01*
X93786624Y-88989093D01*
X93992039Y-89296518D01*
X94253482Y-89557961D01*
X94560907Y-89763376D01*
X94825563Y-89873000D01*
X74006234Y-89873000D01*
X73829811Y-89855624D01*
X73666150Y-89805978D01*
X73515328Y-89725362D01*
X73383130Y-89616870D01*
X73274638Y-89484672D01*
X73194022Y-89333850D01*
X73144376Y-89170189D01*
X73127000Y-88993766D01*
X73127000Y-85500000D01*
X73361928Y-85500000D01*
X73374188Y-85624482D01*
X73410498Y-85744180D01*
X73469463Y-85854494D01*
X73548815Y-85951185D01*
X73645506Y-86030537D01*
X73755820Y-86089502D01*
X73875518Y-86125812D01*
X74000000Y-86138072D01*
X74468250Y-86135000D01*
X74627000Y-85976250D01*
X74627000Y-84873000D01*
X75373000Y-84873000D01*
X75373000Y-85976250D01*
X75531750Y-86135000D01*
X76000000Y-86138072D01*
X76124482Y-86125812D01*
X76244180Y-86089502D01*
X76354494Y-86030537D01*
X76451185Y-85951185D01*
X76530537Y-85854494D01*
X76589502Y-85744180D01*
X76625812Y-85624482D01*
X76638072Y-85500000D01*
X76635000Y-85031750D01*
X76476250Y-84873000D01*
X75373000Y-84873000D01*
X74627000Y-84873000D01*
X73523750Y-84873000D01*
X73365000Y-85031750D01*
X73361928Y-85500000D01*
X73127000Y-85500000D01*
X73127000Y-83500000D01*
X73361928Y-83500000D01*
X73365000Y-83968250D01*
X73523750Y-84127000D01*
X74627000Y-84127000D01*
X74627000Y-83023750D01*
X75373000Y-83023750D01*
X75373000Y-84127000D01*
X76476250Y-84127000D01*
X76635000Y-83968250D01*
X76638072Y-83500000D01*
X76625812Y-83375518D01*
X76589502Y-83255820D01*
X76530537Y-83145506D01*
X76451185Y-83048815D01*
X76354494Y-82969463D01*
X76244180Y-82910498D01*
X76124482Y-82874188D01*
X76000000Y-82861928D01*
X75531750Y-82865000D01*
X75373000Y-83023750D01*
X74627000Y-83023750D01*
X74468250Y-82865000D01*
X74000000Y-82861928D01*
X73875518Y-82874188D01*
X73755820Y-82910498D01*
X73645506Y-82969463D01*
X73548815Y-83048815D01*
X73469463Y-83145506D01*
X73410498Y-83255820D01*
X73374188Y-83375518D01*
X73361928Y-83500000D01*
X73127000Y-83500000D01*
X73127000Y-82918870D01*
X73144654Y-82741050D01*
X73195079Y-82576214D01*
X73276924Y-82424520D01*
X73387005Y-82291871D01*
X73521015Y-82183460D01*
X73673724Y-82103515D01*
X73839176Y-82055155D01*
X74017205Y-82039725D01*
X76591905Y-82071909D01*
X76604152Y-82071471D01*
X76796238Y-82055291D01*
X76820321Y-82050894D01*
X77005733Y-81998160D01*
X77028525Y-81989225D01*
X77200375Y-81901895D01*
X77221029Y-81888752D01*
X77372930Y-81770073D01*
X77382212Y-81762071D01*
X77793624Y-81371230D01*
X77928615Y-81265422D01*
X78075772Y-81189770D01*
X78234558Y-81143266D01*
X78405313Y-81127000D01*
X86500000Y-81127000D01*
X86512448Y-81126388D01*
X86707538Y-81107173D01*
X86731956Y-81102317D01*
X86919549Y-81045412D01*
X86942550Y-81035884D01*
X87115437Y-80943474D01*
X87136138Y-80929642D01*
X87287675Y-80805279D01*
X87305279Y-80787675D01*
X87429642Y-80636138D01*
X87443474Y-80615437D01*
X87535884Y-80442550D01*
X87545412Y-80419549D01*
X87602317Y-80231956D01*
X87607173Y-80207538D01*
X87626388Y-80012448D01*
X87627000Y-80000000D01*
X87627000Y-75414214D01*
X87626388Y-75401766D01*
X87607173Y-75206675D01*
X87602317Y-75182257D01*
X87545412Y-74994664D01*
X87535884Y-74971663D01*
X87443474Y-74798776D01*
X87429642Y-74778075D01*
X87305279Y-74626539D01*
X87296910Y-74617304D01*
X87194738Y-74515132D01*
X93573000Y-74515132D01*
X93573000Y-74884868D01*
X93645132Y-75247501D01*
X93786624Y-75589093D01*
X93992039Y-75896518D01*
X94253482Y-76157961D01*
X94560907Y-76363376D01*
X94902499Y-76504868D01*
X95265132Y-76577000D01*
X95634868Y-76577000D01*
X95997501Y-76504868D01*
X96339093Y-76363376D01*
X96646518Y-76157961D01*
X96907961Y-75896518D01*
X97113376Y-75589093D01*
X97254868Y-75247501D01*
X97327000Y-74884868D01*
X97327000Y-74515132D01*
X97254868Y-74152499D01*
X97113376Y-73810907D01*
X96907961Y-73503482D01*
X96646518Y-73242039D01*
X96339093Y-73036624D01*
X95997501Y-72895132D01*
X95634868Y-72823000D01*
X95265132Y-72823000D01*
X94902499Y-72895132D01*
X94560907Y-73036624D01*
X94253482Y-73242039D01*
X93992039Y-73503482D01*
X93786624Y-73810907D01*
X93645132Y-74152499D01*
X93573000Y-74515132D01*
X87194738Y-74515132D01*
X80965088Y-68285482D01*
X80941828Y-68229327D01*
X80763773Y-67962848D01*
X80537152Y-67736227D01*
X80270673Y-67558172D01*
X79974578Y-67435525D01*
X79881379Y-67416986D01*
X79817743Y-67397683D01*
X79793325Y-67392827D01*
X79727160Y-67386310D01*
X79660245Y-67373000D01*
X53506234Y-67373000D01*
X53329811Y-67355624D01*
X53166150Y-67305978D01*
X53015328Y-67225362D01*
X52883130Y-67116870D01*
X52774638Y-66984672D01*
X52694022Y-66833850D01*
X52644376Y-66670189D01*
X52627000Y-66493766D01*
X52627000Y-62701718D01*
X52695501Y-62645501D01*
X52773853Y-62550028D01*
X52832075Y-62441103D01*
X52867927Y-62322913D01*
X52880033Y-62200000D01*
X52880033Y-60799604D01*
X56473000Y-60799604D01*
X56473000Y-61100396D01*
X56531681Y-61395410D01*
X56646790Y-61673306D01*
X56813901Y-61923406D01*
X57026594Y-62136099D01*
X57276694Y-62303210D01*
X57554590Y-62418319D01*
X57849604Y-62477000D01*
X58150396Y-62477000D01*
X58445410Y-62418319D01*
X58723306Y-62303210D01*
X58943714Y-62155938D01*
X61821564Y-62155938D01*
X61922056Y-62380057D01*
X62212152Y-62465331D01*
X62513308Y-62492370D01*
X62813955Y-62460138D01*
X62962318Y-62415132D01*
X93573000Y-62415132D01*
X93573000Y-62784868D01*
X93645132Y-63147501D01*
X93786624Y-63489093D01*
X93992039Y-63796518D01*
X94253482Y-64057961D01*
X94560907Y-64263376D01*
X94902499Y-64404868D01*
X95265132Y-64477000D01*
X95634868Y-64477000D01*
X95997501Y-64404868D01*
X96339093Y-64263376D01*
X96646518Y-64057961D01*
X96907961Y-63796518D01*
X97113376Y-63489093D01*
X97254868Y-63147501D01*
X97327000Y-62784868D01*
X97327000Y-62415132D01*
X97254868Y-62052499D01*
X97113376Y-61710907D01*
X96907961Y-61403482D01*
X96646518Y-61142039D01*
X96339093Y-60936624D01*
X95997501Y-60795132D01*
X95634868Y-60723000D01*
X95265132Y-60723000D01*
X94902499Y-60795132D01*
X94560907Y-60936624D01*
X94253482Y-61142039D01*
X93992039Y-61403482D01*
X93786624Y-61710907D01*
X93645132Y-62052499D01*
X93573000Y-62415132D01*
X62962318Y-62415132D01*
X63077944Y-62380057D01*
X63178436Y-62155938D01*
X62500000Y-61477502D01*
X61821564Y-62155938D01*
X58943714Y-62155938D01*
X58973406Y-62136099D01*
X59186099Y-61923406D01*
X59353210Y-61673306D01*
X59468319Y-61395410D01*
X59527000Y-61100396D01*
X59527000Y-60963308D01*
X60957630Y-60963308D01*
X60989862Y-61263955D01*
X61069943Y-61527944D01*
X61294062Y-61628436D01*
X61972498Y-60950000D01*
X63027502Y-60950000D01*
X63705938Y-61628436D01*
X63930057Y-61527944D01*
X64015331Y-61237848D01*
X64042370Y-60936692D01*
X64010138Y-60636045D01*
X63930057Y-60372056D01*
X63705938Y-60271564D01*
X63027502Y-60950000D01*
X61972498Y-60950000D01*
X61294062Y-60271564D01*
X61069943Y-60372056D01*
X60984669Y-60662152D01*
X60957630Y-60963308D01*
X59527000Y-60963308D01*
X59527000Y-60799604D01*
X59468319Y-60504590D01*
X59353210Y-60226694D01*
X59186099Y-59976594D01*
X58973406Y-59763901D01*
X58943715Y-59744062D01*
X61821564Y-59744062D01*
X62500000Y-60422498D01*
X62896738Y-60025760D01*
X65101742Y-60025760D01*
X65240366Y-60280133D01*
X65582739Y-60396047D01*
X65941148Y-60442940D01*
X66301819Y-60419010D01*
X66650890Y-60325176D01*
X66759634Y-60280133D01*
X66898258Y-60025760D01*
X66000000Y-59127502D01*
X65101742Y-60025760D01*
X62896738Y-60025760D01*
X63178436Y-59744062D01*
X63077944Y-59519943D01*
X62787848Y-59434669D01*
X62486692Y-59407630D01*
X62186045Y-59439862D01*
X61922056Y-59519943D01*
X61821564Y-59744062D01*
X58943715Y-59744062D01*
X58723306Y-59596790D01*
X58445410Y-59481681D01*
X58150396Y-59423000D01*
X57849604Y-59423000D01*
X57554590Y-59481681D01*
X57276694Y-59596790D01*
X57026594Y-59763901D01*
X56813901Y-59976594D01*
X56646790Y-60226694D01*
X56531681Y-60504590D01*
X56473000Y-60799604D01*
X52880033Y-60799604D01*
X52880033Y-59700000D01*
X52867927Y-59577087D01*
X52832075Y-59458897D01*
X52773853Y-59349972D01*
X52695501Y-59254499D01*
X52627000Y-59198282D01*
X52627000Y-58726873D01*
X52694688Y-58690693D01*
X52780145Y-58620560D01*
X52830623Y-58614952D01*
X52948244Y-58579272D01*
X53056644Y-58521331D01*
X53151657Y-58443356D01*
X53773000Y-57822013D01*
X53773000Y-57909491D01*
X53854739Y-58320423D01*
X54015077Y-58707512D01*
X54247851Y-59055884D01*
X54544116Y-59352149D01*
X54892488Y-59584923D01*
X55279577Y-59745261D01*
X55690509Y-59827000D01*
X56109491Y-59827000D01*
X56520423Y-59745261D01*
X56907512Y-59584923D01*
X57255884Y-59352149D01*
X57552149Y-59055884D01*
X57784923Y-58707512D01*
X57853833Y-58541148D01*
X64157060Y-58541148D01*
X64180990Y-58901819D01*
X64274824Y-59250890D01*
X64319867Y-59359634D01*
X64574240Y-59498258D01*
X65472498Y-58600000D01*
X66527502Y-58600000D01*
X67425760Y-59498258D01*
X67680133Y-59359634D01*
X67796047Y-59017261D01*
X67842940Y-58658852D01*
X67819010Y-58298181D01*
X67725176Y-57949110D01*
X67680133Y-57840366D01*
X67425760Y-57701742D01*
X66527502Y-58600000D01*
X65472498Y-58600000D01*
X64574240Y-57701742D01*
X64319867Y-57840366D01*
X64203953Y-58182739D01*
X64157060Y-58541148D01*
X57853833Y-58541148D01*
X57945261Y-58320423D01*
X58027000Y-57909491D01*
X58027000Y-57550000D01*
X58711928Y-57550000D01*
X58724188Y-57674482D01*
X58760498Y-57794180D01*
X58819463Y-57904494D01*
X58898815Y-58001185D01*
X58995506Y-58080537D01*
X59105820Y-58139502D01*
X59225518Y-58175812D01*
X59350000Y-58188072D01*
X60468250Y-58185000D01*
X60627000Y-58026250D01*
X60627000Y-56673000D01*
X61373000Y-56673000D01*
X61373000Y-58026250D01*
X61531750Y-58185000D01*
X62650000Y-58188072D01*
X62774482Y-58175812D01*
X62894180Y-58139502D01*
X63004494Y-58080537D01*
X63101185Y-58001185D01*
X63180537Y-57904494D01*
X63239502Y-57794180D01*
X63275812Y-57674482D01*
X63288072Y-57550000D01*
X63286465Y-57174240D01*
X65101742Y-57174240D01*
X66000000Y-58072498D01*
X66898258Y-57174240D01*
X66759634Y-56919867D01*
X66417261Y-56803953D01*
X66058852Y-56757060D01*
X65698181Y-56780990D01*
X65349110Y-56874824D01*
X65240366Y-56919867D01*
X65101742Y-57174240D01*
X63286465Y-57174240D01*
X63285000Y-56831750D01*
X63126250Y-56673000D01*
X61373000Y-56673000D01*
X60627000Y-56673000D01*
X58873750Y-56673000D01*
X58715000Y-56831750D01*
X58711928Y-57550000D01*
X58027000Y-57550000D01*
X58027000Y-57490509D01*
X57945261Y-57079577D01*
X57784923Y-56692488D01*
X57552149Y-56344116D01*
X57255884Y-56047851D01*
X56907512Y-55815077D01*
X56520423Y-55654739D01*
X56109491Y-55573000D01*
X56022013Y-55573000D01*
X56964493Y-54630520D01*
X58851864Y-54656025D01*
X58819463Y-54695506D01*
X58760498Y-54805820D01*
X58724188Y-54925518D01*
X58711928Y-55050000D01*
X58715000Y-55768250D01*
X58873750Y-55927000D01*
X60627000Y-55927000D01*
X60627000Y-55907000D01*
X61373000Y-55907000D01*
X61373000Y-55927000D01*
X63126250Y-55927000D01*
X63285000Y-55768250D01*
X63288072Y-55050000D01*
X63275812Y-54925518D01*
X63239502Y-54805820D01*
X63190774Y-54714659D01*
X64099829Y-54726943D01*
X64230623Y-54714952D01*
X64348244Y-54679272D01*
X64456644Y-54621331D01*
X64551657Y-54543356D01*
X66004504Y-53090509D01*
X73973000Y-53090509D01*
X73973000Y-53509491D01*
X74054739Y-53920423D01*
X74215077Y-54307512D01*
X74447851Y-54655884D01*
X74744116Y-54952149D01*
X75092488Y-55184923D01*
X75479577Y-55345261D01*
X75890509Y-55427000D01*
X76309491Y-55427000D01*
X76720423Y-55345261D01*
X77107512Y-55184923D01*
X77455884Y-54952149D01*
X77752149Y-54655884D01*
X77984923Y-54307512D01*
X78145261Y-53920423D01*
X78227000Y-53509491D01*
X78227000Y-53090509D01*
X78145261Y-52679577D01*
X77984923Y-52292488D01*
X77752149Y-51944116D01*
X77455884Y-51647851D01*
X77107512Y-51415077D01*
X76720423Y-51254739D01*
X76309491Y-51173000D01*
X75890509Y-51173000D01*
X75479577Y-51254739D01*
X75092488Y-51415077D01*
X74744116Y-51647851D01*
X74447851Y-51944116D01*
X74215077Y-52292488D01*
X74054739Y-52679577D01*
X73973000Y-53090509D01*
X66004504Y-53090509D01*
X67839075Y-51255938D01*
X68821564Y-51255938D01*
X68922056Y-51480057D01*
X69212152Y-51565331D01*
X69513308Y-51592370D01*
X69813955Y-51560138D01*
X70077944Y-51480057D01*
X70178436Y-51255938D01*
X69500000Y-50577502D01*
X68821564Y-51255938D01*
X67839075Y-51255938D01*
X68151657Y-50943356D01*
X68231074Y-50846176D01*
X68288564Y-50737536D01*
X68291612Y-50727337D01*
X68294062Y-50728436D01*
X68972498Y-50050000D01*
X70027502Y-50050000D01*
X70705938Y-50728436D01*
X70930057Y-50627944D01*
X71015331Y-50337848D01*
X71042370Y-50036692D01*
X71027673Y-49899604D01*
X72473000Y-49899604D01*
X72473000Y-50200396D01*
X72531681Y-50495410D01*
X72646790Y-50773306D01*
X72813901Y-51023406D01*
X73026594Y-51236099D01*
X73276694Y-51403210D01*
X73554590Y-51518319D01*
X73849604Y-51577000D01*
X74150396Y-51577000D01*
X74445410Y-51518319D01*
X74723306Y-51403210D01*
X74973406Y-51236099D01*
X75186099Y-51023406D01*
X75353210Y-50773306D01*
X75468319Y-50495410D01*
X75527000Y-50200396D01*
X75527000Y-49899604D01*
X75468319Y-49604590D01*
X75353210Y-49326694D01*
X75186099Y-49076594D01*
X75124637Y-49015132D01*
X93573000Y-49015132D01*
X93573000Y-49384868D01*
X93645132Y-49747501D01*
X93786624Y-50089093D01*
X93992039Y-50396518D01*
X94253482Y-50657961D01*
X94560907Y-50863376D01*
X94902499Y-51004868D01*
X95265132Y-51077000D01*
X95634868Y-51077000D01*
X95997501Y-51004868D01*
X96339093Y-50863376D01*
X96646518Y-50657961D01*
X96907961Y-50396518D01*
X97113376Y-50089093D01*
X97254868Y-49747501D01*
X97327000Y-49384868D01*
X97327000Y-49015132D01*
X97254868Y-48652499D01*
X97113376Y-48310907D01*
X96907961Y-48003482D01*
X96646518Y-47742039D01*
X96339093Y-47536624D01*
X95997501Y-47395132D01*
X95634868Y-47323000D01*
X95265132Y-47323000D01*
X94902499Y-47395132D01*
X94560907Y-47536624D01*
X94253482Y-47742039D01*
X93992039Y-48003482D01*
X93786624Y-48310907D01*
X93645132Y-48652499D01*
X93573000Y-49015132D01*
X75124637Y-49015132D01*
X74973406Y-48863901D01*
X74723306Y-48696790D01*
X74445410Y-48581681D01*
X74150396Y-48523000D01*
X73849604Y-48523000D01*
X73554590Y-48581681D01*
X73276694Y-48696790D01*
X73026594Y-48863901D01*
X72813901Y-49076594D01*
X72646790Y-49326694D01*
X72531681Y-49604590D01*
X72473000Y-49899604D01*
X71027673Y-49899604D01*
X71010138Y-49736045D01*
X70930057Y-49472056D01*
X70705938Y-49371564D01*
X70027502Y-50050000D01*
X68972498Y-50050000D01*
X68330776Y-49408278D01*
X68328434Y-48844062D01*
X68821564Y-48844062D01*
X69500000Y-49522498D01*
X70178436Y-48844062D01*
X70077944Y-48619943D01*
X69787848Y-48534669D01*
X69486692Y-48507630D01*
X69186045Y-48539862D01*
X68922056Y-48619943D01*
X68821564Y-48844062D01*
X68328434Y-48844062D01*
X68326995Y-48497398D01*
X68314952Y-48377678D01*
X68279272Y-48260057D01*
X68221331Y-48151657D01*
X68143356Y-48056644D01*
X67143356Y-47056644D01*
X67048343Y-46978669D01*
X66939943Y-46920728D01*
X66822322Y-46885048D01*
X66700000Y-46873000D01*
X66626762Y-46873000D01*
X66571866Y-46843658D01*
X66438596Y-46803231D01*
X66334723Y-46793000D01*
X66300000Y-46789580D01*
X66265277Y-46793000D01*
X65934723Y-46793000D01*
X65900000Y-46789580D01*
X65865277Y-46793000D01*
X65761404Y-46803231D01*
X65628134Y-46843658D01*
X65573238Y-46873000D01*
X61226762Y-46873000D01*
X61171866Y-46843658D01*
X61038596Y-46803231D01*
X60900000Y-46789580D01*
X60865278Y-46793000D01*
X56734722Y-46793000D01*
X56699999Y-46789580D01*
X56561403Y-46803231D01*
X56428134Y-46843658D01*
X56305312Y-46909307D01*
X56197657Y-46997657D01*
X56175520Y-47024631D01*
X52857231Y-50342920D01*
X52886082Y-50050000D01*
X52849841Y-49682044D01*
X52742513Y-49328228D01*
X52627000Y-49112119D01*
X52627000Y-43701718D01*
X52695501Y-43645501D01*
X52773853Y-43550028D01*
X52832075Y-43441103D01*
X52867927Y-43322913D01*
X52880033Y-43200000D01*
X52880033Y-41799604D01*
X56473000Y-41799604D01*
X56473000Y-42100396D01*
X56531681Y-42395410D01*
X56646790Y-42673306D01*
X56813901Y-42923406D01*
X57026594Y-43136099D01*
X57276694Y-43303210D01*
X57554590Y-43418319D01*
X57849604Y-43477000D01*
X58150396Y-43477000D01*
X58445410Y-43418319D01*
X58723306Y-43303210D01*
X58943714Y-43155938D01*
X61821564Y-43155938D01*
X61922056Y-43380057D01*
X62212152Y-43465331D01*
X62513308Y-43492370D01*
X62813955Y-43460138D01*
X62962318Y-43415132D01*
X93573000Y-43415132D01*
X93573000Y-43784868D01*
X93645132Y-44147501D01*
X93786624Y-44489093D01*
X93992039Y-44796518D01*
X94253482Y-45057961D01*
X94560907Y-45263376D01*
X94902499Y-45404868D01*
X95265132Y-45477000D01*
X95634868Y-45477000D01*
X95997501Y-45404868D01*
X96339093Y-45263376D01*
X96646518Y-45057961D01*
X96907961Y-44796518D01*
X97113376Y-44489093D01*
X97254868Y-44147501D01*
X97327000Y-43784868D01*
X97327000Y-43415132D01*
X97254868Y-43052499D01*
X97113376Y-42710907D01*
X96907961Y-42403482D01*
X96646518Y-42142039D01*
X96339093Y-41936624D01*
X95997501Y-41795132D01*
X95634868Y-41723000D01*
X95265132Y-41723000D01*
X94902499Y-41795132D01*
X94560907Y-41936624D01*
X94253482Y-42142039D01*
X93992039Y-42403482D01*
X93786624Y-42710907D01*
X93645132Y-43052499D01*
X93573000Y-43415132D01*
X62962318Y-43415132D01*
X63077944Y-43380057D01*
X63178436Y-43155938D01*
X62500000Y-42477502D01*
X61821564Y-43155938D01*
X58943714Y-43155938D01*
X58973406Y-43136099D01*
X59186099Y-42923406D01*
X59353210Y-42673306D01*
X59468319Y-42395410D01*
X59527000Y-42100396D01*
X59527000Y-41963308D01*
X60957630Y-41963308D01*
X60989862Y-42263955D01*
X61069943Y-42527944D01*
X61294062Y-42628436D01*
X61972498Y-41950000D01*
X63027502Y-41950000D01*
X63705938Y-42628436D01*
X63930057Y-42527944D01*
X64015331Y-42237848D01*
X64042370Y-41936692D01*
X64010138Y-41636045D01*
X63930057Y-41372056D01*
X63705938Y-41271564D01*
X63027502Y-41950000D01*
X61972498Y-41950000D01*
X61294062Y-41271564D01*
X61069943Y-41372056D01*
X60984669Y-41662152D01*
X60957630Y-41963308D01*
X59527000Y-41963308D01*
X59527000Y-41799604D01*
X59468319Y-41504590D01*
X59353210Y-41226694D01*
X59186099Y-40976594D01*
X58973406Y-40763901D01*
X58943715Y-40744062D01*
X61821564Y-40744062D01*
X62500000Y-41422498D01*
X62896738Y-41025760D01*
X65101742Y-41025760D01*
X65240366Y-41280133D01*
X65582739Y-41396047D01*
X65941148Y-41442940D01*
X66301819Y-41419010D01*
X66650890Y-41325176D01*
X66759634Y-41280133D01*
X66898258Y-41025760D01*
X66000000Y-40127502D01*
X65101742Y-41025760D01*
X62896738Y-41025760D01*
X63178436Y-40744062D01*
X63077944Y-40519943D01*
X62787848Y-40434669D01*
X62486692Y-40407630D01*
X62186045Y-40439862D01*
X61922056Y-40519943D01*
X61821564Y-40744062D01*
X58943715Y-40744062D01*
X58723306Y-40596790D01*
X58445410Y-40481681D01*
X58150396Y-40423000D01*
X57849604Y-40423000D01*
X57554590Y-40481681D01*
X57276694Y-40596790D01*
X57026594Y-40763901D01*
X56813901Y-40976594D01*
X56646790Y-41226694D01*
X56531681Y-41504590D01*
X56473000Y-41799604D01*
X52880033Y-41799604D01*
X52880033Y-40700000D01*
X52867927Y-40577087D01*
X52832075Y-40458897D01*
X52773853Y-40349972D01*
X52695501Y-40254499D01*
X52627000Y-40198282D01*
X52627000Y-39172848D01*
X53949822Y-37850026D01*
X53854739Y-38079577D01*
X53773000Y-38490509D01*
X53773000Y-38909491D01*
X53854739Y-39320423D01*
X54015077Y-39707512D01*
X54247851Y-40055884D01*
X54544116Y-40352149D01*
X54892488Y-40584923D01*
X55279577Y-40745261D01*
X55690509Y-40827000D01*
X56109491Y-40827000D01*
X56520423Y-40745261D01*
X56907512Y-40584923D01*
X57255884Y-40352149D01*
X57552149Y-40055884D01*
X57784923Y-39707512D01*
X57853833Y-39541148D01*
X64157060Y-39541148D01*
X64180990Y-39901819D01*
X64274824Y-40250890D01*
X64319867Y-40359634D01*
X64574240Y-40498258D01*
X65472498Y-39600000D01*
X66527502Y-39600000D01*
X67425760Y-40498258D01*
X67680133Y-40359634D01*
X67796047Y-40017261D01*
X67842940Y-39658852D01*
X67819010Y-39298181D01*
X67725176Y-38949110D01*
X67680133Y-38840366D01*
X67425760Y-38701742D01*
X66527502Y-39600000D01*
X65472498Y-39600000D01*
X64574240Y-38701742D01*
X64319867Y-38840366D01*
X64203953Y-39182739D01*
X64157060Y-39541148D01*
X57853833Y-39541148D01*
X57945261Y-39320423D01*
X58027000Y-38909491D01*
X58027000Y-38550000D01*
X58711928Y-38550000D01*
X58724188Y-38674482D01*
X58760498Y-38794180D01*
X58819463Y-38904494D01*
X58898815Y-39001185D01*
X58995506Y-39080537D01*
X59105820Y-39139502D01*
X59225518Y-39175812D01*
X59350000Y-39188072D01*
X60468250Y-39185000D01*
X60627000Y-39026250D01*
X60627000Y-37673000D01*
X61373000Y-37673000D01*
X61373000Y-39026250D01*
X61531750Y-39185000D01*
X62650000Y-39188072D01*
X62774482Y-39175812D01*
X62894180Y-39139502D01*
X63004494Y-39080537D01*
X63101185Y-39001185D01*
X63180537Y-38904494D01*
X63239502Y-38794180D01*
X63275812Y-38674482D01*
X63288072Y-38550000D01*
X63286465Y-38174240D01*
X65101742Y-38174240D01*
X66000000Y-39072498D01*
X66898258Y-38174240D01*
X66759634Y-37919867D01*
X66417261Y-37803953D01*
X66058852Y-37757060D01*
X65698181Y-37780990D01*
X65349110Y-37874824D01*
X65240366Y-37919867D01*
X65101742Y-38174240D01*
X63286465Y-38174240D01*
X63285000Y-37831750D01*
X63126250Y-37673000D01*
X61373000Y-37673000D01*
X60627000Y-37673000D01*
X58873750Y-37673000D01*
X58715000Y-37831750D01*
X58711928Y-38550000D01*
X58027000Y-38550000D01*
X58027000Y-38490509D01*
X57945261Y-38079577D01*
X57784923Y-37692488D01*
X57552149Y-37344116D01*
X57255884Y-37047851D01*
X56907512Y-36815077D01*
X56520423Y-36654739D01*
X56109491Y-36573000D01*
X55690509Y-36573000D01*
X55279577Y-36654739D01*
X55050026Y-36749822D01*
X55749848Y-36050000D01*
X58711928Y-36050000D01*
X58715000Y-36768250D01*
X58873750Y-36927000D01*
X60627000Y-36927000D01*
X60627000Y-35573750D01*
X61373000Y-35573750D01*
X61373000Y-36927000D01*
X63126250Y-36927000D01*
X63285000Y-36768250D01*
X63288072Y-36050000D01*
X63275812Y-35925518D01*
X63239502Y-35805820D01*
X63180537Y-35695506D01*
X63101185Y-35598815D01*
X63004494Y-35519463D01*
X62894180Y-35460498D01*
X62774482Y-35424188D01*
X62650000Y-35411928D01*
X61531750Y-35415000D01*
X61373000Y-35573750D01*
X60627000Y-35573750D01*
X60468250Y-35415000D01*
X59350000Y-35411928D01*
X59225518Y-35424188D01*
X59105820Y-35460498D01*
X58995506Y-35519463D01*
X58898815Y-35598815D01*
X58819463Y-35695506D01*
X58760498Y-35805820D01*
X58724188Y-35925518D01*
X58711928Y-36050000D01*
X55749848Y-36050000D01*
X56392849Y-35407000D01*
X63765277Y-35407000D01*
X63800000Y-35410420D01*
X63938596Y-35396769D01*
X64071866Y-35356342D01*
X64194688Y-35290693D01*
X64302343Y-35202343D01*
X64324484Y-35175364D01*
X65409339Y-34090509D01*
X73973000Y-34090509D01*
X73973000Y-34509491D01*
X74054739Y-34920423D01*
X74215077Y-35307512D01*
X74447851Y-35655884D01*
X74744116Y-35952149D01*
X75092488Y-36184923D01*
X75479577Y-36345261D01*
X75890509Y-36427000D01*
X76309491Y-36427000D01*
X76720423Y-36345261D01*
X77107512Y-36184923D01*
X77455884Y-35952149D01*
X77752149Y-35655884D01*
X77984923Y-35307512D01*
X78145261Y-34920423D01*
X78227000Y-34509491D01*
X78227000Y-34090509D01*
X78145261Y-33679577D01*
X77984923Y-33292488D01*
X77752149Y-32944116D01*
X77455884Y-32647851D01*
X77107512Y-32415077D01*
X76720423Y-32254739D01*
X76309491Y-32173000D01*
X75890509Y-32173000D01*
X75479577Y-32254739D01*
X75092488Y-32415077D01*
X74744116Y-32647851D01*
X74447851Y-32944116D01*
X74215077Y-33292488D01*
X74054739Y-33679577D01*
X73973000Y-34090509D01*
X65409339Y-34090509D01*
X67243910Y-32255938D01*
X68821564Y-32255938D01*
X68922056Y-32480057D01*
X69212152Y-32565331D01*
X69513308Y-32592370D01*
X69813955Y-32560138D01*
X70077944Y-32480057D01*
X70178436Y-32255938D01*
X69500000Y-31577502D01*
X68821564Y-32255938D01*
X67243910Y-32255938D01*
X67875374Y-31624475D01*
X67902342Y-31602343D01*
X67990693Y-31494688D01*
X68015462Y-31448347D01*
X68069943Y-31627944D01*
X68294062Y-31728436D01*
X68972498Y-31050000D01*
X70027502Y-31050000D01*
X70705938Y-31728436D01*
X70930057Y-31627944D01*
X71015331Y-31337848D01*
X71042370Y-31036692D01*
X71027673Y-30899604D01*
X72473000Y-30899604D01*
X72473000Y-31200396D01*
X72531681Y-31495410D01*
X72646790Y-31773306D01*
X72813901Y-32023406D01*
X73026594Y-32236099D01*
X73276694Y-32403210D01*
X73554590Y-32518319D01*
X73849604Y-32577000D01*
X74150396Y-32577000D01*
X74445410Y-32518319D01*
X74723306Y-32403210D01*
X74973406Y-32236099D01*
X75186099Y-32023406D01*
X75353210Y-31773306D01*
X75468319Y-31495410D01*
X75527000Y-31200396D01*
X75527000Y-30899604D01*
X75468319Y-30604590D01*
X75353210Y-30326694D01*
X75186099Y-30076594D01*
X75124637Y-30015132D01*
X93573000Y-30015132D01*
X93573000Y-30384868D01*
X93645132Y-30747501D01*
X93786624Y-31089093D01*
X93992039Y-31396518D01*
X94253482Y-31657961D01*
X94560907Y-31863376D01*
X94902499Y-32004868D01*
X95265132Y-32077000D01*
X95634868Y-32077000D01*
X95997501Y-32004868D01*
X96339093Y-31863376D01*
X96646518Y-31657961D01*
X96907961Y-31396518D01*
X97113376Y-31089093D01*
X97254868Y-30747501D01*
X97327000Y-30384868D01*
X97327000Y-30015132D01*
X97254868Y-29652499D01*
X97113376Y-29310907D01*
X96907961Y-29003482D01*
X96646518Y-28742039D01*
X96339093Y-28536624D01*
X95997501Y-28395132D01*
X95634868Y-28323000D01*
X95265132Y-28323000D01*
X94902499Y-28395132D01*
X94560907Y-28536624D01*
X94253482Y-28742039D01*
X93992039Y-29003482D01*
X93786624Y-29310907D01*
X93645132Y-29652499D01*
X93573000Y-30015132D01*
X75124637Y-30015132D01*
X74973406Y-29863901D01*
X74723306Y-29696790D01*
X74445410Y-29581681D01*
X74150396Y-29523000D01*
X73849604Y-29523000D01*
X73554590Y-29581681D01*
X73276694Y-29696790D01*
X73026594Y-29863901D01*
X72813901Y-30076594D01*
X72646790Y-30326694D01*
X72531681Y-30604590D01*
X72473000Y-30899604D01*
X71027673Y-30899604D01*
X71010138Y-30736045D01*
X70930057Y-30472056D01*
X70705938Y-30371564D01*
X70027502Y-31050000D01*
X68972498Y-31050000D01*
X68294062Y-30371564D01*
X68107000Y-30455440D01*
X68107000Y-29844062D01*
X68821564Y-29844062D01*
X69500000Y-30522498D01*
X70178436Y-29844062D01*
X70077944Y-29619943D01*
X69787848Y-29534669D01*
X69486692Y-29507630D01*
X69186045Y-29539862D01*
X68922056Y-29619943D01*
X68821564Y-29844062D01*
X68107000Y-29844062D01*
X68107000Y-29534723D01*
X68110420Y-29500000D01*
X68096769Y-29361403D01*
X68056342Y-29228134D01*
X68039577Y-29196769D01*
X67990693Y-29105312D01*
X67902343Y-28997657D01*
X67875369Y-28975520D01*
X66924484Y-28024636D01*
X66902343Y-27997657D01*
X66794688Y-27909307D01*
X66671866Y-27843658D01*
X66538596Y-27803231D01*
X66434723Y-27793000D01*
X66400000Y-27789580D01*
X66365277Y-27793000D01*
X66034723Y-27793000D01*
X66000000Y-27789580D01*
X65965278Y-27793000D01*
X65965277Y-27793000D01*
X65861404Y-27803231D01*
X65728134Y-27843658D01*
X65673238Y-27873000D01*
X61226762Y-27873000D01*
X61171866Y-27843658D01*
X61038596Y-27803231D01*
X60934723Y-27793000D01*
X60900000Y-27789580D01*
X60865278Y-27793000D01*
X56434723Y-27793000D01*
X56400000Y-27789580D01*
X56261403Y-27803231D01*
X56128134Y-27843658D01*
X56005312Y-27909307D01*
X55897657Y-27997657D01*
X55875520Y-28024631D01*
X52882860Y-31017291D01*
X52849841Y-30682044D01*
X52742513Y-30328228D01*
X52627000Y-30112119D01*
X52627000Y-24701718D01*
X52695501Y-24645501D01*
X52773853Y-24550028D01*
X52832075Y-24441103D01*
X52867927Y-24322913D01*
X52880033Y-24200000D01*
X52880033Y-22799604D01*
X56473000Y-22799604D01*
X56473000Y-23100396D01*
X56531681Y-23395410D01*
X56646790Y-23673306D01*
X56813901Y-23923406D01*
X57026594Y-24136099D01*
X57276694Y-24303210D01*
X57554590Y-24418319D01*
X57849604Y-24477000D01*
X58150396Y-24477000D01*
X58445410Y-24418319D01*
X58723306Y-24303210D01*
X58943714Y-24155938D01*
X61821564Y-24155938D01*
X61922056Y-24380057D01*
X62212152Y-24465331D01*
X62513308Y-24492370D01*
X62813955Y-24460138D01*
X62962318Y-24415132D01*
X93573000Y-24415132D01*
X93573000Y-24784868D01*
X93645132Y-25147501D01*
X93786624Y-25489093D01*
X93992039Y-25796518D01*
X94253482Y-26057961D01*
X94560907Y-26263376D01*
X94902499Y-26404868D01*
X95265132Y-26477000D01*
X95634868Y-26477000D01*
X95997501Y-26404868D01*
X96339093Y-26263376D01*
X96646518Y-26057961D01*
X96907961Y-25796518D01*
X97113376Y-25489093D01*
X97254868Y-25147501D01*
X97327000Y-24784868D01*
X97327000Y-24415132D01*
X97254868Y-24052499D01*
X97113376Y-23710907D01*
X96907961Y-23403482D01*
X96646518Y-23142039D01*
X96339093Y-22936624D01*
X95997501Y-22795132D01*
X95634868Y-22723000D01*
X95265132Y-22723000D01*
X94902499Y-22795132D01*
X94560907Y-22936624D01*
X94253482Y-23142039D01*
X93992039Y-23403482D01*
X93786624Y-23710907D01*
X93645132Y-24052499D01*
X93573000Y-24415132D01*
X62962318Y-24415132D01*
X63077944Y-24380057D01*
X63178436Y-24155938D01*
X62500000Y-23477502D01*
X61821564Y-24155938D01*
X58943714Y-24155938D01*
X58973406Y-24136099D01*
X59186099Y-23923406D01*
X59353210Y-23673306D01*
X59468319Y-23395410D01*
X59527000Y-23100396D01*
X59527000Y-22963308D01*
X60957630Y-22963308D01*
X60989862Y-23263955D01*
X61069943Y-23527944D01*
X61294062Y-23628436D01*
X61972498Y-22950000D01*
X63027502Y-22950000D01*
X63705938Y-23628436D01*
X63930057Y-23527944D01*
X64015331Y-23237848D01*
X64042370Y-22936692D01*
X64010138Y-22636045D01*
X63930057Y-22372056D01*
X63705938Y-22271564D01*
X63027502Y-22950000D01*
X61972498Y-22950000D01*
X61294062Y-22271564D01*
X61069943Y-22372056D01*
X60984669Y-22662152D01*
X60957630Y-22963308D01*
X59527000Y-22963308D01*
X59527000Y-22799604D01*
X59468319Y-22504590D01*
X59353210Y-22226694D01*
X59186099Y-21976594D01*
X58973406Y-21763901D01*
X58943715Y-21744062D01*
X61821564Y-21744062D01*
X62500000Y-22422498D01*
X62896738Y-22025760D01*
X65101742Y-22025760D01*
X65240366Y-22280133D01*
X65582739Y-22396047D01*
X65941148Y-22442940D01*
X66301819Y-22419010D01*
X66650890Y-22325176D01*
X66759634Y-22280133D01*
X66898258Y-22025760D01*
X66000000Y-21127502D01*
X65101742Y-22025760D01*
X62896738Y-22025760D01*
X63178436Y-21744062D01*
X63077944Y-21519943D01*
X62787848Y-21434669D01*
X62486692Y-21407630D01*
X62186045Y-21439862D01*
X61922056Y-21519943D01*
X61821564Y-21744062D01*
X58943715Y-21744062D01*
X58723306Y-21596790D01*
X58445410Y-21481681D01*
X58150396Y-21423000D01*
X57849604Y-21423000D01*
X57554590Y-21481681D01*
X57276694Y-21596790D01*
X57026594Y-21763901D01*
X56813901Y-21976594D01*
X56646790Y-22226694D01*
X56531681Y-22504590D01*
X56473000Y-22799604D01*
X52880033Y-22799604D01*
X52880033Y-21700000D01*
X52867927Y-21577087D01*
X52832075Y-21458897D01*
X52773853Y-21349972D01*
X52695501Y-21254499D01*
X52627000Y-21198282D01*
X52627000Y-20743130D01*
X52647418Y-20741119D01*
X52789170Y-20698118D01*
X52919810Y-20628290D01*
X53034317Y-20534317D01*
X53057867Y-20505621D01*
X53773000Y-19790488D01*
X53773000Y-19909491D01*
X53854739Y-20320423D01*
X54015077Y-20707512D01*
X54247851Y-21055884D01*
X54544116Y-21352149D01*
X54892488Y-21584923D01*
X55279577Y-21745261D01*
X55690509Y-21827000D01*
X56109491Y-21827000D01*
X56520423Y-21745261D01*
X56907512Y-21584923D01*
X57255884Y-21352149D01*
X57552149Y-21055884D01*
X57784923Y-20707512D01*
X57853833Y-20541148D01*
X64157060Y-20541148D01*
X64180990Y-20901819D01*
X64274824Y-21250890D01*
X64319867Y-21359634D01*
X64574240Y-21498258D01*
X65472498Y-20600000D01*
X66527502Y-20600000D01*
X67425760Y-21498258D01*
X67680133Y-21359634D01*
X67796047Y-21017261D01*
X67842940Y-20658852D01*
X67819010Y-20298181D01*
X67725176Y-19949110D01*
X67680133Y-19840366D01*
X67425760Y-19701742D01*
X66527502Y-20600000D01*
X65472498Y-20600000D01*
X64574240Y-19701742D01*
X64319867Y-19840366D01*
X64203953Y-20182739D01*
X64157060Y-20541148D01*
X57853833Y-20541148D01*
X57945261Y-20320423D01*
X58027000Y-19909491D01*
X58027000Y-19550000D01*
X58711928Y-19550000D01*
X58724188Y-19674482D01*
X58760498Y-19794180D01*
X58819463Y-19904494D01*
X58898815Y-20001185D01*
X58995506Y-20080537D01*
X59105820Y-20139502D01*
X59225518Y-20175812D01*
X59350000Y-20188072D01*
X60468250Y-20185000D01*
X60627000Y-20026250D01*
X60627000Y-18673000D01*
X61373000Y-18673000D01*
X61373000Y-20026250D01*
X61531750Y-20185000D01*
X62650000Y-20188072D01*
X62774482Y-20175812D01*
X62894180Y-20139502D01*
X63004494Y-20080537D01*
X63101185Y-20001185D01*
X63180537Y-19904494D01*
X63239502Y-19794180D01*
X63275812Y-19674482D01*
X63288072Y-19550000D01*
X63286465Y-19174240D01*
X65101742Y-19174240D01*
X66000000Y-20072498D01*
X66898258Y-19174240D01*
X66759634Y-18919867D01*
X66417261Y-18803953D01*
X66058852Y-18757060D01*
X65698181Y-18780990D01*
X65349110Y-18874824D01*
X65240366Y-18919867D01*
X65101742Y-19174240D01*
X63286465Y-19174240D01*
X63285000Y-18831750D01*
X63126250Y-18673000D01*
X61373000Y-18673000D01*
X60627000Y-18673000D01*
X58873750Y-18673000D01*
X58715000Y-18831750D01*
X58711928Y-19550000D01*
X58027000Y-19550000D01*
X58027000Y-19490509D01*
X57945261Y-19079577D01*
X57784923Y-18692488D01*
X57552149Y-18344116D01*
X57255884Y-18047851D01*
X56907512Y-17815077D01*
X56520423Y-17654739D01*
X56109491Y-17573000D01*
X55990489Y-17573000D01*
X56811489Y-16752000D01*
X58789266Y-16752000D01*
X58760498Y-16805820D01*
X58724188Y-16925518D01*
X58711928Y-17050000D01*
X58715000Y-17768250D01*
X58873750Y-17927000D01*
X60627000Y-17927000D01*
X60627000Y-17907000D01*
X61373000Y-17907000D01*
X61373000Y-17927000D01*
X63126250Y-17927000D01*
X63285000Y-17768250D01*
X63288072Y-17050000D01*
X63275812Y-16925518D01*
X63239502Y-16805820D01*
X63210734Y-16752000D01*
X63963065Y-16752000D01*
X64000000Y-16755638D01*
X64036935Y-16752000D01*
X64036938Y-16752000D01*
X64147418Y-16741119D01*
X64289170Y-16698118D01*
X64419810Y-16628290D01*
X64534317Y-16534317D01*
X64557867Y-16505621D01*
X65972979Y-15090509D01*
X73973000Y-15090509D01*
X73973000Y-15509491D01*
X74054739Y-15920423D01*
X74215077Y-16307512D01*
X74447851Y-16655884D01*
X74744116Y-16952149D01*
X75092488Y-17184923D01*
X75479577Y-17345261D01*
X75890509Y-17427000D01*
X76309491Y-17427000D01*
X76720423Y-17345261D01*
X77107512Y-17184923D01*
X77455884Y-16952149D01*
X77752149Y-16655884D01*
X77984923Y-16307512D01*
X78145261Y-15920423D01*
X78227000Y-15509491D01*
X78227000Y-15090509D01*
X78145261Y-14679577D01*
X77984923Y-14292488D01*
X77752149Y-13944116D01*
X77455884Y-13647851D01*
X77107512Y-13415077D01*
X76720423Y-13254739D01*
X76309491Y-13173000D01*
X75890509Y-13173000D01*
X75479577Y-13254739D01*
X75092488Y-13415077D01*
X74744116Y-13647851D01*
X74447851Y-13944116D01*
X74215077Y-14292488D01*
X74054739Y-14679577D01*
X73973000Y-15090509D01*
X65972979Y-15090509D01*
X67807550Y-13255938D01*
X68821564Y-13255938D01*
X68922056Y-13480057D01*
X69212152Y-13565331D01*
X69513308Y-13592370D01*
X69813955Y-13560138D01*
X70077944Y-13480057D01*
X70178436Y-13255938D01*
X69500000Y-12577502D01*
X68821564Y-13255938D01*
X67807550Y-13255938D01*
X68005627Y-13057862D01*
X68034317Y-13034317D01*
X68069782Y-12991103D01*
X68128290Y-12919811D01*
X68198117Y-12789171D01*
X68198118Y-12789170D01*
X68225824Y-12697839D01*
X68294062Y-12728436D01*
X68972498Y-12050000D01*
X70027502Y-12050000D01*
X70705938Y-12728436D01*
X70930057Y-12627944D01*
X71015331Y-12337848D01*
X71042370Y-12036692D01*
X71027673Y-11899604D01*
X72473000Y-11899604D01*
X72473000Y-12200396D01*
X72531681Y-12495410D01*
X72646790Y-12773306D01*
X72813901Y-13023406D01*
X73026594Y-13236099D01*
X73276694Y-13403210D01*
X73554590Y-13518319D01*
X73849604Y-13577000D01*
X74150396Y-13577000D01*
X74445410Y-13518319D01*
X74723306Y-13403210D01*
X74973406Y-13236099D01*
X75186099Y-13023406D01*
X75353210Y-12773306D01*
X75468319Y-12495410D01*
X75527000Y-12200396D01*
X75527000Y-11899604D01*
X75468319Y-11604590D01*
X75353210Y-11326694D01*
X75186099Y-11076594D01*
X75124637Y-11015132D01*
X93573000Y-11015132D01*
X93573000Y-11384868D01*
X93645132Y-11747501D01*
X93786624Y-12089093D01*
X93992039Y-12396518D01*
X94253482Y-12657961D01*
X94560907Y-12863376D01*
X94902499Y-13004868D01*
X95265132Y-13077000D01*
X95634868Y-13077000D01*
X95997501Y-13004868D01*
X96339093Y-12863376D01*
X96646518Y-12657961D01*
X96907961Y-12396518D01*
X97113376Y-12089093D01*
X97254868Y-11747501D01*
X97327000Y-11384868D01*
X97327000Y-11015132D01*
X97254868Y-10652499D01*
X97113376Y-10310907D01*
X96907961Y-10003482D01*
X96646518Y-9742039D01*
X96339093Y-9536624D01*
X95997501Y-9395132D01*
X95634868Y-9323000D01*
X95265132Y-9323000D01*
X94902499Y-9395132D01*
X94560907Y-9536624D01*
X94253482Y-9742039D01*
X93992039Y-10003482D01*
X93786624Y-10310907D01*
X93645132Y-10652499D01*
X93573000Y-11015132D01*
X75124637Y-11015132D01*
X74973406Y-10863901D01*
X74723306Y-10696790D01*
X74445410Y-10581681D01*
X74150396Y-10523000D01*
X73849604Y-10523000D01*
X73554590Y-10581681D01*
X73276694Y-10696790D01*
X73026594Y-10863901D01*
X72813901Y-11076594D01*
X72646790Y-11326694D01*
X72531681Y-11604590D01*
X72473000Y-11899604D01*
X71027673Y-11899604D01*
X71010138Y-11736045D01*
X70930057Y-11472056D01*
X70705938Y-11371564D01*
X70027502Y-12050000D01*
X68972498Y-12050000D01*
X68294062Y-11371564D01*
X68252000Y-11390424D01*
X68252000Y-10844062D01*
X68821564Y-10844062D01*
X69500000Y-11522498D01*
X70178436Y-10844062D01*
X70077944Y-10619943D01*
X69787848Y-10534669D01*
X69486692Y-10507630D01*
X69186045Y-10539862D01*
X68922056Y-10619943D01*
X68821564Y-10844062D01*
X68252000Y-10844062D01*
X68252000Y-10536935D01*
X68255638Y-10500000D01*
X68252000Y-10463062D01*
X68241119Y-10352582D01*
X68198118Y-10210830D01*
X68128290Y-10080190D01*
X68128265Y-10080159D01*
X68113030Y-10051657D01*
X68035055Y-9956644D01*
X67035055Y-8956644D01*
X66940042Y-8878669D01*
X66831642Y-8820728D01*
X66814963Y-8815668D01*
X66789170Y-8801882D01*
X66647418Y-8758881D01*
X66536938Y-8748000D01*
X66536935Y-8748000D01*
X66500000Y-8744362D01*
X66463065Y-8748000D01*
X61036938Y-8748000D01*
X61000000Y-8744362D01*
X60963062Y-8748000D01*
X56536935Y-8748000D01*
X56500000Y-8744362D01*
X56463064Y-8748000D01*
X56463062Y-8748000D01*
X56352582Y-8758881D01*
X56210830Y-8801882D01*
X56080190Y-8871710D01*
X55965683Y-8965683D01*
X55942133Y-8994379D01*
X52886035Y-12050477D01*
X52886082Y-12050000D01*
X52849841Y-11682044D01*
X52742513Y-11328228D01*
X52627000Y-11112119D01*
X52627000Y-4780660D01*
X92773000Y-4780660D01*
X92773000Y-5219340D01*
X92858582Y-5649592D01*
X93026458Y-6054880D01*
X93270176Y-6419630D01*
X93580370Y-6729824D01*
X93945120Y-6973542D01*
X94350408Y-7141418D01*
X94780660Y-7227000D01*
X95219340Y-7227000D01*
X95649592Y-7141418D01*
X96054880Y-6973542D01*
X96419630Y-6729824D01*
X96729824Y-6419630D01*
X96973542Y-6054880D01*
X97141418Y-5649592D01*
X97227000Y-5219340D01*
X97227000Y-4780660D01*
X97141418Y-4350408D01*
X96973542Y-3945120D01*
X96729824Y-3580370D01*
X96419630Y-3270176D01*
X96054880Y-3026458D01*
X95649592Y-2858582D01*
X95219340Y-2773000D01*
X94780660Y-2773000D01*
X94350408Y-2858582D01*
X93945120Y-3026458D01*
X93580370Y-3270176D01*
X93270176Y-3580370D01*
X93026458Y-3945120D01*
X92858582Y-4350408D01*
X92773000Y-4780660D01*
X52627000Y-4780660D01*
X52627000Y-3506234D01*
X52644376Y-3329811D01*
X52694022Y-3166150D01*
X52774638Y-3015328D01*
X52883130Y-2883130D01*
X53015328Y-2774638D01*
X53166150Y-2694022D01*
X53329811Y-2644376D01*
X53506234Y-2627000D01*
X96493766Y-2627000D01*
X96670189Y-2644376D01*
X96670189Y-2644376D01*
G37*
X96670189Y-2644376D02*
X96833850Y-2694022D01*
X96984672Y-2774638D01*
X97116870Y-2883130D01*
X97225362Y-3015328D01*
X97305978Y-3166150D01*
X97355624Y-3329811D01*
X97373000Y-3506234D01*
X97373000Y-88993766D01*
X97355624Y-89170189D01*
X97305978Y-89333850D01*
X97225362Y-89484672D01*
X97116870Y-89616870D01*
X96984672Y-89725362D01*
X96833850Y-89805978D01*
X96670189Y-89855624D01*
X96493766Y-89873000D01*
X96074437Y-89873000D01*
X96339093Y-89763376D01*
X96646518Y-89557961D01*
X96907961Y-89296518D01*
X97113376Y-88989093D01*
X97254868Y-88647501D01*
X97327000Y-88284868D01*
X97327000Y-87915132D01*
X97254868Y-87552499D01*
X97113376Y-87210907D01*
X96907961Y-86903482D01*
X96646518Y-86642039D01*
X96339093Y-86436624D01*
X95997501Y-86295132D01*
X95634868Y-86223000D01*
X95265132Y-86223000D01*
X94902499Y-86295132D01*
X94560907Y-86436624D01*
X94253482Y-86642039D01*
X93992039Y-86903482D01*
X93786624Y-87210907D01*
X93645132Y-87552499D01*
X93573000Y-87915132D01*
X93573000Y-88284868D01*
X93645132Y-88647501D01*
X93786624Y-88989093D01*
X93992039Y-89296518D01*
X94253482Y-89557961D01*
X94560907Y-89763376D01*
X94825563Y-89873000D01*
X74006234Y-89873000D01*
X73829811Y-89855624D01*
X73666150Y-89805978D01*
X73515328Y-89725362D01*
X73383130Y-89616870D01*
X73274638Y-89484672D01*
X73194022Y-89333850D01*
X73144376Y-89170189D01*
X73127000Y-88993766D01*
X73127000Y-85500000D01*
X73361928Y-85500000D01*
X73374188Y-85624482D01*
X73410498Y-85744180D01*
X73469463Y-85854494D01*
X73548815Y-85951185D01*
X73645506Y-86030537D01*
X73755820Y-86089502D01*
X73875518Y-86125812D01*
X74000000Y-86138072D01*
X74468250Y-86135000D01*
X74627000Y-85976250D01*
X74627000Y-84873000D01*
X75373000Y-84873000D01*
X75373000Y-85976250D01*
X75531750Y-86135000D01*
X76000000Y-86138072D01*
X76124482Y-86125812D01*
X76244180Y-86089502D01*
X76354494Y-86030537D01*
X76451185Y-85951185D01*
X76530537Y-85854494D01*
X76589502Y-85744180D01*
X76625812Y-85624482D01*
X76638072Y-85500000D01*
X76635000Y-85031750D01*
X76476250Y-84873000D01*
X75373000Y-84873000D01*
X74627000Y-84873000D01*
X73523750Y-84873000D01*
X73365000Y-85031750D01*
X73361928Y-85500000D01*
X73127000Y-85500000D01*
X73127000Y-83500000D01*
X73361928Y-83500000D01*
X73365000Y-83968250D01*
X73523750Y-84127000D01*
X74627000Y-84127000D01*
X74627000Y-83023750D01*
X75373000Y-83023750D01*
X75373000Y-84127000D01*
X76476250Y-84127000D01*
X76635000Y-83968250D01*
X76638072Y-83500000D01*
X76625812Y-83375518D01*
X76589502Y-83255820D01*
X76530537Y-83145506D01*
X76451185Y-83048815D01*
X76354494Y-82969463D01*
X76244180Y-82910498D01*
X76124482Y-82874188D01*
X76000000Y-82861928D01*
X75531750Y-82865000D01*
X75373000Y-83023750D01*
X74627000Y-83023750D01*
X74468250Y-82865000D01*
X74000000Y-82861928D01*
X73875518Y-82874188D01*
X73755820Y-82910498D01*
X73645506Y-82969463D01*
X73548815Y-83048815D01*
X73469463Y-83145506D01*
X73410498Y-83255820D01*
X73374188Y-83375518D01*
X73361928Y-83500000D01*
X73127000Y-83500000D01*
X73127000Y-82918870D01*
X73144654Y-82741050D01*
X73195079Y-82576214D01*
X73276924Y-82424520D01*
X73387005Y-82291871D01*
X73521015Y-82183460D01*
X73673724Y-82103515D01*
X73839176Y-82055155D01*
X74017205Y-82039725D01*
X76591905Y-82071909D01*
X76604152Y-82071471D01*
X76796238Y-82055291D01*
X76820321Y-82050894D01*
X77005733Y-81998160D01*
X77028525Y-81989225D01*
X77200375Y-81901895D01*
X77221029Y-81888752D01*
X77372930Y-81770073D01*
X77382212Y-81762071D01*
X77793624Y-81371230D01*
X77928615Y-81265422D01*
X78075772Y-81189770D01*
X78234558Y-81143266D01*
X78405313Y-81127000D01*
X86500000Y-81127000D01*
X86512448Y-81126388D01*
X86707538Y-81107173D01*
X86731956Y-81102317D01*
X86919549Y-81045412D01*
X86942550Y-81035884D01*
X87115437Y-80943474D01*
X87136138Y-80929642D01*
X87287675Y-80805279D01*
X87305279Y-80787675D01*
X87429642Y-80636138D01*
X87443474Y-80615437D01*
X87535884Y-80442550D01*
X87545412Y-80419549D01*
X87602317Y-80231956D01*
X87607173Y-80207538D01*
X87626388Y-80012448D01*
X87627000Y-80000000D01*
X87627000Y-75414214D01*
X87626388Y-75401766D01*
X87607173Y-75206675D01*
X87602317Y-75182257D01*
X87545412Y-74994664D01*
X87535884Y-74971663D01*
X87443474Y-74798776D01*
X87429642Y-74778075D01*
X87305279Y-74626539D01*
X87296910Y-74617304D01*
X87194738Y-74515132D01*
X93573000Y-74515132D01*
X93573000Y-74884868D01*
X93645132Y-75247501D01*
X93786624Y-75589093D01*
X93992039Y-75896518D01*
X94253482Y-76157961D01*
X94560907Y-76363376D01*
X94902499Y-76504868D01*
X95265132Y-76577000D01*
X95634868Y-76577000D01*
X95997501Y-76504868D01*
X96339093Y-76363376D01*
X96646518Y-76157961D01*
X96907961Y-75896518D01*
X97113376Y-75589093D01*
X97254868Y-75247501D01*
X97327000Y-74884868D01*
X97327000Y-74515132D01*
X97254868Y-74152499D01*
X97113376Y-73810907D01*
X96907961Y-73503482D01*
X96646518Y-73242039D01*
X96339093Y-73036624D01*
X95997501Y-72895132D01*
X95634868Y-72823000D01*
X95265132Y-72823000D01*
X94902499Y-72895132D01*
X94560907Y-73036624D01*
X94253482Y-73242039D01*
X93992039Y-73503482D01*
X93786624Y-73810907D01*
X93645132Y-74152499D01*
X93573000Y-74515132D01*
X87194738Y-74515132D01*
X80965088Y-68285482D01*
X80941828Y-68229327D01*
X80763773Y-67962848D01*
X80537152Y-67736227D01*
X80270673Y-67558172D01*
X79974578Y-67435525D01*
X79881379Y-67416986D01*
X79817743Y-67397683D01*
X79793325Y-67392827D01*
X79727160Y-67386310D01*
X79660245Y-67373000D01*
X53506234Y-67373000D01*
X53329811Y-67355624D01*
X53166150Y-67305978D01*
X53015328Y-67225362D01*
X52883130Y-67116870D01*
X52774638Y-66984672D01*
X52694022Y-66833850D01*
X52644376Y-66670189D01*
X52627000Y-66493766D01*
X52627000Y-62701718D01*
X52695501Y-62645501D01*
X52773853Y-62550028D01*
X52832075Y-62441103D01*
X52867927Y-62322913D01*
X52880033Y-62200000D01*
X52880033Y-60799604D01*
X56473000Y-60799604D01*
X56473000Y-61100396D01*
X56531681Y-61395410D01*
X56646790Y-61673306D01*
X56813901Y-61923406D01*
X57026594Y-62136099D01*
X57276694Y-62303210D01*
X57554590Y-62418319D01*
X57849604Y-62477000D01*
X58150396Y-62477000D01*
X58445410Y-62418319D01*
X58723306Y-62303210D01*
X58943714Y-62155938D01*
X61821564Y-62155938D01*
X61922056Y-62380057D01*
X62212152Y-62465331D01*
X62513308Y-62492370D01*
X62813955Y-62460138D01*
X62962318Y-62415132D01*
X93573000Y-62415132D01*
X93573000Y-62784868D01*
X93645132Y-63147501D01*
X93786624Y-63489093D01*
X93992039Y-63796518D01*
X94253482Y-64057961D01*
X94560907Y-64263376D01*
X94902499Y-64404868D01*
X95265132Y-64477000D01*
X95634868Y-64477000D01*
X95997501Y-64404868D01*
X96339093Y-64263376D01*
X96646518Y-64057961D01*
X96907961Y-63796518D01*
X97113376Y-63489093D01*
X97254868Y-63147501D01*
X97327000Y-62784868D01*
X97327000Y-62415132D01*
X97254868Y-62052499D01*
X97113376Y-61710907D01*
X96907961Y-61403482D01*
X96646518Y-61142039D01*
X96339093Y-60936624D01*
X95997501Y-60795132D01*
X95634868Y-60723000D01*
X95265132Y-60723000D01*
X94902499Y-60795132D01*
X94560907Y-60936624D01*
X94253482Y-61142039D01*
X93992039Y-61403482D01*
X93786624Y-61710907D01*
X93645132Y-62052499D01*
X93573000Y-62415132D01*
X62962318Y-62415132D01*
X63077944Y-62380057D01*
X63178436Y-62155938D01*
X62500000Y-61477502D01*
X61821564Y-62155938D01*
X58943714Y-62155938D01*
X58973406Y-62136099D01*
X59186099Y-61923406D01*
X59353210Y-61673306D01*
X59468319Y-61395410D01*
X59527000Y-61100396D01*
X59527000Y-60963308D01*
X60957630Y-60963308D01*
X60989862Y-61263955D01*
X61069943Y-61527944D01*
X61294062Y-61628436D01*
X61972498Y-60950000D01*
X63027502Y-60950000D01*
X63705938Y-61628436D01*
X63930057Y-61527944D01*
X64015331Y-61237848D01*
X64042370Y-60936692D01*
X64010138Y-60636045D01*
X63930057Y-60372056D01*
X63705938Y-60271564D01*
X63027502Y-60950000D01*
X61972498Y-60950000D01*
X61294062Y-60271564D01*
X61069943Y-60372056D01*
X60984669Y-60662152D01*
X60957630Y-60963308D01*
X59527000Y-60963308D01*
X59527000Y-60799604D01*
X59468319Y-60504590D01*
X59353210Y-60226694D01*
X59186099Y-59976594D01*
X58973406Y-59763901D01*
X58943715Y-59744062D01*
X61821564Y-59744062D01*
X62500000Y-60422498D01*
X62896738Y-60025760D01*
X65101742Y-60025760D01*
X65240366Y-60280133D01*
X65582739Y-60396047D01*
X65941148Y-60442940D01*
X66301819Y-60419010D01*
X66650890Y-60325176D01*
X66759634Y-60280133D01*
X66898258Y-60025760D01*
X66000000Y-59127502D01*
X65101742Y-60025760D01*
X62896738Y-60025760D01*
X63178436Y-59744062D01*
X63077944Y-59519943D01*
X62787848Y-59434669D01*
X62486692Y-59407630D01*
X62186045Y-59439862D01*
X61922056Y-59519943D01*
X61821564Y-59744062D01*
X58943715Y-59744062D01*
X58723306Y-59596790D01*
X58445410Y-59481681D01*
X58150396Y-59423000D01*
X57849604Y-59423000D01*
X57554590Y-59481681D01*
X57276694Y-59596790D01*
X57026594Y-59763901D01*
X56813901Y-59976594D01*
X56646790Y-60226694D01*
X56531681Y-60504590D01*
X56473000Y-60799604D01*
X52880033Y-60799604D01*
X52880033Y-59700000D01*
X52867927Y-59577087D01*
X52832075Y-59458897D01*
X52773853Y-59349972D01*
X52695501Y-59254499D01*
X52627000Y-59198282D01*
X52627000Y-58726873D01*
X52694688Y-58690693D01*
X52780145Y-58620560D01*
X52830623Y-58614952D01*
X52948244Y-58579272D01*
X53056644Y-58521331D01*
X53151657Y-58443356D01*
X53773000Y-57822013D01*
X53773000Y-57909491D01*
X53854739Y-58320423D01*
X54015077Y-58707512D01*
X54247851Y-59055884D01*
X54544116Y-59352149D01*
X54892488Y-59584923D01*
X55279577Y-59745261D01*
X55690509Y-59827000D01*
X56109491Y-59827000D01*
X56520423Y-59745261D01*
X56907512Y-59584923D01*
X57255884Y-59352149D01*
X57552149Y-59055884D01*
X57784923Y-58707512D01*
X57853833Y-58541148D01*
X64157060Y-58541148D01*
X64180990Y-58901819D01*
X64274824Y-59250890D01*
X64319867Y-59359634D01*
X64574240Y-59498258D01*
X65472498Y-58600000D01*
X66527502Y-58600000D01*
X67425760Y-59498258D01*
X67680133Y-59359634D01*
X67796047Y-59017261D01*
X67842940Y-58658852D01*
X67819010Y-58298181D01*
X67725176Y-57949110D01*
X67680133Y-57840366D01*
X67425760Y-57701742D01*
X66527502Y-58600000D01*
X65472498Y-58600000D01*
X64574240Y-57701742D01*
X64319867Y-57840366D01*
X64203953Y-58182739D01*
X64157060Y-58541148D01*
X57853833Y-58541148D01*
X57945261Y-58320423D01*
X58027000Y-57909491D01*
X58027000Y-57550000D01*
X58711928Y-57550000D01*
X58724188Y-57674482D01*
X58760498Y-57794180D01*
X58819463Y-57904494D01*
X58898815Y-58001185D01*
X58995506Y-58080537D01*
X59105820Y-58139502D01*
X59225518Y-58175812D01*
X59350000Y-58188072D01*
X60468250Y-58185000D01*
X60627000Y-58026250D01*
X60627000Y-56673000D01*
X61373000Y-56673000D01*
X61373000Y-58026250D01*
X61531750Y-58185000D01*
X62650000Y-58188072D01*
X62774482Y-58175812D01*
X62894180Y-58139502D01*
X63004494Y-58080537D01*
X63101185Y-58001185D01*
X63180537Y-57904494D01*
X63239502Y-57794180D01*
X63275812Y-57674482D01*
X63288072Y-57550000D01*
X63286465Y-57174240D01*
X65101742Y-57174240D01*
X66000000Y-58072498D01*
X66898258Y-57174240D01*
X66759634Y-56919867D01*
X66417261Y-56803953D01*
X66058852Y-56757060D01*
X65698181Y-56780990D01*
X65349110Y-56874824D01*
X65240366Y-56919867D01*
X65101742Y-57174240D01*
X63286465Y-57174240D01*
X63285000Y-56831750D01*
X63126250Y-56673000D01*
X61373000Y-56673000D01*
X60627000Y-56673000D01*
X58873750Y-56673000D01*
X58715000Y-56831750D01*
X58711928Y-57550000D01*
X58027000Y-57550000D01*
X58027000Y-57490509D01*
X57945261Y-57079577D01*
X57784923Y-56692488D01*
X57552149Y-56344116D01*
X57255884Y-56047851D01*
X56907512Y-55815077D01*
X56520423Y-55654739D01*
X56109491Y-55573000D01*
X56022013Y-55573000D01*
X56964493Y-54630520D01*
X58851864Y-54656025D01*
X58819463Y-54695506D01*
X58760498Y-54805820D01*
X58724188Y-54925518D01*
X58711928Y-55050000D01*
X58715000Y-55768250D01*
X58873750Y-55927000D01*
X60627000Y-55927000D01*
X60627000Y-55907000D01*
X61373000Y-55907000D01*
X61373000Y-55927000D01*
X63126250Y-55927000D01*
X63285000Y-55768250D01*
X63288072Y-55050000D01*
X63275812Y-54925518D01*
X63239502Y-54805820D01*
X63190774Y-54714659D01*
X64099829Y-54726943D01*
X64230623Y-54714952D01*
X64348244Y-54679272D01*
X64456644Y-54621331D01*
X64551657Y-54543356D01*
X66004504Y-53090509D01*
X73973000Y-53090509D01*
X73973000Y-53509491D01*
X74054739Y-53920423D01*
X74215077Y-54307512D01*
X74447851Y-54655884D01*
X74744116Y-54952149D01*
X75092488Y-55184923D01*
X75479577Y-55345261D01*
X75890509Y-55427000D01*
X76309491Y-55427000D01*
X76720423Y-55345261D01*
X77107512Y-55184923D01*
X77455884Y-54952149D01*
X77752149Y-54655884D01*
X77984923Y-54307512D01*
X78145261Y-53920423D01*
X78227000Y-53509491D01*
X78227000Y-53090509D01*
X78145261Y-52679577D01*
X77984923Y-52292488D01*
X77752149Y-51944116D01*
X77455884Y-51647851D01*
X77107512Y-51415077D01*
X76720423Y-51254739D01*
X76309491Y-51173000D01*
X75890509Y-51173000D01*
X75479577Y-51254739D01*
X75092488Y-51415077D01*
X74744116Y-51647851D01*
X74447851Y-51944116D01*
X74215077Y-52292488D01*
X74054739Y-52679577D01*
X73973000Y-53090509D01*
X66004504Y-53090509D01*
X67839075Y-51255938D01*
X68821564Y-51255938D01*
X68922056Y-51480057D01*
X69212152Y-51565331D01*
X69513308Y-51592370D01*
X69813955Y-51560138D01*
X70077944Y-51480057D01*
X70178436Y-51255938D01*
X69500000Y-50577502D01*
X68821564Y-51255938D01*
X67839075Y-51255938D01*
X68151657Y-50943356D01*
X68231074Y-50846176D01*
X68288564Y-50737536D01*
X68291612Y-50727337D01*
X68294062Y-50728436D01*
X68972498Y-50050000D01*
X70027502Y-50050000D01*
X70705938Y-50728436D01*
X70930057Y-50627944D01*
X71015331Y-50337848D01*
X71042370Y-50036692D01*
X71027673Y-49899604D01*
X72473000Y-49899604D01*
X72473000Y-50200396D01*
X72531681Y-50495410D01*
X72646790Y-50773306D01*
X72813901Y-51023406D01*
X73026594Y-51236099D01*
X73276694Y-51403210D01*
X73554590Y-51518319D01*
X73849604Y-51577000D01*
X74150396Y-51577000D01*
X74445410Y-51518319D01*
X74723306Y-51403210D01*
X74973406Y-51236099D01*
X75186099Y-51023406D01*
X75353210Y-50773306D01*
X75468319Y-50495410D01*
X75527000Y-50200396D01*
X75527000Y-49899604D01*
X75468319Y-49604590D01*
X75353210Y-49326694D01*
X75186099Y-49076594D01*
X75124637Y-49015132D01*
X93573000Y-49015132D01*
X93573000Y-49384868D01*
X93645132Y-49747501D01*
X93786624Y-50089093D01*
X93992039Y-50396518D01*
X94253482Y-50657961D01*
X94560907Y-50863376D01*
X94902499Y-51004868D01*
X95265132Y-51077000D01*
X95634868Y-51077000D01*
X95997501Y-51004868D01*
X96339093Y-50863376D01*
X96646518Y-50657961D01*
X96907961Y-50396518D01*
X97113376Y-50089093D01*
X97254868Y-49747501D01*
X97327000Y-49384868D01*
X97327000Y-49015132D01*
X97254868Y-48652499D01*
X97113376Y-48310907D01*
X96907961Y-48003482D01*
X96646518Y-47742039D01*
X96339093Y-47536624D01*
X95997501Y-47395132D01*
X95634868Y-47323000D01*
X95265132Y-47323000D01*
X94902499Y-47395132D01*
X94560907Y-47536624D01*
X94253482Y-47742039D01*
X93992039Y-48003482D01*
X93786624Y-48310907D01*
X93645132Y-48652499D01*
X93573000Y-49015132D01*
X75124637Y-49015132D01*
X74973406Y-48863901D01*
X74723306Y-48696790D01*
X74445410Y-48581681D01*
X74150396Y-48523000D01*
X73849604Y-48523000D01*
X73554590Y-48581681D01*
X73276694Y-48696790D01*
X73026594Y-48863901D01*
X72813901Y-49076594D01*
X72646790Y-49326694D01*
X72531681Y-49604590D01*
X72473000Y-49899604D01*
X71027673Y-49899604D01*
X71010138Y-49736045D01*
X70930057Y-49472056D01*
X70705938Y-49371564D01*
X70027502Y-50050000D01*
X68972498Y-50050000D01*
X68330776Y-49408278D01*
X68328434Y-48844062D01*
X68821564Y-48844062D01*
X69500000Y-49522498D01*
X70178436Y-48844062D01*
X70077944Y-48619943D01*
X69787848Y-48534669D01*
X69486692Y-48507630D01*
X69186045Y-48539862D01*
X68922056Y-48619943D01*
X68821564Y-48844062D01*
X68328434Y-48844062D01*
X68326995Y-48497398D01*
X68314952Y-48377678D01*
X68279272Y-48260057D01*
X68221331Y-48151657D01*
X68143356Y-48056644D01*
X67143356Y-47056644D01*
X67048343Y-46978669D01*
X66939943Y-46920728D01*
X66822322Y-46885048D01*
X66700000Y-46873000D01*
X66626762Y-46873000D01*
X66571866Y-46843658D01*
X66438596Y-46803231D01*
X66334723Y-46793000D01*
X66300000Y-46789580D01*
X66265277Y-46793000D01*
X65934723Y-46793000D01*
X65900000Y-46789580D01*
X65865277Y-46793000D01*
X65761404Y-46803231D01*
X65628134Y-46843658D01*
X65573238Y-46873000D01*
X61226762Y-46873000D01*
X61171866Y-46843658D01*
X61038596Y-46803231D01*
X60900000Y-46789580D01*
X60865278Y-46793000D01*
X56734722Y-46793000D01*
X56699999Y-46789580D01*
X56561403Y-46803231D01*
X56428134Y-46843658D01*
X56305312Y-46909307D01*
X56197657Y-46997657D01*
X56175520Y-47024631D01*
X52857231Y-50342920D01*
X52886082Y-50050000D01*
X52849841Y-49682044D01*
X52742513Y-49328228D01*
X52627000Y-49112119D01*
X52627000Y-43701718D01*
X52695501Y-43645501D01*
X52773853Y-43550028D01*
X52832075Y-43441103D01*
X52867927Y-43322913D01*
X52880033Y-43200000D01*
X52880033Y-41799604D01*
X56473000Y-41799604D01*
X56473000Y-42100396D01*
X56531681Y-42395410D01*
X56646790Y-42673306D01*
X56813901Y-42923406D01*
X57026594Y-43136099D01*
X57276694Y-43303210D01*
X57554590Y-43418319D01*
X57849604Y-43477000D01*
X58150396Y-43477000D01*
X58445410Y-43418319D01*
X58723306Y-43303210D01*
X58943714Y-43155938D01*
X61821564Y-43155938D01*
X61922056Y-43380057D01*
X62212152Y-43465331D01*
X62513308Y-43492370D01*
X62813955Y-43460138D01*
X62962318Y-43415132D01*
X93573000Y-43415132D01*
X93573000Y-43784868D01*
X93645132Y-44147501D01*
X93786624Y-44489093D01*
X93992039Y-44796518D01*
X94253482Y-45057961D01*
X94560907Y-45263376D01*
X94902499Y-45404868D01*
X95265132Y-45477000D01*
X95634868Y-45477000D01*
X95997501Y-45404868D01*
X96339093Y-45263376D01*
X96646518Y-45057961D01*
X96907961Y-44796518D01*
X97113376Y-44489093D01*
X97254868Y-44147501D01*
X97327000Y-43784868D01*
X97327000Y-43415132D01*
X97254868Y-43052499D01*
X97113376Y-42710907D01*
X96907961Y-42403482D01*
X96646518Y-42142039D01*
X96339093Y-41936624D01*
X95997501Y-41795132D01*
X95634868Y-41723000D01*
X95265132Y-41723000D01*
X94902499Y-41795132D01*
X94560907Y-41936624D01*
X94253482Y-42142039D01*
X93992039Y-42403482D01*
X93786624Y-42710907D01*
X93645132Y-43052499D01*
X93573000Y-43415132D01*
X62962318Y-43415132D01*
X63077944Y-43380057D01*
X63178436Y-43155938D01*
X62500000Y-42477502D01*
X61821564Y-43155938D01*
X58943714Y-43155938D01*
X58973406Y-43136099D01*
X59186099Y-42923406D01*
X59353210Y-42673306D01*
X59468319Y-42395410D01*
X59527000Y-42100396D01*
X59527000Y-41963308D01*
X60957630Y-41963308D01*
X60989862Y-42263955D01*
X61069943Y-42527944D01*
X61294062Y-42628436D01*
X61972498Y-41950000D01*
X63027502Y-41950000D01*
X63705938Y-42628436D01*
X63930057Y-42527944D01*
X64015331Y-42237848D01*
X64042370Y-41936692D01*
X64010138Y-41636045D01*
X63930057Y-41372056D01*
X63705938Y-41271564D01*
X63027502Y-41950000D01*
X61972498Y-41950000D01*
X61294062Y-41271564D01*
X61069943Y-41372056D01*
X60984669Y-41662152D01*
X60957630Y-41963308D01*
X59527000Y-41963308D01*
X59527000Y-41799604D01*
X59468319Y-41504590D01*
X59353210Y-41226694D01*
X59186099Y-40976594D01*
X58973406Y-40763901D01*
X58943715Y-40744062D01*
X61821564Y-40744062D01*
X62500000Y-41422498D01*
X62896738Y-41025760D01*
X65101742Y-41025760D01*
X65240366Y-41280133D01*
X65582739Y-41396047D01*
X65941148Y-41442940D01*
X66301819Y-41419010D01*
X66650890Y-41325176D01*
X66759634Y-41280133D01*
X66898258Y-41025760D01*
X66000000Y-40127502D01*
X65101742Y-41025760D01*
X62896738Y-41025760D01*
X63178436Y-40744062D01*
X63077944Y-40519943D01*
X62787848Y-40434669D01*
X62486692Y-40407630D01*
X62186045Y-40439862D01*
X61922056Y-40519943D01*
X61821564Y-40744062D01*
X58943715Y-40744062D01*
X58723306Y-40596790D01*
X58445410Y-40481681D01*
X58150396Y-40423000D01*
X57849604Y-40423000D01*
X57554590Y-40481681D01*
X57276694Y-40596790D01*
X57026594Y-40763901D01*
X56813901Y-40976594D01*
X56646790Y-41226694D01*
X56531681Y-41504590D01*
X56473000Y-41799604D01*
X52880033Y-41799604D01*
X52880033Y-40700000D01*
X52867927Y-40577087D01*
X52832075Y-40458897D01*
X52773853Y-40349972D01*
X52695501Y-40254499D01*
X52627000Y-40198282D01*
X52627000Y-39172848D01*
X53949822Y-37850026D01*
X53854739Y-38079577D01*
X53773000Y-38490509D01*
X53773000Y-38909491D01*
X53854739Y-39320423D01*
X54015077Y-39707512D01*
X54247851Y-40055884D01*
X54544116Y-40352149D01*
X54892488Y-40584923D01*
X55279577Y-40745261D01*
X55690509Y-40827000D01*
X56109491Y-40827000D01*
X56520423Y-40745261D01*
X56907512Y-40584923D01*
X57255884Y-40352149D01*
X57552149Y-40055884D01*
X57784923Y-39707512D01*
X57853833Y-39541148D01*
X64157060Y-39541148D01*
X64180990Y-39901819D01*
X64274824Y-40250890D01*
X64319867Y-40359634D01*
X64574240Y-40498258D01*
X65472498Y-39600000D01*
X66527502Y-39600000D01*
X67425760Y-40498258D01*
X67680133Y-40359634D01*
X67796047Y-40017261D01*
X67842940Y-39658852D01*
X67819010Y-39298181D01*
X67725176Y-38949110D01*
X67680133Y-38840366D01*
X67425760Y-38701742D01*
X66527502Y-39600000D01*
X65472498Y-39600000D01*
X64574240Y-38701742D01*
X64319867Y-38840366D01*
X64203953Y-39182739D01*
X64157060Y-39541148D01*
X57853833Y-39541148D01*
X57945261Y-39320423D01*
X58027000Y-38909491D01*
X58027000Y-38550000D01*
X58711928Y-38550000D01*
X58724188Y-38674482D01*
X58760498Y-38794180D01*
X58819463Y-38904494D01*
X58898815Y-39001185D01*
X58995506Y-39080537D01*
X59105820Y-39139502D01*
X59225518Y-39175812D01*
X59350000Y-39188072D01*
X60468250Y-39185000D01*
X60627000Y-39026250D01*
X60627000Y-37673000D01*
X61373000Y-37673000D01*
X61373000Y-39026250D01*
X61531750Y-39185000D01*
X62650000Y-39188072D01*
X62774482Y-39175812D01*
X62894180Y-39139502D01*
X63004494Y-39080537D01*
X63101185Y-39001185D01*
X63180537Y-38904494D01*
X63239502Y-38794180D01*
X63275812Y-38674482D01*
X63288072Y-38550000D01*
X63286465Y-38174240D01*
X65101742Y-38174240D01*
X66000000Y-39072498D01*
X66898258Y-38174240D01*
X66759634Y-37919867D01*
X66417261Y-37803953D01*
X66058852Y-37757060D01*
X65698181Y-37780990D01*
X65349110Y-37874824D01*
X65240366Y-37919867D01*
X65101742Y-38174240D01*
X63286465Y-38174240D01*
X63285000Y-37831750D01*
X63126250Y-37673000D01*
X61373000Y-37673000D01*
X60627000Y-37673000D01*
X58873750Y-37673000D01*
X58715000Y-37831750D01*
X58711928Y-38550000D01*
X58027000Y-38550000D01*
X58027000Y-38490509D01*
X57945261Y-38079577D01*
X57784923Y-37692488D01*
X57552149Y-37344116D01*
X57255884Y-37047851D01*
X56907512Y-36815077D01*
X56520423Y-36654739D01*
X56109491Y-36573000D01*
X55690509Y-36573000D01*
X55279577Y-36654739D01*
X55050026Y-36749822D01*
X55749848Y-36050000D01*
X58711928Y-36050000D01*
X58715000Y-36768250D01*
X58873750Y-36927000D01*
X60627000Y-36927000D01*
X60627000Y-35573750D01*
X61373000Y-35573750D01*
X61373000Y-36927000D01*
X63126250Y-36927000D01*
X63285000Y-36768250D01*
X63288072Y-36050000D01*
X63275812Y-35925518D01*
X63239502Y-35805820D01*
X63180537Y-35695506D01*
X63101185Y-35598815D01*
X63004494Y-35519463D01*
X62894180Y-35460498D01*
X62774482Y-35424188D01*
X62650000Y-35411928D01*
X61531750Y-35415000D01*
X61373000Y-35573750D01*
X60627000Y-35573750D01*
X60468250Y-35415000D01*
X59350000Y-35411928D01*
X59225518Y-35424188D01*
X59105820Y-35460498D01*
X58995506Y-35519463D01*
X58898815Y-35598815D01*
X58819463Y-35695506D01*
X58760498Y-35805820D01*
X58724188Y-35925518D01*
X58711928Y-36050000D01*
X55749848Y-36050000D01*
X56392849Y-35407000D01*
X63765277Y-35407000D01*
X63800000Y-35410420D01*
X63938596Y-35396769D01*
X64071866Y-35356342D01*
X64194688Y-35290693D01*
X64302343Y-35202343D01*
X64324484Y-35175364D01*
X65409339Y-34090509D01*
X73973000Y-34090509D01*
X73973000Y-34509491D01*
X74054739Y-34920423D01*
X74215077Y-35307512D01*
X74447851Y-35655884D01*
X74744116Y-35952149D01*
X75092488Y-36184923D01*
X75479577Y-36345261D01*
X75890509Y-36427000D01*
X76309491Y-36427000D01*
X76720423Y-36345261D01*
X77107512Y-36184923D01*
X77455884Y-35952149D01*
X77752149Y-35655884D01*
X77984923Y-35307512D01*
X78145261Y-34920423D01*
X78227000Y-34509491D01*
X78227000Y-34090509D01*
X78145261Y-33679577D01*
X77984923Y-33292488D01*
X77752149Y-32944116D01*
X77455884Y-32647851D01*
X77107512Y-32415077D01*
X76720423Y-32254739D01*
X76309491Y-32173000D01*
X75890509Y-32173000D01*
X75479577Y-32254739D01*
X75092488Y-32415077D01*
X74744116Y-32647851D01*
X74447851Y-32944116D01*
X74215077Y-33292488D01*
X74054739Y-33679577D01*
X73973000Y-34090509D01*
X65409339Y-34090509D01*
X67243910Y-32255938D01*
X68821564Y-32255938D01*
X68922056Y-32480057D01*
X69212152Y-32565331D01*
X69513308Y-32592370D01*
X69813955Y-32560138D01*
X70077944Y-32480057D01*
X70178436Y-32255938D01*
X69500000Y-31577502D01*
X68821564Y-32255938D01*
X67243910Y-32255938D01*
X67875374Y-31624475D01*
X67902342Y-31602343D01*
X67990693Y-31494688D01*
X68015462Y-31448347D01*
X68069943Y-31627944D01*
X68294062Y-31728436D01*
X68972498Y-31050000D01*
X70027502Y-31050000D01*
X70705938Y-31728436D01*
X70930057Y-31627944D01*
X71015331Y-31337848D01*
X71042370Y-31036692D01*
X71027673Y-30899604D01*
X72473000Y-30899604D01*
X72473000Y-31200396D01*
X72531681Y-31495410D01*
X72646790Y-31773306D01*
X72813901Y-32023406D01*
X73026594Y-32236099D01*
X73276694Y-32403210D01*
X73554590Y-32518319D01*
X73849604Y-32577000D01*
X74150396Y-32577000D01*
X74445410Y-32518319D01*
X74723306Y-32403210D01*
X74973406Y-32236099D01*
X75186099Y-32023406D01*
X75353210Y-31773306D01*
X75468319Y-31495410D01*
X75527000Y-31200396D01*
X75527000Y-30899604D01*
X75468319Y-30604590D01*
X75353210Y-30326694D01*
X75186099Y-30076594D01*
X75124637Y-30015132D01*
X93573000Y-30015132D01*
X93573000Y-30384868D01*
X93645132Y-30747501D01*
X93786624Y-31089093D01*
X93992039Y-31396518D01*
X94253482Y-31657961D01*
X94560907Y-31863376D01*
X94902499Y-32004868D01*
X95265132Y-32077000D01*
X95634868Y-32077000D01*
X95997501Y-32004868D01*
X96339093Y-31863376D01*
X96646518Y-31657961D01*
X96907961Y-31396518D01*
X97113376Y-31089093D01*
X97254868Y-30747501D01*
X97327000Y-30384868D01*
X97327000Y-30015132D01*
X97254868Y-29652499D01*
X97113376Y-29310907D01*
X96907961Y-29003482D01*
X96646518Y-28742039D01*
X96339093Y-28536624D01*
X95997501Y-28395132D01*
X95634868Y-28323000D01*
X95265132Y-28323000D01*
X94902499Y-28395132D01*
X94560907Y-28536624D01*
X94253482Y-28742039D01*
X93992039Y-29003482D01*
X93786624Y-29310907D01*
X93645132Y-29652499D01*
X93573000Y-30015132D01*
X75124637Y-30015132D01*
X74973406Y-29863901D01*
X74723306Y-29696790D01*
X74445410Y-29581681D01*
X74150396Y-29523000D01*
X73849604Y-29523000D01*
X73554590Y-29581681D01*
X73276694Y-29696790D01*
X73026594Y-29863901D01*
X72813901Y-30076594D01*
X72646790Y-30326694D01*
X72531681Y-30604590D01*
X72473000Y-30899604D01*
X71027673Y-30899604D01*
X71010138Y-30736045D01*
X70930057Y-30472056D01*
X70705938Y-30371564D01*
X70027502Y-31050000D01*
X68972498Y-31050000D01*
X68294062Y-30371564D01*
X68107000Y-30455440D01*
X68107000Y-29844062D01*
X68821564Y-29844062D01*
X69500000Y-30522498D01*
X70178436Y-29844062D01*
X70077944Y-29619943D01*
X69787848Y-29534669D01*
X69486692Y-29507630D01*
X69186045Y-29539862D01*
X68922056Y-29619943D01*
X68821564Y-29844062D01*
X68107000Y-29844062D01*
X68107000Y-29534723D01*
X68110420Y-29500000D01*
X68096769Y-29361403D01*
X68056342Y-29228134D01*
X68039577Y-29196769D01*
X67990693Y-29105312D01*
X67902343Y-28997657D01*
X67875369Y-28975520D01*
X66924484Y-28024636D01*
X66902343Y-27997657D01*
X66794688Y-27909307D01*
X66671866Y-27843658D01*
X66538596Y-27803231D01*
X66434723Y-27793000D01*
X66400000Y-27789580D01*
X66365277Y-27793000D01*
X66034723Y-27793000D01*
X66000000Y-27789580D01*
X65965278Y-27793000D01*
X65965277Y-27793000D01*
X65861404Y-27803231D01*
X65728134Y-27843658D01*
X65673238Y-27873000D01*
X61226762Y-27873000D01*
X61171866Y-27843658D01*
X61038596Y-27803231D01*
X60934723Y-27793000D01*
X60900000Y-27789580D01*
X60865278Y-27793000D01*
X56434723Y-27793000D01*
X56400000Y-27789580D01*
X56261403Y-27803231D01*
X56128134Y-27843658D01*
X56005312Y-27909307D01*
X55897657Y-27997657D01*
X55875520Y-28024631D01*
X52882860Y-31017291D01*
X52849841Y-30682044D01*
X52742513Y-30328228D01*
X52627000Y-30112119D01*
X52627000Y-24701718D01*
X52695501Y-24645501D01*
X52773853Y-24550028D01*
X52832075Y-24441103D01*
X52867927Y-24322913D01*
X52880033Y-24200000D01*
X52880033Y-22799604D01*
X56473000Y-22799604D01*
X56473000Y-23100396D01*
X56531681Y-23395410D01*
X56646790Y-23673306D01*
X56813901Y-23923406D01*
X57026594Y-24136099D01*
X57276694Y-24303210D01*
X57554590Y-24418319D01*
X57849604Y-24477000D01*
X58150396Y-24477000D01*
X58445410Y-24418319D01*
X58723306Y-24303210D01*
X58943714Y-24155938D01*
X61821564Y-24155938D01*
X61922056Y-24380057D01*
X62212152Y-24465331D01*
X62513308Y-24492370D01*
X62813955Y-24460138D01*
X62962318Y-24415132D01*
X93573000Y-24415132D01*
X93573000Y-24784868D01*
X93645132Y-25147501D01*
X93786624Y-25489093D01*
X93992039Y-25796518D01*
X94253482Y-26057961D01*
X94560907Y-26263376D01*
X94902499Y-26404868D01*
X95265132Y-26477000D01*
X95634868Y-26477000D01*
X95997501Y-26404868D01*
X96339093Y-26263376D01*
X96646518Y-26057961D01*
X96907961Y-25796518D01*
X97113376Y-25489093D01*
X97254868Y-25147501D01*
X97327000Y-24784868D01*
X97327000Y-24415132D01*
X97254868Y-24052499D01*
X97113376Y-23710907D01*
X96907961Y-23403482D01*
X96646518Y-23142039D01*
X96339093Y-22936624D01*
X95997501Y-22795132D01*
X95634868Y-22723000D01*
X95265132Y-22723000D01*
X94902499Y-22795132D01*
X94560907Y-22936624D01*
X94253482Y-23142039D01*
X93992039Y-23403482D01*
X93786624Y-23710907D01*
X93645132Y-24052499D01*
X93573000Y-24415132D01*
X62962318Y-24415132D01*
X63077944Y-24380057D01*
X63178436Y-24155938D01*
X62500000Y-23477502D01*
X61821564Y-24155938D01*
X58943714Y-24155938D01*
X58973406Y-24136099D01*
X59186099Y-23923406D01*
X59353210Y-23673306D01*
X59468319Y-23395410D01*
X59527000Y-23100396D01*
X59527000Y-22963308D01*
X60957630Y-22963308D01*
X60989862Y-23263955D01*
X61069943Y-23527944D01*
X61294062Y-23628436D01*
X61972498Y-22950000D01*
X63027502Y-22950000D01*
X63705938Y-23628436D01*
X63930057Y-23527944D01*
X64015331Y-23237848D01*
X64042370Y-22936692D01*
X64010138Y-22636045D01*
X63930057Y-22372056D01*
X63705938Y-22271564D01*
X63027502Y-22950000D01*
X61972498Y-22950000D01*
X61294062Y-22271564D01*
X61069943Y-22372056D01*
X60984669Y-22662152D01*
X60957630Y-22963308D01*
X59527000Y-22963308D01*
X59527000Y-22799604D01*
X59468319Y-22504590D01*
X59353210Y-22226694D01*
X59186099Y-21976594D01*
X58973406Y-21763901D01*
X58943715Y-21744062D01*
X61821564Y-21744062D01*
X62500000Y-22422498D01*
X62896738Y-22025760D01*
X65101742Y-22025760D01*
X65240366Y-22280133D01*
X65582739Y-22396047D01*
X65941148Y-22442940D01*
X66301819Y-22419010D01*
X66650890Y-22325176D01*
X66759634Y-22280133D01*
X66898258Y-22025760D01*
X66000000Y-21127502D01*
X65101742Y-22025760D01*
X62896738Y-22025760D01*
X63178436Y-21744062D01*
X63077944Y-21519943D01*
X62787848Y-21434669D01*
X62486692Y-21407630D01*
X62186045Y-21439862D01*
X61922056Y-21519943D01*
X61821564Y-21744062D01*
X58943715Y-21744062D01*
X58723306Y-21596790D01*
X58445410Y-21481681D01*
X58150396Y-21423000D01*
X57849604Y-21423000D01*
X57554590Y-21481681D01*
X57276694Y-21596790D01*
X57026594Y-21763901D01*
X56813901Y-21976594D01*
X56646790Y-22226694D01*
X56531681Y-22504590D01*
X56473000Y-22799604D01*
X52880033Y-22799604D01*
X52880033Y-21700000D01*
X52867927Y-21577087D01*
X52832075Y-21458897D01*
X52773853Y-21349972D01*
X52695501Y-21254499D01*
X52627000Y-21198282D01*
X52627000Y-20743130D01*
X52647418Y-20741119D01*
X52789170Y-20698118D01*
X52919810Y-20628290D01*
X53034317Y-20534317D01*
X53057867Y-20505621D01*
X53773000Y-19790488D01*
X53773000Y-19909491D01*
X53854739Y-20320423D01*
X54015077Y-20707512D01*
X54247851Y-21055884D01*
X54544116Y-21352149D01*
X54892488Y-21584923D01*
X55279577Y-21745261D01*
X55690509Y-21827000D01*
X56109491Y-21827000D01*
X56520423Y-21745261D01*
X56907512Y-21584923D01*
X57255884Y-21352149D01*
X57552149Y-21055884D01*
X57784923Y-20707512D01*
X57853833Y-20541148D01*
X64157060Y-20541148D01*
X64180990Y-20901819D01*
X64274824Y-21250890D01*
X64319867Y-21359634D01*
X64574240Y-21498258D01*
X65472498Y-20600000D01*
X66527502Y-20600000D01*
X67425760Y-21498258D01*
X67680133Y-21359634D01*
X67796047Y-21017261D01*
X67842940Y-20658852D01*
X67819010Y-20298181D01*
X67725176Y-19949110D01*
X67680133Y-19840366D01*
X67425760Y-19701742D01*
X66527502Y-20600000D01*
X65472498Y-20600000D01*
X64574240Y-19701742D01*
X64319867Y-19840366D01*
X64203953Y-20182739D01*
X64157060Y-20541148D01*
X57853833Y-20541148D01*
X57945261Y-20320423D01*
X58027000Y-19909491D01*
X58027000Y-19550000D01*
X58711928Y-19550000D01*
X58724188Y-19674482D01*
X58760498Y-19794180D01*
X58819463Y-19904494D01*
X58898815Y-20001185D01*
X58995506Y-20080537D01*
X59105820Y-20139502D01*
X59225518Y-20175812D01*
X59350000Y-20188072D01*
X60468250Y-20185000D01*
X60627000Y-20026250D01*
X60627000Y-18673000D01*
X61373000Y-18673000D01*
X61373000Y-20026250D01*
X61531750Y-20185000D01*
X62650000Y-20188072D01*
X62774482Y-20175812D01*
X62894180Y-20139502D01*
X63004494Y-20080537D01*
X63101185Y-20001185D01*
X63180537Y-19904494D01*
X63239502Y-19794180D01*
X63275812Y-19674482D01*
X63288072Y-19550000D01*
X63286465Y-19174240D01*
X65101742Y-19174240D01*
X66000000Y-20072498D01*
X66898258Y-19174240D01*
X66759634Y-18919867D01*
X66417261Y-18803953D01*
X66058852Y-18757060D01*
X65698181Y-18780990D01*
X65349110Y-18874824D01*
X65240366Y-18919867D01*
X65101742Y-19174240D01*
X63286465Y-19174240D01*
X63285000Y-18831750D01*
X63126250Y-18673000D01*
X61373000Y-18673000D01*
X60627000Y-18673000D01*
X58873750Y-18673000D01*
X58715000Y-18831750D01*
X58711928Y-19550000D01*
X58027000Y-19550000D01*
X58027000Y-19490509D01*
X57945261Y-19079577D01*
X57784923Y-18692488D01*
X57552149Y-18344116D01*
X57255884Y-18047851D01*
X56907512Y-17815077D01*
X56520423Y-17654739D01*
X56109491Y-17573000D01*
X55990489Y-17573000D01*
X56811489Y-16752000D01*
X58789266Y-16752000D01*
X58760498Y-16805820D01*
X58724188Y-16925518D01*
X58711928Y-17050000D01*
X58715000Y-17768250D01*
X58873750Y-17927000D01*
X60627000Y-17927000D01*
X60627000Y-17907000D01*
X61373000Y-17907000D01*
X61373000Y-17927000D01*
X63126250Y-17927000D01*
X63285000Y-17768250D01*
X63288072Y-17050000D01*
X63275812Y-16925518D01*
X63239502Y-16805820D01*
X63210734Y-16752000D01*
X63963065Y-16752000D01*
X64000000Y-16755638D01*
X64036935Y-16752000D01*
X64036938Y-16752000D01*
X64147418Y-16741119D01*
X64289170Y-16698118D01*
X64419810Y-16628290D01*
X64534317Y-16534317D01*
X64557867Y-16505621D01*
X65972979Y-15090509D01*
X73973000Y-15090509D01*
X73973000Y-15509491D01*
X74054739Y-15920423D01*
X74215077Y-16307512D01*
X74447851Y-16655884D01*
X74744116Y-16952149D01*
X75092488Y-17184923D01*
X75479577Y-17345261D01*
X75890509Y-17427000D01*
X76309491Y-17427000D01*
X76720423Y-17345261D01*
X77107512Y-17184923D01*
X77455884Y-16952149D01*
X77752149Y-16655884D01*
X77984923Y-16307512D01*
X78145261Y-15920423D01*
X78227000Y-15509491D01*
X78227000Y-15090509D01*
X78145261Y-14679577D01*
X77984923Y-14292488D01*
X77752149Y-13944116D01*
X77455884Y-13647851D01*
X77107512Y-13415077D01*
X76720423Y-13254739D01*
X76309491Y-13173000D01*
X75890509Y-13173000D01*
X75479577Y-13254739D01*
X75092488Y-13415077D01*
X74744116Y-13647851D01*
X74447851Y-13944116D01*
X74215077Y-14292488D01*
X74054739Y-14679577D01*
X73973000Y-15090509D01*
X65972979Y-15090509D01*
X67807550Y-13255938D01*
X68821564Y-13255938D01*
X68922056Y-13480057D01*
X69212152Y-13565331D01*
X69513308Y-13592370D01*
X69813955Y-13560138D01*
X70077944Y-13480057D01*
X70178436Y-13255938D01*
X69500000Y-12577502D01*
X68821564Y-13255938D01*
X67807550Y-13255938D01*
X68005627Y-13057862D01*
X68034317Y-13034317D01*
X68069782Y-12991103D01*
X68128290Y-12919811D01*
X68198117Y-12789171D01*
X68198118Y-12789170D01*
X68225824Y-12697839D01*
X68294062Y-12728436D01*
X68972498Y-12050000D01*
X70027502Y-12050000D01*
X70705938Y-12728436D01*
X70930057Y-12627944D01*
X71015331Y-12337848D01*
X71042370Y-12036692D01*
X71027673Y-11899604D01*
X72473000Y-11899604D01*
X72473000Y-12200396D01*
X72531681Y-12495410D01*
X72646790Y-12773306D01*
X72813901Y-13023406D01*
X73026594Y-13236099D01*
X73276694Y-13403210D01*
X73554590Y-13518319D01*
X73849604Y-13577000D01*
X74150396Y-13577000D01*
X74445410Y-13518319D01*
X74723306Y-13403210D01*
X74973406Y-13236099D01*
X75186099Y-13023406D01*
X75353210Y-12773306D01*
X75468319Y-12495410D01*
X75527000Y-12200396D01*
X75527000Y-11899604D01*
X75468319Y-11604590D01*
X75353210Y-11326694D01*
X75186099Y-11076594D01*
X75124637Y-11015132D01*
X93573000Y-11015132D01*
X93573000Y-11384868D01*
X93645132Y-11747501D01*
X93786624Y-12089093D01*
X93992039Y-12396518D01*
X94253482Y-12657961D01*
X94560907Y-12863376D01*
X94902499Y-13004868D01*
X95265132Y-13077000D01*
X95634868Y-13077000D01*
X95997501Y-13004868D01*
X96339093Y-12863376D01*
X96646518Y-12657961D01*
X96907961Y-12396518D01*
X97113376Y-12089093D01*
X97254868Y-11747501D01*
X97327000Y-11384868D01*
X97327000Y-11015132D01*
X97254868Y-10652499D01*
X97113376Y-10310907D01*
X96907961Y-10003482D01*
X96646518Y-9742039D01*
X96339093Y-9536624D01*
X95997501Y-9395132D01*
X95634868Y-9323000D01*
X95265132Y-9323000D01*
X94902499Y-9395132D01*
X94560907Y-9536624D01*
X94253482Y-9742039D01*
X93992039Y-10003482D01*
X93786624Y-10310907D01*
X93645132Y-10652499D01*
X93573000Y-11015132D01*
X75124637Y-11015132D01*
X74973406Y-10863901D01*
X74723306Y-10696790D01*
X74445410Y-10581681D01*
X74150396Y-10523000D01*
X73849604Y-10523000D01*
X73554590Y-10581681D01*
X73276694Y-10696790D01*
X73026594Y-10863901D01*
X72813901Y-11076594D01*
X72646790Y-11326694D01*
X72531681Y-11604590D01*
X72473000Y-11899604D01*
X71027673Y-11899604D01*
X71010138Y-11736045D01*
X70930057Y-11472056D01*
X70705938Y-11371564D01*
X70027502Y-12050000D01*
X68972498Y-12050000D01*
X68294062Y-11371564D01*
X68252000Y-11390424D01*
X68252000Y-10844062D01*
X68821564Y-10844062D01*
X69500000Y-11522498D01*
X70178436Y-10844062D01*
X70077944Y-10619943D01*
X69787848Y-10534669D01*
X69486692Y-10507630D01*
X69186045Y-10539862D01*
X68922056Y-10619943D01*
X68821564Y-10844062D01*
X68252000Y-10844062D01*
X68252000Y-10536935D01*
X68255638Y-10500000D01*
X68252000Y-10463062D01*
X68241119Y-10352582D01*
X68198118Y-10210830D01*
X68128290Y-10080190D01*
X68128265Y-10080159D01*
X68113030Y-10051657D01*
X68035055Y-9956644D01*
X67035055Y-8956644D01*
X66940042Y-8878669D01*
X66831642Y-8820728D01*
X66814963Y-8815668D01*
X66789170Y-8801882D01*
X66647418Y-8758881D01*
X66536938Y-8748000D01*
X66536935Y-8748000D01*
X66500000Y-8744362D01*
X66463065Y-8748000D01*
X61036938Y-8748000D01*
X61000000Y-8744362D01*
X60963062Y-8748000D01*
X56536935Y-8748000D01*
X56500000Y-8744362D01*
X56463064Y-8748000D01*
X56463062Y-8748000D01*
X56352582Y-8758881D01*
X56210830Y-8801882D01*
X56080190Y-8871710D01*
X55965683Y-8965683D01*
X55942133Y-8994379D01*
X52886035Y-12050477D01*
X52886082Y-12050000D01*
X52849841Y-11682044D01*
X52742513Y-11328228D01*
X52627000Y-11112119D01*
X52627000Y-4780660D01*
X92773000Y-4780660D01*
X92773000Y-5219340D01*
X92858582Y-5649592D01*
X93026458Y-6054880D01*
X93270176Y-6419630D01*
X93580370Y-6729824D01*
X93945120Y-6973542D01*
X94350408Y-7141418D01*
X94780660Y-7227000D01*
X95219340Y-7227000D01*
X95649592Y-7141418D01*
X96054880Y-6973542D01*
X96419630Y-6729824D01*
X96729824Y-6419630D01*
X96973542Y-6054880D01*
X97141418Y-5649592D01*
X97227000Y-5219340D01*
X97227000Y-4780660D01*
X97141418Y-4350408D01*
X96973542Y-3945120D01*
X96729824Y-3580370D01*
X96419630Y-3270176D01*
X96054880Y-3026458D01*
X95649592Y-2858582D01*
X95219340Y-2773000D01*
X94780660Y-2773000D01*
X94350408Y-2858582D01*
X93945120Y-3026458D01*
X93580370Y-3270176D01*
X93270176Y-3580370D01*
X93026458Y-3945120D01*
X92858582Y-4350408D01*
X92773000Y-4780660D01*
X52627000Y-4780660D01*
X52627000Y-3506234D01*
X52644376Y-3329811D01*
X52694022Y-3166150D01*
X52774638Y-3015328D01*
X52883130Y-2883130D01*
X53015328Y-2774638D01*
X53166150Y-2694022D01*
X53329811Y-2644376D01*
X53506234Y-2627000D01*
X96493766Y-2627000D01*
X96670189Y-2644376D01*
M02*
