M48
; DRILL file {KiCad (5.1.2)-1} date 2019/08/30 21:10:14
; FORMAT={-:-/ absolute / metric / decimal}
; #@! TF.CreationDate,2019-08-30T21:10:14+09:00
; #@! TF.GenerationSoftware,Kicad,Pcbnew,(5.1.2)-1
FMAT,2
METRIC
T1C0.300
T2C0.750
T3C0.800
T4C1.000
T5C1.100
T6C1.300
%
G90
G05
T1
X-0.498Y9.002
X0.102Y-8.298
X1.352Y-3.797
X1.702Y0.602
X2.143Y-3.605
X2.602Y-0.198
X3.802Y-9.298
X6.002Y3.802
X6.302Y-9.198
X6.502Y-0.498
X6.502Y-6.498
X7.602Y3.502
X8.502Y-0.098
X8.702Y3.502
X9.002Y-9.198
X10.552Y3.243
X10.602Y4.102
X10.702Y0.202
X11.302Y-9.198
X11.402Y4.546
X12.587Y0.014
X13.182Y-0.598
X13.802Y-9.198
X14.002Y0.002
X14.605Y-2.4
X14.902Y2.202
X15.602Y2.902
X16.502Y-2.998
X16.502Y-9.198
X16.748Y1.809
X17.002Y-1.998
X18.002Y2.002
X18.902Y-9.198
X19.002Y0.502
X20.002Y11.002
X20.002Y0.002
X20.002Y-10.998
X21.502Y-9.298
X21.902Y4.702
X21.936Y-4.142
X22.002Y11.002
X22.002Y-10.998
X22.602Y-3.698
X23.002Y1.502
X23.712Y3.242
X24.002Y11.002
X24.002Y-2.998
X24.002Y-10.998
X24.102Y-9.198
X26.002Y-3.498
X26.002Y-10.998
X26.002Y11.002
X26.002Y-0.498
X26.602Y-9.198
X27.143Y3.156
X27.771Y3.652
X28.002Y11.002
X28.002Y-10.998
X28.75Y5.5
X29.202Y-9.198
X29.75Y-0.75
X30.002Y11.002
X30.002Y5.002
X30.002Y-10.998
X31.002Y-0.998
X31.002Y-3.998
X32.002Y11.002
X33.002Y7.002
X33.002Y5.002
X34.002Y11.002
X35.002Y7.002
X35.002Y3.002
X35.002Y-0.998
X35.002Y-4.998
X35.002Y-8.998
X35.002Y-10.998
X35.002Y5.002
X35.002Y1.002
X35.002Y-2.998
X35.002Y-6.998
X36.002Y11.002
X38.002Y11.002
X38.002Y5.002
X38.002Y-2.998
X38.002Y-4.998
X38.002Y-6.998
X38.002Y-8.998
X38.002Y-10.998
X38.002Y-0.998
X40.002Y9.002
X40.002Y7.002
X40.002Y5.002
X40.002Y-0.998
X40.002Y-4.998
X40.002Y-6.998
X40.002Y-8.998
X40.002Y-10.998
X40.002Y11.002
X40.002Y-2.998
X42.002Y11.002
X42.002Y7.002
X42.002Y5.002
X42.002Y1.002
X42.002Y-2.998
X42.002Y-6.998
X42.002Y-8.998
X42.002Y9.002
X42.002Y3.002
X42.002Y-0.998
X42.002Y-4.998
X42.002Y-10.998
T2
X36.832Y9.622
X36.832Y7.622
T3
X0.002Y11.002
X2.002Y11.002
X4.002Y11.002
X6.002Y11.002
X8.002Y11.002
X10.002Y11.002
X12.002Y11.002
X14.002Y11.002
X16.002Y11.002
X18.002Y11.002
X0.002Y-10.998
X2.002Y-10.998
X4.002Y-10.998
X6.002Y-10.998
X8.002Y-10.998
X10.002Y-10.998
X12.002Y-10.998
X14.002Y-10.998
X16.002Y-10.998
X18.002Y-10.998
T4
X0.002Y6.352
X0.002Y3.812
X0.002Y1.272
X0.002Y-1.268
X0.002Y-3.808
X0.002Y-6.348
X2.542Y7.622
X5.082Y7.622
X7.622Y7.622
X10.162Y7.622
X12.702Y7.622
X15.242Y7.622
X17.782Y7.622
X20.322Y7.622
X22.862Y7.622
X25.402Y7.622
X27.942Y7.622
X30.482Y7.622
X33.022Y2.542
X33.022Y0.002
X33.022Y-2.538
X33.022Y-5.078
X33.022Y-7.618
X33.022Y-10.158
X3.892Y-3.808
X6.392Y-3.808
X8.892Y-3.808
X2.542Y-7.618
X5.082Y-7.618
X7.622Y-7.618
X10.162Y-7.618
X12.702Y-7.618
X15.242Y-7.618
X17.782Y-7.618
X20.322Y-7.618
X22.862Y-7.618
X25.402Y-7.618
X27.942Y-7.618
X30.482Y-7.618
T5
X40.75Y2.25
T6
X38.25Y2.25
T0
M30
