G04 #@! TF.GenerationSoftware,KiCad,Pcbnew,(5.1.2)-1*
G04 #@! TF.CreationDate,2019-08-30T21:10:08+09:00*
G04 #@! TF.ProjectId,wii_controller,7769695f-636f-46e7-9472-6f6c6c65722e,rev?*
G04 #@! TF.SameCoordinates,PXdf378e0PY8bfaf60*
G04 #@! TF.FileFunction,Legend,Bot*
G04 #@! TF.FilePolarity,Positive*
%FSLAX46Y46*%
G04 Gerber Fmt 4.6, Leading zero omitted, Abs format (unit mm)*
G04 Created by KiCad (PCBNEW (5.1.2)-1) date 2019-08-30 21:10:08*
%MOMM*%
%LPD*%
G04 APERTURE LIST*
%ADD10C,0.150000*%
%ADD11C,0.120000*%
G04 APERTURE END LIST*
D10*
X2386904Y8702381D02*
X2703571Y9702381D01*
X3020238Y8702381D01*
X3336904Y9702381D02*
X3336904Y8702381D01*
X5010714Y8750000D02*
X4920238Y8702381D01*
X4784523Y8702381D01*
X4648809Y8750000D01*
X4558333Y8845239D01*
X4513095Y8940477D01*
X4467857Y9130953D01*
X4467857Y9273810D01*
X4513095Y9464286D01*
X4558333Y9559524D01*
X4648809Y9654762D01*
X4784523Y9702381D01*
X4875000Y9702381D01*
X5010714Y9654762D01*
X5055952Y9607143D01*
X5055952Y9273810D01*
X4875000Y9273810D01*
X5463095Y9702381D02*
X5463095Y8702381D01*
X6005952Y9702381D01*
X6005952Y8702381D01*
X7725000Y9702381D02*
X7408333Y9226191D01*
X7182142Y9702381D02*
X7182142Y8702381D01*
X7544047Y8702381D01*
X7634523Y8750000D01*
X7679761Y8797620D01*
X7725000Y8892858D01*
X7725000Y9035715D01*
X7679761Y9130953D01*
X7634523Y9178572D01*
X7544047Y9226191D01*
X7182142Y9226191D01*
X8086904Y9654762D02*
X8222619Y9702381D01*
X8448809Y9702381D01*
X8539285Y9654762D01*
X8584523Y9607143D01*
X8629761Y9511905D01*
X8629761Y9416667D01*
X8584523Y9321429D01*
X8539285Y9273810D01*
X8448809Y9226191D01*
X8267857Y9178572D01*
X8177380Y9130953D01*
X8132142Y9083334D01*
X8086904Y8988096D01*
X8086904Y8892858D01*
X8132142Y8797620D01*
X8177380Y8750000D01*
X8267857Y8702381D01*
X8494047Y8702381D01*
X8629761Y8750000D01*
X9625000Y8702381D02*
X9941666Y9702381D01*
X10258333Y8702381D01*
X11117857Y9607143D02*
X11072619Y9654762D01*
X10936904Y9702381D01*
X10846428Y9702381D01*
X10710714Y9654762D01*
X10620238Y9559524D01*
X10575000Y9464286D01*
X10529761Y9273810D01*
X10529761Y9130953D01*
X10575000Y8940477D01*
X10620238Y8845239D01*
X10710714Y8750000D01*
X10846428Y8702381D01*
X10936904Y8702381D01*
X11072619Y8750000D01*
X11117857Y8797620D01*
X12203571Y9416667D02*
X12655952Y9416667D01*
X12113095Y9702381D02*
X12429761Y8702381D01*
X12746428Y9702381D01*
X12972619Y8702381D02*
X13560714Y8702381D01*
X13244047Y9083334D01*
X13379761Y9083334D01*
X13470238Y9130953D01*
X13515476Y9178572D01*
X13560714Y9273810D01*
X13560714Y9511905D01*
X13515476Y9607143D01*
X13470238Y9654762D01*
X13379761Y9702381D01*
X13108333Y9702381D01*
X13017857Y9654762D01*
X12972619Y9607143D01*
X14646428Y9416667D02*
X15098809Y9416667D01*
X14555952Y9702381D02*
X14872619Y8702381D01*
X15189285Y9702381D01*
X15460714Y8797620D02*
X15505952Y8750000D01*
X15596428Y8702381D01*
X15822619Y8702381D01*
X15913095Y8750000D01*
X15958333Y8797620D01*
X16003571Y8892858D01*
X16003571Y8988096D01*
X15958333Y9130953D01*
X15415476Y9702381D01*
X16003571Y9702381D01*
X17089285Y9416667D02*
X17541666Y9416667D01*
X16998809Y9702381D02*
X17315476Y8702381D01*
X17632142Y9702381D01*
X18446428Y9702381D02*
X17903571Y9702381D01*
X18174999Y9702381D02*
X18174999Y8702381D01*
X18084523Y8845239D01*
X17994047Y8940477D01*
X17903571Y8988096D01*
X19532142Y9416667D02*
X19984523Y9416667D01*
X19441666Y9702381D02*
X19758333Y8702381D01*
X20074999Y9702381D01*
X20572619Y8702381D02*
X20663095Y8702381D01*
X20753571Y8750000D01*
X20798809Y8797620D01*
X20844047Y8892858D01*
X20889285Y9083334D01*
X20889285Y9321429D01*
X20844047Y9511905D01*
X20798809Y9607143D01*
X20753571Y9654762D01*
X20663095Y9702381D01*
X20572619Y9702381D01*
X20482142Y9654762D01*
X20436904Y9607143D01*
X20391666Y9511905D01*
X20346428Y9321429D01*
X20346428Y9083334D01*
X20391666Y8892858D01*
X20436904Y8797620D01*
X20482142Y8750000D01*
X20572619Y8702381D01*
X22517857Y9702381D02*
X21974999Y9702381D01*
X22246428Y9702381D02*
X22246428Y8702381D01*
X22155952Y8845239D01*
X22065476Y8940477D01*
X21974999Y8988096D01*
X22834523Y8702381D02*
X23422619Y8702381D01*
X23105952Y9083334D01*
X23241666Y9083334D01*
X23332142Y9130953D01*
X23377380Y9178572D01*
X23422619Y9273810D01*
X23422619Y9511905D01*
X23377380Y9607143D01*
X23332142Y9654762D01*
X23241666Y9702381D01*
X22970238Y9702381D01*
X22879761Y9654762D01*
X22834523Y9607143D01*
X25051190Y9702381D02*
X24508333Y9702381D01*
X24779761Y9702381D02*
X24779761Y8702381D01*
X24689285Y8845239D01*
X24598809Y8940477D01*
X24508333Y8988096D01*
X25413095Y8797620D02*
X25458333Y8750000D01*
X25548809Y8702381D01*
X25774999Y8702381D01*
X25865476Y8750000D01*
X25910714Y8797620D01*
X25955952Y8892858D01*
X25955952Y8988096D01*
X25910714Y9130953D01*
X25367857Y9702381D01*
X25955952Y9702381D01*
X27584523Y9702381D02*
X27041666Y9702381D01*
X27313095Y9702381D02*
X27313095Y8702381D01*
X27222619Y8845239D01*
X27132142Y8940477D01*
X27041666Y8988096D01*
X28489285Y9702381D02*
X27946428Y9702381D01*
X28217857Y9702381D02*
X28217857Y8702381D01*
X28127380Y8845239D01*
X28036904Y8940477D01*
X27946428Y8988096D01*
X30117857Y9702381D02*
X29574999Y9702381D01*
X29846428Y9702381D02*
X29846428Y8702381D01*
X29755952Y8845239D01*
X29665476Y8940477D01*
X29574999Y8988096D01*
X30705952Y8702381D02*
X30796428Y8702381D01*
X30886904Y8750000D01*
X30932142Y8797620D01*
X30977380Y8892858D01*
X31022619Y9083334D01*
X31022619Y9321429D01*
X30977380Y9511905D01*
X30932142Y9607143D01*
X30886904Y9654762D01*
X30796428Y9702381D01*
X30705952Y9702381D01*
X30615476Y9654762D01*
X30570238Y9607143D01*
X30524999Y9511905D01*
X30479761Y9321429D01*
X30479761Y9083334D01*
X30524999Y8892858D01*
X30570238Y8797620D01*
X30615476Y8750000D01*
X30705952Y8702381D01*
X1436904Y-10047619D02*
X1979761Y-10047619D01*
X1708333Y-9047619D02*
X1708333Y-10047619D01*
X2205952Y-10047619D02*
X2839285Y-9047619D01*
X2839285Y-10047619D02*
X2205952Y-9047619D01*
X4467857Y-9047619D02*
X4151190Y-9523809D01*
X3925000Y-9047619D02*
X3925000Y-10047619D01*
X4286904Y-10047619D01*
X4377380Y-10000000D01*
X4422619Y-9952380D01*
X4467857Y-9857142D01*
X4467857Y-9714285D01*
X4422619Y-9619047D01*
X4377380Y-9571428D01*
X4286904Y-9523809D01*
X3925000Y-9523809D01*
X4784523Y-10047619D02*
X5417857Y-9047619D01*
X5417857Y-10047619D02*
X4784523Y-9047619D01*
X7046428Y-9047619D02*
X6729761Y-9523809D01*
X6503571Y-9047619D02*
X6503571Y-10047619D01*
X6865476Y-10047619D01*
X6955952Y-10000000D01*
X7001190Y-9952380D01*
X7046428Y-9857142D01*
X7046428Y-9714285D01*
X7001190Y-9619047D01*
X6955952Y-9571428D01*
X6865476Y-9523809D01*
X6503571Y-9523809D01*
X7408333Y-9095238D02*
X7544047Y-9047619D01*
X7770238Y-9047619D01*
X7860714Y-9095238D01*
X7905952Y-9142857D01*
X7951190Y-9238095D01*
X7951190Y-9333333D01*
X7905952Y-9428571D01*
X7860714Y-9476190D01*
X7770238Y-9523809D01*
X7589285Y-9571428D01*
X7498809Y-9619047D01*
X7453571Y-9666666D01*
X7408333Y-9761904D01*
X7408333Y-9857142D01*
X7453571Y-9952380D01*
X7498809Y-10000000D01*
X7589285Y-10047619D01*
X7815476Y-10047619D01*
X7951190Y-10000000D01*
X9579761Y-10000000D02*
X9489285Y-10047619D01*
X9353571Y-10047619D01*
X9217857Y-10000000D01*
X9127380Y-9904761D01*
X9082142Y-9809523D01*
X9036904Y-9619047D01*
X9036904Y-9476190D01*
X9082142Y-9285714D01*
X9127380Y-9190476D01*
X9217857Y-9095238D01*
X9353571Y-9047619D01*
X9444047Y-9047619D01*
X9579761Y-9095238D01*
X9625000Y-9142857D01*
X9625000Y-9476190D01*
X9444047Y-9476190D01*
X10032142Y-9047619D02*
X10032142Y-10047619D01*
X10575000Y-9047619D01*
X10575000Y-10047619D01*
X11751190Y-9047619D02*
X11751190Y-10047619D01*
X11977380Y-10047619D01*
X12113095Y-10000000D01*
X12203571Y-9904761D01*
X12248809Y-9809523D01*
X12294047Y-9619047D01*
X12294047Y-9476190D01*
X12248809Y-9285714D01*
X12203571Y-9190476D01*
X12113095Y-9095238D01*
X11977380Y-9047619D01*
X11751190Y-9047619D01*
X12655952Y-9952380D02*
X12701190Y-10000000D01*
X12791666Y-10047619D01*
X13017857Y-10047619D01*
X13108333Y-10000000D01*
X13153571Y-9952380D01*
X13198809Y-9857142D01*
X13198809Y-9761904D01*
X13153571Y-9619047D01*
X12610714Y-9047619D01*
X13198809Y-9047619D01*
X14329761Y-9047619D02*
X14329761Y-10047619D01*
X14555952Y-10047619D01*
X14691666Y-10000000D01*
X14782142Y-9904761D01*
X14827380Y-9809523D01*
X14872619Y-9619047D01*
X14872619Y-9476190D01*
X14827380Y-9285714D01*
X14782142Y-9190476D01*
X14691666Y-9095238D01*
X14555952Y-9047619D01*
X14329761Y-9047619D01*
X15189285Y-10047619D02*
X15777380Y-10047619D01*
X15460714Y-9666666D01*
X15596428Y-9666666D01*
X15686904Y-9619047D01*
X15732142Y-9571428D01*
X15777380Y-9476190D01*
X15777380Y-9238095D01*
X15732142Y-9142857D01*
X15686904Y-9095238D01*
X15596428Y-9047619D01*
X15324999Y-9047619D01*
X15234523Y-9095238D01*
X15189285Y-9142857D01*
X16908333Y-9047619D02*
X16908333Y-10047619D01*
X17134523Y-10047619D01*
X17270238Y-10000000D01*
X17360714Y-9904761D01*
X17405952Y-9809523D01*
X17451190Y-9619047D01*
X17451190Y-9476190D01*
X17405952Y-9285714D01*
X17360714Y-9190476D01*
X17270238Y-9095238D01*
X17134523Y-9047619D01*
X16908333Y-9047619D01*
X18265476Y-9714285D02*
X18265476Y-9047619D01*
X18039285Y-10095238D02*
X17813095Y-9380952D01*
X18401190Y-9380952D01*
X19486904Y-9047619D02*
X19486904Y-10047619D01*
X19713095Y-10047619D01*
X19848809Y-10000000D01*
X19939285Y-9904761D01*
X19984523Y-9809523D01*
X20029761Y-9619047D01*
X20029761Y-9476190D01*
X19984523Y-9285714D01*
X19939285Y-9190476D01*
X19848809Y-9095238D01*
X19713095Y-9047619D01*
X19486904Y-9047619D01*
X20889285Y-10047619D02*
X20436904Y-10047619D01*
X20391666Y-9571428D01*
X20436904Y-9619047D01*
X20527380Y-9666666D01*
X20753571Y-9666666D01*
X20844047Y-9619047D01*
X20889285Y-9571428D01*
X20934523Y-9476190D01*
X20934523Y-9238095D01*
X20889285Y-9142857D01*
X20844047Y-9095238D01*
X20753571Y-9047619D01*
X20527380Y-9047619D01*
X20436904Y-9095238D01*
X20391666Y-9142857D01*
X22065476Y-9047619D02*
X22065476Y-10047619D01*
X22291666Y-10047619D01*
X22427380Y-10000000D01*
X22517857Y-9904761D01*
X22563095Y-9809523D01*
X22608333Y-9619047D01*
X22608333Y-9476190D01*
X22563095Y-9285714D01*
X22517857Y-9190476D01*
X22427380Y-9095238D01*
X22291666Y-9047619D01*
X22065476Y-9047619D01*
X23422619Y-10047619D02*
X23241666Y-10047619D01*
X23151190Y-10000000D01*
X23105952Y-9952380D01*
X23015476Y-9809523D01*
X22970238Y-9619047D01*
X22970238Y-9238095D01*
X23015476Y-9142857D01*
X23060714Y-9095238D01*
X23151190Y-9047619D01*
X23332142Y-9047619D01*
X23422619Y-9095238D01*
X23467857Y-9142857D01*
X23513095Y-9238095D01*
X23513095Y-9476190D01*
X23467857Y-9571428D01*
X23422619Y-9619047D01*
X23332142Y-9666666D01*
X23151190Y-9666666D01*
X23060714Y-9619047D01*
X23015476Y-9571428D01*
X22970238Y-9476190D01*
X24644047Y-9047619D02*
X24644047Y-10047619D01*
X24870238Y-10047619D01*
X25005952Y-10000000D01*
X25096428Y-9904761D01*
X25141666Y-9809523D01*
X25186904Y-9619047D01*
X25186904Y-9476190D01*
X25141666Y-9285714D01*
X25096428Y-9190476D01*
X25005952Y-9095238D01*
X24870238Y-9047619D01*
X24644047Y-9047619D01*
X25503571Y-10047619D02*
X26136904Y-10047619D01*
X25729761Y-9047619D01*
X27222619Y-9047619D02*
X27222619Y-10047619D01*
X27448809Y-10047619D01*
X27584523Y-10000000D01*
X27674999Y-9904761D01*
X27720238Y-9809523D01*
X27765476Y-9619047D01*
X27765476Y-9476190D01*
X27720238Y-9285714D01*
X27674999Y-9190476D01*
X27584523Y-9095238D01*
X27448809Y-9047619D01*
X27222619Y-9047619D01*
X28308333Y-9619047D02*
X28217857Y-9666666D01*
X28172619Y-9714285D01*
X28127380Y-9809523D01*
X28127380Y-9857142D01*
X28172619Y-9952380D01*
X28217857Y-10000000D01*
X28308333Y-10047619D01*
X28489285Y-10047619D01*
X28579761Y-10000000D01*
X28624999Y-9952380D01*
X28670238Y-9857142D01*
X28670238Y-9809523D01*
X28624999Y-9714285D01*
X28579761Y-9666666D01*
X28489285Y-9619047D01*
X28308333Y-9619047D01*
X28217857Y-9571428D01*
X28172619Y-9523809D01*
X28127380Y-9428571D01*
X28127380Y-9238095D01*
X28172619Y-9142857D01*
X28217857Y-9095238D01*
X28308333Y-9047619D01*
X28489285Y-9047619D01*
X28579761Y-9095238D01*
X28624999Y-9142857D01*
X28670238Y-9238095D01*
X28670238Y-9428571D01*
X28624999Y-9523809D01*
X28579761Y-9571428D01*
X28489285Y-9619047D01*
X29801190Y-9047619D02*
X29801190Y-10047619D01*
X30027380Y-10047619D01*
X30163095Y-10000000D01*
X30253571Y-9904761D01*
X30298809Y-9809523D01*
X30344047Y-9619047D01*
X30344047Y-9476190D01*
X30298809Y-9285714D01*
X30253571Y-9190476D01*
X30163095Y-9095238D01*
X30027380Y-9047619D01*
X29801190Y-9047619D01*
X30796428Y-9047619D02*
X30977380Y-9047619D01*
X31067857Y-9095238D01*
X31113095Y-9142857D01*
X31203571Y-9285714D01*
X31248809Y-9476190D01*
X31248809Y-9857142D01*
X31203571Y-9952380D01*
X31158333Y-10000000D01*
X31067857Y-10047619D01*
X30886904Y-10047619D01*
X30796428Y-10000000D01*
X30751190Y-9952380D01*
X30705952Y-9857142D01*
X30705952Y-9619047D01*
X30751190Y-9523809D01*
X30796428Y-9476190D01*
X30886904Y-9428571D01*
X31067857Y-9428571D01*
X31158333Y-9476190D01*
X31203571Y-9523809D01*
X31248809Y-9619047D01*
D11*
X43350000Y2550000D02*
X41950000Y2250000D01*
X43450000Y3250000D02*
X43350000Y2550000D01*
X43950000Y2950000D02*
X41950000Y4350000D01*
X43950000Y2250000D02*
X43950000Y2950000D01*
X41950000Y2250000D02*
X43950000Y2250000D01*
X41950000Y-650000D02*
X36950000Y-650000D01*
X41950000Y5150000D02*
X36950000Y5150000D01*
X38250000Y5150000D02*
X38250000Y-650000D01*
X41950000Y5150000D02*
X38250000Y5150000D01*
X41950000Y-650000D02*
X41950000Y5150000D01*
X40750000Y-650000D02*
X41950000Y-650000D01*
X38250000Y-650000D02*
X40750000Y-650000D01*
D10*
X41083333Y95239D02*
X40940476Y47620D01*
X40702380Y47620D01*
X40607142Y95239D01*
X40559523Y142858D01*
X40511904Y238096D01*
X40511904Y333334D01*
X40559523Y428572D01*
X40607142Y476191D01*
X40702380Y523810D01*
X40892857Y571429D01*
X40988095Y619048D01*
X41035714Y666667D01*
X41083333Y761905D01*
X41083333Y857143D01*
X41035714Y952381D01*
X40988095Y1000000D01*
X40892857Y1047620D01*
X40654761Y1047620D01*
X40511904Y1000000D01*
X40178571Y1047620D02*
X39940476Y47620D01*
X39750000Y761905D01*
X39559523Y47620D01*
X39321428Y1047620D01*
X38416666Y47620D02*
X38988095Y47620D01*
X38702380Y47620D02*
X38702380Y1047620D01*
X38797619Y904762D01*
X38892857Y809524D01*
X38988095Y761905D01*
M02*
