G04 #@! TF.GenerationSoftware,KiCad,Pcbnew,(5.1.2)-1*
G04 #@! TF.CreationDate,2019-08-30T21:10:08+09:00*
G04 #@! TF.ProjectId,wii_controller,7769695f-636f-46e7-9472-6f6c6c65722e,rev?*
G04 #@! TF.SameCoordinates,PXdf378e0PY8bfaf60*
G04 #@! TF.FileFunction,Legend,Top*
G04 #@! TF.FilePolarity,Positive*
%FSLAX46Y46*%
G04 Gerber Fmt 4.6, Leading zero omitted, Abs format (unit mm)*
G04 Created by KiCad (PCBNEW (5.1.2)-1) date 2019-08-30 21:10:08*
%MOMM*%
%LPD*%
G04 APERTURE LIST*
%ADD10C,0.200000*%
%ADD11C,0.150000*%
%ADD12C,0.050000*%
%ADD13C,0.120000*%
G04 APERTURE END LIST*
D10*
X-5214286Y5446429D02*
X-5214286Y6946429D01*
X-4857143Y6946429D01*
X-4642858Y6875000D01*
X-4500000Y6732143D01*
X-4428572Y6589286D01*
X-4357143Y6303572D01*
X-4357143Y6089286D01*
X-4428572Y5803572D01*
X-4500000Y5660715D01*
X-4642858Y5517858D01*
X-4857143Y5446429D01*
X-5214286Y5446429D01*
X-3928572Y6946429D02*
X-3071429Y6946429D01*
X-3500000Y5446429D02*
X-3500000Y6946429D01*
X-1714286Y5446429D02*
X-2214286Y6160715D01*
X-2571429Y5446429D02*
X-2571429Y6946429D01*
X-2000000Y6946429D01*
X-1857143Y6875000D01*
X-1785715Y6803572D01*
X-1714286Y6660715D01*
X-1714286Y6446429D01*
X-1785715Y6303572D01*
X-1857143Y6232143D01*
X-2000000Y6160715D01*
X-2571429Y6160715D01*
X-5428572Y4496429D02*
X-4571429Y4496429D01*
X-5000000Y2996429D02*
X-5000000Y4496429D01*
X-4214286Y4496429D02*
X-3214286Y2996429D01*
X-3214286Y4496429D02*
X-4214286Y2996429D01*
X-2357143Y4496429D02*
X-2071429Y4496429D01*
X-1928572Y4425000D01*
X-1785715Y4282143D01*
X-1714286Y3996429D01*
X-1714286Y3496429D01*
X-1785715Y3210715D01*
X-1928572Y3067858D01*
X-2071429Y2996429D01*
X-2357143Y2996429D01*
X-2500000Y3067858D01*
X-2642858Y3210715D01*
X-2714286Y3496429D01*
X-2714286Y3996429D01*
X-2642858Y4282143D01*
X-2500000Y4425000D01*
X-2357143Y4496429D01*
X-4107143Y546429D02*
X-4607143Y1260715D01*
X-4964286Y546429D02*
X-4964286Y2046429D01*
X-4392858Y2046429D01*
X-4250000Y1975000D01*
X-4178572Y1903572D01*
X-4107143Y1760715D01*
X-4107143Y1546429D01*
X-4178572Y1403572D01*
X-4250000Y1332143D01*
X-4392858Y1260715D01*
X-4964286Y1260715D01*
X-3607143Y2046429D02*
X-2607143Y546429D01*
X-2607143Y2046429D02*
X-3607143Y546429D01*
X-2035715Y546429D02*
X-2035715Y2046429D01*
X-5500000Y-403571D02*
X-5000000Y-1903571D01*
X-4500000Y-403571D01*
X-3142858Y-1760714D02*
X-3214286Y-1832142D01*
X-3428572Y-1903571D01*
X-3571429Y-1903571D01*
X-3785715Y-1832142D01*
X-3928572Y-1689285D01*
X-4000000Y-1546428D01*
X-4071429Y-1260714D01*
X-4071429Y-1046428D01*
X-4000000Y-760714D01*
X-3928572Y-617857D01*
X-3785715Y-475000D01*
X-3571429Y-403571D01*
X-3428572Y-403571D01*
X-3214286Y-475000D01*
X-3142858Y-546428D01*
X-1642858Y-1760714D02*
X-1714286Y-1832142D01*
X-1928572Y-1903571D01*
X-2071429Y-1903571D01*
X-2285715Y-1832142D01*
X-2428572Y-1689285D01*
X-2500000Y-1546428D01*
X-2571429Y-1260714D01*
X-2571429Y-1046428D01*
X-2500000Y-760714D01*
X-2428572Y-617857D01*
X-2285715Y-475000D01*
X-2071429Y-403571D01*
X-1928572Y-403571D01*
X-1714286Y-475000D01*
X-1642858Y-546428D01*
X-4642858Y-2925000D02*
X-4785715Y-2853571D01*
X-5000000Y-2853571D01*
X-5214286Y-2925000D01*
X-5357143Y-3067857D01*
X-5428572Y-3210714D01*
X-5500000Y-3496428D01*
X-5500000Y-3710714D01*
X-5428572Y-3996428D01*
X-5357143Y-4139285D01*
X-5214286Y-4282142D01*
X-5000000Y-4353571D01*
X-4857143Y-4353571D01*
X-4642858Y-4282142D01*
X-4571429Y-4210714D01*
X-4571429Y-3710714D01*
X-4857143Y-3710714D01*
X-3928572Y-4353571D02*
X-3928572Y-2853571D01*
X-3071429Y-4353571D01*
X-3071429Y-2853571D01*
X-2357143Y-4353571D02*
X-2357143Y-2853571D01*
X-2000000Y-2853571D01*
X-1785715Y-2925000D01*
X-1642858Y-3067857D01*
X-1571429Y-3210714D01*
X-1500000Y-3496428D01*
X-1500000Y-3710714D01*
X-1571429Y-3996428D01*
X-1642858Y-4139285D01*
X-1785715Y-4282142D01*
X-2000000Y-4353571D01*
X-2357143Y-4353571D01*
X-4642858Y-5375000D02*
X-4785715Y-5303571D01*
X-5000000Y-5303571D01*
X-5214286Y-5375000D01*
X-5357143Y-5517857D01*
X-5428572Y-5660714D01*
X-5500000Y-5946428D01*
X-5500000Y-6160714D01*
X-5428572Y-6446428D01*
X-5357143Y-6589285D01*
X-5214286Y-6732142D01*
X-5000000Y-6803571D01*
X-4857143Y-6803571D01*
X-4642858Y-6732142D01*
X-4571429Y-6660714D01*
X-4571429Y-6160714D01*
X-4857143Y-6160714D01*
X-3928572Y-6803571D02*
X-3928572Y-5303571D01*
X-3071429Y-6803571D01*
X-3071429Y-5303571D01*
X-2357143Y-6803571D02*
X-2357143Y-5303571D01*
X-2000000Y-5303571D01*
X-1785715Y-5375000D01*
X-1642858Y-5517857D01*
X-1571429Y-5660714D01*
X-1500000Y-5946428D01*
X-1500000Y-6160714D01*
X-1571429Y-6446428D01*
X-1642858Y-6589285D01*
X-1785715Y-6732142D01*
X-2000000Y-6803571D01*
X-2357143Y-6803571D01*
D11*
X35309523Y2571429D02*
X35309523Y1357143D01*
X35261904Y1214286D01*
X35214285Y1142858D01*
X35119047Y1071429D01*
X34976190Y1071429D01*
X34880952Y1142858D01*
X35309523Y1642858D02*
X35214285Y1571429D01*
X35023809Y1571429D01*
X34928571Y1642858D01*
X34880952Y1714286D01*
X34833333Y1857143D01*
X34833333Y2285715D01*
X34880952Y2428572D01*
X34928571Y2500000D01*
X35023809Y2571429D01*
X35214285Y2571429D01*
X35309523Y2500000D01*
X35785714Y2571429D02*
X35785714Y1571429D01*
X35785714Y2428572D02*
X35833333Y2500000D01*
X35928571Y2571429D01*
X36071428Y2571429D01*
X36166666Y2500000D01*
X36214285Y2357143D01*
X36214285Y1571429D01*
X37119047Y1571429D02*
X37119047Y3071429D01*
X37119047Y1642858D02*
X37023809Y1571429D01*
X36833333Y1571429D01*
X36738095Y1642858D01*
X36690476Y1714286D01*
X36642857Y1857143D01*
X36642857Y2285715D01*
X36690476Y2428572D01*
X36738095Y2500000D01*
X36833333Y2571429D01*
X37023809Y2571429D01*
X37119047Y2500000D01*
X34952380Y671429D02*
X35571428Y671429D01*
X35238095Y100000D01*
X35380952Y100000D01*
X35476190Y28572D01*
X35523809Y-42857D01*
X35571428Y-185714D01*
X35571428Y-542857D01*
X35523809Y-685714D01*
X35476190Y-757142D01*
X35380952Y-828571D01*
X35095238Y-828571D01*
X35000000Y-757142D01*
X34952380Y-685714D01*
X36000000Y-685714D02*
X36047619Y-757142D01*
X36000000Y-828571D01*
X35952380Y-757142D01*
X36000000Y-685714D01*
X36000000Y-828571D01*
X36380952Y671429D02*
X37000000Y671429D01*
X36666666Y100000D01*
X36809523Y100000D01*
X36904761Y28572D01*
X36952380Y-42857D01*
X37000000Y-185714D01*
X37000000Y-542857D01*
X36952380Y-685714D01*
X36904761Y-757142D01*
X36809523Y-828571D01*
X36523809Y-828571D01*
X36428571Y-757142D01*
X36380952Y-685714D01*
X35285714Y-2800000D02*
X35761904Y-2800000D01*
X35190476Y-3228571D02*
X35523809Y-1728571D01*
X35857142Y-3228571D01*
X36619047Y-2228571D02*
X36619047Y-3228571D01*
X36380952Y-1657142D02*
X36142857Y-2728571D01*
X36761904Y-2728571D01*
X35285714Y-5200000D02*
X35761904Y-5200000D01*
X35190476Y-5628571D02*
X35523809Y-4128571D01*
X35857142Y-5628571D01*
X36666666Y-4128571D02*
X36190476Y-4128571D01*
X36142857Y-4842857D01*
X36190476Y-4771428D01*
X36285714Y-4700000D01*
X36523809Y-4700000D01*
X36619047Y-4771428D01*
X36666666Y-4842857D01*
X36714285Y-4985714D01*
X36714285Y-5342857D01*
X36666666Y-5485714D01*
X36619047Y-5557142D01*
X36523809Y-5628571D01*
X36285714Y-5628571D01*
X36190476Y-5557142D01*
X36142857Y-5485714D01*
X35285714Y-7600000D02*
X35761904Y-7600000D01*
X35190476Y-8028571D02*
X35523809Y-6528571D01*
X35857142Y-8028571D01*
X36619047Y-6528571D02*
X36428571Y-6528571D01*
X36333333Y-6600000D01*
X36285714Y-6671428D01*
X36190476Y-6885714D01*
X36142857Y-7171428D01*
X36142857Y-7742857D01*
X36190476Y-7885714D01*
X36238095Y-7957142D01*
X36333333Y-8028571D01*
X36523809Y-8028571D01*
X36619047Y-7957142D01*
X36666666Y-7885714D01*
X36714285Y-7742857D01*
X36714285Y-7385714D01*
X36666666Y-7242857D01*
X36619047Y-7171428D01*
X36523809Y-7100000D01*
X36333333Y-7100000D01*
X36238095Y-7171428D01*
X36190476Y-7242857D01*
X36142857Y-7385714D01*
X35285714Y-10000000D02*
X35761904Y-10000000D01*
X35190476Y-10428571D02*
X35523809Y-8928571D01*
X35857142Y-10428571D01*
X36095238Y-8928571D02*
X36761904Y-8928571D01*
X36333333Y-10428571D01*
D12*
X43802081Y12202082D02*
X-1197919Y12202082D01*
X43802082Y-12197919D02*
X43802081Y12202082D01*
X-1197918Y-12197919D02*
X43802082Y-12197919D01*
X-3500000Y10250000D02*
X-1197919Y12202082D01*
X-3500000Y-10250000D02*
X-1197918Y-12197919D01*
D13*
X26222082Y1672082D02*
X26222082Y872082D01*
X29662082Y1672082D02*
X29662082Y872082D01*
X31752082Y3812082D02*
X33022082Y3812082D01*
X31752082Y2542082D02*
X31752082Y3812082D01*
X34065011Y-10537918D02*
X34462082Y-10537918D01*
X34065011Y-9777918D02*
X34462082Y-9777918D01*
X43122082Y-10537918D02*
X37122082Y-10537918D01*
X43122082Y-9777918D02*
X43122082Y-10537918D01*
X37122082Y-9777918D02*
X43122082Y-9777918D01*
X34462082Y-8887918D02*
X37122082Y-8887918D01*
X34065011Y-7997918D02*
X34462082Y-7997918D01*
X34065011Y-7237918D02*
X34462082Y-7237918D01*
X43122082Y-7997918D02*
X37122082Y-7997918D01*
X43122082Y-7237918D02*
X43122082Y-7997918D01*
X37122082Y-7237918D02*
X43122082Y-7237918D01*
X34462082Y-6347918D02*
X37122082Y-6347918D01*
X34065011Y-5457918D02*
X34462082Y-5457918D01*
X34065011Y-4697918D02*
X34462082Y-4697918D01*
X43122082Y-5457918D02*
X37122082Y-5457918D01*
X43122082Y-4697918D02*
X43122082Y-5457918D01*
X37122082Y-4697918D02*
X43122082Y-4697918D01*
X34462082Y-3807918D02*
X37122082Y-3807918D01*
X34065011Y-2917918D02*
X34462082Y-2917918D01*
X34065011Y-2157918D02*
X34462082Y-2157918D01*
X43122082Y-2917918D02*
X37122082Y-2917918D01*
X43122082Y-2157918D02*
X43122082Y-2917918D01*
X37122082Y-2157918D02*
X43122082Y-2157918D01*
X34462082Y-1267918D02*
X37122082Y-1267918D01*
X34065011Y-377918D02*
X34462082Y-377918D01*
X34065011Y382082D02*
X34462082Y382082D01*
X43122082Y-377918D02*
X37122082Y-377918D01*
X43122082Y382082D02*
X43122082Y-377918D01*
X37122082Y382082D02*
X43122082Y382082D01*
X34462082Y1272082D02*
X37122082Y1272082D01*
X34132082Y2162082D02*
X34462082Y2162082D01*
X34132082Y2922082D02*
X34462082Y2922082D01*
X37122082Y2262082D02*
X43122082Y2262082D01*
X37122082Y2382082D02*
X43122082Y2382082D01*
X37122082Y2502082D02*
X43122082Y2502082D01*
X37122082Y2622082D02*
X43122082Y2622082D01*
X37122082Y2742082D02*
X43122082Y2742082D01*
X37122082Y2862082D02*
X43122082Y2862082D01*
X43122082Y2162082D02*
X37122082Y2162082D01*
X43122082Y2922082D02*
X43122082Y2162082D01*
X37122082Y2922082D02*
X43122082Y2922082D01*
X37122082Y3872082D02*
X34462082Y3872082D01*
X37122082Y-11487918D02*
X37122082Y3872082D01*
X34462082Y-11487918D02*
X37122082Y-11487918D01*
X34462082Y3872082D02*
X34462082Y-11487918D01*
X26362082Y-3567919D02*
X27292082Y-3567919D01*
X29522082Y-3567919D02*
X28592082Y-3567919D01*
X29522082Y-3567919D02*
X29522082Y-1407919D01*
X26362082Y-3567919D02*
X26362082Y-2107919D01*
X3052081Y4762362D02*
X3052081Y4436804D01*
X2032081Y4762362D02*
X2032081Y4436804D01*
X36972081Y6762082D02*
X36972081Y6482082D01*
X36972081Y6482082D02*
X35372081Y6482082D01*
X35372081Y6482082D02*
X35372081Y5562082D01*
X35372081Y5562082D02*
X43192081Y5562082D01*
X43192081Y5562082D02*
X43192081Y11682082D01*
X43192081Y11682082D02*
X35372081Y11682082D01*
X35372081Y11682082D02*
X35372081Y10762082D01*
X35372081Y10762082D02*
X36972081Y10762082D01*
X36972081Y10762082D02*
X36972081Y10482082D01*
X43192081Y8122082D02*
X38832081Y8122082D01*
X38832081Y8122082D02*
X38832081Y9122082D01*
X38832081Y9122082D02*
X43192081Y9122082D01*
X36972081Y5562082D02*
X36972081Y6482082D01*
X36972081Y11682082D02*
X36972081Y10762082D01*
X39332081Y6322082D02*
X40932081Y6322082D01*
X40932081Y6322082D02*
X40932081Y7322082D01*
X40932081Y7322082D02*
X39332081Y7322082D01*
X39332081Y7322082D02*
X39332081Y6322082D01*
X39332081Y10922082D02*
X40932081Y10922082D01*
X40932081Y10922082D02*
X40932081Y9922082D01*
X40932081Y9922082D02*
X39332081Y9922082D01*
X39332081Y9922082D02*
X39332081Y10922082D01*
X40932081Y7322082D02*
X43192081Y7322082D01*
X40932081Y6822082D02*
X43192081Y6822082D01*
X36972081Y6762082D02*
X35757081Y6762082D01*
X1332082Y7682082D02*
X-1327918Y7682082D01*
X1332082Y-5077918D02*
X1332082Y7682082D01*
X-1327918Y-5077918D02*
X-1327918Y7682082D01*
X1332082Y-5077918D02*
X-1327918Y-5077918D01*
X1332082Y-6347918D02*
X1332082Y-7677918D01*
X1332082Y-7677918D02*
X2082Y-7677918D01*
X31812081Y-8947919D02*
X31812081Y-6287919D01*
X3812081Y-8947919D02*
X31812081Y-8947919D01*
X3812081Y-6287919D02*
X31812081Y-6287919D01*
X3812081Y-8947919D02*
X3812081Y-6287919D01*
X2542081Y-8947919D02*
X1212081Y-8947919D01*
X1212081Y-8947919D02*
X1212081Y-7617919D01*
X1212082Y6292082D02*
X1212082Y7622082D01*
X2542082Y6292082D02*
X1212082Y6292082D01*
X3812082Y6292082D02*
X3812082Y8952082D01*
X3812082Y8952082D02*
X31812082Y8952082D01*
X3812082Y6292082D02*
X31812082Y6292082D01*
X31812082Y6292082D02*
X31812082Y8952082D01*
X19062082Y-12057919D02*
X19062082Y-9937919D01*
X1002082Y-12057919D02*
X19062082Y-12057919D01*
X1002082Y-9937919D02*
X19062082Y-9937919D01*
X1002082Y-12057919D02*
X1002082Y-9937919D01*
X2082Y-12057919D02*
X-1057918Y-12057919D01*
X-1057918Y-12057919D02*
X-1057918Y-10997919D01*
X-1057918Y9942081D02*
X-1057918Y11002081D01*
X2082Y9942081D02*
X-1057918Y9942081D01*
X1002082Y9942081D02*
X1002082Y12062081D01*
X1002082Y12062081D02*
X19062082Y12062081D01*
X1002082Y9942081D02*
X19062082Y9942081D01*
X19062082Y9942081D02*
X19062082Y12062081D01*
X4352082Y-17919D02*
X6152082Y-17919D01*
X6152082Y3202081D02*
X3702082Y3202081D01*
D11*
X11385558Y2082D02*
X11544657Y-157017D01*
X16512082Y5128606D02*
X16741892Y4898796D01*
X21638606Y2082D02*
X21408796Y231892D01*
X16512082Y-5124442D02*
X16282272Y-4894632D01*
X11385558Y2082D02*
X11615368Y231892D01*
X16512082Y-5124442D02*
X16741892Y-4894632D01*
X21638606Y2082D02*
X21408796Y-227728D01*
X16512082Y5128606D02*
X16282272Y4898796D01*
X11544657Y-157017D02*
X10537030Y-1164644D01*
D13*
X3892081Y-2107918D02*
X8892081Y-2107918D01*
X3892081Y-5507918D02*
X8892081Y-5507918D01*
X3892081Y-5507918D02*
G75*
G02X3892081Y-2107918I0J1700000D01*
G01*
X8892081Y-5507918D02*
G75*
G03X8892081Y-2107918I0J1700000D01*
G01*
D11*
X25794462Y581606D02*
X25318272Y248273D01*
X25794462Y10178D02*
X24794462Y10178D01*
X24794462Y391130D01*
X24842082Y486368D01*
X24889701Y533987D01*
X24984939Y581606D01*
X25127796Y581606D01*
X25223034Y533987D01*
X25270653Y486368D01*
X25318272Y391130D01*
X25318272Y10178D01*
X25794462Y1010178D02*
X24794462Y1010178D01*
X25794462Y1581606D01*
X24794462Y1581606D01*
X25794462Y2581606D02*
X25794462Y2010178D01*
X25794462Y2295892D02*
X24794462Y2295892D01*
X24937320Y2200654D01*
X25032558Y2105416D01*
X25080177Y2010178D01*
X10947323Y-5202868D02*
X10879980Y-5202868D01*
X10745293Y-5135524D01*
X10677949Y-5068181D01*
X10610606Y-4933493D01*
X10610606Y-4798806D01*
X10644277Y-4697791D01*
X10745293Y-4529432D01*
X10846308Y-4428417D01*
X11014667Y-4327402D01*
X11115682Y-4293730D01*
X11250369Y-4293730D01*
X11385056Y-4361074D01*
X11452400Y-4428417D01*
X11519743Y-4563104D01*
X11519743Y-4630448D01*
X11553415Y-5943646D02*
X11149354Y-5539585D01*
X11351384Y-5741616D02*
X12058491Y-5034509D01*
X11890132Y-5068181D01*
X11755445Y-5068181D01*
X11654430Y-5034509D01*
X5359223Y5135416D02*
X5406842Y5087797D01*
X5454461Y4944940D01*
X5454461Y4849702D01*
X5406842Y4706844D01*
X5311604Y4611606D01*
X5216366Y4563987D01*
X5025890Y4516368D01*
X4883033Y4516368D01*
X4692557Y4563987D01*
X4597319Y4611606D01*
X4502081Y4706844D01*
X4454461Y4849702D01*
X4454461Y4944940D01*
X4502081Y5087797D01*
X4549700Y5135416D01*
X4549700Y5516368D02*
X4502081Y5563987D01*
X4454461Y5659225D01*
X4454461Y5897321D01*
X4502081Y5992559D01*
X4549700Y6040178D01*
X4644938Y6087797D01*
X4740176Y6087797D01*
X4883033Y6040178D01*
X5454461Y5468749D01*
X5454461Y6087797D01*
X9559224Y1635415D02*
X9606843Y1587796D01*
X9654462Y1444939D01*
X9654462Y1349701D01*
X9606843Y1206843D01*
X9511605Y1111605D01*
X9416367Y1063986D01*
X9225891Y1016367D01*
X9083034Y1016367D01*
X8892558Y1063986D01*
X8797320Y1111605D01*
X8702082Y1206843D01*
X8654462Y1349701D01*
X8654462Y1444939D01*
X8702082Y1587796D01*
X8749701Y1635415D01*
X8654462Y1968748D02*
X8654462Y2587796D01*
X9035415Y2254462D01*
X9035415Y2397320D01*
X9083034Y2492558D01*
X9130653Y2540177D01*
X9225891Y2587796D01*
X9463986Y2587796D01*
X9559224Y2540177D01*
X9606843Y2492558D01*
X9654462Y2397320D01*
X9654462Y2111605D01*
X9606843Y2016367D01*
X9559224Y1968748D01*
X22031691Y2867394D02*
X21964348Y2867394D01*
X21829661Y2934738D01*
X21762317Y3002081D01*
X21694974Y3136769D01*
X21694974Y3271456D01*
X21728645Y3372471D01*
X21829661Y3540830D01*
X21930676Y3641845D01*
X22099035Y3742860D01*
X22200050Y3776532D01*
X22334737Y3776532D01*
X22469424Y3709188D01*
X22536768Y3641845D01*
X22604111Y3507158D01*
X22604111Y3439814D01*
X23041844Y2665364D02*
X22570439Y2193959D01*
X23142859Y3103097D02*
X22469424Y2766379D01*
X22907157Y2328646D01*
X30307142Y4098334D02*
X30354761Y4050715D01*
X30402380Y3907858D01*
X30402380Y3812620D01*
X30354761Y3669762D01*
X30259523Y3574524D01*
X30164285Y3526905D01*
X29973809Y3479286D01*
X29830952Y3479286D01*
X29640476Y3526905D01*
X29545238Y3574524D01*
X29450000Y3669762D01*
X29402380Y3812620D01*
X29402380Y3907858D01*
X29450000Y4050715D01*
X29497619Y4098334D01*
X29402380Y5003096D02*
X29402380Y4526905D01*
X29878571Y4479286D01*
X29830952Y4526905D01*
X29783333Y4622143D01*
X29783333Y4860239D01*
X29830952Y4955477D01*
X29878571Y5003096D01*
X29973809Y5050715D01*
X30211904Y5050715D01*
X30307142Y5003096D01*
X30354761Y4955477D01*
X30402380Y4860239D01*
X30402380Y4622143D01*
X30354761Y4526905D01*
X30307142Y4479286D01*
X30854462Y-3136014D02*
X29854462Y-3136014D01*
X29854462Y-2897919D01*
X29902082Y-2755061D01*
X29997320Y-2659823D01*
X30092558Y-2612204D01*
X30283034Y-2564585D01*
X30425891Y-2564585D01*
X30616367Y-2612204D01*
X30711605Y-2659823D01*
X30806843Y-2755061D01*
X30854462Y-2897919D01*
X30854462Y-3136014D01*
X30854462Y-1612204D02*
X30854462Y-2183633D01*
X30854462Y-1897919D02*
X29854462Y-1897919D01*
X29997320Y-1993157D01*
X30092558Y-2088395D01*
X30140177Y-2183633D01*
X2430652Y1868749D02*
X2430652Y1535416D01*
X2954461Y1535416D02*
X1954461Y1535416D01*
X1954461Y2011606D01*
X2954461Y2916368D02*
X2954461Y2344940D01*
X2954461Y2630654D02*
X1954461Y2630654D01*
X2097319Y2535416D01*
X2192557Y2440178D01*
X2240176Y2344940D01*
X2940177Y-250299D02*
X2940177Y-1059823D01*
X2987796Y-1155061D01*
X3035415Y-1202680D01*
X3130653Y-1250299D01*
X3321129Y-1250299D01*
X3416367Y-1202680D01*
X3463986Y-1155061D01*
X3511605Y-1059823D01*
X3511605Y-250299D01*
X4511605Y-1250299D02*
X3940177Y-1250299D01*
X4225891Y-1250299D02*
X4225891Y-250299D01*
X4130653Y-393157D01*
X4035415Y-488395D01*
X3940177Y-536014D01*
X11308112Y4128556D02*
X11880532Y3556136D01*
X11981547Y3522464D01*
X12048891Y3522464D01*
X12149906Y3556136D01*
X12284593Y3690823D01*
X12318265Y3791838D01*
X12318265Y3859182D01*
X12284593Y3960197D01*
X11712173Y4532617D01*
X12082563Y4768319D02*
X12082563Y4835662D01*
X12116234Y4936678D01*
X12284593Y5105036D01*
X12385608Y5138708D01*
X12452952Y5138708D01*
X12553967Y5105036D01*
X12621311Y5037693D01*
X12688654Y4903006D01*
X12688654Y4094884D01*
X13126387Y4532617D01*
X7125890Y-1274108D02*
X7125890Y-1750298D01*
X6792557Y-750298D02*
X7125890Y-1274108D01*
X7459223Y-750298D01*
X8316366Y-1750298D02*
X7744938Y-1750298D01*
X8030652Y-1750298D02*
X8030652Y-750298D01*
X7935414Y-893156D01*
X7840176Y-988394D01*
X7744938Y-1036013D01*
M02*
