G04 #@! TF.GenerationSoftware,KiCad,Pcbnew,(5.1.2)-1*
G04 #@! TF.CreationDate,2019-08-22T01:38:59+09:00*
G04 #@! TF.ProjectId,AIR_SRV_SIX,4149525f-5352-4565-9f53-49582e6b6963,rev?*
G04 #@! TF.SameCoordinates,PXaba9500PY47868c0*
G04 #@! TF.FileFunction,Legend,Top*
G04 #@! TF.FilePolarity,Positive*
%FSLAX46Y46*%
G04 Gerber Fmt 4.6, Leading zero omitted, Abs format (unit mm)*
G04 Created by KiCad (PCBNEW (5.1.2)-1) date 2019-08-22 01:38:59*
%MOMM*%
%LPD*%
G04 APERTURE LIST*
%ADD10C,0.500000*%
%ADD11C,0.600000*%
%ADD12C,0.200000*%
%ADD13C,0.120000*%
%ADD14C,0.150000*%
%ADD15C,3.302000*%
%ADD16R,1.702000X1.702000*%
%ADD17O,1.702000X1.702000*%
%ADD18C,0.100000*%
%ADD19C,0.977000*%
%ADD20R,2.102000X2.102000*%
%ADD21C,2.102000*%
%ADD22C,0.702000*%
%ADD23C,1.302000*%
%ADD24O,1.852000X1.302000*%
%ADD25O,1.302000X1.852000*%
%ADD26C,1.802000*%
%ADD27O,2.052000X1.802000*%
%ADD28C,2.602000*%
%ADD29R,5.102000X5.102000*%
%ADD30C,1.702000*%
%ADD31C,1.702000*%
%ADD32C,1.626000*%
G04 APERTURE END LIST*
D10*
X90357142Y-29500000D02*
X90357142Y-25690476D01*
X92261904Y-27595238D02*
X88452380Y-27595238D01*
X90357142Y-23309523D02*
X90357142Y-19500000D01*
X81357142Y-15357142D02*
X79642857Y-15357142D01*
X80500000Y-15357142D02*
X80500000Y-12357142D01*
X80214285Y-12785714D01*
X79928571Y-13071428D01*
X79642857Y-13214285D01*
X82500000Y-12642857D02*
X82642857Y-12500000D01*
X82928571Y-12357142D01*
X83642857Y-12357142D01*
X83928571Y-12500000D01*
X84071428Y-12642857D01*
X84214285Y-12928571D01*
X84214285Y-13214285D01*
X84071428Y-13642857D01*
X82357142Y-15357142D01*
X84214285Y-15357142D01*
X85071428Y-12357142D02*
X86071428Y-15357142D01*
X87071428Y-12357142D01*
X90785714Y-15357142D02*
X90500000Y-15214285D01*
X90357142Y-15071428D01*
X90214285Y-14785714D01*
X90214285Y-13928571D01*
X90357142Y-13642857D01*
X90500000Y-13500000D01*
X90785714Y-13357142D01*
X91214285Y-13357142D01*
X91500000Y-13500000D01*
X91642857Y-13642857D01*
X91785714Y-13928571D01*
X91785714Y-14785714D01*
X91642857Y-15071428D01*
X91500000Y-15214285D01*
X91214285Y-15357142D01*
X90785714Y-15357142D01*
X93071428Y-13357142D02*
X93071428Y-15357142D01*
X93071428Y-13642857D02*
X93214285Y-13500000D01*
X93500000Y-13357142D01*
X93928571Y-13357142D01*
X94214285Y-13500000D01*
X94357142Y-13785714D01*
X94357142Y-15357142D01*
X96214285Y-15357142D02*
X95928571Y-15214285D01*
X95785714Y-14928571D01*
X95785714Y-12357142D01*
X97071428Y-13357142D02*
X97785714Y-15357142D01*
X98500000Y-13357142D02*
X97785714Y-15357142D01*
X97500000Y-16071428D01*
X97357142Y-16214285D01*
X97071428Y-16357142D01*
D11*
X73047619Y-69455952D02*
X73047619Y-66955952D01*
X73642857Y-66955952D01*
X74000000Y-67075000D01*
X74238095Y-67313095D01*
X74357142Y-67551190D01*
X74476190Y-68027380D01*
X74476190Y-68384523D01*
X74357142Y-68860714D01*
X74238095Y-69098809D01*
X74000000Y-69336904D01*
X73642857Y-69455952D01*
X73047619Y-69455952D01*
X76976190Y-69217857D02*
X76857142Y-69336904D01*
X76500000Y-69455952D01*
X76261904Y-69455952D01*
X75904761Y-69336904D01*
X75666666Y-69098809D01*
X75547619Y-68860714D01*
X75428571Y-68384523D01*
X75428571Y-68027380D01*
X75547619Y-67551190D01*
X75666666Y-67313095D01*
X75904761Y-67075000D01*
X76261904Y-66955952D01*
X76500000Y-66955952D01*
X76857142Y-67075000D01*
X76976190Y-67194047D01*
X78047619Y-68503571D02*
X79952380Y-68503571D01*
X81142857Y-69455952D02*
X81142857Y-66955952D01*
X81738095Y-66955952D01*
X82095238Y-67075000D01*
X82333333Y-67313095D01*
X82452380Y-67551190D01*
X82571428Y-68027380D01*
X82571428Y-68384523D01*
X82452380Y-68860714D01*
X82333333Y-69098809D01*
X82095238Y-69336904D01*
X81738095Y-69455952D01*
X81142857Y-69455952D01*
X85071428Y-69217857D02*
X84952380Y-69336904D01*
X84595238Y-69455952D01*
X84357142Y-69455952D01*
X84000000Y-69336904D01*
X83761904Y-69098809D01*
X83642857Y-68860714D01*
X83523809Y-68384523D01*
X83523809Y-68027380D01*
X83642857Y-67551190D01*
X83761904Y-67313095D01*
X84000000Y-67075000D01*
X84357142Y-66955952D01*
X84595238Y-66955952D01*
X84952380Y-67075000D01*
X85071428Y-67194047D01*
X75309523Y-71305952D02*
X74119047Y-71305952D01*
X74000000Y-72496428D01*
X74119047Y-72377380D01*
X74357142Y-72258333D01*
X74952380Y-72258333D01*
X75190476Y-72377380D01*
X75309523Y-72496428D01*
X75428571Y-72734523D01*
X75428571Y-73329761D01*
X75309523Y-73567857D01*
X75190476Y-73686904D01*
X74952380Y-73805952D01*
X74357142Y-73805952D01*
X74119047Y-73686904D01*
X74000000Y-73567857D01*
X76142857Y-71305952D02*
X76976190Y-73805952D01*
X77809523Y-71305952D01*
X80428571Y-71544047D02*
X80547619Y-71425000D01*
X80785714Y-71305952D01*
X81380952Y-71305952D01*
X81619047Y-71425000D01*
X81738095Y-71544047D01*
X81857142Y-71782142D01*
X81857142Y-72020238D01*
X81738095Y-72377380D01*
X80309523Y-73805952D01*
X81857142Y-73805952D01*
X82809523Y-73091666D02*
X84000000Y-73091666D01*
X82571428Y-73805952D02*
X83404761Y-71305952D01*
X84238095Y-73805952D01*
D12*
X12071428Y-60119047D02*
X12642857Y-61642857D01*
X13214285Y-60119047D01*
X12642857Y-59166666D02*
X12642857Y-57642857D01*
X12642857Y-56690476D02*
X12642857Y-55166666D01*
X12642857Y-54214285D02*
X12642857Y-52690476D01*
X13309523Y-51833333D02*
X13404761Y-51547619D01*
X13404761Y-51071428D01*
X13309523Y-50880952D01*
X13214285Y-50785714D01*
X13023809Y-50690476D01*
X12833333Y-50690476D01*
X12642857Y-50785714D01*
X12547619Y-50880952D01*
X12452380Y-51071428D01*
X12357142Y-51452380D01*
X12261904Y-51642857D01*
X12166666Y-51738095D01*
X11976190Y-51833333D01*
X11785714Y-51833333D01*
X11595238Y-51738095D01*
X11500000Y-51642857D01*
X11404761Y-51452380D01*
X11404761Y-50976190D01*
X11500000Y-50690476D01*
X13309523Y-49071428D02*
X13404761Y-49261904D01*
X13404761Y-49642857D01*
X13309523Y-49833333D01*
X13119047Y-49928571D01*
X12357142Y-49928571D01*
X12166666Y-49833333D01*
X12071428Y-49642857D01*
X12071428Y-49261904D01*
X12166666Y-49071428D01*
X12357142Y-48976190D01*
X12547619Y-48976190D01*
X12738095Y-49928571D01*
X12071428Y-48119047D02*
X13404761Y-48119047D01*
X12261904Y-48119047D02*
X12166666Y-48023809D01*
X12071428Y-47833333D01*
X12071428Y-47547619D01*
X12166666Y-47357142D01*
X12357142Y-47261904D01*
X13404761Y-47261904D01*
X13309523Y-46404761D02*
X13404761Y-46214285D01*
X13404761Y-45833333D01*
X13309523Y-45642857D01*
X13119047Y-45547619D01*
X13023809Y-45547619D01*
X12833333Y-45642857D01*
X12738095Y-45833333D01*
X12738095Y-46119047D01*
X12642857Y-46309523D01*
X12452380Y-46404761D01*
X12357142Y-46404761D01*
X12166666Y-46309523D01*
X12071428Y-46119047D01*
X12071428Y-45833333D01*
X12166666Y-45642857D01*
X13404761Y-44404761D02*
X13309523Y-44595238D01*
X13214285Y-44690476D01*
X13023809Y-44785714D01*
X12452380Y-44785714D01*
X12261904Y-44690476D01*
X12166666Y-44595238D01*
X12071428Y-44404761D01*
X12071428Y-44119047D01*
X12166666Y-43928571D01*
X12261904Y-43833333D01*
X12452380Y-43738095D01*
X13023809Y-43738095D01*
X13214285Y-43833333D01*
X13309523Y-43928571D01*
X13404761Y-44119047D01*
X13404761Y-44404761D01*
X13404761Y-42880952D02*
X12071428Y-42880952D01*
X12452380Y-42880952D02*
X12261904Y-42785714D01*
X12166666Y-42690476D01*
X12071428Y-42500000D01*
X12071428Y-42309523D01*
X12642857Y-40119047D02*
X12642857Y-38595238D01*
X12642857Y-37642857D02*
X12642857Y-36119047D01*
X12642857Y-35166666D02*
X12642857Y-33642857D01*
X12642857Y-32690476D02*
X12642857Y-31166666D01*
X12642857Y-30214285D02*
X12642857Y-28690476D01*
X12642857Y-27738095D02*
X12642857Y-26214285D01*
X12642857Y-25261904D02*
X12642857Y-23738095D01*
X12642857Y-22785714D02*
X12642857Y-21261904D01*
X12642857Y-20309523D02*
X12642857Y-18785714D01*
X12642857Y-17833333D02*
X12642857Y-16309523D01*
X12642857Y-15357142D02*
X12642857Y-13833333D01*
X12071428Y-12880952D02*
X12642857Y-11357142D01*
X13214285Y-12880952D01*
D10*
X22357142Y-64357142D02*
X20071428Y-65214285D01*
X22357142Y-66071428D01*
X23785714Y-65214285D02*
X26071428Y-65214285D01*
X27500000Y-65214285D02*
X29785714Y-65214285D01*
X31214285Y-65214285D02*
X33500000Y-65214285D01*
X34785714Y-66214285D02*
X35214285Y-66357142D01*
X35928571Y-66357142D01*
X36214285Y-66214285D01*
X36357142Y-66071428D01*
X36500000Y-65785714D01*
X36500000Y-65500000D01*
X36357142Y-65214285D01*
X36214285Y-65071428D01*
X35928571Y-64928571D01*
X35357142Y-64785714D01*
X35071428Y-64642857D01*
X34928571Y-64500000D01*
X34785714Y-64214285D01*
X34785714Y-63928571D01*
X34928571Y-63642857D01*
X35071428Y-63500000D01*
X35357142Y-63357142D01*
X36071428Y-63357142D01*
X36500000Y-63500000D01*
X38928571Y-66214285D02*
X38642857Y-66357142D01*
X38071428Y-66357142D01*
X37785714Y-66214285D01*
X37642857Y-65928571D01*
X37642857Y-64785714D01*
X37785714Y-64500000D01*
X38071428Y-64357142D01*
X38642857Y-64357142D01*
X38928571Y-64500000D01*
X39071428Y-64785714D01*
X39071428Y-65071428D01*
X37642857Y-65357142D01*
X40357142Y-66357142D02*
X40357142Y-64357142D01*
X40357142Y-64928571D02*
X40500000Y-64642857D01*
X40642857Y-64500000D01*
X40928571Y-64357142D01*
X41214285Y-64357142D01*
X41928571Y-64357142D02*
X42642857Y-66357142D01*
X43357142Y-64357142D01*
X44928571Y-66357142D02*
X44642857Y-66214285D01*
X44500000Y-66071428D01*
X44357142Y-65785714D01*
X44357142Y-64928571D01*
X44500000Y-64642857D01*
X44642857Y-64500000D01*
X44928571Y-64357142D01*
X45357142Y-64357142D01*
X45642857Y-64500000D01*
X45785714Y-64642857D01*
X45928571Y-64928571D01*
X45928571Y-65785714D01*
X45785714Y-66071428D01*
X45642857Y-66214285D01*
X45357142Y-66357142D01*
X44928571Y-66357142D01*
X47214285Y-65214285D02*
X49500000Y-65214285D01*
X50928571Y-65214285D02*
X53214285Y-65214285D01*
X54642857Y-64357142D02*
X56928571Y-65214285D01*
X54642857Y-66071428D01*
D13*
X29550000Y-52000000D02*
X29550000Y-54540000D01*
X29550000Y-54540000D02*
X32220000Y-54540000D01*
X32220000Y-52000000D02*
X32220000Y-13770000D01*
X32220000Y-57210000D02*
X32220000Y-54540000D01*
X16850000Y-54540000D02*
X14180000Y-54540000D01*
X16850000Y-54540000D02*
X16850000Y-16440000D01*
X16850000Y-16440000D02*
X14180000Y-16440000D01*
X29550000Y-52000000D02*
X32220000Y-52000000D01*
X29550000Y-52000000D02*
X29550000Y-16440000D01*
X29550000Y-16440000D02*
X32220000Y-16440000D01*
X32220000Y-13770000D02*
X14180000Y-13770000D01*
X14180000Y-13770000D02*
X14180000Y-57210000D01*
X14180000Y-57210000D02*
X32220000Y-57210000D01*
X46684721Y-60380000D02*
X47010279Y-60380000D01*
X46684721Y-61400000D02*
X47010279Y-61400000D01*
X46684721Y-56320000D02*
X47010279Y-56320000D01*
X46684721Y-55300000D02*
X47010279Y-55300000D01*
X91860000Y-41840000D02*
G75*
G03X91860000Y-41840000I-5120000J0D01*
G01*
X86740000Y-46920000D02*
X86740000Y-36760000D01*
X86700000Y-46920000D02*
X86700000Y-36760000D01*
X86660000Y-46920000D02*
X86660000Y-36760000D01*
X86620000Y-46919000D02*
X86620000Y-36761000D01*
X86580000Y-46918000D02*
X86580000Y-36762000D01*
X86540000Y-46917000D02*
X86540000Y-36763000D01*
X86500000Y-46915000D02*
X86500000Y-36765000D01*
X86460000Y-46913000D02*
X86460000Y-36767000D01*
X86420000Y-46910000D02*
X86420000Y-36770000D01*
X86380000Y-46908000D02*
X86380000Y-36772000D01*
X86340000Y-46905000D02*
X86340000Y-36775000D01*
X86300000Y-46902000D02*
X86300000Y-36778000D01*
X86260000Y-46898000D02*
X86260000Y-36782000D01*
X86220000Y-46894000D02*
X86220000Y-36786000D01*
X86180000Y-46890000D02*
X86180000Y-36790000D01*
X86140000Y-46885000D02*
X86140000Y-36795000D01*
X86100000Y-46880000D02*
X86100000Y-36800000D01*
X86060000Y-46875000D02*
X86060000Y-36805000D01*
X86019000Y-46870000D02*
X86019000Y-36810000D01*
X85979000Y-46864000D02*
X85979000Y-36816000D01*
X85939000Y-46858000D02*
X85939000Y-36822000D01*
X85899000Y-46851000D02*
X85899000Y-36829000D01*
X85859000Y-46844000D02*
X85859000Y-36836000D01*
X85819000Y-46837000D02*
X85819000Y-36843000D01*
X85779000Y-46830000D02*
X85779000Y-36850000D01*
X85739000Y-46822000D02*
X85739000Y-36858000D01*
X85699000Y-46814000D02*
X85699000Y-36866000D01*
X85659000Y-46805000D02*
X85659000Y-36875000D01*
X85619000Y-46796000D02*
X85619000Y-36884000D01*
X85579000Y-46787000D02*
X85579000Y-36893000D01*
X85539000Y-46778000D02*
X85539000Y-36902000D01*
X85499000Y-46768000D02*
X85499000Y-36912000D01*
X85459000Y-46758000D02*
X85459000Y-43081000D01*
X85459000Y-40599000D02*
X85459000Y-36922000D01*
X85419000Y-46747000D02*
X85419000Y-43081000D01*
X85419000Y-40599000D02*
X85419000Y-36933000D01*
X85379000Y-46737000D02*
X85379000Y-43081000D01*
X85379000Y-40599000D02*
X85379000Y-36943000D01*
X85339000Y-46725000D02*
X85339000Y-43081000D01*
X85339000Y-40599000D02*
X85339000Y-36955000D01*
X85299000Y-46714000D02*
X85299000Y-43081000D01*
X85299000Y-40599000D02*
X85299000Y-36966000D01*
X85259000Y-46702000D02*
X85259000Y-43081000D01*
X85259000Y-40599000D02*
X85259000Y-36978000D01*
X85219000Y-46690000D02*
X85219000Y-43081000D01*
X85219000Y-40599000D02*
X85219000Y-36990000D01*
X85179000Y-46677000D02*
X85179000Y-43081000D01*
X85179000Y-40599000D02*
X85179000Y-37003000D01*
X85139000Y-46664000D02*
X85139000Y-43081000D01*
X85139000Y-40599000D02*
X85139000Y-37016000D01*
X85099000Y-46651000D02*
X85099000Y-43081000D01*
X85099000Y-40599000D02*
X85099000Y-37029000D01*
X85059000Y-46637000D02*
X85059000Y-43081000D01*
X85059000Y-40599000D02*
X85059000Y-37043000D01*
X85019000Y-46623000D02*
X85019000Y-43081000D01*
X85019000Y-40599000D02*
X85019000Y-37057000D01*
X84979000Y-46608000D02*
X84979000Y-43081000D01*
X84979000Y-40599000D02*
X84979000Y-37072000D01*
X84939000Y-46594000D02*
X84939000Y-43081000D01*
X84939000Y-40599000D02*
X84939000Y-37086000D01*
X84899000Y-46578000D02*
X84899000Y-43081000D01*
X84899000Y-40599000D02*
X84899000Y-37102000D01*
X84859000Y-46563000D02*
X84859000Y-43081000D01*
X84859000Y-40599000D02*
X84859000Y-37117000D01*
X84819000Y-46547000D02*
X84819000Y-43081000D01*
X84819000Y-40599000D02*
X84819000Y-37133000D01*
X84779000Y-46530000D02*
X84779000Y-43081000D01*
X84779000Y-40599000D02*
X84779000Y-37150000D01*
X84739000Y-46514000D02*
X84739000Y-43081000D01*
X84739000Y-40599000D02*
X84739000Y-37166000D01*
X84699000Y-46497000D02*
X84699000Y-43081000D01*
X84699000Y-40599000D02*
X84699000Y-37183000D01*
X84659000Y-46479000D02*
X84659000Y-43081000D01*
X84659000Y-40599000D02*
X84659000Y-37201000D01*
X84619000Y-46461000D02*
X84619000Y-43081000D01*
X84619000Y-40599000D02*
X84619000Y-37219000D01*
X84579000Y-46443000D02*
X84579000Y-43081000D01*
X84579000Y-40599000D02*
X84579000Y-37237000D01*
X84539000Y-46424000D02*
X84539000Y-43081000D01*
X84539000Y-40599000D02*
X84539000Y-37256000D01*
X84499000Y-46404000D02*
X84499000Y-43081000D01*
X84499000Y-40599000D02*
X84499000Y-37276000D01*
X84459000Y-46385000D02*
X84459000Y-43081000D01*
X84459000Y-40599000D02*
X84459000Y-37295000D01*
X84419000Y-46365000D02*
X84419000Y-43081000D01*
X84419000Y-40599000D02*
X84419000Y-37315000D01*
X84379000Y-46344000D02*
X84379000Y-43081000D01*
X84379000Y-40599000D02*
X84379000Y-37336000D01*
X84339000Y-46323000D02*
X84339000Y-43081000D01*
X84339000Y-40599000D02*
X84339000Y-37357000D01*
X84299000Y-46302000D02*
X84299000Y-43081000D01*
X84299000Y-40599000D02*
X84299000Y-37378000D01*
X84259000Y-46280000D02*
X84259000Y-43081000D01*
X84259000Y-40599000D02*
X84259000Y-37400000D01*
X84219000Y-46257000D02*
X84219000Y-43081000D01*
X84219000Y-40599000D02*
X84219000Y-37423000D01*
X84179000Y-46235000D02*
X84179000Y-43081000D01*
X84179000Y-40599000D02*
X84179000Y-37445000D01*
X84139000Y-46211000D02*
X84139000Y-43081000D01*
X84139000Y-40599000D02*
X84139000Y-37469000D01*
X84099000Y-46187000D02*
X84099000Y-43081000D01*
X84099000Y-40599000D02*
X84099000Y-37493000D01*
X84059000Y-46163000D02*
X84059000Y-43081000D01*
X84059000Y-40599000D02*
X84059000Y-37517000D01*
X84019000Y-46138000D02*
X84019000Y-43081000D01*
X84019000Y-40599000D02*
X84019000Y-37542000D01*
X83979000Y-46113000D02*
X83979000Y-43081000D01*
X83979000Y-40599000D02*
X83979000Y-37567000D01*
X83939000Y-46087000D02*
X83939000Y-43081000D01*
X83939000Y-40599000D02*
X83939000Y-37593000D01*
X83899000Y-46061000D02*
X83899000Y-43081000D01*
X83899000Y-40599000D02*
X83899000Y-37619000D01*
X83859000Y-46034000D02*
X83859000Y-43081000D01*
X83859000Y-40599000D02*
X83859000Y-37646000D01*
X83819000Y-46006000D02*
X83819000Y-43081000D01*
X83819000Y-40599000D02*
X83819000Y-37674000D01*
X83779000Y-45978000D02*
X83779000Y-43081000D01*
X83779000Y-40599000D02*
X83779000Y-37702000D01*
X83739000Y-45950000D02*
X83739000Y-43081000D01*
X83739000Y-40599000D02*
X83739000Y-37730000D01*
X83699000Y-45920000D02*
X83699000Y-43081000D01*
X83699000Y-40599000D02*
X83699000Y-37760000D01*
X83659000Y-45890000D02*
X83659000Y-43081000D01*
X83659000Y-40599000D02*
X83659000Y-37790000D01*
X83619000Y-45860000D02*
X83619000Y-43081000D01*
X83619000Y-40599000D02*
X83619000Y-37820000D01*
X83579000Y-45829000D02*
X83579000Y-43081000D01*
X83579000Y-40599000D02*
X83579000Y-37851000D01*
X83539000Y-45797000D02*
X83539000Y-43081000D01*
X83539000Y-40599000D02*
X83539000Y-37883000D01*
X83499000Y-45765000D02*
X83499000Y-43081000D01*
X83499000Y-40599000D02*
X83499000Y-37915000D01*
X83459000Y-45732000D02*
X83459000Y-43081000D01*
X83459000Y-40599000D02*
X83459000Y-37948000D01*
X83419000Y-45698000D02*
X83419000Y-43081000D01*
X83419000Y-40599000D02*
X83419000Y-37982000D01*
X83379000Y-45664000D02*
X83379000Y-43081000D01*
X83379000Y-40599000D02*
X83379000Y-38016000D01*
X83339000Y-45629000D02*
X83339000Y-43081000D01*
X83339000Y-40599000D02*
X83339000Y-38051000D01*
X83299000Y-45593000D02*
X83299000Y-43081000D01*
X83299000Y-40599000D02*
X83299000Y-38087000D01*
X83259000Y-45556000D02*
X83259000Y-43081000D01*
X83259000Y-40599000D02*
X83259000Y-38124000D01*
X83219000Y-45519000D02*
X83219000Y-43081000D01*
X83219000Y-40599000D02*
X83219000Y-38161000D01*
X83179000Y-45480000D02*
X83179000Y-43081000D01*
X83179000Y-40599000D02*
X83179000Y-38200000D01*
X83139000Y-45441000D02*
X83139000Y-43081000D01*
X83139000Y-40599000D02*
X83139000Y-38239000D01*
X83099000Y-45401000D02*
X83099000Y-43081000D01*
X83099000Y-40599000D02*
X83099000Y-38279000D01*
X83059000Y-45360000D02*
X83059000Y-43081000D01*
X83059000Y-40599000D02*
X83059000Y-38320000D01*
X83019000Y-45318000D02*
X83019000Y-43081000D01*
X83019000Y-40599000D02*
X83019000Y-38362000D01*
X82979000Y-45276000D02*
X82979000Y-38404000D01*
X82939000Y-45232000D02*
X82939000Y-38448000D01*
X82899000Y-45187000D02*
X82899000Y-38493000D01*
X82859000Y-45141000D02*
X82859000Y-38539000D01*
X82819000Y-45094000D02*
X82819000Y-38586000D01*
X82779000Y-45046000D02*
X82779000Y-38634000D01*
X82739000Y-44996000D02*
X82739000Y-38684000D01*
X82699000Y-44946000D02*
X82699000Y-38734000D01*
X82659000Y-44894000D02*
X82659000Y-38786000D01*
X82619000Y-44840000D02*
X82619000Y-38840000D01*
X82579000Y-44785000D02*
X82579000Y-38895000D01*
X82539000Y-44729000D02*
X82539000Y-38951000D01*
X82499000Y-44670000D02*
X82499000Y-39010000D01*
X82459000Y-44610000D02*
X82459000Y-39070000D01*
X82419000Y-44549000D02*
X82419000Y-39131000D01*
X82379000Y-44485000D02*
X82379000Y-39195000D01*
X82339000Y-44419000D02*
X82339000Y-39261000D01*
X82299000Y-44350000D02*
X82299000Y-39330000D01*
X82259000Y-44279000D02*
X82259000Y-39401000D01*
X82219000Y-44205000D02*
X82219000Y-39475000D01*
X82179000Y-44129000D02*
X82179000Y-39551000D01*
X82139000Y-44049000D02*
X82139000Y-39631000D01*
X82099000Y-43965000D02*
X82099000Y-39715000D01*
X82059000Y-43877000D02*
X82059000Y-39803000D01*
X82019000Y-43784000D02*
X82019000Y-39896000D01*
X81979000Y-43686000D02*
X81979000Y-39994000D01*
X81939000Y-43582000D02*
X81939000Y-40098000D01*
X81899000Y-43470000D02*
X81899000Y-40210000D01*
X81859000Y-43350000D02*
X81859000Y-40330000D01*
X81819000Y-43218000D02*
X81819000Y-40462000D01*
X81779000Y-43070000D02*
X81779000Y-40610000D01*
X81739000Y-42902000D02*
X81739000Y-40778000D01*
X81699000Y-42702000D02*
X81699000Y-40978000D01*
X81659000Y-42439000D02*
X81659000Y-41241000D01*
X92219646Y-44715000D02*
X91219646Y-44715000D01*
X91719646Y-45215000D02*
X91719646Y-44215000D01*
X79080000Y-41840000D02*
G75*
G03X79080000Y-41840000I-5120000J0D01*
G01*
X73960000Y-36760000D02*
X73960000Y-46920000D01*
X74000000Y-36760000D02*
X74000000Y-46920000D01*
X74040000Y-36760000D02*
X74040000Y-46920000D01*
X74080000Y-36761000D02*
X74080000Y-46919000D01*
X74120000Y-36762000D02*
X74120000Y-46918000D01*
X74160000Y-36763000D02*
X74160000Y-46917000D01*
X74200000Y-36765000D02*
X74200000Y-46915000D01*
X74240000Y-36767000D02*
X74240000Y-46913000D01*
X74280000Y-36770000D02*
X74280000Y-46910000D01*
X74320000Y-36772000D02*
X74320000Y-46908000D01*
X74360000Y-36775000D02*
X74360000Y-46905000D01*
X74400000Y-36778000D02*
X74400000Y-46902000D01*
X74440000Y-36782000D02*
X74440000Y-46898000D01*
X74480000Y-36786000D02*
X74480000Y-46894000D01*
X74520000Y-36790000D02*
X74520000Y-46890000D01*
X74560000Y-36795000D02*
X74560000Y-46885000D01*
X74600000Y-36800000D02*
X74600000Y-46880000D01*
X74640000Y-36805000D02*
X74640000Y-46875000D01*
X74681000Y-36810000D02*
X74681000Y-46870000D01*
X74721000Y-36816000D02*
X74721000Y-46864000D01*
X74761000Y-36822000D02*
X74761000Y-46858000D01*
X74801000Y-36829000D02*
X74801000Y-46851000D01*
X74841000Y-36836000D02*
X74841000Y-46844000D01*
X74881000Y-36843000D02*
X74881000Y-46837000D01*
X74921000Y-36850000D02*
X74921000Y-46830000D01*
X74961000Y-36858000D02*
X74961000Y-46822000D01*
X75001000Y-36866000D02*
X75001000Y-46814000D01*
X75041000Y-36875000D02*
X75041000Y-46805000D01*
X75081000Y-36884000D02*
X75081000Y-46796000D01*
X75121000Y-36893000D02*
X75121000Y-46787000D01*
X75161000Y-36902000D02*
X75161000Y-46778000D01*
X75201000Y-36912000D02*
X75201000Y-46768000D01*
X75241000Y-36922000D02*
X75241000Y-40599000D01*
X75241000Y-43081000D02*
X75241000Y-46758000D01*
X75281000Y-36933000D02*
X75281000Y-40599000D01*
X75281000Y-43081000D02*
X75281000Y-46747000D01*
X75321000Y-36943000D02*
X75321000Y-40599000D01*
X75321000Y-43081000D02*
X75321000Y-46737000D01*
X75361000Y-36955000D02*
X75361000Y-40599000D01*
X75361000Y-43081000D02*
X75361000Y-46725000D01*
X75401000Y-36966000D02*
X75401000Y-40599000D01*
X75401000Y-43081000D02*
X75401000Y-46714000D01*
X75441000Y-36978000D02*
X75441000Y-40599000D01*
X75441000Y-43081000D02*
X75441000Y-46702000D01*
X75481000Y-36990000D02*
X75481000Y-40599000D01*
X75481000Y-43081000D02*
X75481000Y-46690000D01*
X75521000Y-37003000D02*
X75521000Y-40599000D01*
X75521000Y-43081000D02*
X75521000Y-46677000D01*
X75561000Y-37016000D02*
X75561000Y-40599000D01*
X75561000Y-43081000D02*
X75561000Y-46664000D01*
X75601000Y-37029000D02*
X75601000Y-40599000D01*
X75601000Y-43081000D02*
X75601000Y-46651000D01*
X75641000Y-37043000D02*
X75641000Y-40599000D01*
X75641000Y-43081000D02*
X75641000Y-46637000D01*
X75681000Y-37057000D02*
X75681000Y-40599000D01*
X75681000Y-43081000D02*
X75681000Y-46623000D01*
X75721000Y-37072000D02*
X75721000Y-40599000D01*
X75721000Y-43081000D02*
X75721000Y-46608000D01*
X75761000Y-37086000D02*
X75761000Y-40599000D01*
X75761000Y-43081000D02*
X75761000Y-46594000D01*
X75801000Y-37102000D02*
X75801000Y-40599000D01*
X75801000Y-43081000D02*
X75801000Y-46578000D01*
X75841000Y-37117000D02*
X75841000Y-40599000D01*
X75841000Y-43081000D02*
X75841000Y-46563000D01*
X75881000Y-37133000D02*
X75881000Y-40599000D01*
X75881000Y-43081000D02*
X75881000Y-46547000D01*
X75921000Y-37150000D02*
X75921000Y-40599000D01*
X75921000Y-43081000D02*
X75921000Y-46530000D01*
X75961000Y-37166000D02*
X75961000Y-40599000D01*
X75961000Y-43081000D02*
X75961000Y-46514000D01*
X76001000Y-37183000D02*
X76001000Y-40599000D01*
X76001000Y-43081000D02*
X76001000Y-46497000D01*
X76041000Y-37201000D02*
X76041000Y-40599000D01*
X76041000Y-43081000D02*
X76041000Y-46479000D01*
X76081000Y-37219000D02*
X76081000Y-40599000D01*
X76081000Y-43081000D02*
X76081000Y-46461000D01*
X76121000Y-37237000D02*
X76121000Y-40599000D01*
X76121000Y-43081000D02*
X76121000Y-46443000D01*
X76161000Y-37256000D02*
X76161000Y-40599000D01*
X76161000Y-43081000D02*
X76161000Y-46424000D01*
X76201000Y-37276000D02*
X76201000Y-40599000D01*
X76201000Y-43081000D02*
X76201000Y-46404000D01*
X76241000Y-37295000D02*
X76241000Y-40599000D01*
X76241000Y-43081000D02*
X76241000Y-46385000D01*
X76281000Y-37315000D02*
X76281000Y-40599000D01*
X76281000Y-43081000D02*
X76281000Y-46365000D01*
X76321000Y-37336000D02*
X76321000Y-40599000D01*
X76321000Y-43081000D02*
X76321000Y-46344000D01*
X76361000Y-37357000D02*
X76361000Y-40599000D01*
X76361000Y-43081000D02*
X76361000Y-46323000D01*
X76401000Y-37378000D02*
X76401000Y-40599000D01*
X76401000Y-43081000D02*
X76401000Y-46302000D01*
X76441000Y-37400000D02*
X76441000Y-40599000D01*
X76441000Y-43081000D02*
X76441000Y-46280000D01*
X76481000Y-37423000D02*
X76481000Y-40599000D01*
X76481000Y-43081000D02*
X76481000Y-46257000D01*
X76521000Y-37445000D02*
X76521000Y-40599000D01*
X76521000Y-43081000D02*
X76521000Y-46235000D01*
X76561000Y-37469000D02*
X76561000Y-40599000D01*
X76561000Y-43081000D02*
X76561000Y-46211000D01*
X76601000Y-37493000D02*
X76601000Y-40599000D01*
X76601000Y-43081000D02*
X76601000Y-46187000D01*
X76641000Y-37517000D02*
X76641000Y-40599000D01*
X76641000Y-43081000D02*
X76641000Y-46163000D01*
X76681000Y-37542000D02*
X76681000Y-40599000D01*
X76681000Y-43081000D02*
X76681000Y-46138000D01*
X76721000Y-37567000D02*
X76721000Y-40599000D01*
X76721000Y-43081000D02*
X76721000Y-46113000D01*
X76761000Y-37593000D02*
X76761000Y-40599000D01*
X76761000Y-43081000D02*
X76761000Y-46087000D01*
X76801000Y-37619000D02*
X76801000Y-40599000D01*
X76801000Y-43081000D02*
X76801000Y-46061000D01*
X76841000Y-37646000D02*
X76841000Y-40599000D01*
X76841000Y-43081000D02*
X76841000Y-46034000D01*
X76881000Y-37674000D02*
X76881000Y-40599000D01*
X76881000Y-43081000D02*
X76881000Y-46006000D01*
X76921000Y-37702000D02*
X76921000Y-40599000D01*
X76921000Y-43081000D02*
X76921000Y-45978000D01*
X76961000Y-37730000D02*
X76961000Y-40599000D01*
X76961000Y-43081000D02*
X76961000Y-45950000D01*
X77001000Y-37760000D02*
X77001000Y-40599000D01*
X77001000Y-43081000D02*
X77001000Y-45920000D01*
X77041000Y-37790000D02*
X77041000Y-40599000D01*
X77041000Y-43081000D02*
X77041000Y-45890000D01*
X77081000Y-37820000D02*
X77081000Y-40599000D01*
X77081000Y-43081000D02*
X77081000Y-45860000D01*
X77121000Y-37851000D02*
X77121000Y-40599000D01*
X77121000Y-43081000D02*
X77121000Y-45829000D01*
X77161000Y-37883000D02*
X77161000Y-40599000D01*
X77161000Y-43081000D02*
X77161000Y-45797000D01*
X77201000Y-37915000D02*
X77201000Y-40599000D01*
X77201000Y-43081000D02*
X77201000Y-45765000D01*
X77241000Y-37948000D02*
X77241000Y-40599000D01*
X77241000Y-43081000D02*
X77241000Y-45732000D01*
X77281000Y-37982000D02*
X77281000Y-40599000D01*
X77281000Y-43081000D02*
X77281000Y-45698000D01*
X77321000Y-38016000D02*
X77321000Y-40599000D01*
X77321000Y-43081000D02*
X77321000Y-45664000D01*
X77361000Y-38051000D02*
X77361000Y-40599000D01*
X77361000Y-43081000D02*
X77361000Y-45629000D01*
X77401000Y-38087000D02*
X77401000Y-40599000D01*
X77401000Y-43081000D02*
X77401000Y-45593000D01*
X77441000Y-38124000D02*
X77441000Y-40599000D01*
X77441000Y-43081000D02*
X77441000Y-45556000D01*
X77481000Y-38161000D02*
X77481000Y-40599000D01*
X77481000Y-43081000D02*
X77481000Y-45519000D01*
X77521000Y-38200000D02*
X77521000Y-40599000D01*
X77521000Y-43081000D02*
X77521000Y-45480000D01*
X77561000Y-38239000D02*
X77561000Y-40599000D01*
X77561000Y-43081000D02*
X77561000Y-45441000D01*
X77601000Y-38279000D02*
X77601000Y-40599000D01*
X77601000Y-43081000D02*
X77601000Y-45401000D01*
X77641000Y-38320000D02*
X77641000Y-40599000D01*
X77641000Y-43081000D02*
X77641000Y-45360000D01*
X77681000Y-38362000D02*
X77681000Y-40599000D01*
X77681000Y-43081000D02*
X77681000Y-45318000D01*
X77721000Y-38404000D02*
X77721000Y-45276000D01*
X77761000Y-38448000D02*
X77761000Y-45232000D01*
X77801000Y-38493000D02*
X77801000Y-45187000D01*
X77841000Y-38539000D02*
X77841000Y-45141000D01*
X77881000Y-38586000D02*
X77881000Y-45094000D01*
X77921000Y-38634000D02*
X77921000Y-45046000D01*
X77961000Y-38684000D02*
X77961000Y-44996000D01*
X78001000Y-38734000D02*
X78001000Y-44946000D01*
X78041000Y-38786000D02*
X78041000Y-44894000D01*
X78081000Y-38840000D02*
X78081000Y-44840000D01*
X78121000Y-38895000D02*
X78121000Y-44785000D01*
X78161000Y-38951000D02*
X78161000Y-44729000D01*
X78201000Y-39010000D02*
X78201000Y-44670000D01*
X78241000Y-39070000D02*
X78241000Y-44610000D01*
X78281000Y-39131000D02*
X78281000Y-44549000D01*
X78321000Y-39195000D02*
X78321000Y-44485000D01*
X78361000Y-39261000D02*
X78361000Y-44419000D01*
X78401000Y-39330000D02*
X78401000Y-44350000D01*
X78441000Y-39401000D02*
X78441000Y-44279000D01*
X78481000Y-39475000D02*
X78481000Y-44205000D01*
X78521000Y-39551000D02*
X78521000Y-44129000D01*
X78561000Y-39631000D02*
X78561000Y-44049000D01*
X78601000Y-39715000D02*
X78601000Y-43965000D01*
X78641000Y-39803000D02*
X78641000Y-43877000D01*
X78681000Y-39896000D02*
X78681000Y-43784000D01*
X78721000Y-39994000D02*
X78721000Y-43686000D01*
X78761000Y-40098000D02*
X78761000Y-43582000D01*
X78801000Y-40210000D02*
X78801000Y-43470000D01*
X78841000Y-40330000D02*
X78841000Y-43350000D01*
X78881000Y-40462000D02*
X78881000Y-43218000D01*
X78921000Y-40610000D02*
X78921000Y-43070000D01*
X78961000Y-40778000D02*
X78961000Y-42902000D01*
X79001000Y-40978000D02*
X79001000Y-42702000D01*
X79041000Y-41241000D02*
X79041000Y-42439000D01*
X68480354Y-38965000D02*
X69480354Y-38965000D01*
X68980354Y-38465000D02*
X68980354Y-39465000D01*
X34650000Y-58350000D02*
X34650000Y-60300000D01*
X34650000Y-58350000D02*
X34650000Y-56400000D01*
X44770000Y-58350000D02*
X44770000Y-60300000D01*
X44770000Y-58350000D02*
X44770000Y-54900000D01*
X20120000Y-75650000D02*
X24840000Y-75650000D01*
X24840000Y-75650000D02*
X24840000Y-67530000D01*
X24840000Y-67530000D02*
X20120000Y-67530000D01*
X20120000Y-67530000D02*
X20120000Y-75650000D01*
X20120000Y-73890000D02*
X19920000Y-73890000D01*
X19920000Y-73890000D02*
X19920000Y-74190000D01*
X19920000Y-74190000D02*
X20120000Y-74190000D01*
X20020000Y-73890000D02*
X20020000Y-74190000D01*
X20120000Y-73090000D02*
X20730000Y-73090000D01*
X20730000Y-73090000D02*
X20730000Y-75040000D01*
X20730000Y-75040000D02*
X24230000Y-75040000D01*
X24230000Y-75040000D02*
X24230000Y-68140000D01*
X24230000Y-68140000D02*
X20730000Y-68140000D01*
X20730000Y-68140000D02*
X20730000Y-70090000D01*
X20730000Y-70090000D02*
X20120000Y-70090000D01*
X21430000Y-75650000D02*
X21430000Y-75040000D01*
X22730000Y-75650000D02*
X22730000Y-75040000D01*
X21430000Y-67530000D02*
X21430000Y-68140000D01*
X22730000Y-67530000D02*
X22730000Y-68140000D01*
X24230000Y-72690000D02*
X23730000Y-72690000D01*
X23730000Y-72690000D02*
X23730000Y-72490000D01*
X23730000Y-72490000D02*
X24230000Y-72490000D01*
X24230000Y-72590000D02*
X23730000Y-72590000D01*
X24230000Y-70690000D02*
X23730000Y-70690000D01*
X23730000Y-70690000D02*
X23730000Y-70490000D01*
X23730000Y-70490000D02*
X24230000Y-70490000D01*
X24230000Y-70590000D02*
X23730000Y-70590000D01*
X19820000Y-74700000D02*
X19820000Y-75950000D01*
X19820000Y-75950000D02*
X21070000Y-75950000D01*
X26470000Y-75650000D02*
X31190000Y-75650000D01*
X31190000Y-75650000D02*
X31190000Y-67530000D01*
X31190000Y-67530000D02*
X26470000Y-67530000D01*
X26470000Y-67530000D02*
X26470000Y-75650000D01*
X26470000Y-73890000D02*
X26270000Y-73890000D01*
X26270000Y-73890000D02*
X26270000Y-74190000D01*
X26270000Y-74190000D02*
X26470000Y-74190000D01*
X26370000Y-73890000D02*
X26370000Y-74190000D01*
X26470000Y-73090000D02*
X27080000Y-73090000D01*
X27080000Y-73090000D02*
X27080000Y-75040000D01*
X27080000Y-75040000D02*
X30580000Y-75040000D01*
X30580000Y-75040000D02*
X30580000Y-68140000D01*
X30580000Y-68140000D02*
X27080000Y-68140000D01*
X27080000Y-68140000D02*
X27080000Y-70090000D01*
X27080000Y-70090000D02*
X26470000Y-70090000D01*
X27780000Y-75650000D02*
X27780000Y-75040000D01*
X29080000Y-75650000D02*
X29080000Y-75040000D01*
X27780000Y-67530000D02*
X27780000Y-68140000D01*
X29080000Y-67530000D02*
X29080000Y-68140000D01*
X30580000Y-72690000D02*
X30080000Y-72690000D01*
X30080000Y-72690000D02*
X30080000Y-72490000D01*
X30080000Y-72490000D02*
X30580000Y-72490000D01*
X30580000Y-72590000D02*
X30080000Y-72590000D01*
X30580000Y-70690000D02*
X30080000Y-70690000D01*
X30080000Y-70690000D02*
X30080000Y-70490000D01*
X30080000Y-70490000D02*
X30580000Y-70490000D01*
X30580000Y-70590000D02*
X30080000Y-70590000D01*
X26170000Y-74700000D02*
X26170000Y-75950000D01*
X26170000Y-75950000D02*
X27420000Y-75950000D01*
X32820000Y-75650000D02*
X37540000Y-75650000D01*
X37540000Y-75650000D02*
X37540000Y-67530000D01*
X37540000Y-67530000D02*
X32820000Y-67530000D01*
X32820000Y-67530000D02*
X32820000Y-75650000D01*
X32820000Y-73890000D02*
X32620000Y-73890000D01*
X32620000Y-73890000D02*
X32620000Y-74190000D01*
X32620000Y-74190000D02*
X32820000Y-74190000D01*
X32720000Y-73890000D02*
X32720000Y-74190000D01*
X32820000Y-73090000D02*
X33430000Y-73090000D01*
X33430000Y-73090000D02*
X33430000Y-75040000D01*
X33430000Y-75040000D02*
X36930000Y-75040000D01*
X36930000Y-75040000D02*
X36930000Y-68140000D01*
X36930000Y-68140000D02*
X33430000Y-68140000D01*
X33430000Y-68140000D02*
X33430000Y-70090000D01*
X33430000Y-70090000D02*
X32820000Y-70090000D01*
X34130000Y-75650000D02*
X34130000Y-75040000D01*
X35430000Y-75650000D02*
X35430000Y-75040000D01*
X34130000Y-67530000D02*
X34130000Y-68140000D01*
X35430000Y-67530000D02*
X35430000Y-68140000D01*
X36930000Y-72690000D02*
X36430000Y-72690000D01*
X36430000Y-72690000D02*
X36430000Y-72490000D01*
X36430000Y-72490000D02*
X36930000Y-72490000D01*
X36930000Y-72590000D02*
X36430000Y-72590000D01*
X36930000Y-70690000D02*
X36430000Y-70690000D01*
X36430000Y-70690000D02*
X36430000Y-70490000D01*
X36430000Y-70490000D02*
X36930000Y-70490000D01*
X36930000Y-70590000D02*
X36430000Y-70590000D01*
X32520000Y-74700000D02*
X32520000Y-75950000D01*
X32520000Y-75950000D02*
X33770000Y-75950000D01*
X2520000Y-11790000D02*
X2520000Y-13040000D01*
X3770000Y-11790000D02*
X2520000Y-11790000D01*
X7880000Y-16200000D02*
X7880000Y-15700000D01*
X7980000Y-15700000D02*
X7980000Y-16200000D01*
X7780000Y-15700000D02*
X7980000Y-15700000D01*
X7780000Y-16200000D02*
X7780000Y-15700000D01*
X5880000Y-16200000D02*
X5880000Y-15700000D01*
X5980000Y-15700000D02*
X5980000Y-16200000D01*
X5780000Y-15700000D02*
X5980000Y-15700000D01*
X5780000Y-16200000D02*
X5780000Y-15700000D01*
X10940000Y-14700000D02*
X10330000Y-14700000D01*
X10940000Y-13400000D02*
X10330000Y-13400000D01*
X2820000Y-14700000D02*
X3430000Y-14700000D01*
X2820000Y-13400000D02*
X3430000Y-13400000D01*
X8380000Y-12700000D02*
X8380000Y-12090000D01*
X10330000Y-12700000D02*
X8380000Y-12700000D01*
X10330000Y-16200000D02*
X10330000Y-12700000D01*
X3430000Y-16200000D02*
X10330000Y-16200000D01*
X3430000Y-12700000D02*
X3430000Y-16200000D01*
X5380000Y-12700000D02*
X3430000Y-12700000D01*
X5380000Y-12090000D02*
X5380000Y-12700000D01*
X4580000Y-11990000D02*
X4280000Y-11990000D01*
X4280000Y-11890000D02*
X4280000Y-12090000D01*
X4580000Y-11890000D02*
X4280000Y-11890000D01*
X4580000Y-12090000D02*
X4580000Y-11890000D01*
X10940000Y-12090000D02*
X2820000Y-12090000D01*
X10940000Y-16810000D02*
X10940000Y-12090000D01*
X2820000Y-16810000D02*
X10940000Y-16810000D01*
X2820000Y-12090000D02*
X2820000Y-16810000D01*
X2290000Y-69250000D02*
X2290000Y-62940000D01*
X2290000Y-62940000D02*
X14010000Y-62940000D01*
X14010000Y-62940000D02*
X14010000Y-64360000D01*
X14010000Y-64360000D02*
X9510000Y-64360000D01*
X2290000Y-69250000D02*
X2290000Y-75560000D01*
X2290000Y-75560000D02*
X14010000Y-75560000D01*
X14010000Y-75560000D02*
X14010000Y-74140000D01*
X14010000Y-74140000D02*
X9510000Y-74140000D01*
X8400000Y-65250000D02*
X2900000Y-65250000D01*
X2900000Y-65250000D02*
X2900000Y-65750000D01*
X2900000Y-65750000D02*
X8400000Y-65750000D01*
X8400000Y-65750000D02*
X8400000Y-65250000D01*
X8400000Y-67750000D02*
X2900000Y-67750000D01*
X2900000Y-67750000D02*
X2900000Y-68250000D01*
X2900000Y-68250000D02*
X8400000Y-68250000D01*
X8400000Y-68250000D02*
X8400000Y-67750000D01*
X8400000Y-70250000D02*
X2900000Y-70250000D01*
X2900000Y-70250000D02*
X2900000Y-70750000D01*
X2900000Y-70750000D02*
X8400000Y-70750000D01*
X8400000Y-70750000D02*
X8400000Y-70250000D01*
X8400000Y-72750000D02*
X2900000Y-72750000D01*
X2900000Y-72750000D02*
X2900000Y-73250000D01*
X2900000Y-73250000D02*
X8400000Y-73250000D01*
X8400000Y-73250000D02*
X8400000Y-72750000D01*
X11500000Y-65500000D02*
X12100000Y-65200000D01*
X12100000Y-65200000D02*
X12100000Y-65800000D01*
X12100000Y-65800000D02*
X11500000Y-65500000D01*
X38870000Y-75950000D02*
X40120000Y-75950000D01*
X38870000Y-74700000D02*
X38870000Y-75950000D01*
X43280000Y-70590000D02*
X42780000Y-70590000D01*
X42780000Y-70490000D02*
X43280000Y-70490000D01*
X42780000Y-70690000D02*
X42780000Y-70490000D01*
X43280000Y-70690000D02*
X42780000Y-70690000D01*
X43280000Y-72590000D02*
X42780000Y-72590000D01*
X42780000Y-72490000D02*
X43280000Y-72490000D01*
X42780000Y-72690000D02*
X42780000Y-72490000D01*
X43280000Y-72690000D02*
X42780000Y-72690000D01*
X41780000Y-67530000D02*
X41780000Y-68140000D01*
X40480000Y-67530000D02*
X40480000Y-68140000D01*
X41780000Y-75650000D02*
X41780000Y-75040000D01*
X40480000Y-75650000D02*
X40480000Y-75040000D01*
X39780000Y-70090000D02*
X39170000Y-70090000D01*
X39780000Y-68140000D02*
X39780000Y-70090000D01*
X43280000Y-68140000D02*
X39780000Y-68140000D01*
X43280000Y-75040000D02*
X43280000Y-68140000D01*
X39780000Y-75040000D02*
X43280000Y-75040000D01*
X39780000Y-73090000D02*
X39780000Y-75040000D01*
X39170000Y-73090000D02*
X39780000Y-73090000D01*
X39070000Y-73890000D02*
X39070000Y-74190000D01*
X38970000Y-74190000D02*
X39170000Y-74190000D01*
X38970000Y-73890000D02*
X38970000Y-74190000D01*
X39170000Y-73890000D02*
X38970000Y-73890000D01*
X39170000Y-67530000D02*
X39170000Y-75650000D01*
X43890000Y-67530000D02*
X39170000Y-67530000D01*
X43890000Y-75650000D02*
X43890000Y-67530000D01*
X39170000Y-75650000D02*
X43890000Y-75650000D01*
X2820000Y-18440000D02*
X2820000Y-23160000D01*
X2820000Y-23160000D02*
X10940000Y-23160000D01*
X10940000Y-23160000D02*
X10940000Y-18440000D01*
X10940000Y-18440000D02*
X2820000Y-18440000D01*
X4580000Y-18440000D02*
X4580000Y-18240000D01*
X4580000Y-18240000D02*
X4280000Y-18240000D01*
X4280000Y-18240000D02*
X4280000Y-18440000D01*
X4580000Y-18340000D02*
X4280000Y-18340000D01*
X5380000Y-18440000D02*
X5380000Y-19050000D01*
X5380000Y-19050000D02*
X3430000Y-19050000D01*
X3430000Y-19050000D02*
X3430000Y-22550000D01*
X3430000Y-22550000D02*
X10330000Y-22550000D01*
X10330000Y-22550000D02*
X10330000Y-19050000D01*
X10330000Y-19050000D02*
X8380000Y-19050000D01*
X8380000Y-19050000D02*
X8380000Y-18440000D01*
X2820000Y-19750000D02*
X3430000Y-19750000D01*
X2820000Y-21050000D02*
X3430000Y-21050000D01*
X10940000Y-19750000D02*
X10330000Y-19750000D01*
X10940000Y-21050000D02*
X10330000Y-21050000D01*
X5780000Y-22550000D02*
X5780000Y-22050000D01*
X5780000Y-22050000D02*
X5980000Y-22050000D01*
X5980000Y-22050000D02*
X5980000Y-22550000D01*
X5880000Y-22550000D02*
X5880000Y-22050000D01*
X7780000Y-22550000D02*
X7780000Y-22050000D01*
X7780000Y-22050000D02*
X7980000Y-22050000D01*
X7980000Y-22050000D02*
X7980000Y-22550000D01*
X7880000Y-22550000D02*
X7880000Y-22050000D01*
X3770000Y-18140000D02*
X2520000Y-18140000D01*
X2520000Y-18140000D02*
X2520000Y-19390000D01*
X2520000Y-24490000D02*
X2520000Y-25740000D01*
X3770000Y-24490000D02*
X2520000Y-24490000D01*
X7880000Y-28900000D02*
X7880000Y-28400000D01*
X7980000Y-28400000D02*
X7980000Y-28900000D01*
X7780000Y-28400000D02*
X7980000Y-28400000D01*
X7780000Y-28900000D02*
X7780000Y-28400000D01*
X5880000Y-28900000D02*
X5880000Y-28400000D01*
X5980000Y-28400000D02*
X5980000Y-28900000D01*
X5780000Y-28400000D02*
X5980000Y-28400000D01*
X5780000Y-28900000D02*
X5780000Y-28400000D01*
X10940000Y-27400000D02*
X10330000Y-27400000D01*
X10940000Y-26100000D02*
X10330000Y-26100000D01*
X2820000Y-27400000D02*
X3430000Y-27400000D01*
X2820000Y-26100000D02*
X3430000Y-26100000D01*
X8380000Y-25400000D02*
X8380000Y-24790000D01*
X10330000Y-25400000D02*
X8380000Y-25400000D01*
X10330000Y-28900000D02*
X10330000Y-25400000D01*
X3430000Y-28900000D02*
X10330000Y-28900000D01*
X3430000Y-25400000D02*
X3430000Y-28900000D01*
X5380000Y-25400000D02*
X3430000Y-25400000D01*
X5380000Y-24790000D02*
X5380000Y-25400000D01*
X4580000Y-24690000D02*
X4280000Y-24690000D01*
X4280000Y-24590000D02*
X4280000Y-24790000D01*
X4580000Y-24590000D02*
X4280000Y-24590000D01*
X4580000Y-24790000D02*
X4580000Y-24590000D01*
X10940000Y-24790000D02*
X2820000Y-24790000D01*
X10940000Y-29510000D02*
X10940000Y-24790000D01*
X2820000Y-29510000D02*
X10940000Y-29510000D01*
X2820000Y-24790000D02*
X2820000Y-29510000D01*
X45520000Y-75650000D02*
X50240000Y-75650000D01*
X50240000Y-75650000D02*
X50240000Y-67530000D01*
X50240000Y-67530000D02*
X45520000Y-67530000D01*
X45520000Y-67530000D02*
X45520000Y-75650000D01*
X45520000Y-73890000D02*
X45320000Y-73890000D01*
X45320000Y-73890000D02*
X45320000Y-74190000D01*
X45320000Y-74190000D02*
X45520000Y-74190000D01*
X45420000Y-73890000D02*
X45420000Y-74190000D01*
X45520000Y-73090000D02*
X46130000Y-73090000D01*
X46130000Y-73090000D02*
X46130000Y-75040000D01*
X46130000Y-75040000D02*
X49630000Y-75040000D01*
X49630000Y-75040000D02*
X49630000Y-68140000D01*
X49630000Y-68140000D02*
X46130000Y-68140000D01*
X46130000Y-68140000D02*
X46130000Y-70090000D01*
X46130000Y-70090000D02*
X45520000Y-70090000D01*
X46830000Y-75650000D02*
X46830000Y-75040000D01*
X48130000Y-75650000D02*
X48130000Y-75040000D01*
X46830000Y-67530000D02*
X46830000Y-68140000D01*
X48130000Y-67530000D02*
X48130000Y-68140000D01*
X49630000Y-72690000D02*
X49130000Y-72690000D01*
X49130000Y-72690000D02*
X49130000Y-72490000D01*
X49130000Y-72490000D02*
X49630000Y-72490000D01*
X49630000Y-72590000D02*
X49130000Y-72590000D01*
X49630000Y-70690000D02*
X49130000Y-70690000D01*
X49130000Y-70690000D02*
X49130000Y-70490000D01*
X49130000Y-70490000D02*
X49630000Y-70490000D01*
X49630000Y-70590000D02*
X49130000Y-70590000D01*
X45220000Y-74700000D02*
X45220000Y-75950000D01*
X45220000Y-75950000D02*
X46470000Y-75950000D01*
X2520000Y-30840000D02*
X2520000Y-32090000D01*
X3770000Y-30840000D02*
X2520000Y-30840000D01*
X7880000Y-35250000D02*
X7880000Y-34750000D01*
X7980000Y-34750000D02*
X7980000Y-35250000D01*
X7780000Y-34750000D02*
X7980000Y-34750000D01*
X7780000Y-35250000D02*
X7780000Y-34750000D01*
X5880000Y-35250000D02*
X5880000Y-34750000D01*
X5980000Y-34750000D02*
X5980000Y-35250000D01*
X5780000Y-34750000D02*
X5980000Y-34750000D01*
X5780000Y-35250000D02*
X5780000Y-34750000D01*
X10940000Y-33750000D02*
X10330000Y-33750000D01*
X10940000Y-32450000D02*
X10330000Y-32450000D01*
X2820000Y-33750000D02*
X3430000Y-33750000D01*
X2820000Y-32450000D02*
X3430000Y-32450000D01*
X8380000Y-31750000D02*
X8380000Y-31140000D01*
X10330000Y-31750000D02*
X8380000Y-31750000D01*
X10330000Y-35250000D02*
X10330000Y-31750000D01*
X3430000Y-35250000D02*
X10330000Y-35250000D01*
X3430000Y-31750000D02*
X3430000Y-35250000D01*
X5380000Y-31750000D02*
X3430000Y-31750000D01*
X5380000Y-31140000D02*
X5380000Y-31750000D01*
X4580000Y-31040000D02*
X4280000Y-31040000D01*
X4280000Y-30940000D02*
X4280000Y-31140000D01*
X4580000Y-30940000D02*
X4280000Y-30940000D01*
X4580000Y-31140000D02*
X4580000Y-30940000D01*
X10940000Y-31140000D02*
X2820000Y-31140000D01*
X10940000Y-35860000D02*
X10940000Y-31140000D01*
X2820000Y-35860000D02*
X10940000Y-35860000D01*
X2820000Y-31140000D02*
X2820000Y-35860000D01*
X51570000Y-75950000D02*
X52820000Y-75950000D01*
X51570000Y-74700000D02*
X51570000Y-75950000D01*
X55980000Y-70590000D02*
X55480000Y-70590000D01*
X55480000Y-70490000D02*
X55980000Y-70490000D01*
X55480000Y-70690000D02*
X55480000Y-70490000D01*
X55980000Y-70690000D02*
X55480000Y-70690000D01*
X55980000Y-72590000D02*
X55480000Y-72590000D01*
X55480000Y-72490000D02*
X55980000Y-72490000D01*
X55480000Y-72690000D02*
X55480000Y-72490000D01*
X55980000Y-72690000D02*
X55480000Y-72690000D01*
X54480000Y-67530000D02*
X54480000Y-68140000D01*
X53180000Y-67530000D02*
X53180000Y-68140000D01*
X54480000Y-75650000D02*
X54480000Y-75040000D01*
X53180000Y-75650000D02*
X53180000Y-75040000D01*
X52480000Y-70090000D02*
X51870000Y-70090000D01*
X52480000Y-68140000D02*
X52480000Y-70090000D01*
X55980000Y-68140000D02*
X52480000Y-68140000D01*
X55980000Y-75040000D02*
X55980000Y-68140000D01*
X52480000Y-75040000D02*
X55980000Y-75040000D01*
X52480000Y-73090000D02*
X52480000Y-75040000D01*
X51870000Y-73090000D02*
X52480000Y-73090000D01*
X51770000Y-73890000D02*
X51770000Y-74190000D01*
X51670000Y-74190000D02*
X51870000Y-74190000D01*
X51670000Y-73890000D02*
X51670000Y-74190000D01*
X51870000Y-73890000D02*
X51670000Y-73890000D01*
X51870000Y-67530000D02*
X51870000Y-75650000D01*
X56590000Y-67530000D02*
X51870000Y-67530000D01*
X56590000Y-75650000D02*
X56590000Y-67530000D01*
X51870000Y-75650000D02*
X56590000Y-75650000D01*
X2520000Y-37190000D02*
X2520000Y-38440000D01*
X3770000Y-37190000D02*
X2520000Y-37190000D01*
X7880000Y-41600000D02*
X7880000Y-41100000D01*
X7980000Y-41100000D02*
X7980000Y-41600000D01*
X7780000Y-41100000D02*
X7980000Y-41100000D01*
X7780000Y-41600000D02*
X7780000Y-41100000D01*
X5880000Y-41600000D02*
X5880000Y-41100000D01*
X5980000Y-41100000D02*
X5980000Y-41600000D01*
X5780000Y-41100000D02*
X5980000Y-41100000D01*
X5780000Y-41600000D02*
X5780000Y-41100000D01*
X10940000Y-40100000D02*
X10330000Y-40100000D01*
X10940000Y-38800000D02*
X10330000Y-38800000D01*
X2820000Y-40100000D02*
X3430000Y-40100000D01*
X2820000Y-38800000D02*
X3430000Y-38800000D01*
X8380000Y-38100000D02*
X8380000Y-37490000D01*
X10330000Y-38100000D02*
X8380000Y-38100000D01*
X10330000Y-41600000D02*
X10330000Y-38100000D01*
X3430000Y-41600000D02*
X10330000Y-41600000D01*
X3430000Y-38100000D02*
X3430000Y-41600000D01*
X5380000Y-38100000D02*
X3430000Y-38100000D01*
X5380000Y-37490000D02*
X5380000Y-38100000D01*
X4580000Y-37390000D02*
X4280000Y-37390000D01*
X4280000Y-37290000D02*
X4280000Y-37490000D01*
X4580000Y-37290000D02*
X4280000Y-37290000D01*
X4580000Y-37490000D02*
X4580000Y-37290000D01*
X10940000Y-37490000D02*
X2820000Y-37490000D01*
X10940000Y-42210000D02*
X10940000Y-37490000D01*
X2820000Y-42210000D02*
X10940000Y-42210000D01*
X2820000Y-37490000D02*
X2820000Y-42210000D01*
X2820000Y-43840000D02*
X2820000Y-48560000D01*
X2820000Y-48560000D02*
X10940000Y-48560000D01*
X10940000Y-48560000D02*
X10940000Y-43840000D01*
X10940000Y-43840000D02*
X2820000Y-43840000D01*
X4580000Y-43840000D02*
X4580000Y-43640000D01*
X4580000Y-43640000D02*
X4280000Y-43640000D01*
X4280000Y-43640000D02*
X4280000Y-43840000D01*
X4580000Y-43740000D02*
X4280000Y-43740000D01*
X5380000Y-43840000D02*
X5380000Y-44450000D01*
X5380000Y-44450000D02*
X3430000Y-44450000D01*
X3430000Y-44450000D02*
X3430000Y-47950000D01*
X3430000Y-47950000D02*
X10330000Y-47950000D01*
X10330000Y-47950000D02*
X10330000Y-44450000D01*
X10330000Y-44450000D02*
X8380000Y-44450000D01*
X8380000Y-44450000D02*
X8380000Y-43840000D01*
X2820000Y-45150000D02*
X3430000Y-45150000D01*
X2820000Y-46450000D02*
X3430000Y-46450000D01*
X10940000Y-45150000D02*
X10330000Y-45150000D01*
X10940000Y-46450000D02*
X10330000Y-46450000D01*
X5780000Y-47950000D02*
X5780000Y-47450000D01*
X5780000Y-47450000D02*
X5980000Y-47450000D01*
X5980000Y-47450000D02*
X5980000Y-47950000D01*
X5880000Y-47950000D02*
X5880000Y-47450000D01*
X7780000Y-47950000D02*
X7780000Y-47450000D01*
X7780000Y-47450000D02*
X7980000Y-47450000D01*
X7980000Y-47450000D02*
X7980000Y-47950000D01*
X7880000Y-47950000D02*
X7880000Y-47450000D01*
X3770000Y-43540000D02*
X2520000Y-43540000D01*
X2520000Y-43540000D02*
X2520000Y-44790000D01*
X2520000Y-49890000D02*
X2520000Y-51140000D01*
X3770000Y-49890000D02*
X2520000Y-49890000D01*
X7880000Y-54300000D02*
X7880000Y-53800000D01*
X7980000Y-53800000D02*
X7980000Y-54300000D01*
X7780000Y-53800000D02*
X7980000Y-53800000D01*
X7780000Y-54300000D02*
X7780000Y-53800000D01*
X5880000Y-54300000D02*
X5880000Y-53800000D01*
X5980000Y-53800000D02*
X5980000Y-54300000D01*
X5780000Y-53800000D02*
X5980000Y-53800000D01*
X5780000Y-54300000D02*
X5780000Y-53800000D01*
X10940000Y-52800000D02*
X10330000Y-52800000D01*
X10940000Y-51500000D02*
X10330000Y-51500000D01*
X2820000Y-52800000D02*
X3430000Y-52800000D01*
X2820000Y-51500000D02*
X3430000Y-51500000D01*
X8380000Y-50800000D02*
X8380000Y-50190000D01*
X10330000Y-50800000D02*
X8380000Y-50800000D01*
X10330000Y-54300000D02*
X10330000Y-50800000D01*
X3430000Y-54300000D02*
X10330000Y-54300000D01*
X3430000Y-50800000D02*
X3430000Y-54300000D01*
X5380000Y-50800000D02*
X3430000Y-50800000D01*
X5380000Y-50190000D02*
X5380000Y-50800000D01*
X4580000Y-50090000D02*
X4280000Y-50090000D01*
X4280000Y-49990000D02*
X4280000Y-50190000D01*
X4580000Y-49990000D02*
X4280000Y-49990000D01*
X4580000Y-50190000D02*
X4580000Y-49990000D01*
X10940000Y-50190000D02*
X2820000Y-50190000D01*
X10940000Y-54910000D02*
X10940000Y-50190000D01*
X2820000Y-54910000D02*
X10940000Y-54910000D01*
X2820000Y-50190000D02*
X2820000Y-54910000D01*
X2820000Y-56540000D02*
X2820000Y-61260000D01*
X2820000Y-61260000D02*
X10940000Y-61260000D01*
X10940000Y-61260000D02*
X10940000Y-56540000D01*
X10940000Y-56540000D02*
X2820000Y-56540000D01*
X4580000Y-56540000D02*
X4580000Y-56340000D01*
X4580000Y-56340000D02*
X4280000Y-56340000D01*
X4280000Y-56340000D02*
X4280000Y-56540000D01*
X4580000Y-56440000D02*
X4280000Y-56440000D01*
X5380000Y-56540000D02*
X5380000Y-57150000D01*
X5380000Y-57150000D02*
X3430000Y-57150000D01*
X3430000Y-57150000D02*
X3430000Y-60650000D01*
X3430000Y-60650000D02*
X10330000Y-60650000D01*
X10330000Y-60650000D02*
X10330000Y-57150000D01*
X10330000Y-57150000D02*
X8380000Y-57150000D01*
X8380000Y-57150000D02*
X8380000Y-56540000D01*
X2820000Y-57850000D02*
X3430000Y-57850000D01*
X2820000Y-59150000D02*
X3430000Y-59150000D01*
X10940000Y-57850000D02*
X10330000Y-57850000D01*
X10940000Y-59150000D02*
X10330000Y-59150000D01*
X5780000Y-60650000D02*
X5780000Y-60150000D01*
X5780000Y-60150000D02*
X5980000Y-60150000D01*
X5980000Y-60150000D02*
X5980000Y-60650000D01*
X5880000Y-60650000D02*
X5880000Y-60150000D01*
X7780000Y-60650000D02*
X7780000Y-60150000D01*
X7780000Y-60150000D02*
X7980000Y-60150000D01*
X7980000Y-60150000D02*
X7980000Y-60650000D01*
X7880000Y-60650000D02*
X7880000Y-60150000D01*
X3770000Y-56240000D02*
X2520000Y-56240000D01*
X2520000Y-56240000D02*
X2520000Y-57490000D01*
D14*
X105000000Y-17250000D02*
X105000000Y-32750000D01*
X82300000Y-32750000D02*
X82300000Y-17250000D01*
X82300000Y-17250000D02*
X105000000Y-17250000D01*
X82300000Y-32750000D02*
X105000000Y-32750000D01*
X99000000Y-20000000D02*
X101000000Y-20000000D01*
X100000000Y-29000000D02*
X100000000Y-31000000D01*
X99000000Y-30000000D02*
X101000000Y-30000000D01*
X105000000Y-30000000D02*
X102250000Y-32750000D01*
D13*
X76110000Y-11540000D02*
X74860000Y-11540000D01*
X76110000Y-12790000D02*
X76110000Y-11540000D01*
X71700000Y-14900000D02*
X72200000Y-14900000D01*
X72200000Y-15000000D02*
X71700000Y-15000000D01*
X72200000Y-14800000D02*
X72200000Y-15000000D01*
X71700000Y-14800000D02*
X72200000Y-14800000D01*
X73200000Y-17960000D02*
X73200000Y-17350000D01*
X74500000Y-17960000D02*
X74500000Y-17350000D01*
X73200000Y-11840000D02*
X73200000Y-12450000D01*
X74500000Y-11840000D02*
X74500000Y-12450000D01*
X75200000Y-15400000D02*
X75810000Y-15400000D01*
X75200000Y-17350000D02*
X75200000Y-15400000D01*
X71700000Y-17350000D02*
X75200000Y-17350000D01*
X71700000Y-12450000D02*
X71700000Y-17350000D01*
X75200000Y-12450000D02*
X71700000Y-12450000D01*
X75200000Y-14400000D02*
X75200000Y-12450000D01*
X75810000Y-14400000D02*
X75200000Y-14400000D01*
X75910000Y-13600000D02*
X75910000Y-13300000D01*
X76010000Y-13300000D02*
X75810000Y-13300000D01*
X76010000Y-13600000D02*
X76010000Y-13300000D01*
X75810000Y-13600000D02*
X76010000Y-13600000D01*
X75810000Y-17960000D02*
X75810000Y-11840000D01*
X71090000Y-17960000D02*
X75810000Y-17960000D01*
X71090000Y-11840000D02*
X71090000Y-17960000D01*
X75810000Y-11840000D02*
X71090000Y-11840000D01*
X69460000Y-11840000D02*
X64740000Y-11840000D01*
X64740000Y-11840000D02*
X64740000Y-17960000D01*
X64740000Y-17960000D02*
X69460000Y-17960000D01*
X69460000Y-17960000D02*
X69460000Y-11840000D01*
X69460000Y-13600000D02*
X69660000Y-13600000D01*
X69660000Y-13600000D02*
X69660000Y-13300000D01*
X69660000Y-13300000D02*
X69460000Y-13300000D01*
X69560000Y-13600000D02*
X69560000Y-13300000D01*
X69460000Y-14400000D02*
X68850000Y-14400000D01*
X68850000Y-14400000D02*
X68850000Y-12450000D01*
X68850000Y-12450000D02*
X65350000Y-12450000D01*
X65350000Y-12450000D02*
X65350000Y-17350000D01*
X65350000Y-17350000D02*
X68850000Y-17350000D01*
X68850000Y-17350000D02*
X68850000Y-15400000D01*
X68850000Y-15400000D02*
X69460000Y-15400000D01*
X68150000Y-11840000D02*
X68150000Y-12450000D01*
X66850000Y-11840000D02*
X66850000Y-12450000D01*
X68150000Y-17960000D02*
X68150000Y-17350000D01*
X66850000Y-17960000D02*
X66850000Y-17350000D01*
X65350000Y-14800000D02*
X65850000Y-14800000D01*
X65850000Y-14800000D02*
X65850000Y-15000000D01*
X65850000Y-15000000D02*
X65350000Y-15000000D01*
X65350000Y-14900000D02*
X65850000Y-14900000D01*
X69760000Y-12790000D02*
X69760000Y-11540000D01*
X69760000Y-11540000D02*
X68510000Y-11540000D01*
X63110000Y-11840000D02*
X58390000Y-11840000D01*
X58390000Y-11840000D02*
X58390000Y-17960000D01*
X58390000Y-17960000D02*
X63110000Y-17960000D01*
X63110000Y-17960000D02*
X63110000Y-11840000D01*
X63110000Y-13600000D02*
X63310000Y-13600000D01*
X63310000Y-13600000D02*
X63310000Y-13300000D01*
X63310000Y-13300000D02*
X63110000Y-13300000D01*
X63210000Y-13600000D02*
X63210000Y-13300000D01*
X63110000Y-14400000D02*
X62500000Y-14400000D01*
X62500000Y-14400000D02*
X62500000Y-12450000D01*
X62500000Y-12450000D02*
X59000000Y-12450000D01*
X59000000Y-12450000D02*
X59000000Y-17350000D01*
X59000000Y-17350000D02*
X62500000Y-17350000D01*
X62500000Y-17350000D02*
X62500000Y-15400000D01*
X62500000Y-15400000D02*
X63110000Y-15400000D01*
X61800000Y-11840000D02*
X61800000Y-12450000D01*
X60500000Y-11840000D02*
X60500000Y-12450000D01*
X61800000Y-17960000D02*
X61800000Y-17350000D01*
X60500000Y-17960000D02*
X60500000Y-17350000D01*
X59000000Y-14800000D02*
X59500000Y-14800000D01*
X59500000Y-14800000D02*
X59500000Y-15000000D01*
X59500000Y-15000000D02*
X59000000Y-15000000D01*
X59000000Y-14900000D02*
X59500000Y-14900000D01*
X63410000Y-12790000D02*
X63410000Y-11540000D01*
X63410000Y-11540000D02*
X62160000Y-11540000D01*
X57060000Y-11540000D02*
X55810000Y-11540000D01*
X57060000Y-12790000D02*
X57060000Y-11540000D01*
X52650000Y-14900000D02*
X53150000Y-14900000D01*
X53150000Y-15000000D02*
X52650000Y-15000000D01*
X53150000Y-14800000D02*
X53150000Y-15000000D01*
X52650000Y-14800000D02*
X53150000Y-14800000D01*
X54150000Y-17960000D02*
X54150000Y-17350000D01*
X55450000Y-17960000D02*
X55450000Y-17350000D01*
X54150000Y-11840000D02*
X54150000Y-12450000D01*
X55450000Y-11840000D02*
X55450000Y-12450000D01*
X56150000Y-15400000D02*
X56760000Y-15400000D01*
X56150000Y-17350000D02*
X56150000Y-15400000D01*
X52650000Y-17350000D02*
X56150000Y-17350000D01*
X52650000Y-12450000D02*
X52650000Y-17350000D01*
X56150000Y-12450000D02*
X52650000Y-12450000D01*
X56150000Y-14400000D02*
X56150000Y-12450000D01*
X56760000Y-14400000D02*
X56150000Y-14400000D01*
X56860000Y-13600000D02*
X56860000Y-13300000D01*
X56960000Y-13300000D02*
X56760000Y-13300000D01*
X56960000Y-13600000D02*
X56960000Y-13300000D01*
X56760000Y-13600000D02*
X56960000Y-13600000D01*
X56760000Y-17960000D02*
X56760000Y-11840000D01*
X52040000Y-17960000D02*
X56760000Y-17960000D01*
X52040000Y-11840000D02*
X52040000Y-17960000D01*
X56760000Y-11840000D02*
X52040000Y-11840000D01*
X50410000Y-11840000D02*
X45690000Y-11840000D01*
X45690000Y-11840000D02*
X45690000Y-17960000D01*
X45690000Y-17960000D02*
X50410000Y-17960000D01*
X50410000Y-17960000D02*
X50410000Y-11840000D01*
X50410000Y-13600000D02*
X50610000Y-13600000D01*
X50610000Y-13600000D02*
X50610000Y-13300000D01*
X50610000Y-13300000D02*
X50410000Y-13300000D01*
X50510000Y-13600000D02*
X50510000Y-13300000D01*
X50410000Y-14400000D02*
X49800000Y-14400000D01*
X49800000Y-14400000D02*
X49800000Y-12450000D01*
X49800000Y-12450000D02*
X46300000Y-12450000D01*
X46300000Y-12450000D02*
X46300000Y-17350000D01*
X46300000Y-17350000D02*
X49800000Y-17350000D01*
X49800000Y-17350000D02*
X49800000Y-15400000D01*
X49800000Y-15400000D02*
X50410000Y-15400000D01*
X49100000Y-11840000D02*
X49100000Y-12450000D01*
X47800000Y-11840000D02*
X47800000Y-12450000D01*
X49100000Y-17960000D02*
X49100000Y-17350000D01*
X47800000Y-17960000D02*
X47800000Y-17350000D01*
X46300000Y-14800000D02*
X46800000Y-14800000D01*
X46800000Y-14800000D02*
X46800000Y-15000000D01*
X46800000Y-15000000D02*
X46300000Y-15000000D01*
X46300000Y-14900000D02*
X46800000Y-14900000D01*
X50710000Y-12790000D02*
X50710000Y-11540000D01*
X50710000Y-11540000D02*
X49460000Y-11540000D01*
X44360000Y-11540000D02*
X43110000Y-11540000D01*
X44360000Y-12790000D02*
X44360000Y-11540000D01*
X39950000Y-14900000D02*
X40450000Y-14900000D01*
X40450000Y-15000000D02*
X39950000Y-15000000D01*
X40450000Y-14800000D02*
X40450000Y-15000000D01*
X39950000Y-14800000D02*
X40450000Y-14800000D01*
X41450000Y-17960000D02*
X41450000Y-17350000D01*
X42750000Y-17960000D02*
X42750000Y-17350000D01*
X41450000Y-11840000D02*
X41450000Y-12450000D01*
X42750000Y-11840000D02*
X42750000Y-12450000D01*
X43450000Y-15400000D02*
X44060000Y-15400000D01*
X43450000Y-17350000D02*
X43450000Y-15400000D01*
X39950000Y-17350000D02*
X43450000Y-17350000D01*
X39950000Y-12450000D02*
X39950000Y-17350000D01*
X43450000Y-12450000D02*
X39950000Y-12450000D01*
X43450000Y-14400000D02*
X43450000Y-12450000D01*
X44060000Y-14400000D02*
X43450000Y-14400000D01*
X44160000Y-13600000D02*
X44160000Y-13300000D01*
X44260000Y-13300000D02*
X44060000Y-13300000D01*
X44260000Y-13600000D02*
X44260000Y-13300000D01*
X44060000Y-13600000D02*
X44260000Y-13600000D01*
X44060000Y-17960000D02*
X44060000Y-11840000D01*
X39340000Y-17960000D02*
X44060000Y-17960000D01*
X39340000Y-11840000D02*
X39340000Y-17960000D01*
X44060000Y-11840000D02*
X39340000Y-11840000D01*
X40982885Y-36327219D02*
X41303497Y-36383751D01*
X40805763Y-37331723D02*
X41126375Y-37388255D01*
X41246827Y-34830309D02*
X41567439Y-34886841D01*
X41423949Y-33825805D02*
X41744561Y-33882337D01*
X41865015Y-31324397D02*
X42185627Y-31380929D01*
X41687893Y-32328901D02*
X42008505Y-32385433D01*
X42128959Y-29827483D02*
X42449571Y-29884015D01*
X42306081Y-28822979D02*
X42626693Y-28879511D01*
X42747149Y-26321571D02*
X43067761Y-26378103D01*
X42570027Y-27326075D02*
X42890639Y-27382607D01*
X43011093Y-24824663D02*
X43331705Y-24881195D01*
X43188215Y-23820159D02*
X43508827Y-23876691D01*
X72532266Y-27755662D02*
G75*
G02X72184970Y-29725278I-173648J-984808D01*
G01*
X72184970Y-29725278D02*
X71898451Y-31350211D01*
X71898451Y-31350211D02*
X77019451Y-32253181D01*
X77019451Y-32253181D02*
X77939786Y-27033700D01*
X77939786Y-27033700D02*
X72818786Y-26130730D01*
X72818786Y-26130730D02*
X72532266Y-27755663D01*
X59580000Y-48310000D02*
X65080000Y-48310000D01*
X59580000Y-75810000D02*
X59580000Y-48310000D01*
X65080000Y-75810000D02*
X59580000Y-75810000D01*
X98580000Y-48310000D02*
X93080000Y-48310000D01*
X98580000Y-75810000D02*
X98580000Y-48310000D01*
X93080000Y-75810000D02*
X98580000Y-75810000D01*
X89080000Y-61810000D02*
X89080000Y-75810000D01*
X69080000Y-61810000D02*
X89080000Y-61810000D01*
X69080000Y-75810000D02*
X69080000Y-61810000D01*
X93080000Y-75810000D02*
X65080000Y-75810000D01*
X65080000Y-48310000D02*
X65080000Y-75810000D01*
X93080000Y-48310000D02*
X93080000Y-75810000D01*
X65080000Y-48310000D02*
X93080000Y-48310000D01*
X67815964Y-25248599D02*
X67529444Y-26873532D01*
X72936964Y-26151569D02*
X67815964Y-25248599D01*
X72016629Y-31371050D02*
X72936964Y-26151569D01*
X66895629Y-30468080D02*
X72016629Y-31371050D01*
X67182148Y-28843147D02*
X66895629Y-30468080D01*
X67529444Y-26873531D02*
G75*
G02X67182148Y-28843147I-173648J-984808D01*
G01*
X62526619Y-25991399D02*
G75*
G02X62179323Y-27961015I-173648J-984808D01*
G01*
X62179323Y-27961015D02*
X61892804Y-29585948D01*
X61892804Y-29585948D02*
X67013804Y-30488918D01*
X67013804Y-30488918D02*
X67934139Y-25269437D01*
X67934139Y-25269437D02*
X62813139Y-24366467D01*
X62813139Y-24366467D02*
X62526619Y-25991400D01*
X57810318Y-23484334D02*
X57523798Y-25109267D01*
X62931318Y-24387304D02*
X57810318Y-23484334D01*
X62010983Y-29606785D02*
X62931318Y-24387304D01*
X56889983Y-28703815D02*
X62010983Y-29606785D01*
X57176502Y-27078882D02*
X56889983Y-28703815D01*
X57523798Y-25109266D02*
G75*
G02X57176502Y-27078882I-173648J-984808D01*
G01*
X52520975Y-24227134D02*
G75*
G02X52173679Y-26196750I-173648J-984808D01*
G01*
X52173679Y-26196750D02*
X51887160Y-27821683D01*
X51887160Y-27821683D02*
X57008160Y-28724653D01*
X57008160Y-28724653D02*
X57928495Y-23505172D01*
X57928495Y-23505172D02*
X52807495Y-22602202D01*
X52807495Y-22602202D02*
X52520975Y-24227135D01*
X47804673Y-21720067D02*
X47518153Y-23345000D01*
X52925673Y-22623037D02*
X47804673Y-21720067D01*
X52005338Y-27842518D02*
X52925673Y-22623037D01*
X46884338Y-26939548D02*
X52005338Y-27842518D01*
X47170857Y-25314615D02*
X46884338Y-26939548D01*
X47518153Y-23344999D02*
G75*
G02X47170857Y-25314615I-173648J-984808D01*
G01*
D14*
X22485714Y-58516666D02*
X22961904Y-58516666D01*
X22390476Y-58802380D02*
X22723809Y-57802380D01*
X23057142Y-58802380D01*
X23914285Y-58802380D02*
X23342857Y-58802380D01*
X23628571Y-58802380D02*
X23628571Y-57802380D01*
X23533333Y-57945238D01*
X23438095Y-58040476D01*
X23342857Y-58088095D01*
X46680833Y-59817142D02*
X46633214Y-59864761D01*
X46490357Y-59912380D01*
X46395119Y-59912380D01*
X46252261Y-59864761D01*
X46157023Y-59769523D01*
X46109404Y-59674285D01*
X46061785Y-59483809D01*
X46061785Y-59340952D01*
X46109404Y-59150476D01*
X46157023Y-59055238D01*
X46252261Y-58960000D01*
X46395119Y-58912380D01*
X46490357Y-58912380D01*
X46633214Y-58960000D01*
X46680833Y-59007619D01*
X47633214Y-59912380D02*
X47061785Y-59912380D01*
X47347500Y-59912380D02*
X47347500Y-58912380D01*
X47252261Y-59055238D01*
X47157023Y-59150476D01*
X47061785Y-59198095D01*
X46680833Y-54737142D02*
X46633214Y-54784761D01*
X46490357Y-54832380D01*
X46395119Y-54832380D01*
X46252261Y-54784761D01*
X46157023Y-54689523D01*
X46109404Y-54594285D01*
X46061785Y-54403809D01*
X46061785Y-54260952D01*
X46109404Y-54070476D01*
X46157023Y-53975238D01*
X46252261Y-53880000D01*
X46395119Y-53832380D01*
X46490357Y-53832380D01*
X46633214Y-53880000D01*
X46680833Y-53927619D01*
X47061785Y-53927619D02*
X47109404Y-53880000D01*
X47204642Y-53832380D01*
X47442738Y-53832380D01*
X47537976Y-53880000D01*
X47585595Y-53927619D01*
X47633214Y-54022857D01*
X47633214Y-54118095D01*
X47585595Y-54260952D01*
X47014166Y-54832380D01*
X47633214Y-54832380D01*
X82333333Y-47357142D02*
X82285714Y-47404761D01*
X82142857Y-47452380D01*
X82047619Y-47452380D01*
X81904761Y-47404761D01*
X81809523Y-47309523D01*
X81761904Y-47214285D01*
X81714285Y-47023809D01*
X81714285Y-46880952D01*
X81761904Y-46690476D01*
X81809523Y-46595238D01*
X81904761Y-46500000D01*
X82047619Y-46452380D01*
X82142857Y-46452380D01*
X82285714Y-46500000D01*
X82333333Y-46547619D01*
X82666666Y-46452380D02*
X83285714Y-46452380D01*
X82952380Y-46833333D01*
X83095238Y-46833333D01*
X83190476Y-46880952D01*
X83238095Y-46928571D01*
X83285714Y-47023809D01*
X83285714Y-47261904D01*
X83238095Y-47357142D01*
X83190476Y-47404761D01*
X83095238Y-47452380D01*
X82809523Y-47452380D01*
X82714285Y-47404761D01*
X82666666Y-47357142D01*
X78333333Y-47357142D02*
X78285714Y-47404761D01*
X78142857Y-47452380D01*
X78047619Y-47452380D01*
X77904761Y-47404761D01*
X77809523Y-47309523D01*
X77761904Y-47214285D01*
X77714285Y-47023809D01*
X77714285Y-46880952D01*
X77761904Y-46690476D01*
X77809523Y-46595238D01*
X77904761Y-46500000D01*
X78047619Y-46452380D01*
X78142857Y-46452380D01*
X78285714Y-46500000D01*
X78333333Y-46547619D01*
X79190476Y-46785714D02*
X79190476Y-47452380D01*
X78952380Y-46404761D02*
X78714285Y-47119047D01*
X79333333Y-47119047D01*
X40162380Y-59326190D02*
X39162380Y-59326190D01*
X40067142Y-58278571D02*
X40114761Y-58326190D01*
X40162380Y-58469047D01*
X40162380Y-58564285D01*
X40114761Y-58707142D01*
X40019523Y-58802380D01*
X39924285Y-58850000D01*
X39733809Y-58897619D01*
X39590952Y-58897619D01*
X39400476Y-58850000D01*
X39305238Y-58802380D01*
X39210000Y-58707142D01*
X39162380Y-58564285D01*
X39162380Y-58469047D01*
X39210000Y-58326190D01*
X39257619Y-58278571D01*
X40162380Y-57326190D02*
X40162380Y-57897619D01*
X40162380Y-57611904D02*
X39162380Y-57611904D01*
X39305238Y-57707142D01*
X39400476Y-57802380D01*
X39448095Y-57897619D01*
X18482380Y-71923333D02*
X19196666Y-71923333D01*
X19339523Y-71970952D01*
X19434761Y-72066190D01*
X19482380Y-72209047D01*
X19482380Y-72304285D01*
X19482380Y-70923333D02*
X19482380Y-71494761D01*
X19482380Y-71209047D02*
X18482380Y-71209047D01*
X18625238Y-71304285D01*
X18720476Y-71399523D01*
X18768095Y-71494761D01*
X24832380Y-71923333D02*
X25546666Y-71923333D01*
X25689523Y-71970952D01*
X25784761Y-72066190D01*
X25832380Y-72209047D01*
X25832380Y-72304285D01*
X24927619Y-71494761D02*
X24880000Y-71447142D01*
X24832380Y-71351904D01*
X24832380Y-71113809D01*
X24880000Y-71018571D01*
X24927619Y-70970952D01*
X25022857Y-70923333D01*
X25118095Y-70923333D01*
X25260952Y-70970952D01*
X25832380Y-71542380D01*
X25832380Y-70923333D01*
X31182380Y-71923333D02*
X31896666Y-71923333D01*
X32039523Y-71970952D01*
X32134761Y-72066190D01*
X32182380Y-72209047D01*
X32182380Y-72304285D01*
X31182380Y-71542380D02*
X31182380Y-70923333D01*
X31563333Y-71256666D01*
X31563333Y-71113809D01*
X31610952Y-71018571D01*
X31658571Y-70970952D01*
X31753809Y-70923333D01*
X31991904Y-70923333D01*
X32087142Y-70970952D01*
X32134761Y-71018571D01*
X32182380Y-71113809D01*
X32182380Y-71399523D01*
X32134761Y-71494761D01*
X32087142Y-71542380D01*
X6546666Y-10452380D02*
X6546666Y-11166666D01*
X6499047Y-11309523D01*
X6403809Y-11404761D01*
X6260952Y-11452380D01*
X6165714Y-11452380D01*
X7451428Y-10785714D02*
X7451428Y-11452380D01*
X7213333Y-10404761D02*
X6975238Y-11119047D01*
X7594285Y-11119047D01*
X14552380Y-69583333D02*
X15266666Y-69583333D01*
X15409523Y-69630952D01*
X15504761Y-69726190D01*
X15552380Y-69869047D01*
X15552380Y-69964285D01*
X14552380Y-68630952D02*
X14552380Y-69107142D01*
X15028571Y-69154761D01*
X14980952Y-69107142D01*
X14933333Y-69011904D01*
X14933333Y-68773809D01*
X14980952Y-68678571D01*
X15028571Y-68630952D01*
X15123809Y-68583333D01*
X15361904Y-68583333D01*
X15457142Y-68630952D01*
X15504761Y-68678571D01*
X15552380Y-68773809D01*
X15552380Y-69011904D01*
X15504761Y-69107142D01*
X15457142Y-69154761D01*
X37532380Y-71923333D02*
X38246666Y-71923333D01*
X38389523Y-71970952D01*
X38484761Y-72066190D01*
X38532380Y-72209047D01*
X38532380Y-72304285D01*
X37532380Y-71018571D02*
X37532380Y-71209047D01*
X37580000Y-71304285D01*
X37627619Y-71351904D01*
X37770476Y-71447142D01*
X37960952Y-71494761D01*
X38341904Y-71494761D01*
X38437142Y-71447142D01*
X38484761Y-71399523D01*
X38532380Y-71304285D01*
X38532380Y-71113809D01*
X38484761Y-71018571D01*
X38437142Y-70970952D01*
X38341904Y-70923333D01*
X38103809Y-70923333D01*
X38008571Y-70970952D01*
X37960952Y-71018571D01*
X37913333Y-71113809D01*
X37913333Y-71304285D01*
X37960952Y-71399523D01*
X38008571Y-71447142D01*
X38103809Y-71494761D01*
X6546666Y-16802380D02*
X6546666Y-17516666D01*
X6499047Y-17659523D01*
X6403809Y-17754761D01*
X6260952Y-17802380D01*
X6165714Y-17802380D01*
X6927619Y-16802380D02*
X7594285Y-16802380D01*
X7165714Y-17802380D01*
X6546666Y-23152380D02*
X6546666Y-23866666D01*
X6499047Y-24009523D01*
X6403809Y-24104761D01*
X6260952Y-24152380D01*
X6165714Y-24152380D01*
X7165714Y-23580952D02*
X7070476Y-23533333D01*
X7022857Y-23485714D01*
X6975238Y-23390476D01*
X6975238Y-23342857D01*
X7022857Y-23247619D01*
X7070476Y-23200000D01*
X7165714Y-23152380D01*
X7356190Y-23152380D01*
X7451428Y-23200000D01*
X7499047Y-23247619D01*
X7546666Y-23342857D01*
X7546666Y-23390476D01*
X7499047Y-23485714D01*
X7451428Y-23533333D01*
X7356190Y-23580952D01*
X7165714Y-23580952D01*
X7070476Y-23628571D01*
X7022857Y-23676190D01*
X6975238Y-23771428D01*
X6975238Y-23961904D01*
X7022857Y-24057142D01*
X7070476Y-24104761D01*
X7165714Y-24152380D01*
X7356190Y-24152380D01*
X7451428Y-24104761D01*
X7499047Y-24057142D01*
X7546666Y-23961904D01*
X7546666Y-23771428D01*
X7499047Y-23676190D01*
X7451428Y-23628571D01*
X7356190Y-23580952D01*
X43882380Y-71923333D02*
X44596666Y-71923333D01*
X44739523Y-71970952D01*
X44834761Y-72066190D01*
X44882380Y-72209047D01*
X44882380Y-72304285D01*
X44882380Y-71399523D02*
X44882380Y-71209047D01*
X44834761Y-71113809D01*
X44787142Y-71066190D01*
X44644285Y-70970952D01*
X44453809Y-70923333D01*
X44072857Y-70923333D01*
X43977619Y-70970952D01*
X43930000Y-71018571D01*
X43882380Y-71113809D01*
X43882380Y-71304285D01*
X43930000Y-71399523D01*
X43977619Y-71447142D01*
X44072857Y-71494761D01*
X44310952Y-71494761D01*
X44406190Y-71447142D01*
X44453809Y-71399523D01*
X44501428Y-71304285D01*
X44501428Y-71113809D01*
X44453809Y-71018571D01*
X44406190Y-70970952D01*
X44310952Y-70923333D01*
X6070476Y-29502380D02*
X6070476Y-30216666D01*
X6022857Y-30359523D01*
X5927619Y-30454761D01*
X5784761Y-30502380D01*
X5689523Y-30502380D01*
X7070476Y-30502380D02*
X6499047Y-30502380D01*
X6784761Y-30502380D02*
X6784761Y-29502380D01*
X6689523Y-29645238D01*
X6594285Y-29740476D01*
X6499047Y-29788095D01*
X7689523Y-29502380D02*
X7784761Y-29502380D01*
X7880000Y-29550000D01*
X7927619Y-29597619D01*
X7975238Y-29692857D01*
X8022857Y-29883333D01*
X8022857Y-30121428D01*
X7975238Y-30311904D01*
X7927619Y-30407142D01*
X7880000Y-30454761D01*
X7784761Y-30502380D01*
X7689523Y-30502380D01*
X7594285Y-30454761D01*
X7546666Y-30407142D01*
X7499047Y-30311904D01*
X7451428Y-30121428D01*
X7451428Y-29883333D01*
X7499047Y-29692857D01*
X7546666Y-29597619D01*
X7594285Y-29550000D01*
X7689523Y-29502380D01*
X50232380Y-72399523D02*
X50946666Y-72399523D01*
X51089523Y-72447142D01*
X51184761Y-72542380D01*
X51232380Y-72685238D01*
X51232380Y-72780476D01*
X51232380Y-71399523D02*
X51232380Y-71970952D01*
X51232380Y-71685238D02*
X50232380Y-71685238D01*
X50375238Y-71780476D01*
X50470476Y-71875714D01*
X50518095Y-71970952D01*
X51232380Y-70447142D02*
X51232380Y-71018571D01*
X51232380Y-70732857D02*
X50232380Y-70732857D01*
X50375238Y-70828095D01*
X50470476Y-70923333D01*
X50518095Y-71018571D01*
X6070476Y-35852380D02*
X6070476Y-36566666D01*
X6022857Y-36709523D01*
X5927619Y-36804761D01*
X5784761Y-36852380D01*
X5689523Y-36852380D01*
X7070476Y-36852380D02*
X6499047Y-36852380D01*
X6784761Y-36852380D02*
X6784761Y-35852380D01*
X6689523Y-35995238D01*
X6594285Y-36090476D01*
X6499047Y-36138095D01*
X7451428Y-35947619D02*
X7499047Y-35900000D01*
X7594285Y-35852380D01*
X7832380Y-35852380D01*
X7927619Y-35900000D01*
X7975238Y-35947619D01*
X8022857Y-36042857D01*
X8022857Y-36138095D01*
X7975238Y-36280952D01*
X7403809Y-36852380D01*
X8022857Y-36852380D01*
X6070476Y-42202380D02*
X6070476Y-42916666D01*
X6022857Y-43059523D01*
X5927619Y-43154761D01*
X5784761Y-43202380D01*
X5689523Y-43202380D01*
X7070476Y-43202380D02*
X6499047Y-43202380D01*
X6784761Y-43202380D02*
X6784761Y-42202380D01*
X6689523Y-42345238D01*
X6594285Y-42440476D01*
X6499047Y-42488095D01*
X7403809Y-42202380D02*
X8022857Y-42202380D01*
X7689523Y-42583333D01*
X7832380Y-42583333D01*
X7927619Y-42630952D01*
X7975238Y-42678571D01*
X8022857Y-42773809D01*
X8022857Y-43011904D01*
X7975238Y-43107142D01*
X7927619Y-43154761D01*
X7832380Y-43202380D01*
X7546666Y-43202380D01*
X7451428Y-43154761D01*
X7403809Y-43107142D01*
X6070476Y-48552380D02*
X6070476Y-49266666D01*
X6022857Y-49409523D01*
X5927619Y-49504761D01*
X5784761Y-49552380D01*
X5689523Y-49552380D01*
X7070476Y-49552380D02*
X6499047Y-49552380D01*
X6784761Y-49552380D02*
X6784761Y-48552380D01*
X6689523Y-48695238D01*
X6594285Y-48790476D01*
X6499047Y-48838095D01*
X7927619Y-48885714D02*
X7927619Y-49552380D01*
X7689523Y-48504761D02*
X7451428Y-49219047D01*
X8070476Y-49219047D01*
X6070476Y-54902380D02*
X6070476Y-55616666D01*
X6022857Y-55759523D01*
X5927619Y-55854761D01*
X5784761Y-55902380D01*
X5689523Y-55902380D01*
X7070476Y-55902380D02*
X6499047Y-55902380D01*
X6784761Y-55902380D02*
X6784761Y-54902380D01*
X6689523Y-55045238D01*
X6594285Y-55140476D01*
X6499047Y-55188095D01*
X7975238Y-54902380D02*
X7499047Y-54902380D01*
X7451428Y-55378571D01*
X7499047Y-55330952D01*
X7594285Y-55283333D01*
X7832380Y-55283333D01*
X7927619Y-55330952D01*
X7975238Y-55378571D01*
X8022857Y-55473809D01*
X8022857Y-55711904D01*
X7975238Y-55807142D01*
X7927619Y-55854761D01*
X7832380Y-55902380D01*
X7594285Y-55902380D01*
X7499047Y-55854761D01*
X7451428Y-55807142D01*
X95452380Y-25809523D02*
X96166666Y-25809523D01*
X96309523Y-25857142D01*
X96404761Y-25952380D01*
X96452380Y-26095238D01*
X96452380Y-26190476D01*
X96452380Y-24809523D02*
X96452380Y-25380952D01*
X96452380Y-25095238D02*
X95452380Y-25095238D01*
X95595238Y-25190476D01*
X95690476Y-25285714D01*
X95738095Y-25380952D01*
X95452380Y-23952380D02*
X95452380Y-24142857D01*
X95500000Y-24238095D01*
X95547619Y-24285714D01*
X95690476Y-24380952D01*
X95880952Y-24428571D01*
X96261904Y-24428571D01*
X96357142Y-24380952D01*
X96404761Y-24333333D01*
X96452380Y-24238095D01*
X96452380Y-24047619D01*
X96404761Y-23952380D01*
X96357142Y-23904761D01*
X96261904Y-23857142D01*
X96023809Y-23857142D01*
X95928571Y-23904761D01*
X95880952Y-23952380D01*
X95833333Y-24047619D01*
X95833333Y-24238095D01*
X95880952Y-24333333D01*
X95928571Y-24380952D01*
X96023809Y-24428571D01*
X77352380Y-15066666D02*
X77352380Y-15542857D01*
X76352380Y-15542857D01*
X77352380Y-14209523D02*
X77352380Y-14780952D01*
X77352380Y-14495238D02*
X76352380Y-14495238D01*
X76495238Y-14590476D01*
X76590476Y-14685714D01*
X76638095Y-14780952D01*
X71002380Y-15066666D02*
X71002380Y-15542857D01*
X70002380Y-15542857D01*
X70097619Y-14780952D02*
X70050000Y-14733333D01*
X70002380Y-14638095D01*
X70002380Y-14400000D01*
X70050000Y-14304761D01*
X70097619Y-14257142D01*
X70192857Y-14209523D01*
X70288095Y-14209523D01*
X70430952Y-14257142D01*
X71002380Y-14828571D01*
X71002380Y-14209523D01*
X64652380Y-15066666D02*
X64652380Y-15542857D01*
X63652380Y-15542857D01*
X63652380Y-14828571D02*
X63652380Y-14209523D01*
X64033333Y-14542857D01*
X64033333Y-14400000D01*
X64080952Y-14304761D01*
X64128571Y-14257142D01*
X64223809Y-14209523D01*
X64461904Y-14209523D01*
X64557142Y-14257142D01*
X64604761Y-14304761D01*
X64652380Y-14400000D01*
X64652380Y-14685714D01*
X64604761Y-14780952D01*
X64557142Y-14828571D01*
X58302380Y-15066666D02*
X58302380Y-15542857D01*
X57302380Y-15542857D01*
X57635714Y-14304761D02*
X58302380Y-14304761D01*
X57254761Y-14542857D02*
X57969047Y-14780952D01*
X57969047Y-14161904D01*
X51952380Y-15066666D02*
X51952380Y-15542857D01*
X50952380Y-15542857D01*
X50952380Y-14257142D02*
X50952380Y-14733333D01*
X51428571Y-14780952D01*
X51380952Y-14733333D01*
X51333333Y-14638095D01*
X51333333Y-14400000D01*
X51380952Y-14304761D01*
X51428571Y-14257142D01*
X51523809Y-14209523D01*
X51761904Y-14209523D01*
X51857142Y-14257142D01*
X51904761Y-14304761D01*
X51952380Y-14400000D01*
X51952380Y-14638095D01*
X51904761Y-14733333D01*
X51857142Y-14780952D01*
X45602380Y-15066666D02*
X45602380Y-15542857D01*
X44602380Y-15542857D01*
X44602380Y-14304761D02*
X44602380Y-14495238D01*
X44650000Y-14590476D01*
X44697619Y-14638095D01*
X44840476Y-14733333D01*
X45030952Y-14780952D01*
X45411904Y-14780952D01*
X45507142Y-14733333D01*
X45554761Y-14685714D01*
X45602380Y-14590476D01*
X45602380Y-14400000D01*
X45554761Y-14304761D01*
X45507142Y-14257142D01*
X45411904Y-14209523D01*
X45173809Y-14209523D01*
X45078571Y-14257142D01*
X45030952Y-14304761D01*
X44983333Y-14400000D01*
X44983333Y-14590476D01*
X45030952Y-14685714D01*
X45078571Y-14733333D01*
X45173809Y-14780952D01*
X37835359Y-36749451D02*
X37589779Y-36222613D01*
X37272611Y-36650224D02*
X37446260Y-35665416D01*
X37821424Y-35731568D01*
X37906947Y-35795001D01*
X37945573Y-35850166D01*
X37975931Y-35952226D01*
X37951124Y-36092913D01*
X37887691Y-36178435D01*
X37832526Y-36217062D01*
X37730466Y-36247419D01*
X37355301Y-36181268D01*
X38773271Y-36914831D02*
X38210524Y-36815603D01*
X38491897Y-36865217D02*
X38665545Y-35880409D01*
X38546947Y-36004558D01*
X38436618Y-36081811D01*
X38334558Y-36112169D01*
X38276423Y-34248037D02*
X38030843Y-33721199D01*
X37713675Y-34148810D02*
X37887324Y-33164002D01*
X38262488Y-33230154D01*
X38348011Y-33293587D01*
X38386637Y-33348752D01*
X38416995Y-33450812D01*
X38392188Y-33591499D01*
X38328755Y-33677021D01*
X38273590Y-33715648D01*
X38171530Y-33746005D01*
X37796365Y-33679854D01*
X38808698Y-33423173D02*
X38863862Y-33384546D01*
X38965923Y-33354188D01*
X39200401Y-33395533D01*
X39285923Y-33458967D01*
X39324550Y-33514131D01*
X39354907Y-33616191D01*
X39338369Y-33709983D01*
X39266667Y-33842400D01*
X38604692Y-34305920D01*
X39214335Y-34413417D01*
X38717489Y-31746628D02*
X38471909Y-31219790D01*
X38154741Y-31647401D02*
X38328390Y-30662593D01*
X38703554Y-30728745D01*
X38789077Y-30792178D01*
X38827703Y-30847343D01*
X38858061Y-30949403D01*
X38833254Y-31090090D01*
X38769821Y-31175612D01*
X38714656Y-31214239D01*
X38612596Y-31244596D01*
X38237431Y-31178445D01*
X39219406Y-30819703D02*
X39829049Y-30927200D01*
X39434628Y-31244482D01*
X39575315Y-31269289D01*
X39660837Y-31332722D01*
X39699464Y-31387887D01*
X39729822Y-31489947D01*
X39688477Y-31724425D01*
X39625043Y-31809947D01*
X39569879Y-31848574D01*
X39467818Y-31878932D01*
X39186445Y-31829318D01*
X39100923Y-31765884D01*
X39062296Y-31710720D01*
X39158555Y-29245211D02*
X38912975Y-28718373D01*
X38595807Y-29145984D02*
X38769456Y-28161176D01*
X39144620Y-28227328D01*
X39230143Y-28290761D01*
X39268769Y-28345926D01*
X39299127Y-28447986D01*
X39274320Y-28588673D01*
X39210887Y-28674195D01*
X39155722Y-28712822D01*
X39053662Y-28743179D01*
X38678497Y-28677028D01*
X40118441Y-28737514D02*
X40002676Y-29394053D01*
X39950115Y-28321005D02*
X39591602Y-28983094D01*
X40201245Y-29090590D01*
X39599623Y-26743803D02*
X39354043Y-26216965D01*
X39036875Y-26644576D02*
X39210524Y-25659768D01*
X39585688Y-25725920D01*
X39671211Y-25789353D01*
X39709837Y-25844518D01*
X39740195Y-25946578D01*
X39715388Y-26087265D01*
X39651955Y-26172787D01*
X39596790Y-26211414D01*
X39494730Y-26241771D01*
X39119565Y-26175620D01*
X40664287Y-25916106D02*
X40195331Y-25833416D01*
X40065746Y-26294103D01*
X40120911Y-26255477D01*
X40222971Y-26225119D01*
X40457449Y-26266464D01*
X40542971Y-26329897D01*
X40581598Y-26385062D01*
X40611956Y-26487122D01*
X40570611Y-26721600D01*
X40507177Y-26807122D01*
X40452013Y-26845749D01*
X40349952Y-26876107D01*
X40115474Y-26834762D01*
X40029952Y-26771328D01*
X39991326Y-26716164D01*
X40040689Y-24242391D02*
X39795109Y-23715553D01*
X39477941Y-24143164D02*
X39651590Y-23158356D01*
X40026754Y-23224508D01*
X40112277Y-23287941D01*
X40150903Y-23343106D01*
X40181261Y-23445166D01*
X40156454Y-23585853D01*
X40093021Y-23671375D01*
X40037856Y-23710002D01*
X39935796Y-23740359D01*
X39560631Y-23674208D01*
X41058458Y-23406425D02*
X40870875Y-23373349D01*
X40768815Y-23403707D01*
X40713651Y-23442333D01*
X40595053Y-23566482D01*
X40515081Y-23745796D01*
X40448929Y-24120961D01*
X40479287Y-24223021D01*
X40517914Y-24278185D01*
X40603436Y-24341619D01*
X40791018Y-24374695D01*
X40893079Y-24344337D01*
X40948243Y-24305710D01*
X41011677Y-24220188D01*
X41053022Y-23985710D01*
X41022664Y-23883650D01*
X40984037Y-23828485D01*
X40898515Y-23765052D01*
X40710933Y-23731976D01*
X40608872Y-23762334D01*
X40553708Y-23800960D01*
X40490274Y-23886483D01*
X70702207Y-29222058D02*
X71499432Y-29362631D01*
X71601492Y-29332273D01*
X71656657Y-29293646D01*
X71720090Y-29208124D01*
X71753166Y-29020541D01*
X71722808Y-28918481D01*
X71684182Y-28863317D01*
X71598659Y-28799883D01*
X70801434Y-28659311D01*
X71959890Y-27848151D02*
X71860663Y-28410899D01*
X71910276Y-28129525D02*
X70925469Y-27955877D01*
X71049617Y-28074475D01*
X71126871Y-28184804D01*
X71157228Y-28286864D01*
X78318095Y-55762380D02*
X78318095Y-56571904D01*
X78365714Y-56667142D01*
X78413333Y-56714761D01*
X78508571Y-56762380D01*
X78699047Y-56762380D01*
X78794285Y-56714761D01*
X78841904Y-56667142D01*
X78889523Y-56571904D01*
X78889523Y-55762380D01*
X79318095Y-55857619D02*
X79365714Y-55810000D01*
X79460952Y-55762380D01*
X79699047Y-55762380D01*
X79794285Y-55810000D01*
X79841904Y-55857619D01*
X79889523Y-55952857D01*
X79889523Y-56048095D01*
X79841904Y-56190952D01*
X79270476Y-56762380D01*
X79889523Y-56762380D01*
X65699385Y-28339927D02*
X66496610Y-28480500D01*
X66598670Y-28450142D01*
X66653835Y-28411515D01*
X66717268Y-28325993D01*
X66750344Y-28138410D01*
X66719986Y-28036350D01*
X66681360Y-27981186D01*
X66595837Y-27917752D01*
X65798612Y-27777180D01*
X65864764Y-27402015D02*
X65972260Y-26792372D01*
X66289542Y-27186793D01*
X66314349Y-27046106D01*
X66377783Y-26960584D01*
X66432947Y-26921957D01*
X66535008Y-26891600D01*
X66769486Y-26932944D01*
X66855008Y-26996378D01*
X66893635Y-27051543D01*
X66923992Y-27153603D01*
X66874378Y-27434976D01*
X66810945Y-27520499D01*
X66755780Y-27559125D01*
X60696560Y-27457795D02*
X61493785Y-27598368D01*
X61595845Y-27568010D01*
X61651010Y-27529383D01*
X61714443Y-27443861D01*
X61747519Y-27256278D01*
X61717161Y-27154218D01*
X61678535Y-27099054D01*
X61593012Y-27035620D01*
X60795787Y-26895048D01*
X61281167Y-26061914D02*
X61937705Y-26177680D01*
X60864657Y-26230240D02*
X61526746Y-26588753D01*
X61634243Y-25979110D01*
X55693739Y-26575662D02*
X56490964Y-26716235D01*
X56593024Y-26685877D01*
X56648189Y-26647250D01*
X56711622Y-26561728D01*
X56744698Y-26374145D01*
X56714340Y-26272085D01*
X56675714Y-26216921D01*
X56590191Y-26153487D01*
X55792966Y-26012915D01*
X55958345Y-25075003D02*
X55875656Y-25543959D01*
X56336343Y-25673544D01*
X56297716Y-25618379D01*
X56267359Y-25516319D01*
X56308703Y-25281841D01*
X56372137Y-25196319D01*
X56427301Y-25157692D01*
X56529362Y-25127335D01*
X56763840Y-25168679D01*
X56849362Y-25232113D01*
X56887989Y-25287278D01*
X56918346Y-25389338D01*
X56877001Y-25623816D01*
X56813568Y-25709338D01*
X56758403Y-25747965D01*
X50690916Y-25693530D02*
X51488141Y-25834103D01*
X51590201Y-25803745D01*
X51645366Y-25765118D01*
X51708799Y-25679596D01*
X51741875Y-25492013D01*
X51711517Y-25389953D01*
X51672891Y-25334789D01*
X51587368Y-25271355D01*
X50790143Y-25130783D01*
X50947253Y-24239766D02*
X50914178Y-24427349D01*
X50944535Y-24529409D01*
X50983162Y-24584574D01*
X51107311Y-24703172D01*
X51286624Y-24783143D01*
X51661789Y-24849295D01*
X51763849Y-24818937D01*
X51819014Y-24780310D01*
X51882447Y-24694788D01*
X51915523Y-24507206D01*
X51885166Y-24405146D01*
X51846539Y-24349981D01*
X51761017Y-24286547D01*
X51526539Y-24245203D01*
X51424478Y-24275560D01*
X51369314Y-24314187D01*
X51305880Y-24399709D01*
X51272805Y-24587292D01*
X51303162Y-24689352D01*
X51341789Y-24744516D01*
X51427311Y-24807950D01*
X45688094Y-24811395D02*
X46485319Y-24951968D01*
X46587379Y-24921610D01*
X46642544Y-24882983D01*
X46705977Y-24797461D01*
X46739053Y-24609878D01*
X46708695Y-24507818D01*
X46670069Y-24452654D01*
X46584546Y-24389220D01*
X45787321Y-24248648D01*
X45853473Y-23873483D02*
X45969238Y-23216945D01*
X46879625Y-23812653D01*
%LPC*%
D10*
X46119047Y-48833333D02*
X48500000Y-48833333D01*
X45642857Y-50261904D02*
X47309523Y-45261904D01*
X48976190Y-50261904D01*
X50642857Y-50261904D02*
X50642857Y-45261904D01*
X55880952Y-50261904D02*
X54214285Y-47880952D01*
X53023809Y-50261904D02*
X53023809Y-45261904D01*
X54928571Y-45261904D01*
X55404761Y-45500000D01*
X55642857Y-45738095D01*
X55880952Y-46214285D01*
X55880952Y-46928571D01*
X55642857Y-47404761D01*
X55404761Y-47642857D01*
X54928571Y-47880952D01*
X53023809Y-47880952D01*
X53000000Y-39000000D02*
X53000000Y-42000000D01*
X53000000Y-39000000D02*
X51000000Y-41000000D01*
X51000000Y-44000000D02*
X53000000Y-39000000D01*
D14*
X20543992Y-33828427D02*
X20678679Y-33761083D01*
X20847038Y-33592724D01*
X20880710Y-33491709D01*
X20880710Y-33424366D01*
X20847038Y-33323350D01*
X20779694Y-33256007D01*
X20678679Y-33222335D01*
X20611336Y-33222335D01*
X20510320Y-33256007D01*
X20341962Y-33357022D01*
X20240946Y-33390694D01*
X20173603Y-33390694D01*
X20072588Y-33357022D01*
X20005244Y-33289679D01*
X19971572Y-33188663D01*
X19971572Y-33121320D01*
X20005244Y-33020305D01*
X20173603Y-32851946D01*
X20308290Y-32784602D01*
X21520473Y-32851946D02*
X21486801Y-32952961D01*
X21352114Y-33087648D01*
X21251099Y-33121320D01*
X21150084Y-33087648D01*
X20880710Y-32818274D01*
X20847038Y-32717259D01*
X20880710Y-32616244D01*
X21015397Y-32481557D01*
X21116412Y-32447885D01*
X21217427Y-32481557D01*
X21284771Y-32548900D01*
X21015397Y-32952961D01*
X21419458Y-32077496D02*
X21890862Y-32548900D01*
X21486801Y-32144839D02*
X21486801Y-32077496D01*
X21520473Y-31976480D01*
X21621488Y-31875465D01*
X21722503Y-31841793D01*
X21823519Y-31875465D01*
X22193908Y-32245854D01*
X22463282Y-31909137D02*
X22564297Y-31875465D01*
X22698984Y-31740778D01*
X22732656Y-31639763D01*
X22698984Y-31538748D01*
X22665312Y-31505076D01*
X22564297Y-31471404D01*
X22463282Y-31505076D01*
X22362267Y-31606091D01*
X22261251Y-31639763D01*
X22160236Y-31606091D01*
X22126564Y-31572419D01*
X22092893Y-31471404D01*
X22126564Y-31370389D01*
X22227580Y-31269374D01*
X22328595Y-31235702D01*
X23204061Y-31235702D02*
X23103045Y-31269374D01*
X23035702Y-31269374D01*
X22934687Y-31235702D01*
X22732656Y-31033671D01*
X22698984Y-30932656D01*
X22698984Y-30865312D01*
X22732656Y-30764297D01*
X22833671Y-30663282D01*
X22934687Y-30629610D01*
X23002030Y-30629610D01*
X23103045Y-30663282D01*
X23305076Y-30865312D01*
X23338748Y-30966328D01*
X23338748Y-31033671D01*
X23305076Y-31134687D01*
X23204061Y-31235702D01*
X23742809Y-30696954D02*
X23271404Y-30225549D01*
X23406091Y-30360236D02*
X23372419Y-30259221D01*
X23372419Y-30191877D01*
X23406091Y-30090862D01*
X23473435Y-30023519D01*
X24651946Y-29787816D02*
X24550931Y-28946023D01*
X24180541Y-29316412D02*
X25022335Y-29417427D01*
X24887648Y-28137901D02*
X24752961Y-28272588D01*
X24719289Y-28373603D01*
X24719289Y-28440946D01*
X24752961Y-28609305D01*
X24853976Y-28777664D01*
X25123350Y-29047038D01*
X25224366Y-29080710D01*
X25291709Y-29080710D01*
X25392724Y-29047038D01*
X25527411Y-28912351D01*
X25561083Y-28811336D01*
X25561083Y-28743992D01*
X25527411Y-28642977D01*
X25359053Y-28474618D01*
X25258037Y-28440946D01*
X25190694Y-28440946D01*
X25089679Y-28474618D01*
X24954992Y-28609305D01*
X24921320Y-28710320D01*
X24921320Y-28777664D01*
X24954992Y-28878679D01*
X21469965Y-30365736D02*
X21806683Y-30029018D01*
X21604652Y-30635110D02*
X21133248Y-29692301D01*
X22076057Y-30163705D01*
X22311759Y-29928003D02*
X21840355Y-29456599D01*
X21604652Y-29220896D02*
X21604652Y-29288240D01*
X21671996Y-29288240D01*
X21671996Y-29220896D01*
X21604652Y-29220896D01*
X21671996Y-29288240D01*
X22648477Y-29591286D02*
X22177072Y-29119881D01*
X22311759Y-29254568D02*
X22278087Y-29153553D01*
X22278087Y-29086209D01*
X22311759Y-28985194D01*
X22379103Y-28917851D01*
X23557614Y-28682148D02*
X23456599Y-27840355D01*
X23086209Y-28210744D02*
X23928003Y-28311759D01*
X23793316Y-27032233D02*
X23658629Y-27166920D01*
X23624957Y-27267935D01*
X23624957Y-27335278D01*
X23658629Y-27503637D01*
X23759644Y-27671996D01*
X24029018Y-27941370D01*
X24130034Y-27975042D01*
X24197377Y-27975042D01*
X24298392Y-27941370D01*
X24433079Y-27806683D01*
X24466751Y-27705668D01*
X24466751Y-27638324D01*
X24433079Y-27537309D01*
X24264721Y-27368950D01*
X24163705Y-27335278D01*
X24096362Y-27335278D01*
X23995347Y-27368950D01*
X23860660Y-27503637D01*
X23826988Y-27604652D01*
X23826988Y-27671996D01*
X23860660Y-27773011D01*
X18880710Y-30891709D02*
X19015397Y-30824366D01*
X19183755Y-30656007D01*
X19217427Y-30554992D01*
X19217427Y-30487648D01*
X19183755Y-30386633D01*
X19116412Y-30319289D01*
X19015397Y-30285618D01*
X18948053Y-30285618D01*
X18847038Y-30319289D01*
X18678679Y-30420305D01*
X18577664Y-30453976D01*
X18510320Y-30453976D01*
X18409305Y-30420305D01*
X18341962Y-30352961D01*
X18308290Y-30251946D01*
X18308290Y-30184602D01*
X18341962Y-30083587D01*
X18510320Y-29915228D01*
X18645007Y-29847885D01*
X19857190Y-29915228D02*
X19823519Y-30016244D01*
X19688832Y-30150931D01*
X19587816Y-30184602D01*
X19486801Y-30150931D01*
X19217427Y-29881557D01*
X19183755Y-29780541D01*
X19217427Y-29679526D01*
X19352114Y-29544839D01*
X19453129Y-29511167D01*
X19554145Y-29544839D01*
X19621488Y-29612183D01*
X19352114Y-30016244D01*
X20227580Y-29612183D02*
X19756175Y-29140778D01*
X19890862Y-29275465D02*
X19857190Y-29174450D01*
X19857190Y-29107106D01*
X19890862Y-29006091D01*
X19958206Y-28938748D01*
X20126564Y-28770389D02*
X20766328Y-29073435D01*
X20463282Y-28433671D01*
X21305076Y-28534687D02*
X21204061Y-28568358D01*
X21136717Y-28568358D01*
X21035702Y-28534687D01*
X20833671Y-28332656D01*
X20800000Y-28231641D01*
X20800000Y-28164297D01*
X20833671Y-28063282D01*
X20934687Y-27962267D01*
X21035702Y-27928595D01*
X21103045Y-27928595D01*
X21204061Y-27962267D01*
X21406091Y-28164297D01*
X21439763Y-28265312D01*
X21439763Y-28332656D01*
X21406091Y-28433671D01*
X21305076Y-28534687D01*
X22315228Y-27524534D02*
X22214213Y-26682740D01*
X21843824Y-27053129D02*
X22685618Y-27154145D01*
X22550931Y-25874618D02*
X22416244Y-26009305D01*
X22382572Y-26110320D01*
X22382572Y-26177664D01*
X22416244Y-26346023D01*
X22517259Y-26514381D01*
X22786633Y-26783755D01*
X22887648Y-26817427D01*
X22954992Y-26817427D01*
X23056007Y-26783755D01*
X23190694Y-26649068D01*
X23224366Y-26548053D01*
X23224366Y-26480710D01*
X23190694Y-26379694D01*
X23022335Y-26211336D01*
X22921320Y-26177664D01*
X22853976Y-26177664D01*
X22752961Y-26211336D01*
X22618274Y-26346023D01*
X22584602Y-26447038D01*
X22584602Y-26514381D01*
X22618274Y-26615397D01*
X19472389Y-37800648D02*
X18765282Y-37093541D01*
X18933641Y-36925182D01*
X19068328Y-36857838D01*
X19203015Y-36857838D01*
X19304030Y-36891510D01*
X19472389Y-36992525D01*
X19573404Y-37093541D01*
X19674419Y-37261900D01*
X19708091Y-37362915D01*
X19708091Y-37497602D01*
X19640748Y-37632289D01*
X19472389Y-37800648D01*
X20415198Y-36790495D02*
X20381526Y-36891510D01*
X20246839Y-37026197D01*
X20145824Y-37059869D01*
X20044809Y-37026197D01*
X19775435Y-36756823D01*
X19741763Y-36655808D01*
X19775435Y-36554793D01*
X19910122Y-36420106D01*
X20011137Y-36386434D01*
X20112152Y-36420106D01*
X20179496Y-36487449D01*
X19910122Y-36891510D01*
X20718244Y-36487449D02*
X20819259Y-36453777D01*
X20953946Y-36319090D01*
X20987618Y-36218075D01*
X20953946Y-36117060D01*
X20920274Y-36083388D01*
X20819259Y-36049716D01*
X20718244Y-36083388D01*
X20617228Y-36184403D01*
X20516213Y-36218075D01*
X20415198Y-36184403D01*
X20381526Y-36150732D01*
X20347854Y-36049716D01*
X20381526Y-35948701D01*
X20482541Y-35847686D01*
X20583557Y-35814014D01*
X21358007Y-35915029D02*
X20886602Y-35443625D01*
X20650900Y-35207923D02*
X20650900Y-35275266D01*
X20718244Y-35275266D01*
X20718244Y-35207923D01*
X20650900Y-35207923D01*
X20718244Y-35275266D01*
X21526366Y-34803862D02*
X22098785Y-35376281D01*
X22132457Y-35477297D01*
X22132457Y-35544640D01*
X22098785Y-35645655D01*
X21997770Y-35746671D01*
X21896755Y-35780342D01*
X21964098Y-35241594D02*
X21930427Y-35342610D01*
X21795740Y-35477297D01*
X21694724Y-35510968D01*
X21627381Y-35510968D01*
X21526366Y-35477297D01*
X21324335Y-35275266D01*
X21290663Y-35174251D01*
X21290663Y-35106907D01*
X21324335Y-35005892D01*
X21459022Y-34871205D01*
X21560037Y-34837533D01*
X21863083Y-34467144D02*
X22334488Y-34938549D01*
X21930427Y-34534488D02*
X21930427Y-34467144D01*
X21964098Y-34366129D01*
X22065114Y-34265114D01*
X22166129Y-34231442D01*
X22267144Y-34265114D01*
X22637533Y-34635503D01*
X23209953Y-33995740D02*
X23176281Y-34096755D01*
X23041594Y-34231442D01*
X22940579Y-34265114D01*
X22839564Y-34231442D01*
X22570190Y-33962068D01*
X22536518Y-33861053D01*
X22570190Y-33760037D01*
X22704877Y-33625350D01*
X22805892Y-33591679D01*
X22906907Y-33625350D01*
X22974251Y-33692694D01*
X22704877Y-34096755D01*
X23883388Y-33389648D02*
X23176281Y-32682541D01*
X23849716Y-33355976D02*
X23816045Y-33456992D01*
X23681358Y-33591679D01*
X23580342Y-33625350D01*
X23512999Y-33625350D01*
X23411984Y-33591679D01*
X23209953Y-33389648D01*
X23176281Y-33288633D01*
X23176281Y-33221289D01*
X23209953Y-33120274D01*
X23344640Y-32985587D01*
X23445655Y-32951915D01*
X24758854Y-32514183D02*
X24051747Y-31807076D01*
X24321121Y-32076450D02*
X24354793Y-31975435D01*
X24489480Y-31840748D01*
X24590495Y-31807076D01*
X24657838Y-31807076D01*
X24758854Y-31840748D01*
X24960884Y-32042778D01*
X24994556Y-32143793D01*
X24994556Y-32211137D01*
X24960884Y-32312152D01*
X24826197Y-32446839D01*
X24725182Y-32480511D01*
X24859869Y-31470358D02*
X25499632Y-31773404D01*
X25196587Y-31133641D02*
X25499632Y-31773404D01*
X25600648Y-32009106D01*
X25600648Y-32076450D01*
X25566976Y-32177465D01*
X20672787Y-38933702D02*
X19965680Y-38226595D01*
X20706458Y-38495969D01*
X20437084Y-37755190D01*
X21144191Y-38462297D01*
X21581924Y-38024564D02*
X21480909Y-38058236D01*
X21413565Y-38058236D01*
X21312550Y-38024564D01*
X21110519Y-37822534D01*
X21076848Y-37721519D01*
X21076848Y-37654175D01*
X21110519Y-37553160D01*
X21211535Y-37452145D01*
X21312550Y-37418473D01*
X21379893Y-37418473D01*
X21480909Y-37452145D01*
X21682939Y-37654175D01*
X21716611Y-37755190D01*
X21716611Y-37822534D01*
X21682939Y-37923549D01*
X21581924Y-38024564D01*
X22120672Y-37485816D02*
X21649267Y-37014412D01*
X21783954Y-37149099D02*
X21750283Y-37048084D01*
X21750283Y-36980740D01*
X21783954Y-36879725D01*
X21851298Y-36812381D01*
X22558405Y-37048084D02*
X22087000Y-36576679D01*
X21851298Y-36340977D02*
X21851298Y-36408320D01*
X21918641Y-36408320D01*
X21918641Y-36340977D01*
X21851298Y-36340977D01*
X21918641Y-36408320D01*
X22322702Y-36340977D02*
X22592076Y-36071603D01*
X22188015Y-36004259D02*
X22794107Y-36610351D01*
X22895122Y-36644023D01*
X22996137Y-36610351D01*
X23063481Y-36543007D01*
X23602229Y-36004259D02*
X23231840Y-35633870D01*
X23130824Y-35600198D01*
X23029809Y-35633870D01*
X22895122Y-35768557D01*
X22861450Y-35869572D01*
X23568557Y-35970588D02*
X23534885Y-36071603D01*
X23366527Y-36239962D01*
X23265511Y-36273633D01*
X23164496Y-36239962D01*
X23097153Y-36172618D01*
X23063481Y-36071603D01*
X23097153Y-35970588D01*
X23265511Y-35802229D01*
X23299183Y-35701214D01*
X24477694Y-35128794D02*
X23770588Y-34421687D01*
X23938946Y-34253328D01*
X24073633Y-34185985D01*
X24208320Y-34185985D01*
X24309336Y-34219657D01*
X24477694Y-34320672D01*
X24578710Y-34421687D01*
X24679725Y-34590046D01*
X24713397Y-34691061D01*
X24713397Y-34825748D01*
X24646053Y-34960435D01*
X24477694Y-35128794D01*
X25487847Y-34118641D02*
X25117458Y-33748252D01*
X25016442Y-33714580D01*
X24915427Y-33748252D01*
X24780740Y-33882939D01*
X24747068Y-33983954D01*
X25454175Y-34084970D02*
X25420503Y-34185985D01*
X25252145Y-34354344D01*
X25151129Y-34388015D01*
X25050114Y-34354344D01*
X24982771Y-34287000D01*
X24949099Y-34185985D01*
X24982771Y-34084970D01*
X25151129Y-33916611D01*
X25184801Y-33815596D01*
X25824564Y-33781924D02*
X25353160Y-33310519D01*
X25117458Y-33074817D02*
X25117458Y-33142161D01*
X25184801Y-33142161D01*
X25184801Y-33074817D01*
X25117458Y-33074817D01*
X25184801Y-33142161D01*
X26161282Y-33445206D02*
X25454175Y-32738099D01*
X25959251Y-33108489D02*
X26430656Y-33175832D01*
X25959251Y-32704428D02*
X25959251Y-33243176D01*
X26733702Y-32872787D02*
X26262297Y-32401382D01*
X26026595Y-32165680D02*
X26026595Y-32233023D01*
X26093938Y-32233023D01*
X26093938Y-32165680D01*
X26026595Y-32165680D01*
X26093938Y-32233023D01*
D15*
X95000000Y-5000000D03*
X75000000Y-5000000D03*
X85000000Y-5000000D03*
X65000000Y-5000000D03*
X55000000Y-5000000D03*
X25000000Y-5000000D03*
X45000000Y-5000000D03*
X35000000Y-5000000D03*
X15000000Y-5000000D03*
X5000000Y-5000000D03*
X75000000Y-80000000D03*
X95000000Y-80000000D03*
X85000000Y-80000000D03*
X65000000Y-80000000D03*
X55000000Y-80000000D03*
X45000000Y-80000000D03*
X35000000Y-80000000D03*
X25000000Y-80000000D03*
X15000000Y-80000000D03*
X5000000Y-80000000D03*
D16*
X30820000Y-53270000D03*
D17*
X15580000Y-20250000D03*
X30820000Y-50730000D03*
X15580000Y-22790000D03*
X30820000Y-48190000D03*
X15580000Y-25330000D03*
X30820000Y-45650000D03*
X15580000Y-27870000D03*
X30820000Y-43110000D03*
X15580000Y-30410000D03*
X30820000Y-40570000D03*
X15580000Y-32950000D03*
X30820000Y-38030000D03*
X15580000Y-35490000D03*
X30820000Y-35490000D03*
X15580000Y-38030000D03*
X30820000Y-32950000D03*
X15580000Y-40570000D03*
X30820000Y-30410000D03*
X15580000Y-43110000D03*
X30820000Y-27870000D03*
X15580000Y-45650000D03*
X30820000Y-25330000D03*
X15580000Y-48190000D03*
X30820000Y-22790000D03*
X15580000Y-50730000D03*
X30820000Y-20250000D03*
X15580000Y-53270000D03*
X30820000Y-17710000D03*
X15580000Y-17710000D03*
D18*
G36*
X46328191Y-60365176D02*
G01*
X46351901Y-60368693D01*
X46375152Y-60374517D01*
X46397720Y-60382592D01*
X46419389Y-60392841D01*
X46439948Y-60405164D01*
X46459201Y-60419442D01*
X46476961Y-60435539D01*
X46493058Y-60453299D01*
X46507336Y-60472552D01*
X46519659Y-60493111D01*
X46529908Y-60514780D01*
X46537983Y-60537348D01*
X46543807Y-60560599D01*
X46547324Y-60584309D01*
X46548500Y-60608250D01*
X46548500Y-61171750D01*
X46547324Y-61195691D01*
X46543807Y-61219401D01*
X46537983Y-61242652D01*
X46529908Y-61265220D01*
X46519659Y-61286889D01*
X46507336Y-61307448D01*
X46493058Y-61326701D01*
X46476961Y-61344461D01*
X46459201Y-61360558D01*
X46439948Y-61374836D01*
X46419389Y-61387159D01*
X46397720Y-61397408D01*
X46375152Y-61405483D01*
X46351901Y-61411307D01*
X46328191Y-61414824D01*
X46304250Y-61416000D01*
X45815750Y-61416000D01*
X45791809Y-61414824D01*
X45768099Y-61411307D01*
X45744848Y-61405483D01*
X45722280Y-61397408D01*
X45700611Y-61387159D01*
X45680052Y-61374836D01*
X45660799Y-61360558D01*
X45643039Y-61344461D01*
X45626942Y-61326701D01*
X45612664Y-61307448D01*
X45600341Y-61286889D01*
X45590092Y-61265220D01*
X45582017Y-61242652D01*
X45576193Y-61219401D01*
X45572676Y-61195691D01*
X45571500Y-61171750D01*
X45571500Y-60608250D01*
X45572676Y-60584309D01*
X45576193Y-60560599D01*
X45582017Y-60537348D01*
X45590092Y-60514780D01*
X45600341Y-60493111D01*
X45612664Y-60472552D01*
X45626942Y-60453299D01*
X45643039Y-60435539D01*
X45660799Y-60419442D01*
X45680052Y-60405164D01*
X45700611Y-60392841D01*
X45722280Y-60382592D01*
X45744848Y-60374517D01*
X45768099Y-60368693D01*
X45791809Y-60365176D01*
X45815750Y-60364000D01*
X46304250Y-60364000D01*
X46328191Y-60365176D01*
X46328191Y-60365176D01*
G37*
D19*
X46060000Y-60890000D03*
D18*
G36*
X47903191Y-60365176D02*
G01*
X47926901Y-60368693D01*
X47950152Y-60374517D01*
X47972720Y-60382592D01*
X47994389Y-60392841D01*
X48014948Y-60405164D01*
X48034201Y-60419442D01*
X48051961Y-60435539D01*
X48068058Y-60453299D01*
X48082336Y-60472552D01*
X48094659Y-60493111D01*
X48104908Y-60514780D01*
X48112983Y-60537348D01*
X48118807Y-60560599D01*
X48122324Y-60584309D01*
X48123500Y-60608250D01*
X48123500Y-61171750D01*
X48122324Y-61195691D01*
X48118807Y-61219401D01*
X48112983Y-61242652D01*
X48104908Y-61265220D01*
X48094659Y-61286889D01*
X48082336Y-61307448D01*
X48068058Y-61326701D01*
X48051961Y-61344461D01*
X48034201Y-61360558D01*
X48014948Y-61374836D01*
X47994389Y-61387159D01*
X47972720Y-61397408D01*
X47950152Y-61405483D01*
X47926901Y-61411307D01*
X47903191Y-61414824D01*
X47879250Y-61416000D01*
X47390750Y-61416000D01*
X47366809Y-61414824D01*
X47343099Y-61411307D01*
X47319848Y-61405483D01*
X47297280Y-61397408D01*
X47275611Y-61387159D01*
X47255052Y-61374836D01*
X47235799Y-61360558D01*
X47218039Y-61344461D01*
X47201942Y-61326701D01*
X47187664Y-61307448D01*
X47175341Y-61286889D01*
X47165092Y-61265220D01*
X47157017Y-61242652D01*
X47151193Y-61219401D01*
X47147676Y-61195691D01*
X47146500Y-61171750D01*
X47146500Y-60608250D01*
X47147676Y-60584309D01*
X47151193Y-60560599D01*
X47157017Y-60537348D01*
X47165092Y-60514780D01*
X47175341Y-60493111D01*
X47187664Y-60472552D01*
X47201942Y-60453299D01*
X47218039Y-60435539D01*
X47235799Y-60419442D01*
X47255052Y-60405164D01*
X47275611Y-60392841D01*
X47297280Y-60382592D01*
X47319848Y-60374517D01*
X47343099Y-60368693D01*
X47366809Y-60365176D01*
X47390750Y-60364000D01*
X47879250Y-60364000D01*
X47903191Y-60365176D01*
X47903191Y-60365176D01*
G37*
D19*
X47635000Y-60890000D03*
D18*
G36*
X47903191Y-55285176D02*
G01*
X47926901Y-55288693D01*
X47950152Y-55294517D01*
X47972720Y-55302592D01*
X47994389Y-55312841D01*
X48014948Y-55325164D01*
X48034201Y-55339442D01*
X48051961Y-55355539D01*
X48068058Y-55373299D01*
X48082336Y-55392552D01*
X48094659Y-55413111D01*
X48104908Y-55434780D01*
X48112983Y-55457348D01*
X48118807Y-55480599D01*
X48122324Y-55504309D01*
X48123500Y-55528250D01*
X48123500Y-56091750D01*
X48122324Y-56115691D01*
X48118807Y-56139401D01*
X48112983Y-56162652D01*
X48104908Y-56185220D01*
X48094659Y-56206889D01*
X48082336Y-56227448D01*
X48068058Y-56246701D01*
X48051961Y-56264461D01*
X48034201Y-56280558D01*
X48014948Y-56294836D01*
X47994389Y-56307159D01*
X47972720Y-56317408D01*
X47950152Y-56325483D01*
X47926901Y-56331307D01*
X47903191Y-56334824D01*
X47879250Y-56336000D01*
X47390750Y-56336000D01*
X47366809Y-56334824D01*
X47343099Y-56331307D01*
X47319848Y-56325483D01*
X47297280Y-56317408D01*
X47275611Y-56307159D01*
X47255052Y-56294836D01*
X47235799Y-56280558D01*
X47218039Y-56264461D01*
X47201942Y-56246701D01*
X47187664Y-56227448D01*
X47175341Y-56206889D01*
X47165092Y-56185220D01*
X47157017Y-56162652D01*
X47151193Y-56139401D01*
X47147676Y-56115691D01*
X47146500Y-56091750D01*
X47146500Y-55528250D01*
X47147676Y-55504309D01*
X47151193Y-55480599D01*
X47157017Y-55457348D01*
X47165092Y-55434780D01*
X47175341Y-55413111D01*
X47187664Y-55392552D01*
X47201942Y-55373299D01*
X47218039Y-55355539D01*
X47235799Y-55339442D01*
X47255052Y-55325164D01*
X47275611Y-55312841D01*
X47297280Y-55302592D01*
X47319848Y-55294517D01*
X47343099Y-55288693D01*
X47366809Y-55285176D01*
X47390750Y-55284000D01*
X47879250Y-55284000D01*
X47903191Y-55285176D01*
X47903191Y-55285176D01*
G37*
D19*
X47635000Y-55810000D03*
D18*
G36*
X46328191Y-55285176D02*
G01*
X46351901Y-55288693D01*
X46375152Y-55294517D01*
X46397720Y-55302592D01*
X46419389Y-55312841D01*
X46439948Y-55325164D01*
X46459201Y-55339442D01*
X46476961Y-55355539D01*
X46493058Y-55373299D01*
X46507336Y-55392552D01*
X46519659Y-55413111D01*
X46529908Y-55434780D01*
X46537983Y-55457348D01*
X46543807Y-55480599D01*
X46547324Y-55504309D01*
X46548500Y-55528250D01*
X46548500Y-56091750D01*
X46547324Y-56115691D01*
X46543807Y-56139401D01*
X46537983Y-56162652D01*
X46529908Y-56185220D01*
X46519659Y-56206889D01*
X46507336Y-56227448D01*
X46493058Y-56246701D01*
X46476961Y-56264461D01*
X46459201Y-56280558D01*
X46439948Y-56294836D01*
X46419389Y-56307159D01*
X46397720Y-56317408D01*
X46375152Y-56325483D01*
X46351901Y-56331307D01*
X46328191Y-56334824D01*
X46304250Y-56336000D01*
X45815750Y-56336000D01*
X45791809Y-56334824D01*
X45768099Y-56331307D01*
X45744848Y-56325483D01*
X45722280Y-56317408D01*
X45700611Y-56307159D01*
X45680052Y-56294836D01*
X45660799Y-56280558D01*
X45643039Y-56264461D01*
X45626942Y-56246701D01*
X45612664Y-56227448D01*
X45600341Y-56206889D01*
X45590092Y-56185220D01*
X45582017Y-56162652D01*
X45576193Y-56139401D01*
X45572676Y-56115691D01*
X45571500Y-56091750D01*
X45571500Y-55528250D01*
X45572676Y-55504309D01*
X45576193Y-55480599D01*
X45582017Y-55457348D01*
X45590092Y-55434780D01*
X45600341Y-55413111D01*
X45612664Y-55392552D01*
X45626942Y-55373299D01*
X45643039Y-55355539D01*
X45660799Y-55339442D01*
X45680052Y-55325164D01*
X45700611Y-55312841D01*
X45722280Y-55302592D01*
X45744848Y-55294517D01*
X45768099Y-55288693D01*
X45791809Y-55285176D01*
X45815750Y-55284000D01*
X46304250Y-55284000D01*
X46328191Y-55285176D01*
X46328191Y-55285176D01*
G37*
D19*
X46060000Y-55810000D03*
D20*
X89240000Y-41840000D03*
D21*
X84240000Y-41840000D03*
D20*
X71460000Y-41840000D03*
D21*
X76460000Y-41840000D03*
D18*
G36*
X44347702Y-54849845D02*
G01*
X44364738Y-54852372D01*
X44381445Y-54856557D01*
X44397661Y-54862359D01*
X44413230Y-54869723D01*
X44428003Y-54878577D01*
X44441836Y-54888837D01*
X44454597Y-54900403D01*
X44466163Y-54913164D01*
X44476423Y-54926997D01*
X44485277Y-54941770D01*
X44492641Y-54957339D01*
X44498443Y-54973555D01*
X44502628Y-54990262D01*
X44505155Y-55007298D01*
X44506000Y-55024500D01*
X44506000Y-56725500D01*
X44505155Y-56742702D01*
X44502628Y-56759738D01*
X44498443Y-56776445D01*
X44492641Y-56792661D01*
X44485277Y-56808230D01*
X44476423Y-56823003D01*
X44466163Y-56836836D01*
X44454597Y-56849597D01*
X44441836Y-56861163D01*
X44428003Y-56871423D01*
X44413230Y-56880277D01*
X44397661Y-56887641D01*
X44381445Y-56893443D01*
X44364738Y-56897628D01*
X44347702Y-56900155D01*
X44330500Y-56901000D01*
X43979500Y-56901000D01*
X43962298Y-56900155D01*
X43945262Y-56897628D01*
X43928555Y-56893443D01*
X43912339Y-56887641D01*
X43896770Y-56880277D01*
X43881997Y-56871423D01*
X43868164Y-56861163D01*
X43855403Y-56849597D01*
X43843837Y-56836836D01*
X43833577Y-56823003D01*
X43824723Y-56808230D01*
X43817359Y-56792661D01*
X43811557Y-56776445D01*
X43807372Y-56759738D01*
X43804845Y-56742702D01*
X43804000Y-56725500D01*
X43804000Y-55024500D01*
X43804845Y-55007298D01*
X43807372Y-54990262D01*
X43811557Y-54973555D01*
X43817359Y-54957339D01*
X43824723Y-54941770D01*
X43833577Y-54926997D01*
X43843837Y-54913164D01*
X43855403Y-54900403D01*
X43868164Y-54888837D01*
X43881997Y-54878577D01*
X43896770Y-54869723D01*
X43912339Y-54862359D01*
X43928555Y-54856557D01*
X43945262Y-54852372D01*
X43962298Y-54849845D01*
X43979500Y-54849000D01*
X44330500Y-54849000D01*
X44347702Y-54849845D01*
X44347702Y-54849845D01*
G37*
D22*
X44155000Y-55875000D03*
D18*
G36*
X43077702Y-54849845D02*
G01*
X43094738Y-54852372D01*
X43111445Y-54856557D01*
X43127661Y-54862359D01*
X43143230Y-54869723D01*
X43158003Y-54878577D01*
X43171836Y-54888837D01*
X43184597Y-54900403D01*
X43196163Y-54913164D01*
X43206423Y-54926997D01*
X43215277Y-54941770D01*
X43222641Y-54957339D01*
X43228443Y-54973555D01*
X43232628Y-54990262D01*
X43235155Y-55007298D01*
X43236000Y-55024500D01*
X43236000Y-56725500D01*
X43235155Y-56742702D01*
X43232628Y-56759738D01*
X43228443Y-56776445D01*
X43222641Y-56792661D01*
X43215277Y-56808230D01*
X43206423Y-56823003D01*
X43196163Y-56836836D01*
X43184597Y-56849597D01*
X43171836Y-56861163D01*
X43158003Y-56871423D01*
X43143230Y-56880277D01*
X43127661Y-56887641D01*
X43111445Y-56893443D01*
X43094738Y-56897628D01*
X43077702Y-56900155D01*
X43060500Y-56901000D01*
X42709500Y-56901000D01*
X42692298Y-56900155D01*
X42675262Y-56897628D01*
X42658555Y-56893443D01*
X42642339Y-56887641D01*
X42626770Y-56880277D01*
X42611997Y-56871423D01*
X42598164Y-56861163D01*
X42585403Y-56849597D01*
X42573837Y-56836836D01*
X42563577Y-56823003D01*
X42554723Y-56808230D01*
X42547359Y-56792661D01*
X42541557Y-56776445D01*
X42537372Y-56759738D01*
X42534845Y-56742702D01*
X42534000Y-56725500D01*
X42534000Y-55024500D01*
X42534845Y-55007298D01*
X42537372Y-54990262D01*
X42541557Y-54973555D01*
X42547359Y-54957339D01*
X42554723Y-54941770D01*
X42563577Y-54926997D01*
X42573837Y-54913164D01*
X42585403Y-54900403D01*
X42598164Y-54888837D01*
X42611997Y-54878577D01*
X42626770Y-54869723D01*
X42642339Y-54862359D01*
X42658555Y-54856557D01*
X42675262Y-54852372D01*
X42692298Y-54849845D01*
X42709500Y-54849000D01*
X43060500Y-54849000D01*
X43077702Y-54849845D01*
X43077702Y-54849845D01*
G37*
D22*
X42885000Y-55875000D03*
D18*
G36*
X41807702Y-54849845D02*
G01*
X41824738Y-54852372D01*
X41841445Y-54856557D01*
X41857661Y-54862359D01*
X41873230Y-54869723D01*
X41888003Y-54878577D01*
X41901836Y-54888837D01*
X41914597Y-54900403D01*
X41926163Y-54913164D01*
X41936423Y-54926997D01*
X41945277Y-54941770D01*
X41952641Y-54957339D01*
X41958443Y-54973555D01*
X41962628Y-54990262D01*
X41965155Y-55007298D01*
X41966000Y-55024500D01*
X41966000Y-56725500D01*
X41965155Y-56742702D01*
X41962628Y-56759738D01*
X41958443Y-56776445D01*
X41952641Y-56792661D01*
X41945277Y-56808230D01*
X41936423Y-56823003D01*
X41926163Y-56836836D01*
X41914597Y-56849597D01*
X41901836Y-56861163D01*
X41888003Y-56871423D01*
X41873230Y-56880277D01*
X41857661Y-56887641D01*
X41841445Y-56893443D01*
X41824738Y-56897628D01*
X41807702Y-56900155D01*
X41790500Y-56901000D01*
X41439500Y-56901000D01*
X41422298Y-56900155D01*
X41405262Y-56897628D01*
X41388555Y-56893443D01*
X41372339Y-56887641D01*
X41356770Y-56880277D01*
X41341997Y-56871423D01*
X41328164Y-56861163D01*
X41315403Y-56849597D01*
X41303837Y-56836836D01*
X41293577Y-56823003D01*
X41284723Y-56808230D01*
X41277359Y-56792661D01*
X41271557Y-56776445D01*
X41267372Y-56759738D01*
X41264845Y-56742702D01*
X41264000Y-56725500D01*
X41264000Y-55024500D01*
X41264845Y-55007298D01*
X41267372Y-54990262D01*
X41271557Y-54973555D01*
X41277359Y-54957339D01*
X41284723Y-54941770D01*
X41293577Y-54926997D01*
X41303837Y-54913164D01*
X41315403Y-54900403D01*
X41328164Y-54888837D01*
X41341997Y-54878577D01*
X41356770Y-54869723D01*
X41372339Y-54862359D01*
X41388555Y-54856557D01*
X41405262Y-54852372D01*
X41422298Y-54849845D01*
X41439500Y-54849000D01*
X41790500Y-54849000D01*
X41807702Y-54849845D01*
X41807702Y-54849845D01*
G37*
D22*
X41615000Y-55875000D03*
D18*
G36*
X40537702Y-54849845D02*
G01*
X40554738Y-54852372D01*
X40571445Y-54856557D01*
X40587661Y-54862359D01*
X40603230Y-54869723D01*
X40618003Y-54878577D01*
X40631836Y-54888837D01*
X40644597Y-54900403D01*
X40656163Y-54913164D01*
X40666423Y-54926997D01*
X40675277Y-54941770D01*
X40682641Y-54957339D01*
X40688443Y-54973555D01*
X40692628Y-54990262D01*
X40695155Y-55007298D01*
X40696000Y-55024500D01*
X40696000Y-56725500D01*
X40695155Y-56742702D01*
X40692628Y-56759738D01*
X40688443Y-56776445D01*
X40682641Y-56792661D01*
X40675277Y-56808230D01*
X40666423Y-56823003D01*
X40656163Y-56836836D01*
X40644597Y-56849597D01*
X40631836Y-56861163D01*
X40618003Y-56871423D01*
X40603230Y-56880277D01*
X40587661Y-56887641D01*
X40571445Y-56893443D01*
X40554738Y-56897628D01*
X40537702Y-56900155D01*
X40520500Y-56901000D01*
X40169500Y-56901000D01*
X40152298Y-56900155D01*
X40135262Y-56897628D01*
X40118555Y-56893443D01*
X40102339Y-56887641D01*
X40086770Y-56880277D01*
X40071997Y-56871423D01*
X40058164Y-56861163D01*
X40045403Y-56849597D01*
X40033837Y-56836836D01*
X40023577Y-56823003D01*
X40014723Y-56808230D01*
X40007359Y-56792661D01*
X40001557Y-56776445D01*
X39997372Y-56759738D01*
X39994845Y-56742702D01*
X39994000Y-56725500D01*
X39994000Y-55024500D01*
X39994845Y-55007298D01*
X39997372Y-54990262D01*
X40001557Y-54973555D01*
X40007359Y-54957339D01*
X40014723Y-54941770D01*
X40023577Y-54926997D01*
X40033837Y-54913164D01*
X40045403Y-54900403D01*
X40058164Y-54888837D01*
X40071997Y-54878577D01*
X40086770Y-54869723D01*
X40102339Y-54862359D01*
X40118555Y-54856557D01*
X40135262Y-54852372D01*
X40152298Y-54849845D01*
X40169500Y-54849000D01*
X40520500Y-54849000D01*
X40537702Y-54849845D01*
X40537702Y-54849845D01*
G37*
D22*
X40345000Y-55875000D03*
D18*
G36*
X39267702Y-54849845D02*
G01*
X39284738Y-54852372D01*
X39301445Y-54856557D01*
X39317661Y-54862359D01*
X39333230Y-54869723D01*
X39348003Y-54878577D01*
X39361836Y-54888837D01*
X39374597Y-54900403D01*
X39386163Y-54913164D01*
X39396423Y-54926997D01*
X39405277Y-54941770D01*
X39412641Y-54957339D01*
X39418443Y-54973555D01*
X39422628Y-54990262D01*
X39425155Y-55007298D01*
X39426000Y-55024500D01*
X39426000Y-56725500D01*
X39425155Y-56742702D01*
X39422628Y-56759738D01*
X39418443Y-56776445D01*
X39412641Y-56792661D01*
X39405277Y-56808230D01*
X39396423Y-56823003D01*
X39386163Y-56836836D01*
X39374597Y-56849597D01*
X39361836Y-56861163D01*
X39348003Y-56871423D01*
X39333230Y-56880277D01*
X39317661Y-56887641D01*
X39301445Y-56893443D01*
X39284738Y-56897628D01*
X39267702Y-56900155D01*
X39250500Y-56901000D01*
X38899500Y-56901000D01*
X38882298Y-56900155D01*
X38865262Y-56897628D01*
X38848555Y-56893443D01*
X38832339Y-56887641D01*
X38816770Y-56880277D01*
X38801997Y-56871423D01*
X38788164Y-56861163D01*
X38775403Y-56849597D01*
X38763837Y-56836836D01*
X38753577Y-56823003D01*
X38744723Y-56808230D01*
X38737359Y-56792661D01*
X38731557Y-56776445D01*
X38727372Y-56759738D01*
X38724845Y-56742702D01*
X38724000Y-56725500D01*
X38724000Y-55024500D01*
X38724845Y-55007298D01*
X38727372Y-54990262D01*
X38731557Y-54973555D01*
X38737359Y-54957339D01*
X38744723Y-54941770D01*
X38753577Y-54926997D01*
X38763837Y-54913164D01*
X38775403Y-54900403D01*
X38788164Y-54888837D01*
X38801997Y-54878577D01*
X38816770Y-54869723D01*
X38832339Y-54862359D01*
X38848555Y-54856557D01*
X38865262Y-54852372D01*
X38882298Y-54849845D01*
X38899500Y-54849000D01*
X39250500Y-54849000D01*
X39267702Y-54849845D01*
X39267702Y-54849845D01*
G37*
D22*
X39075000Y-55875000D03*
D18*
G36*
X37997702Y-54849845D02*
G01*
X38014738Y-54852372D01*
X38031445Y-54856557D01*
X38047661Y-54862359D01*
X38063230Y-54869723D01*
X38078003Y-54878577D01*
X38091836Y-54888837D01*
X38104597Y-54900403D01*
X38116163Y-54913164D01*
X38126423Y-54926997D01*
X38135277Y-54941770D01*
X38142641Y-54957339D01*
X38148443Y-54973555D01*
X38152628Y-54990262D01*
X38155155Y-55007298D01*
X38156000Y-55024500D01*
X38156000Y-56725500D01*
X38155155Y-56742702D01*
X38152628Y-56759738D01*
X38148443Y-56776445D01*
X38142641Y-56792661D01*
X38135277Y-56808230D01*
X38126423Y-56823003D01*
X38116163Y-56836836D01*
X38104597Y-56849597D01*
X38091836Y-56861163D01*
X38078003Y-56871423D01*
X38063230Y-56880277D01*
X38047661Y-56887641D01*
X38031445Y-56893443D01*
X38014738Y-56897628D01*
X37997702Y-56900155D01*
X37980500Y-56901000D01*
X37629500Y-56901000D01*
X37612298Y-56900155D01*
X37595262Y-56897628D01*
X37578555Y-56893443D01*
X37562339Y-56887641D01*
X37546770Y-56880277D01*
X37531997Y-56871423D01*
X37518164Y-56861163D01*
X37505403Y-56849597D01*
X37493837Y-56836836D01*
X37483577Y-56823003D01*
X37474723Y-56808230D01*
X37467359Y-56792661D01*
X37461557Y-56776445D01*
X37457372Y-56759738D01*
X37454845Y-56742702D01*
X37454000Y-56725500D01*
X37454000Y-55024500D01*
X37454845Y-55007298D01*
X37457372Y-54990262D01*
X37461557Y-54973555D01*
X37467359Y-54957339D01*
X37474723Y-54941770D01*
X37483577Y-54926997D01*
X37493837Y-54913164D01*
X37505403Y-54900403D01*
X37518164Y-54888837D01*
X37531997Y-54878577D01*
X37546770Y-54869723D01*
X37562339Y-54862359D01*
X37578555Y-54856557D01*
X37595262Y-54852372D01*
X37612298Y-54849845D01*
X37629500Y-54849000D01*
X37980500Y-54849000D01*
X37997702Y-54849845D01*
X37997702Y-54849845D01*
G37*
D22*
X37805000Y-55875000D03*
D18*
G36*
X36727702Y-54849845D02*
G01*
X36744738Y-54852372D01*
X36761445Y-54856557D01*
X36777661Y-54862359D01*
X36793230Y-54869723D01*
X36808003Y-54878577D01*
X36821836Y-54888837D01*
X36834597Y-54900403D01*
X36846163Y-54913164D01*
X36856423Y-54926997D01*
X36865277Y-54941770D01*
X36872641Y-54957339D01*
X36878443Y-54973555D01*
X36882628Y-54990262D01*
X36885155Y-55007298D01*
X36886000Y-55024500D01*
X36886000Y-56725500D01*
X36885155Y-56742702D01*
X36882628Y-56759738D01*
X36878443Y-56776445D01*
X36872641Y-56792661D01*
X36865277Y-56808230D01*
X36856423Y-56823003D01*
X36846163Y-56836836D01*
X36834597Y-56849597D01*
X36821836Y-56861163D01*
X36808003Y-56871423D01*
X36793230Y-56880277D01*
X36777661Y-56887641D01*
X36761445Y-56893443D01*
X36744738Y-56897628D01*
X36727702Y-56900155D01*
X36710500Y-56901000D01*
X36359500Y-56901000D01*
X36342298Y-56900155D01*
X36325262Y-56897628D01*
X36308555Y-56893443D01*
X36292339Y-56887641D01*
X36276770Y-56880277D01*
X36261997Y-56871423D01*
X36248164Y-56861163D01*
X36235403Y-56849597D01*
X36223837Y-56836836D01*
X36213577Y-56823003D01*
X36204723Y-56808230D01*
X36197359Y-56792661D01*
X36191557Y-56776445D01*
X36187372Y-56759738D01*
X36184845Y-56742702D01*
X36184000Y-56725500D01*
X36184000Y-55024500D01*
X36184845Y-55007298D01*
X36187372Y-54990262D01*
X36191557Y-54973555D01*
X36197359Y-54957339D01*
X36204723Y-54941770D01*
X36213577Y-54926997D01*
X36223837Y-54913164D01*
X36235403Y-54900403D01*
X36248164Y-54888837D01*
X36261997Y-54878577D01*
X36276770Y-54869723D01*
X36292339Y-54862359D01*
X36308555Y-54856557D01*
X36325262Y-54852372D01*
X36342298Y-54849845D01*
X36359500Y-54849000D01*
X36710500Y-54849000D01*
X36727702Y-54849845D01*
X36727702Y-54849845D01*
G37*
D22*
X36535000Y-55875000D03*
D18*
G36*
X35457702Y-54849845D02*
G01*
X35474738Y-54852372D01*
X35491445Y-54856557D01*
X35507661Y-54862359D01*
X35523230Y-54869723D01*
X35538003Y-54878577D01*
X35551836Y-54888837D01*
X35564597Y-54900403D01*
X35576163Y-54913164D01*
X35586423Y-54926997D01*
X35595277Y-54941770D01*
X35602641Y-54957339D01*
X35608443Y-54973555D01*
X35612628Y-54990262D01*
X35615155Y-55007298D01*
X35616000Y-55024500D01*
X35616000Y-56725500D01*
X35615155Y-56742702D01*
X35612628Y-56759738D01*
X35608443Y-56776445D01*
X35602641Y-56792661D01*
X35595277Y-56808230D01*
X35586423Y-56823003D01*
X35576163Y-56836836D01*
X35564597Y-56849597D01*
X35551836Y-56861163D01*
X35538003Y-56871423D01*
X35523230Y-56880277D01*
X35507661Y-56887641D01*
X35491445Y-56893443D01*
X35474738Y-56897628D01*
X35457702Y-56900155D01*
X35440500Y-56901000D01*
X35089500Y-56901000D01*
X35072298Y-56900155D01*
X35055262Y-56897628D01*
X35038555Y-56893443D01*
X35022339Y-56887641D01*
X35006770Y-56880277D01*
X34991997Y-56871423D01*
X34978164Y-56861163D01*
X34965403Y-56849597D01*
X34953837Y-56836836D01*
X34943577Y-56823003D01*
X34934723Y-56808230D01*
X34927359Y-56792661D01*
X34921557Y-56776445D01*
X34917372Y-56759738D01*
X34914845Y-56742702D01*
X34914000Y-56725500D01*
X34914000Y-55024500D01*
X34914845Y-55007298D01*
X34917372Y-54990262D01*
X34921557Y-54973555D01*
X34927359Y-54957339D01*
X34934723Y-54941770D01*
X34943577Y-54926997D01*
X34953837Y-54913164D01*
X34965403Y-54900403D01*
X34978164Y-54888837D01*
X34991997Y-54878577D01*
X35006770Y-54869723D01*
X35022339Y-54862359D01*
X35038555Y-54856557D01*
X35055262Y-54852372D01*
X35072298Y-54849845D01*
X35089500Y-54849000D01*
X35440500Y-54849000D01*
X35457702Y-54849845D01*
X35457702Y-54849845D01*
G37*
D22*
X35265000Y-55875000D03*
D18*
G36*
X35457702Y-59799845D02*
G01*
X35474738Y-59802372D01*
X35491445Y-59806557D01*
X35507661Y-59812359D01*
X35523230Y-59819723D01*
X35538003Y-59828577D01*
X35551836Y-59838837D01*
X35564597Y-59850403D01*
X35576163Y-59863164D01*
X35586423Y-59876997D01*
X35595277Y-59891770D01*
X35602641Y-59907339D01*
X35608443Y-59923555D01*
X35612628Y-59940262D01*
X35615155Y-59957298D01*
X35616000Y-59974500D01*
X35616000Y-61675500D01*
X35615155Y-61692702D01*
X35612628Y-61709738D01*
X35608443Y-61726445D01*
X35602641Y-61742661D01*
X35595277Y-61758230D01*
X35586423Y-61773003D01*
X35576163Y-61786836D01*
X35564597Y-61799597D01*
X35551836Y-61811163D01*
X35538003Y-61821423D01*
X35523230Y-61830277D01*
X35507661Y-61837641D01*
X35491445Y-61843443D01*
X35474738Y-61847628D01*
X35457702Y-61850155D01*
X35440500Y-61851000D01*
X35089500Y-61851000D01*
X35072298Y-61850155D01*
X35055262Y-61847628D01*
X35038555Y-61843443D01*
X35022339Y-61837641D01*
X35006770Y-61830277D01*
X34991997Y-61821423D01*
X34978164Y-61811163D01*
X34965403Y-61799597D01*
X34953837Y-61786836D01*
X34943577Y-61773003D01*
X34934723Y-61758230D01*
X34927359Y-61742661D01*
X34921557Y-61726445D01*
X34917372Y-61709738D01*
X34914845Y-61692702D01*
X34914000Y-61675500D01*
X34914000Y-59974500D01*
X34914845Y-59957298D01*
X34917372Y-59940262D01*
X34921557Y-59923555D01*
X34927359Y-59907339D01*
X34934723Y-59891770D01*
X34943577Y-59876997D01*
X34953837Y-59863164D01*
X34965403Y-59850403D01*
X34978164Y-59838837D01*
X34991997Y-59828577D01*
X35006770Y-59819723D01*
X35022339Y-59812359D01*
X35038555Y-59806557D01*
X35055262Y-59802372D01*
X35072298Y-59799845D01*
X35089500Y-59799000D01*
X35440500Y-59799000D01*
X35457702Y-59799845D01*
X35457702Y-59799845D01*
G37*
D22*
X35265000Y-60825000D03*
D18*
G36*
X36727702Y-59799845D02*
G01*
X36744738Y-59802372D01*
X36761445Y-59806557D01*
X36777661Y-59812359D01*
X36793230Y-59819723D01*
X36808003Y-59828577D01*
X36821836Y-59838837D01*
X36834597Y-59850403D01*
X36846163Y-59863164D01*
X36856423Y-59876997D01*
X36865277Y-59891770D01*
X36872641Y-59907339D01*
X36878443Y-59923555D01*
X36882628Y-59940262D01*
X36885155Y-59957298D01*
X36886000Y-59974500D01*
X36886000Y-61675500D01*
X36885155Y-61692702D01*
X36882628Y-61709738D01*
X36878443Y-61726445D01*
X36872641Y-61742661D01*
X36865277Y-61758230D01*
X36856423Y-61773003D01*
X36846163Y-61786836D01*
X36834597Y-61799597D01*
X36821836Y-61811163D01*
X36808003Y-61821423D01*
X36793230Y-61830277D01*
X36777661Y-61837641D01*
X36761445Y-61843443D01*
X36744738Y-61847628D01*
X36727702Y-61850155D01*
X36710500Y-61851000D01*
X36359500Y-61851000D01*
X36342298Y-61850155D01*
X36325262Y-61847628D01*
X36308555Y-61843443D01*
X36292339Y-61837641D01*
X36276770Y-61830277D01*
X36261997Y-61821423D01*
X36248164Y-61811163D01*
X36235403Y-61799597D01*
X36223837Y-61786836D01*
X36213577Y-61773003D01*
X36204723Y-61758230D01*
X36197359Y-61742661D01*
X36191557Y-61726445D01*
X36187372Y-61709738D01*
X36184845Y-61692702D01*
X36184000Y-61675500D01*
X36184000Y-59974500D01*
X36184845Y-59957298D01*
X36187372Y-59940262D01*
X36191557Y-59923555D01*
X36197359Y-59907339D01*
X36204723Y-59891770D01*
X36213577Y-59876997D01*
X36223837Y-59863164D01*
X36235403Y-59850403D01*
X36248164Y-59838837D01*
X36261997Y-59828577D01*
X36276770Y-59819723D01*
X36292339Y-59812359D01*
X36308555Y-59806557D01*
X36325262Y-59802372D01*
X36342298Y-59799845D01*
X36359500Y-59799000D01*
X36710500Y-59799000D01*
X36727702Y-59799845D01*
X36727702Y-59799845D01*
G37*
D22*
X36535000Y-60825000D03*
D18*
G36*
X37997702Y-59799845D02*
G01*
X38014738Y-59802372D01*
X38031445Y-59806557D01*
X38047661Y-59812359D01*
X38063230Y-59819723D01*
X38078003Y-59828577D01*
X38091836Y-59838837D01*
X38104597Y-59850403D01*
X38116163Y-59863164D01*
X38126423Y-59876997D01*
X38135277Y-59891770D01*
X38142641Y-59907339D01*
X38148443Y-59923555D01*
X38152628Y-59940262D01*
X38155155Y-59957298D01*
X38156000Y-59974500D01*
X38156000Y-61675500D01*
X38155155Y-61692702D01*
X38152628Y-61709738D01*
X38148443Y-61726445D01*
X38142641Y-61742661D01*
X38135277Y-61758230D01*
X38126423Y-61773003D01*
X38116163Y-61786836D01*
X38104597Y-61799597D01*
X38091836Y-61811163D01*
X38078003Y-61821423D01*
X38063230Y-61830277D01*
X38047661Y-61837641D01*
X38031445Y-61843443D01*
X38014738Y-61847628D01*
X37997702Y-61850155D01*
X37980500Y-61851000D01*
X37629500Y-61851000D01*
X37612298Y-61850155D01*
X37595262Y-61847628D01*
X37578555Y-61843443D01*
X37562339Y-61837641D01*
X37546770Y-61830277D01*
X37531997Y-61821423D01*
X37518164Y-61811163D01*
X37505403Y-61799597D01*
X37493837Y-61786836D01*
X37483577Y-61773003D01*
X37474723Y-61758230D01*
X37467359Y-61742661D01*
X37461557Y-61726445D01*
X37457372Y-61709738D01*
X37454845Y-61692702D01*
X37454000Y-61675500D01*
X37454000Y-59974500D01*
X37454845Y-59957298D01*
X37457372Y-59940262D01*
X37461557Y-59923555D01*
X37467359Y-59907339D01*
X37474723Y-59891770D01*
X37483577Y-59876997D01*
X37493837Y-59863164D01*
X37505403Y-59850403D01*
X37518164Y-59838837D01*
X37531997Y-59828577D01*
X37546770Y-59819723D01*
X37562339Y-59812359D01*
X37578555Y-59806557D01*
X37595262Y-59802372D01*
X37612298Y-59799845D01*
X37629500Y-59799000D01*
X37980500Y-59799000D01*
X37997702Y-59799845D01*
X37997702Y-59799845D01*
G37*
D22*
X37805000Y-60825000D03*
D18*
G36*
X39267702Y-59799845D02*
G01*
X39284738Y-59802372D01*
X39301445Y-59806557D01*
X39317661Y-59812359D01*
X39333230Y-59819723D01*
X39348003Y-59828577D01*
X39361836Y-59838837D01*
X39374597Y-59850403D01*
X39386163Y-59863164D01*
X39396423Y-59876997D01*
X39405277Y-59891770D01*
X39412641Y-59907339D01*
X39418443Y-59923555D01*
X39422628Y-59940262D01*
X39425155Y-59957298D01*
X39426000Y-59974500D01*
X39426000Y-61675500D01*
X39425155Y-61692702D01*
X39422628Y-61709738D01*
X39418443Y-61726445D01*
X39412641Y-61742661D01*
X39405277Y-61758230D01*
X39396423Y-61773003D01*
X39386163Y-61786836D01*
X39374597Y-61799597D01*
X39361836Y-61811163D01*
X39348003Y-61821423D01*
X39333230Y-61830277D01*
X39317661Y-61837641D01*
X39301445Y-61843443D01*
X39284738Y-61847628D01*
X39267702Y-61850155D01*
X39250500Y-61851000D01*
X38899500Y-61851000D01*
X38882298Y-61850155D01*
X38865262Y-61847628D01*
X38848555Y-61843443D01*
X38832339Y-61837641D01*
X38816770Y-61830277D01*
X38801997Y-61821423D01*
X38788164Y-61811163D01*
X38775403Y-61799597D01*
X38763837Y-61786836D01*
X38753577Y-61773003D01*
X38744723Y-61758230D01*
X38737359Y-61742661D01*
X38731557Y-61726445D01*
X38727372Y-61709738D01*
X38724845Y-61692702D01*
X38724000Y-61675500D01*
X38724000Y-59974500D01*
X38724845Y-59957298D01*
X38727372Y-59940262D01*
X38731557Y-59923555D01*
X38737359Y-59907339D01*
X38744723Y-59891770D01*
X38753577Y-59876997D01*
X38763837Y-59863164D01*
X38775403Y-59850403D01*
X38788164Y-59838837D01*
X38801997Y-59828577D01*
X38816770Y-59819723D01*
X38832339Y-59812359D01*
X38848555Y-59806557D01*
X38865262Y-59802372D01*
X38882298Y-59799845D01*
X38899500Y-59799000D01*
X39250500Y-59799000D01*
X39267702Y-59799845D01*
X39267702Y-59799845D01*
G37*
D22*
X39075000Y-60825000D03*
D18*
G36*
X40537702Y-59799845D02*
G01*
X40554738Y-59802372D01*
X40571445Y-59806557D01*
X40587661Y-59812359D01*
X40603230Y-59819723D01*
X40618003Y-59828577D01*
X40631836Y-59838837D01*
X40644597Y-59850403D01*
X40656163Y-59863164D01*
X40666423Y-59876997D01*
X40675277Y-59891770D01*
X40682641Y-59907339D01*
X40688443Y-59923555D01*
X40692628Y-59940262D01*
X40695155Y-59957298D01*
X40696000Y-59974500D01*
X40696000Y-61675500D01*
X40695155Y-61692702D01*
X40692628Y-61709738D01*
X40688443Y-61726445D01*
X40682641Y-61742661D01*
X40675277Y-61758230D01*
X40666423Y-61773003D01*
X40656163Y-61786836D01*
X40644597Y-61799597D01*
X40631836Y-61811163D01*
X40618003Y-61821423D01*
X40603230Y-61830277D01*
X40587661Y-61837641D01*
X40571445Y-61843443D01*
X40554738Y-61847628D01*
X40537702Y-61850155D01*
X40520500Y-61851000D01*
X40169500Y-61851000D01*
X40152298Y-61850155D01*
X40135262Y-61847628D01*
X40118555Y-61843443D01*
X40102339Y-61837641D01*
X40086770Y-61830277D01*
X40071997Y-61821423D01*
X40058164Y-61811163D01*
X40045403Y-61799597D01*
X40033837Y-61786836D01*
X40023577Y-61773003D01*
X40014723Y-61758230D01*
X40007359Y-61742661D01*
X40001557Y-61726445D01*
X39997372Y-61709738D01*
X39994845Y-61692702D01*
X39994000Y-61675500D01*
X39994000Y-59974500D01*
X39994845Y-59957298D01*
X39997372Y-59940262D01*
X40001557Y-59923555D01*
X40007359Y-59907339D01*
X40014723Y-59891770D01*
X40023577Y-59876997D01*
X40033837Y-59863164D01*
X40045403Y-59850403D01*
X40058164Y-59838837D01*
X40071997Y-59828577D01*
X40086770Y-59819723D01*
X40102339Y-59812359D01*
X40118555Y-59806557D01*
X40135262Y-59802372D01*
X40152298Y-59799845D01*
X40169500Y-59799000D01*
X40520500Y-59799000D01*
X40537702Y-59799845D01*
X40537702Y-59799845D01*
G37*
D22*
X40345000Y-60825000D03*
D18*
G36*
X41807702Y-59799845D02*
G01*
X41824738Y-59802372D01*
X41841445Y-59806557D01*
X41857661Y-59812359D01*
X41873230Y-59819723D01*
X41888003Y-59828577D01*
X41901836Y-59838837D01*
X41914597Y-59850403D01*
X41926163Y-59863164D01*
X41936423Y-59876997D01*
X41945277Y-59891770D01*
X41952641Y-59907339D01*
X41958443Y-59923555D01*
X41962628Y-59940262D01*
X41965155Y-59957298D01*
X41966000Y-59974500D01*
X41966000Y-61675500D01*
X41965155Y-61692702D01*
X41962628Y-61709738D01*
X41958443Y-61726445D01*
X41952641Y-61742661D01*
X41945277Y-61758230D01*
X41936423Y-61773003D01*
X41926163Y-61786836D01*
X41914597Y-61799597D01*
X41901836Y-61811163D01*
X41888003Y-61821423D01*
X41873230Y-61830277D01*
X41857661Y-61837641D01*
X41841445Y-61843443D01*
X41824738Y-61847628D01*
X41807702Y-61850155D01*
X41790500Y-61851000D01*
X41439500Y-61851000D01*
X41422298Y-61850155D01*
X41405262Y-61847628D01*
X41388555Y-61843443D01*
X41372339Y-61837641D01*
X41356770Y-61830277D01*
X41341997Y-61821423D01*
X41328164Y-61811163D01*
X41315403Y-61799597D01*
X41303837Y-61786836D01*
X41293577Y-61773003D01*
X41284723Y-61758230D01*
X41277359Y-61742661D01*
X41271557Y-61726445D01*
X41267372Y-61709738D01*
X41264845Y-61692702D01*
X41264000Y-61675500D01*
X41264000Y-59974500D01*
X41264845Y-59957298D01*
X41267372Y-59940262D01*
X41271557Y-59923555D01*
X41277359Y-59907339D01*
X41284723Y-59891770D01*
X41293577Y-59876997D01*
X41303837Y-59863164D01*
X41315403Y-59850403D01*
X41328164Y-59838837D01*
X41341997Y-59828577D01*
X41356770Y-59819723D01*
X41372339Y-59812359D01*
X41388555Y-59806557D01*
X41405262Y-59802372D01*
X41422298Y-59799845D01*
X41439500Y-59799000D01*
X41790500Y-59799000D01*
X41807702Y-59799845D01*
X41807702Y-59799845D01*
G37*
D22*
X41615000Y-60825000D03*
D18*
G36*
X43077702Y-59799845D02*
G01*
X43094738Y-59802372D01*
X43111445Y-59806557D01*
X43127661Y-59812359D01*
X43143230Y-59819723D01*
X43158003Y-59828577D01*
X43171836Y-59838837D01*
X43184597Y-59850403D01*
X43196163Y-59863164D01*
X43206423Y-59876997D01*
X43215277Y-59891770D01*
X43222641Y-59907339D01*
X43228443Y-59923555D01*
X43232628Y-59940262D01*
X43235155Y-59957298D01*
X43236000Y-59974500D01*
X43236000Y-61675500D01*
X43235155Y-61692702D01*
X43232628Y-61709738D01*
X43228443Y-61726445D01*
X43222641Y-61742661D01*
X43215277Y-61758230D01*
X43206423Y-61773003D01*
X43196163Y-61786836D01*
X43184597Y-61799597D01*
X43171836Y-61811163D01*
X43158003Y-61821423D01*
X43143230Y-61830277D01*
X43127661Y-61837641D01*
X43111445Y-61843443D01*
X43094738Y-61847628D01*
X43077702Y-61850155D01*
X43060500Y-61851000D01*
X42709500Y-61851000D01*
X42692298Y-61850155D01*
X42675262Y-61847628D01*
X42658555Y-61843443D01*
X42642339Y-61837641D01*
X42626770Y-61830277D01*
X42611997Y-61821423D01*
X42598164Y-61811163D01*
X42585403Y-61799597D01*
X42573837Y-61786836D01*
X42563577Y-61773003D01*
X42554723Y-61758230D01*
X42547359Y-61742661D01*
X42541557Y-61726445D01*
X42537372Y-61709738D01*
X42534845Y-61692702D01*
X42534000Y-61675500D01*
X42534000Y-59974500D01*
X42534845Y-59957298D01*
X42537372Y-59940262D01*
X42541557Y-59923555D01*
X42547359Y-59907339D01*
X42554723Y-59891770D01*
X42563577Y-59876997D01*
X42573837Y-59863164D01*
X42585403Y-59850403D01*
X42598164Y-59838837D01*
X42611997Y-59828577D01*
X42626770Y-59819723D01*
X42642339Y-59812359D01*
X42658555Y-59806557D01*
X42675262Y-59802372D01*
X42692298Y-59799845D01*
X42709500Y-59799000D01*
X43060500Y-59799000D01*
X43077702Y-59799845D01*
X43077702Y-59799845D01*
G37*
D22*
X42885000Y-60825000D03*
D18*
G36*
X44347702Y-59799845D02*
G01*
X44364738Y-59802372D01*
X44381445Y-59806557D01*
X44397661Y-59812359D01*
X44413230Y-59819723D01*
X44428003Y-59828577D01*
X44441836Y-59838837D01*
X44454597Y-59850403D01*
X44466163Y-59863164D01*
X44476423Y-59876997D01*
X44485277Y-59891770D01*
X44492641Y-59907339D01*
X44498443Y-59923555D01*
X44502628Y-59940262D01*
X44505155Y-59957298D01*
X44506000Y-59974500D01*
X44506000Y-61675500D01*
X44505155Y-61692702D01*
X44502628Y-61709738D01*
X44498443Y-61726445D01*
X44492641Y-61742661D01*
X44485277Y-61758230D01*
X44476423Y-61773003D01*
X44466163Y-61786836D01*
X44454597Y-61799597D01*
X44441836Y-61811163D01*
X44428003Y-61821423D01*
X44413230Y-61830277D01*
X44397661Y-61837641D01*
X44381445Y-61843443D01*
X44364738Y-61847628D01*
X44347702Y-61850155D01*
X44330500Y-61851000D01*
X43979500Y-61851000D01*
X43962298Y-61850155D01*
X43945262Y-61847628D01*
X43928555Y-61843443D01*
X43912339Y-61837641D01*
X43896770Y-61830277D01*
X43881997Y-61821423D01*
X43868164Y-61811163D01*
X43855403Y-61799597D01*
X43843837Y-61786836D01*
X43833577Y-61773003D01*
X43824723Y-61758230D01*
X43817359Y-61742661D01*
X43811557Y-61726445D01*
X43807372Y-61709738D01*
X43804845Y-61692702D01*
X43804000Y-61675500D01*
X43804000Y-59974500D01*
X43804845Y-59957298D01*
X43807372Y-59940262D01*
X43811557Y-59923555D01*
X43817359Y-59907339D01*
X43824723Y-59891770D01*
X43833577Y-59876997D01*
X43843837Y-59863164D01*
X43855403Y-59850403D01*
X43868164Y-59838837D01*
X43881997Y-59828577D01*
X43896770Y-59819723D01*
X43912339Y-59812359D01*
X43928555Y-59806557D01*
X43945262Y-59802372D01*
X43962298Y-59799845D01*
X43979500Y-59799000D01*
X44330500Y-59799000D01*
X44347702Y-59799845D01*
X44347702Y-59799845D01*
G37*
D22*
X44155000Y-60825000D03*
D18*
G36*
X22611338Y-72940306D02*
G01*
X22637669Y-72944212D01*
X22663490Y-72950680D01*
X22688553Y-72959648D01*
X22712617Y-72971029D01*
X22735449Y-72984714D01*
X22756830Y-73000571D01*
X22776553Y-73018447D01*
X22794429Y-73038170D01*
X22810286Y-73059551D01*
X22823971Y-73082383D01*
X22835352Y-73106447D01*
X22844320Y-73131510D01*
X22850788Y-73157331D01*
X22854694Y-73183662D01*
X22856000Y-73210249D01*
X22856000Y-73969751D01*
X22854694Y-73996338D01*
X22850788Y-74022669D01*
X22844320Y-74048490D01*
X22835352Y-74073553D01*
X22823971Y-74097617D01*
X22810286Y-74120449D01*
X22794429Y-74141830D01*
X22776553Y-74161553D01*
X22756830Y-74179429D01*
X22735449Y-74195286D01*
X22712617Y-74208971D01*
X22688553Y-74220352D01*
X22663490Y-74229320D01*
X22637669Y-74235788D01*
X22611338Y-74239694D01*
X22584751Y-74241000D01*
X21275249Y-74241000D01*
X21248662Y-74239694D01*
X21222331Y-74235788D01*
X21196510Y-74229320D01*
X21171447Y-74220352D01*
X21147383Y-74208971D01*
X21124551Y-74195286D01*
X21103170Y-74179429D01*
X21083447Y-74161553D01*
X21065571Y-74141830D01*
X21049714Y-74120449D01*
X21036029Y-74097617D01*
X21024648Y-74073553D01*
X21015680Y-74048490D01*
X21009212Y-74022669D01*
X21005306Y-73996338D01*
X21004000Y-73969751D01*
X21004000Y-73210249D01*
X21005306Y-73183662D01*
X21009212Y-73157331D01*
X21015680Y-73131510D01*
X21024648Y-73106447D01*
X21036029Y-73082383D01*
X21049714Y-73059551D01*
X21065571Y-73038170D01*
X21083447Y-73018447D01*
X21103170Y-73000571D01*
X21124551Y-72984714D01*
X21147383Y-72971029D01*
X21171447Y-72959648D01*
X21196510Y-72950680D01*
X21222331Y-72944212D01*
X21248662Y-72940306D01*
X21275249Y-72939000D01*
X22584751Y-72939000D01*
X22611338Y-72940306D01*
X22611338Y-72940306D01*
G37*
D23*
X21930000Y-73590000D03*
D24*
X21930000Y-71590000D03*
X21930000Y-69590000D03*
D18*
G36*
X28961338Y-72940306D02*
G01*
X28987669Y-72944212D01*
X29013490Y-72950680D01*
X29038553Y-72959648D01*
X29062617Y-72971029D01*
X29085449Y-72984714D01*
X29106830Y-73000571D01*
X29126553Y-73018447D01*
X29144429Y-73038170D01*
X29160286Y-73059551D01*
X29173971Y-73082383D01*
X29185352Y-73106447D01*
X29194320Y-73131510D01*
X29200788Y-73157331D01*
X29204694Y-73183662D01*
X29206000Y-73210249D01*
X29206000Y-73969751D01*
X29204694Y-73996338D01*
X29200788Y-74022669D01*
X29194320Y-74048490D01*
X29185352Y-74073553D01*
X29173971Y-74097617D01*
X29160286Y-74120449D01*
X29144429Y-74141830D01*
X29126553Y-74161553D01*
X29106830Y-74179429D01*
X29085449Y-74195286D01*
X29062617Y-74208971D01*
X29038553Y-74220352D01*
X29013490Y-74229320D01*
X28987669Y-74235788D01*
X28961338Y-74239694D01*
X28934751Y-74241000D01*
X27625249Y-74241000D01*
X27598662Y-74239694D01*
X27572331Y-74235788D01*
X27546510Y-74229320D01*
X27521447Y-74220352D01*
X27497383Y-74208971D01*
X27474551Y-74195286D01*
X27453170Y-74179429D01*
X27433447Y-74161553D01*
X27415571Y-74141830D01*
X27399714Y-74120449D01*
X27386029Y-74097617D01*
X27374648Y-74073553D01*
X27365680Y-74048490D01*
X27359212Y-74022669D01*
X27355306Y-73996338D01*
X27354000Y-73969751D01*
X27354000Y-73210249D01*
X27355306Y-73183662D01*
X27359212Y-73157331D01*
X27365680Y-73131510D01*
X27374648Y-73106447D01*
X27386029Y-73082383D01*
X27399714Y-73059551D01*
X27415571Y-73038170D01*
X27433447Y-73018447D01*
X27453170Y-73000571D01*
X27474551Y-72984714D01*
X27497383Y-72971029D01*
X27521447Y-72959648D01*
X27546510Y-72950680D01*
X27572331Y-72944212D01*
X27598662Y-72940306D01*
X27625249Y-72939000D01*
X28934751Y-72939000D01*
X28961338Y-72940306D01*
X28961338Y-72940306D01*
G37*
D23*
X28280000Y-73590000D03*
D24*
X28280000Y-71590000D03*
X28280000Y-69590000D03*
D18*
G36*
X35311338Y-72940306D02*
G01*
X35337669Y-72944212D01*
X35363490Y-72950680D01*
X35388553Y-72959648D01*
X35412617Y-72971029D01*
X35435449Y-72984714D01*
X35456830Y-73000571D01*
X35476553Y-73018447D01*
X35494429Y-73038170D01*
X35510286Y-73059551D01*
X35523971Y-73082383D01*
X35535352Y-73106447D01*
X35544320Y-73131510D01*
X35550788Y-73157331D01*
X35554694Y-73183662D01*
X35556000Y-73210249D01*
X35556000Y-73969751D01*
X35554694Y-73996338D01*
X35550788Y-74022669D01*
X35544320Y-74048490D01*
X35535352Y-74073553D01*
X35523971Y-74097617D01*
X35510286Y-74120449D01*
X35494429Y-74141830D01*
X35476553Y-74161553D01*
X35456830Y-74179429D01*
X35435449Y-74195286D01*
X35412617Y-74208971D01*
X35388553Y-74220352D01*
X35363490Y-74229320D01*
X35337669Y-74235788D01*
X35311338Y-74239694D01*
X35284751Y-74241000D01*
X33975249Y-74241000D01*
X33948662Y-74239694D01*
X33922331Y-74235788D01*
X33896510Y-74229320D01*
X33871447Y-74220352D01*
X33847383Y-74208971D01*
X33824551Y-74195286D01*
X33803170Y-74179429D01*
X33783447Y-74161553D01*
X33765571Y-74141830D01*
X33749714Y-74120449D01*
X33736029Y-74097617D01*
X33724648Y-74073553D01*
X33715680Y-74048490D01*
X33709212Y-74022669D01*
X33705306Y-73996338D01*
X33704000Y-73969751D01*
X33704000Y-73210249D01*
X33705306Y-73183662D01*
X33709212Y-73157331D01*
X33715680Y-73131510D01*
X33724648Y-73106447D01*
X33736029Y-73082383D01*
X33749714Y-73059551D01*
X33765571Y-73038170D01*
X33783447Y-73018447D01*
X33803170Y-73000571D01*
X33824551Y-72984714D01*
X33847383Y-72971029D01*
X33871447Y-72959648D01*
X33896510Y-72950680D01*
X33922331Y-72944212D01*
X33948662Y-72940306D01*
X33975249Y-72939000D01*
X35284751Y-72939000D01*
X35311338Y-72940306D01*
X35311338Y-72940306D01*
G37*
D23*
X34630000Y-73590000D03*
D24*
X34630000Y-71590000D03*
X34630000Y-69590000D03*
D25*
X8880000Y-13900000D03*
X6880000Y-13900000D03*
D18*
G36*
X5286338Y-12975306D02*
G01*
X5312669Y-12979212D01*
X5338490Y-12985680D01*
X5363553Y-12994648D01*
X5387617Y-13006029D01*
X5410449Y-13019714D01*
X5431830Y-13035571D01*
X5451553Y-13053447D01*
X5469429Y-13073170D01*
X5485286Y-13094551D01*
X5498971Y-13117383D01*
X5510352Y-13141447D01*
X5519320Y-13166510D01*
X5525788Y-13192331D01*
X5529694Y-13218662D01*
X5531000Y-13245249D01*
X5531000Y-14554751D01*
X5529694Y-14581338D01*
X5525788Y-14607669D01*
X5519320Y-14633490D01*
X5510352Y-14658553D01*
X5498971Y-14682617D01*
X5485286Y-14705449D01*
X5469429Y-14726830D01*
X5451553Y-14746553D01*
X5431830Y-14764429D01*
X5410449Y-14780286D01*
X5387617Y-14793971D01*
X5363553Y-14805352D01*
X5338490Y-14814320D01*
X5312669Y-14820788D01*
X5286338Y-14824694D01*
X5259751Y-14826000D01*
X4500249Y-14826000D01*
X4473662Y-14824694D01*
X4447331Y-14820788D01*
X4421510Y-14814320D01*
X4396447Y-14805352D01*
X4372383Y-14793971D01*
X4349551Y-14780286D01*
X4328170Y-14764429D01*
X4308447Y-14746553D01*
X4290571Y-14726830D01*
X4274714Y-14705449D01*
X4261029Y-14682617D01*
X4249648Y-14658553D01*
X4240680Y-14633490D01*
X4234212Y-14607669D01*
X4230306Y-14581338D01*
X4229000Y-14554751D01*
X4229000Y-13245249D01*
X4230306Y-13218662D01*
X4234212Y-13192331D01*
X4240680Y-13166510D01*
X4249648Y-13141447D01*
X4261029Y-13117383D01*
X4274714Y-13094551D01*
X4290571Y-13073170D01*
X4308447Y-13053447D01*
X4328170Y-13035571D01*
X4349551Y-13019714D01*
X4372383Y-13006029D01*
X4396447Y-12994648D01*
X4421510Y-12985680D01*
X4447331Y-12979212D01*
X4473662Y-12975306D01*
X4500249Y-12974000D01*
X5259751Y-12974000D01*
X5286338Y-12975306D01*
X5286338Y-12975306D01*
G37*
D23*
X4880000Y-13900000D03*
D18*
G36*
X10786975Y-64600276D02*
G01*
X10812699Y-64604092D01*
X10837925Y-64610411D01*
X10862411Y-64619172D01*
X10885920Y-64630291D01*
X10908226Y-64643661D01*
X10929114Y-64659152D01*
X10948383Y-64676617D01*
X10965848Y-64695886D01*
X10981339Y-64716774D01*
X10994709Y-64739080D01*
X11005828Y-64762589D01*
X11014589Y-64787075D01*
X11020908Y-64812301D01*
X11024724Y-64838025D01*
X11026000Y-64864000D01*
X11026000Y-66136000D01*
X11024724Y-66161975D01*
X11020908Y-66187699D01*
X11014589Y-66212925D01*
X11005828Y-66237411D01*
X10994709Y-66260920D01*
X10981339Y-66283226D01*
X10965848Y-66304114D01*
X10948383Y-66323383D01*
X10929114Y-66340848D01*
X10908226Y-66356339D01*
X10885920Y-66369709D01*
X10862411Y-66380828D01*
X10837925Y-66389589D01*
X10812699Y-66395908D01*
X10786975Y-66399724D01*
X10761000Y-66401000D01*
X9239000Y-66401000D01*
X9213025Y-66399724D01*
X9187301Y-66395908D01*
X9162075Y-66389589D01*
X9137589Y-66380828D01*
X9114080Y-66369709D01*
X9091774Y-66356339D01*
X9070886Y-66340848D01*
X9051617Y-66323383D01*
X9034152Y-66304114D01*
X9018661Y-66283226D01*
X9005291Y-66260920D01*
X8994172Y-66237411D01*
X8985411Y-66212925D01*
X8979092Y-66187699D01*
X8975276Y-66161975D01*
X8974000Y-66136000D01*
X8974000Y-64864000D01*
X8975276Y-64838025D01*
X8979092Y-64812301D01*
X8985411Y-64787075D01*
X8994172Y-64762589D01*
X9005291Y-64739080D01*
X9018661Y-64716774D01*
X9034152Y-64695886D01*
X9051617Y-64676617D01*
X9070886Y-64659152D01*
X9091774Y-64643661D01*
X9114080Y-64630291D01*
X9137589Y-64619172D01*
X9162075Y-64610411D01*
X9187301Y-64604092D01*
X9213025Y-64600276D01*
X9239000Y-64599000D01*
X10761000Y-64599000D01*
X10786975Y-64600276D01*
X10786975Y-64600276D01*
G37*
D26*
X10000000Y-65500000D03*
D27*
X10000000Y-68000000D03*
X10000000Y-70500000D03*
X10000000Y-73000000D03*
D24*
X40980000Y-69590000D03*
X40980000Y-71590000D03*
D18*
G36*
X41661338Y-72940306D02*
G01*
X41687669Y-72944212D01*
X41713490Y-72950680D01*
X41738553Y-72959648D01*
X41762617Y-72971029D01*
X41785449Y-72984714D01*
X41806830Y-73000571D01*
X41826553Y-73018447D01*
X41844429Y-73038170D01*
X41860286Y-73059551D01*
X41873971Y-73082383D01*
X41885352Y-73106447D01*
X41894320Y-73131510D01*
X41900788Y-73157331D01*
X41904694Y-73183662D01*
X41906000Y-73210249D01*
X41906000Y-73969751D01*
X41904694Y-73996338D01*
X41900788Y-74022669D01*
X41894320Y-74048490D01*
X41885352Y-74073553D01*
X41873971Y-74097617D01*
X41860286Y-74120449D01*
X41844429Y-74141830D01*
X41826553Y-74161553D01*
X41806830Y-74179429D01*
X41785449Y-74195286D01*
X41762617Y-74208971D01*
X41738553Y-74220352D01*
X41713490Y-74229320D01*
X41687669Y-74235788D01*
X41661338Y-74239694D01*
X41634751Y-74241000D01*
X40325249Y-74241000D01*
X40298662Y-74239694D01*
X40272331Y-74235788D01*
X40246510Y-74229320D01*
X40221447Y-74220352D01*
X40197383Y-74208971D01*
X40174551Y-74195286D01*
X40153170Y-74179429D01*
X40133447Y-74161553D01*
X40115571Y-74141830D01*
X40099714Y-74120449D01*
X40086029Y-74097617D01*
X40074648Y-74073553D01*
X40065680Y-74048490D01*
X40059212Y-74022669D01*
X40055306Y-73996338D01*
X40054000Y-73969751D01*
X40054000Y-73210249D01*
X40055306Y-73183662D01*
X40059212Y-73157331D01*
X40065680Y-73131510D01*
X40074648Y-73106447D01*
X40086029Y-73082383D01*
X40099714Y-73059551D01*
X40115571Y-73038170D01*
X40133447Y-73018447D01*
X40153170Y-73000571D01*
X40174551Y-72984714D01*
X40197383Y-72971029D01*
X40221447Y-72959648D01*
X40246510Y-72950680D01*
X40272331Y-72944212D01*
X40298662Y-72940306D01*
X40325249Y-72939000D01*
X41634751Y-72939000D01*
X41661338Y-72940306D01*
X41661338Y-72940306D01*
G37*
D23*
X40980000Y-73590000D03*
D18*
G36*
X5286338Y-19325306D02*
G01*
X5312669Y-19329212D01*
X5338490Y-19335680D01*
X5363553Y-19344648D01*
X5387617Y-19356029D01*
X5410449Y-19369714D01*
X5431830Y-19385571D01*
X5451553Y-19403447D01*
X5469429Y-19423170D01*
X5485286Y-19444551D01*
X5498971Y-19467383D01*
X5510352Y-19491447D01*
X5519320Y-19516510D01*
X5525788Y-19542331D01*
X5529694Y-19568662D01*
X5531000Y-19595249D01*
X5531000Y-20904751D01*
X5529694Y-20931338D01*
X5525788Y-20957669D01*
X5519320Y-20983490D01*
X5510352Y-21008553D01*
X5498971Y-21032617D01*
X5485286Y-21055449D01*
X5469429Y-21076830D01*
X5451553Y-21096553D01*
X5431830Y-21114429D01*
X5410449Y-21130286D01*
X5387617Y-21143971D01*
X5363553Y-21155352D01*
X5338490Y-21164320D01*
X5312669Y-21170788D01*
X5286338Y-21174694D01*
X5259751Y-21176000D01*
X4500249Y-21176000D01*
X4473662Y-21174694D01*
X4447331Y-21170788D01*
X4421510Y-21164320D01*
X4396447Y-21155352D01*
X4372383Y-21143971D01*
X4349551Y-21130286D01*
X4328170Y-21114429D01*
X4308447Y-21096553D01*
X4290571Y-21076830D01*
X4274714Y-21055449D01*
X4261029Y-21032617D01*
X4249648Y-21008553D01*
X4240680Y-20983490D01*
X4234212Y-20957669D01*
X4230306Y-20931338D01*
X4229000Y-20904751D01*
X4229000Y-19595249D01*
X4230306Y-19568662D01*
X4234212Y-19542331D01*
X4240680Y-19516510D01*
X4249648Y-19491447D01*
X4261029Y-19467383D01*
X4274714Y-19444551D01*
X4290571Y-19423170D01*
X4308447Y-19403447D01*
X4328170Y-19385571D01*
X4349551Y-19369714D01*
X4372383Y-19356029D01*
X4396447Y-19344648D01*
X4421510Y-19335680D01*
X4447331Y-19329212D01*
X4473662Y-19325306D01*
X4500249Y-19324000D01*
X5259751Y-19324000D01*
X5286338Y-19325306D01*
X5286338Y-19325306D01*
G37*
D23*
X4880000Y-20250000D03*
D25*
X6880000Y-20250000D03*
X8880000Y-20250000D03*
X8880000Y-26600000D03*
X6880000Y-26600000D03*
D18*
G36*
X5286338Y-25675306D02*
G01*
X5312669Y-25679212D01*
X5338490Y-25685680D01*
X5363553Y-25694648D01*
X5387617Y-25706029D01*
X5410449Y-25719714D01*
X5431830Y-25735571D01*
X5451553Y-25753447D01*
X5469429Y-25773170D01*
X5485286Y-25794551D01*
X5498971Y-25817383D01*
X5510352Y-25841447D01*
X5519320Y-25866510D01*
X5525788Y-25892331D01*
X5529694Y-25918662D01*
X5531000Y-25945249D01*
X5531000Y-27254751D01*
X5529694Y-27281338D01*
X5525788Y-27307669D01*
X5519320Y-27333490D01*
X5510352Y-27358553D01*
X5498971Y-27382617D01*
X5485286Y-27405449D01*
X5469429Y-27426830D01*
X5451553Y-27446553D01*
X5431830Y-27464429D01*
X5410449Y-27480286D01*
X5387617Y-27493971D01*
X5363553Y-27505352D01*
X5338490Y-27514320D01*
X5312669Y-27520788D01*
X5286338Y-27524694D01*
X5259751Y-27526000D01*
X4500249Y-27526000D01*
X4473662Y-27524694D01*
X4447331Y-27520788D01*
X4421510Y-27514320D01*
X4396447Y-27505352D01*
X4372383Y-27493971D01*
X4349551Y-27480286D01*
X4328170Y-27464429D01*
X4308447Y-27446553D01*
X4290571Y-27426830D01*
X4274714Y-27405449D01*
X4261029Y-27382617D01*
X4249648Y-27358553D01*
X4240680Y-27333490D01*
X4234212Y-27307669D01*
X4230306Y-27281338D01*
X4229000Y-27254751D01*
X4229000Y-25945249D01*
X4230306Y-25918662D01*
X4234212Y-25892331D01*
X4240680Y-25866510D01*
X4249648Y-25841447D01*
X4261029Y-25817383D01*
X4274714Y-25794551D01*
X4290571Y-25773170D01*
X4308447Y-25753447D01*
X4328170Y-25735571D01*
X4349551Y-25719714D01*
X4372383Y-25706029D01*
X4396447Y-25694648D01*
X4421510Y-25685680D01*
X4447331Y-25679212D01*
X4473662Y-25675306D01*
X4500249Y-25674000D01*
X5259751Y-25674000D01*
X5286338Y-25675306D01*
X5286338Y-25675306D01*
G37*
D23*
X4880000Y-26600000D03*
D18*
G36*
X48011338Y-72940306D02*
G01*
X48037669Y-72944212D01*
X48063490Y-72950680D01*
X48088553Y-72959648D01*
X48112617Y-72971029D01*
X48135449Y-72984714D01*
X48156830Y-73000571D01*
X48176553Y-73018447D01*
X48194429Y-73038170D01*
X48210286Y-73059551D01*
X48223971Y-73082383D01*
X48235352Y-73106447D01*
X48244320Y-73131510D01*
X48250788Y-73157331D01*
X48254694Y-73183662D01*
X48256000Y-73210249D01*
X48256000Y-73969751D01*
X48254694Y-73996338D01*
X48250788Y-74022669D01*
X48244320Y-74048490D01*
X48235352Y-74073553D01*
X48223971Y-74097617D01*
X48210286Y-74120449D01*
X48194429Y-74141830D01*
X48176553Y-74161553D01*
X48156830Y-74179429D01*
X48135449Y-74195286D01*
X48112617Y-74208971D01*
X48088553Y-74220352D01*
X48063490Y-74229320D01*
X48037669Y-74235788D01*
X48011338Y-74239694D01*
X47984751Y-74241000D01*
X46675249Y-74241000D01*
X46648662Y-74239694D01*
X46622331Y-74235788D01*
X46596510Y-74229320D01*
X46571447Y-74220352D01*
X46547383Y-74208971D01*
X46524551Y-74195286D01*
X46503170Y-74179429D01*
X46483447Y-74161553D01*
X46465571Y-74141830D01*
X46449714Y-74120449D01*
X46436029Y-74097617D01*
X46424648Y-74073553D01*
X46415680Y-74048490D01*
X46409212Y-74022669D01*
X46405306Y-73996338D01*
X46404000Y-73969751D01*
X46404000Y-73210249D01*
X46405306Y-73183662D01*
X46409212Y-73157331D01*
X46415680Y-73131510D01*
X46424648Y-73106447D01*
X46436029Y-73082383D01*
X46449714Y-73059551D01*
X46465571Y-73038170D01*
X46483447Y-73018447D01*
X46503170Y-73000571D01*
X46524551Y-72984714D01*
X46547383Y-72971029D01*
X46571447Y-72959648D01*
X46596510Y-72950680D01*
X46622331Y-72944212D01*
X46648662Y-72940306D01*
X46675249Y-72939000D01*
X47984751Y-72939000D01*
X48011338Y-72940306D01*
X48011338Y-72940306D01*
G37*
D23*
X47330000Y-73590000D03*
D24*
X47330000Y-71590000D03*
X47330000Y-69590000D03*
D25*
X8880000Y-32950000D03*
X6880000Y-32950000D03*
D18*
G36*
X5286338Y-32025306D02*
G01*
X5312669Y-32029212D01*
X5338490Y-32035680D01*
X5363553Y-32044648D01*
X5387617Y-32056029D01*
X5410449Y-32069714D01*
X5431830Y-32085571D01*
X5451553Y-32103447D01*
X5469429Y-32123170D01*
X5485286Y-32144551D01*
X5498971Y-32167383D01*
X5510352Y-32191447D01*
X5519320Y-32216510D01*
X5525788Y-32242331D01*
X5529694Y-32268662D01*
X5531000Y-32295249D01*
X5531000Y-33604751D01*
X5529694Y-33631338D01*
X5525788Y-33657669D01*
X5519320Y-33683490D01*
X5510352Y-33708553D01*
X5498971Y-33732617D01*
X5485286Y-33755449D01*
X5469429Y-33776830D01*
X5451553Y-33796553D01*
X5431830Y-33814429D01*
X5410449Y-33830286D01*
X5387617Y-33843971D01*
X5363553Y-33855352D01*
X5338490Y-33864320D01*
X5312669Y-33870788D01*
X5286338Y-33874694D01*
X5259751Y-33876000D01*
X4500249Y-33876000D01*
X4473662Y-33874694D01*
X4447331Y-33870788D01*
X4421510Y-33864320D01*
X4396447Y-33855352D01*
X4372383Y-33843971D01*
X4349551Y-33830286D01*
X4328170Y-33814429D01*
X4308447Y-33796553D01*
X4290571Y-33776830D01*
X4274714Y-33755449D01*
X4261029Y-33732617D01*
X4249648Y-33708553D01*
X4240680Y-33683490D01*
X4234212Y-33657669D01*
X4230306Y-33631338D01*
X4229000Y-33604751D01*
X4229000Y-32295249D01*
X4230306Y-32268662D01*
X4234212Y-32242331D01*
X4240680Y-32216510D01*
X4249648Y-32191447D01*
X4261029Y-32167383D01*
X4274714Y-32144551D01*
X4290571Y-32123170D01*
X4308447Y-32103447D01*
X4328170Y-32085571D01*
X4349551Y-32069714D01*
X4372383Y-32056029D01*
X4396447Y-32044648D01*
X4421510Y-32035680D01*
X4447331Y-32029212D01*
X4473662Y-32025306D01*
X4500249Y-32024000D01*
X5259751Y-32024000D01*
X5286338Y-32025306D01*
X5286338Y-32025306D01*
G37*
D23*
X4880000Y-32950000D03*
D24*
X53680000Y-69590000D03*
X53680000Y-71590000D03*
D18*
G36*
X54361338Y-72940306D02*
G01*
X54387669Y-72944212D01*
X54413490Y-72950680D01*
X54438553Y-72959648D01*
X54462617Y-72971029D01*
X54485449Y-72984714D01*
X54506830Y-73000571D01*
X54526553Y-73018447D01*
X54544429Y-73038170D01*
X54560286Y-73059551D01*
X54573971Y-73082383D01*
X54585352Y-73106447D01*
X54594320Y-73131510D01*
X54600788Y-73157331D01*
X54604694Y-73183662D01*
X54606000Y-73210249D01*
X54606000Y-73969751D01*
X54604694Y-73996338D01*
X54600788Y-74022669D01*
X54594320Y-74048490D01*
X54585352Y-74073553D01*
X54573971Y-74097617D01*
X54560286Y-74120449D01*
X54544429Y-74141830D01*
X54526553Y-74161553D01*
X54506830Y-74179429D01*
X54485449Y-74195286D01*
X54462617Y-74208971D01*
X54438553Y-74220352D01*
X54413490Y-74229320D01*
X54387669Y-74235788D01*
X54361338Y-74239694D01*
X54334751Y-74241000D01*
X53025249Y-74241000D01*
X52998662Y-74239694D01*
X52972331Y-74235788D01*
X52946510Y-74229320D01*
X52921447Y-74220352D01*
X52897383Y-74208971D01*
X52874551Y-74195286D01*
X52853170Y-74179429D01*
X52833447Y-74161553D01*
X52815571Y-74141830D01*
X52799714Y-74120449D01*
X52786029Y-74097617D01*
X52774648Y-74073553D01*
X52765680Y-74048490D01*
X52759212Y-74022669D01*
X52755306Y-73996338D01*
X52754000Y-73969751D01*
X52754000Y-73210249D01*
X52755306Y-73183662D01*
X52759212Y-73157331D01*
X52765680Y-73131510D01*
X52774648Y-73106447D01*
X52786029Y-73082383D01*
X52799714Y-73059551D01*
X52815571Y-73038170D01*
X52833447Y-73018447D01*
X52853170Y-73000571D01*
X52874551Y-72984714D01*
X52897383Y-72971029D01*
X52921447Y-72959648D01*
X52946510Y-72950680D01*
X52972331Y-72944212D01*
X52998662Y-72940306D01*
X53025249Y-72939000D01*
X54334751Y-72939000D01*
X54361338Y-72940306D01*
X54361338Y-72940306D01*
G37*
D23*
X53680000Y-73590000D03*
D25*
X8880000Y-39300000D03*
X6880000Y-39300000D03*
D18*
G36*
X5286338Y-38375306D02*
G01*
X5312669Y-38379212D01*
X5338490Y-38385680D01*
X5363553Y-38394648D01*
X5387617Y-38406029D01*
X5410449Y-38419714D01*
X5431830Y-38435571D01*
X5451553Y-38453447D01*
X5469429Y-38473170D01*
X5485286Y-38494551D01*
X5498971Y-38517383D01*
X5510352Y-38541447D01*
X5519320Y-38566510D01*
X5525788Y-38592331D01*
X5529694Y-38618662D01*
X5531000Y-38645249D01*
X5531000Y-39954751D01*
X5529694Y-39981338D01*
X5525788Y-40007669D01*
X5519320Y-40033490D01*
X5510352Y-40058553D01*
X5498971Y-40082617D01*
X5485286Y-40105449D01*
X5469429Y-40126830D01*
X5451553Y-40146553D01*
X5431830Y-40164429D01*
X5410449Y-40180286D01*
X5387617Y-40193971D01*
X5363553Y-40205352D01*
X5338490Y-40214320D01*
X5312669Y-40220788D01*
X5286338Y-40224694D01*
X5259751Y-40226000D01*
X4500249Y-40226000D01*
X4473662Y-40224694D01*
X4447331Y-40220788D01*
X4421510Y-40214320D01*
X4396447Y-40205352D01*
X4372383Y-40193971D01*
X4349551Y-40180286D01*
X4328170Y-40164429D01*
X4308447Y-40146553D01*
X4290571Y-40126830D01*
X4274714Y-40105449D01*
X4261029Y-40082617D01*
X4249648Y-40058553D01*
X4240680Y-40033490D01*
X4234212Y-40007669D01*
X4230306Y-39981338D01*
X4229000Y-39954751D01*
X4229000Y-38645249D01*
X4230306Y-38618662D01*
X4234212Y-38592331D01*
X4240680Y-38566510D01*
X4249648Y-38541447D01*
X4261029Y-38517383D01*
X4274714Y-38494551D01*
X4290571Y-38473170D01*
X4308447Y-38453447D01*
X4328170Y-38435571D01*
X4349551Y-38419714D01*
X4372383Y-38406029D01*
X4396447Y-38394648D01*
X4421510Y-38385680D01*
X4447331Y-38379212D01*
X4473662Y-38375306D01*
X4500249Y-38374000D01*
X5259751Y-38374000D01*
X5286338Y-38375306D01*
X5286338Y-38375306D01*
G37*
D23*
X4880000Y-39300000D03*
D18*
G36*
X5286338Y-44725306D02*
G01*
X5312669Y-44729212D01*
X5338490Y-44735680D01*
X5363553Y-44744648D01*
X5387617Y-44756029D01*
X5410449Y-44769714D01*
X5431830Y-44785571D01*
X5451553Y-44803447D01*
X5469429Y-44823170D01*
X5485286Y-44844551D01*
X5498971Y-44867383D01*
X5510352Y-44891447D01*
X5519320Y-44916510D01*
X5525788Y-44942331D01*
X5529694Y-44968662D01*
X5531000Y-44995249D01*
X5531000Y-46304751D01*
X5529694Y-46331338D01*
X5525788Y-46357669D01*
X5519320Y-46383490D01*
X5510352Y-46408553D01*
X5498971Y-46432617D01*
X5485286Y-46455449D01*
X5469429Y-46476830D01*
X5451553Y-46496553D01*
X5431830Y-46514429D01*
X5410449Y-46530286D01*
X5387617Y-46543971D01*
X5363553Y-46555352D01*
X5338490Y-46564320D01*
X5312669Y-46570788D01*
X5286338Y-46574694D01*
X5259751Y-46576000D01*
X4500249Y-46576000D01*
X4473662Y-46574694D01*
X4447331Y-46570788D01*
X4421510Y-46564320D01*
X4396447Y-46555352D01*
X4372383Y-46543971D01*
X4349551Y-46530286D01*
X4328170Y-46514429D01*
X4308447Y-46496553D01*
X4290571Y-46476830D01*
X4274714Y-46455449D01*
X4261029Y-46432617D01*
X4249648Y-46408553D01*
X4240680Y-46383490D01*
X4234212Y-46357669D01*
X4230306Y-46331338D01*
X4229000Y-46304751D01*
X4229000Y-44995249D01*
X4230306Y-44968662D01*
X4234212Y-44942331D01*
X4240680Y-44916510D01*
X4249648Y-44891447D01*
X4261029Y-44867383D01*
X4274714Y-44844551D01*
X4290571Y-44823170D01*
X4308447Y-44803447D01*
X4328170Y-44785571D01*
X4349551Y-44769714D01*
X4372383Y-44756029D01*
X4396447Y-44744648D01*
X4421510Y-44735680D01*
X4447331Y-44729212D01*
X4473662Y-44725306D01*
X4500249Y-44724000D01*
X5259751Y-44724000D01*
X5286338Y-44725306D01*
X5286338Y-44725306D01*
G37*
D23*
X4880000Y-45650000D03*
D25*
X6880000Y-45650000D03*
X8880000Y-45650000D03*
X8880000Y-52000000D03*
X6880000Y-52000000D03*
D18*
G36*
X5286338Y-51075306D02*
G01*
X5312669Y-51079212D01*
X5338490Y-51085680D01*
X5363553Y-51094648D01*
X5387617Y-51106029D01*
X5410449Y-51119714D01*
X5431830Y-51135571D01*
X5451553Y-51153447D01*
X5469429Y-51173170D01*
X5485286Y-51194551D01*
X5498971Y-51217383D01*
X5510352Y-51241447D01*
X5519320Y-51266510D01*
X5525788Y-51292331D01*
X5529694Y-51318662D01*
X5531000Y-51345249D01*
X5531000Y-52654751D01*
X5529694Y-52681338D01*
X5525788Y-52707669D01*
X5519320Y-52733490D01*
X5510352Y-52758553D01*
X5498971Y-52782617D01*
X5485286Y-52805449D01*
X5469429Y-52826830D01*
X5451553Y-52846553D01*
X5431830Y-52864429D01*
X5410449Y-52880286D01*
X5387617Y-52893971D01*
X5363553Y-52905352D01*
X5338490Y-52914320D01*
X5312669Y-52920788D01*
X5286338Y-52924694D01*
X5259751Y-52926000D01*
X4500249Y-52926000D01*
X4473662Y-52924694D01*
X4447331Y-52920788D01*
X4421510Y-52914320D01*
X4396447Y-52905352D01*
X4372383Y-52893971D01*
X4349551Y-52880286D01*
X4328170Y-52864429D01*
X4308447Y-52846553D01*
X4290571Y-52826830D01*
X4274714Y-52805449D01*
X4261029Y-52782617D01*
X4249648Y-52758553D01*
X4240680Y-52733490D01*
X4234212Y-52707669D01*
X4230306Y-52681338D01*
X4229000Y-52654751D01*
X4229000Y-51345249D01*
X4230306Y-51318662D01*
X4234212Y-51292331D01*
X4240680Y-51266510D01*
X4249648Y-51241447D01*
X4261029Y-51217383D01*
X4274714Y-51194551D01*
X4290571Y-51173170D01*
X4308447Y-51153447D01*
X4328170Y-51135571D01*
X4349551Y-51119714D01*
X4372383Y-51106029D01*
X4396447Y-51094648D01*
X4421510Y-51085680D01*
X4447331Y-51079212D01*
X4473662Y-51075306D01*
X4500249Y-51074000D01*
X5259751Y-51074000D01*
X5286338Y-51075306D01*
X5286338Y-51075306D01*
G37*
D23*
X4880000Y-52000000D03*
D18*
G36*
X5286338Y-57425306D02*
G01*
X5312669Y-57429212D01*
X5338490Y-57435680D01*
X5363553Y-57444648D01*
X5387617Y-57456029D01*
X5410449Y-57469714D01*
X5431830Y-57485571D01*
X5451553Y-57503447D01*
X5469429Y-57523170D01*
X5485286Y-57544551D01*
X5498971Y-57567383D01*
X5510352Y-57591447D01*
X5519320Y-57616510D01*
X5525788Y-57642331D01*
X5529694Y-57668662D01*
X5531000Y-57695249D01*
X5531000Y-59004751D01*
X5529694Y-59031338D01*
X5525788Y-59057669D01*
X5519320Y-59083490D01*
X5510352Y-59108553D01*
X5498971Y-59132617D01*
X5485286Y-59155449D01*
X5469429Y-59176830D01*
X5451553Y-59196553D01*
X5431830Y-59214429D01*
X5410449Y-59230286D01*
X5387617Y-59243971D01*
X5363553Y-59255352D01*
X5338490Y-59264320D01*
X5312669Y-59270788D01*
X5286338Y-59274694D01*
X5259751Y-59276000D01*
X4500249Y-59276000D01*
X4473662Y-59274694D01*
X4447331Y-59270788D01*
X4421510Y-59264320D01*
X4396447Y-59255352D01*
X4372383Y-59243971D01*
X4349551Y-59230286D01*
X4328170Y-59214429D01*
X4308447Y-59196553D01*
X4290571Y-59176830D01*
X4274714Y-59155449D01*
X4261029Y-59132617D01*
X4249648Y-59108553D01*
X4240680Y-59083490D01*
X4234212Y-59057669D01*
X4230306Y-59031338D01*
X4229000Y-59004751D01*
X4229000Y-57695249D01*
X4230306Y-57668662D01*
X4234212Y-57642331D01*
X4240680Y-57616510D01*
X4249648Y-57591447D01*
X4261029Y-57567383D01*
X4274714Y-57544551D01*
X4290571Y-57523170D01*
X4308447Y-57503447D01*
X4328170Y-57485571D01*
X4349551Y-57469714D01*
X4372383Y-57456029D01*
X4396447Y-57444648D01*
X4421510Y-57435680D01*
X4447331Y-57429212D01*
X4473662Y-57425306D01*
X4500249Y-57424000D01*
X5259751Y-57424000D01*
X5286338Y-57425306D01*
X5286338Y-57425306D01*
G37*
D23*
X4880000Y-58350000D03*
D25*
X6880000Y-58350000D03*
X8880000Y-58350000D03*
D28*
X94650000Y-31700000D03*
X94650000Y-18300000D03*
D29*
X84200000Y-28600000D03*
X84200000Y-21400000D03*
D24*
X74000000Y-15900000D03*
D18*
G36*
X74681338Y-13250306D02*
G01*
X74707669Y-13254212D01*
X74733490Y-13260680D01*
X74758553Y-13269648D01*
X74782617Y-13281029D01*
X74805449Y-13294714D01*
X74826830Y-13310571D01*
X74846553Y-13328447D01*
X74864429Y-13348170D01*
X74880286Y-13369551D01*
X74893971Y-13392383D01*
X74905352Y-13416447D01*
X74914320Y-13441510D01*
X74920788Y-13467331D01*
X74924694Y-13493662D01*
X74926000Y-13520249D01*
X74926000Y-14279751D01*
X74924694Y-14306338D01*
X74920788Y-14332669D01*
X74914320Y-14358490D01*
X74905352Y-14383553D01*
X74893971Y-14407617D01*
X74880286Y-14430449D01*
X74864429Y-14451830D01*
X74846553Y-14471553D01*
X74826830Y-14489429D01*
X74805449Y-14505286D01*
X74782617Y-14518971D01*
X74758553Y-14530352D01*
X74733490Y-14539320D01*
X74707669Y-14545788D01*
X74681338Y-14549694D01*
X74654751Y-14551000D01*
X73345249Y-14551000D01*
X73318662Y-14549694D01*
X73292331Y-14545788D01*
X73266510Y-14539320D01*
X73241447Y-14530352D01*
X73217383Y-14518971D01*
X73194551Y-14505286D01*
X73173170Y-14489429D01*
X73153447Y-14471553D01*
X73135571Y-14451830D01*
X73119714Y-14430449D01*
X73106029Y-14407617D01*
X73094648Y-14383553D01*
X73085680Y-14358490D01*
X73079212Y-14332669D01*
X73075306Y-14306338D01*
X73074000Y-14279751D01*
X73074000Y-13520249D01*
X73075306Y-13493662D01*
X73079212Y-13467331D01*
X73085680Y-13441510D01*
X73094648Y-13416447D01*
X73106029Y-13392383D01*
X73119714Y-13369551D01*
X73135571Y-13348170D01*
X73153447Y-13328447D01*
X73173170Y-13310571D01*
X73194551Y-13294714D01*
X73217383Y-13281029D01*
X73241447Y-13269648D01*
X73266510Y-13260680D01*
X73292331Y-13254212D01*
X73318662Y-13250306D01*
X73345249Y-13249000D01*
X74654751Y-13249000D01*
X74681338Y-13250306D01*
X74681338Y-13250306D01*
G37*
D23*
X74000000Y-13900000D03*
D18*
G36*
X68331338Y-13250306D02*
G01*
X68357669Y-13254212D01*
X68383490Y-13260680D01*
X68408553Y-13269648D01*
X68432617Y-13281029D01*
X68455449Y-13294714D01*
X68476830Y-13310571D01*
X68496553Y-13328447D01*
X68514429Y-13348170D01*
X68530286Y-13369551D01*
X68543971Y-13392383D01*
X68555352Y-13416447D01*
X68564320Y-13441510D01*
X68570788Y-13467331D01*
X68574694Y-13493662D01*
X68576000Y-13520249D01*
X68576000Y-14279751D01*
X68574694Y-14306338D01*
X68570788Y-14332669D01*
X68564320Y-14358490D01*
X68555352Y-14383553D01*
X68543971Y-14407617D01*
X68530286Y-14430449D01*
X68514429Y-14451830D01*
X68496553Y-14471553D01*
X68476830Y-14489429D01*
X68455449Y-14505286D01*
X68432617Y-14518971D01*
X68408553Y-14530352D01*
X68383490Y-14539320D01*
X68357669Y-14545788D01*
X68331338Y-14549694D01*
X68304751Y-14551000D01*
X66995249Y-14551000D01*
X66968662Y-14549694D01*
X66942331Y-14545788D01*
X66916510Y-14539320D01*
X66891447Y-14530352D01*
X66867383Y-14518971D01*
X66844551Y-14505286D01*
X66823170Y-14489429D01*
X66803447Y-14471553D01*
X66785571Y-14451830D01*
X66769714Y-14430449D01*
X66756029Y-14407617D01*
X66744648Y-14383553D01*
X66735680Y-14358490D01*
X66729212Y-14332669D01*
X66725306Y-14306338D01*
X66724000Y-14279751D01*
X66724000Y-13520249D01*
X66725306Y-13493662D01*
X66729212Y-13467331D01*
X66735680Y-13441510D01*
X66744648Y-13416447D01*
X66756029Y-13392383D01*
X66769714Y-13369551D01*
X66785571Y-13348170D01*
X66803447Y-13328447D01*
X66823170Y-13310571D01*
X66844551Y-13294714D01*
X66867383Y-13281029D01*
X66891447Y-13269648D01*
X66916510Y-13260680D01*
X66942331Y-13254212D01*
X66968662Y-13250306D01*
X66995249Y-13249000D01*
X68304751Y-13249000D01*
X68331338Y-13250306D01*
X68331338Y-13250306D01*
G37*
D23*
X67650000Y-13900000D03*
D24*
X67650000Y-15900000D03*
D18*
G36*
X61981338Y-13250306D02*
G01*
X62007669Y-13254212D01*
X62033490Y-13260680D01*
X62058553Y-13269648D01*
X62082617Y-13281029D01*
X62105449Y-13294714D01*
X62126830Y-13310571D01*
X62146553Y-13328447D01*
X62164429Y-13348170D01*
X62180286Y-13369551D01*
X62193971Y-13392383D01*
X62205352Y-13416447D01*
X62214320Y-13441510D01*
X62220788Y-13467331D01*
X62224694Y-13493662D01*
X62226000Y-13520249D01*
X62226000Y-14279751D01*
X62224694Y-14306338D01*
X62220788Y-14332669D01*
X62214320Y-14358490D01*
X62205352Y-14383553D01*
X62193971Y-14407617D01*
X62180286Y-14430449D01*
X62164429Y-14451830D01*
X62146553Y-14471553D01*
X62126830Y-14489429D01*
X62105449Y-14505286D01*
X62082617Y-14518971D01*
X62058553Y-14530352D01*
X62033490Y-14539320D01*
X62007669Y-14545788D01*
X61981338Y-14549694D01*
X61954751Y-14551000D01*
X60645249Y-14551000D01*
X60618662Y-14549694D01*
X60592331Y-14545788D01*
X60566510Y-14539320D01*
X60541447Y-14530352D01*
X60517383Y-14518971D01*
X60494551Y-14505286D01*
X60473170Y-14489429D01*
X60453447Y-14471553D01*
X60435571Y-14451830D01*
X60419714Y-14430449D01*
X60406029Y-14407617D01*
X60394648Y-14383553D01*
X60385680Y-14358490D01*
X60379212Y-14332669D01*
X60375306Y-14306338D01*
X60374000Y-14279751D01*
X60374000Y-13520249D01*
X60375306Y-13493662D01*
X60379212Y-13467331D01*
X60385680Y-13441510D01*
X60394648Y-13416447D01*
X60406029Y-13392383D01*
X60419714Y-13369551D01*
X60435571Y-13348170D01*
X60453447Y-13328447D01*
X60473170Y-13310571D01*
X60494551Y-13294714D01*
X60517383Y-13281029D01*
X60541447Y-13269648D01*
X60566510Y-13260680D01*
X60592331Y-13254212D01*
X60618662Y-13250306D01*
X60645249Y-13249000D01*
X61954751Y-13249000D01*
X61981338Y-13250306D01*
X61981338Y-13250306D01*
G37*
D23*
X61300000Y-13900000D03*
D24*
X61300000Y-15900000D03*
X54950000Y-15900000D03*
D18*
G36*
X55631338Y-13250306D02*
G01*
X55657669Y-13254212D01*
X55683490Y-13260680D01*
X55708553Y-13269648D01*
X55732617Y-13281029D01*
X55755449Y-13294714D01*
X55776830Y-13310571D01*
X55796553Y-13328447D01*
X55814429Y-13348170D01*
X55830286Y-13369551D01*
X55843971Y-13392383D01*
X55855352Y-13416447D01*
X55864320Y-13441510D01*
X55870788Y-13467331D01*
X55874694Y-13493662D01*
X55876000Y-13520249D01*
X55876000Y-14279751D01*
X55874694Y-14306338D01*
X55870788Y-14332669D01*
X55864320Y-14358490D01*
X55855352Y-14383553D01*
X55843971Y-14407617D01*
X55830286Y-14430449D01*
X55814429Y-14451830D01*
X55796553Y-14471553D01*
X55776830Y-14489429D01*
X55755449Y-14505286D01*
X55732617Y-14518971D01*
X55708553Y-14530352D01*
X55683490Y-14539320D01*
X55657669Y-14545788D01*
X55631338Y-14549694D01*
X55604751Y-14551000D01*
X54295249Y-14551000D01*
X54268662Y-14549694D01*
X54242331Y-14545788D01*
X54216510Y-14539320D01*
X54191447Y-14530352D01*
X54167383Y-14518971D01*
X54144551Y-14505286D01*
X54123170Y-14489429D01*
X54103447Y-14471553D01*
X54085571Y-14451830D01*
X54069714Y-14430449D01*
X54056029Y-14407617D01*
X54044648Y-14383553D01*
X54035680Y-14358490D01*
X54029212Y-14332669D01*
X54025306Y-14306338D01*
X54024000Y-14279751D01*
X54024000Y-13520249D01*
X54025306Y-13493662D01*
X54029212Y-13467331D01*
X54035680Y-13441510D01*
X54044648Y-13416447D01*
X54056029Y-13392383D01*
X54069714Y-13369551D01*
X54085571Y-13348170D01*
X54103447Y-13328447D01*
X54123170Y-13310571D01*
X54144551Y-13294714D01*
X54167383Y-13281029D01*
X54191447Y-13269648D01*
X54216510Y-13260680D01*
X54242331Y-13254212D01*
X54268662Y-13250306D01*
X54295249Y-13249000D01*
X55604751Y-13249000D01*
X55631338Y-13250306D01*
X55631338Y-13250306D01*
G37*
D23*
X54950000Y-13900000D03*
D18*
G36*
X49281338Y-13250306D02*
G01*
X49307669Y-13254212D01*
X49333490Y-13260680D01*
X49358553Y-13269648D01*
X49382617Y-13281029D01*
X49405449Y-13294714D01*
X49426830Y-13310571D01*
X49446553Y-13328447D01*
X49464429Y-13348170D01*
X49480286Y-13369551D01*
X49493971Y-13392383D01*
X49505352Y-13416447D01*
X49514320Y-13441510D01*
X49520788Y-13467331D01*
X49524694Y-13493662D01*
X49526000Y-13520249D01*
X49526000Y-14279751D01*
X49524694Y-14306338D01*
X49520788Y-14332669D01*
X49514320Y-14358490D01*
X49505352Y-14383553D01*
X49493971Y-14407617D01*
X49480286Y-14430449D01*
X49464429Y-14451830D01*
X49446553Y-14471553D01*
X49426830Y-14489429D01*
X49405449Y-14505286D01*
X49382617Y-14518971D01*
X49358553Y-14530352D01*
X49333490Y-14539320D01*
X49307669Y-14545788D01*
X49281338Y-14549694D01*
X49254751Y-14551000D01*
X47945249Y-14551000D01*
X47918662Y-14549694D01*
X47892331Y-14545788D01*
X47866510Y-14539320D01*
X47841447Y-14530352D01*
X47817383Y-14518971D01*
X47794551Y-14505286D01*
X47773170Y-14489429D01*
X47753447Y-14471553D01*
X47735571Y-14451830D01*
X47719714Y-14430449D01*
X47706029Y-14407617D01*
X47694648Y-14383553D01*
X47685680Y-14358490D01*
X47679212Y-14332669D01*
X47675306Y-14306338D01*
X47674000Y-14279751D01*
X47674000Y-13520249D01*
X47675306Y-13493662D01*
X47679212Y-13467331D01*
X47685680Y-13441510D01*
X47694648Y-13416447D01*
X47706029Y-13392383D01*
X47719714Y-13369551D01*
X47735571Y-13348170D01*
X47753447Y-13328447D01*
X47773170Y-13310571D01*
X47794551Y-13294714D01*
X47817383Y-13281029D01*
X47841447Y-13269648D01*
X47866510Y-13260680D01*
X47892331Y-13254212D01*
X47918662Y-13250306D01*
X47945249Y-13249000D01*
X49254751Y-13249000D01*
X49281338Y-13250306D01*
X49281338Y-13250306D01*
G37*
D23*
X48600000Y-13900000D03*
D24*
X48600000Y-15900000D03*
X42250000Y-15900000D03*
D18*
G36*
X42931338Y-13250306D02*
G01*
X42957669Y-13254212D01*
X42983490Y-13260680D01*
X43008553Y-13269648D01*
X43032617Y-13281029D01*
X43055449Y-13294714D01*
X43076830Y-13310571D01*
X43096553Y-13328447D01*
X43114429Y-13348170D01*
X43130286Y-13369551D01*
X43143971Y-13392383D01*
X43155352Y-13416447D01*
X43164320Y-13441510D01*
X43170788Y-13467331D01*
X43174694Y-13493662D01*
X43176000Y-13520249D01*
X43176000Y-14279751D01*
X43174694Y-14306338D01*
X43170788Y-14332669D01*
X43164320Y-14358490D01*
X43155352Y-14383553D01*
X43143971Y-14407617D01*
X43130286Y-14430449D01*
X43114429Y-14451830D01*
X43096553Y-14471553D01*
X43076830Y-14489429D01*
X43055449Y-14505286D01*
X43032617Y-14518971D01*
X43008553Y-14530352D01*
X42983490Y-14539320D01*
X42957669Y-14545788D01*
X42931338Y-14549694D01*
X42904751Y-14551000D01*
X41595249Y-14551000D01*
X41568662Y-14549694D01*
X41542331Y-14545788D01*
X41516510Y-14539320D01*
X41491447Y-14530352D01*
X41467383Y-14518971D01*
X41444551Y-14505286D01*
X41423170Y-14489429D01*
X41403447Y-14471553D01*
X41385571Y-14451830D01*
X41369714Y-14430449D01*
X41356029Y-14407617D01*
X41344648Y-14383553D01*
X41335680Y-14358490D01*
X41329212Y-14332669D01*
X41325306Y-14306338D01*
X41324000Y-14279751D01*
X41324000Y-13520249D01*
X41325306Y-13493662D01*
X41329212Y-13467331D01*
X41335680Y-13441510D01*
X41344648Y-13416447D01*
X41356029Y-13392383D01*
X41369714Y-13369551D01*
X41385571Y-13348170D01*
X41403447Y-13328447D01*
X41423170Y-13310571D01*
X41444551Y-13294714D01*
X41467383Y-13281029D01*
X41491447Y-13269648D01*
X41516510Y-13260680D01*
X41542331Y-13254212D01*
X41568662Y-13250306D01*
X41595249Y-13249000D01*
X42904751Y-13249000D01*
X42931338Y-13250306D01*
X42931338Y-13250306D01*
G37*
D23*
X42250000Y-13900000D03*
D18*
G36*
X40106112Y-36157568D02*
G01*
X40129893Y-36160567D01*
X40610972Y-36245394D01*
X40634345Y-36250709D01*
X40657084Y-36258290D01*
X40678971Y-36268063D01*
X40699794Y-36279935D01*
X40719354Y-36293790D01*
X40737461Y-36309496D01*
X40753942Y-36326900D01*
X40768637Y-36345837D01*
X40781405Y-36366123D01*
X40792124Y-36387562D01*
X40800689Y-36409949D01*
X40807019Y-36433068D01*
X40811053Y-36456695D01*
X40812751Y-36480605D01*
X40812097Y-36504565D01*
X40809098Y-36528347D01*
X40711247Y-37083286D01*
X40705932Y-37106658D01*
X40698351Y-37129398D01*
X40688578Y-37151284D01*
X40676706Y-37172108D01*
X40662851Y-37191667D01*
X40647145Y-37209774D01*
X40629740Y-37226255D01*
X40610804Y-37240950D01*
X40590518Y-37253718D01*
X40569079Y-37264437D01*
X40546692Y-37273002D01*
X40523573Y-37279332D01*
X40499945Y-37283366D01*
X40476036Y-37285064D01*
X40452076Y-37284410D01*
X40428295Y-37281411D01*
X39947216Y-37196584D01*
X39923843Y-37191269D01*
X39901104Y-37183688D01*
X39879217Y-37173915D01*
X39858394Y-37162043D01*
X39838834Y-37148188D01*
X39820727Y-37132482D01*
X39804246Y-37115078D01*
X39789551Y-37096141D01*
X39776783Y-37075855D01*
X39766064Y-37054416D01*
X39757499Y-37032029D01*
X39751169Y-37008910D01*
X39747135Y-36985283D01*
X39745437Y-36961373D01*
X39746091Y-36937413D01*
X39749090Y-36913631D01*
X39846941Y-36358692D01*
X39852256Y-36335320D01*
X39859837Y-36312580D01*
X39869610Y-36290694D01*
X39881482Y-36269870D01*
X39895337Y-36250311D01*
X39911043Y-36232204D01*
X39928448Y-36215723D01*
X39947384Y-36201028D01*
X39967670Y-36188260D01*
X39989109Y-36177541D01*
X40011496Y-36168976D01*
X40034615Y-36162646D01*
X40058243Y-36158612D01*
X40082152Y-36156914D01*
X40106112Y-36157568D01*
X40106112Y-36157568D01*
G37*
D19*
X40279094Y-36720989D03*
D18*
G36*
X41657184Y-36431064D02*
G01*
X41680965Y-36434063D01*
X42162044Y-36518890D01*
X42185417Y-36524205D01*
X42208156Y-36531786D01*
X42230043Y-36541559D01*
X42250866Y-36553431D01*
X42270426Y-36567286D01*
X42288533Y-36582992D01*
X42305014Y-36600396D01*
X42319709Y-36619333D01*
X42332477Y-36639619D01*
X42343196Y-36661058D01*
X42351761Y-36683445D01*
X42358091Y-36706564D01*
X42362125Y-36730191D01*
X42363823Y-36754101D01*
X42363169Y-36778061D01*
X42360170Y-36801843D01*
X42262319Y-37356782D01*
X42257004Y-37380154D01*
X42249423Y-37402894D01*
X42239650Y-37424780D01*
X42227778Y-37445604D01*
X42213923Y-37465163D01*
X42198217Y-37483270D01*
X42180812Y-37499751D01*
X42161876Y-37514446D01*
X42141590Y-37527214D01*
X42120151Y-37537933D01*
X42097764Y-37546498D01*
X42074645Y-37552828D01*
X42051017Y-37556862D01*
X42027108Y-37558560D01*
X42003148Y-37557906D01*
X41979367Y-37554907D01*
X41498288Y-37470080D01*
X41474915Y-37464765D01*
X41452176Y-37457184D01*
X41430289Y-37447411D01*
X41409466Y-37435539D01*
X41389906Y-37421684D01*
X41371799Y-37405978D01*
X41355318Y-37388574D01*
X41340623Y-37369637D01*
X41327855Y-37349351D01*
X41317136Y-37327912D01*
X41308571Y-37305525D01*
X41302241Y-37282406D01*
X41298207Y-37258779D01*
X41296509Y-37234869D01*
X41297163Y-37210909D01*
X41300162Y-37187127D01*
X41398013Y-36632188D01*
X41403328Y-36608816D01*
X41410909Y-36586076D01*
X41420682Y-36564190D01*
X41432554Y-36543366D01*
X41446409Y-36523807D01*
X41462115Y-36505700D01*
X41479520Y-36489219D01*
X41498456Y-36474524D01*
X41518742Y-36461756D01*
X41540181Y-36451037D01*
X41562568Y-36442472D01*
X41585687Y-36436142D01*
X41609315Y-36432108D01*
X41633224Y-36430410D01*
X41657184Y-36431064D01*
X41657184Y-36431064D01*
G37*
D19*
X41830166Y-36994485D03*
D18*
G36*
X42098248Y-33929650D02*
G01*
X42122029Y-33932649D01*
X42603108Y-34017476D01*
X42626481Y-34022791D01*
X42649220Y-34030372D01*
X42671107Y-34040145D01*
X42691930Y-34052017D01*
X42711490Y-34065872D01*
X42729597Y-34081578D01*
X42746078Y-34098982D01*
X42760773Y-34117919D01*
X42773541Y-34138205D01*
X42784260Y-34159644D01*
X42792825Y-34182031D01*
X42799155Y-34205150D01*
X42803189Y-34228777D01*
X42804887Y-34252687D01*
X42804233Y-34276647D01*
X42801234Y-34300429D01*
X42703383Y-34855368D01*
X42698068Y-34878740D01*
X42690487Y-34901480D01*
X42680714Y-34923366D01*
X42668842Y-34944190D01*
X42654987Y-34963749D01*
X42639281Y-34981856D01*
X42621876Y-34998337D01*
X42602940Y-35013032D01*
X42582654Y-35025800D01*
X42561215Y-35036519D01*
X42538828Y-35045084D01*
X42515709Y-35051414D01*
X42492081Y-35055448D01*
X42468172Y-35057146D01*
X42444212Y-35056492D01*
X42420431Y-35053493D01*
X41939352Y-34968666D01*
X41915979Y-34963351D01*
X41893240Y-34955770D01*
X41871353Y-34945997D01*
X41850530Y-34934125D01*
X41830970Y-34920270D01*
X41812863Y-34904564D01*
X41796382Y-34887160D01*
X41781687Y-34868223D01*
X41768919Y-34847937D01*
X41758200Y-34826498D01*
X41749635Y-34804111D01*
X41743305Y-34780992D01*
X41739271Y-34757365D01*
X41737573Y-34733455D01*
X41738227Y-34709495D01*
X41741226Y-34685713D01*
X41839077Y-34130774D01*
X41844392Y-34107402D01*
X41851973Y-34084662D01*
X41861746Y-34062776D01*
X41873618Y-34041952D01*
X41887473Y-34022393D01*
X41903179Y-34004286D01*
X41920584Y-33987805D01*
X41939520Y-33973110D01*
X41959806Y-33960342D01*
X41981245Y-33949623D01*
X42003632Y-33941058D01*
X42026751Y-33934728D01*
X42050379Y-33930694D01*
X42074288Y-33928996D01*
X42098248Y-33929650D01*
X42098248Y-33929650D01*
G37*
D19*
X42271230Y-34493071D03*
D18*
G36*
X40547176Y-33656154D02*
G01*
X40570957Y-33659153D01*
X41052036Y-33743980D01*
X41075409Y-33749295D01*
X41098148Y-33756876D01*
X41120035Y-33766649D01*
X41140858Y-33778521D01*
X41160418Y-33792376D01*
X41178525Y-33808082D01*
X41195006Y-33825486D01*
X41209701Y-33844423D01*
X41222469Y-33864709D01*
X41233188Y-33886148D01*
X41241753Y-33908535D01*
X41248083Y-33931654D01*
X41252117Y-33955281D01*
X41253815Y-33979191D01*
X41253161Y-34003151D01*
X41250162Y-34026933D01*
X41152311Y-34581872D01*
X41146996Y-34605244D01*
X41139415Y-34627984D01*
X41129642Y-34649870D01*
X41117770Y-34670694D01*
X41103915Y-34690253D01*
X41088209Y-34708360D01*
X41070804Y-34724841D01*
X41051868Y-34739536D01*
X41031582Y-34752304D01*
X41010143Y-34763023D01*
X40987756Y-34771588D01*
X40964637Y-34777918D01*
X40941009Y-34781952D01*
X40917100Y-34783650D01*
X40893140Y-34782996D01*
X40869359Y-34779997D01*
X40388280Y-34695170D01*
X40364907Y-34689855D01*
X40342168Y-34682274D01*
X40320281Y-34672501D01*
X40299458Y-34660629D01*
X40279898Y-34646774D01*
X40261791Y-34631068D01*
X40245310Y-34613664D01*
X40230615Y-34594727D01*
X40217847Y-34574441D01*
X40207128Y-34553002D01*
X40198563Y-34530615D01*
X40192233Y-34507496D01*
X40188199Y-34483869D01*
X40186501Y-34459959D01*
X40187155Y-34435999D01*
X40190154Y-34412217D01*
X40288005Y-33857278D01*
X40293320Y-33833906D01*
X40300901Y-33811166D01*
X40310674Y-33789280D01*
X40322546Y-33768456D01*
X40336401Y-33748897D01*
X40352107Y-33730790D01*
X40369512Y-33714309D01*
X40388448Y-33699614D01*
X40408734Y-33686846D01*
X40430173Y-33676127D01*
X40452560Y-33667562D01*
X40475679Y-33661232D01*
X40499307Y-33657198D01*
X40523216Y-33655500D01*
X40547176Y-33656154D01*
X40547176Y-33656154D01*
G37*
D19*
X40720158Y-34219575D03*
D18*
G36*
X40988242Y-31154746D02*
G01*
X41012023Y-31157745D01*
X41493102Y-31242572D01*
X41516475Y-31247887D01*
X41539214Y-31255468D01*
X41561101Y-31265241D01*
X41581924Y-31277113D01*
X41601484Y-31290968D01*
X41619591Y-31306674D01*
X41636072Y-31324078D01*
X41650767Y-31343015D01*
X41663535Y-31363301D01*
X41674254Y-31384740D01*
X41682819Y-31407127D01*
X41689149Y-31430246D01*
X41693183Y-31453873D01*
X41694881Y-31477783D01*
X41694227Y-31501743D01*
X41691228Y-31525525D01*
X41593377Y-32080464D01*
X41588062Y-32103836D01*
X41580481Y-32126576D01*
X41570708Y-32148462D01*
X41558836Y-32169286D01*
X41544981Y-32188845D01*
X41529275Y-32206952D01*
X41511870Y-32223433D01*
X41492934Y-32238128D01*
X41472648Y-32250896D01*
X41451209Y-32261615D01*
X41428822Y-32270180D01*
X41405703Y-32276510D01*
X41382075Y-32280544D01*
X41358166Y-32282242D01*
X41334206Y-32281588D01*
X41310425Y-32278589D01*
X40829346Y-32193762D01*
X40805973Y-32188447D01*
X40783234Y-32180866D01*
X40761347Y-32171093D01*
X40740524Y-32159221D01*
X40720964Y-32145366D01*
X40702857Y-32129660D01*
X40686376Y-32112256D01*
X40671681Y-32093319D01*
X40658913Y-32073033D01*
X40648194Y-32051594D01*
X40639629Y-32029207D01*
X40633299Y-32006088D01*
X40629265Y-31982461D01*
X40627567Y-31958551D01*
X40628221Y-31934591D01*
X40631220Y-31910809D01*
X40729071Y-31355870D01*
X40734386Y-31332498D01*
X40741967Y-31309758D01*
X40751740Y-31287872D01*
X40763612Y-31267048D01*
X40777467Y-31247489D01*
X40793173Y-31229382D01*
X40810578Y-31212901D01*
X40829514Y-31198206D01*
X40849800Y-31185438D01*
X40871239Y-31174719D01*
X40893626Y-31166154D01*
X40916745Y-31159824D01*
X40940373Y-31155790D01*
X40964282Y-31154092D01*
X40988242Y-31154746D01*
X40988242Y-31154746D01*
G37*
D19*
X41161224Y-31718167D03*
D18*
G36*
X42539314Y-31428242D02*
G01*
X42563095Y-31431241D01*
X43044174Y-31516068D01*
X43067547Y-31521383D01*
X43090286Y-31528964D01*
X43112173Y-31538737D01*
X43132996Y-31550609D01*
X43152556Y-31564464D01*
X43170663Y-31580170D01*
X43187144Y-31597574D01*
X43201839Y-31616511D01*
X43214607Y-31636797D01*
X43225326Y-31658236D01*
X43233891Y-31680623D01*
X43240221Y-31703742D01*
X43244255Y-31727369D01*
X43245953Y-31751279D01*
X43245299Y-31775239D01*
X43242300Y-31799021D01*
X43144449Y-32353960D01*
X43139134Y-32377332D01*
X43131553Y-32400072D01*
X43121780Y-32421958D01*
X43109908Y-32442782D01*
X43096053Y-32462341D01*
X43080347Y-32480448D01*
X43062942Y-32496929D01*
X43044006Y-32511624D01*
X43023720Y-32524392D01*
X43002281Y-32535111D01*
X42979894Y-32543676D01*
X42956775Y-32550006D01*
X42933147Y-32554040D01*
X42909238Y-32555738D01*
X42885278Y-32555084D01*
X42861497Y-32552085D01*
X42380418Y-32467258D01*
X42357045Y-32461943D01*
X42334306Y-32454362D01*
X42312419Y-32444589D01*
X42291596Y-32432717D01*
X42272036Y-32418862D01*
X42253929Y-32403156D01*
X42237448Y-32385752D01*
X42222753Y-32366815D01*
X42209985Y-32346529D01*
X42199266Y-32325090D01*
X42190701Y-32302703D01*
X42184371Y-32279584D01*
X42180337Y-32255957D01*
X42178639Y-32232047D01*
X42179293Y-32208087D01*
X42182292Y-32184305D01*
X42280143Y-31629366D01*
X42285458Y-31605994D01*
X42293039Y-31583254D01*
X42302812Y-31561368D01*
X42314684Y-31540544D01*
X42328539Y-31520985D01*
X42344245Y-31502878D01*
X42361650Y-31486397D01*
X42380586Y-31471702D01*
X42400872Y-31458934D01*
X42422311Y-31448215D01*
X42444698Y-31439650D01*
X42467817Y-31433320D01*
X42491445Y-31429286D01*
X42515354Y-31427588D01*
X42539314Y-31428242D01*
X42539314Y-31428242D01*
G37*
D19*
X42712296Y-31991663D03*
D18*
G36*
X42980380Y-28926824D02*
G01*
X43004161Y-28929823D01*
X43485240Y-29014650D01*
X43508613Y-29019965D01*
X43531352Y-29027546D01*
X43553239Y-29037319D01*
X43574062Y-29049191D01*
X43593622Y-29063046D01*
X43611729Y-29078752D01*
X43628210Y-29096156D01*
X43642905Y-29115093D01*
X43655673Y-29135379D01*
X43666392Y-29156818D01*
X43674957Y-29179205D01*
X43681287Y-29202324D01*
X43685321Y-29225951D01*
X43687019Y-29249861D01*
X43686365Y-29273821D01*
X43683366Y-29297603D01*
X43585515Y-29852542D01*
X43580200Y-29875914D01*
X43572619Y-29898654D01*
X43562846Y-29920540D01*
X43550974Y-29941364D01*
X43537119Y-29960923D01*
X43521413Y-29979030D01*
X43504008Y-29995511D01*
X43485072Y-30010206D01*
X43464786Y-30022974D01*
X43443347Y-30033693D01*
X43420960Y-30042258D01*
X43397841Y-30048588D01*
X43374213Y-30052622D01*
X43350304Y-30054320D01*
X43326344Y-30053666D01*
X43302563Y-30050667D01*
X42821484Y-29965840D01*
X42798111Y-29960525D01*
X42775372Y-29952944D01*
X42753485Y-29943171D01*
X42732662Y-29931299D01*
X42713102Y-29917444D01*
X42694995Y-29901738D01*
X42678514Y-29884334D01*
X42663819Y-29865397D01*
X42651051Y-29845111D01*
X42640332Y-29823672D01*
X42631767Y-29801285D01*
X42625437Y-29778166D01*
X42621403Y-29754539D01*
X42619705Y-29730629D01*
X42620359Y-29706669D01*
X42623358Y-29682887D01*
X42721209Y-29127948D01*
X42726524Y-29104576D01*
X42734105Y-29081836D01*
X42743878Y-29059950D01*
X42755750Y-29039126D01*
X42769605Y-29019567D01*
X42785311Y-29001460D01*
X42802716Y-28984979D01*
X42821652Y-28970284D01*
X42841938Y-28957516D01*
X42863377Y-28946797D01*
X42885764Y-28938232D01*
X42908883Y-28931902D01*
X42932511Y-28927868D01*
X42956420Y-28926170D01*
X42980380Y-28926824D01*
X42980380Y-28926824D01*
G37*
D19*
X43153362Y-29490245D03*
D18*
G36*
X41429308Y-28653328D02*
G01*
X41453089Y-28656327D01*
X41934168Y-28741154D01*
X41957541Y-28746469D01*
X41980280Y-28754050D01*
X42002167Y-28763823D01*
X42022990Y-28775695D01*
X42042550Y-28789550D01*
X42060657Y-28805256D01*
X42077138Y-28822660D01*
X42091833Y-28841597D01*
X42104601Y-28861883D01*
X42115320Y-28883322D01*
X42123885Y-28905709D01*
X42130215Y-28928828D01*
X42134249Y-28952455D01*
X42135947Y-28976365D01*
X42135293Y-29000325D01*
X42132294Y-29024107D01*
X42034443Y-29579046D01*
X42029128Y-29602418D01*
X42021547Y-29625158D01*
X42011774Y-29647044D01*
X41999902Y-29667868D01*
X41986047Y-29687427D01*
X41970341Y-29705534D01*
X41952936Y-29722015D01*
X41934000Y-29736710D01*
X41913714Y-29749478D01*
X41892275Y-29760197D01*
X41869888Y-29768762D01*
X41846769Y-29775092D01*
X41823141Y-29779126D01*
X41799232Y-29780824D01*
X41775272Y-29780170D01*
X41751491Y-29777171D01*
X41270412Y-29692344D01*
X41247039Y-29687029D01*
X41224300Y-29679448D01*
X41202413Y-29669675D01*
X41181590Y-29657803D01*
X41162030Y-29643948D01*
X41143923Y-29628242D01*
X41127442Y-29610838D01*
X41112747Y-29591901D01*
X41099979Y-29571615D01*
X41089260Y-29550176D01*
X41080695Y-29527789D01*
X41074365Y-29504670D01*
X41070331Y-29481043D01*
X41068633Y-29457133D01*
X41069287Y-29433173D01*
X41072286Y-29409391D01*
X41170137Y-28854452D01*
X41175452Y-28831080D01*
X41183033Y-28808340D01*
X41192806Y-28786454D01*
X41204678Y-28765630D01*
X41218533Y-28746071D01*
X41234239Y-28727964D01*
X41251644Y-28711483D01*
X41270580Y-28696788D01*
X41290866Y-28684020D01*
X41312305Y-28673301D01*
X41334692Y-28664736D01*
X41357811Y-28658406D01*
X41381439Y-28654372D01*
X41405348Y-28652674D01*
X41429308Y-28653328D01*
X41429308Y-28653328D01*
G37*
D19*
X41602290Y-29216749D03*
D18*
G36*
X41870376Y-26151920D02*
G01*
X41894157Y-26154919D01*
X42375236Y-26239746D01*
X42398609Y-26245061D01*
X42421348Y-26252642D01*
X42443235Y-26262415D01*
X42464058Y-26274287D01*
X42483618Y-26288142D01*
X42501725Y-26303848D01*
X42518206Y-26321252D01*
X42532901Y-26340189D01*
X42545669Y-26360475D01*
X42556388Y-26381914D01*
X42564953Y-26404301D01*
X42571283Y-26427420D01*
X42575317Y-26451047D01*
X42577015Y-26474957D01*
X42576361Y-26498917D01*
X42573362Y-26522699D01*
X42475511Y-27077638D01*
X42470196Y-27101010D01*
X42462615Y-27123750D01*
X42452842Y-27145636D01*
X42440970Y-27166460D01*
X42427115Y-27186019D01*
X42411409Y-27204126D01*
X42394004Y-27220607D01*
X42375068Y-27235302D01*
X42354782Y-27248070D01*
X42333343Y-27258789D01*
X42310956Y-27267354D01*
X42287837Y-27273684D01*
X42264209Y-27277718D01*
X42240300Y-27279416D01*
X42216340Y-27278762D01*
X42192559Y-27275763D01*
X41711480Y-27190936D01*
X41688107Y-27185621D01*
X41665368Y-27178040D01*
X41643481Y-27168267D01*
X41622658Y-27156395D01*
X41603098Y-27142540D01*
X41584991Y-27126834D01*
X41568510Y-27109430D01*
X41553815Y-27090493D01*
X41541047Y-27070207D01*
X41530328Y-27048768D01*
X41521763Y-27026381D01*
X41515433Y-27003262D01*
X41511399Y-26979635D01*
X41509701Y-26955725D01*
X41510355Y-26931765D01*
X41513354Y-26907983D01*
X41611205Y-26353044D01*
X41616520Y-26329672D01*
X41624101Y-26306932D01*
X41633874Y-26285046D01*
X41645746Y-26264222D01*
X41659601Y-26244663D01*
X41675307Y-26226556D01*
X41692712Y-26210075D01*
X41711648Y-26195380D01*
X41731934Y-26182612D01*
X41753373Y-26171893D01*
X41775760Y-26163328D01*
X41798879Y-26156998D01*
X41822507Y-26152964D01*
X41846416Y-26151266D01*
X41870376Y-26151920D01*
X41870376Y-26151920D01*
G37*
D19*
X42043358Y-26715341D03*
D18*
G36*
X43421448Y-26425416D02*
G01*
X43445229Y-26428415D01*
X43926308Y-26513242D01*
X43949681Y-26518557D01*
X43972420Y-26526138D01*
X43994307Y-26535911D01*
X44015130Y-26547783D01*
X44034690Y-26561638D01*
X44052797Y-26577344D01*
X44069278Y-26594748D01*
X44083973Y-26613685D01*
X44096741Y-26633971D01*
X44107460Y-26655410D01*
X44116025Y-26677797D01*
X44122355Y-26700916D01*
X44126389Y-26724543D01*
X44128087Y-26748453D01*
X44127433Y-26772413D01*
X44124434Y-26796195D01*
X44026583Y-27351134D01*
X44021268Y-27374506D01*
X44013687Y-27397246D01*
X44003914Y-27419132D01*
X43992042Y-27439956D01*
X43978187Y-27459515D01*
X43962481Y-27477622D01*
X43945076Y-27494103D01*
X43926140Y-27508798D01*
X43905854Y-27521566D01*
X43884415Y-27532285D01*
X43862028Y-27540850D01*
X43838909Y-27547180D01*
X43815281Y-27551214D01*
X43791372Y-27552912D01*
X43767412Y-27552258D01*
X43743631Y-27549259D01*
X43262552Y-27464432D01*
X43239179Y-27459117D01*
X43216440Y-27451536D01*
X43194553Y-27441763D01*
X43173730Y-27429891D01*
X43154170Y-27416036D01*
X43136063Y-27400330D01*
X43119582Y-27382926D01*
X43104887Y-27363989D01*
X43092119Y-27343703D01*
X43081400Y-27322264D01*
X43072835Y-27299877D01*
X43066505Y-27276758D01*
X43062471Y-27253131D01*
X43060773Y-27229221D01*
X43061427Y-27205261D01*
X43064426Y-27181479D01*
X43162277Y-26626540D01*
X43167592Y-26603168D01*
X43175173Y-26580428D01*
X43184946Y-26558542D01*
X43196818Y-26537718D01*
X43210673Y-26518159D01*
X43226379Y-26500052D01*
X43243784Y-26483571D01*
X43262720Y-26468876D01*
X43283006Y-26456108D01*
X43304445Y-26445389D01*
X43326832Y-26436824D01*
X43349951Y-26430494D01*
X43373579Y-26426460D01*
X43397488Y-26424762D01*
X43421448Y-26425416D01*
X43421448Y-26425416D01*
G37*
D19*
X43594430Y-26988837D03*
D18*
G36*
X43862514Y-23924004D02*
G01*
X43886295Y-23927003D01*
X44367374Y-24011830D01*
X44390747Y-24017145D01*
X44413486Y-24024726D01*
X44435373Y-24034499D01*
X44456196Y-24046371D01*
X44475756Y-24060226D01*
X44493863Y-24075932D01*
X44510344Y-24093336D01*
X44525039Y-24112273D01*
X44537807Y-24132559D01*
X44548526Y-24153998D01*
X44557091Y-24176385D01*
X44563421Y-24199504D01*
X44567455Y-24223131D01*
X44569153Y-24247041D01*
X44568499Y-24271001D01*
X44565500Y-24294783D01*
X44467649Y-24849722D01*
X44462334Y-24873094D01*
X44454753Y-24895834D01*
X44444980Y-24917720D01*
X44433108Y-24938544D01*
X44419253Y-24958103D01*
X44403547Y-24976210D01*
X44386142Y-24992691D01*
X44367206Y-25007386D01*
X44346920Y-25020154D01*
X44325481Y-25030873D01*
X44303094Y-25039438D01*
X44279975Y-25045768D01*
X44256347Y-25049802D01*
X44232438Y-25051500D01*
X44208478Y-25050846D01*
X44184697Y-25047847D01*
X43703618Y-24963020D01*
X43680245Y-24957705D01*
X43657506Y-24950124D01*
X43635619Y-24940351D01*
X43614796Y-24928479D01*
X43595236Y-24914624D01*
X43577129Y-24898918D01*
X43560648Y-24881514D01*
X43545953Y-24862577D01*
X43533185Y-24842291D01*
X43522466Y-24820852D01*
X43513901Y-24798465D01*
X43507571Y-24775346D01*
X43503537Y-24751719D01*
X43501839Y-24727809D01*
X43502493Y-24703849D01*
X43505492Y-24680067D01*
X43603343Y-24125128D01*
X43608658Y-24101756D01*
X43616239Y-24079016D01*
X43626012Y-24057130D01*
X43637884Y-24036306D01*
X43651739Y-24016747D01*
X43667445Y-23998640D01*
X43684850Y-23982159D01*
X43703786Y-23967464D01*
X43724072Y-23954696D01*
X43745511Y-23943977D01*
X43767898Y-23935412D01*
X43791017Y-23929082D01*
X43814645Y-23925048D01*
X43838554Y-23923350D01*
X43862514Y-23924004D01*
X43862514Y-23924004D01*
G37*
D19*
X44035496Y-24487425D03*
D18*
G36*
X42311442Y-23650508D02*
G01*
X42335223Y-23653507D01*
X42816302Y-23738334D01*
X42839675Y-23743649D01*
X42862414Y-23751230D01*
X42884301Y-23761003D01*
X42905124Y-23772875D01*
X42924684Y-23786730D01*
X42942791Y-23802436D01*
X42959272Y-23819840D01*
X42973967Y-23838777D01*
X42986735Y-23859063D01*
X42997454Y-23880502D01*
X43006019Y-23902889D01*
X43012349Y-23926008D01*
X43016383Y-23949635D01*
X43018081Y-23973545D01*
X43017427Y-23997505D01*
X43014428Y-24021287D01*
X42916577Y-24576226D01*
X42911262Y-24599598D01*
X42903681Y-24622338D01*
X42893908Y-24644224D01*
X42882036Y-24665048D01*
X42868181Y-24684607D01*
X42852475Y-24702714D01*
X42835070Y-24719195D01*
X42816134Y-24733890D01*
X42795848Y-24746658D01*
X42774409Y-24757377D01*
X42752022Y-24765942D01*
X42728903Y-24772272D01*
X42705275Y-24776306D01*
X42681366Y-24778004D01*
X42657406Y-24777350D01*
X42633625Y-24774351D01*
X42152546Y-24689524D01*
X42129173Y-24684209D01*
X42106434Y-24676628D01*
X42084547Y-24666855D01*
X42063724Y-24654983D01*
X42044164Y-24641128D01*
X42026057Y-24625422D01*
X42009576Y-24608018D01*
X41994881Y-24589081D01*
X41982113Y-24568795D01*
X41971394Y-24547356D01*
X41962829Y-24524969D01*
X41956499Y-24501850D01*
X41952465Y-24478223D01*
X41950767Y-24454313D01*
X41951421Y-24430353D01*
X41954420Y-24406571D01*
X42052271Y-23851632D01*
X42057586Y-23828260D01*
X42065167Y-23805520D01*
X42074940Y-23783634D01*
X42086812Y-23762810D01*
X42100667Y-23743251D01*
X42116373Y-23725144D01*
X42133778Y-23708663D01*
X42152714Y-23693968D01*
X42173000Y-23681200D01*
X42194439Y-23670481D01*
X42216826Y-23661916D01*
X42239945Y-23655586D01*
X42263573Y-23651552D01*
X42287482Y-23649854D01*
X42311442Y-23650508D01*
X42311442Y-23650508D01*
G37*
D19*
X42484424Y-24213929D03*
D30*
X73006813Y-32723540D03*
D18*
G36*
X73697110Y-33709386D02*
G01*
X72020967Y-33413837D01*
X72316516Y-31737694D01*
X73992659Y-32033243D01*
X73697110Y-33709386D01*
X73697110Y-33709386D01*
G37*
D30*
X76831424Y-25660371D03*
D31*
X76831424Y-25660371D02*
X76831424Y-25660371D01*
D30*
X75508225Y-33164606D03*
D31*
X75508225Y-33164606D02*
X75508225Y-33164606D01*
D30*
X74330012Y-25219305D03*
D31*
X74330012Y-25219305D02*
X74330012Y-25219305D01*
D28*
X67330000Y-72310000D03*
X90830000Y-72310000D03*
D32*
X69180000Y-55810000D03*
X71680000Y-55810000D03*
X84180000Y-55810000D03*
X89180000Y-55810000D03*
D30*
X69327190Y-24337174D03*
D31*
X69327190Y-24337174D02*
X69327190Y-24337174D01*
D30*
X70505403Y-32282475D03*
D31*
X70505403Y-32282475D02*
X70505403Y-32282475D01*
D30*
X71828602Y-24778240D03*
D31*
X71828602Y-24778240D02*
X71828602Y-24778240D01*
D30*
X68003991Y-31841409D03*
D18*
G36*
X68694288Y-32827255D02*
G01*
X67018145Y-32531706D01*
X67313694Y-30855563D01*
X68989837Y-31151112D01*
X68694288Y-32827255D01*
X68694288Y-32827255D01*
G37*
D30*
X63001166Y-30959277D03*
D18*
G36*
X63691463Y-31945123D02*
G01*
X62015320Y-31649574D01*
X62310869Y-29973431D01*
X63987012Y-30268980D01*
X63691463Y-31945123D01*
X63691463Y-31945123D01*
G37*
D30*
X66825777Y-23896108D03*
D31*
X66825777Y-23896108D02*
X66825777Y-23896108D01*
D30*
X65502578Y-31400343D03*
D31*
X65502578Y-31400343D02*
X65502578Y-31400343D01*
D30*
X64324365Y-23455042D03*
D31*
X64324365Y-23455042D02*
X64324365Y-23455042D01*
D30*
X59321544Y-22572909D03*
D31*
X59321544Y-22572909D02*
X59321544Y-22572909D01*
D30*
X60499757Y-30518210D03*
D31*
X60499757Y-30518210D02*
X60499757Y-30518210D01*
D30*
X61822956Y-23013975D03*
D31*
X61822956Y-23013975D02*
X61822956Y-23013975D01*
D30*
X57998345Y-30077144D03*
D18*
G36*
X58688642Y-31062990D02*
G01*
X57012499Y-30767441D01*
X57308048Y-29091298D01*
X58984191Y-29386847D01*
X58688642Y-31062990D01*
X58688642Y-31062990D01*
G37*
D30*
X52995522Y-29195012D03*
D18*
G36*
X53685819Y-30180858D02*
G01*
X52009676Y-29885309D01*
X52305225Y-28209166D01*
X53981368Y-28504715D01*
X53685819Y-30180858D01*
X53685819Y-30180858D01*
G37*
D30*
X56820133Y-22131843D03*
D31*
X56820133Y-22131843D02*
X56820133Y-22131843D01*
D30*
X55496934Y-29636078D03*
D31*
X55496934Y-29636078D02*
X55496934Y-29636078D01*
D30*
X54318721Y-21690777D03*
D31*
X54318721Y-21690777D02*
X54318721Y-21690777D01*
D30*
X49315899Y-20808642D03*
D31*
X49315899Y-20808642D02*
X49315899Y-20808642D01*
D30*
X50494112Y-28753943D03*
D31*
X50494112Y-28753943D02*
X50494112Y-28753943D01*
D30*
X51817311Y-21249708D03*
D31*
X51817311Y-21249708D02*
X51817311Y-21249708D01*
D30*
X47992700Y-28312877D03*
D18*
G36*
X48682997Y-29298723D02*
G01*
X47006854Y-29003174D01*
X47302403Y-27327031D01*
X48978546Y-27622580D01*
X48682997Y-29298723D01*
X48682997Y-29298723D01*
G37*
M02*
