M48
; DRILL file {KiCad (5.1.2)-1} date 2019/08/22 1:39:05
; FORMAT={-:-/ absolute / metric / decimal}
; #@! TF.CreationDate,2019-08-22T01:39:05+09:00
; #@! TF.GenerationSoftware,Kicad,Pcbnew,(5.1.2)-1
FMAT,2
METRIC
T1C0.400
T2C0.750
T3C0.800
T4C0.950
T5C1.000
T6C1.800
T7C3.200
%
G90
G05
T1
X1.5Y-11.0
X1.5Y-24.0
X1.5Y-30.5
X1.5Y-43.0
X1.5Y-49.5
X1.5Y-74.0
X4.0Y-63.5
X7.5Y-63.5
X13.0Y-19.5
X13.0Y-28.5
X13.0Y-34.0
X13.0Y-37.0
X15.5Y-15.0
X15.5Y-73.5
X16.4Y-12.0
X16.5Y-66.0
X18.5Y-17.5
X18.5Y-47.5
X19.2Y-31.8
X20.5Y-44.0
X20.5Y-50.0
X23.0Y-52.5
X23.6Y-25.0
X24.2Y-40.6
X25.0Y-66.5
X26.0Y-49.0
X26.4Y-30.4
X28.5Y-17.5
X29.2Y-58.4
X30.5Y-61.0
X30.8Y-12.2
X33.0Y-47.6
X35.265Y-54.265
X38.5Y-11.0
X41.2Y-22.2
X45.5Y-39.0
X45.5Y-53.5
X46.0Y-19.5
X46.06Y-57.08
X47.5Y-62.5
X49.19Y-55.81
X49.5Y-26.5
X50.2Y-22.8
X52.5Y-53.5
X53.5Y-44.5
X54.5Y-27.5
X54.5Y-56.0
X55.4Y-23.8
X55.5Y-19.5
X56.8Y-66.0
X57.0Y-59.4
X59.5Y-28.5
X60.2Y-24.6
X61.0Y-55.5
X61.0Y-74.0
X61.5Y-19.5
X64.5Y-29.5
X65.4Y-25.6
X67.0Y-19.5
X68.0Y-39.0
X68.0Y-43.0
X69.5Y-30.0
X69.5Y-46.5
X70.4Y-26.6
X72.0Y-19.5
X74.0Y-65.5
X74.5Y-31.0
X75.4Y-27.4
X78.0Y-16.6
X79.8Y-25.4
X81.5Y-36.0
X85.5Y-65.5
X92.0Y-25.5
X97.5Y-12.0
X98.0Y-41.5
X98.0Y-74.0
T2
X4.88Y-45.65
X6.88Y-45.65
X8.88Y-45.65
X40.98Y-69.59
X40.98Y-71.59
X40.98Y-73.59
X74.0Y-13.9
X74.0Y-15.9
X4.88Y-26.6
X6.88Y-26.6
X8.88Y-26.6
X48.6Y-13.9
X48.6Y-15.9
X67.65Y-13.9
X67.65Y-15.9
X54.95Y-13.9
X54.95Y-15.9
X53.68Y-69.59
X53.68Y-71.59
X53.68Y-73.59
X4.88Y-13.9
X6.88Y-13.9
X8.88Y-13.9
X21.93Y-69.59
X21.93Y-71.59
X21.93Y-73.59
X4.88Y-39.3
X6.88Y-39.3
X8.88Y-39.3
X4.88Y-32.95
X6.88Y-32.95
X8.88Y-32.95
X34.63Y-69.59
X34.63Y-71.59
X34.63Y-73.59
X47.33Y-69.59
X47.33Y-71.59
X47.33Y-73.59
X42.25Y-13.9
X42.25Y-15.9
X4.88Y-20.25
X6.88Y-20.25
X8.88Y-20.25
X28.28Y-69.59
X28.28Y-71.59
X28.28Y-73.59
X4.88Y-52.0
X6.88Y-52.0
X8.88Y-52.0
X61.3Y-13.9
X61.3Y-15.9
X4.88Y-58.35
X6.88Y-58.35
X8.88Y-58.35
T3
X68.004Y-31.841
X69.327Y-24.337
X70.505Y-32.282
X71.829Y-24.778
X57.998Y-30.077
X59.322Y-22.573
X60.5Y-30.518
X61.823Y-23.014
X73.007Y-32.724
X74.33Y-25.219
X75.508Y-33.165
X76.831Y-25.66
X15.58Y-17.71
X15.58Y-20.25
X15.58Y-22.79
X15.58Y-25.33
X15.58Y-27.87
X15.58Y-30.41
X15.58Y-32.95
X15.58Y-35.49
X15.58Y-38.03
X15.58Y-40.57
X15.58Y-43.11
X15.58Y-45.65
X15.58Y-48.19
X15.58Y-50.73
X15.58Y-53.27
X30.82Y-17.71
X30.82Y-20.25
X30.82Y-22.79
X30.82Y-25.33
X30.82Y-27.87
X30.82Y-30.41
X30.82Y-32.95
X30.82Y-35.49
X30.82Y-38.03
X30.82Y-40.57
X30.82Y-43.11
X30.82Y-45.65
X30.82Y-48.19
X30.82Y-50.73
X30.82Y-53.27
X69.18Y-55.81
X71.68Y-55.81
X84.18Y-55.81
X89.18Y-55.81
X52.996Y-29.195
X54.319Y-21.691
X55.497Y-29.636
X56.82Y-22.132
X63.001Y-30.959
X64.324Y-23.455
X65.503Y-31.4
X66.826Y-23.896
X47.993Y-28.313
X49.316Y-20.809
X50.494Y-28.754
X51.817Y-21.25
T4
X10.0Y-65.5
X10.0Y-68.0
X10.0Y-70.5
X10.0Y-73.0
T5
X71.46Y-41.84
X76.46Y-41.84
X84.24Y-41.84
X89.24Y-41.84
T6
X94.65Y-18.3
X94.65Y-31.7
X67.33Y-72.31
X90.83Y-72.31
T7
X95.0Y-80.0
X75.0Y-5.0
X5.0Y-80.0
X35.0Y-5.0
X15.0Y-5.0
X75.0Y-80.0
X95.0Y-5.0
X55.0Y-80.0
X65.0Y-5.0
X45.0Y-80.0
X85.0Y-5.0
X65.0Y-80.0
X35.0Y-80.0
X5.0Y-5.0
X25.0Y-5.0
X45.0Y-5.0
X25.0Y-80.0
X55.0Y-5.0
X15.0Y-80.0
X85.0Y-80.0
T0
M30
