G04 #@! TF.GenerationSoftware,KiCad,Pcbnew,(5.1.2)-1*
G04 #@! TF.CreationDate,2019-08-22T01:38:59+09:00*
G04 #@! TF.ProjectId,AIR_SRV_SIX,4149525f-5352-4565-9f53-49582e6b6963,rev?*
G04 #@! TF.SameCoordinates,PXaba9500PY47868c0*
G04 #@! TF.FileFunction,Legend,Bot*
G04 #@! TF.FilePolarity,Positive*
%FSLAX46Y46*%
G04 Gerber Fmt 4.6, Leading zero omitted, Abs format (unit mm)*
G04 Created by KiCad (PCBNEW (5.1.2)-1) date 2019-08-22 01:38:59*
%MOMM*%
%LPD*%
G04 APERTURE LIST*
%ADD10C,3.302000*%
%ADD11R,1.702000X1.702000*%
%ADD12O,1.702000X1.702000*%
%ADD13R,2.102000X2.102000*%
%ADD14C,2.102000*%
%ADD15C,0.100000*%
%ADD16C,1.302000*%
%ADD17O,1.852000X1.302000*%
%ADD18O,1.302000X1.852000*%
%ADD19C,1.802000*%
%ADD20O,2.052000X1.802000*%
%ADD21C,2.602000*%
%ADD22C,1.702000*%
%ADD23C,1.702000*%
%ADD24C,1.626000*%
G04 APERTURE END LIST*
%LPC*%
D10*
X95000000Y-5000000D03*
X75000000Y-5000000D03*
X85000000Y-5000000D03*
X65000000Y-5000000D03*
X55000000Y-5000000D03*
X25000000Y-5000000D03*
X45000000Y-5000000D03*
X35000000Y-5000000D03*
X15000000Y-5000000D03*
X5000000Y-5000000D03*
X75000000Y-80000000D03*
X95000000Y-80000000D03*
X85000000Y-80000000D03*
X65000000Y-80000000D03*
X55000000Y-80000000D03*
X45000000Y-80000000D03*
X35000000Y-80000000D03*
X25000000Y-80000000D03*
X15000000Y-80000000D03*
X5000000Y-80000000D03*
D11*
X30820000Y-53270000D03*
D12*
X15580000Y-20250000D03*
X30820000Y-50730000D03*
X15580000Y-22790000D03*
X30820000Y-48190000D03*
X15580000Y-25330000D03*
X30820000Y-45650000D03*
X15580000Y-27870000D03*
X30820000Y-43110000D03*
X15580000Y-30410000D03*
X30820000Y-40570000D03*
X15580000Y-32950000D03*
X30820000Y-38030000D03*
X15580000Y-35490000D03*
X30820000Y-35490000D03*
X15580000Y-38030000D03*
X30820000Y-32950000D03*
X15580000Y-40570000D03*
X30820000Y-30410000D03*
X15580000Y-43110000D03*
X30820000Y-27870000D03*
X15580000Y-45650000D03*
X30820000Y-25330000D03*
X15580000Y-48190000D03*
X30820000Y-22790000D03*
X15580000Y-50730000D03*
X30820000Y-20250000D03*
X15580000Y-53270000D03*
X30820000Y-17710000D03*
X15580000Y-17710000D03*
D13*
X89240000Y-41840000D03*
D14*
X84240000Y-41840000D03*
D13*
X71460000Y-41840000D03*
D14*
X76460000Y-41840000D03*
D15*
G36*
X22611338Y-72940306D02*
G01*
X22637669Y-72944212D01*
X22663490Y-72950680D01*
X22688553Y-72959648D01*
X22712617Y-72971029D01*
X22735449Y-72984714D01*
X22756830Y-73000571D01*
X22776553Y-73018447D01*
X22794429Y-73038170D01*
X22810286Y-73059551D01*
X22823971Y-73082383D01*
X22835352Y-73106447D01*
X22844320Y-73131510D01*
X22850788Y-73157331D01*
X22854694Y-73183662D01*
X22856000Y-73210249D01*
X22856000Y-73969751D01*
X22854694Y-73996338D01*
X22850788Y-74022669D01*
X22844320Y-74048490D01*
X22835352Y-74073553D01*
X22823971Y-74097617D01*
X22810286Y-74120449D01*
X22794429Y-74141830D01*
X22776553Y-74161553D01*
X22756830Y-74179429D01*
X22735449Y-74195286D01*
X22712617Y-74208971D01*
X22688553Y-74220352D01*
X22663490Y-74229320D01*
X22637669Y-74235788D01*
X22611338Y-74239694D01*
X22584751Y-74241000D01*
X21275249Y-74241000D01*
X21248662Y-74239694D01*
X21222331Y-74235788D01*
X21196510Y-74229320D01*
X21171447Y-74220352D01*
X21147383Y-74208971D01*
X21124551Y-74195286D01*
X21103170Y-74179429D01*
X21083447Y-74161553D01*
X21065571Y-74141830D01*
X21049714Y-74120449D01*
X21036029Y-74097617D01*
X21024648Y-74073553D01*
X21015680Y-74048490D01*
X21009212Y-74022669D01*
X21005306Y-73996338D01*
X21004000Y-73969751D01*
X21004000Y-73210249D01*
X21005306Y-73183662D01*
X21009212Y-73157331D01*
X21015680Y-73131510D01*
X21024648Y-73106447D01*
X21036029Y-73082383D01*
X21049714Y-73059551D01*
X21065571Y-73038170D01*
X21083447Y-73018447D01*
X21103170Y-73000571D01*
X21124551Y-72984714D01*
X21147383Y-72971029D01*
X21171447Y-72959648D01*
X21196510Y-72950680D01*
X21222331Y-72944212D01*
X21248662Y-72940306D01*
X21275249Y-72939000D01*
X22584751Y-72939000D01*
X22611338Y-72940306D01*
X22611338Y-72940306D01*
G37*
D16*
X21930000Y-73590000D03*
D17*
X21930000Y-71590000D03*
X21930000Y-69590000D03*
D15*
G36*
X28961338Y-72940306D02*
G01*
X28987669Y-72944212D01*
X29013490Y-72950680D01*
X29038553Y-72959648D01*
X29062617Y-72971029D01*
X29085449Y-72984714D01*
X29106830Y-73000571D01*
X29126553Y-73018447D01*
X29144429Y-73038170D01*
X29160286Y-73059551D01*
X29173971Y-73082383D01*
X29185352Y-73106447D01*
X29194320Y-73131510D01*
X29200788Y-73157331D01*
X29204694Y-73183662D01*
X29206000Y-73210249D01*
X29206000Y-73969751D01*
X29204694Y-73996338D01*
X29200788Y-74022669D01*
X29194320Y-74048490D01*
X29185352Y-74073553D01*
X29173971Y-74097617D01*
X29160286Y-74120449D01*
X29144429Y-74141830D01*
X29126553Y-74161553D01*
X29106830Y-74179429D01*
X29085449Y-74195286D01*
X29062617Y-74208971D01*
X29038553Y-74220352D01*
X29013490Y-74229320D01*
X28987669Y-74235788D01*
X28961338Y-74239694D01*
X28934751Y-74241000D01*
X27625249Y-74241000D01*
X27598662Y-74239694D01*
X27572331Y-74235788D01*
X27546510Y-74229320D01*
X27521447Y-74220352D01*
X27497383Y-74208971D01*
X27474551Y-74195286D01*
X27453170Y-74179429D01*
X27433447Y-74161553D01*
X27415571Y-74141830D01*
X27399714Y-74120449D01*
X27386029Y-74097617D01*
X27374648Y-74073553D01*
X27365680Y-74048490D01*
X27359212Y-74022669D01*
X27355306Y-73996338D01*
X27354000Y-73969751D01*
X27354000Y-73210249D01*
X27355306Y-73183662D01*
X27359212Y-73157331D01*
X27365680Y-73131510D01*
X27374648Y-73106447D01*
X27386029Y-73082383D01*
X27399714Y-73059551D01*
X27415571Y-73038170D01*
X27433447Y-73018447D01*
X27453170Y-73000571D01*
X27474551Y-72984714D01*
X27497383Y-72971029D01*
X27521447Y-72959648D01*
X27546510Y-72950680D01*
X27572331Y-72944212D01*
X27598662Y-72940306D01*
X27625249Y-72939000D01*
X28934751Y-72939000D01*
X28961338Y-72940306D01*
X28961338Y-72940306D01*
G37*
D16*
X28280000Y-73590000D03*
D17*
X28280000Y-71590000D03*
X28280000Y-69590000D03*
D15*
G36*
X35311338Y-72940306D02*
G01*
X35337669Y-72944212D01*
X35363490Y-72950680D01*
X35388553Y-72959648D01*
X35412617Y-72971029D01*
X35435449Y-72984714D01*
X35456830Y-73000571D01*
X35476553Y-73018447D01*
X35494429Y-73038170D01*
X35510286Y-73059551D01*
X35523971Y-73082383D01*
X35535352Y-73106447D01*
X35544320Y-73131510D01*
X35550788Y-73157331D01*
X35554694Y-73183662D01*
X35556000Y-73210249D01*
X35556000Y-73969751D01*
X35554694Y-73996338D01*
X35550788Y-74022669D01*
X35544320Y-74048490D01*
X35535352Y-74073553D01*
X35523971Y-74097617D01*
X35510286Y-74120449D01*
X35494429Y-74141830D01*
X35476553Y-74161553D01*
X35456830Y-74179429D01*
X35435449Y-74195286D01*
X35412617Y-74208971D01*
X35388553Y-74220352D01*
X35363490Y-74229320D01*
X35337669Y-74235788D01*
X35311338Y-74239694D01*
X35284751Y-74241000D01*
X33975249Y-74241000D01*
X33948662Y-74239694D01*
X33922331Y-74235788D01*
X33896510Y-74229320D01*
X33871447Y-74220352D01*
X33847383Y-74208971D01*
X33824551Y-74195286D01*
X33803170Y-74179429D01*
X33783447Y-74161553D01*
X33765571Y-74141830D01*
X33749714Y-74120449D01*
X33736029Y-74097617D01*
X33724648Y-74073553D01*
X33715680Y-74048490D01*
X33709212Y-74022669D01*
X33705306Y-73996338D01*
X33704000Y-73969751D01*
X33704000Y-73210249D01*
X33705306Y-73183662D01*
X33709212Y-73157331D01*
X33715680Y-73131510D01*
X33724648Y-73106447D01*
X33736029Y-73082383D01*
X33749714Y-73059551D01*
X33765571Y-73038170D01*
X33783447Y-73018447D01*
X33803170Y-73000571D01*
X33824551Y-72984714D01*
X33847383Y-72971029D01*
X33871447Y-72959648D01*
X33896510Y-72950680D01*
X33922331Y-72944212D01*
X33948662Y-72940306D01*
X33975249Y-72939000D01*
X35284751Y-72939000D01*
X35311338Y-72940306D01*
X35311338Y-72940306D01*
G37*
D16*
X34630000Y-73590000D03*
D17*
X34630000Y-71590000D03*
X34630000Y-69590000D03*
D18*
X8880000Y-13900000D03*
X6880000Y-13900000D03*
D15*
G36*
X5286338Y-12975306D02*
G01*
X5312669Y-12979212D01*
X5338490Y-12985680D01*
X5363553Y-12994648D01*
X5387617Y-13006029D01*
X5410449Y-13019714D01*
X5431830Y-13035571D01*
X5451553Y-13053447D01*
X5469429Y-13073170D01*
X5485286Y-13094551D01*
X5498971Y-13117383D01*
X5510352Y-13141447D01*
X5519320Y-13166510D01*
X5525788Y-13192331D01*
X5529694Y-13218662D01*
X5531000Y-13245249D01*
X5531000Y-14554751D01*
X5529694Y-14581338D01*
X5525788Y-14607669D01*
X5519320Y-14633490D01*
X5510352Y-14658553D01*
X5498971Y-14682617D01*
X5485286Y-14705449D01*
X5469429Y-14726830D01*
X5451553Y-14746553D01*
X5431830Y-14764429D01*
X5410449Y-14780286D01*
X5387617Y-14793971D01*
X5363553Y-14805352D01*
X5338490Y-14814320D01*
X5312669Y-14820788D01*
X5286338Y-14824694D01*
X5259751Y-14826000D01*
X4500249Y-14826000D01*
X4473662Y-14824694D01*
X4447331Y-14820788D01*
X4421510Y-14814320D01*
X4396447Y-14805352D01*
X4372383Y-14793971D01*
X4349551Y-14780286D01*
X4328170Y-14764429D01*
X4308447Y-14746553D01*
X4290571Y-14726830D01*
X4274714Y-14705449D01*
X4261029Y-14682617D01*
X4249648Y-14658553D01*
X4240680Y-14633490D01*
X4234212Y-14607669D01*
X4230306Y-14581338D01*
X4229000Y-14554751D01*
X4229000Y-13245249D01*
X4230306Y-13218662D01*
X4234212Y-13192331D01*
X4240680Y-13166510D01*
X4249648Y-13141447D01*
X4261029Y-13117383D01*
X4274714Y-13094551D01*
X4290571Y-13073170D01*
X4308447Y-13053447D01*
X4328170Y-13035571D01*
X4349551Y-13019714D01*
X4372383Y-13006029D01*
X4396447Y-12994648D01*
X4421510Y-12985680D01*
X4447331Y-12979212D01*
X4473662Y-12975306D01*
X4500249Y-12974000D01*
X5259751Y-12974000D01*
X5286338Y-12975306D01*
X5286338Y-12975306D01*
G37*
D16*
X4880000Y-13900000D03*
D15*
G36*
X10786975Y-64600276D02*
G01*
X10812699Y-64604092D01*
X10837925Y-64610411D01*
X10862411Y-64619172D01*
X10885920Y-64630291D01*
X10908226Y-64643661D01*
X10929114Y-64659152D01*
X10948383Y-64676617D01*
X10965848Y-64695886D01*
X10981339Y-64716774D01*
X10994709Y-64739080D01*
X11005828Y-64762589D01*
X11014589Y-64787075D01*
X11020908Y-64812301D01*
X11024724Y-64838025D01*
X11026000Y-64864000D01*
X11026000Y-66136000D01*
X11024724Y-66161975D01*
X11020908Y-66187699D01*
X11014589Y-66212925D01*
X11005828Y-66237411D01*
X10994709Y-66260920D01*
X10981339Y-66283226D01*
X10965848Y-66304114D01*
X10948383Y-66323383D01*
X10929114Y-66340848D01*
X10908226Y-66356339D01*
X10885920Y-66369709D01*
X10862411Y-66380828D01*
X10837925Y-66389589D01*
X10812699Y-66395908D01*
X10786975Y-66399724D01*
X10761000Y-66401000D01*
X9239000Y-66401000D01*
X9213025Y-66399724D01*
X9187301Y-66395908D01*
X9162075Y-66389589D01*
X9137589Y-66380828D01*
X9114080Y-66369709D01*
X9091774Y-66356339D01*
X9070886Y-66340848D01*
X9051617Y-66323383D01*
X9034152Y-66304114D01*
X9018661Y-66283226D01*
X9005291Y-66260920D01*
X8994172Y-66237411D01*
X8985411Y-66212925D01*
X8979092Y-66187699D01*
X8975276Y-66161975D01*
X8974000Y-66136000D01*
X8974000Y-64864000D01*
X8975276Y-64838025D01*
X8979092Y-64812301D01*
X8985411Y-64787075D01*
X8994172Y-64762589D01*
X9005291Y-64739080D01*
X9018661Y-64716774D01*
X9034152Y-64695886D01*
X9051617Y-64676617D01*
X9070886Y-64659152D01*
X9091774Y-64643661D01*
X9114080Y-64630291D01*
X9137589Y-64619172D01*
X9162075Y-64610411D01*
X9187301Y-64604092D01*
X9213025Y-64600276D01*
X9239000Y-64599000D01*
X10761000Y-64599000D01*
X10786975Y-64600276D01*
X10786975Y-64600276D01*
G37*
D19*
X10000000Y-65500000D03*
D20*
X10000000Y-68000000D03*
X10000000Y-70500000D03*
X10000000Y-73000000D03*
D17*
X40980000Y-69590000D03*
X40980000Y-71590000D03*
D15*
G36*
X41661338Y-72940306D02*
G01*
X41687669Y-72944212D01*
X41713490Y-72950680D01*
X41738553Y-72959648D01*
X41762617Y-72971029D01*
X41785449Y-72984714D01*
X41806830Y-73000571D01*
X41826553Y-73018447D01*
X41844429Y-73038170D01*
X41860286Y-73059551D01*
X41873971Y-73082383D01*
X41885352Y-73106447D01*
X41894320Y-73131510D01*
X41900788Y-73157331D01*
X41904694Y-73183662D01*
X41906000Y-73210249D01*
X41906000Y-73969751D01*
X41904694Y-73996338D01*
X41900788Y-74022669D01*
X41894320Y-74048490D01*
X41885352Y-74073553D01*
X41873971Y-74097617D01*
X41860286Y-74120449D01*
X41844429Y-74141830D01*
X41826553Y-74161553D01*
X41806830Y-74179429D01*
X41785449Y-74195286D01*
X41762617Y-74208971D01*
X41738553Y-74220352D01*
X41713490Y-74229320D01*
X41687669Y-74235788D01*
X41661338Y-74239694D01*
X41634751Y-74241000D01*
X40325249Y-74241000D01*
X40298662Y-74239694D01*
X40272331Y-74235788D01*
X40246510Y-74229320D01*
X40221447Y-74220352D01*
X40197383Y-74208971D01*
X40174551Y-74195286D01*
X40153170Y-74179429D01*
X40133447Y-74161553D01*
X40115571Y-74141830D01*
X40099714Y-74120449D01*
X40086029Y-74097617D01*
X40074648Y-74073553D01*
X40065680Y-74048490D01*
X40059212Y-74022669D01*
X40055306Y-73996338D01*
X40054000Y-73969751D01*
X40054000Y-73210249D01*
X40055306Y-73183662D01*
X40059212Y-73157331D01*
X40065680Y-73131510D01*
X40074648Y-73106447D01*
X40086029Y-73082383D01*
X40099714Y-73059551D01*
X40115571Y-73038170D01*
X40133447Y-73018447D01*
X40153170Y-73000571D01*
X40174551Y-72984714D01*
X40197383Y-72971029D01*
X40221447Y-72959648D01*
X40246510Y-72950680D01*
X40272331Y-72944212D01*
X40298662Y-72940306D01*
X40325249Y-72939000D01*
X41634751Y-72939000D01*
X41661338Y-72940306D01*
X41661338Y-72940306D01*
G37*
D16*
X40980000Y-73590000D03*
D15*
G36*
X5286338Y-19325306D02*
G01*
X5312669Y-19329212D01*
X5338490Y-19335680D01*
X5363553Y-19344648D01*
X5387617Y-19356029D01*
X5410449Y-19369714D01*
X5431830Y-19385571D01*
X5451553Y-19403447D01*
X5469429Y-19423170D01*
X5485286Y-19444551D01*
X5498971Y-19467383D01*
X5510352Y-19491447D01*
X5519320Y-19516510D01*
X5525788Y-19542331D01*
X5529694Y-19568662D01*
X5531000Y-19595249D01*
X5531000Y-20904751D01*
X5529694Y-20931338D01*
X5525788Y-20957669D01*
X5519320Y-20983490D01*
X5510352Y-21008553D01*
X5498971Y-21032617D01*
X5485286Y-21055449D01*
X5469429Y-21076830D01*
X5451553Y-21096553D01*
X5431830Y-21114429D01*
X5410449Y-21130286D01*
X5387617Y-21143971D01*
X5363553Y-21155352D01*
X5338490Y-21164320D01*
X5312669Y-21170788D01*
X5286338Y-21174694D01*
X5259751Y-21176000D01*
X4500249Y-21176000D01*
X4473662Y-21174694D01*
X4447331Y-21170788D01*
X4421510Y-21164320D01*
X4396447Y-21155352D01*
X4372383Y-21143971D01*
X4349551Y-21130286D01*
X4328170Y-21114429D01*
X4308447Y-21096553D01*
X4290571Y-21076830D01*
X4274714Y-21055449D01*
X4261029Y-21032617D01*
X4249648Y-21008553D01*
X4240680Y-20983490D01*
X4234212Y-20957669D01*
X4230306Y-20931338D01*
X4229000Y-20904751D01*
X4229000Y-19595249D01*
X4230306Y-19568662D01*
X4234212Y-19542331D01*
X4240680Y-19516510D01*
X4249648Y-19491447D01*
X4261029Y-19467383D01*
X4274714Y-19444551D01*
X4290571Y-19423170D01*
X4308447Y-19403447D01*
X4328170Y-19385571D01*
X4349551Y-19369714D01*
X4372383Y-19356029D01*
X4396447Y-19344648D01*
X4421510Y-19335680D01*
X4447331Y-19329212D01*
X4473662Y-19325306D01*
X4500249Y-19324000D01*
X5259751Y-19324000D01*
X5286338Y-19325306D01*
X5286338Y-19325306D01*
G37*
D16*
X4880000Y-20250000D03*
D18*
X6880000Y-20250000D03*
X8880000Y-20250000D03*
X8880000Y-26600000D03*
X6880000Y-26600000D03*
D15*
G36*
X5286338Y-25675306D02*
G01*
X5312669Y-25679212D01*
X5338490Y-25685680D01*
X5363553Y-25694648D01*
X5387617Y-25706029D01*
X5410449Y-25719714D01*
X5431830Y-25735571D01*
X5451553Y-25753447D01*
X5469429Y-25773170D01*
X5485286Y-25794551D01*
X5498971Y-25817383D01*
X5510352Y-25841447D01*
X5519320Y-25866510D01*
X5525788Y-25892331D01*
X5529694Y-25918662D01*
X5531000Y-25945249D01*
X5531000Y-27254751D01*
X5529694Y-27281338D01*
X5525788Y-27307669D01*
X5519320Y-27333490D01*
X5510352Y-27358553D01*
X5498971Y-27382617D01*
X5485286Y-27405449D01*
X5469429Y-27426830D01*
X5451553Y-27446553D01*
X5431830Y-27464429D01*
X5410449Y-27480286D01*
X5387617Y-27493971D01*
X5363553Y-27505352D01*
X5338490Y-27514320D01*
X5312669Y-27520788D01*
X5286338Y-27524694D01*
X5259751Y-27526000D01*
X4500249Y-27526000D01*
X4473662Y-27524694D01*
X4447331Y-27520788D01*
X4421510Y-27514320D01*
X4396447Y-27505352D01*
X4372383Y-27493971D01*
X4349551Y-27480286D01*
X4328170Y-27464429D01*
X4308447Y-27446553D01*
X4290571Y-27426830D01*
X4274714Y-27405449D01*
X4261029Y-27382617D01*
X4249648Y-27358553D01*
X4240680Y-27333490D01*
X4234212Y-27307669D01*
X4230306Y-27281338D01*
X4229000Y-27254751D01*
X4229000Y-25945249D01*
X4230306Y-25918662D01*
X4234212Y-25892331D01*
X4240680Y-25866510D01*
X4249648Y-25841447D01*
X4261029Y-25817383D01*
X4274714Y-25794551D01*
X4290571Y-25773170D01*
X4308447Y-25753447D01*
X4328170Y-25735571D01*
X4349551Y-25719714D01*
X4372383Y-25706029D01*
X4396447Y-25694648D01*
X4421510Y-25685680D01*
X4447331Y-25679212D01*
X4473662Y-25675306D01*
X4500249Y-25674000D01*
X5259751Y-25674000D01*
X5286338Y-25675306D01*
X5286338Y-25675306D01*
G37*
D16*
X4880000Y-26600000D03*
D15*
G36*
X48011338Y-72940306D02*
G01*
X48037669Y-72944212D01*
X48063490Y-72950680D01*
X48088553Y-72959648D01*
X48112617Y-72971029D01*
X48135449Y-72984714D01*
X48156830Y-73000571D01*
X48176553Y-73018447D01*
X48194429Y-73038170D01*
X48210286Y-73059551D01*
X48223971Y-73082383D01*
X48235352Y-73106447D01*
X48244320Y-73131510D01*
X48250788Y-73157331D01*
X48254694Y-73183662D01*
X48256000Y-73210249D01*
X48256000Y-73969751D01*
X48254694Y-73996338D01*
X48250788Y-74022669D01*
X48244320Y-74048490D01*
X48235352Y-74073553D01*
X48223971Y-74097617D01*
X48210286Y-74120449D01*
X48194429Y-74141830D01*
X48176553Y-74161553D01*
X48156830Y-74179429D01*
X48135449Y-74195286D01*
X48112617Y-74208971D01*
X48088553Y-74220352D01*
X48063490Y-74229320D01*
X48037669Y-74235788D01*
X48011338Y-74239694D01*
X47984751Y-74241000D01*
X46675249Y-74241000D01*
X46648662Y-74239694D01*
X46622331Y-74235788D01*
X46596510Y-74229320D01*
X46571447Y-74220352D01*
X46547383Y-74208971D01*
X46524551Y-74195286D01*
X46503170Y-74179429D01*
X46483447Y-74161553D01*
X46465571Y-74141830D01*
X46449714Y-74120449D01*
X46436029Y-74097617D01*
X46424648Y-74073553D01*
X46415680Y-74048490D01*
X46409212Y-74022669D01*
X46405306Y-73996338D01*
X46404000Y-73969751D01*
X46404000Y-73210249D01*
X46405306Y-73183662D01*
X46409212Y-73157331D01*
X46415680Y-73131510D01*
X46424648Y-73106447D01*
X46436029Y-73082383D01*
X46449714Y-73059551D01*
X46465571Y-73038170D01*
X46483447Y-73018447D01*
X46503170Y-73000571D01*
X46524551Y-72984714D01*
X46547383Y-72971029D01*
X46571447Y-72959648D01*
X46596510Y-72950680D01*
X46622331Y-72944212D01*
X46648662Y-72940306D01*
X46675249Y-72939000D01*
X47984751Y-72939000D01*
X48011338Y-72940306D01*
X48011338Y-72940306D01*
G37*
D16*
X47330000Y-73590000D03*
D17*
X47330000Y-71590000D03*
X47330000Y-69590000D03*
D18*
X8880000Y-32950000D03*
X6880000Y-32950000D03*
D15*
G36*
X5286338Y-32025306D02*
G01*
X5312669Y-32029212D01*
X5338490Y-32035680D01*
X5363553Y-32044648D01*
X5387617Y-32056029D01*
X5410449Y-32069714D01*
X5431830Y-32085571D01*
X5451553Y-32103447D01*
X5469429Y-32123170D01*
X5485286Y-32144551D01*
X5498971Y-32167383D01*
X5510352Y-32191447D01*
X5519320Y-32216510D01*
X5525788Y-32242331D01*
X5529694Y-32268662D01*
X5531000Y-32295249D01*
X5531000Y-33604751D01*
X5529694Y-33631338D01*
X5525788Y-33657669D01*
X5519320Y-33683490D01*
X5510352Y-33708553D01*
X5498971Y-33732617D01*
X5485286Y-33755449D01*
X5469429Y-33776830D01*
X5451553Y-33796553D01*
X5431830Y-33814429D01*
X5410449Y-33830286D01*
X5387617Y-33843971D01*
X5363553Y-33855352D01*
X5338490Y-33864320D01*
X5312669Y-33870788D01*
X5286338Y-33874694D01*
X5259751Y-33876000D01*
X4500249Y-33876000D01*
X4473662Y-33874694D01*
X4447331Y-33870788D01*
X4421510Y-33864320D01*
X4396447Y-33855352D01*
X4372383Y-33843971D01*
X4349551Y-33830286D01*
X4328170Y-33814429D01*
X4308447Y-33796553D01*
X4290571Y-33776830D01*
X4274714Y-33755449D01*
X4261029Y-33732617D01*
X4249648Y-33708553D01*
X4240680Y-33683490D01*
X4234212Y-33657669D01*
X4230306Y-33631338D01*
X4229000Y-33604751D01*
X4229000Y-32295249D01*
X4230306Y-32268662D01*
X4234212Y-32242331D01*
X4240680Y-32216510D01*
X4249648Y-32191447D01*
X4261029Y-32167383D01*
X4274714Y-32144551D01*
X4290571Y-32123170D01*
X4308447Y-32103447D01*
X4328170Y-32085571D01*
X4349551Y-32069714D01*
X4372383Y-32056029D01*
X4396447Y-32044648D01*
X4421510Y-32035680D01*
X4447331Y-32029212D01*
X4473662Y-32025306D01*
X4500249Y-32024000D01*
X5259751Y-32024000D01*
X5286338Y-32025306D01*
X5286338Y-32025306D01*
G37*
D16*
X4880000Y-32950000D03*
D17*
X53680000Y-69590000D03*
X53680000Y-71590000D03*
D15*
G36*
X54361338Y-72940306D02*
G01*
X54387669Y-72944212D01*
X54413490Y-72950680D01*
X54438553Y-72959648D01*
X54462617Y-72971029D01*
X54485449Y-72984714D01*
X54506830Y-73000571D01*
X54526553Y-73018447D01*
X54544429Y-73038170D01*
X54560286Y-73059551D01*
X54573971Y-73082383D01*
X54585352Y-73106447D01*
X54594320Y-73131510D01*
X54600788Y-73157331D01*
X54604694Y-73183662D01*
X54606000Y-73210249D01*
X54606000Y-73969751D01*
X54604694Y-73996338D01*
X54600788Y-74022669D01*
X54594320Y-74048490D01*
X54585352Y-74073553D01*
X54573971Y-74097617D01*
X54560286Y-74120449D01*
X54544429Y-74141830D01*
X54526553Y-74161553D01*
X54506830Y-74179429D01*
X54485449Y-74195286D01*
X54462617Y-74208971D01*
X54438553Y-74220352D01*
X54413490Y-74229320D01*
X54387669Y-74235788D01*
X54361338Y-74239694D01*
X54334751Y-74241000D01*
X53025249Y-74241000D01*
X52998662Y-74239694D01*
X52972331Y-74235788D01*
X52946510Y-74229320D01*
X52921447Y-74220352D01*
X52897383Y-74208971D01*
X52874551Y-74195286D01*
X52853170Y-74179429D01*
X52833447Y-74161553D01*
X52815571Y-74141830D01*
X52799714Y-74120449D01*
X52786029Y-74097617D01*
X52774648Y-74073553D01*
X52765680Y-74048490D01*
X52759212Y-74022669D01*
X52755306Y-73996338D01*
X52754000Y-73969751D01*
X52754000Y-73210249D01*
X52755306Y-73183662D01*
X52759212Y-73157331D01*
X52765680Y-73131510D01*
X52774648Y-73106447D01*
X52786029Y-73082383D01*
X52799714Y-73059551D01*
X52815571Y-73038170D01*
X52833447Y-73018447D01*
X52853170Y-73000571D01*
X52874551Y-72984714D01*
X52897383Y-72971029D01*
X52921447Y-72959648D01*
X52946510Y-72950680D01*
X52972331Y-72944212D01*
X52998662Y-72940306D01*
X53025249Y-72939000D01*
X54334751Y-72939000D01*
X54361338Y-72940306D01*
X54361338Y-72940306D01*
G37*
D16*
X53680000Y-73590000D03*
D18*
X8880000Y-39300000D03*
X6880000Y-39300000D03*
D15*
G36*
X5286338Y-38375306D02*
G01*
X5312669Y-38379212D01*
X5338490Y-38385680D01*
X5363553Y-38394648D01*
X5387617Y-38406029D01*
X5410449Y-38419714D01*
X5431830Y-38435571D01*
X5451553Y-38453447D01*
X5469429Y-38473170D01*
X5485286Y-38494551D01*
X5498971Y-38517383D01*
X5510352Y-38541447D01*
X5519320Y-38566510D01*
X5525788Y-38592331D01*
X5529694Y-38618662D01*
X5531000Y-38645249D01*
X5531000Y-39954751D01*
X5529694Y-39981338D01*
X5525788Y-40007669D01*
X5519320Y-40033490D01*
X5510352Y-40058553D01*
X5498971Y-40082617D01*
X5485286Y-40105449D01*
X5469429Y-40126830D01*
X5451553Y-40146553D01*
X5431830Y-40164429D01*
X5410449Y-40180286D01*
X5387617Y-40193971D01*
X5363553Y-40205352D01*
X5338490Y-40214320D01*
X5312669Y-40220788D01*
X5286338Y-40224694D01*
X5259751Y-40226000D01*
X4500249Y-40226000D01*
X4473662Y-40224694D01*
X4447331Y-40220788D01*
X4421510Y-40214320D01*
X4396447Y-40205352D01*
X4372383Y-40193971D01*
X4349551Y-40180286D01*
X4328170Y-40164429D01*
X4308447Y-40146553D01*
X4290571Y-40126830D01*
X4274714Y-40105449D01*
X4261029Y-40082617D01*
X4249648Y-40058553D01*
X4240680Y-40033490D01*
X4234212Y-40007669D01*
X4230306Y-39981338D01*
X4229000Y-39954751D01*
X4229000Y-38645249D01*
X4230306Y-38618662D01*
X4234212Y-38592331D01*
X4240680Y-38566510D01*
X4249648Y-38541447D01*
X4261029Y-38517383D01*
X4274714Y-38494551D01*
X4290571Y-38473170D01*
X4308447Y-38453447D01*
X4328170Y-38435571D01*
X4349551Y-38419714D01*
X4372383Y-38406029D01*
X4396447Y-38394648D01*
X4421510Y-38385680D01*
X4447331Y-38379212D01*
X4473662Y-38375306D01*
X4500249Y-38374000D01*
X5259751Y-38374000D01*
X5286338Y-38375306D01*
X5286338Y-38375306D01*
G37*
D16*
X4880000Y-39300000D03*
D15*
G36*
X5286338Y-44725306D02*
G01*
X5312669Y-44729212D01*
X5338490Y-44735680D01*
X5363553Y-44744648D01*
X5387617Y-44756029D01*
X5410449Y-44769714D01*
X5431830Y-44785571D01*
X5451553Y-44803447D01*
X5469429Y-44823170D01*
X5485286Y-44844551D01*
X5498971Y-44867383D01*
X5510352Y-44891447D01*
X5519320Y-44916510D01*
X5525788Y-44942331D01*
X5529694Y-44968662D01*
X5531000Y-44995249D01*
X5531000Y-46304751D01*
X5529694Y-46331338D01*
X5525788Y-46357669D01*
X5519320Y-46383490D01*
X5510352Y-46408553D01*
X5498971Y-46432617D01*
X5485286Y-46455449D01*
X5469429Y-46476830D01*
X5451553Y-46496553D01*
X5431830Y-46514429D01*
X5410449Y-46530286D01*
X5387617Y-46543971D01*
X5363553Y-46555352D01*
X5338490Y-46564320D01*
X5312669Y-46570788D01*
X5286338Y-46574694D01*
X5259751Y-46576000D01*
X4500249Y-46576000D01*
X4473662Y-46574694D01*
X4447331Y-46570788D01*
X4421510Y-46564320D01*
X4396447Y-46555352D01*
X4372383Y-46543971D01*
X4349551Y-46530286D01*
X4328170Y-46514429D01*
X4308447Y-46496553D01*
X4290571Y-46476830D01*
X4274714Y-46455449D01*
X4261029Y-46432617D01*
X4249648Y-46408553D01*
X4240680Y-46383490D01*
X4234212Y-46357669D01*
X4230306Y-46331338D01*
X4229000Y-46304751D01*
X4229000Y-44995249D01*
X4230306Y-44968662D01*
X4234212Y-44942331D01*
X4240680Y-44916510D01*
X4249648Y-44891447D01*
X4261029Y-44867383D01*
X4274714Y-44844551D01*
X4290571Y-44823170D01*
X4308447Y-44803447D01*
X4328170Y-44785571D01*
X4349551Y-44769714D01*
X4372383Y-44756029D01*
X4396447Y-44744648D01*
X4421510Y-44735680D01*
X4447331Y-44729212D01*
X4473662Y-44725306D01*
X4500249Y-44724000D01*
X5259751Y-44724000D01*
X5286338Y-44725306D01*
X5286338Y-44725306D01*
G37*
D16*
X4880000Y-45650000D03*
D18*
X6880000Y-45650000D03*
X8880000Y-45650000D03*
X8880000Y-52000000D03*
X6880000Y-52000000D03*
D15*
G36*
X5286338Y-51075306D02*
G01*
X5312669Y-51079212D01*
X5338490Y-51085680D01*
X5363553Y-51094648D01*
X5387617Y-51106029D01*
X5410449Y-51119714D01*
X5431830Y-51135571D01*
X5451553Y-51153447D01*
X5469429Y-51173170D01*
X5485286Y-51194551D01*
X5498971Y-51217383D01*
X5510352Y-51241447D01*
X5519320Y-51266510D01*
X5525788Y-51292331D01*
X5529694Y-51318662D01*
X5531000Y-51345249D01*
X5531000Y-52654751D01*
X5529694Y-52681338D01*
X5525788Y-52707669D01*
X5519320Y-52733490D01*
X5510352Y-52758553D01*
X5498971Y-52782617D01*
X5485286Y-52805449D01*
X5469429Y-52826830D01*
X5451553Y-52846553D01*
X5431830Y-52864429D01*
X5410449Y-52880286D01*
X5387617Y-52893971D01*
X5363553Y-52905352D01*
X5338490Y-52914320D01*
X5312669Y-52920788D01*
X5286338Y-52924694D01*
X5259751Y-52926000D01*
X4500249Y-52926000D01*
X4473662Y-52924694D01*
X4447331Y-52920788D01*
X4421510Y-52914320D01*
X4396447Y-52905352D01*
X4372383Y-52893971D01*
X4349551Y-52880286D01*
X4328170Y-52864429D01*
X4308447Y-52846553D01*
X4290571Y-52826830D01*
X4274714Y-52805449D01*
X4261029Y-52782617D01*
X4249648Y-52758553D01*
X4240680Y-52733490D01*
X4234212Y-52707669D01*
X4230306Y-52681338D01*
X4229000Y-52654751D01*
X4229000Y-51345249D01*
X4230306Y-51318662D01*
X4234212Y-51292331D01*
X4240680Y-51266510D01*
X4249648Y-51241447D01*
X4261029Y-51217383D01*
X4274714Y-51194551D01*
X4290571Y-51173170D01*
X4308447Y-51153447D01*
X4328170Y-51135571D01*
X4349551Y-51119714D01*
X4372383Y-51106029D01*
X4396447Y-51094648D01*
X4421510Y-51085680D01*
X4447331Y-51079212D01*
X4473662Y-51075306D01*
X4500249Y-51074000D01*
X5259751Y-51074000D01*
X5286338Y-51075306D01*
X5286338Y-51075306D01*
G37*
D16*
X4880000Y-52000000D03*
D15*
G36*
X5286338Y-57425306D02*
G01*
X5312669Y-57429212D01*
X5338490Y-57435680D01*
X5363553Y-57444648D01*
X5387617Y-57456029D01*
X5410449Y-57469714D01*
X5431830Y-57485571D01*
X5451553Y-57503447D01*
X5469429Y-57523170D01*
X5485286Y-57544551D01*
X5498971Y-57567383D01*
X5510352Y-57591447D01*
X5519320Y-57616510D01*
X5525788Y-57642331D01*
X5529694Y-57668662D01*
X5531000Y-57695249D01*
X5531000Y-59004751D01*
X5529694Y-59031338D01*
X5525788Y-59057669D01*
X5519320Y-59083490D01*
X5510352Y-59108553D01*
X5498971Y-59132617D01*
X5485286Y-59155449D01*
X5469429Y-59176830D01*
X5451553Y-59196553D01*
X5431830Y-59214429D01*
X5410449Y-59230286D01*
X5387617Y-59243971D01*
X5363553Y-59255352D01*
X5338490Y-59264320D01*
X5312669Y-59270788D01*
X5286338Y-59274694D01*
X5259751Y-59276000D01*
X4500249Y-59276000D01*
X4473662Y-59274694D01*
X4447331Y-59270788D01*
X4421510Y-59264320D01*
X4396447Y-59255352D01*
X4372383Y-59243971D01*
X4349551Y-59230286D01*
X4328170Y-59214429D01*
X4308447Y-59196553D01*
X4290571Y-59176830D01*
X4274714Y-59155449D01*
X4261029Y-59132617D01*
X4249648Y-59108553D01*
X4240680Y-59083490D01*
X4234212Y-59057669D01*
X4230306Y-59031338D01*
X4229000Y-59004751D01*
X4229000Y-57695249D01*
X4230306Y-57668662D01*
X4234212Y-57642331D01*
X4240680Y-57616510D01*
X4249648Y-57591447D01*
X4261029Y-57567383D01*
X4274714Y-57544551D01*
X4290571Y-57523170D01*
X4308447Y-57503447D01*
X4328170Y-57485571D01*
X4349551Y-57469714D01*
X4372383Y-57456029D01*
X4396447Y-57444648D01*
X4421510Y-57435680D01*
X4447331Y-57429212D01*
X4473662Y-57425306D01*
X4500249Y-57424000D01*
X5259751Y-57424000D01*
X5286338Y-57425306D01*
X5286338Y-57425306D01*
G37*
D16*
X4880000Y-58350000D03*
D18*
X6880000Y-58350000D03*
X8880000Y-58350000D03*
D21*
X94650000Y-31700000D03*
X94650000Y-18300000D03*
D17*
X74000000Y-15900000D03*
D15*
G36*
X74681338Y-13250306D02*
G01*
X74707669Y-13254212D01*
X74733490Y-13260680D01*
X74758553Y-13269648D01*
X74782617Y-13281029D01*
X74805449Y-13294714D01*
X74826830Y-13310571D01*
X74846553Y-13328447D01*
X74864429Y-13348170D01*
X74880286Y-13369551D01*
X74893971Y-13392383D01*
X74905352Y-13416447D01*
X74914320Y-13441510D01*
X74920788Y-13467331D01*
X74924694Y-13493662D01*
X74926000Y-13520249D01*
X74926000Y-14279751D01*
X74924694Y-14306338D01*
X74920788Y-14332669D01*
X74914320Y-14358490D01*
X74905352Y-14383553D01*
X74893971Y-14407617D01*
X74880286Y-14430449D01*
X74864429Y-14451830D01*
X74846553Y-14471553D01*
X74826830Y-14489429D01*
X74805449Y-14505286D01*
X74782617Y-14518971D01*
X74758553Y-14530352D01*
X74733490Y-14539320D01*
X74707669Y-14545788D01*
X74681338Y-14549694D01*
X74654751Y-14551000D01*
X73345249Y-14551000D01*
X73318662Y-14549694D01*
X73292331Y-14545788D01*
X73266510Y-14539320D01*
X73241447Y-14530352D01*
X73217383Y-14518971D01*
X73194551Y-14505286D01*
X73173170Y-14489429D01*
X73153447Y-14471553D01*
X73135571Y-14451830D01*
X73119714Y-14430449D01*
X73106029Y-14407617D01*
X73094648Y-14383553D01*
X73085680Y-14358490D01*
X73079212Y-14332669D01*
X73075306Y-14306338D01*
X73074000Y-14279751D01*
X73074000Y-13520249D01*
X73075306Y-13493662D01*
X73079212Y-13467331D01*
X73085680Y-13441510D01*
X73094648Y-13416447D01*
X73106029Y-13392383D01*
X73119714Y-13369551D01*
X73135571Y-13348170D01*
X73153447Y-13328447D01*
X73173170Y-13310571D01*
X73194551Y-13294714D01*
X73217383Y-13281029D01*
X73241447Y-13269648D01*
X73266510Y-13260680D01*
X73292331Y-13254212D01*
X73318662Y-13250306D01*
X73345249Y-13249000D01*
X74654751Y-13249000D01*
X74681338Y-13250306D01*
X74681338Y-13250306D01*
G37*
D16*
X74000000Y-13900000D03*
D15*
G36*
X68331338Y-13250306D02*
G01*
X68357669Y-13254212D01*
X68383490Y-13260680D01*
X68408553Y-13269648D01*
X68432617Y-13281029D01*
X68455449Y-13294714D01*
X68476830Y-13310571D01*
X68496553Y-13328447D01*
X68514429Y-13348170D01*
X68530286Y-13369551D01*
X68543971Y-13392383D01*
X68555352Y-13416447D01*
X68564320Y-13441510D01*
X68570788Y-13467331D01*
X68574694Y-13493662D01*
X68576000Y-13520249D01*
X68576000Y-14279751D01*
X68574694Y-14306338D01*
X68570788Y-14332669D01*
X68564320Y-14358490D01*
X68555352Y-14383553D01*
X68543971Y-14407617D01*
X68530286Y-14430449D01*
X68514429Y-14451830D01*
X68496553Y-14471553D01*
X68476830Y-14489429D01*
X68455449Y-14505286D01*
X68432617Y-14518971D01*
X68408553Y-14530352D01*
X68383490Y-14539320D01*
X68357669Y-14545788D01*
X68331338Y-14549694D01*
X68304751Y-14551000D01*
X66995249Y-14551000D01*
X66968662Y-14549694D01*
X66942331Y-14545788D01*
X66916510Y-14539320D01*
X66891447Y-14530352D01*
X66867383Y-14518971D01*
X66844551Y-14505286D01*
X66823170Y-14489429D01*
X66803447Y-14471553D01*
X66785571Y-14451830D01*
X66769714Y-14430449D01*
X66756029Y-14407617D01*
X66744648Y-14383553D01*
X66735680Y-14358490D01*
X66729212Y-14332669D01*
X66725306Y-14306338D01*
X66724000Y-14279751D01*
X66724000Y-13520249D01*
X66725306Y-13493662D01*
X66729212Y-13467331D01*
X66735680Y-13441510D01*
X66744648Y-13416447D01*
X66756029Y-13392383D01*
X66769714Y-13369551D01*
X66785571Y-13348170D01*
X66803447Y-13328447D01*
X66823170Y-13310571D01*
X66844551Y-13294714D01*
X66867383Y-13281029D01*
X66891447Y-13269648D01*
X66916510Y-13260680D01*
X66942331Y-13254212D01*
X66968662Y-13250306D01*
X66995249Y-13249000D01*
X68304751Y-13249000D01*
X68331338Y-13250306D01*
X68331338Y-13250306D01*
G37*
D16*
X67650000Y-13900000D03*
D17*
X67650000Y-15900000D03*
D15*
G36*
X61981338Y-13250306D02*
G01*
X62007669Y-13254212D01*
X62033490Y-13260680D01*
X62058553Y-13269648D01*
X62082617Y-13281029D01*
X62105449Y-13294714D01*
X62126830Y-13310571D01*
X62146553Y-13328447D01*
X62164429Y-13348170D01*
X62180286Y-13369551D01*
X62193971Y-13392383D01*
X62205352Y-13416447D01*
X62214320Y-13441510D01*
X62220788Y-13467331D01*
X62224694Y-13493662D01*
X62226000Y-13520249D01*
X62226000Y-14279751D01*
X62224694Y-14306338D01*
X62220788Y-14332669D01*
X62214320Y-14358490D01*
X62205352Y-14383553D01*
X62193971Y-14407617D01*
X62180286Y-14430449D01*
X62164429Y-14451830D01*
X62146553Y-14471553D01*
X62126830Y-14489429D01*
X62105449Y-14505286D01*
X62082617Y-14518971D01*
X62058553Y-14530352D01*
X62033490Y-14539320D01*
X62007669Y-14545788D01*
X61981338Y-14549694D01*
X61954751Y-14551000D01*
X60645249Y-14551000D01*
X60618662Y-14549694D01*
X60592331Y-14545788D01*
X60566510Y-14539320D01*
X60541447Y-14530352D01*
X60517383Y-14518971D01*
X60494551Y-14505286D01*
X60473170Y-14489429D01*
X60453447Y-14471553D01*
X60435571Y-14451830D01*
X60419714Y-14430449D01*
X60406029Y-14407617D01*
X60394648Y-14383553D01*
X60385680Y-14358490D01*
X60379212Y-14332669D01*
X60375306Y-14306338D01*
X60374000Y-14279751D01*
X60374000Y-13520249D01*
X60375306Y-13493662D01*
X60379212Y-13467331D01*
X60385680Y-13441510D01*
X60394648Y-13416447D01*
X60406029Y-13392383D01*
X60419714Y-13369551D01*
X60435571Y-13348170D01*
X60453447Y-13328447D01*
X60473170Y-13310571D01*
X60494551Y-13294714D01*
X60517383Y-13281029D01*
X60541447Y-13269648D01*
X60566510Y-13260680D01*
X60592331Y-13254212D01*
X60618662Y-13250306D01*
X60645249Y-13249000D01*
X61954751Y-13249000D01*
X61981338Y-13250306D01*
X61981338Y-13250306D01*
G37*
D16*
X61300000Y-13900000D03*
D17*
X61300000Y-15900000D03*
X54950000Y-15900000D03*
D15*
G36*
X55631338Y-13250306D02*
G01*
X55657669Y-13254212D01*
X55683490Y-13260680D01*
X55708553Y-13269648D01*
X55732617Y-13281029D01*
X55755449Y-13294714D01*
X55776830Y-13310571D01*
X55796553Y-13328447D01*
X55814429Y-13348170D01*
X55830286Y-13369551D01*
X55843971Y-13392383D01*
X55855352Y-13416447D01*
X55864320Y-13441510D01*
X55870788Y-13467331D01*
X55874694Y-13493662D01*
X55876000Y-13520249D01*
X55876000Y-14279751D01*
X55874694Y-14306338D01*
X55870788Y-14332669D01*
X55864320Y-14358490D01*
X55855352Y-14383553D01*
X55843971Y-14407617D01*
X55830286Y-14430449D01*
X55814429Y-14451830D01*
X55796553Y-14471553D01*
X55776830Y-14489429D01*
X55755449Y-14505286D01*
X55732617Y-14518971D01*
X55708553Y-14530352D01*
X55683490Y-14539320D01*
X55657669Y-14545788D01*
X55631338Y-14549694D01*
X55604751Y-14551000D01*
X54295249Y-14551000D01*
X54268662Y-14549694D01*
X54242331Y-14545788D01*
X54216510Y-14539320D01*
X54191447Y-14530352D01*
X54167383Y-14518971D01*
X54144551Y-14505286D01*
X54123170Y-14489429D01*
X54103447Y-14471553D01*
X54085571Y-14451830D01*
X54069714Y-14430449D01*
X54056029Y-14407617D01*
X54044648Y-14383553D01*
X54035680Y-14358490D01*
X54029212Y-14332669D01*
X54025306Y-14306338D01*
X54024000Y-14279751D01*
X54024000Y-13520249D01*
X54025306Y-13493662D01*
X54029212Y-13467331D01*
X54035680Y-13441510D01*
X54044648Y-13416447D01*
X54056029Y-13392383D01*
X54069714Y-13369551D01*
X54085571Y-13348170D01*
X54103447Y-13328447D01*
X54123170Y-13310571D01*
X54144551Y-13294714D01*
X54167383Y-13281029D01*
X54191447Y-13269648D01*
X54216510Y-13260680D01*
X54242331Y-13254212D01*
X54268662Y-13250306D01*
X54295249Y-13249000D01*
X55604751Y-13249000D01*
X55631338Y-13250306D01*
X55631338Y-13250306D01*
G37*
D16*
X54950000Y-13900000D03*
D15*
G36*
X49281338Y-13250306D02*
G01*
X49307669Y-13254212D01*
X49333490Y-13260680D01*
X49358553Y-13269648D01*
X49382617Y-13281029D01*
X49405449Y-13294714D01*
X49426830Y-13310571D01*
X49446553Y-13328447D01*
X49464429Y-13348170D01*
X49480286Y-13369551D01*
X49493971Y-13392383D01*
X49505352Y-13416447D01*
X49514320Y-13441510D01*
X49520788Y-13467331D01*
X49524694Y-13493662D01*
X49526000Y-13520249D01*
X49526000Y-14279751D01*
X49524694Y-14306338D01*
X49520788Y-14332669D01*
X49514320Y-14358490D01*
X49505352Y-14383553D01*
X49493971Y-14407617D01*
X49480286Y-14430449D01*
X49464429Y-14451830D01*
X49446553Y-14471553D01*
X49426830Y-14489429D01*
X49405449Y-14505286D01*
X49382617Y-14518971D01*
X49358553Y-14530352D01*
X49333490Y-14539320D01*
X49307669Y-14545788D01*
X49281338Y-14549694D01*
X49254751Y-14551000D01*
X47945249Y-14551000D01*
X47918662Y-14549694D01*
X47892331Y-14545788D01*
X47866510Y-14539320D01*
X47841447Y-14530352D01*
X47817383Y-14518971D01*
X47794551Y-14505286D01*
X47773170Y-14489429D01*
X47753447Y-14471553D01*
X47735571Y-14451830D01*
X47719714Y-14430449D01*
X47706029Y-14407617D01*
X47694648Y-14383553D01*
X47685680Y-14358490D01*
X47679212Y-14332669D01*
X47675306Y-14306338D01*
X47674000Y-14279751D01*
X47674000Y-13520249D01*
X47675306Y-13493662D01*
X47679212Y-13467331D01*
X47685680Y-13441510D01*
X47694648Y-13416447D01*
X47706029Y-13392383D01*
X47719714Y-13369551D01*
X47735571Y-13348170D01*
X47753447Y-13328447D01*
X47773170Y-13310571D01*
X47794551Y-13294714D01*
X47817383Y-13281029D01*
X47841447Y-13269648D01*
X47866510Y-13260680D01*
X47892331Y-13254212D01*
X47918662Y-13250306D01*
X47945249Y-13249000D01*
X49254751Y-13249000D01*
X49281338Y-13250306D01*
X49281338Y-13250306D01*
G37*
D16*
X48600000Y-13900000D03*
D17*
X48600000Y-15900000D03*
X42250000Y-15900000D03*
D15*
G36*
X42931338Y-13250306D02*
G01*
X42957669Y-13254212D01*
X42983490Y-13260680D01*
X43008553Y-13269648D01*
X43032617Y-13281029D01*
X43055449Y-13294714D01*
X43076830Y-13310571D01*
X43096553Y-13328447D01*
X43114429Y-13348170D01*
X43130286Y-13369551D01*
X43143971Y-13392383D01*
X43155352Y-13416447D01*
X43164320Y-13441510D01*
X43170788Y-13467331D01*
X43174694Y-13493662D01*
X43176000Y-13520249D01*
X43176000Y-14279751D01*
X43174694Y-14306338D01*
X43170788Y-14332669D01*
X43164320Y-14358490D01*
X43155352Y-14383553D01*
X43143971Y-14407617D01*
X43130286Y-14430449D01*
X43114429Y-14451830D01*
X43096553Y-14471553D01*
X43076830Y-14489429D01*
X43055449Y-14505286D01*
X43032617Y-14518971D01*
X43008553Y-14530352D01*
X42983490Y-14539320D01*
X42957669Y-14545788D01*
X42931338Y-14549694D01*
X42904751Y-14551000D01*
X41595249Y-14551000D01*
X41568662Y-14549694D01*
X41542331Y-14545788D01*
X41516510Y-14539320D01*
X41491447Y-14530352D01*
X41467383Y-14518971D01*
X41444551Y-14505286D01*
X41423170Y-14489429D01*
X41403447Y-14471553D01*
X41385571Y-14451830D01*
X41369714Y-14430449D01*
X41356029Y-14407617D01*
X41344648Y-14383553D01*
X41335680Y-14358490D01*
X41329212Y-14332669D01*
X41325306Y-14306338D01*
X41324000Y-14279751D01*
X41324000Y-13520249D01*
X41325306Y-13493662D01*
X41329212Y-13467331D01*
X41335680Y-13441510D01*
X41344648Y-13416447D01*
X41356029Y-13392383D01*
X41369714Y-13369551D01*
X41385571Y-13348170D01*
X41403447Y-13328447D01*
X41423170Y-13310571D01*
X41444551Y-13294714D01*
X41467383Y-13281029D01*
X41491447Y-13269648D01*
X41516510Y-13260680D01*
X41542331Y-13254212D01*
X41568662Y-13250306D01*
X41595249Y-13249000D01*
X42904751Y-13249000D01*
X42931338Y-13250306D01*
X42931338Y-13250306D01*
G37*
D16*
X42250000Y-13900000D03*
D22*
X73006813Y-32723540D03*
D15*
G36*
X73697110Y-33709386D02*
G01*
X72020967Y-33413837D01*
X72316516Y-31737694D01*
X73992659Y-32033243D01*
X73697110Y-33709386D01*
X73697110Y-33709386D01*
G37*
D22*
X76831424Y-25660371D03*
D23*
X76831424Y-25660371D02*
X76831424Y-25660371D01*
D22*
X75508225Y-33164606D03*
D23*
X75508225Y-33164606D02*
X75508225Y-33164606D01*
D22*
X74330012Y-25219305D03*
D23*
X74330012Y-25219305D02*
X74330012Y-25219305D01*
D21*
X67330000Y-72310000D03*
X90830000Y-72310000D03*
D24*
X69180000Y-55810000D03*
X71680000Y-55810000D03*
X84180000Y-55810000D03*
X89180000Y-55810000D03*
D22*
X69327190Y-24337174D03*
D23*
X69327190Y-24337174D02*
X69327190Y-24337174D01*
D22*
X70505403Y-32282475D03*
D23*
X70505403Y-32282475D02*
X70505403Y-32282475D01*
D22*
X71828602Y-24778240D03*
D23*
X71828602Y-24778240D02*
X71828602Y-24778240D01*
D22*
X68003991Y-31841409D03*
D15*
G36*
X68694288Y-32827255D02*
G01*
X67018145Y-32531706D01*
X67313694Y-30855563D01*
X68989837Y-31151112D01*
X68694288Y-32827255D01*
X68694288Y-32827255D01*
G37*
D22*
X63001166Y-30959277D03*
D15*
G36*
X63691463Y-31945123D02*
G01*
X62015320Y-31649574D01*
X62310869Y-29973431D01*
X63987012Y-30268980D01*
X63691463Y-31945123D01*
X63691463Y-31945123D01*
G37*
D22*
X66825777Y-23896108D03*
D23*
X66825777Y-23896108D02*
X66825777Y-23896108D01*
D22*
X65502578Y-31400343D03*
D23*
X65502578Y-31400343D02*
X65502578Y-31400343D01*
D22*
X64324365Y-23455042D03*
D23*
X64324365Y-23455042D02*
X64324365Y-23455042D01*
D22*
X59321544Y-22572909D03*
D23*
X59321544Y-22572909D02*
X59321544Y-22572909D01*
D22*
X60499757Y-30518210D03*
D23*
X60499757Y-30518210D02*
X60499757Y-30518210D01*
D22*
X61822956Y-23013975D03*
D23*
X61822956Y-23013975D02*
X61822956Y-23013975D01*
D22*
X57998345Y-30077144D03*
D15*
G36*
X58688642Y-31062990D02*
G01*
X57012499Y-30767441D01*
X57308048Y-29091298D01*
X58984191Y-29386847D01*
X58688642Y-31062990D01*
X58688642Y-31062990D01*
G37*
D22*
X52995522Y-29195012D03*
D15*
G36*
X53685819Y-30180858D02*
G01*
X52009676Y-29885309D01*
X52305225Y-28209166D01*
X53981368Y-28504715D01*
X53685819Y-30180858D01*
X53685819Y-30180858D01*
G37*
D22*
X56820133Y-22131843D03*
D23*
X56820133Y-22131843D02*
X56820133Y-22131843D01*
D22*
X55496934Y-29636078D03*
D23*
X55496934Y-29636078D02*
X55496934Y-29636078D01*
D22*
X54318721Y-21690777D03*
D23*
X54318721Y-21690777D02*
X54318721Y-21690777D01*
D22*
X49315899Y-20808642D03*
D23*
X49315899Y-20808642D02*
X49315899Y-20808642D01*
D22*
X50494112Y-28753943D03*
D23*
X50494112Y-28753943D02*
X50494112Y-28753943D01*
D22*
X51817311Y-21249708D03*
D23*
X51817311Y-21249708D02*
X51817311Y-21249708D01*
D22*
X47992700Y-28312877D03*
D15*
G36*
X48682997Y-29298723D02*
G01*
X47006854Y-29003174D01*
X47302403Y-27327031D01*
X48978546Y-27622580D01*
X48682997Y-29298723D01*
X48682997Y-29298723D01*
G37*
M02*
